<?xml version="1.0" encoding="UTF-8" standalone="no"?>
<!DOCTYPE svg PUBLIC "-//W3C//DTD SVG 1.1//EN"
 "http://www.w3.org/Graphics/SVG/1.1/DTD/svg11.dtd">
<!-- Generated by graphviz version 2.36.0 (20140111.2315)
 -->
<!-- Title: src/DebugInfo.hh Pages: 1 -->
<svg width="215pt" height="88pt"
 viewBox="0.00 0.00 215.00 88.00" xmlns="http://www.w3.org/2000/svg" xmlns:xlink="http://www.w3.org/1999/xlink">
<g id="graph0" class="graph" transform="scale(1 1) rotate(0) translate(4 84)">
<title>src/DebugInfo.hh</title>
<!-- Node1 -->
<g id="node1" class="node"><title>Node1</title>
<polygon fill="#bfbfbf" stroke="black" points="55,-59 55,-79 155,-79 155,-59 55,-59"/>
<text text-anchor="middle" x="105" y="-66.2" font-family="Avenir-Book" font-size="11.00">src/DebugInfo.hh</text>
</g>
<!-- Node2 -->
<g id="node2" class="node"><title>Node2</title>
<g id="a_node2"><a xlink:href="_debug_info_8cc.html" target="_top" xlink:title="Definition of DebugInfo class. ">
<polygon fill="none" stroke="black" points="-0.5,-1 -0.5,-21 98.5,-21 98.5,-1 -0.5,-1"/>
<text text-anchor="middle" x="49" y="-8.2" font-family="Avenir-Book" font-size="11.00">src/DebugInfo.cc</text>
</a>
</g>
</g>
<!-- Node1&#45;&gt;Node2 -->
<g id="edge1" class="edge"><title>Node1&#45;&gt;Node2</title>
<path fill="none" stroke="midnightblue" d="M88.4099,-51.4099C78.486,-41.486 66.2551,-29.2551 58.0752,-21.0752"/>
<polygon fill="midnightblue" stroke="midnightblue" points="86.2068,-54.1565 95.7527,-58.7527 91.1565,-49.2068 86.2068,-54.1565"/>
</g>
<!-- Node3 -->
<g id="node3" class="node"><title>Node3</title>
<g id="a_node3"><a xlink:href="_opt_pass_8cc.html" target="_top" xlink:title="Definition of Loom&#39;s LLVM opt pass. ">
<polygon fill="none" stroke="black" points="117,-1 117,-21 207,-21 207,-1 117,-1"/>
<text text-anchor="middle" x="162" y="-8.2" font-family="Avenir-Book" font-size="11.00">src/OptPass.cc</text>
</a>
</g>
</g>
<!-- Node1&#45;&gt;Node3 -->
<g id="edge2" class="edge"><title>Node1&#45;&gt;Node3</title>
<path fill="none" stroke="midnightblue" d="M121.587,-51.704C131.741,-41.7286 144.354,-29.3361 152.763,-21.0752"/>
<polygon fill="midnightblue" stroke="midnightblue" points="119.093,-49.2478 114.412,-58.7527 123.999,-54.2412 119.093,-49.2478"/>
</g>
</g>
</svg>
