<?xml version="1.0" encoding="UTF-8" standalone="no"?>
<!DOCTYPE svg PUBLIC "-//W3C//DTD SVG 1.1//EN"
 "http://www.w3.org/Graphics/SVG/1.1/DTD/svg11.dtd">
<!-- Generated by graphviz version 2.36.0 (20140111.2315)
 -->
<!-- Title: src/DebugInfo.cc Pages: 1 -->
<svg width="871pt" height="146pt"
 viewBox="0.00 0.00 871.00 146.00" xmlns="http://www.w3.org/2000/svg" xmlns:xlink="http://www.w3.org/1999/xlink">
<g id="graph0" class="graph" transform="scale(1 1) rotate(0) translate(4 142)">
<title>src/DebugInfo.cc</title>
<!-- Node1 -->
<g id="node1" class="node"><title>Node1</title>
<polygon fill="#bfbfbf" stroke="black" points="481.5,-117 481.5,-137 580.5,-137 580.5,-117 481.5,-117"/>
<text text-anchor="middle" x="531" y="-124.2" font-family="Avenir-Book" font-size="11.00">src/DebugInfo.cc</text>
</g>
<!-- Node2 -->
<g id="node2" class="node"><title>Node2</title>
<g id="a_node2"><a xlink:href="_debug_info_8hh.html" target="_top" xlink:title="Declaration of DebugInfo class. ">
<polygon fill="none" stroke="black" points="271.5,-59 271.5,-79 354.5,-79 354.5,-59 271.5,-59"/>
<text text-anchor="middle" x="313" y="-66.2" font-family="Avenir-Book" font-size="11.00">DebugInfo.hh</text>
</a>
</g>
</g>
<!-- Node1&#45;&gt;Node2 -->
<g id="edge1" class="edge"><title>Node1&#45;&gt;Node2</title>
<path fill="none" stroke="midnightblue" d="M495.489,-116.878C458.007,-107.249 398.822,-92.046 358.073,-81.5783"/>
<polygon fill="midnightblue" stroke="midnightblue" points="358.691,-78.1235 348.134,-79.0253 356.949,-84.9034 358.691,-78.1235"/>
</g>
<!-- Node6 -->
<g id="node6" class="node"><title>Node6</title>
<polygon fill="none" stroke="#bfbfbf" points="387.5,-1 387.5,-21 540.5,-21 540.5,-1 387.5,-1"/>
<text text-anchor="middle" x="464" y="-8.2" font-family="Avenir-Book" font-size="11.00">llvm/Support/raw_ostream.h</text>
</g>
<!-- Node1&#45;&gt;Node6 -->
<g id="edge9" class="edge"><title>Node1&#45;&gt;Node6</title>
<path fill="none" stroke="midnightblue" d="M495.124,-116.996C476.088,-110.194 454.342,-98.7268 443,-80 433.549,-64.395 441.986,-44.1693 450.821,-29.8446"/>
<polygon fill="midnightblue" stroke="midnightblue" points="453.829,-31.6438 456.5,-21.3912 448.018,-27.7402 453.829,-31.6438"/>
</g>
<!-- Node7 -->
<g id="node7" class="node"><title>Node7</title>
<polygon fill="none" stroke="#bfbfbf" points="451.5,-59 451.5,-79 610.5,-79 610.5,-59 451.5,-59"/>
<text text-anchor="middle" x="531" y="-66.2" font-family="Avenir-Book" font-size="11.00">llvm/IR/DebugInfoMetadata.h</text>
</g>
<!-- Node1&#45;&gt;Node7 -->
<g id="edge6" class="edge"><title>Node1&#45;&gt;Node7</title>
<path fill="none" stroke="midnightblue" d="M531,-116.753C531,-109.25 531,-98.4238 531,-89.0781"/>
<polygon fill="midnightblue" stroke="midnightblue" points="534.5,-89.0752 531,-79.0752 527.5,-89.0752 534.5,-89.0752"/>
</g>
<!-- Node8 -->
<g id="node8" class="node"><title>Node8</title>
<polygon fill="none" stroke="#bfbfbf" points="629,-59 629,-79 747,-79 747,-59 629,-59"/>
<text text-anchor="middle" x="688" y="-66.2" font-family="Avenir-Book" font-size="11.00">llvm/IR/IntrinsicInst.h</text>
</g>
<!-- Node1&#45;&gt;Node8 -->
<g id="edge7" class="edge"><title>Node1&#45;&gt;Node8</title>
<path fill="none" stroke="midnightblue" d="M556.574,-116.878C582.882,-107.494 624.035,-92.8155 653.276,-82.3857"/>
<polygon fill="midnightblue" stroke="midnightblue" points="654.454,-85.6815 662.697,-79.0253 652.102,-79.0884 654.454,-85.6815"/>
</g>
<!-- Node9 -->
<g id="node9" class="node"><title>Node9</title>
<polygon fill="none" stroke="#bfbfbf" points="765,-59 765,-79 863,-79 863,-59 765,-59"/>
<text text-anchor="middle" x="814" y="-66.2" font-family="Avenir-Book" font-size="11.00">llvm/IR/Module.h</text>
</g>
<!-- Node1&#45;&gt;Node9 -->
<g id="edge8" class="edge"><title>Node1&#45;&gt;Node9</title>
<path fill="none" stroke="midnightblue" d="M576.783,-116.94C626.31,-107.14 705.289,-91.5118 758.359,-81.0102"/>
<polygon fill="midnightblue" stroke="midnightblue" points="759.152,-84.4213 768.282,-79.0466 757.793,-77.5544 759.152,-84.4213"/>
</g>
<!-- Node3 -->
<g id="node3" class="node"><title>Node3</title>
<polygon fill="none" stroke="#bfbfbf" points="-0.5,-1 -0.5,-21 112.5,-21 112.5,-1 -0.5,-1"/>
<text text-anchor="middle" x="56" y="-8.2" font-family="Avenir-Book" font-size="11.00">llvm/IR/Instruction.h</text>
</g>
<!-- Node2&#45;&gt;Node3 -->
<g id="edge2" class="edge"><title>Node2&#45;&gt;Node3</title>
<path fill="none" stroke="midnightblue" d="M271.423,-58.9404C226.727,-49.2011 155.617,-33.7065 107.434,-23.2073"/>
<polygon fill="midnightblue" stroke="midnightblue" points="108.033,-19.7559 97.5174,-21.0466 106.543,-26.5955 108.033,-19.7559"/>
</g>
<!-- Node4 -->
<g id="node4" class="node"><title>Node4</title>
<polygon fill="none" stroke="#bfbfbf" points="131,-1 131,-21 239,-21 239,-1 131,-1"/>
<text text-anchor="middle" x="185" y="-8.2" font-family="Avenir-Book" font-size="11.00">llvm/IR/Metadata.h</text>
</g>
<!-- Node2&#45;&gt;Node4 -->
<g id="edge3" class="edge"><title>Node2&#45;&gt;Node4</title>
<path fill="none" stroke="midnightblue" d="M292.15,-58.878C271.23,-49.7255 238.796,-35.5357 215.09,-25.1643"/>
<polygon fill="midnightblue" stroke="midnightblue" points="216.406,-21.9198 205.841,-21.1181 213.6,-28.3329 216.406,-21.9198"/>
</g>
<!-- Node5 -->
<g id="node5" class="node"><title>Node5</title>
<polygon fill="none" stroke="#bfbfbf" points="257,-1 257,-21 369,-21 369,-1 257,-1"/>
<text text-anchor="middle" x="313" y="-8.2" font-family="Avenir-Book" font-size="11.00">llvm/IR/ValueMap.h</text>
</g>
<!-- Node2&#45;&gt;Node5 -->
<g id="edge4" class="edge"><title>Node2&#45;&gt;Node5</title>
<path fill="none" stroke="midnightblue" d="M313,-58.7527C313,-51.2504 313,-40.4238 313,-31.0781"/>
<polygon fill="midnightblue" stroke="midnightblue" points="316.5,-31.0752 313,-21.0752 309.5,-31.0752 316.5,-31.0752"/>
</g>
<!-- Node2&#45;&gt;Node6 -->
<g id="edge5" class="edge"><title>Node2&#45;&gt;Node6</title>
<path fill="none" stroke="midnightblue" d="M337.597,-58.878C362.715,-49.5628 401.902,-35.0296 429.985,-24.6149"/>
<polygon fill="midnightblue" stroke="midnightblue" points="431.255,-27.8769 439.414,-21.1181 428.821,-21.3138 431.255,-27.8769"/>
</g>
</g>
</svg>
