<?xml version="1.0" encoding="UTF-8" standalone="no"?>
<!DOCTYPE svg PUBLIC "-//W3C//DTD SVG 1.1//EN"
 "http://www.w3.org/Graphics/SVG/1.1/DTD/svg11.dtd">
<!-- Generated by graphviz version 2.36.0 (20140111.2315)
 -->
<!-- Title: src/DebugInfo.hh Pages: 1 -->
<svg width="548pt" height="88pt"
 viewBox="0.00 0.00 548.00 88.00" xmlns="http://www.w3.org/2000/svg" xmlns:xlink="http://www.w3.org/1999/xlink">
<g id="graph0" class="graph" transform="scale(1 1) rotate(0) translate(4 84)">
<title>src/DebugInfo.hh</title>
<!-- Node1 -->
<g id="node1" class="node"><title>Node1</title>
<polygon fill="#bfbfbf" stroke="black" points="199,-59 199,-79 299,-79 299,-59 199,-59"/>
<text text-anchor="middle" x="249" y="-66.2" font-family="Avenir-Book" font-size="11.00">src/DebugInfo.hh</text>
</g>
<!-- Node2 -->
<g id="node2" class="node"><title>Node2</title>
<polygon fill="none" stroke="#bfbfbf" points="-0.5,-1 -0.5,-21 112.5,-21 112.5,-1 -0.5,-1"/>
<text text-anchor="middle" x="56" y="-8.2" font-family="Avenir-Book" font-size="11.00">llvm/IR/Instruction.h</text>
</g>
<!-- Node1&#45;&gt;Node2 -->
<g id="edge1" class="edge"><title>Node1&#45;&gt;Node2</title>
<path fill="none" stroke="midnightblue" d="M217.562,-58.878C184.659,-49.331 132.867,-34.3033 96.8244,-23.8454"/>
<polygon fill="midnightblue" stroke="midnightblue" points="97.6843,-20.4506 87.1051,-21.0253 95.7336,-27.1734 97.6843,-20.4506"/>
</g>
<!-- Node3 -->
<g id="node3" class="node"><title>Node3</title>
<polygon fill="none" stroke="#bfbfbf" points="131,-1 131,-21 239,-21 239,-1 131,-1"/>
<text text-anchor="middle" x="185" y="-8.2" font-family="Avenir-Book" font-size="11.00">llvm/IR/Metadata.h</text>
</g>
<!-- Node1&#45;&gt;Node3 -->
<g id="edge2" class="edge"><title>Node1&#45;&gt;Node3</title>
<path fill="none" stroke="midnightblue" d="M238.432,-58.7527C228.832,-50.3534 214.471,-37.7874 203.054,-27.7976"/>
<polygon fill="midnightblue" stroke="midnightblue" points="205.202,-25.0262 195.372,-21.0752 200.593,-30.2943 205.202,-25.0262"/>
</g>
<!-- Node4 -->
<g id="node4" class="node"><title>Node4</title>
<polygon fill="none" stroke="#bfbfbf" points="257,-1 257,-21 369,-21 369,-1 257,-1"/>
<text text-anchor="middle" x="313" y="-8.2" font-family="Avenir-Book" font-size="11.00">llvm/IR/ValueMap.h</text>
</g>
<!-- Node1&#45;&gt;Node4 -->
<g id="edge3" class="edge"><title>Node1&#45;&gt;Node4</title>
<path fill="none" stroke="midnightblue" d="M259.568,-58.7527C269.168,-50.3534 283.529,-37.7874 294.946,-27.7976"/>
<polygon fill="midnightblue" stroke="midnightblue" points="297.407,-30.2943 302.628,-21.0752 292.798,-25.0262 297.407,-30.2943"/>
</g>
<!-- Node5 -->
<g id="node5" class="node"><title>Node5</title>
<polygon fill="none" stroke="#bfbfbf" points="387.5,-1 387.5,-21 540.5,-21 540.5,-1 387.5,-1"/>
<text text-anchor="middle" x="464" y="-8.2" font-family="Avenir-Book" font-size="11.00">llvm/Support/raw_ostream.h</text>
</g>
<!-- Node1&#45;&gt;Node5 -->
<g id="edge4" class="edge"><title>Node1&#45;&gt;Node5</title>
<path fill="none" stroke="midnightblue" d="M284.022,-58.878C320.989,-49.2494 379.359,-34.046 419.548,-23.5783"/>
<polygon fill="midnightblue" stroke="midnightblue" points="420.554,-26.9329 429.349,-21.0253 418.79,-20.1589 420.554,-26.9329"/>
</g>
</g>
</svg>
