<?xml version="1.0" encoding="UTF-8" standalone="no"?>
<!DOCTYPE svg PUBLIC "-//W3C//DTD SVG 1.1//EN"
 "http://www.w3.org/Graphics/SVG/1.1/DTD/svg11.dtd">
<!-- Generated by graphviz version 2.36.0 (20140111.2315)
 -->
<!-- Title: src/IRUtils.hh Pages: 1 -->
<svg width="317pt" height="88pt"
 viewBox="0.00 0.00 317.00 88.00" xmlns="http://www.w3.org/2000/svg" xmlns:xlink="http://www.w3.org/1999/xlink">
<g id="graph0" class="graph" transform="scale(1 1) rotate(0) translate(4 84)">
<title>src/IRUtils.hh</title>
<!-- Node1 -->
<g id="node1" class="node"><title>Node1</title>
<polygon fill="#bfbfbf" stroke="black" points="150,-59 150,-79 232,-79 232,-59 150,-59"/>
<text text-anchor="middle" x="191" y="-66.2" font-family="Avenir-Book" font-size="11.00">src/IRUtils.hh</text>
</g>
<!-- Node2 -->
<g id="node2" class="node"><title>Node2</title>
<polygon fill="none" stroke="#bfbfbf" points="-0.5,-1 -0.5,-21 118.5,-21 118.5,-1 -0.5,-1"/>
<text text-anchor="middle" x="59" y="-8.2" font-family="Avenir-Book" font-size="11.00">llvm/ADT/StringRef.h</text>
</g>
<!-- Node1&#45;&gt;Node2 -->
<g id="edge1" class="edge"><title>Node1&#45;&gt;Node2</title>
<path fill="none" stroke="midnightblue" d="M169.498,-58.878C147.828,-49.6848 114.179,-35.4095 89.7048,-25.0263"/>
<polygon fill="midnightblue" stroke="midnightblue" points="91.0654,-21.8016 80.4927,-21.1181 88.3315,-28.2457 91.0654,-21.8016"/>
</g>
<!-- Node3 -->
<g id="node3" class="node"><title>Node3</title>
<polygon fill="none" stroke="#bfbfbf" points="137,-1 137,-21 245,-21 245,-1 137,-1"/>
<text text-anchor="middle" x="191" y="-8.2" font-family="Avenir-Book" font-size="11.00">llvm/IR/IRBuilder.h</text>
</g>
<!-- Node1&#45;&gt;Node3 -->
<g id="edge2" class="edge"><title>Node1&#45;&gt;Node3</title>
<path fill="none" stroke="midnightblue" d="M191,-58.7527C191,-51.2504 191,-40.4238 191,-31.0781"/>
<polygon fill="midnightblue" stroke="midnightblue" points="194.5,-31.0752 191,-21.0752 187.5,-31.0752 194.5,-31.0752"/>
</g>
<!-- Node4 -->
<g id="node4" class="node"><title>Node4</title>
<polygon fill="none" stroke="#bfbfbf" points="263,-1 263,-21 309,-21 309,-1 263,-1"/>
<text text-anchor="middle" x="286" y="-8.2" font-family="Avenir-Book" font-size="11.00">vector</text>
</g>
<!-- Node1&#45;&gt;Node4 -->
<g id="edge3" class="edge"><title>Node1&#45;&gt;Node4</title>
<path fill="none" stroke="midnightblue" d="M206.687,-58.7527C221.628,-49.9457 244.34,-36.5575 261.636,-26.3617"/>
<polygon fill="midnightblue" stroke="midnightblue" points="263.767,-29.1685 270.605,-21.0752 260.213,-23.1382 263.767,-29.1685"/>
</g>
</g>
</svg>
