<?xml version="1.0" encoding="UTF-8" standalone="no"?>
<!DOCTYPE svg PUBLIC "-//W3C//DTD SVG 1.1//EN"
 "http://www.w3.org/Graphics/SVG/1.1/DTD/svg11.dtd">
<!-- Generated by graphviz version 2.36.0 (20140111.2315)
 -->
<!-- Title: src/IRUtils.cc Pages: 1 -->
<svg width="545pt" height="146pt"
 viewBox="0.00 0.00 545.00 146.00" xmlns="http://www.w3.org/2000/svg" xmlns:xlink="http://www.w3.org/1999/xlink">
<g id="graph0" class="graph" transform="scale(1 1) rotate(0) translate(4 142)">
<title>src/IRUtils.cc</title>
<!-- Node1 -->
<g id="node1" class="node"><title>Node1</title>
<polygon fill="#bfbfbf" stroke="black" points="309.5,-117 309.5,-137 390.5,-137 390.5,-117 309.5,-117"/>
<text text-anchor="middle" x="350" y="-124.2" font-family="Avenir-Book" font-size="11.00">src/IRUtils.cc</text>
</g>
<!-- Node2 -->
<g id="node2" class="node"><title>Node2</title>
<g id="a_node2"><a xlink:href="_i_r_utils_8hh.html" target="_top" xlink:title="Declarations of LLVM IR utility functions. ">
<polygon fill="none" stroke="black" points="159,-59 159,-79 223,-79 223,-59 159,-59"/>
<text text-anchor="middle" x="191" y="-66.2" font-family="Avenir-Book" font-size="11.00">IRUtils.hh</text>
</a>
</g>
</g>
<!-- Node1&#45;&gt;Node2 -->
<g id="edge1" class="edge"><title>Node1&#45;&gt;Node2</title>
<path fill="none" stroke="midnightblue" d="M324.1,-116.878C297.457,-107.494 255.78,-92.8155 226.167,-82.3857"/>
<polygon fill="midnightblue" stroke="midnightblue" points="227.22,-79.0461 216.625,-79.0253 224.895,-85.6486 227.22,-79.0461"/>
</g>
<!-- Node6 -->
<g id="node6" class="node"><title>Node6</title>
<polygon fill="none" stroke="#bfbfbf" points="241,-59 241,-79 339,-79 339,-59 241,-59"/>
<text text-anchor="middle" x="290" y="-66.2" font-family="Avenir-Book" font-size="11.00">llvm/IR/Module.h</text>
</g>
<!-- Node1&#45;&gt;Node6 -->
<g id="edge5" class="edge"><title>Node1&#45;&gt;Node6</title>
<path fill="none" stroke="midnightblue" d="M340.092,-116.753C331.18,-108.435 317.89,-96.031 307.238,-86.0893"/>
<polygon fill="midnightblue" stroke="midnightblue" points="309.422,-83.3397 299.723,-79.0752 304.646,-88.4571 309.422,-83.3397"/>
</g>
<!-- Node7 -->
<g id="node7" class="node"><title>Node7</title>
<polygon fill="none" stroke="#bfbfbf" points="357.5,-59 357.5,-79 462.5,-79 462.5,-59 357.5,-59"/>
<text text-anchor="middle" x="410" y="-66.2" font-family="Avenir-Book" font-size="11.00">llvm/IR/Function.h</text>
</g>
<!-- Node1&#45;&gt;Node7 -->
<g id="edge6" class="edge"><title>Node1&#45;&gt;Node7</title>
<path fill="none" stroke="midnightblue" d="M359.908,-116.753C368.82,-108.435 382.11,-96.031 392.762,-86.0893"/>
<polygon fill="midnightblue" stroke="midnightblue" points="395.354,-88.4571 400.277,-79.0752 390.578,-83.3397 395.354,-88.4571"/>
</g>
<!-- Node8 -->
<g id="node8" class="node"><title>Node8</title>
<polygon fill="none" stroke="#bfbfbf" points="481,-59 481,-79 537,-79 537,-59 481,-59"/>
<text text-anchor="middle" x="509" y="-66.2" font-family="Avenir-Book" font-size="11.00">sstream</text>
</g>
<!-- Node1&#45;&gt;Node8 -->
<g id="edge7" class="edge"><title>Node1&#45;&gt;Node8</title>
<path fill="none" stroke="midnightblue" d="M375.9,-116.878C402.543,-107.494 444.22,-92.8155 473.833,-82.3857"/>
<polygon fill="midnightblue" stroke="midnightblue" points="475.105,-85.6486 483.375,-79.0253 472.78,-79.0461 475.105,-85.6486"/>
</g>
<!-- Node3 -->
<g id="node3" class="node"><title>Node3</title>
<polygon fill="none" stroke="#bfbfbf" points="-0.5,-1 -0.5,-21 118.5,-21 118.5,-1 -0.5,-1"/>
<text text-anchor="middle" x="59" y="-8.2" font-family="Avenir-Book" font-size="11.00">llvm/ADT/StringRef.h</text>
</g>
<!-- Node2&#45;&gt;Node3 -->
<g id="edge2" class="edge"><title>Node2&#45;&gt;Node3</title>
<path fill="none" stroke="midnightblue" d="M169.498,-58.878C147.828,-49.6848 114.179,-35.4095 89.7048,-25.0263"/>
<polygon fill="midnightblue" stroke="midnightblue" points="91.0654,-21.8016 80.4927,-21.1181 88.3315,-28.2457 91.0654,-21.8016"/>
</g>
<!-- Node4 -->
<g id="node4" class="node"><title>Node4</title>
<polygon fill="none" stroke="#bfbfbf" points="137,-1 137,-21 245,-21 245,-1 137,-1"/>
<text text-anchor="middle" x="191" y="-8.2" font-family="Avenir-Book" font-size="11.00">llvm/IR/IRBuilder.h</text>
</g>
<!-- Node2&#45;&gt;Node4 -->
<g id="edge3" class="edge"><title>Node2&#45;&gt;Node4</title>
<path fill="none" stroke="midnightblue" d="M191,-58.7527C191,-51.2504 191,-40.4238 191,-31.0781"/>
<polygon fill="midnightblue" stroke="midnightblue" points="194.5,-31.0752 191,-21.0752 187.5,-31.0752 194.5,-31.0752"/>
</g>
<!-- Node5 -->
<g id="node5" class="node"><title>Node5</title>
<polygon fill="none" stroke="#bfbfbf" points="263,-1 263,-21 309,-21 309,-1 263,-1"/>
<text text-anchor="middle" x="286" y="-8.2" font-family="Avenir-Book" font-size="11.00">vector</text>
</g>
<!-- Node2&#45;&gt;Node5 -->
<g id="edge4" class="edge"><title>Node2&#45;&gt;Node5</title>
<path fill="none" stroke="midnightblue" d="M206.687,-58.7527C221.628,-49.9457 244.34,-36.5575 261.636,-26.3617"/>
<polygon fill="midnightblue" stroke="midnightblue" points="263.767,-29.1685 270.605,-21.0752 260.213,-23.1382 263.767,-29.1685"/>
</g>
</g>
</svg>
