<?xml version="1.0" encoding="UTF-8" standalone="no"?>
<!DOCTYPE svg PUBLIC "-//W3C//DTD SVG 1.1//EN"
 "http://www.w3.org/Graphics/SVG/1.1/DTD/svg11.dtd">
<!-- Generated by graphviz version 2.36.0 (20140111.2315)
 -->
<!-- Title: src/IRUtils.hh Pages: 1 -->
<!--zoomable 436 -->
<svg id="main" version="1.1" xmlns="http://www.w3.org/2000/svg" xmlns:xlink="http://www.w3.org/1999/xlink" xml:space="preserve" onload="init(evt)">
<style type="text/css"><![CDATA[
.edge:hover path { stroke: red; }
.edge:hover polygon { stroke: red; fill: red; }
]]></style>
<script type="text/javascript"><![CDATA[
var edges = document.getElementsByTagName('g');
if (edges && edges.length) {
  for (var i=0;i<edges.length;i++) {
    if (edges[i].id.substr(0,4)=='edge') {
      edges[i].setAttribute('class','edge');
    }
  }
}
]]></script>
        <defs>
                <circle id="rim" cx="0" cy="0" r="7"/>
                <circle id="rim2" cx="0" cy="0" r="3.5"/>
                <g id="zoomPlus">
                        <use xlink:href="#rim" fill="#404040">
                                <set attributeName="fill" to="#808080" begin="zoomplus.mouseover" end="zoomplus.mouseout"/>
                        </use>
                        <path d="M-4,0h8M0,-4v8" fill="none" stroke="white" stroke-width="1.5" pointer-events="none"/>
                </g>
                <g id="zoomMin">
                        <use xlink:href="#rim" fill="#404040">
                                <set attributeName="fill" to="#808080" begin="zoomminus.mouseover" end="zoomminus.mouseout"/>
                        </use>
                        <path d="M-4,0h8" fill="none" stroke="white" stroke-width="1.5" pointer-events="none"/>
                </g>
                <g id="dirArrow">
                        <path fill="none" stroke="white" stroke-width="1.5" d="M0,-3.0v7 M-2.5,-0.5L0,-3.0L2.5,-0.5"/>
                </g>
               <g id="resetDef">
                       <use xlink:href="#rim2" fill="#404040">
                               <set attributeName="fill" to="#808080" begin="reset.mouseover" end="reset.mouseout"/>
                       </use>
               </g>
        </defs>

<script type="text/javascript">
var viewWidth = 706;
var viewHeight = 436;
var sectionId = 'dynsection-1';
</script>
<script xlink:href="svgpan.js"/>
<svg id="graph" class="graph">
<g id="viewport">
<title>src/IRUtils.hh</title>
<!-- Node1 -->
<g id="node1" class="node"><title>Node1</title>
<polygon fill="#bfbfbf" stroke="black" points="233.109,-407 233.109,-427 315.109,-427 315.109,-407 233.109,-407"/>
<text text-anchor="middle" x="274.109" y="-414.2" font-family="Avenir-Book" font-size="11.00">src/IRUtils.hh</text>
</g>
<!-- Node2 -->
<g id="node2" class="node"><title>Node2</title>
<g id="a_node2"><a xlink:href="_instr_strategy_8hh.html" target="_top" xlink:title="Declaration of loom::InstrStrategy. ">
<polygon fill="none" stroke="black" points="218.109,-291 218.109,-311 330.109,-311 330.109,-291 218.109,-291"/>
<text text-anchor="middle" x="274.109" y="-298.2" font-family="Avenir-Book" font-size="11.00">src/InstrStrategy.hh</text>
</a>
</g>
</g>
<!-- Node1&#45;&gt;Node2 -->
<g id="edge1" class="edge"><title>Node1&#45;&gt;Node2</title>
<path fill="none" stroke="midnightblue" d="M274.109,-396.603C274.109,-371.731 274.109,-329.609 274.109,-311.139"/>
<polygon fill="midnightblue" stroke="midnightblue" points="270.609,-396.671 274.109,-406.671 277.609,-396.671 270.609,-396.671"/>
</g>
<!-- Node3 -->
<g id="node3" class="node"><title>Node3</title>
<g id="a_node3"><a xlink:href="_instrumentation_8hh.html" target="_top" xlink:title="Declaration of loom::Instrumentation. ">
<polygon fill="none" stroke="black" points="119.609,-117 119.609,-137 244.609,-137 244.609,-117 119.609,-117"/>
<text text-anchor="middle" x="182.109" y="-124.2" font-family="Avenir-Book" font-size="11.00">src/Instrumentation.hh</text>
</a>
</g>
</g>
<!-- Node1&#45;&gt;Node3 -->
<g id="edge23" class="edge"><title>Node1&#45;&gt;Node3</title>
<path fill="none" stroke="midnightblue" d="M251.976,-400.929C226.2,-381.393 187.109,-344.723 187.109,-302 187.109,-302 187.109,-302 187.109,-242 187.109,-202.973 184.148,-156.503 182.783,-137.156"/>
<polygon fill="midnightblue" stroke="midnightblue" points="249.99,-403.812 260.131,-406.881 254.117,-398.158 249.99,-403.812"/>
</g>
<!-- Node8 -->
<g id="node8" class="node"><title>Node8</title>
<g id="a_node8"><a xlink:href="_opt_pass_8cc.html" target="_top" xlink:title="Definition of Loom&#39;s LLVM opt pass. ">
<polygon fill="none" stroke="black" points="266.109,-1 266.109,-21 356.109,-21 356.109,-1 266.109,-1"/>
<text text-anchor="middle" x="311.109" y="-8.2" font-family="Avenir-Book" font-size="11.00">src/OptPass.cc</text>
</a>
</g>
</g>
<!-- Node1&#45;&gt;Node8 -->
<g id="edge25" class="edge"><title>Node1&#45;&gt;Node8</title>
<path fill="none" stroke="midnightblue" d="M222.691,-416.482C143.595,-414.231 1.10862,-396.992 1.10862,-302 1.10862,-302 1.10862,-302 1.10862,-126 1.10862,-94.6202 -3.32587,-78.869 20.1086,-58 55.6801,-26.3227 193.522,-16.3899 265.995,-13.3289"/>
<polygon fill="midnightblue" stroke="midnightblue" points="222.87,-419.987 232.942,-416.701 223.019,-412.988 222.87,-419.987"/>
</g>
<!-- Node13 -->
<g id="node13" class="node"><title>Node13</title>
<g id="a_node13"><a xlink:href="_logger_8hh.html" target="_top" xlink:title="Declaration of loom::Logger. ">
<polygon fill="none" stroke="black" points="335.109,-349 335.109,-369 419.109,-369 419.109,-349 335.109,-349"/>
<text text-anchor="middle" x="377.109" y="-356.2" font-family="Avenir-Book" font-size="11.00">src/Logger.hh</text>
</a>
</g>
</g>
<!-- Node1&#45;&gt;Node13 -->
<g id="edge16" class="edge"><title>Node1&#45;&gt;Node13</title>
<path fill="none" stroke="midnightblue" d="M300.111,-401.863C319.036,-391.573 344.105,-377.944 360.417,-369.075"/>
<polygon fill="midnightblue" stroke="midnightblue" points="298.231,-398.901 291.117,-406.753 301.574,-405.051 298.231,-398.901"/>
</g>
<!-- Node17 -->
<g id="node17" class="node"><title>Node17</title>
<g id="a_node17"><a xlink:href="_i_r_utils_8cc.html" target="_top" xlink:title="Definition of LLVM IR utility functions. ">
<polygon fill="none" stroke="black" points="437.609,-349 437.609,-369 518.609,-369 518.609,-349 437.609,-349"/>
<text text-anchor="middle" x="478.109" y="-356.2" font-family="Avenir-Book" font-size="11.00">src/IRUtils.cc</text>
</a>
</g>
</g>
<!-- Node1&#45;&gt;Node17 -->
<g id="edge24" class="edge"><title>Node1&#45;&gt;Node17</title>
<path fill="none" stroke="midnightblue" d="M317.158,-404.183C355.388,-393.688 410.44,-378.576 445.231,-369.025"/>
<polygon fill="midnightblue" stroke="midnightblue" points="316.056,-400.856 307.339,-406.878 317.909,-407.606 316.056,-400.856"/>
</g>
<!-- Node2&#45;&gt;Node3 -->
<g id="edge2" class="edge"><title>Node2&#45;&gt;Node3</title>
<path fill="none" stroke="midnightblue" d="M264.331,-281.72C244.829,-245.26 201.713,-164.651 187.079,-137.293"/>
<polygon fill="midnightblue" stroke="midnightblue" points="261.359,-283.585 269.162,-290.753 267.532,-280.284 261.359,-283.585"/>
</g>
<!-- Node4 -->
<g id="node4" class="node"><title>Node4</title>
<g id="a_node4"><a xlink:href="_instr_strategy_8cc.html" target="_top" xlink:title="Definition of loom::InstrStrategy. ">
<polygon fill="none" stroke="black" points="171.609,-59 171.609,-79 282.609,-79 282.609,-59 171.609,-59"/>
<text text-anchor="middle" x="227.109" y="-66.2" font-family="Avenir-Book" font-size="11.00">src/InstrStrategy.cc</text>
</a>
</g>
</g>
<!-- Node2&#45;&gt;Node4 -->
<g id="edge15" class="edge"><title>Node2&#45;&gt;Node4</title>
<path fill="none" stroke="midnightblue" d="M274.403,-280.525C274.374,-246.347 271.855,-173.717 253.109,-116 248.631,-102.215 239.777,-87.9233 233.654,-79.0016"/>
<polygon fill="midnightblue" stroke="midnightblue" points="270.901,-280.9 274.333,-290.924 277.901,-280.948 270.901,-280.9"/>
</g>
<!-- Node9 -->
<g id="node9" class="node"><title>Node9</title>
<g id="a_node9"><a xlink:href="_policy_8hh.html" target="_top" xlink:title="Definition of loom::Policy. ">
<polygon fill="none" stroke="black" points="305.609,-233 305.609,-253 384.609,-253 384.609,-233 305.609,-233"/>
<text text-anchor="middle" x="345.109" y="-240.2" font-family="Avenir-Book" font-size="11.00">src/Policy.hh</text>
</a>
</g>
</g>
<!-- Node2&#45;&gt;Node9 -->
<g id="edge8" class="edge"><title>Node2&#45;&gt;Node9</title>
<path fill="none" stroke="midnightblue" d="M294.029,-284.288C306.799,-274.216 322.924,-261.498 333.603,-253.075"/>
<polygon fill="midnightblue" stroke="midnightblue" points="291.517,-281.812 285.833,-290.753 295.852,-287.308 291.517,-281.812"/>
</g>
<!-- Node3&#45;&gt;Node4 -->
<g id="edge3" class="edge"><title>Node3&#45;&gt;Node4</title>
<path fill="none" stroke="midnightblue" d="M195.916,-108.818C203.803,-99.0032 213.373,-87.0932 219.816,-79.0752"/>
<polygon fill="midnightblue" stroke="midnightblue" points="193.075,-106.765 189.539,-116.753 198.532,-111.15 193.075,-106.765"/>
</g>
<!-- Node5 -->
<g id="node5" class="node"><title>Node5</title>
<g id="a_node5"><a xlink:href="_instrumentation_8cc.html" target="_top" xlink:title="Definition of loom::Instrumentation. ">
<polygon fill="none" stroke="black" points="29.1086,-59 29.1086,-79 153.109,-79 153.109,-59 29.1086,-59"/>
<text text-anchor="middle" x="91.1086" y="-66.2" font-family="Avenir-Book" font-size="11.00">src/Instrumentation.cc</text>
</a>
</g>
</g>
<!-- Node3&#45;&gt;Node5 -->
<g id="edge4" class="edge"><title>Node3&#45;&gt;Node5</title>
<path fill="none" stroke="midnightblue" d="M158.445,-111.438C141.81,-101.201 120.069,-87.8221 105.856,-79.0752"/>
<polygon fill="midnightblue" stroke="midnightblue" points="156.731,-114.493 167.082,-116.753 160.4,-108.531 156.731,-114.493"/>
</g>
<!-- Node6 -->
<g id="node6" class="node"><title>Node6</title>
<g id="a_node6"><a xlink:href="_instrumenter_8hh.html" target="_top" xlink:title="Declaration of loom::Instrumenter. ">
<polygon fill="none" stroke="black" points="365.609,-59 365.609,-79 476.609,-79 476.609,-59 365.609,-59"/>
<text text-anchor="middle" x="421.109" y="-66.2" font-family="Avenir-Book" font-size="11.00">src/Instrumenter.hh</text>
</a>
</g>
</g>
<!-- Node3&#45;&gt;Node6 -->
<g id="edge5" class="edge"><title>Node3&#45;&gt;Node6</title>
<path fill="none" stroke="midnightblue" d="M230.564,-114.647C275.381,-104.145 341.129,-88.74 382.499,-79.0466"/>
<polygon fill="midnightblue" stroke="midnightblue" points="229.712,-111.251 220.774,-116.94 231.309,-118.067 229.712,-111.251"/>
</g>
<!-- Node7 -->
<g id="node7" class="node"><title>Node7</title>
<g id="a_node7"><a xlink:href="_instrumenter_8cc.html" target="_top" xlink:title="Definition of loom::Instrumenter. ">
<polygon fill="none" stroke="black" points="391.109,-1 391.109,-21 501.109,-21 501.109,-1 391.109,-1"/>
<text text-anchor="middle" x="446.109" y="-8.2" font-family="Avenir-Book" font-size="11.00">src/Instrumenter.cc</text>
</a>
</g>
</g>
<!-- Node6&#45;&gt;Node7 -->
<g id="edge6" class="edge"><title>Node6&#45;&gt;Node7</title>
<path fill="none" stroke="midnightblue" d="M429.315,-49.6182C433.588,-40.0471 438.622,-28.7692 442.057,-21.0752"/>
<polygon fill="midnightblue" stroke="midnightblue" points="426.117,-48.1946 425.237,-58.7527 432.509,-51.0482 426.117,-48.1946"/>
</g>
<!-- Node6&#45;&gt;Node8 -->
<g id="edge7" class="edge"><title>Node6&#45;&gt;Node8</title>
<path fill="none" stroke="midnightblue" d="M393.891,-54.1437C373.617,-43.8227 346.514,-30.0245 328.935,-21.0752"/>
<polygon fill="midnightblue" stroke="midnightblue" points="392.445,-57.3349 402.944,-58.7527 395.621,-51.0968 392.445,-57.3349"/>
</g>
<!-- Node9&#45;&gt;Node6 -->
<g id="edge13" class="edge"><title>Node9&#45;&gt;Node6</title>
<path fill="none" stroke="midnightblue" d="M368.849,-227.499C381.167,-219.244 395.933,-208.141 407.109,-196 427.655,-173.677 434.79,-167.177 443.109,-138 449.164,-116.76 436.163,-92.1817 427.678,-79.176"/>
<polygon fill="midnightblue" stroke="midnightblue" points="366.883,-224.602 360.398,-232.98 370.692,-230.475 366.883,-224.602"/>
</g>
<!-- Node10 -->
<g id="node10" class="node"><title>Node10</title>
<g id="a_node10"><a xlink:href="_policy_file_8hh.html" target="_top" xlink:title="Declaration of loom::PolicyFile. ">
<polygon fill="none" stroke="black" points="301.609,-175 301.609,-195 398.609,-195 398.609,-175 301.609,-175"/>
<text text-anchor="middle" x="350.109" y="-182.2" font-family="Avenir-Book" font-size="11.00">src/PolicyFile.hh</text>
</a>
</g>
</g>
<!-- Node9&#45;&gt;Node10 -->
<g id="edge9" class="edge"><title>Node9&#45;&gt;Node10</title>
<path fill="none" stroke="midnightblue" d="M346.831,-222.707C347.668,-213.338 348.633,-202.526 349.298,-195.075"/>
<polygon fill="midnightblue" stroke="midnightblue" points="343.338,-222.481 345.934,-232.753 350.31,-223.104 343.338,-222.481"/>
</g>
<!-- Node12 -->
<g id="node12" class="node"><title>Node12</title>
<g id="a_node12"><a xlink:href="_policy_8cc.html" target="_top" xlink:title="Definition of loom::Policy. ">
<polygon fill="none" stroke="black" points="481.109,-175 481.109,-195 559.109,-195 559.109,-175 481.109,-175"/>
<text text-anchor="middle" x="520.109" y="-182.2" font-family="Avenir-Book" font-size="11.00">src/Policy.cc</text>
</a>
</g>
</g>
<!-- Node9&#45;&gt;Node12 -->
<g id="edge14" class="edge"><title>Node9&#45;&gt;Node12</title>
<path fill="none" stroke="midnightblue" d="M383.301,-229.778C416.036,-219.303 462.441,-204.454 491.905,-195.025"/>
<polygon fill="midnightblue" stroke="midnightblue" points="382.072,-226.497 373.615,-232.878 384.206,-233.164 382.072,-226.497"/>
</g>
<!-- Node10&#45;&gt;Node3 -->
<g id="edge10" class="edge"><title>Node10&#45;&gt;Node3</title>
<path fill="none" stroke="midnightblue" d="M313.037,-171.643C281.634,-161.175 237.348,-146.413 209.185,-137.025"/>
<polygon fill="midnightblue" stroke="midnightblue" points="312.149,-175.036 322.743,-174.878 314.363,-168.395 312.149,-175.036"/>
</g>
<!-- Node10&#45;&gt;Node8 -->
<g id="edge11" class="edge"><title>Node10&#45;&gt;Node8</title>
<path fill="none" stroke="midnightblue" d="M340.835,-165.68C336.992,-157.409 332.811,-147.401 330.109,-138 317.825,-95.2646 313.117,-41.9619 311.662,-21.0309"/>
<polygon fill="midnightblue" stroke="midnightblue" points="337.72,-167.279 345.231,-174.751 344.019,-164.226 337.72,-167.279"/>
</g>
<!-- Node11 -->
<g id="node11" class="node"><title>Node11</title>
<g id="a_node11"><a xlink:href="_policy_file_8cc.html" target="_top" xlink:title="Definition of loom::PolicyFile. ">
<polygon fill="none" stroke="black" points="339.609,-117 339.609,-137 434.609,-137 434.609,-117 339.609,-117"/>
<text text-anchor="middle" x="387.109" y="-124.2" font-family="Avenir-Book" font-size="11.00">src/PolicyFile.cc</text>
</a>
</g>
</g>
<!-- Node10&#45;&gt;Node11 -->
<g id="edge12" class="edge"><title>Node10&#45;&gt;Node11</title>
<path fill="none" stroke="midnightblue" d="M361.856,-166.22C368.263,-156.524 375.922,-144.931 381.113,-137.075"/>
<polygon fill="midnightblue" stroke="midnightblue" points="358.811,-164.48 356.218,-174.753 364.651,-168.339 358.811,-164.48"/>
</g>
<!-- Node13&#45;&gt;Node2 -->
<g id="edge17" class="edge"><title>Node13&#45;&gt;Node2</title>
<path fill="none" stroke="midnightblue" d="M351.106,-343.863C332.181,-333.573 307.112,-319.944 290.8,-311.075"/>
<polygon fill="midnightblue" stroke="midnightblue" points="349.643,-347.051 360.1,-348.753 352.987,-340.901 349.643,-347.051"/>
</g>
<!-- Node13&#45;&gt;Node7 -->
<g id="edge18" class="edge"><title>Node13&#45;&gt;Node7</title>
<path fill="none" stroke="midnightblue" d="M415.491,-345.79C476.087,-325.342 587.109,-282.609 587.109,-244 587.109,-244 587.109,-244 587.109,-126 587.109,-69.1801 517.013,-35.8117 475.667,-21.0717"/>
<polygon fill="midnightblue" stroke="midnightblue" points="414.251,-342.514 405.868,-348.993 416.461,-349.156 414.251,-342.514"/>
</g>
<!-- Node14 -->
<g id="node14" class="node"><title>Node14</title>
<g id="a_node14"><a xlink:href="_k_trace_logger_8hh.html" target="_top" xlink:title="Declaration of loom::KTraceLogger. ">
<polygon fill="none" stroke="black" points="353.609,-291 353.609,-311 472.609,-311 472.609,-291 353.609,-291"/>
<text text-anchor="middle" x="413.109" y="-298.2" font-family="Avenir-Book" font-size="11.00">src/KTraceLogger.hh</text>
</a>
</g>
</g>
<!-- Node13&#45;&gt;Node14 -->
<g id="edge19" class="edge"><title>Node13&#45;&gt;Node14</title>
<path fill="none" stroke="midnightblue" d="M388.538,-340.22C394.772,-330.524 402.224,-318.931 407.275,-311.075"/>
<polygon fill="midnightblue" stroke="midnightblue" points="385.517,-338.448 383.053,-348.753 391.405,-342.234 385.517,-338.448"/>
</g>
<!-- Node16 -->
<g id="node16" class="node"><title>Node16</title>
<g id="a_node16"><a xlink:href="_logger_8cc.html" target="_top" xlink:title="Definition of loom::Logger. ">
<polygon fill="none" stroke="black" points="615.609,-291 615.609,-311 698.609,-311 698.609,-291 615.609,-291"/>
<text text-anchor="middle" x="657.109" y="-298.2" font-family="Avenir-Book" font-size="11.00">src/Logger.cc</text>
</a>
</g>
</g>
<!-- Node13&#45;&gt;Node16 -->
<g id="edge22" class="edge"><title>Node13&#45;&gt;Node16</title>
<path fill="none" stroke="midnightblue" d="M429.354,-347.551C483.149,-336.792 565.91,-320.24 615.459,-310.33"/>
<polygon fill="midnightblue" stroke="midnightblue" points="428.45,-344.162 419.331,-349.556 429.823,-351.026 428.45,-344.162"/>
</g>
<!-- Node14&#45;&gt;Node12 -->
<g id="edge21" class="edge"><title>Node14&#45;&gt;Node12</title>
<path fill="none" stroke="midnightblue" d="M414.416,-280.533C416.31,-265.801 420.919,-245.814 432.109,-232 446.648,-214.049 470.078,-202.287 489.107,-195.154"/>
<polygon fill="midnightblue" stroke="midnightblue" points="410.923,-280.292 413.434,-290.585 417.89,-280.973 410.923,-280.292"/>
</g>
<!-- Node15 -->
<g id="node15" class="node"><title>Node15</title>
<g id="a_node15"><a xlink:href="_k_trace_logger_8cc.html" target="_top" xlink:title="Definition of loom::KTraceLogger. ">
<polygon fill="none" stroke="black" points="441.109,-233 441.109,-253 559.109,-253 559.109,-233 441.109,-233"/>
<text text-anchor="middle" x="500.109" y="-240.2" font-family="Avenir-Book" font-size="11.00">src/KTraceLogger.cc</text>
</a>
</g>
</g>
<!-- Node14&#45;&gt;Node15 -->
<g id="edge20" class="edge"><title>Node14&#45;&gt;Node15</title>
<path fill="none" stroke="midnightblue" d="M436.175,-285.153C452.02,-274.953 472.547,-261.741 486.01,-253.075"/>
<polygon fill="midnightblue" stroke="midnightblue" points="433.989,-282.397 427.475,-290.753 437.778,-288.283 433.989,-282.397"/>
</g>
</g>
</svg>
        <g id="navigator" transform="translate(0 0)" fill="#404254">
                <rect fill="#f2f5e9" fill-opacity="0.5" stroke="#606060" stroke-width=".5" x="0" y="0" width="60" height="60"/>
                <use id="zoomplus" xlink:href="#zoomPlus" x="17" y="9" onmousedown="handleZoom(evt,'in')"/>
                <use id="zoomminus" xlink:href="#zoomMin" x="42" y="9" onmousedown="handleZoom(evt,'out')"/>
                <use id="reset" xlink:href="#resetDef" x="30" y="36" onmousedown="handleReset()"/>
                <g id="arrowUp" xlink:href="#dirArrow" transform="translate(30 24)" onmousedown="handlePan(0,-1)">
                  <use xlink:href="#rim" fill="#404040">
                        <set attributeName="fill" to="#808080" begin="arrowUp.mouseover" end="arrowUp.mouseout"/>
                  </use>
                  <path fill="none" stroke="white" stroke-width="1.5" d="M0,-3.0v7 M-2.5,-0.5L0,-3.0L2.5,-0.5"/>
                </g>
                <g id="arrowRight" xlink:href="#dirArrow" transform="rotate(90) translate(36 -43)" onmousedown="handlePan(1,0)">
                  <use xlink:href="#rim" fill="#404040">
                        <set attributeName="fill" to="#808080" begin="arrowRight.mouseover" end="arrowRight.mouseout"/>
                  </use>
                  <path fill="none" stroke="white" stroke-width="1.5" d="M0,-3.0v7 M-2.5,-0.5L0,-3.0L2.5,-0.5"/>
                </g>
                <g id="arrowDown" xlink:href="#dirArrow" transform="rotate(180) translate(-30 -48)" onmousedown="handlePan(0,1)">
                  <use xlink:href="#rim" fill="#404040">
                        <set attributeName="fill" to="#808080" begin="arrowDown.mouseover" end="arrowDown.mouseout"/>
                  </use>
                  <path fill="none" stroke="white" stroke-width="1.5" d="M0,-3.0v7 M-2.5,-0.5L0,-3.0L2.5,-0.5"/>
                </g>
                <g id="arrowLeft" xlink:href="#dirArrow" transform="rotate(270) translate(-36 17)" onmousedown="handlePan(-1,0)">
                  <use xlink:href="#rim" fill="#404040">
                        <set attributeName="fill" to="#808080" begin="arrowLeft.mouseover" end="arrowLeft.mouseout"/>
                  </use>
                  <path fill="none" stroke="white" stroke-width="1.5" d="M0,-3.0v7 M-2.5,-0.5L0,-3.0L2.5,-0.5"/>
                </g>
        </g>
        <svg viewBox="0 0 15 15" width="100%" height="30px" preserveAspectRatio="xMaxYMin meet">
         <g id="arrow_out" transform="scale(0.3 0.3)">
          <a xlink:href="_i_r_utils_8hh__dep__incl_org.svg" target="_base">
           <rect id="button" ry="5" rx="5" y="6" x="6" height="38" width="38"
                fill="#f2f5e9" fill-opacity="0.5" stroke="#606060" stroke-width="1.0"/>
           <path id="arrow"
             d="M 11.500037,31.436501 C 11.940474,20.09759 22.043105,11.32322 32.158766,21.979434 L 37.068811,17.246167 C 37.068811,17.246167 37.088388,32 37.088388,32 L 22.160133,31.978069 C 22.160133,31.978069 26.997745,27.140456 26.997745,27.140456 C 18.528582,18.264221 13.291696,25.230495 11.500037,31.436501 z"
             style="fill:#404040;"/>
          </a>
         </g>
        </svg>
</svg>
