<?xml version="1.0" encoding="UTF-8" standalone="no"?>
<!DOCTYPE svg PUBLIC "-//W3C//DTD SVG 1.1//EN"
 "http://www.w3.org/Graphics/SVG/1.1/DTD/svg11.dtd">
<!-- Generated by graphviz version 2.36.0 (20140111.2315)
 -->
<!-- Title: src/Instrumentation.cc Pages: 1 -->
<svg width="638pt" height="436pt"
 viewBox="0.00 0.00 638.00 436.00" xmlns="http://www.w3.org/2000/svg" xmlns:xlink="http://www.w3.org/1999/xlink">
<g id="graph0" class="graph" transform="scale(1 1) rotate(0) translate(4 432)">
<title>src/Instrumentation.cc</title>
<!-- Node1 -->
<g id="node1" class="node"><title>Node1</title>
<polygon fill="#bfbfbf" stroke="black" points="324,-407 324,-427 448,-427 448,-407 324,-407"/>
<text text-anchor="middle" x="386" y="-414.2" font-family="Avenir-Book" font-size="11.00">src/Instrumentation.cc</text>
</g>
<!-- Node2 -->
<g id="node2" class="node"><title>Node2</title>
<g id="a_node2"><a xlink:href="_instrumentation_8hh.html" target="_top" xlink:title="Declaration of loom::Instrumentation. ">
<polygon fill="none" stroke="black" points="266,-349 266,-369 374,-369 374,-349 266,-349"/>
<text text-anchor="middle" x="320" y="-356.2" font-family="Avenir-Book" font-size="11.00">Instrumentation.hh</text>
</a>
</g>
</g>
<!-- Node1&#45;&gt;Node2 -->
<g id="edge1" class="edge"><title>Node1&#45;&gt;Node2</title>
<path fill="none" stroke="midnightblue" d="M375.101,-406.753C365.202,-398.353 350.392,-385.787 338.619,-375.798"/>
<polygon fill="midnightblue" stroke="midnightblue" points="340.585,-372.876 330.696,-369.075 336.056,-378.214 340.585,-372.876"/>
</g>
<!-- Node8 -->
<g id="node8" class="node"><title>Node8</title>
<polygon fill="none" stroke="#bfbfbf" points="113,-1 113,-21 221,-21 221,-1 113,-1"/>
<text text-anchor="middle" x="167" y="-8.2" font-family="Avenir-Book" font-size="11.00">llvm/IR/IRBuilder.h</text>
</g>
<!-- Node1&#45;&gt;Node8 -->
<g id="edge29" class="edge"><title>Node1&#45;&gt;Node8</title>
<path fill="none" stroke="midnightblue" d="M323.982,-410.59C214.869,-399.346 0,-368.731 0,-302 0,-302 0,-302 0,-126 0,-69.1839 66.7513,-38.6422 115.85,-23.862"/>
<polygon fill="midnightblue" stroke="midnightblue" points="117.073,-27.1523 125.719,-21.0283 115.141,-20.4242 117.073,-27.1523"/>
</g>
<!-- Node17 -->
<g id="node17" class="node"><title>Node17</title>
<polygon fill="none" stroke="#bfbfbf" points="392.5,-349 392.5,-369 513.5,-369 513.5,-349 392.5,-349"/>
<text text-anchor="middle" x="453" y="-356.2" font-family="Avenir-Book" font-size="11.00">llvm/IR/TypeBuilder.h</text>
</g>
<!-- Node1&#45;&gt;Node17 -->
<g id="edge28" class="edge"><title>Node1&#45;&gt;Node17</title>
<path fill="none" stroke="midnightblue" d="M397.064,-406.753C407.21,-398.272 422.44,-385.543 434.447,-375.507"/>
<polygon fill="midnightblue" stroke="midnightblue" points="436.714,-378.174 442.142,-369.075 432.225,-372.803 436.714,-378.174"/>
</g>
<!-- Node18 -->
<g id="node18" class="node"><title>Node18</title>
<polygon fill="none" stroke="#bfbfbf" points="532,-349 532,-369 630,-369 630,-349 532,-349"/>
<text text-anchor="middle" x="581" y="-356.2" font-family="Avenir-Book" font-size="11.00">llvm/IR/Module.h</text>
</g>
<!-- Node1&#45;&gt;Node18 -->
<g id="edge30" class="edge"><title>Node1&#45;&gt;Node18</title>
<path fill="none" stroke="midnightblue" d="M417.764,-406.878C451.008,-397.331 503.337,-382.303 539.753,-371.845"/>
<polygon fill="midnightblue" stroke="midnightblue" points="540.927,-375.15 549.573,-369.025 538.995,-368.422 540.927,-375.15"/>
</g>
<!-- Node3 -->
<g id="node3" class="node"><title>Node3</title>
<g id="a_node3"><a xlink:href="_instr_strategy_8hh.html" target="_top" xlink:title="Declaration of loom::InstrStrategy. ">
<polygon fill="none" stroke="black" points="329,-175 329,-195 423,-195 423,-175 329,-175"/>
<text text-anchor="middle" x="376" y="-182.2" font-family="Avenir-Book" font-size="11.00">InstrStrategy.hh</text>
</a>
</g>
</g>
<!-- Node2&#45;&gt;Node3 -->
<g id="edge2" class="edge"><title>Node2&#45;&gt;Node3</title>
<path fill="none" stroke="midnightblue" d="M323.011,-348.753C331.861,-321.571 357.918,-241.538 369.875,-204.811"/>
<polygon fill="midnightblue" stroke="midnightblue" points="373.206,-205.885 372.974,-195.293 366.55,-203.718 373.206,-205.885"/>
</g>
<!-- Node5 -->
<g id="node5" class="node"><title>Node5</title>
<polygon fill="none" stroke="#bfbfbf" points="195.5,-117 195.5,-137 312.5,-137 312.5,-117 195.5,-117"/>
<text text-anchor="middle" x="254" y="-124.2" font-family="Avenir-Book" font-size="11.00">llvm/ADT/ArrayRef.h</text>
</g>
<!-- Node2&#45;&gt;Node5 -->
<g id="edge24" class="edge"><title>Node2&#45;&gt;Node5</title>
<path fill="none" stroke="midnightblue" d="M318.661,-348.977C314.478,-321.885 300.515,-239.102 277,-174 273.555,-164.463 268.641,-154.336 264.238,-146.018"/>
<polygon fill="midnightblue" stroke="midnightblue" points="267.298,-144.318 259.424,-137.229 261.159,-147.681 267.298,-144.318"/>
</g>
<!-- Node6 -->
<g id="node6" class="node"><title>Node6</title>
<polygon fill="none" stroke="#bfbfbf" points="479.5,-1 479.5,-21 598.5,-21 598.5,-1 479.5,-1"/>
<text text-anchor="middle" x="539" y="-8.2" font-family="Avenir-Book" font-size="11.00">llvm/ADT/StringRef.h</text>
</g>
<!-- Node2&#45;&gt;Node6 -->
<g id="edge25" class="edge"><title>Node2&#45;&gt;Node6</title>
<path fill="none" stroke="midnightblue" d="M366.882,-348.957C412.981,-339.58 479.719,-324.559 503,-312 542.311,-290.793 577,-288.666 577,-244 577,-244 577,-244 577,-126 577,-90.5407 560.249,-51.914 548.99,-29.9569"/>
<polygon fill="midnightblue" stroke="midnightblue" points="552.071,-28.2963 544.284,-21.1127 545.892,-31.5848 552.071,-28.2963"/>
</g>
<!-- Node7 -->
<g id="node7" class="node"><title>Node7</title>
<g id="a_node7"><a xlink:href="_i_r_utils_8hh.html" target="_top" xlink:title="Declarations of LLVM IR utility functions. ">
<polygon fill="none" stroke="black" points="428,-59 428,-79 492,-79 492,-59 428,-59"/>
<text text-anchor="middle" x="460" y="-66.2" font-family="Avenir-Book" font-size="11.00">IRUtils.hh</text>
</a>
</g>
</g>
<!-- Node2&#45;&gt;Node7 -->
<g id="edge14" class="edge"><title>Node2&#45;&gt;Node7</title>
<path fill="none" stroke="midnightblue" d="M371.174,-348.934C412.206,-340.685 465.421,-327.459 481,-312 503.362,-289.811 501,-275.502 501,-244 501,-244 501,-244 501,-184 501,-148.251 482.927,-109.719 470.779,-87.8587"/>
<polygon fill="midnightblue" stroke="midnightblue" points="473.73,-85.9701 465.701,-79.0577 467.667,-89.4685 473.73,-85.9701"/>
</g>
<!-- Node2&#45;&gt;Node8 -->
<g id="edge27" class="edge"><title>Node2&#45;&gt;Node8</title>
<path fill="none" stroke="midnightblue" d="M317.084,-348.94C306.347,-315.958 268.37,-202.729 244,-174 224.374,-150.864 202.69,-163.337 186,-138 164.48,-105.332 163.625,-57.6754 165.153,-31.3244"/>
<polygon fill="midnightblue" stroke="midnightblue" points="168.659,-31.3804 165.929,-21.1433 161.679,-30.8483 168.659,-31.3804"/>
</g>
<!-- Node11 -->
<g id="node11" class="node"><title>Node11</title>
<g id="a_node11"><a xlink:href="_policy_file_8hh.html" target="_top" xlink:title="Declaration of loom::PolicyFile. ">
<polygon fill="none" stroke="black" points="131.5,-291 131.5,-311 210.5,-311 210.5,-291 131.5,-291"/>
<text text-anchor="middle" x="171" y="-298.2" font-family="Avenir-Book" font-size="11.00">PolicyFile.hh</text>
</a>
</g>
</g>
<!-- Node2&#45;&gt;Node11 -->
<g id="edge15" class="edge"><title>Node2&#45;&gt;Node11</title>
<path fill="none" stroke="midnightblue" d="M295.729,-348.878C271.052,-339.603 232.613,-325.156 204.928,-314.752"/>
<polygon fill="midnightblue" stroke="midnightblue" points="205.853,-311.36 195.261,-311.118 203.39,-317.913 205.853,-311.36"/>
</g>
<!-- Node16 -->
<g id="node16" class="node"><title>Node16</title>
<polygon fill="none" stroke="#bfbfbf" points="367.5,-291 367.5,-311 472.5,-311 472.5,-291 367.5,-291"/>
<text text-anchor="middle" x="420" y="-298.2" font-family="Avenir-Book" font-size="11.00">llvm/IR/Function.h</text>
</g>
<!-- Node2&#45;&gt;Node16 -->
<g id="edge26" class="edge"><title>Node2&#45;&gt;Node16</title>
<path fill="none" stroke="midnightblue" d="M336.513,-348.753C352.386,-339.864 376.591,-326.309 394.858,-316.079"/>
<polygon fill="midnightblue" stroke="midnightblue" points="396.779,-319.015 403.794,-311.075 393.359,-312.907 396.779,-319.015"/>
</g>
<!-- Node4 -->
<g id="node4" class="node"><title>Node4</title>
<polygon fill="none" stroke="#bfbfbf" points="314,-59 314,-79 370,-79 370,-59 314,-59"/>
<text text-anchor="middle" x="342" y="-66.2" font-family="Avenir-Book" font-size="11.00">memory</text>
</g>
<!-- Node3&#45;&gt;Node4 -->
<g id="edge3" class="edge"><title>Node3&#45;&gt;Node4</title>
<path fill="none" stroke="midnightblue" d="M372.606,-174.903C369.217,-165.672 363.956,-150.937 360,-138 354.984,-121.597 350.054,-102.724 346.625,-89.0292"/>
<polygon fill="midnightblue" stroke="midnightblue" points="350.019,-88.1719 344.224,-79.302 343.223,-89.8494 350.019,-88.1719"/>
</g>
<!-- Node3&#45;&gt;Node5 -->
<g id="edge4" class="edge"><title>Node3&#45;&gt;Node5</title>
<path fill="none" stroke="midnightblue" d="M356.127,-174.878C336.276,-165.766 305.549,-151.662 282.981,-141.303"/>
<polygon fill="midnightblue" stroke="midnightblue" points="284.413,-138.109 273.864,-137.118 281.493,-144.471 284.413,-138.109"/>
</g>
<!-- Node3&#45;&gt;Node6 -->
<g id="edge5" class="edge"><title>Node3&#45;&gt;Node6</title>
<path fill="none" stroke="midnightblue" d="M400.553,-174.962C419.203,-167.221 444.682,-154.679 463,-138 497.019,-107.026 520.786,-57.2746 531.89,-30.4942"/>
<polygon fill="midnightblue" stroke="midnightblue" points="535.167,-31.7258 535.636,-21.1414 528.669,-29.1227 535.167,-31.7258"/>
</g>
<!-- Node3&#45;&gt;Node7 -->
<g id="edge6" class="edge"><title>Node3&#45;&gt;Node7</title>
<path fill="none" stroke="midnightblue" d="M396.969,-174.993C412.291,-167.341 432.351,-154.898 444,-138 453.885,-123.66 457.715,-104.01 459.172,-89.5199"/>
<polygon fill="midnightblue" stroke="midnightblue" points="462.687,-89.4276 459.903,-79.2054 455.705,-88.9331 462.687,-89.4276"/>
</g>
<!-- Node10 -->
<g id="node10" class="node"><title>Node10</title>
<g id="a_node10"><a xlink:href="_logger_8hh.html" target="_top" xlink:title="Declaration of loom::Logger. ">
<polygon fill="none" stroke="black" points="369,-117 369,-137 435,-137 435,-117 369,-117"/>
<text text-anchor="middle" x="402" y="-124.2" font-family="Avenir-Book" font-size="11.00">Logger.hh</text>
</a>
</g>
</g>
<!-- Node3&#45;&gt;Node10 -->
<g id="edge10" class="edge"><title>Node3&#45;&gt;Node10</title>
<path fill="none" stroke="midnightblue" d="M380.293,-174.753C383.89,-167.006 389.133,-155.714 393.565,-146.169"/>
<polygon fill="midnightblue" stroke="midnightblue" points="396.75,-147.619 397.787,-137.075 390.401,-144.671 396.75,-147.619"/>
</g>
<!-- Node7&#45;&gt;Node6 -->
<g id="edge7" class="edge"><title>Node7&#45;&gt;Node6</title>
<path fill="none" stroke="midnightblue" d="M473.045,-58.7527C485.239,-50.1087 503.659,-37.0518 517.936,-26.9314"/>
<polygon fill="midnightblue" stroke="midnightblue" points="520.063,-29.7137 526.197,-21.0752 516.015,-24.0029 520.063,-29.7137"/>
</g>
<!-- Node7&#45;&gt;Node8 -->
<g id="edge8" class="edge"><title>Node7&#45;&gt;Node8</title>
<path fill="none" stroke="midnightblue" d="M427.913,-61.0622C422.925,-60.0157 417.827,-58.9646 413,-58 349.822,-45.374 277.297,-31.9413 227.451,-22.8725"/>
<polygon fill="midnightblue" stroke="midnightblue" points="227.947,-19.4054 217.482,-21.062 226.696,-26.2927 227.947,-19.4054"/>
</g>
<!-- Node9 -->
<g id="node9" class="node"><title>Node9</title>
<polygon fill="none" stroke="#bfbfbf" points="327,-1 327,-21 373,-21 373,-1 327,-1"/>
<text text-anchor="middle" x="350" y="-8.2" font-family="Avenir-Book" font-size="11.00">vector</text>
</g>
<!-- Node7&#45;&gt;Node9 -->
<g id="edge9" class="edge"><title>Node7&#45;&gt;Node9</title>
<path fill="none" stroke="midnightblue" d="M441.836,-58.7527C424.136,-49.7418 397.016,-35.9353 376.83,-25.6589"/>
<polygon fill="midnightblue" stroke="midnightblue" points="378.326,-22.493 367.826,-21.0752 375.15,-28.7312 378.326,-22.493"/>
</g>
<!-- Node10&#45;&gt;Node4 -->
<g id="edge13" class="edge"><title>Node10&#45;&gt;Node4</title>
<path fill="none" stroke="midnightblue" d="M392.092,-116.753C383.18,-108.435 369.89,-96.031 359.238,-86.0893"/>
<polygon fill="midnightblue" stroke="midnightblue" points="361.422,-83.3397 351.723,-79.0752 356.646,-88.4571 361.422,-83.3397"/>
</g>
<!-- Node10&#45;&gt;Node7 -->
<g id="edge11" class="edge"><title>Node10&#45;&gt;Node7</title>
<path fill="none" stroke="midnightblue" d="M411.578,-116.753C420.192,-108.435 433.039,-96.031 443.336,-86.0893"/>
<polygon fill="midnightblue" stroke="midnightblue" points="445.838,-88.5391 450.601,-79.0752 440.976,-83.5033 445.838,-88.5391"/>
</g>
<!-- Node10&#45;&gt;Node8 -->
<g id="edge12" class="edge"><title>Node10&#45;&gt;Node8</title>
<path fill="none" stroke="midnightblue" d="M401.659,-116.992C400.595,-102.342 396.286,-73.4437 379,-58 357.43,-38.7293 285.423,-26.0234 231.27,-18.942"/>
<polygon fill="midnightblue" stroke="midnightblue" points="231.401,-15.4307 221.04,-17.6427 230.519,-22.3749 231.401,-15.4307"/>
</g>
<!-- Node12 -->
<g id="node12" class="node"><title>Node12</title>
<g id="a_node12"><a xlink:href="_policy_8hh.html" target="_top" xlink:title="Definition of loom::Policy. ">
<polygon fill="none" stroke="black" points="28.5,-233 28.5,-253 89.5,-253 89.5,-233 28.5,-233"/>
<text text-anchor="middle" x="59" y="-240.2" font-family="Avenir-Book" font-size="11.00">Policy.hh</text>
</a>
</g>
</g>
<!-- Node11&#45;&gt;Node12 -->
<g id="edge16" class="edge"><title>Node11&#45;&gt;Node12</title>
<path fill="none" stroke="midnightblue" d="M152.505,-290.753C134.484,-281.742 106.871,-267.935 86.3178,-257.659"/>
<polygon fill="midnightblue" stroke="midnightblue" points="87.6599,-254.417 77.1504,-253.075 84.5294,-260.678 87.6599,-254.417"/>
</g>
<!-- Node15 -->
<g id="node15" class="node"><title>Node15</title>
<polygon fill="none" stroke="#bfbfbf" points="107.5,-233 107.5,-253 234.5,-253 234.5,-233 107.5,-233"/>
<text text-anchor="middle" x="171" y="-240.2" font-family="Avenir-Book" font-size="11.00">llvm/Support/ErrorOr.h</text>
</g>
<!-- Node11&#45;&gt;Node15 -->
<g id="edge23" class="edge"><title>Node11&#45;&gt;Node15</title>
<path fill="none" stroke="midnightblue" d="M171,-290.753C171,-283.25 171,-272.424 171,-263.078"/>
<polygon fill="midnightblue" stroke="midnightblue" points="174.5,-263.075 171,-253.075 167.5,-263.075 174.5,-263.075"/>
</g>
<!-- Node12&#45;&gt;Node3 -->
<g id="edge17" class="edge"><title>Node12&#45;&gt;Node3</title>
<path fill="none" stroke="midnightblue" d="M89.5978,-233.886C92.4309,-233.216 95.264,-232.576 98,-232 173.711,-216.061 261.979,-202.259 318.392,-194.037"/>
<polygon fill="midnightblue" stroke="midnightblue" points="319.149,-197.464 328.545,-192.568 318.146,-190.537 319.149,-197.464"/>
</g>
<!-- Node12&#45;&gt;Node9 -->
<g id="edge22" class="edge"><title>Node12&#45;&gt;Node9</title>
<path fill="none" stroke="midnightblue" d="M60.7342,-232.674C63.7516,-218.598 71.1214,-191.694 86,-174 150.837,-96.8962 262.158,-45.8858 317.207,-24.0697"/>
<polygon fill="midnightblue" stroke="midnightblue" points="318.756,-27.2228 326.807,-20.3362 316.219,-20.6988 318.756,-27.2228"/>
</g>
<!-- Node13 -->
<g id="node13" class="node"><title>Node13</title>
<g id="a_node13"><a xlink:href="_serializer_8hh.html" target="_top" xlink:title="Declaration of loom::Serializer. ">
<polygon fill="none" stroke="black" points="157,-175 157,-195 235,-195 235,-175 157,-175"/>
<text text-anchor="middle" x="196" y="-182.2" font-family="Avenir-Book" font-size="11.00">Serializer.hh</text>
</a>
</g>
</g>
<!-- Node12&#45;&gt;Node13 -->
<g id="edge18" class="edge"><title>Node12&#45;&gt;Node13</title>
<path fill="none" stroke="midnightblue" d="M81.3163,-232.878C103.807,-223.685 138.73,-209.409 164.132,-199.026"/>
<polygon fill="midnightblue" stroke="midnightblue" points="165.761,-202.142 173.693,-195.118 163.112,-195.662 165.761,-202.142"/>
</g>
<!-- Node14 -->
<g id="node14" class="node"><title>Node14</title>
<polygon fill="none" stroke="#bfbfbf" points="95.5,-175 95.5,-195 138.5,-195 138.5,-175 95.5,-175"/>
<text text-anchor="middle" x="117" y="-182.2" font-family="Avenir-Book" font-size="11.00">string</text>
</g>
<!-- Node12&#45;&gt;Node14 -->
<g id="edge21" class="edge"><title>Node12&#45;&gt;Node14</title>
<path fill="none" stroke="midnightblue" d="M68.5775,-232.753C77.1924,-224.435 90.0394,-212.031 100.336,-202.089"/>
<polygon fill="midnightblue" stroke="midnightblue" points="102.838,-204.539 107.601,-195.075 97.9756,-199.503 102.838,-204.539"/>
</g>
<!-- Node13&#45;&gt;Node5 -->
<g id="edge19" class="edge"><title>Node13&#45;&gt;Node5</title>
<path fill="none" stroke="midnightblue" d="M205.578,-174.753C214.192,-166.435 227.039,-154.031 237.336,-144.089"/>
<polygon fill="midnightblue" stroke="midnightblue" points="239.838,-146.539 244.601,-137.075 234.976,-141.503 239.838,-146.539"/>
</g>
<!-- Node13&#45;&gt;Node8 -->
<g id="edge20" class="edge"><title>Node13&#45;&gt;Node8</title>
<path fill="none" stroke="midnightblue" d="M183.084,-174.717C172.747,-166.425 159.019,-153.253 153,-138 138.791,-101.993 150.713,-55.9901 159.568,-30.721"/>
<polygon fill="midnightblue" stroke="midnightblue" points="162.885,-31.8431 163.09,-21.2503 156.324,-29.4031 162.885,-31.8431"/>
</g>
</g>
</svg>
