<?xml version="1.0" encoding="UTF-8" standalone="no"?>
<!DOCTYPE svg PUBLIC "-//W3C//DTD SVG 1.1//EN"
 "http://www.w3.org/Graphics/SVG/1.1/DTD/svg11.dtd">
<!-- Generated by graphviz version 2.36.0 (20140111.2315)
 -->
<!-- Title: src/Instrumenter.hh Pages: 1 -->
<svg width="610pt" height="436pt"
 viewBox="0.00 0.00 610.00 436.00" xmlns="http://www.w3.org/2000/svg" xmlns:xlink="http://www.w3.org/1999/xlink">
<g id="graph0" class="graph" transform="scale(1 1) rotate(0) translate(4 432)">
<title>src/Instrumenter.hh</title>
<!-- Node1 -->
<g id="node1" class="node"><title>Node1</title>
<polygon fill="#bfbfbf" stroke="black" points="235.5,-407 235.5,-427 346.5,-427 346.5,-407 235.5,-407"/>
<text text-anchor="middle" x="291" y="-414.2" font-family="Avenir-Book" font-size="11.00">src/Instrumenter.hh</text>
</g>
<!-- Node2 -->
<g id="node2" class="node"><title>Node2</title>
<g id="a_node2"><a xlink:href="_instrumentation_8hh.html" target="_top" xlink:title="Declaration of loom::Instrumentation. ">
<polygon fill="none" stroke="black" points="237,-349 237,-369 345,-369 345,-349 237,-349"/>
<text text-anchor="middle" x="291" y="-356.2" font-family="Avenir-Book" font-size="11.00">Instrumentation.hh</text>
</a>
</g>
</g>
<!-- Node1&#45;&gt;Node2 -->
<g id="edge1" class="edge"><title>Node1&#45;&gt;Node2</title>
<path fill="none" stroke="midnightblue" d="M291,-406.753C291,-399.25 291,-388.424 291,-379.078"/>
<polygon fill="midnightblue" stroke="midnightblue" points="294.5,-379.075 291,-369.075 287.5,-379.075 294.5,-379.075"/>
</g>
<!-- Node12 -->
<g id="node12" class="node"><title>Node12</title>
<g id="a_node12"><a xlink:href="_policy_8hh.html" target="_top" xlink:title="Definition of loom::Policy. ">
<polygon fill="none" stroke="black" points="-0.5,-233 -0.5,-253 60.5,-253 60.5,-233 -0.5,-233"/>
<text text-anchor="middle" x="30" y="-240.2" font-family="Avenir-Book" font-size="11.00">Policy.hh</text>
</a>
</g>
</g>
<!-- Node1&#45;&gt;Node12 -->
<g id="edge28" class="edge"><title>Node1&#45;&gt;Node12</title>
<path fill="none" stroke="midnightblue" d="M267.855,-406.902C229.301,-391.104 150.49,-356.032 93,-312 73.7432,-297.251 55.324,-276.299 43.4309,-261.56"/>
<polygon fill="midnightblue" stroke="midnightblue" points="45.8582,-258.985 36.92,-253.296 40.3599,-263.317 45.8582,-258.985"/>
</g>
<!-- Node17 -->
<g id="node17" class="node"><title>Node17</title>
<polygon fill="none" stroke="#bfbfbf" points="363,-349 363,-369 427,-369 427,-349 363,-349"/>
<text text-anchor="middle" x="395" y="-356.2" font-family="Avenir-Book" font-size="11.00">functional</text>
</g>
<!-- Node1&#45;&gt;Node17 -->
<g id="edge29" class="edge"><title>Node1&#45;&gt;Node17</title>
<path fill="none" stroke="midnightblue" d="M308.173,-406.753C324.757,-397.823 350.085,-384.185 369.114,-373.939"/>
<polygon fill="midnightblue" stroke="midnightblue" points="371.001,-376.898 378.146,-369.075 367.682,-370.735 371.001,-376.898"/>
</g>
<!-- Node3 -->
<g id="node3" class="node"><title>Node3</title>
<g id="a_node3"><a xlink:href="_instr_strategy_8hh.html" target="_top" xlink:title="Declaration of loom::InstrStrategy. ">
<polygon fill="none" stroke="black" points="300,-175 300,-195 394,-195 394,-175 300,-175"/>
<text text-anchor="middle" x="347" y="-182.2" font-family="Avenir-Book" font-size="11.00">InstrStrategy.hh</text>
</a>
</g>
</g>
<!-- Node2&#45;&gt;Node3 -->
<g id="edge2" class="edge"><title>Node2&#45;&gt;Node3</title>
<path fill="none" stroke="midnightblue" d="M294.011,-348.753C302.861,-321.571 328.918,-241.538 340.875,-204.811"/>
<polygon fill="midnightblue" stroke="midnightblue" points="344.206,-205.885 343.974,-195.293 337.55,-203.718 344.206,-205.885"/>
</g>
<!-- Node5 -->
<g id="node5" class="node"><title>Node5</title>
<polygon fill="none" stroke="#bfbfbf" points="198.5,-117 198.5,-137 315.5,-137 315.5,-117 198.5,-117"/>
<text text-anchor="middle" x="257" y="-124.2" font-family="Avenir-Book" font-size="11.00">llvm/ADT/ArrayRef.h</text>
</g>
<!-- Node2&#45;&gt;Node5 -->
<g id="edge24" class="edge"><title>Node2&#45;&gt;Node5</title>
<path fill="none" stroke="midnightblue" d="M289.667,-348.984C284.654,-315.07 266.859,-194.695 259.859,-147.339"/>
<polygon fill="midnightblue" stroke="midnightblue" points="263.285,-146.585 258.361,-137.204 256.361,-147.608 263.285,-146.585"/>
</g>
<!-- Node6 -->
<g id="node6" class="node"><title>Node6</title>
<polygon fill="none" stroke="#bfbfbf" points="482.5,-1 482.5,-21 601.5,-21 601.5,-1 482.5,-1"/>
<text text-anchor="middle" x="542" y="-8.2" font-family="Avenir-Book" font-size="11.00">llvm/ADT/StringRef.h</text>
</g>
<!-- Node2&#45;&gt;Node6 -->
<g id="edge25" class="edge"><title>Node2&#45;&gt;Node6</title>
<path fill="none" stroke="midnightblue" d="M341.01,-348.94C423.726,-332.516 580,-294.767 580,-244 580,-244 580,-244 580,-126 580,-90.5407 563.249,-51.914 551.99,-29.9569"/>
<polygon fill="midnightblue" stroke="midnightblue" points="555.071,-28.2963 547.284,-21.1127 548.892,-31.5848 555.071,-28.2963"/>
</g>
<!-- Node7 -->
<g id="node7" class="node"><title>Node7</title>
<g id="a_node7"><a xlink:href="_i_r_utils_8hh.html" target="_top" xlink:title="Declarations of LLVM IR utility functions. ">
<polygon fill="none" stroke="black" points="434,-59 434,-79 498,-79 498,-59 434,-59"/>
<text text-anchor="middle" x="466" y="-66.2" font-family="Avenir-Book" font-size="11.00">IRUtils.hh</text>
</a>
</g>
</g>
<!-- Node2&#45;&gt;Node7 -->
<g id="edge14" class="edge"><title>Node2&#45;&gt;Node7</title>
<path fill="none" stroke="midnightblue" d="M333.834,-348.97C374.695,-339.79 432.781,-325.095 452,-312 483.441,-290.576 504,-282.046 504,-244 504,-244 504,-244 504,-184 504,-148.541 487.249,-109.914 475.99,-87.9569"/>
<polygon fill="midnightblue" stroke="midnightblue" points="479.071,-86.2963 471.284,-79.1127 472.892,-89.5848 479.071,-86.2963"/>
</g>
<!-- Node8 -->
<g id="node8" class="node"><title>Node8</title>
<polygon fill="none" stroke="#bfbfbf" points="280,-1 280,-21 388,-21 388,-1 280,-1"/>
<text text-anchor="middle" x="334" y="-8.2" font-family="Avenir-Book" font-size="11.00">llvm/IR/IRBuilder.h</text>
</g>
<!-- Node2&#45;&gt;Node8 -->
<g id="edge27" class="edge"><title>Node2&#45;&gt;Node8</title>
<path fill="none" stroke="midnightblue" d="M287.266,-348.696C277.877,-326.24 251.336,-268.254 214,-232 190.864,-209.534 167.187,-223.893 151,-196 146.092,-187.543 148.688,-183.501 151,-174 164.87,-116.995 169.5,-96.2323 214,-58 232.87,-41.7882 258.066,-30.9721 280.499,-23.927"/>
<polygon fill="midnightblue" stroke="midnightblue" points="281.651,-27.2361 290.246,-21.0418 279.664,-20.5239 281.651,-27.2361"/>
</g>
<!-- Node11 -->
<g id="node11" class="node"><title>Node11</title>
<g id="a_node11"><a xlink:href="_policy_file_8hh.html" target="_top" xlink:title="Declaration of loom::PolicyFile. ">
<polygon fill="none" stroke="black" points="102.5,-291 102.5,-311 181.5,-311 181.5,-291 102.5,-291"/>
<text text-anchor="middle" x="142" y="-298.2" font-family="Avenir-Book" font-size="11.00">PolicyFile.hh</text>
</a>
</g>
</g>
<!-- Node2&#45;&gt;Node11 -->
<g id="edge15" class="edge"><title>Node2&#45;&gt;Node11</title>
<path fill="none" stroke="midnightblue" d="M266.729,-348.878C242.052,-339.603 203.613,-325.156 175.928,-314.752"/>
<polygon fill="midnightblue" stroke="midnightblue" points="176.853,-311.36 166.261,-311.118 174.39,-317.913 176.853,-311.36"/>
</g>
<!-- Node16 -->
<g id="node16" class="node"><title>Node16</title>
<polygon fill="none" stroke="#bfbfbf" points="338.5,-291 338.5,-311 443.5,-311 443.5,-291 338.5,-291"/>
<text text-anchor="middle" x="391" y="-298.2" font-family="Avenir-Book" font-size="11.00">llvm/IR/Function.h</text>
</g>
<!-- Node2&#45;&gt;Node16 -->
<g id="edge26" class="edge"><title>Node2&#45;&gt;Node16</title>
<path fill="none" stroke="midnightblue" d="M307.513,-348.753C323.386,-339.864 347.591,-326.309 365.858,-316.079"/>
<polygon fill="midnightblue" stroke="midnightblue" points="367.779,-319.015 374.794,-311.075 364.359,-312.907 367.779,-319.015"/>
</g>
<!-- Node4 -->
<g id="node4" class="node"><title>Node4</title>
<polygon fill="none" stroke="#bfbfbf" points="317,-59 317,-79 373,-79 373,-59 317,-59"/>
<text text-anchor="middle" x="345" y="-66.2" font-family="Avenir-Book" font-size="11.00">memory</text>
</g>
<!-- Node3&#45;&gt;Node4 -->
<g id="edge3" class="edge"><title>Node3&#45;&gt;Node4</title>
<path fill="none" stroke="midnightblue" d="M346.836,-174.671C346.509,-156.041 345.77,-113.898 345.336,-89.1428"/>
<polygon fill="midnightblue" stroke="midnightblue" points="348.835,-89.0764 345.16,-79.1394 341.836,-89.1993 348.835,-89.0764"/>
</g>
<!-- Node3&#45;&gt;Node5 -->
<g id="edge4" class="edge"><title>Node3&#45;&gt;Node5</title>
<path fill="none" stroke="midnightblue" d="M332.138,-174.753C317.984,-165.946 296.467,-152.558 280.081,-142.362"/>
<polygon fill="midnightblue" stroke="midnightblue" points="281.925,-139.387 271.585,-137.075 278.227,-145.33 281.925,-139.387"/>
</g>
<!-- Node3&#45;&gt;Node6 -->
<g id="edge5" class="edge"><title>Node3&#45;&gt;Node6</title>
<path fill="none" stroke="midnightblue" d="M387.615,-174.974C412.435,-167.958 443.765,-156.278 467,-138 503.21,-109.515 525.706,-58.3342 535.781,-30.7824"/>
<polygon fill="midnightblue" stroke="midnightblue" points="539.146,-31.7627 539.14,-21.1679 532.538,-29.4541 539.146,-31.7627"/>
</g>
<!-- Node3&#45;&gt;Node7 -->
<g id="edge6" class="edge"><title>Node3&#45;&gt;Node7</title>
<path fill="none" stroke="midnightblue" d="M385.097,-174.959C406.129,-168.113 431.129,-156.613 447,-138 458.662,-124.324 463.198,-104.007 464.945,-89.1423"/>
<polygon fill="midnightblue" stroke="midnightblue" points="468.444,-89.3004 465.809,-79.0384 461.47,-88.7037 468.444,-89.3004"/>
</g>
<!-- Node10 -->
<g id="node10" class="node"><title>Node10</title>
<g id="a_node10"><a xlink:href="_logger_8hh.html" target="_top" xlink:title="Declaration of loom::Logger. ">
<polygon fill="none" stroke="black" points="372,-117 372,-137 438,-137 438,-117 372,-117"/>
<text text-anchor="middle" x="405" y="-124.2" font-family="Avenir-Book" font-size="11.00">Logger.hh</text>
</a>
</g>
</g>
<!-- Node3&#45;&gt;Node10 -->
<g id="edge10" class="edge"><title>Node3&#45;&gt;Node10</title>
<path fill="none" stroke="midnightblue" d="M356.578,-174.753C365.192,-166.435 378.039,-154.031 388.336,-144.089"/>
<polygon fill="midnightblue" stroke="midnightblue" points="390.838,-146.539 395.601,-137.075 385.976,-141.503 390.838,-146.539"/>
</g>
<!-- Node7&#45;&gt;Node6 -->
<g id="edge7" class="edge"><title>Node7&#45;&gt;Node6</title>
<path fill="none" stroke="midnightblue" d="M478.55,-58.7527C490.17,-50.1903 507.667,-37.2978 521.346,-27.2186"/>
<polygon fill="midnightblue" stroke="midnightblue" points="523.709,-29.8249 529.684,-21.0752 519.557,-24.1895 523.709,-29.8249"/>
</g>
<!-- Node7&#45;&gt;Node8 -->
<g id="edge8" class="edge"><title>Node7&#45;&gt;Node8</title>
<path fill="none" stroke="midnightblue" d="M444.498,-58.878C422.828,-49.6848 389.179,-35.4095 364.705,-25.0263"/>
<polygon fill="midnightblue" stroke="midnightblue" points="366.065,-21.8016 355.493,-21.1181 363.332,-28.2457 366.065,-21.8016"/>
</g>
<!-- Node9 -->
<g id="node9" class="node"><title>Node9</title>
<polygon fill="none" stroke="#bfbfbf" points="77,-1 77,-21 123,-21 123,-1 77,-1"/>
<text text-anchor="middle" x="100" y="-8.2" font-family="Avenir-Book" font-size="11.00">vector</text>
</g>
<!-- Node7&#45;&gt;Node9 -->
<g id="edge9" class="edge"><title>Node7&#45;&gt;Node9</title>
<path fill="none" stroke="midnightblue" d="M433.841,-63.0795C364.819,-52.5187 203.091,-27.7734 133.172,-17.0755"/>
<polygon fill="midnightblue" stroke="midnightblue" points="133.57,-13.5957 123.155,-15.5429 132.511,-20.5151 133.57,-13.5957"/>
</g>
<!-- Node10&#45;&gt;Node4 -->
<g id="edge13" class="edge"><title>Node10&#45;&gt;Node4</title>
<path fill="none" stroke="midnightblue" d="M395.092,-116.753C386.18,-108.435 372.89,-96.031 362.238,-86.0893"/>
<polygon fill="midnightblue" stroke="midnightblue" points="364.422,-83.3397 354.723,-79.0752 359.646,-88.4571 364.422,-83.3397"/>
</g>
<!-- Node10&#45;&gt;Node7 -->
<g id="edge11" class="edge"><title>Node10&#45;&gt;Node7</title>
<path fill="none" stroke="midnightblue" d="M415.073,-116.753C424.133,-108.435 437.645,-96.031 448.474,-86.0893"/>
<polygon fill="midnightblue" stroke="midnightblue" points="451.115,-88.4162 456.115,-79.0752 446.381,-83.2596 451.115,-88.4162"/>
</g>
<!-- Node10&#45;&gt;Node8 -->
<g id="edge12" class="edge"><title>Node10&#45;&gt;Node8</title>
<path fill="none" stroke="midnightblue" d="M403.305,-116.584C400.518,-102.857 394.038,-76.9293 382,-58 374.719,-46.5498 364.002,-35.9151 354.541,-27.7617"/>
<polygon fill="midnightblue" stroke="midnightblue" points="356.612,-24.9331 346.668,-21.2772 352.162,-30.3364 356.612,-24.9331"/>
</g>
<!-- Node11&#45;&gt;Node12 -->
<g id="edge16" class="edge"><title>Node11&#45;&gt;Node12</title>
<path fill="none" stroke="midnightblue" d="M123.505,-290.753C105.484,-281.742 77.8705,-267.935 57.3178,-257.659"/>
<polygon fill="midnightblue" stroke="midnightblue" points="58.6599,-254.417 48.1504,-253.075 55.5294,-260.678 58.6599,-254.417"/>
</g>
<!-- Node15 -->
<g id="node15" class="node"><title>Node15</title>
<polygon fill="none" stroke="#bfbfbf" points="78.5,-233 78.5,-253 205.5,-253 205.5,-233 78.5,-233"/>
<text text-anchor="middle" x="142" y="-240.2" font-family="Avenir-Book" font-size="11.00">llvm/Support/ErrorOr.h</text>
</g>
<!-- Node11&#45;&gt;Node15 -->
<g id="edge23" class="edge"><title>Node11&#45;&gt;Node15</title>
<path fill="none" stroke="midnightblue" d="M142,-290.753C142,-283.25 142,-272.424 142,-263.078"/>
<polygon fill="midnightblue" stroke="midnightblue" points="145.5,-263.075 142,-253.075 138.5,-263.075 145.5,-263.075"/>
</g>
<!-- Node12&#45;&gt;Node3 -->
<g id="edge17" class="edge"><title>Node12&#45;&gt;Node3</title>
<path fill="none" stroke="midnightblue" d="M60.5978,-233.886C63.4309,-233.216 66.264,-232.576 69,-232 144.711,-216.061 232.979,-202.259 289.392,-194.037"/>
<polygon fill="midnightblue" stroke="midnightblue" points="290.149,-197.464 299.545,-192.568 289.146,-190.537 290.149,-197.464"/>
</g>
<!-- Node12&#45;&gt;Node9 -->
<g id="edge22" class="edge"><title>Node12&#45;&gt;Node9</title>
<path fill="none" stroke="midnightblue" d="M32.4865,-232.734C36.0285,-219.621 42.7875,-194.916 49,-174 64.478,-121.89 84.1126,-60.8179 93.8898,-30.7171"/>
<polygon fill="midnightblue" stroke="midnightblue" points="97.2523,-31.6948 97.02,-21.1026 90.5961,-29.5278 97.2523,-31.6948"/>
</g>
<!-- Node13 -->
<g id="node13" class="node"><title>Node13</title>
<g id="a_node13"><a xlink:href="_serializer_8hh.html" target="_top" xlink:title="Declaration of loom::Serializer. ">
<polygon fill="none" stroke="black" points="160,-175 160,-195 238,-195 238,-175 160,-175"/>
<text text-anchor="middle" x="199" y="-182.2" font-family="Avenir-Book" font-size="11.00">Serializer.hh</text>
</a>
</g>
</g>
<!-- Node12&#45;&gt;Node13 -->
<g id="edge18" class="edge"><title>Node12&#45;&gt;Node13</title>
<path fill="none" stroke="midnightblue" d="M57.5289,-232.878C85.9709,-223.453 130.532,-208.688 162.032,-198.25"/>
<polygon fill="midnightblue" stroke="midnightblue" points="163.371,-201.493 171.763,-195.025 161.17,-194.848 163.371,-201.493"/>
</g>
<!-- Node14 -->
<g id="node14" class="node"><title>Node14</title>
<polygon fill="none" stroke="#bfbfbf" points="58.5,-175 58.5,-195 101.5,-195 101.5,-175 58.5,-175"/>
<text text-anchor="middle" x="80" y="-182.2" font-family="Avenir-Book" font-size="11.00">string</text>
</g>
<!-- Node12&#45;&gt;Node14 -->
<g id="edge21" class="edge"><title>Node12&#45;&gt;Node14</title>
<path fill="none" stroke="midnightblue" d="M38.2565,-232.753C45.5375,-224.598 56.3252,-212.516 65.11,-202.677"/>
<polygon fill="midnightblue" stroke="midnightblue" points="67.8478,-204.866 71.8972,-195.075 62.6262,-200.204 67.8478,-204.866"/>
</g>
<!-- Node13&#45;&gt;Node5 -->
<g id="edge19" class="edge"><title>Node13&#45;&gt;Node5</title>
<path fill="none" stroke="midnightblue" d="M208.578,-174.753C217.192,-166.435 230.039,-154.031 240.336,-144.089"/>
<polygon fill="midnightblue" stroke="midnightblue" points="242.838,-146.539 247.601,-137.075 237.976,-141.503 242.838,-146.539"/>
</g>
<!-- Node13&#45;&gt;Node8 -->
<g id="edge20" class="edge"><title>Node13&#45;&gt;Node8</title>
<path fill="none" stroke="midnightblue" d="M194.286,-174.631C188.119,-160.963 179.19,-135.108 189,-116 212.214,-70.7818 265.234,-40.8054 300.317,-25.1077"/>
<polygon fill="midnightblue" stroke="midnightblue" points="301.904,-28.2351 309.698,-21.058 299.129,-21.8084 301.904,-28.2351"/>
</g>
</g>
</svg>
