<?xml version="1.0" encoding="UTF-8" standalone="no"?>
<!DOCTYPE svg PUBLIC "-//W3C//DTD SVG 1.1//EN"
 "http://www.w3.org/Graphics/SVG/1.1/DTD/svg11.dtd">
<!-- Generated by graphviz version 2.36.0 (20140111.2315)
 -->
<!-- Title: src/InstrStrategy.hh Pages: 1 -->
<svg width="384pt" height="204pt"
 viewBox="0.00 0.00 384.00 204.00" xmlns="http://www.w3.org/2000/svg" xmlns:xlink="http://www.w3.org/1999/xlink">
<g id="graph0" class="graph" transform="scale(1 1) rotate(0) translate(4 200)">
<title>src/InstrStrategy.hh</title>
<!-- Node1 -->
<g id="node1" class="node"><title>Node1</title>
<polygon fill="#bfbfbf" stroke="black" points="114,-175 114,-195 226,-195 226,-175 114,-175"/>
<text text-anchor="middle" x="170" y="-182.2" font-family="Avenir-Book" font-size="11.00">src/InstrStrategy.hh</text>
</g>
<!-- Node2 -->
<g id="node2" class="node"><title>Node2</title>
<polygon fill="none" stroke="#bfbfbf" points="87,-59 87,-79 143,-79 143,-59 87,-59"/>
<text text-anchor="middle" x="115" y="-66.2" font-family="Avenir-Book" font-size="11.00">memory</text>
</g>
<!-- Node1&#45;&gt;Node2 -->
<g id="edge1" class="edge"><title>Node1&#45;&gt;Node2</title>
<path fill="none" stroke="midnightblue" d="M158.482,-174.669C148.789,-166.158 135.363,-152.696 128,-138 120.353,-122.737 117.19,-103.479 115.889,-89.3567"/>
<polygon fill="midnightblue" stroke="midnightblue" points="119.376,-89.0416 115.195,-79.3066 112.392,-89.5241 119.376,-89.0416"/>
</g>
<!-- Node3 -->
<g id="node3" class="node"><title>Node3</title>
<polygon fill="none" stroke="#bfbfbf" points="259.5,-117 259.5,-137 376.5,-137 376.5,-117 259.5,-117"/>
<text text-anchor="middle" x="318" y="-124.2" font-family="Avenir-Book" font-size="11.00">llvm/ADT/ArrayRef.h</text>
</g>
<!-- Node1&#45;&gt;Node3 -->
<g id="edge2" class="edge"><title>Node1&#45;&gt;Node3</title>
<path fill="none" stroke="midnightblue" d="M194.108,-174.878C218.62,-165.603 256.801,-151.156 284.3,-140.752"/>
<polygon fill="midnightblue" stroke="midnightblue" points="285.788,-143.931 293.902,-137.118 283.311,-137.384 285.788,-143.931"/>
</g>
<!-- Node4 -->
<g id="node4" class="node"><title>Node4</title>
<polygon fill="none" stroke="#bfbfbf" points="-0.5,-1 -0.5,-21 118.5,-21 118.5,-1 -0.5,-1"/>
<text text-anchor="middle" x="59" y="-8.2" font-family="Avenir-Book" font-size="11.00">llvm/ADT/StringRef.h</text>
</g>
<!-- Node1&#45;&gt;Node4 -->
<g id="edge3" class="edge"><title>Node1&#45;&gt;Node4</title>
<path fill="none" stroke="midnightblue" d="M157.82,-174.945C146.516,-166.206 129.589,-152.239 117,-138 96.4245,-114.728 91.012,-108.207 78,-80 70.7073,-64.1912 65.6583,-44.9928 62.6081,-31.0322"/>
<polygon fill="midnightblue" stroke="midnightblue" points="66.0149,-30.2218 60.5857,-21.1237 59.1563,-31.6217 66.0149,-30.2218"/>
</g>
<!-- Node5 -->
<g id="node5" class="node"><title>Node5</title>
<g id="a_node5"><a xlink:href="_i_r_utils_8hh.html" target="_top" xlink:title="Declarations of LLVM IR utility functions. ">
<polygon fill="none" stroke="black" points="199,-59 199,-79 263,-79 263,-59 199,-59"/>
<text text-anchor="middle" x="231" y="-66.2" font-family="Avenir-Book" font-size="11.00">IRUtils.hh</text>
</a>
</g>
</g>
<!-- Node1&#45;&gt;Node5 -->
<g id="edge4" class="edge"><title>Node1&#45;&gt;Node5</title>
<path fill="none" stroke="midnightblue" d="M180.844,-174.848C190.366,-166.253 203.925,-152.565 212,-138 220.442,-122.774 225.365,-103.511 228.075,-89.3785"/>
<polygon fill="midnightblue" stroke="midnightblue" points="231.559,-89.7665 229.799,-79.3189 224.66,-88.5839 231.559,-89.7665"/>
</g>
<!-- Node8 -->
<g id="node8" class="node"><title>Node8</title>
<g id="a_node8"><a xlink:href="_logger_8hh.html" target="_top" xlink:title="Declaration of loom::Logger. ">
<polygon fill="none" stroke="black" points="137,-117 137,-137 203,-137 203,-117 137,-117"/>
<text text-anchor="middle" x="170" y="-124.2" font-family="Avenir-Book" font-size="11.00">Logger.hh</text>
</a>
</g>
</g>
<!-- Node1&#45;&gt;Node8 -->
<g id="edge8" class="edge"><title>Node1&#45;&gt;Node8</title>
<path fill="none" stroke="midnightblue" d="M170,-174.753C170,-167.25 170,-156.424 170,-147.078"/>
<polygon fill="midnightblue" stroke="midnightblue" points="173.5,-147.075 170,-137.075 166.5,-147.075 173.5,-147.075"/>
</g>
<!-- Node5&#45;&gt;Node4 -->
<g id="edge5" class="edge"><title>Node5&#45;&gt;Node4</title>
<path fill="none" stroke="midnightblue" d="M202.982,-58.878C174.036,-49.4534 128.684,-34.6878 96.6247,-24.2499"/>
<polygon fill="midnightblue" stroke="midnightblue" points="97.3129,-20.7932 86.7206,-21.0253 95.1457,-27.4493 97.3129,-20.7932"/>
</g>
<!-- Node6 -->
<g id="node6" class="node"><title>Node6</title>
<polygon fill="none" stroke="#bfbfbf" points="137,-1 137,-21 245,-21 245,-1 137,-1"/>
<text text-anchor="middle" x="191" y="-8.2" font-family="Avenir-Book" font-size="11.00">llvm/IR/IRBuilder.h</text>
</g>
<!-- Node5&#45;&gt;Node6 -->
<g id="edge6" class="edge"><title>Node5&#45;&gt;Node6</title>
<path fill="none" stroke="midnightblue" d="M224.395,-58.7527C218.687,-50.7611 210.284,-38.9975 203.336,-29.2698"/>
<polygon fill="midnightblue" stroke="midnightblue" points="206.143,-27.1782 197.482,-21.0752 200.447,-31.2469 206.143,-27.1782"/>
</g>
<!-- Node7 -->
<g id="node7" class="node"><title>Node7</title>
<polygon fill="none" stroke="#bfbfbf" points="263,-1 263,-21 309,-21 309,-1 263,-1"/>
<text text-anchor="middle" x="286" y="-8.2" font-family="Avenir-Book" font-size="11.00">vector</text>
</g>
<!-- Node5&#45;&gt;Node7 -->
<g id="edge7" class="edge"><title>Node5&#45;&gt;Node7</title>
<path fill="none" stroke="midnightblue" d="M240.082,-58.7527C248.171,-50.5165 260.195,-38.2738 269.91,-28.3824"/>
<polygon fill="midnightblue" stroke="midnightblue" points="272.577,-30.6622 277.087,-21.0752 267.583,-25.7572 272.577,-30.6622"/>
</g>
<!-- Node8&#45;&gt;Node2 -->
<g id="edge11" class="edge"><title>Node8&#45;&gt;Node2</title>
<path fill="none" stroke="midnightblue" d="M160.918,-116.753C152.829,-108.516 140.805,-96.2738 131.09,-86.3824"/>
<polygon fill="midnightblue" stroke="midnightblue" points="133.417,-83.7572 123.913,-79.0752 128.423,-88.6622 133.417,-83.7572"/>
</g>
<!-- Node8&#45;&gt;Node5 -->
<g id="edge9" class="edge"><title>Node8&#45;&gt;Node5</title>
<path fill="none" stroke="midnightblue" d="M180.073,-116.753C189.133,-108.435 202.645,-96.031 213.474,-86.0893"/>
<polygon fill="midnightblue" stroke="midnightblue" points="216.115,-88.4162 221.115,-79.0752 211.381,-83.2596 216.115,-88.4162"/>
</g>
<!-- Node8&#45;&gt;Node6 -->
<g id="edge10" class="edge"><title>Node8&#45;&gt;Node6</title>
<path fill="none" stroke="midnightblue" d="M171.719,-116.671C175.15,-98.0407 182.914,-55.8976 187.474,-31.1428"/>
<polygon fill="midnightblue" stroke="midnightblue" points="190.947,-31.608 189.316,-21.1394 184.063,-30.3398 190.947,-31.608"/>
</g>
</g>
</svg>
