<?xml version="1.0" encoding="UTF-8" standalone="no"?>
<!DOCTYPE svg PUBLIC "-//W3C//DTD SVG 1.1//EN"
 "http://www.w3.org/Graphics/SVG/1.1/DTD/svg11.dtd">
<!-- Generated by graphviz version 2.36.0 (20140111.2315)
 -->
<!-- Title: src/Instrumentation.hh Pages: 1 -->
<svg width="439pt" height="146pt"
 viewBox="0.00 0.00 439.00 146.00" xmlns="http://www.w3.org/2000/svg" xmlns:xlink="http://www.w3.org/1999/xlink">
<g id="graph0" class="graph" transform="scale(1 1) rotate(0) translate(4 142)">
<title>src/Instrumentation.hh</title>
<!-- Node1 -->
<g id="node1" class="node"><title>Node1</title>
<polygon fill="#bfbfbf" stroke="black" points="128.5,-117 128.5,-137 253.5,-137 253.5,-117 128.5,-117"/>
<text text-anchor="middle" x="191" y="-124.2" font-family="Avenir-Book" font-size="11.00">src/Instrumentation.hh</text>
</g>
<!-- Node2 -->
<g id="node2" class="node"><title>Node2</title>
<g id="a_node2"><a xlink:href="_instr_strategy_8cc.html" target="_top" xlink:title="Definition of loom::InstrStrategy. ">
<polygon fill="none" stroke="black" points="-0.5,-59 -0.5,-79 110.5,-79 110.5,-59 -0.5,-59"/>
<text text-anchor="middle" x="55" y="-66.2" font-family="Avenir-Book" font-size="11.00">src/InstrStrategy.cc</text>
</a>
</g>
</g>
<!-- Node1&#45;&gt;Node2 -->
<g id="edge1" class="edge"><title>Node1&#45;&gt;Node2</title>
<path fill="none" stroke="midnightblue" d="M159.354,-112.969C134.135,-102.585 99.4668,-88.3099 77.144,-79.1181"/>
<polygon fill="midnightblue" stroke="midnightblue" points="158.267,-116.307 168.847,-116.878 160.932,-109.834 158.267,-116.307"/>
</g>
<!-- Node3 -->
<g id="node3" class="node"><title>Node3</title>
<g id="a_node3"><a xlink:href="_instrumentation_8cc.html" target="_top" xlink:title="Definition of loom::Instrumentation. ">
<polygon fill="none" stroke="black" points="129,-59 129,-79 253,-79 253,-59 129,-59"/>
<text text-anchor="middle" x="191" y="-66.2" font-family="Avenir-Book" font-size="11.00">src/Instrumentation.cc</text>
</a>
</g>
</g>
<!-- Node1&#45;&gt;Node3 -->
<g id="edge2" class="edge"><title>Node1&#45;&gt;Node3</title>
<path fill="none" stroke="midnightblue" d="M191,-106.707C191,-97.3384 191,-86.5262 191,-79.0752"/>
<polygon fill="midnightblue" stroke="midnightblue" points="187.5,-106.753 191,-116.753 194.5,-106.753 187.5,-106.753"/>
</g>
<!-- Node4 -->
<g id="node4" class="node"><title>Node4</title>
<g id="a_node4"><a xlink:href="_instrumenter_8hh.html" target="_top" xlink:title="Declaration of loom::Instrumenter. ">
<polygon fill="none" stroke="black" points="271.5,-59 271.5,-79 382.5,-79 382.5,-59 271.5,-59"/>
<text text-anchor="middle" x="327" y="-66.2" font-family="Avenir-Book" font-size="11.00">src/Instrumenter.hh</text>
</a>
</g>
</g>
<!-- Node1&#45;&gt;Node4 -->
<g id="edge3" class="edge"><title>Node1&#45;&gt;Node4</title>
<path fill="none" stroke="midnightblue" d="M222.646,-112.969C247.865,-102.585 282.533,-88.3099 304.856,-79.1181"/>
<polygon fill="midnightblue" stroke="midnightblue" points="221.068,-109.834 213.153,-116.878 223.733,-116.307 221.068,-109.834"/>
</g>
<!-- Node5 -->
<g id="node5" class="node"><title>Node5</title>
<g id="a_node5"><a xlink:href="_instrumenter_8cc.html" target="_top" xlink:title="Definition of loom::Instrumenter. ">
<polygon fill="none" stroke="black" points="213,-1 213,-21 323,-21 323,-1 213,-1"/>
<text text-anchor="middle" x="268" y="-8.2" font-family="Avenir-Book" font-size="11.00">src/Instrumenter.cc</text>
</a>
</g>
</g>
<!-- Node4&#45;&gt;Node5 -->
<g id="edge4" class="edge"><title>Node4&#45;&gt;Node5</title>
<path fill="none" stroke="midnightblue" d="M309.831,-51.704C299.321,-41.7286 286.265,-29.3361 277.561,-21.0752"/>
<polygon fill="midnightblue" stroke="midnightblue" points="307.595,-54.407 317.257,-58.7527 312.414,-49.3299 307.595,-54.407"/>
</g>
<!-- Node6 -->
<g id="node6" class="node"><title>Node6</title>
<g id="a_node6"><a xlink:href="_opt_pass_8cc.html" target="_top" xlink:title="Definition of Loom&#39;s LLVM opt pass. ">
<polygon fill="none" stroke="black" points="341,-1 341,-21 431,-21 431,-1 341,-1"/>
<text text-anchor="middle" x="386" y="-8.2" font-family="Avenir-Book" font-size="11.00">src/OptPass.cc</text>
</a>
</g>
</g>
<!-- Node4&#45;&gt;Node6 -->
<g id="edge5" class="edge"><title>Node4&#45;&gt;Node6</title>
<path fill="none" stroke="midnightblue" d="M344.169,-51.704C354.679,-41.7286 367.735,-29.3361 376.439,-21.0752"/>
<polygon fill="midnightblue" stroke="midnightblue" points="341.586,-49.3299 336.743,-58.7527 346.405,-54.407 341.586,-49.3299"/>
</g>
</g>
</svg>
