<?xml version="1.0" encoding="UTF-8" standalone="no"?>
<!DOCTYPE svg PUBLIC "-//W3C//DTD SVG 1.1//EN"
 "http://www.w3.org/Graphics/SVG/1.1/DTD/svg11.dtd">
<!-- Generated by graphviz version 2.36.0 (20140111.2315)
 -->
<!-- Title: src/InstrStrategy.cc Pages: 1 -->
<svg width="565pt" height="436pt"
 viewBox="0.00 0.00 565.00 436.00" xmlns="http://www.w3.org/2000/svg" xmlns:xlink="http://www.w3.org/1999/xlink">
<g id="graph0" class="graph" transform="scale(1 1) rotate(0) translate(4 432)">
<title>src/InstrStrategy.cc</title>
<!-- Node1 -->
<g id="node1" class="node"><title>Node1</title>
<polygon fill="#bfbfbf" stroke="black" points="282.5,-407 282.5,-427 393.5,-427 393.5,-407 282.5,-407"/>
<text text-anchor="middle" x="338" y="-414.2" font-family="Avenir-Book" font-size="11.00">src/InstrStrategy.cc</text>
</g>
<!-- Node2 -->
<g id="node2" class="node"><title>Node2</title>
<polygon fill="none" stroke="#bfbfbf" points="168,-349 168,-369 266,-369 266,-349 168,-349"/>
<text text-anchor="middle" x="217" y="-356.2" font-family="Avenir-Book" font-size="11.00">llvm/IR/Module.h</text>
</g>
<!-- Node1&#45;&gt;Node2 -->
<g id="edge1" class="edge"><title>Node1&#45;&gt;Node2</title>
<path fill="none" stroke="midnightblue" d="M318.29,-406.878C298.69,-397.807 268.398,-383.788 246.044,-373.442"/>
<polygon fill="midnightblue" stroke="midnightblue" points="247.247,-370.142 236.702,-369.118 244.307,-376.495 247.247,-370.142"/>
</g>
<!-- Node3 -->
<g id="node3" class="node"><title>Node3</title>
<g id="a_node3"><a xlink:href="_instrumentation_8hh.html" target="_top" xlink:title="Declaration of loom::Instrumentation. ">
<polygon fill="none" stroke="black" points="284,-349 284,-369 392,-369 392,-349 284,-349"/>
<text text-anchor="middle" x="338" y="-356.2" font-family="Avenir-Book" font-size="11.00">Instrumentation.hh</text>
</a>
</g>
</g>
<!-- Node1&#45;&gt;Node3 -->
<g id="edge2" class="edge"><title>Node1&#45;&gt;Node3</title>
<path fill="none" stroke="midnightblue" d="M338,-406.753C338,-399.25 338,-388.424 338,-379.078"/>
<polygon fill="midnightblue" stroke="midnightblue" points="341.5,-379.075 338,-369.075 334.5,-379.075 341.5,-379.075"/>
</g>
<!-- Node4 -->
<g id="node4" class="node"><title>Node4</title>
<g id="a_node4"><a xlink:href="_instr_strategy_8hh.html" target="_top" xlink:title="Declaration of loom::InstrStrategy. ">
<polygon fill="none" stroke="black" points="358,-175 358,-195 452,-195 452,-175 358,-175"/>
<text text-anchor="middle" x="405" y="-182.2" font-family="Avenir-Book" font-size="11.00">InstrStrategy.hh</text>
</a>
</g>
</g>
<!-- Node1&#45;&gt;Node4 -->
<g id="edge29" class="edge"><title>Node1&#45;&gt;Node4</title>
<path fill="none" stroke="midnightblue" d="M357.421,-406.966C371.809,-399.227 390.645,-386.685 401,-370 433.679,-317.342 431.324,-293.108 421,-232 419.435,-222.738 416.215,-212.852 413.072,-204.627"/>
<polygon fill="midnightblue" stroke="midnightblue" points="416.274,-203.212 409.261,-195.271 409.791,-205.852 416.274,-203.212"/>
</g>
<!-- Node3&#45;&gt;Node4 -->
<g id="edge3" class="edge"><title>Node3&#45;&gt;Node4</title>
<path fill="none" stroke="midnightblue" d="M354.195,-348.961C366.795,-340.987 383.518,-328.133 392,-312 410.007,-277.749 409.402,-231.055 407.263,-205.204"/>
<polygon fill="midnightblue" stroke="midnightblue" points="410.741,-204.81 406.268,-195.205 403.775,-205.503 410.741,-204.81"/>
</g>
<!-- Node6 -->
<g id="node6" class="node"><title>Node6</title>
<polygon fill="none" stroke="#bfbfbf" points="154.5,-117 154.5,-137 271.5,-137 271.5,-117 154.5,-117"/>
<text text-anchor="middle" x="213" y="-124.2" font-family="Avenir-Book" font-size="11.00">llvm/ADT/ArrayRef.h</text>
</g>
<!-- Node3&#45;&gt;Node6 -->
<g id="edge25" class="edge"><title>Node3&#45;&gt;Node6</title>
<path fill="none" stroke="midnightblue" d="M290.638,-348.961C269.862,-342.388 247.415,-331.142 235,-312 220.84,-290.168 240.161,-279.866 243,-254 246.899,-218.48 245.272,-208.225 235,-174 232.141,-164.476 227.556,-154.453 223.309,-146.204"/>
<polygon fill="midnightblue" stroke="midnightblue" points="226.265,-144.311 218.436,-137.173 220.104,-147.635 226.265,-144.311"/>
</g>
<!-- Node7 -->
<g id="node7" class="node"><title>Node7</title>
<polygon fill="none" stroke="#bfbfbf" points="438.5,-1 438.5,-21 557.5,-21 557.5,-1 438.5,-1"/>
<text text-anchor="middle" x="498" y="-8.2" font-family="Avenir-Book" font-size="11.00">llvm/ADT/StringRef.h</text>
</g>
<!-- Node3&#45;&gt;Node7 -->
<g id="edge26" class="edge"><title>Node3&#45;&gt;Node7</title>
<path fill="none" stroke="midnightblue" d="M365.116,-348.945C419.343,-328.93 536,-275.474 536,-186 536,-186 536,-186 536,-126 536,-90.5407 519.249,-51.914 507.99,-29.9569"/>
<polygon fill="midnightblue" stroke="midnightblue" points="511.071,-28.2963 503.284,-21.1127 504.892,-31.5848 511.071,-28.2963"/>
</g>
<!-- Node8 -->
<g id="node8" class="node"><title>Node8</title>
<g id="a_node8"><a xlink:href="_i_r_utils_8hh.html" target="_top" xlink:title="Declarations of LLVM IR utility functions. ">
<polygon fill="none" stroke="black" points="272,-59 272,-79 336,-79 336,-59 272,-59"/>
<text text-anchor="middle" x="304" y="-66.2" font-family="Avenir-Book" font-size="11.00">IRUtils.hh</text>
</a>
</g>
</g>
<!-- Node3&#45;&gt;Node8 -->
<g id="edge15" class="edge"><title>Node3&#45;&gt;Node8</title>
<path fill="none" stroke="midnightblue" d="M343.317,-348.86C348.236,-339.836 355.198,-325.471 358,-312 359.991,-302.427 359.174,-299.707 358,-290 348.803,-213.953 322.342,-126.273 310.211,-88.6832"/>
<polygon fill="midnightblue" stroke="midnightblue" points="313.503,-87.491 307.068,-79.0749 306.85,-89.6676 313.503,-87.491"/>
</g>
<!-- Node9 -->
<g id="node9" class="node"><title>Node9</title>
<polygon fill="none" stroke="#bfbfbf" points="175,-1 175,-21 283,-21 283,-1 175,-1"/>
<text text-anchor="middle" x="229" y="-8.2" font-family="Avenir-Book" font-size="11.00">llvm/IR/IRBuilder.h</text>
</g>
<!-- Node3&#45;&gt;Node9 -->
<g id="edge28" class="edge"><title>Node3&#45;&gt;Node9</title>
<path fill="none" stroke="midnightblue" d="M285.084,-348.998C219.976,-337.739 115.934,-319.08 99,-312 49.7514,-291.41 0,-297.38 0,-244 0,-244 0,-244 0,-126 0,-52.0759 96.8166,-26.088 164.546,-16.9523"/>
<polygon fill="midnightblue" stroke="midnightblue" points="165.244,-20.3923 174.73,-15.6744 164.372,-13.4468 165.244,-20.3923"/>
</g>
<!-- Node12 -->
<g id="node12" class="node"><title>Node12</title>
<g id="a_node12"><a xlink:href="_policy_file_8hh.html" target="_top" xlink:title="Declaration of loom::PolicyFile. ">
<polygon fill="none" stroke="black" points="108.5,-291 108.5,-311 187.5,-311 187.5,-291 108.5,-291"/>
<text text-anchor="middle" x="148" y="-298.2" font-family="Avenir-Book" font-size="11.00">PolicyFile.hh</text>
</a>
</g>
</g>
<!-- Node3&#45;&gt;Node12 -->
<g id="edge16" class="edge"><title>Node3&#45;&gt;Node12</title>
<path fill="none" stroke="midnightblue" d="M307.05,-348.878C274.797,-339.372 224.107,-324.432 188.646,-313.98"/>
<polygon fill="midnightblue" stroke="midnightblue" points="189.203,-310.495 178.622,-311.025 187.224,-317.21 189.203,-310.495"/>
</g>
<!-- Node17 -->
<g id="node17" class="node"><title>Node17</title>
<polygon fill="none" stroke="#bfbfbf" points="244.5,-291 244.5,-311 349.5,-311 349.5,-291 244.5,-291"/>
<text text-anchor="middle" x="297" y="-298.2" font-family="Avenir-Book" font-size="11.00">llvm/IR/Function.h</text>
</g>
<!-- Node3&#45;&gt;Node17 -->
<g id="edge27" class="edge"><title>Node3&#45;&gt;Node17</title>
<path fill="none" stroke="midnightblue" d="M331.23,-348.753C325.379,-340.761 316.766,-328.998 309.644,-319.27"/>
<polygon fill="midnightblue" stroke="midnightblue" points="312.376,-317.076 303.644,-311.075 306.728,-321.211 312.376,-317.076"/>
</g>
<!-- Node5 -->
<g id="node5" class="node"><title>Node5</title>
<polygon fill="none" stroke="#bfbfbf" points="408,-59 408,-79 464,-79 464,-59 408,-59"/>
<text text-anchor="middle" x="436" y="-66.2" font-family="Avenir-Book" font-size="11.00">memory</text>
</g>
<!-- Node4&#45;&gt;Node5 -->
<g id="edge4" class="edge"><title>Node4&#45;&gt;Node5</title>
<path fill="none" stroke="midnightblue" d="M415.167,-174.943C423.916,-166.412 435.909,-152.764 441,-138 446.48,-122.105 444.34,-102.916 441.349,-88.9811"/>
<polygon fill="midnightblue" stroke="midnightblue" points="444.701,-87.9582 438.897,-79.095 437.907,-89.6435 444.701,-87.9582"/>
</g>
<!-- Node4&#45;&gt;Node6 -->
<g id="edge5" class="edge"><title>Node4&#45;&gt;Node6</title>
<path fill="none" stroke="midnightblue" d="M373.725,-174.878C340.992,-165.331 289.469,-150.303 253.613,-139.845"/>
<polygon fill="midnightblue" stroke="midnightblue" points="254.524,-136.465 243.944,-137.025 252.564,-143.185 254.524,-136.465"/>
</g>
<!-- Node4&#45;&gt;Node7 -->
<g id="edge6" class="edge"><title>Node4&#45;&gt;Node7</title>
<path fill="none" stroke="midnightblue" d="M418.5,-174.902C429.959,-166.54 446.078,-153.167 456,-138 478.212,-104.047 489.732,-57.2406 494.764,-31.2915"/>
<polygon fill="midnightblue" stroke="midnightblue" points="498.245,-31.7151 496.586,-21.2509 491.357,-30.4656 498.245,-31.7151"/>
</g>
<!-- Node4&#45;&gt;Node8 -->
<g id="edge7" class="edge"><title>Node4&#45;&gt;Node8</title>
<path fill="none" stroke="midnightblue" d="M394.656,-174.889C384.641,-165.886 369.221,-151.536 357,-138 342.19,-121.595 326.832,-101.492 316.486,-87.4149"/>
<polygon fill="midnightblue" stroke="midnightblue" points="319.177,-85.1647 310.466,-79.1335 313.515,-89.2803 319.177,-85.1647"/>
</g>
<!-- Node11 -->
<g id="node11" class="node"><title>Node11</title>
<g id="a_node11"><a xlink:href="_logger_8hh.html" target="_top" xlink:title="Declaration of loom::Logger. ">
<polygon fill="none" stroke="black" points="366,-117 366,-137 432,-137 432,-117 366,-117"/>
<text text-anchor="middle" x="399" y="-124.2" font-family="Avenir-Book" font-size="11.00">Logger.hh</text>
</a>
</g>
</g>
<!-- Node4&#45;&gt;Node11 -->
<g id="edge11" class="edge"><title>Node4&#45;&gt;Node11</title>
<path fill="none" stroke="midnightblue" d="M404.009,-174.753C403.205,-167.25 402.045,-156.424 401.044,-147.078"/>
<polygon fill="midnightblue" stroke="midnightblue" points="404.518,-146.645 399.972,-137.075 397.558,-147.391 404.518,-146.645"/>
</g>
<!-- Node8&#45;&gt;Node7 -->
<g id="edge8" class="edge"><title>Node8&#45;&gt;Node7</title>
<path fill="none" stroke="midnightblue" d="M335.601,-58.878C368.675,-49.331 420.735,-34.3033 456.964,-23.8454"/>
<polygon fill="midnightblue" stroke="midnightblue" points="458.097,-27.1615 466.734,-21.0253 456.155,-20.436 458.097,-27.1615"/>
</g>
<!-- Node8&#45;&gt;Node9 -->
<g id="edge9" class="edge"><title>Node8&#45;&gt;Node9</title>
<path fill="none" stroke="midnightblue" d="M291.615,-58.7527C280.148,-50.1903 262.881,-37.2978 249.382,-27.2186"/>
<polygon fill="midnightblue" stroke="midnightblue" points="251.261,-24.2536 241.154,-21.0752 247.073,-29.8626 251.261,-24.2536"/>
</g>
<!-- Node10 -->
<g id="node10" class="node"><title>Node10</title>
<polygon fill="none" stroke="#bfbfbf" points="74,-1 74,-21 120,-21 120,-1 74,-1"/>
<text text-anchor="middle" x="97" y="-8.2" font-family="Avenir-Book" font-size="11.00">vector</text>
</g>
<!-- Node8&#45;&gt;Node10 -->
<g id="edge10" class="edge"><title>Node8&#45;&gt;Node10</title>
<path fill="none" stroke="midnightblue" d="M271.656,-59.25C233.035,-48.8018 168.794,-31.4226 129.92,-20.906"/>
<polygon fill="midnightblue" stroke="midnightblue" points="130.71,-17.4939 120.143,-18.2609 128.882,-24.251 130.71,-17.4939"/>
</g>
<!-- Node11&#45;&gt;Node5 -->
<g id="edge14" class="edge"><title>Node11&#45;&gt;Node5</title>
<path fill="none" stroke="midnightblue" d="M405.11,-116.753C410.336,-108.843 418.004,-97.2372 424.392,-87.5683"/>
<polygon fill="midnightblue" stroke="midnightblue" points="427.411,-89.348 430.004,-79.0752 421.571,-85.4891 427.411,-89.348"/>
</g>
<!-- Node11&#45;&gt;Node8 -->
<g id="edge12" class="edge"><title>Node11&#45;&gt;Node8</title>
<path fill="none" stroke="midnightblue" d="M383.313,-116.753C368.372,-107.946 345.66,-94.5575 328.364,-84.3617"/>
<polygon fill="midnightblue" stroke="midnightblue" points="329.787,-81.1382 319.395,-79.0752 326.233,-87.1685 329.787,-81.1382"/>
</g>
<!-- Node11&#45;&gt;Node9 -->
<g id="edge13" class="edge"><title>Node11&#45;&gt;Node9</title>
<path fill="none" stroke="midnightblue" d="M393.874,-116.812C385.425,-102.429 367.272,-74.5339 345,-58 324.165,-42.5328 297.433,-31.4694 274.883,-24.0747"/>
<polygon fill="midnightblue" stroke="midnightblue" points="275.769,-20.6844 265.18,-21.0305 273.674,-27.3635 275.769,-20.6844"/>
</g>
<!-- Node13 -->
<g id="node13" class="node"><title>Node13</title>
<g id="a_node13"><a xlink:href="_policy_8hh.html" target="_top" xlink:title="Definition of loom::Policy. ">
<polygon fill="none" stroke="black" points="28.5,-233 28.5,-253 89.5,-253 89.5,-233 28.5,-233"/>
<text text-anchor="middle" x="59" y="-240.2" font-family="Avenir-Book" font-size="11.00">Policy.hh</text>
</a>
</g>
</g>
<!-- Node12&#45;&gt;Node13 -->
<g id="edge17" class="edge"><title>Node12&#45;&gt;Node13</title>
<path fill="none" stroke="midnightblue" d="M133.303,-290.753C119.436,-282.027 98.4223,-268.805 82.2763,-258.646"/>
<polygon fill="midnightblue" stroke="midnightblue" points="83.751,-255.438 73.4231,-253.075 80.023,-261.363 83.751,-255.438"/>
</g>
<!-- Node16 -->
<g id="node16" class="node"><title>Node16</title>
<polygon fill="none" stroke="#bfbfbf" points="107.5,-233 107.5,-253 234.5,-253 234.5,-233 107.5,-233"/>
<text text-anchor="middle" x="171" y="-240.2" font-family="Avenir-Book" font-size="11.00">llvm/Support/ErrorOr.h</text>
</g>
<!-- Node12&#45;&gt;Node16 -->
<g id="edge24" class="edge"><title>Node12&#45;&gt;Node16</title>
<path fill="none" stroke="midnightblue" d="M151.798,-290.753C154.946,-283.087 159.52,-271.952 163.414,-262.471"/>
<polygon fill="midnightblue" stroke="midnightblue" points="166.711,-263.655 167.273,-253.075 160.236,-260.996 166.711,-263.655"/>
</g>
<!-- Node13&#45;&gt;Node4 -->
<g id="edge18" class="edge"><title>Node13&#45;&gt;Node4</title>
<path fill="none" stroke="midnightblue" d="M89.5886,-233.842C92.4236,-233.181 95.2597,-232.555 98,-232 184.561,-214.465 286.103,-200.53 347.974,-192.771"/>
<polygon fill="midnightblue" stroke="midnightblue" points="348.438,-196.241 357.929,-191.533 347.574,-189.294 348.438,-196.241"/>
</g>
<!-- Node13&#45;&gt;Node10 -->
<g id="edge23" class="edge"><title>Node13&#45;&gt;Node10</title>
<path fill="none" stroke="midnightblue" d="M60.4896,-232.984C66.0928,-199.07 85.9808,-78.695 93.8048,-31.3391"/>
<polygon fill="midnightblue" stroke="midnightblue" points="97.3024,-31.6407 95.4794,-21.2039 90.396,-30.4996 97.3024,-31.6407"/>
</g>
<!-- Node14 -->
<g id="node14" class="node"><title>Node14</title>
<g id="a_node14"><a xlink:href="_serializer_8hh.html" target="_top" xlink:title="Declaration of loom::Serializer. ">
<polygon fill="none" stroke="black" points="87,-175 87,-195 165,-195 165,-175 87,-175"/>
<text text-anchor="middle" x="126" y="-182.2" font-family="Avenir-Book" font-size="11.00">Serializer.hh</text>
</a>
</g>
</g>
<!-- Node13&#45;&gt;Node14 -->
<g id="edge19" class="edge"><title>Node13&#45;&gt;Node14</title>
<path fill="none" stroke="midnightblue" d="M70.0637,-232.753C80.2105,-224.272 95.4397,-211.543 107.447,-201.507"/>
<polygon fill="midnightblue" stroke="midnightblue" points="109.714,-204.174 115.142,-195.075 105.225,-198.803 109.714,-204.174"/>
</g>
<!-- Node15 -->
<g id="node15" class="node"><title>Node15</title>
<polygon fill="none" stroke="#bfbfbf" points="183.5,-175 183.5,-195 226.5,-195 226.5,-175 183.5,-175"/>
<text text-anchor="middle" x="205" y="-182.2" font-family="Avenir-Book" font-size="11.00">string</text>
</g>
<!-- Node13&#45;&gt;Node15 -->
<g id="edge22" class="edge"><title>Node13&#45;&gt;Node15</title>
<path fill="none" stroke="midnightblue" d="M82.7824,-232.878C107.538,-223.383 146.429,-208.466 173.674,-198.015"/>
<polygon fill="midnightblue" stroke="midnightblue" points="175.054,-201.235 183.137,-194.386 172.547,-194.699 175.054,-201.235"/>
</g>
<!-- Node14&#45;&gt;Node6 -->
<g id="edge20" class="edge"><title>Node14&#45;&gt;Node6</title>
<path fill="none" stroke="midnightblue" d="M140.366,-174.753C153.922,-166.027 174.464,-152.805 190.247,-142.646"/>
<polygon fill="midnightblue" stroke="midnightblue" points="192.387,-145.431 198.901,-137.075 188.598,-139.545 192.387,-145.431"/>
</g>
<!-- Node14&#45;&gt;Node9 -->
<g id="edge21" class="edge"><title>Node14&#45;&gt;Node9</title>
<path fill="none" stroke="midnightblue" d="M127.357,-174.764C129.604,-161.263 134.891,-135.612 145,-116 162.851,-81.3682 193.411,-47.4354 212.336,-28.1767"/>
<polygon fill="midnightblue" stroke="midnightblue" points="214.831,-30.632 219.432,-21.0886 209.884,-25.6794 214.831,-30.632"/>
</g>
</g>
</svg>
