<?xml version="1.0" encoding="UTF-8" standalone="no"?>
<!DOCTYPE svg PUBLIC "-//W3C//DTD SVG 1.1//EN"
 "http://www.w3.org/Graphics/SVG/1.1/DTD/svg11.dtd">
<!-- Generated by graphviz version 2.36.0 (20140111.2315)
 -->
<!-- Title: src/Instrumenter.cc Pages: 1 -->
<svg width="724pt" height="494pt"
 viewBox="0.00 0.00 724.00 494.00" xmlns="http://www.w3.org/2000/svg" xmlns:xlink="http://www.w3.org/1999/xlink">
<g id="graph0" class="graph" transform="scale(1 1) rotate(0) translate(4 490)">
<title>src/Instrumenter.cc</title>
<!-- Node1 -->
<g id="node1" class="node"><title>Node1</title>
<polygon fill="#bfbfbf" stroke="black" points="499,-465 499,-485 609,-485 609,-465 499,-465"/>
<text text-anchor="middle" x="554" y="-472.2" font-family="Avenir-Book" font-size="11.00">src/Instrumenter.cc</text>
</g>
<!-- Node2 -->
<g id="node2" class="node"><title>Node2</title>
<g id="a_node2"><a xlink:href="_instrumenter_8hh.html" target="_top" xlink:title="Declaration of loom::Instrumenter. ">
<polygon fill="none" stroke="black" points="154,-407 154,-427 248,-427 248,-407 154,-407"/>
<text text-anchor="middle" x="201" y="-414.2" font-family="Avenir-Book" font-size="11.00">Instrumenter.hh</text>
</a>
</g>
</g>
<!-- Node1&#45;&gt;Node2 -->
<g id="edge1" class="edge"><title>Node1&#45;&gt;Node2</title>
<path fill="none" stroke="midnightblue" d="M498.844,-465.25C433.41,-454.87 324.85,-437.648 258.434,-427.111"/>
<polygon fill="midnightblue" stroke="midnightblue" points="258.574,-423.59 248.149,-425.48 257.478,-430.503 258.574,-423.59"/>
</g>
<!-- Node11 -->
<g id="node11" class="node"><title>Node11</title>
<g id="a_node11"><a xlink:href="_logger_8hh.html" target="_top" xlink:title="Declaration of loom::Logger. ">
<polygon fill="none" stroke="black" points="366,-117 366,-137 432,-137 432,-117 366,-117"/>
<text text-anchor="middle" x="399" y="-124.2" font-family="Avenir-Book" font-size="11.00">Logger.hh</text>
</a>
</g>
</g>
<!-- Node1&#45;&gt;Node11 -->
<g id="edge31" class="edge"><title>Node1&#45;&gt;Node11</title>
<path fill="none" stroke="midnightblue" d="M549.854,-464.745C529.013,-418.222 435.571,-209.636 407.197,-146.297"/>
<polygon fill="midnightblue" stroke="midnightblue" points="410.369,-144.818 403.087,-137.123 403.981,-147.68 410.369,-144.818"/>
</g>
<!-- Node19 -->
<g id="node19" class="node"><title>Node19</title>
<polygon fill="none" stroke="#bfbfbf" points="544,-407 544,-427 642,-427 642,-407 544,-407"/>
<text text-anchor="middle" x="593" y="-414.2" font-family="Avenir-Book" font-size="11.00">llvm/IR/Module.h</text>
</g>
<!-- Node1&#45;&gt;Node19 -->
<g id="edge32" class="edge"><title>Node1&#45;&gt;Node19</title>
<path fill="none" stroke="midnightblue" d="M560.44,-464.753C565.949,-456.843 574.031,-445.237 580.765,-435.568"/>
<polygon fill="midnightblue" stroke="midnightblue" points="583.837,-437.282 586.68,-427.075 578.093,-433.281 583.837,-437.282"/>
</g>
<!-- Node20 -->
<g id="node20" class="node"><title>Node20</title>
<polygon fill="none" stroke="#bfbfbf" points="660,-407 660,-427 716,-427 716,-407 660,-407"/>
<text text-anchor="middle" x="688" y="-414.2" font-family="Avenir-Book" font-size="11.00">sstream</text>
</g>
<!-- Node1&#45;&gt;Node20 -->
<g id="edge33" class="edge"><title>Node1&#45;&gt;Node20</title>
<path fill="none" stroke="midnightblue" d="M575.828,-464.878C597.826,-455.685 631.984,-441.409 656.83,-431.026"/>
<polygon fill="midnightblue" stroke="midnightblue" points="658.305,-434.203 666.182,-427.118 655.605,-427.745 658.305,-434.203"/>
</g>
<!-- Node3 -->
<g id="node3" class="node"><title>Node3</title>
<g id="a_node3"><a xlink:href="_instrumentation_8hh.html" target="_top" xlink:title="Declaration of loom::Instrumentation. ">
<polygon fill="none" stroke="black" points="308,-349 308,-369 416,-369 416,-349 308,-349"/>
<text text-anchor="middle" x="362" y="-356.2" font-family="Avenir-Book" font-size="11.00">Instrumentation.hh</text>
</a>
</g>
</g>
<!-- Node2&#45;&gt;Node3 -->
<g id="edge2" class="edge"><title>Node2&#45;&gt;Node3</title>
<path fill="none" stroke="midnightblue" d="M227.226,-406.878C254.204,-397.494 296.405,-382.815 326.391,-372.386"/>
<polygon fill="midnightblue" stroke="midnightblue" points="327.757,-375.616 336.052,-369.025 325.457,-369.005 327.757,-375.616"/>
</g>
<!-- Node13 -->
<g id="node13" class="node"><title>Node13</title>
<g id="a_node13"><a xlink:href="_policy_8hh.html" target="_top" xlink:title="Definition of loom::Policy. ">
<polygon fill="none" stroke="black" points="5.5,-233 5.5,-253 66.5,-253 66.5,-233 5.5,-233"/>
<text text-anchor="middle" x="36" y="-240.2" font-family="Avenir-Book" font-size="11.00">Policy.hh</text>
</a>
</g>
</g>
<!-- Node2&#45;&gt;Node13 -->
<g id="edge29" class="edge"><title>Node2&#45;&gt;Node13</title>
<path fill="none" stroke="midnightblue" d="M192.129,-406.753C165.606,-379.104 86.6271,-296.775 52.2682,-260.958"/>
<polygon fill="midnightblue" stroke="midnightblue" points="54.3634,-258.087 44.915,-253.293 49.312,-262.933 54.3634,-258.087"/>
</g>
<!-- Node18 -->
<g id="node18" class="node"><title>Node18</title>
<polygon fill="none" stroke="#bfbfbf" points="0,-349 0,-369 64,-369 64,-349 0,-349"/>
<text text-anchor="middle" x="32" y="-356.2" font-family="Avenir-Book" font-size="11.00">functional</text>
</g>
<!-- Node2&#45;&gt;Node18 -->
<g id="edge30" class="edge"><title>Node2&#45;&gt;Node18</title>
<path fill="none" stroke="midnightblue" d="M173.471,-406.878C145.029,-397.453 100.468,-382.688 68.9684,-372.25"/>
<polygon fill="midnightblue" stroke="midnightblue" points="69.8305,-368.848 59.2371,-369.025 67.6286,-375.493 69.8305,-368.848"/>
</g>
<!-- Node4 -->
<g id="node4" class="node"><title>Node4</title>
<g id="a_node4"><a xlink:href="_instr_strategy_8hh.html" target="_top" xlink:title="Declaration of loom::InstrStrategy. ">
<polygon fill="none" stroke="black" points="268,-175 268,-195 362,-195 362,-175 268,-175"/>
<text text-anchor="middle" x="315" y="-182.2" font-family="Avenir-Book" font-size="11.00">InstrStrategy.hh</text>
</a>
</g>
</g>
<!-- Node3&#45;&gt;Node4 -->
<g id="edge3" class="edge"><title>Node3&#45;&gt;Node4</title>
<path fill="none" stroke="midnightblue" d="M368.161,-348.761C376.098,-335.68 388.183,-311.013 382,-290 371.913,-255.718 346.637,-222.068 330.176,-202.709"/>
<polygon fill="midnightblue" stroke="midnightblue" points="332.741,-200.325 323.525,-195.098 327.47,-204.931 332.741,-200.325"/>
</g>
<!-- Node6 -->
<g id="node6" class="node"><title>Node6</title>
<polygon fill="none" stroke="#bfbfbf" points="116.5,-117 116.5,-137 233.5,-137 233.5,-117 116.5,-117"/>
<text text-anchor="middle" x="175" y="-124.2" font-family="Avenir-Book" font-size="11.00">llvm/ADT/ArrayRef.h</text>
</g>
<!-- Node3&#45;&gt;Node6 -->
<g id="edge25" class="edge"><title>Node3&#45;&gt;Node6</title>
<path fill="none" stroke="midnightblue" d="M324.101,-348.967C302.486,-342.07 276.332,-330.516 259,-312 214.315,-264.263 238.666,-231.751 208,-174 202.595,-163.821 195.217,-153.315 188.808,-144.918"/>
<polygon fill="midnightblue" stroke="midnightblue" points="191.538,-142.727 182.604,-137.032 186.037,-147.056 191.538,-142.727"/>
</g>
<!-- Node7 -->
<g id="node7" class="node"><title>Node7</title>
<polygon fill="none" stroke="#bfbfbf" points="267.5,-1 267.5,-21 386.5,-21 386.5,-1 267.5,-1"/>
<text text-anchor="middle" x="327" y="-8.2" font-family="Avenir-Book" font-size="11.00">llvm/ADT/StringRef.h</text>
</g>
<!-- Node3&#45;&gt;Node7 -->
<g id="edge26" class="edge"><title>Node3&#45;&gt;Node7</title>
<path fill="none" stroke="midnightblue" d="M376.596,-348.881C413.946,-324.267 508.893,-252.982 492,-174 480.183,-118.751 480.64,-97.2489 440,-58 423.296,-41.8676 400.174,-31.1162 379.194,-24.0956"/>
<polygon fill="midnightblue" stroke="midnightblue" points="380.011,-20.6839 369.422,-21.0342 377.919,-27.3637 380.011,-20.6839"/>
</g>
<!-- Node8 -->
<g id="node8" class="node"><title>Node8</title>
<g id="a_node8"><a xlink:href="_i_r_utils_8hh.html" target="_top" xlink:title="Declarations of LLVM IR utility functions. ">
<polygon fill="none" stroke="black" points="367,-59 367,-79 431,-79 431,-59 367,-59"/>
<text text-anchor="middle" x="399" y="-66.2" font-family="Avenir-Book" font-size="11.00">IRUtils.hh</text>
</a>
</g>
</g>
<!-- Node3&#45;&gt;Node8 -->
<g id="edge15" class="edge"><title>Node3&#45;&gt;Node8</title>
<path fill="none" stroke="midnightblue" d="M370.739,-348.882C378.694,-340.099 390.204,-326.103 397,-312 431.628,-240.141 431.147,-217.157 441,-138 442.208,-128.297 444.536,-125.116 441,-116 436.449,-104.267 427.357,-93.695 418.792,-85.6536"/>
<polygon fill="midnightblue" stroke="midnightblue" points="421.048,-82.977 411.22,-79.0193 416.435,-88.2419 421.048,-82.977"/>
</g>
<!-- Node9 -->
<g id="node9" class="node"><title>Node9</title>
<polygon fill="none" stroke="#bfbfbf" points="405,-1 405,-21 513,-21 513,-1 405,-1"/>
<text text-anchor="middle" x="459" y="-8.2" font-family="Avenir-Book" font-size="11.00">llvm/IR/IRBuilder.h</text>
</g>
<!-- Node3&#45;&gt;Node9 -->
<g id="edge28" class="edge"><title>Node3&#45;&gt;Node9</title>
<path fill="none" stroke="midnightblue" d="M376.912,-348.697C389.153,-340.392 406.175,-327.214 417,-312 432.983,-289.536 431.514,-280.534 439,-254 460.214,-178.808 459.311,-157.987 464,-80 464.988,-63.5683 463.427,-44.9229 461.795,-31.3176"/>
<polygon fill="midnightblue" stroke="midnightblue" points="465.243,-30.6887 460.462,-21.2337 458.303,-31.6063 465.243,-30.6887"/>
</g>
<!-- Node12 -->
<g id="node12" class="node"><title>Node12</title>
<g id="a_node12"><a xlink:href="_policy_file_8hh.html" target="_top" xlink:title="Declaration of loom::PolicyFile. ">
<polygon fill="none" stroke="black" points="120.5,-291 120.5,-311 199.5,-311 199.5,-291 120.5,-291"/>
<text text-anchor="middle" x="160" y="-298.2" font-family="Avenir-Book" font-size="11.00">PolicyFile.hh</text>
</a>
</g>
</g>
<!-- Node3&#45;&gt;Node12 -->
<g id="edge16" class="edge"><title>Node3&#45;&gt;Node12</title>
<path fill="none" stroke="midnightblue" d="M329.096,-348.878C294.511,-339.29 239.988,-324.175 202.245,-313.712"/>
<polygon fill="midnightblue" stroke="midnightblue" points="203.127,-310.324 192.556,-311.025 201.257,-317.07 203.127,-310.324"/>
</g>
<!-- Node17 -->
<g id="node17" class="node"><title>Node17</title>
<polygon fill="none" stroke="#bfbfbf" points="268.5,-291 268.5,-311 373.5,-311 373.5,-291 268.5,-291"/>
<text text-anchor="middle" x="321" y="-298.2" font-family="Avenir-Book" font-size="11.00">llvm/IR/Function.h</text>
</g>
<!-- Node3&#45;&gt;Node17 -->
<g id="edge27" class="edge"><title>Node3&#45;&gt;Node17</title>
<path fill="none" stroke="midnightblue" d="M355.23,-348.753C349.379,-340.761 340.766,-328.998 333.644,-319.27"/>
<polygon fill="midnightblue" stroke="midnightblue" points="336.376,-317.076 327.644,-311.075 330.728,-321.211 336.376,-317.076"/>
</g>
<!-- Node5 -->
<g id="node5" class="node"><title>Node5</title>
<polygon fill="none" stroke="#bfbfbf" points="293,-59 293,-79 349,-79 349,-59 293,-59"/>
<text text-anchor="middle" x="321" y="-66.2" font-family="Avenir-Book" font-size="11.00">memory</text>
</g>
<!-- Node4&#45;&gt;Node5 -->
<g id="edge4" class="edge"><title>Node4&#45;&gt;Node5</title>
<path fill="none" stroke="midnightblue" d="M315.491,-174.671C316.472,-156.041 318.69,-113.898 319.992,-89.1428"/>
<polygon fill="midnightblue" stroke="midnightblue" points="323.488,-89.3096 320.519,-79.1394 316.498,-88.9416 323.488,-89.3096"/>
</g>
<!-- Node4&#45;&gt;Node6 -->
<g id="edge5" class="edge"><title>Node4&#45;&gt;Node6</title>
<path fill="none" stroke="midnightblue" d="M292.195,-174.878C269.11,-165.644 233.208,-151.283 207.222,-140.889"/>
<polygon fill="midnightblue" stroke="midnightblue" points="208.38,-137.582 197.795,-137.118 205.78,-144.082 208.38,-137.582"/>
</g>
<!-- Node4&#45;&gt;Node7 -->
<g id="edge6" class="edge"><title>Node4&#45;&gt;Node7</title>
<path fill="none" stroke="midnightblue" d="M309.021,-174.884C295.969,-153.773 267.379,-100.119 284,-58 288.608,-46.3217 297.736,-35.8639 306.4,-27.8818"/>
<polygon fill="midnightblue" stroke="midnightblue" points="308.778,-30.4535 314.084,-21.2833 304.217,-25.1428 308.778,-30.4535"/>
</g>
<!-- Node4&#45;&gt;Node8 -->
<g id="edge7" class="edge"><title>Node4&#45;&gt;Node8</title>
<path fill="none" stroke="midnightblue" d="M319.928,-174.85C327.301,-161.454 341.952,-135.934 357,-116 364.801,-105.666 374.493,-94.9357 382.6,-86.4408"/>
<polygon fill="midnightblue" stroke="midnightblue" points="385.309,-88.6752 389.774,-79.0668 380.292,-83.794 385.309,-88.6752"/>
</g>
<!-- Node4&#45;&gt;Node11 -->
<g id="edge11" class="edge"><title>Node4&#45;&gt;Node11</title>
<path fill="none" stroke="midnightblue" d="M328.871,-174.753C341.959,-166.027 361.792,-152.805 377.031,-142.646"/>
<polygon fill="midnightblue" stroke="midnightblue" points="379.008,-145.534 385.387,-137.075 375.125,-139.71 379.008,-145.534"/>
</g>
<!-- Node8&#45;&gt;Node7 -->
<g id="edge8" class="edge"><title>Node8&#45;&gt;Node7</title>
<path fill="none" stroke="midnightblue" d="M387.111,-58.7527C376.102,-50.1903 359.526,-37.2978 346.567,-27.2186"/>
<polygon fill="midnightblue" stroke="midnightblue" points="348.71,-24.4519 338.668,-21.0752 344.413,-29.9774 348.71,-24.4519"/>
</g>
<!-- Node8&#45;&gt;Node9 -->
<g id="edge9" class="edge"><title>Node8&#45;&gt;Node9</title>
<path fill="none" stroke="midnightblue" d="M408.908,-58.7527C417.82,-50.4349 431.11,-38.031 441.762,-28.0893"/>
<polygon fill="midnightblue" stroke="midnightblue" points="444.354,-30.4571 449.277,-21.0752 439.578,-25.3397 444.354,-30.4571"/>
</g>
<!-- Node10 -->
<g id="node10" class="node"><title>Node10</title>
<polygon fill="none" stroke="#bfbfbf" points="106,-1 106,-21 152,-21 152,-1 106,-1"/>
<text text-anchor="middle" x="129" y="-8.2" font-family="Avenir-Book" font-size="11.00">vector</text>
</g>
<!-- Node8&#45;&gt;Node10 -->
<g id="edge10" class="edge"><title>Node8&#45;&gt;Node10</title>
<path fill="none" stroke="midnightblue" d="M366.8,-60.0143C363.829,-59.3173 360.861,-58.6359 358,-58 288.554,-42.5629 206.745,-26.6808 162.131,-18.2133"/>
<polygon fill="midnightblue" stroke="midnightblue" points="162.621,-14.7438 152.144,-16.3238 161.319,-21.6218 162.621,-14.7438"/>
</g>
<!-- Node11&#45;&gt;Node5 -->
<g id="edge14" class="edge"><title>Node11&#45;&gt;Node5</title>
<path fill="none" stroke="midnightblue" d="M386.12,-116.753C374.08,-108.109 355.894,-95.0518 341.797,-84.9314"/>
<polygon fill="midnightblue" stroke="midnightblue" points="343.805,-82.0642 333.64,-79.0752 339.722,-87.7504 343.805,-82.0642"/>
</g>
<!-- Node11&#45;&gt;Node8 -->
<g id="edge12" class="edge"><title>Node11&#45;&gt;Node8</title>
<path fill="none" stroke="midnightblue" d="M399,-116.753C399,-109.25 399,-98.4238 399,-89.0781"/>
<polygon fill="midnightblue" stroke="midnightblue" points="402.5,-89.0752 399,-79.0752 395.5,-89.0752 402.5,-89.0752"/>
</g>
<!-- Node11&#45;&gt;Node9 -->
<g id="edge13" class="edge"><title>Node11&#45;&gt;Node9</title>
<path fill="none" stroke="midnightblue" d="M409.577,-116.796C418.866,-108.166 432.098,-94.4562 440,-80 448.35,-64.7233 453.283,-45.4666 456.021,-31.3486"/>
<polygon fill="midnightblue" stroke="midnightblue" points="459.503,-31.754 457.769,-21.302 452.606,-30.5541 459.503,-31.754"/>
</g>
<!-- Node12&#45;&gt;Node13 -->
<g id="edge17" class="edge"><title>Node12&#45;&gt;Node13</title>
<path fill="none" stroke="midnightblue" d="M139.801,-290.878C119.625,-281.766 88.3938,-267.662 65.4563,-257.303"/>
<polygon fill="midnightblue" stroke="midnightblue" points="66.7444,-254.044 56.1901,-253.118 63.8632,-260.424 66.7444,-254.044"/>
</g>
<!-- Node16 -->
<g id="node16" class="node"><title>Node16</title>
<polygon fill="none" stroke="#bfbfbf" points="84.5,-233 84.5,-253 211.5,-253 211.5,-233 84.5,-233"/>
<text text-anchor="middle" x="148" y="-240.2" font-family="Avenir-Book" font-size="11.00">llvm/Support/ErrorOr.h</text>
</g>
<!-- Node12&#45;&gt;Node16 -->
<g id="edge24" class="edge"><title>Node12&#45;&gt;Node16</title>
<path fill="none" stroke="midnightblue" d="M158.018,-290.753C156.411,-283.25 154.091,-272.424 152.088,-263.078"/>
<polygon fill="midnightblue" stroke="midnightblue" points="155.462,-262.12 149.945,-253.075 148.618,-263.587 155.462,-262.12"/>
</g>
<!-- Node13&#45;&gt;Node4 -->
<g id="edge18" class="edge"><title>Node13&#45;&gt;Node4</title>
<path fill="none" stroke="midnightblue" d="M66.6138,-233.96C69.4436,-233.275 72.2716,-232.611 75,-232 137.229,-218.072 209.12,-204.642 257.875,-195.926"/>
<polygon fill="midnightblue" stroke="midnightblue" points="258.683,-199.337 267.916,-194.139 257.457,-192.445 258.683,-199.337"/>
</g>
<!-- Node13&#45;&gt;Node10 -->
<g id="edge23" class="edge"><title>Node13&#45;&gt;Node10</title>
<path fill="none" stroke="midnightblue" d="M37.18,-232.564C39.0151,-219.251 43.0806,-194.308 50,-174 68.6776,-119.182 101.64,-58.9535 118.47,-29.7896"/>
<polygon fill="midnightblue" stroke="midnightblue" points="121.499,-31.544 123.515,-21.1428 115.453,-28.0162 121.499,-31.544"/>
</g>
<!-- Node14 -->
<g id="node14" class="node"><title>Node14</title>
<g id="a_node14"><a xlink:href="_serializer_8hh.html" target="_top" xlink:title="Declaration of loom::Serializer. ">
<polygon fill="none" stroke="black" points="121,-175 121,-195 199,-195 199,-175 121,-175"/>
<text text-anchor="middle" x="160" y="-182.2" font-family="Avenir-Book" font-size="11.00">Serializer.hh</text>
</a>
</g>
</g>
<!-- Node13&#45;&gt;Node14 -->
<g id="edge19" class="edge"><title>Node13&#45;&gt;Node14</title>
<path fill="none" stroke="midnightblue" d="M56.1987,-232.878C76.375,-223.766 107.606,-209.662 130.544,-199.303"/>
<polygon fill="midnightblue" stroke="midnightblue" points="132.137,-202.424 139.81,-195.118 129.256,-196.044 132.137,-202.424"/>
</g>
<!-- Node15 -->
<g id="node15" class="node"><title>Node15</title>
<polygon fill="none" stroke="#bfbfbf" points="59.5,-175 59.5,-195 102.5,-195 102.5,-175 59.5,-175"/>
<text text-anchor="middle" x="81" y="-182.2" font-family="Avenir-Book" font-size="11.00">string</text>
</g>
<!-- Node13&#45;&gt;Node15 -->
<g id="edge22" class="edge"><title>Node13&#45;&gt;Node15</title>
<path fill="none" stroke="midnightblue" d="M43.4308,-232.753C49.9182,-224.68 59.4988,-212.757 67.3612,-202.973"/>
<polygon fill="midnightblue" stroke="midnightblue" points="70.1718,-205.063 73.7074,-195.075 64.7152,-200.678 70.1718,-205.063"/>
</g>
<!-- Node14&#45;&gt;Node6 -->
<g id="edge20" class="edge"><title>Node14&#45;&gt;Node6</title>
<path fill="none" stroke="midnightblue" d="M162.477,-174.753C164.508,-167.169 167.45,-156.188 169.971,-146.774"/>
<polygon fill="midnightblue" stroke="midnightblue" points="173.363,-147.64 172.569,-137.075 166.601,-145.829 173.363,-147.64"/>
</g>
<!-- Node14&#45;&gt;Node9 -->
<g id="edge21" class="edge"><title>Node14&#45;&gt;Node9</title>
<path fill="none" stroke="midnightblue" d="M143.884,-174.917C123.097,-162.022 91.3667,-137.574 107,-116 125.038,-91.1073 315.886,-44.6502 408.771,-23.2823"/>
<polygon fill="midnightblue" stroke="midnightblue" points="409.556,-26.6934 418.522,-21.0488 407.993,-19.8702 409.556,-26.6934"/>
</g>
</g>
</svg>
