<?xml version="1.0" encoding="UTF-8" standalone="no"?>
<!DOCTYPE svg PUBLIC "-//W3C//DTD SVG 1.1//EN"
 "http://www.w3.org/Graphics/SVG/1.1/DTD/svg11.dtd">
<!-- Generated by graphviz version 2.36.0 (20140111.2315)
 -->
<!-- Title: src/Instrumentation.hh Pages: 1 -->
<!--zoomable 378 -->
<svg id="main" version="1.1" xmlns="http://www.w3.org/2000/svg" xmlns:xlink="http://www.w3.org/1999/xlink" xml:space="preserve" onload="init(evt)">
<style type="text/css"><![CDATA[
.edge:hover path { stroke: red; }
.edge:hover polygon { stroke: red; fill: red; }
]]></style>
<script type="text/javascript"><![CDATA[
var edges = document.getElementsByTagName('g');
if (edges && edges.length) {
  for (var i=0;i<edges.length;i++) {
    if (edges[i].id.substr(0,4)=='edge') {
      edges[i].setAttribute('class','edge');
    }
  }
}
]]></script>
        <defs>
                <circle id="rim" cx="0" cy="0" r="7"/>
                <circle id="rim2" cx="0" cy="0" r="3.5"/>
                <g id="zoomPlus">
                        <use xlink:href="#rim" fill="#404040">
                                <set attributeName="fill" to="#808080" begin="zoomplus.mouseover" end="zoomplus.mouseout"/>
                        </use>
                        <path d="M-4,0h8M0,-4v8" fill="none" stroke="white" stroke-width="1.5" pointer-events="none"/>
                </g>
                <g id="zoomMin">
                        <use xlink:href="#rim" fill="#404040">
                                <set attributeName="fill" to="#808080" begin="zoomminus.mouseover" end="zoomminus.mouseout"/>
                        </use>
                        <path d="M-4,0h8" fill="none" stroke="white" stroke-width="1.5" pointer-events="none"/>
                </g>
                <g id="dirArrow">
                        <path fill="none" stroke="white" stroke-width="1.5" d="M0,-3.0v7 M-2.5,-0.5L0,-3.0L2.5,-0.5"/>
                </g>
               <g id="resetDef">
                       <use xlink:href="#rim2" fill="#404040">
                               <set attributeName="fill" to="#808080" begin="reset.mouseover" end="reset.mouseout"/>
                       </use>
               </g>
        </defs>

<script type="text/javascript">
var viewWidth = 698;
var viewHeight = 378;
var sectionId = 'dynsection-0';
</script>
<script xlink:href="svgpan.js"/>
<svg id="graph" class="graph">
<g id="viewport">
<title>src/Instrumentation.hh</title>
<!-- Node1 -->
<g id="node1" class="node"><title>Node1</title>
<polygon fill="#bfbfbf" stroke="black" points="231.5,-349 231.5,-369 356.5,-369 356.5,-349 231.5,-349"/>
<text text-anchor="middle" x="294" y="-356.2" font-family="Avenir-Book" font-size="11.00">src/Instrumentation.hh</text>
</g>
<!-- Node2 -->
<g id="node2" class="node"><title>Node2</title>
<g id="a_node2"><a xlink:href="_instr_strategy_8hh.html" target="_top" xlink:title="Declaration of loom::InstrStrategy. ">
<polygon fill="none" stroke="black" points="134,-175 134,-195 228,-195 228,-175 134,-175"/>
<text text-anchor="middle" x="181" y="-182.2" font-family="Avenir-Book" font-size="11.00">InstrStrategy.hh</text>
</a>
</g>
</g>
<!-- Node1&#45;&gt;Node2 -->
<g id="edge1" class="edge"><title>Node1&#45;&gt;Node2</title>
<path fill="none" stroke="midnightblue" d="M281.154,-348.956C269.754,-340.433 253.214,-326.791 242,-312 216.047,-277.769 196.853,-230.743 187.457,-204.908"/>
<polygon fill="midnightblue" stroke="midnightblue" points="190.67,-203.495 184.038,-195.232 184.069,-205.827 190.67,-203.495"/>
</g>
<!-- Node4 -->
<g id="node4" class="node"><title>Node4</title>
<polygon fill="none" stroke="#bfbfbf" points="285.5,-117 285.5,-137 402.5,-137 402.5,-117 285.5,-117"/>
<text text-anchor="middle" x="344" y="-124.2" font-family="Avenir-Book" font-size="11.00">llvm/ADT/ArrayRef.h</text>
</g>
<!-- Node1&#45;&gt;Node4 -->
<g id="edge23" class="edge"><title>Node1&#45;&gt;Node4</title>
<path fill="none" stroke="midnightblue" d="M294.315,-348.967C295.473,-321.845 300.564,-238.987 321,-174 324.042,-164.327 328.911,-154.184 333.388,-145.891"/>
<polygon fill="midnightblue" stroke="midnightblue" points="336.457,-147.574 338.329,-137.146 330.363,-144.13 336.457,-147.574"/>
</g>
<!-- Node5 -->
<g id="node5" class="node"><title>Node5</title>
<polygon fill="none" stroke="#bfbfbf" points="-0.5,-1 -0.5,-21 118.5,-21 118.5,-1 -0.5,-1"/>
<text text-anchor="middle" x="59" y="-8.2" font-family="Avenir-Book" font-size="11.00">llvm/ADT/StringRef.h</text>
</g>
<!-- Node1&#45;&gt;Node5 -->
<g id="edge24" class="edge"><title>Node1&#45;&gt;Node5</title>
<path fill="none" stroke="midnightblue" d="M231.368,-358.074C150.769,-354.494 21,-334.654 21,-244 21,-244 21,-244 21,-126 21,-90.5407 37.751,-51.914 49.0097,-29.9569"/>
<polygon fill="midnightblue" stroke="midnightblue" points="52.1081,-31.5848 53.7163,-21.1127 45.9286,-28.2963 52.1081,-31.5848"/>
</g>
<!-- Node6 -->
<g id="node6" class="node"><title>Node6</title>
<g id="a_node6"><a xlink:href="_i_r_utils_8hh.html" target="_top" xlink:title="Declarations of LLVM IR utility functions. ">
<polygon fill="none" stroke="black" points="221,-59 221,-79 285,-79 285,-59 221,-59"/>
<text text-anchor="middle" x="253" y="-66.2" font-family="Avenir-Book" font-size="11.00">IRUtils.hh</text>
</a>
</g>
</g>
<!-- Node1&#45;&gt;Node6 -->
<g id="edge13" class="edge"><title>Node1&#45;&gt;Node6</title>
<path fill="none" stroke="midnightblue" d="M292.682,-348.744C286.899,-308.12 263.699,-145.152 255.715,-89.0717"/>
<polygon fill="midnightblue" stroke="midnightblue" points="259.167,-88.4849 254.292,-79.078 252.237,-89.4715 259.167,-88.4849"/>
</g>
<!-- Node7 -->
<g id="node7" class="node"><title>Node7</title>
<polygon fill="none" stroke="#bfbfbf" points="236,-1 236,-21 344,-21 344,-1 236,-1"/>
<text text-anchor="middle" x="290" y="-8.2" font-family="Avenir-Book" font-size="11.00">llvm/IR/IRBuilder.h</text>
</g>
<!-- Node1&#45;&gt;Node7 -->
<g id="edge26" class="edge"><title>Node1&#45;&gt;Node7</title>
<path fill="none" stroke="midnightblue" d="M356.661,-357.119C434.451,-352.322 557,-330.964 557,-244 557,-244 557,-244 557,-126 557,-79.9338 420.871,-41.5309 343.015,-23.3343"/>
<polygon fill="midnightblue" stroke="midnightblue" points="343.428,-19.838 332.898,-21.0066 341.859,-26.6598 343.428,-19.838"/>
</g>
<!-- Node10 -->
<g id="node10" class="node"><title>Node10</title>
<g id="a_node10"><a xlink:href="_policy_file_8hh.html" target="_top" xlink:title="Declaration of loom::PolicyFile. ">
<polygon fill="none" stroke="black" points="346.5,-291 346.5,-311 425.5,-311 425.5,-291 346.5,-291"/>
<text text-anchor="middle" x="386" y="-298.2" font-family="Avenir-Book" font-size="11.00">PolicyFile.hh</text>
</a>
</g>
</g>
<!-- Node1&#45;&gt;Node10 -->
<g id="edge14" class="edge"><title>Node1&#45;&gt;Node10</title>
<path fill="none" stroke="midnightblue" d="M309.192,-348.753C323.661,-339.946 345.655,-326.558 362.406,-316.362"/>
<polygon fill="midnightblue" stroke="midnightblue" points="364.369,-319.264 371.091,-311.075 360.729,-313.285 364.369,-319.264"/>
</g>
<!-- Node15 -->
<g id="node15" class="node"><title>Node15</title>
<polygon fill="none" stroke="#bfbfbf" points="585.5,-291 585.5,-311 690.5,-311 690.5,-291 585.5,-291"/>
<text text-anchor="middle" x="638" y="-298.2" font-family="Avenir-Book" font-size="11.00">llvm/IR/Function.h</text>
</g>
<!-- Node1&#45;&gt;Node15 -->
<g id="edge25" class="edge"><title>Node1&#45;&gt;Node15</title>
<path fill="none" stroke="midnightblue" d="M349.652,-348.94C411.382,-338.891 510.754,-322.715 575.217,-312.221"/>
<polygon fill="midnightblue" stroke="midnightblue" points="575.944,-315.648 585.252,-310.587 574.819,-308.739 575.944,-315.648"/>
</g>
<!-- Node3 -->
<g id="node3" class="node"><title>Node3</title>
<polygon fill="none" stroke="#bfbfbf" points="100,-59 100,-79 156,-79 156,-59 100,-59"/>
<text text-anchor="middle" x="128" y="-66.2" font-family="Avenir-Book" font-size="11.00">memory</text>
</g>
<!-- Node2&#45;&gt;Node3 -->
<g id="edge2" class="edge"><title>Node2&#45;&gt;Node3</title>
<path fill="none" stroke="midnightblue" d="M158.857,-174.973C143.766,-167.509 124.958,-155.313 116,-138 108.021,-122.578 112.912,-102.839 118.664,-88.6049"/>
<polygon fill="midnightblue" stroke="midnightblue" points="121.916,-89.9088 122.833,-79.3537 115.534,-87.0328 121.916,-89.9088"/>
</g>
<!-- Node2&#45;&gt;Node4 -->
<g id="edge3" class="edge"><title>Node2&#45;&gt;Node4</title>
<path fill="none" stroke="midnightblue" d="M207.552,-174.878C234.865,-165.494 277.591,-150.815 307.949,-140.386"/>
<polygon fill="midnightblue" stroke="midnightblue" points="309.41,-143.585 317.73,-137.025 307.135,-136.964 309.41,-143.585"/>
</g>
<!-- Node2&#45;&gt;Node5 -->
<g id="edge4" class="edge"><title>Node2&#45;&gt;Node5</title>
<path fill="none" stroke="midnightblue" d="M159.19,-174.845C143.108,-167.115 121.726,-154.641 108,-138 81.4722,-105.839 68.1671,-57.648 62.5068,-31.155"/>
<polygon fill="midnightblue" stroke="midnightblue" points="65.9179,-30.3635 60.5327,-21.2393 59.0527,-31.7303 65.9179,-30.3635"/>
</g>
<!-- Node2&#45;&gt;Node6 -->
<g id="edge5" class="edge"><title>Node2&#45;&gt;Node6</title>
<path fill="none" stroke="midnightblue" d="M186.892,-174.671C198.87,-155.705 226.239,-112.371 241.744,-87.8218"/>
<polygon fill="midnightblue" stroke="midnightblue" points="244.847,-89.4633 247.228,-79.1394 238.929,-85.7253 244.847,-89.4633"/>
</g>
<!-- Node9 -->
<g id="node9" class="node"><title>Node9</title>
<g id="a_node9"><a xlink:href="_logger_8hh.html" target="_top" xlink:title="Declaration of loom::Logger. ">
<polygon fill="none" stroke="black" points="125,-117 125,-137 191,-137 191,-117 125,-117"/>
<text text-anchor="middle" x="158" y="-124.2" font-family="Avenir-Book" font-size="11.00">Logger.hh</text>
</a>
</g>
</g>
<!-- Node2&#45;&gt;Node9 -->
<g id="edge9" class="edge"><title>Node2&#45;&gt;Node9</title>
<path fill="none" stroke="midnightblue" d="M177.202,-174.753C174.054,-167.087 169.48,-155.952 165.586,-146.471"/>
<polygon fill="midnightblue" stroke="midnightblue" points="168.764,-144.996 161.727,-137.075 162.289,-147.655 168.764,-144.996"/>
</g>
<!-- Node6&#45;&gt;Node5 -->
<g id="edge6" class="edge"><title>Node6&#45;&gt;Node5</title>
<path fill="none" stroke="midnightblue" d="M221.399,-58.878C188.325,-49.331 136.265,-34.3033 100.036,-23.8454"/>
<polygon fill="midnightblue" stroke="midnightblue" points="100.845,-20.436 90.2662,-21.0253 98.9033,-27.1615 100.845,-20.436"/>
</g>
<!-- Node6&#45;&gt;Node7 -->
<g id="edge7" class="edge"><title>Node6&#45;&gt;Node7</title>
<path fill="none" stroke="midnightblue" d="M259.11,-58.7527C264.336,-50.8427 272.004,-39.2372 278.392,-29.5683"/>
<polygon fill="midnightblue" stroke="midnightblue" points="281.411,-31.348 284.004,-21.0752 275.571,-27.4891 281.411,-31.348"/>
</g>
<!-- Node8 -->
<g id="node8" class="node"><title>Node8</title>
<polygon fill="none" stroke="#bfbfbf" points="437,-1 437,-21 483,-21 483,-1 437,-1"/>
<text text-anchor="middle" x="460" y="-8.2" font-family="Avenir-Book" font-size="11.00">vector</text>
</g>
<!-- Node6&#45;&gt;Node8 -->
<g id="edge8" class="edge"><title>Node6&#45;&gt;Node8</title>
<path fill="none" stroke="midnightblue" d="M285.344,-59.25C323.965,-48.8018 388.206,-31.4226 427.08,-20.906"/>
<polygon fill="midnightblue" stroke="midnightblue" points="428.118,-24.251 436.857,-18.2609 426.29,-17.4939 428.118,-24.251"/>
</g>
<!-- Node9&#45;&gt;Node3 -->
<g id="edge12" class="edge"><title>Node9&#45;&gt;Node3</title>
<path fill="none" stroke="midnightblue" d="M153.046,-116.753C148.896,-109.006 142.847,-97.7142 137.733,-88.1688"/>
<polygon fill="midnightblue" stroke="midnightblue" points="140.669,-86.2372 132.862,-79.0752 134.499,-89.5428 140.669,-86.2372"/>
</g>
<!-- Node9&#45;&gt;Node6 -->
<g id="edge10" class="edge"><title>Node9&#45;&gt;Node6</title>
<path fill="none" stroke="midnightblue" d="M173.687,-116.753C188.628,-107.946 211.34,-94.5575 228.636,-84.3617"/>
<polygon fill="midnightblue" stroke="midnightblue" points="230.767,-87.1685 237.605,-79.0752 227.213,-81.1382 230.767,-87.1685"/>
</g>
<!-- Node9&#45;&gt;Node7 -->
<g id="edge11" class="edge"><title>Node9&#45;&gt;Node7</title>
<path fill="none" stroke="midnightblue" d="M163.74,-116.755C172.742,-102.784 191.305,-76.0139 212,-58 226.828,-45.0928 245.781,-33.8196 261.291,-25.6636"/>
<polygon fill="midnightblue" stroke="midnightblue" points="263.116,-28.6617 270.435,-21.0015 259.937,-22.4254 263.116,-28.6617"/>
</g>
<!-- Node11 -->
<g id="node11" class="node"><title>Node11</title>
<g id="a_node11"><a xlink:href="_policy_8hh.html" target="_top" xlink:title="Definition of loom::Policy. ">
<polygon fill="none" stroke="black" points="467.5,-233 467.5,-253 528.5,-253 528.5,-233 467.5,-233"/>
<text text-anchor="middle" x="498" y="-240.2" font-family="Avenir-Book" font-size="11.00">Policy.hh</text>
</a>
</g>
</g>
<!-- Node10&#45;&gt;Node11 -->
<g id="edge15" class="edge"><title>Node10&#45;&gt;Node11</title>
<path fill="none" stroke="midnightblue" d="M404.495,-290.753C422.516,-281.742 450.129,-267.935 470.682,-257.659"/>
<polygon fill="midnightblue" stroke="midnightblue" points="472.471,-260.678 479.85,-253.075 469.34,-254.417 472.471,-260.678"/>
</g>
<!-- Node14 -->
<g id="node14" class="node"><title>Node14</title>
<polygon fill="none" stroke="#bfbfbf" points="322.5,-233 322.5,-253 449.5,-253 449.5,-233 322.5,-233"/>
<text text-anchor="middle" x="386" y="-240.2" font-family="Avenir-Book" font-size="11.00">llvm/Support/ErrorOr.h</text>
</g>
<!-- Node10&#45;&gt;Node14 -->
<g id="edge22" class="edge"><title>Node10&#45;&gt;Node14</title>
<path fill="none" stroke="midnightblue" d="M386,-290.753C386,-283.25 386,-272.424 386,-263.078"/>
<polygon fill="midnightblue" stroke="midnightblue" points="389.5,-263.075 386,-253.075 382.5,-263.075 389.5,-263.075"/>
</g>
<!-- Node11&#45;&gt;Node2 -->
<g id="edge16" class="edge"><title>Node11&#45;&gt;Node2</title>
<path fill="none" stroke="midnightblue" d="M467.483,-234.102C464.289,-233.356 461.084,-232.64 458,-232 382.511,-216.322 294.572,-202.459 238.379,-194.152"/>
<polygon fill="midnightblue" stroke="midnightblue" points="238.668,-190.657 228.266,-192.666 237.651,-197.583 238.668,-190.657"/>
</g>
<!-- Node11&#45;&gt;Node8 -->
<g id="edge21" class="edge"><title>Node11&#45;&gt;Node8</title>
<path fill="none" stroke="midnightblue" d="M496.51,-232.984C490.907,-199.07 471.019,-78.695 463.195,-31.3391"/>
<polygon fill="midnightblue" stroke="midnightblue" points="466.604,-30.4996 461.521,-21.2039 459.698,-31.6407 466.604,-30.4996"/>
</g>
<!-- Node12 -->
<g id="node12" class="node"><title>Node12</title>
<g id="a_node12"><a xlink:href="_serializer_8hh.html" target="_top" xlink:title="Declaration of loom::Serializer. ">
<polygon fill="none" stroke="black" points="392,-175 392,-195 470,-195 470,-175 392,-175"/>
<text text-anchor="middle" x="431" y="-182.2" font-family="Avenir-Book" font-size="11.00">Serializer.hh</text>
</a>
</g>
</g>
<!-- Node11&#45;&gt;Node12 -->
<g id="edge17" class="edge"><title>Node11&#45;&gt;Node12</title>
<path fill="none" stroke="midnightblue" d="M486.936,-232.753C476.79,-224.272 461.56,-211.543 449.553,-201.507"/>
<polygon fill="midnightblue" stroke="midnightblue" points="451.775,-198.803 441.858,-195.075 447.286,-204.174 451.775,-198.803"/>
</g>
<!-- Node13 -->
<g id="node13" class="node"><title>Node13</title>
<polygon fill="none" stroke="#bfbfbf" points="330.5,-175 330.5,-195 373.5,-195 373.5,-175 330.5,-175"/>
<text text-anchor="middle" x="352" y="-182.2" font-family="Avenir-Book" font-size="11.00">string</text>
</g>
<!-- Node11&#45;&gt;Node13 -->
<g id="edge20" class="edge"><title>Node11&#45;&gt;Node13</title>
<path fill="none" stroke="midnightblue" d="M474.218,-232.878C449.462,-223.383 410.571,-208.466 383.326,-198.015"/>
<polygon fill="midnightblue" stroke="midnightblue" points="384.453,-194.699 373.863,-194.386 381.946,-201.235 384.453,-194.699"/>
</g>
<!-- Node12&#45;&gt;Node4 -->
<g id="edge18" class="edge"><title>Node12&#45;&gt;Node4</title>
<path fill="none" stroke="midnightblue" d="M416.634,-174.753C403.078,-166.027 382.536,-152.805 366.753,-142.646"/>
<polygon fill="midnightblue" stroke="midnightblue" points="368.402,-139.545 358.099,-137.075 364.613,-145.431 368.402,-139.545"/>
</g>
<!-- Node12&#45;&gt;Node7 -->
<g id="edge19" class="edge"><title>Node12&#45;&gt;Node7</title>
<path fill="none" stroke="midnightblue" d="M429.998,-174.955C428.133,-161.246 423.15,-134.814 411,-116 385.752,-76.9057 341.528,-44.3319 314.11,-26.558"/>
<polygon fill="midnightblue" stroke="midnightblue" points="315.829,-23.5035 305.508,-21.1097 312.083,-29.4172 315.829,-23.5035"/>
</g>
</g>
</svg>
        <g id="navigator" transform="translate(0 0)" fill="#404254">
                <rect fill="#f2f5e9" fill-opacity="0.5" stroke="#606060" stroke-width=".5" x="0" y="0" width="60" height="60"/>
                <use id="zoomplus" xlink:href="#zoomPlus" x="17" y="9" onmousedown="handleZoom(evt,'in')"/>
                <use id="zoomminus" xlink:href="#zoomMin" x="42" y="9" onmousedown="handleZoom(evt,'out')"/>
                <use id="reset" xlink:href="#resetDef" x="30" y="36" onmousedown="handleReset()"/>
                <g id="arrowUp" xlink:href="#dirArrow" transform="translate(30 24)" onmousedown="handlePan(0,-1)">
                  <use xlink:href="#rim" fill="#404040">
                        <set attributeName="fill" to="#808080" begin="arrowUp.mouseover" end="arrowUp.mouseout"/>
                  </use>
                  <path fill="none" stroke="white" stroke-width="1.5" d="M0,-3.0v7 M-2.5,-0.5L0,-3.0L2.5,-0.5"/>
                </g>
                <g id="arrowRight" xlink:href="#dirArrow" transform="rotate(90) translate(36 -43)" onmousedown="handlePan(1,0)">
                  <use xlink:href="#rim" fill="#404040">
                        <set attributeName="fill" to="#808080" begin="arrowRight.mouseover" end="arrowRight.mouseout"/>
                  </use>
                  <path fill="none" stroke="white" stroke-width="1.5" d="M0,-3.0v7 M-2.5,-0.5L0,-3.0L2.5,-0.5"/>
                </g>
                <g id="arrowDown" xlink:href="#dirArrow" transform="rotate(180) translate(-30 -48)" onmousedown="handlePan(0,1)">
                  <use xlink:href="#rim" fill="#404040">
                        <set attributeName="fill" to="#808080" begin="arrowDown.mouseover" end="arrowDown.mouseout"/>
                  </use>
                  <path fill="none" stroke="white" stroke-width="1.5" d="M0,-3.0v7 M-2.5,-0.5L0,-3.0L2.5,-0.5"/>
                </g>
                <g id="arrowLeft" xlink:href="#dirArrow" transform="rotate(270) translate(-36 17)" onmousedown="handlePan(-1,0)">
                  <use xlink:href="#rim" fill="#404040">
                        <set attributeName="fill" to="#808080" begin="arrowLeft.mouseover" end="arrowLeft.mouseout"/>
                  </use>
                  <path fill="none" stroke="white" stroke-width="1.5" d="M0,-3.0v7 M-2.5,-0.5L0,-3.0L2.5,-0.5"/>
                </g>
        </g>
        <svg viewBox="0 0 15 15" width="100%" height="30px" preserveAspectRatio="xMaxYMin meet">
         <g id="arrow_out" transform="scale(0.3 0.3)">
          <a xlink:href="_instrumentation_8hh__incl_org.svg" target="_base">
           <rect id="button" ry="5" rx="5" y="6" x="6" height="38" width="38"
                fill="#f2f5e9" fill-opacity="0.5" stroke="#606060" stroke-width="1.0"/>
           <path id="arrow"
             d="M 11.500037,31.436501 C 11.940474,20.09759 22.043105,11.32322 32.158766,21.979434 L 37.068811,17.246167 C 37.068811,17.246167 37.088388,32 37.088388,32 L 22.160133,31.978069 C 22.160133,31.978069 26.997745,27.140456 26.997745,27.140456 C 18.528582,18.264221 13.291696,25.230495 11.500037,31.436501 z"
             style="fill:#404040;"/>
          </a>
         </g>
        </svg>
</svg>
