<?xml version="1.0" encoding="UTF-8" standalone="no"?>
<!DOCTYPE svg PUBLIC "-//W3C//DTD SVG 1.1//EN"
 "http://www.w3.org/Graphics/SVG/1.1/DTD/svg11.dtd">
<!-- Generated by graphviz version 2.36.0 (20140111.2315)
 -->
<!-- Title: src/Instrumenter.hh Pages: 1 -->
<svg width="226pt" height="88pt"
 viewBox="0.00 0.00 226.00 88.00" xmlns="http://www.w3.org/2000/svg" xmlns:xlink="http://www.w3.org/1999/xlink">
<g id="graph0" class="graph" transform="scale(1 1) rotate(0) translate(4 84)">
<title>src/Instrumenter.hh</title>
<!-- Node1 -->
<g id="node1" class="node"><title>Node1</title>
<polygon fill="#bfbfbf" stroke="black" points="58.5,-59 58.5,-79 169.5,-79 169.5,-59 58.5,-59"/>
<text text-anchor="middle" x="114" y="-66.2" font-family="Avenir-Book" font-size="11.00">src/Instrumenter.hh</text>
</g>
<!-- Node2 -->
<g id="node2" class="node"><title>Node2</title>
<g id="a_node2"><a xlink:href="_instrumenter_8cc.html" target="_top" xlink:title="Definition of loom::Instrumenter. ">
<polygon fill="none" stroke="black" points="0,-1 0,-21 110,-21 110,-1 0,-1"/>
<text text-anchor="middle" x="55" y="-8.2" font-family="Avenir-Book" font-size="11.00">src/Instrumenter.cc</text>
</a>
</g>
</g>
<!-- Node1&#45;&gt;Node2 -->
<g id="edge1" class="edge"><title>Node1&#45;&gt;Node2</title>
<path fill="none" stroke="midnightblue" d="M96.831,-51.704C86.3212,-41.7286 73.2649,-29.3361 64.5614,-21.0752"/>
<polygon fill="midnightblue" stroke="midnightblue" points="94.5948,-54.407 104.257,-58.7527 99.4138,-49.3299 94.5948,-54.407"/>
</g>
<!-- Node3 -->
<g id="node3" class="node"><title>Node3</title>
<g id="a_node3"><a xlink:href="_opt_pass_8cc.html" target="_top" xlink:title="Definition of Loom&#39;s LLVM opt pass. ">
<polygon fill="none" stroke="black" points="128,-1 128,-21 218,-21 218,-1 128,-1"/>
<text text-anchor="middle" x="173" y="-8.2" font-family="Avenir-Book" font-size="11.00">src/OptPass.cc</text>
</a>
</g>
</g>
<!-- Node1&#45;&gt;Node3 -->
<g id="edge2" class="edge"><title>Node1&#45;&gt;Node3</title>
<path fill="none" stroke="midnightblue" d="M131.169,-51.704C141.679,-41.7286 154.735,-29.3361 163.439,-21.0752"/>
<polygon fill="midnightblue" stroke="midnightblue" points="128.586,-49.3299 123.743,-58.7527 133.405,-54.407 128.586,-49.3299"/>
</g>
</g>
</svg>
