<?xml version="1.0" encoding="UTF-8" standalone="no"?>
<!DOCTYPE svg PUBLIC "-//W3C//DTD SVG 1.1//EN"
 "http://www.w3.org/Graphics/SVG/1.1/DTD/svg11.dtd">
<!-- Generated by graphviz version 2.36.0 (20140111.2315)
 -->
<!-- Title: src/InstrStrategy.hh Pages: 1 -->
<svg width="557pt" height="320pt"
 viewBox="0.00 0.00 557.00 320.00" xmlns="http://www.w3.org/2000/svg" xmlns:xlink="http://www.w3.org/1999/xlink">
<g id="graph0" class="graph" transform="scale(1 1) rotate(0) translate(4 316)">
<title>src/InstrStrategy.hh</title>
<!-- Node1 -->
<g id="node1" class="node"><title>Node1</title>
<polygon fill="#bfbfbf" stroke="black" points="157,-291 157,-311 269,-311 269,-291 157,-291"/>
<text text-anchor="middle" x="213" y="-298.2" font-family="Avenir-Book" font-size="11.00">src/InstrStrategy.hh</text>
</g>
<!-- Node2 -->
<g id="node2" class="node"><title>Node2</title>
<g id="a_node2"><a xlink:href="_instrumentation_8hh.html" target="_top" xlink:title="Declaration of loom::Instrumentation. ">
<polygon fill="none" stroke="black" points="150.5,-117 150.5,-137 275.5,-137 275.5,-117 150.5,-117"/>
<text text-anchor="middle" x="213" y="-124.2" font-family="Avenir-Book" font-size="11.00">src/Instrumentation.hh</text>
</a>
</g>
</g>
<!-- Node1&#45;&gt;Node2 -->
<g id="edge1" class="edge"><title>Node1&#45;&gt;Node2</title>
<path fill="none" stroke="midnightblue" d="M213,-280.297C213,-243.202 213,-164.3 213,-137.293"/>
<polygon fill="midnightblue" stroke="midnightblue" points="209.5,-280.752 213,-290.753 216.5,-280.753 209.5,-280.752"/>
</g>
<!-- Node3 -->
<g id="node3" class="node"><title>Node3</title>
<g id="a_node3"><a xlink:href="_instr_strategy_8cc.html" target="_top" xlink:title="Definition of loom::InstrStrategy. ">
<polygon fill="none" stroke="black" points="-0.5,-59 -0.5,-79 110.5,-79 110.5,-59 -0.5,-59"/>
<text text-anchor="middle" x="55" y="-66.2" font-family="Avenir-Book" font-size="11.00">src/InstrStrategy.cc</text>
</a>
</g>
</g>
<!-- Node1&#45;&gt;Node3 -->
<g id="edge14" class="edge"><title>Node1&#45;&gt;Node3</title>
<path fill="none" stroke="midnightblue" d="M201.1,-282.677C169.654,-236.902 85.1358,-113.869 61.3227,-79.2039"/>
<polygon fill="midnightblue" stroke="midnightblue" points="198.259,-284.723 206.806,-290.984 204.029,-280.759 198.259,-284.723"/>
</g>
<!-- Node8 -->
<g id="node8" class="node"><title>Node8</title>
<g id="a_node8"><a xlink:href="_policy_8hh.html" target="_top" xlink:title="Definition of loom::Policy. ">
<polygon fill="none" stroke="black" points="325.5,-233 325.5,-253 404.5,-253 404.5,-233 325.5,-233"/>
<text text-anchor="middle" x="365" y="-240.2" font-family="Avenir-Book" font-size="11.00">src/Policy.hh</text>
</a>
</g>
</g>
<!-- Node1&#45;&gt;Node8 -->
<g id="edge7" class="edge"><title>Node1&#45;&gt;Node8</title>
<path fill="none" stroke="midnightblue" d="M247.252,-287.381C275.524,-276.965 314.971,-262.432 340.251,-253.118"/>
<polygon fill="midnightblue" stroke="midnightblue" points="245.933,-284.137 237.76,-290.878 248.353,-290.705 245.933,-284.137"/>
</g>
<!-- Node2&#45;&gt;Node3 -->
<g id="edge2" class="edge"><title>Node2&#45;&gt;Node3</title>
<path fill="none" stroke="midnightblue" d="M177.75,-113.506C148.241,-103.048 106.837,-88.3725 80.4643,-79.0253"/>
<polygon fill="midnightblue" stroke="midnightblue" points="176.668,-116.836 187.263,-116.878 179.007,-110.238 176.668,-116.836"/>
</g>
<!-- Node4 -->
<g id="node4" class="node"><title>Node4</title>
<g id="a_node4"><a xlink:href="_instrumentation_8cc.html" target="_top" xlink:title="Definition of loom::Instrumentation. ">
<polygon fill="none" stroke="black" points="129,-59 129,-79 253,-79 253,-59 129,-59"/>
<text text-anchor="middle" x="191" y="-66.2" font-family="Avenir-Book" font-size="11.00">src/Instrumentation.cc</text>
</a>
</g>
</g>
<!-- Node2&#45;&gt;Node4 -->
<g id="edge3" class="edge"><title>Node2&#45;&gt;Node4</title>
<path fill="none" stroke="midnightblue" d="M205.66,-107.315C201.925,-97.8101 197.556,-86.6882 194.565,-79.0752"/>
<polygon fill="midnightblue" stroke="midnightblue" points="202.453,-108.725 209.367,-116.753 208.968,-106.165 202.453,-108.725"/>
</g>
<!-- Node5 -->
<g id="node5" class="node"><title>Node5</title>
<g id="a_node5"><a xlink:href="_instrumenter_8hh.html" target="_top" xlink:title="Declaration of loom::Instrumenter. ">
<polygon fill="none" stroke="black" points="271.5,-59 271.5,-79 382.5,-79 382.5,-59 271.5,-59"/>
<text text-anchor="middle" x="327" y="-66.2" font-family="Avenir-Book" font-size="11.00">src/Instrumenter.hh</text>
</a>
</g>
</g>
<!-- Node2&#45;&gt;Node5 -->
<g id="edge4" class="edge"><title>Node2&#45;&gt;Node5</title>
<path fill="none" stroke="midnightblue" d="M240.657,-112.414C261.692,-102.081 290.058,-88.1472 308.438,-79.1181"/>
<polygon fill="midnightblue" stroke="midnightblue" points="239.002,-109.327 231.57,-116.878 242.089,-115.61 239.002,-109.327"/>
</g>
<!-- Node6 -->
<g id="node6" class="node"><title>Node6</title>
<g id="a_node6"><a xlink:href="_instrumenter_8cc.html" target="_top" xlink:title="Definition of loom::Instrumenter. ">
<polygon fill="none" stroke="black" points="238,-1 238,-21 348,-21 348,-1 238,-1"/>
<text text-anchor="middle" x="293" y="-8.2" font-family="Avenir-Book" font-size="11.00">src/Instrumenter.cc</text>
</a>
</g>
</g>
<!-- Node5&#45;&gt;Node6 -->
<g id="edge5" class="edge"><title>Node5&#45;&gt;Node6</title>
<path fill="none" stroke="midnightblue" d="M316.023,-49.9199C310.173,-40.2849 303.23,-28.8502 298.51,-21.0752"/>
<polygon fill="midnightblue" stroke="midnightblue" points="313.204,-52.0213 321.386,-58.7527 319.188,-48.3884 313.204,-52.0213"/>
</g>
<!-- Node7 -->
<g id="node7" class="node"><title>Node7</title>
<g id="a_node7"><a xlink:href="_opt_pass_8cc.html" target="_top" xlink:title="Definition of Loom&#39;s LLVM opt pass. ">
<polygon fill="none" stroke="black" points="366,-1 366,-21 456,-21 456,-1 366,-1"/>
<text text-anchor="middle" x="411" y="-8.2" font-family="Avenir-Book" font-size="11.00">src/OptPass.cc</text>
</a>
</g>
</g>
<!-- Node5&#45;&gt;Node7 -->
<g id="edge6" class="edge"><title>Node5&#45;&gt;Node7</title>
<path fill="none" stroke="midnightblue" d="M349.271,-53.1528C364.57,-42.9534 384.388,-29.7411 397.387,-21.0752"/>
<polygon fill="midnightblue" stroke="midnightblue" points="347.25,-50.2935 340.871,-58.7527 351.133,-56.1179 347.25,-50.2935"/>
</g>
<!-- Node8&#45;&gt;Node5 -->
<g id="edge12" class="edge"><title>Node8&#45;&gt;Node5</title>
<path fill="none" stroke="midnightblue" d="M356.096,-223.36C352.484,-215.134 348.567,-205.25 346,-196 334.11,-153.153 329.178,-99.914 327.608,-79.0155"/>
<polygon fill="midnightblue" stroke="midnightblue" points="353.037,-225.087 360.384,-232.721 359.401,-222.172 353.037,-225.087"/>
</g>
<!-- Node9 -->
<g id="node9" class="node"><title>Node9</title>
<g id="a_node9"><a xlink:href="_policy_file_8hh.html" target="_top" xlink:title="Declaration of loom::PolicyFile. ">
<polygon fill="none" stroke="black" points="355.5,-175 355.5,-195 452.5,-195 452.5,-175 355.5,-175"/>
<text text-anchor="middle" x="404" y="-182.2" font-family="Avenir-Book" font-size="11.00">src/PolicyFile.hh</text>
</a>
</g>
</g>
<!-- Node8&#45;&gt;Node9 -->
<g id="edge8" class="edge"><title>Node8&#45;&gt;Node9</title>
<path fill="none" stroke="midnightblue" d="M377.174,-224.52C383.969,-214.763 392.152,-203.012 397.68,-195.075"/>
<polygon fill="midnightblue" stroke="midnightblue" points="374.283,-222.546 371.44,-232.753 380.027,-226.547 374.283,-222.546"/>
</g>
<!-- Node11 -->
<g id="node11" class="node"><title>Node11</title>
<g id="a_node11"><a xlink:href="_policy_8cc.html" target="_top" xlink:title="Definition of loom::Policy. ">
<polygon fill="none" stroke="black" points="471,-175 471,-195 549,-195 549,-175 471,-175"/>
<text text-anchor="middle" x="510" y="-182.2" font-family="Avenir-Book" font-size="11.00">src/Policy.cc</text>
</a>
</g>
</g>
<!-- Node8&#45;&gt;Node11 -->
<g id="edge13" class="edge"><title>Node8&#45;&gt;Node11</title>
<path fill="none" stroke="midnightblue" d="M398.029,-229.244C424.973,-218.838 462.38,-204.391 486.391,-195.118"/>
<polygon fill="midnightblue" stroke="midnightblue" points="396.687,-226.01 388.619,-232.878 399.209,-232.54 396.687,-226.01"/>
</g>
<!-- Node9&#45;&gt;Node2 -->
<g id="edge9" class="edge"><title>Node9&#45;&gt;Node2</title>
<path fill="none" stroke="midnightblue" d="M363.236,-172.048C327.462,-161.56 276.218,-146.535 243.783,-137.025"/>
<polygon fill="midnightblue" stroke="midnightblue" points="362.307,-175.423 372.887,-174.878 364.276,-168.706 362.307,-175.423"/>
</g>
<!-- Node9&#45;&gt;Node7 -->
<g id="edge10" class="edge"><title>Node9&#45;&gt;Node7</title>
<path fill="none" stroke="midnightblue" d="M404.802,-164.297C406.312,-127.202 409.523,-48.3002 410.622,-21.2932"/>
<polygon fill="midnightblue" stroke="midnightblue" points="401.286,-164.618 404.376,-174.753 408.28,-164.903 401.286,-164.618"/>
</g>
<!-- Node10 -->
<g id="node10" class="node"><title>Node10</title>
<g id="a_node10"><a xlink:href="_policy_file_8cc.html" target="_top" xlink:title="Definition of loom::PolicyFile. ">
<polygon fill="none" stroke="black" points="439.5,-117 439.5,-137 534.5,-137 534.5,-117 439.5,-117"/>
<text text-anchor="middle" x="487" y="-124.2" font-family="Avenir-Book" font-size="11.00">src/PolicyFile.cc</text>
</a>
</g>
</g>
<!-- Node9&#45;&gt;Node10 -->
<g id="edge11" class="edge"><title>Node9&#45;&gt;Node10</title>
<path fill="none" stroke="midnightblue" d="M426.006,-169.153C441.123,-158.953 460.705,-145.741 473.549,-137.075"/>
<polygon fill="midnightblue" stroke="midnightblue" points="424.038,-166.258 417.706,-174.753 427.953,-172.061 424.038,-166.258"/>
</g>
</g>
</svg>
