<?xml version="1.0" encoding="UTF-8" standalone="no"?>
<!DOCTYPE svg PUBLIC "-//W3C//DTD SVG 1.1//EN"
 "http://www.w3.org/Graphics/SVG/1.1/DTD/svg11.dtd">
<!-- Generated by graphviz version 2.36.0 (20140111.2315)
 -->
<!-- Title: src/KTraceLogger.hh Pages: 1 -->
<svg width="222pt" height="88pt"
 viewBox="0.00 0.00 222.00 88.00" xmlns="http://www.w3.org/2000/svg" xmlns:xlink="http://www.w3.org/1999/xlink">
<g id="graph0" class="graph" transform="scale(1 1) rotate(0) translate(4 84)">
<title>src/KTraceLogger.hh</title>
<!-- Node1 -->
<g id="node1" class="node"><title>Node1</title>
<polygon fill="#bfbfbf" stroke="black" points="57.5,-59 57.5,-79 176.5,-79 176.5,-59 57.5,-59"/>
<text text-anchor="middle" x="117" y="-66.2" font-family="Avenir-Book" font-size="11.00">src/KTraceLogger.hh</text>
</g>
<!-- Node2 -->
<g id="node2" class="node"><title>Node2</title>
<g id="a_node2"><a xlink:href="_k_trace_logger_8cc.html" target="_top" xlink:title="Definition of loom::KTraceLogger. ">
<polygon fill="none" stroke="black" points="0,-1 0,-21 118,-21 118,-1 0,-1"/>
<text text-anchor="middle" x="59" y="-8.2" font-family="Avenir-Book" font-size="11.00">src/KTraceLogger.cc</text>
</a>
</g>
</g>
<!-- Node1&#45;&gt;Node2 -->
<g id="edge1" class="edge"><title>Node1&#45;&gt;Node2</title>
<path fill="none" stroke="midnightblue" d="M100.122,-51.704C89.7903,-41.7286 76.9553,-29.3361 68.3993,-21.0752"/>
<polygon fill="midnightblue" stroke="midnightblue" points="97.7973,-54.3247 107.422,-58.7527 102.66,-49.2888 97.7973,-54.3247"/>
</g>
<!-- Node3 -->
<g id="node3" class="node"><title>Node3</title>
<g id="a_node3"><a xlink:href="_policy_8cc.html" target="_top" xlink:title="Definition of loom::Policy. ">
<polygon fill="none" stroke="black" points="136,-1 136,-21 214,-21 214,-1 136,-1"/>
<text text-anchor="middle" x="175" y="-8.2" font-family="Avenir-Book" font-size="11.00">src/Policy.cc</text>
</a>
</g>
</g>
<!-- Node1&#45;&gt;Node3 -->
<g id="edge2" class="edge"><title>Node1&#45;&gt;Node3</title>
<path fill="none" stroke="midnightblue" d="M133.878,-51.704C144.21,-41.7286 157.045,-29.3361 165.601,-21.0752"/>
<polygon fill="midnightblue" stroke="midnightblue" points="131.34,-49.2888 126.578,-58.7527 136.203,-54.3247 131.34,-49.2888"/>
</g>
</g>
</svg>
