<?xml version="1.0" encoding="UTF-8" standalone="no"?>
<!DOCTYPE svg PUBLIC "-//W3C//DTD SVG 1.1//EN"
 "http://www.w3.org/Graphics/SVG/1.1/DTD/svg11.dtd">
<!-- Generated by graphviz version 2.36.0 (20140111.2315)
 -->
<!-- Title: src/KTraceLogger.cc Pages: 1 -->
<svg width="634pt" height="262pt"
 viewBox="0.00 0.00 634.00 262.00" xmlns="http://www.w3.org/2000/svg" xmlns:xlink="http://www.w3.org/1999/xlink">
<g id="graph0" class="graph" transform="scale(1 1) rotate(0) translate(4 258)">
<title>src/KTraceLogger.cc</title>
<!-- Node1 -->
<g id="node1" class="node"><title>Node1</title>
<polygon fill="#bfbfbf" stroke="black" points="326,-233 326,-253 444,-253 444,-233 326,-233"/>
<text text-anchor="middle" x="385" y="-240.2" font-family="Avenir-Book" font-size="11.00">src/KTraceLogger.cc</text>
</g>
<!-- Node2 -->
<g id="node2" class="node"><title>Node2</title>
<g id="a_node2"><a xlink:href="_k_trace_logger_8hh.html" target="_top" xlink:title="Declaration of loom::KTraceLogger. ">
<polygon fill="none" stroke="black" points="171,-175 171,-195 273,-195 273,-175 171,-175"/>
<text text-anchor="middle" x="222" y="-182.2" font-family="Avenir-Book" font-size="11.00">KTraceLogger.hh</text>
</a>
</g>
</g>
<!-- Node1&#45;&gt;Node2 -->
<g id="edge1" class="edge"><title>Node1&#45;&gt;Node2</title>
<path fill="none" stroke="midnightblue" d="M358.448,-232.878C331.135,-223.494 288.409,-208.815 258.051,-198.386"/>
<polygon fill="midnightblue" stroke="midnightblue" points="258.865,-194.964 248.27,-195.025 256.59,-201.585 258.865,-194.964"/>
</g>
<!-- Node9 -->
<g id="node9" class="node"><title>Node9</title>
<g id="a_node9"><a xlink:href="_serializer_8hh.html" target="_top" xlink:title="Declaration of loom::Serializer. ">
<polygon fill="none" stroke="black" points="293,-175 293,-195 371,-195 371,-175 293,-175"/>
<text text-anchor="middle" x="332" y="-182.2" font-family="Avenir-Book" font-size="11.00">Serializer.hh</text>
</a>
</g>
</g>
<!-- Node1&#45;&gt;Node9 -->
<g id="edge9" class="edge"><title>Node1&#45;&gt;Node9</title>
<path fill="none" stroke="midnightblue" d="M376.248,-232.753C368.453,-224.516 356.866,-212.274 347.505,-202.382"/>
<polygon fill="midnightblue" stroke="midnightblue" points="350.005,-199.932 340.589,-195.075 344.921,-204.744 350.005,-199.932"/>
</g>
<!-- Node11 -->
<g id="node11" class="node"><title>Node11</title>
<polygon fill="none" stroke="#bfbfbf" points="389,-175 389,-195 487,-195 487,-175 389,-175"/>
<text text-anchor="middle" x="438" y="-182.2" font-family="Avenir-Book" font-size="11.00">llvm/IR/Module.h</text>
</g>
<!-- Node1&#45;&gt;Node11 -->
<g id="edge12" class="edge"><title>Node1&#45;&gt;Node11</title>
<path fill="none" stroke="midnightblue" d="M393.752,-232.753C401.547,-224.516 413.134,-212.274 422.495,-202.382"/>
<polygon fill="midnightblue" stroke="midnightblue" points="425.079,-204.744 429.411,-195.075 419.995,-199.932 425.079,-204.744"/>
</g>
<!-- Node12 -->
<g id="node12" class="node"><title>Node12</title>
<polygon fill="none" stroke="#bfbfbf" points="505.5,-175 505.5,-195 626.5,-195 626.5,-175 505.5,-175"/>
<text text-anchor="middle" x="566" y="-182.2" font-family="Avenir-Book" font-size="11.00">llvm/IR/TypeBuilder.h</text>
</g>
<!-- Node1&#45;&gt;Node12 -->
<g id="edge13" class="edge"><title>Node1&#45;&gt;Node12</title>
<path fill="none" stroke="midnightblue" d="M414.484,-232.878C445.077,-223.413 493.083,-208.56 526.844,-198.115"/>
<polygon fill="midnightblue" stroke="midnightblue" points="528.31,-201.325 536.829,-195.025 526.241,-194.637 528.31,-201.325"/>
</g>
<!-- Node3 -->
<g id="node3" class="node"><title>Node3</title>
<g id="a_node3"><a xlink:href="_logger_8hh.html" target="_top" xlink:title="Declaration of loom::Logger. ">
<polygon fill="none" stroke="black" points="188,-117 188,-137 254,-137 254,-117 188,-117"/>
<text text-anchor="middle" x="221" y="-124.2" font-family="Avenir-Book" font-size="11.00">Logger.hh</text>
</a>
</g>
</g>
<!-- Node2&#45;&gt;Node3 -->
<g id="edge2" class="edge"><title>Node2&#45;&gt;Node3</title>
<path fill="none" stroke="midnightblue" d="M221.835,-174.753C221.701,-167.25 221.508,-156.424 221.341,-147.078"/>
<polygon fill="midnightblue" stroke="midnightblue" points="224.84,-147.011 221.162,-137.075 217.841,-147.136 224.84,-147.011"/>
</g>
<!-- Node4 -->
<g id="node4" class="node"><title>Node4</title>
<g id="a_node4"><a xlink:href="_i_r_utils_8hh.html" target="_top" xlink:title="Declarations of LLVM IR utility functions. ">
<polygon fill="none" stroke="black" points="128,-59 128,-79 192,-79 192,-59 128,-59"/>
<text text-anchor="middle" x="160" y="-66.2" font-family="Avenir-Book" font-size="11.00">IRUtils.hh</text>
</a>
</g>
</g>
<!-- Node3&#45;&gt;Node4 -->
<g id="edge3" class="edge"><title>Node3&#45;&gt;Node4</title>
<path fill="none" stroke="midnightblue" d="M210.927,-116.753C201.867,-108.435 188.355,-96.031 177.526,-86.0893"/>
<polygon fill="midnightblue" stroke="midnightblue" points="179.619,-83.2596 169.885,-79.0752 174.885,-88.4162 179.619,-83.2596"/>
</g>
<!-- Node6 -->
<g id="node6" class="node"><title>Node6</title>
<polygon fill="none" stroke="#bfbfbf" points="201,-1 201,-21 309,-21 309,-1 201,-1"/>
<text text-anchor="middle" x="255" y="-8.2" font-family="Avenir-Book" font-size="11.00">llvm/IR/IRBuilder.h</text>
</g>
<!-- Node3&#45;&gt;Node6 -->
<g id="edge7" class="edge"><title>Node3&#45;&gt;Node6</title>
<path fill="none" stroke="midnightblue" d="M223.224,-116.698C226.424,-103.543 232.644,-78.7875 239,-58 241.782,-48.9034 245.208,-38.9184 248.176,-30.5825"/>
<polygon fill="midnightblue" stroke="midnightblue" points="251.497,-31.691 251.606,-21.0967 244.914,-29.3104 251.497,-31.691"/>
</g>
<!-- Node8 -->
<g id="node8" class="node"><title>Node8</title>
<polygon fill="none" stroke="#bfbfbf" points="248,-59 248,-79 304,-79 304,-59 248,-59"/>
<text text-anchor="middle" x="276" y="-66.2" font-family="Avenir-Book" font-size="11.00">memory</text>
</g>
<!-- Node3&#45;&gt;Node8 -->
<g id="edge8" class="edge"><title>Node3&#45;&gt;Node8</title>
<path fill="none" stroke="midnightblue" d="M230.082,-116.753C238.171,-108.516 250.195,-96.2738 259.91,-86.3824"/>
<polygon fill="midnightblue" stroke="midnightblue" points="262.577,-88.6622 267.087,-79.0752 257.583,-83.7572 262.577,-88.6622"/>
</g>
<!-- Node5 -->
<g id="node5" class="node"><title>Node5</title>
<polygon fill="none" stroke="#bfbfbf" points="-0.5,-1 -0.5,-21 118.5,-21 118.5,-1 -0.5,-1"/>
<text text-anchor="middle" x="59" y="-8.2" font-family="Avenir-Book" font-size="11.00">llvm/ADT/StringRef.h</text>
</g>
<!-- Node4&#45;&gt;Node5 -->
<g id="edge4" class="edge"><title>Node4&#45;&gt;Node5</title>
<path fill="none" stroke="midnightblue" d="M143.322,-58.7527C127.217,-49.8233 102.619,-36.1848 84.1396,-25.9388"/>
<polygon fill="midnightblue" stroke="midnightblue" points="85.8106,-22.8633 75.3678,-21.0752 82.4162,-28.9853 85.8106,-22.8633"/>
</g>
<!-- Node4&#45;&gt;Node6 -->
<g id="edge5" class="edge"><title>Node4&#45;&gt;Node6</title>
<path fill="none" stroke="midnightblue" d="M175.687,-58.7527C190.628,-49.9457 213.34,-36.5575 230.636,-26.3617"/>
<polygon fill="midnightblue" stroke="midnightblue" points="232.767,-29.1685 239.605,-21.0752 229.213,-23.1382 232.767,-29.1685"/>
</g>
<!-- Node7 -->
<g id="node7" class="node"><title>Node7</title>
<polygon fill="none" stroke="#bfbfbf" points="137,-1 137,-21 183,-21 183,-1 137,-1"/>
<text text-anchor="middle" x="160" y="-8.2" font-family="Avenir-Book" font-size="11.00">vector</text>
</g>
<!-- Node4&#45;&gt;Node7 -->
<g id="edge6" class="edge"><title>Node4&#45;&gt;Node7</title>
<path fill="none" stroke="midnightblue" d="M160,-58.7527C160,-51.2504 160,-40.4238 160,-31.0781"/>
<polygon fill="midnightblue" stroke="midnightblue" points="163.5,-31.0752 160,-21.0752 156.5,-31.0752 163.5,-31.0752"/>
</g>
<!-- Node9&#45;&gt;Node6 -->
<g id="edge11" class="edge"><title>Node9&#45;&gt;Node6</title>
<path fill="none" stroke="midnightblue" d="M332.81,-174.708C334.278,-152.764 335.397,-96.6694 313,-58 305.455,-44.9725 292.671,-34.2358 281.022,-26.4211"/>
<polygon fill="midnightblue" stroke="midnightblue" points="282.769,-23.3856 272.441,-21.0252 279.043,-29.3114 282.769,-23.3856"/>
</g>
<!-- Node10 -->
<g id="node10" class="node"><title>Node10</title>
<polygon fill="none" stroke="#bfbfbf" points="360.5,-117 360.5,-137 477.5,-137 477.5,-117 360.5,-117"/>
<text text-anchor="middle" x="419" y="-124.2" font-family="Avenir-Book" font-size="11.00">llvm/ADT/ArrayRef.h</text>
</g>
<!-- Node9&#45;&gt;Node10 -->
<g id="edge10" class="edge"><title>Node9&#45;&gt;Node10</title>
<path fill="none" stroke="midnightblue" d="M346.366,-174.753C359.922,-166.027 380.464,-152.805 396.247,-142.646"/>
<polygon fill="midnightblue" stroke="midnightblue" points="398.387,-145.431 404.901,-137.075 394.598,-139.545 398.387,-145.431"/>
</g>
</g>
</svg>
