<?xml version="1.0" encoding="UTF-8" standalone="no"?>
<!DOCTYPE svg PUBLIC "-//W3C//DTD SVG 1.1//EN"
 "http://www.w3.org/Graphics/SVG/1.1/DTD/svg11.dtd">
<!-- Generated by graphviz version 2.36.0 (20140111.2315)
 -->
<!-- Title: src/Logger.cc Pages: 1 -->
<svg width="617pt" height="204pt"
 viewBox="0.00 0.00 617.00 204.00" xmlns="http://www.w3.org/2000/svg" xmlns:xlink="http://www.w3.org/1999/xlink">
<g id="graph0" class="graph" transform="scale(1 1) rotate(0) translate(4 200)">
<title>src/Logger.cc</title>
<!-- Node1 -->
<g id="node1" class="node"><title>Node1</title>
<polygon fill="#bfbfbf" stroke="black" points="368.5,-175 368.5,-195 451.5,-195 451.5,-175 368.5,-175"/>
<text text-anchor="middle" x="410" y="-182.2" font-family="Avenir-Book" font-size="11.00">src/Logger.cc</text>
</g>
<!-- Node2 -->
<g id="node2" class="node"><title>Node2</title>
<g id="a_node2"><a xlink:href="_logger_8hh.html" target="_top" xlink:title="Declaration of loom::Logger. ">
<polygon fill="none" stroke="black" points="213,-117 213,-137 279,-137 279,-117 213,-117"/>
<text text-anchor="middle" x="246" y="-124.2" font-family="Avenir-Book" font-size="11.00">Logger.hh</text>
</a>
</g>
</g>
<!-- Node1&#45;&gt;Node2 -->
<g id="edge1" class="edge"><title>Node1&#45;&gt;Node2</title>
<path fill="none" stroke="midnightblue" d="M383.286,-174.878C355.805,-165.494 312.817,-150.815 282.272,-140.386"/>
<polygon fill="midnightblue" stroke="midnightblue" points="283.026,-136.945 272.431,-137.025 280.764,-143.569 283.026,-136.945"/>
</g>
<!-- Node8 -->
<g id="node8" class="node"><title>Node8</title>
<polygon fill="none" stroke="#bfbfbf" points="297,-117 297,-137 395,-137 395,-117 297,-117"/>
<text text-anchor="middle" x="346" y="-124.2" font-family="Avenir-Book" font-size="11.00">llvm/IR/Module.h</text>
</g>
<!-- Node1&#45;&gt;Node8 -->
<g id="edge8" class="edge"><title>Node1&#45;&gt;Node8</title>
<path fill="none" stroke="midnightblue" d="M399.432,-174.753C389.832,-166.353 375.471,-153.787 364.054,-143.798"/>
<polygon fill="midnightblue" stroke="midnightblue" points="366.202,-141.026 356.372,-137.075 361.593,-146.294 366.202,-141.026"/>
</g>
<!-- Node9 -->
<g id="node9" class="node"><title>Node9</title>
<polygon fill="none" stroke="#bfbfbf" points="413.5,-117 413.5,-137 534.5,-137 534.5,-117 413.5,-117"/>
<text text-anchor="middle" x="474" y="-124.2" font-family="Avenir-Book" font-size="11.00">llvm/IR/TypeBuilder.h</text>
</g>
<!-- Node1&#45;&gt;Node9 -->
<g id="edge9" class="edge"><title>Node1&#45;&gt;Node9</title>
<path fill="none" stroke="midnightblue" d="M420.568,-174.753C430.168,-166.353 444.529,-153.787 455.946,-143.798"/>
<polygon fill="midnightblue" stroke="midnightblue" points="458.407,-146.294 463.628,-137.075 453.798,-141.026 458.407,-146.294"/>
</g>
<!-- Node10 -->
<g id="node10" class="node"><title>Node10</title>
<polygon fill="none" stroke="#bfbfbf" points="553,-117 553,-137 609,-137 609,-117 553,-117"/>
<text text-anchor="middle" x="581" y="-124.2" font-family="Avenir-Book" font-size="11.00">sstream</text>
</g>
<!-- Node1&#45;&gt;Node10 -->
<g id="edge10" class="edge"><title>Node1&#45;&gt;Node10</title>
<path fill="none" stroke="midnightblue" d="M437.855,-174.878C466.633,-165.453 511.721,-150.688 543.594,-140.25"/>
<polygon fill="midnightblue" stroke="midnightblue" points="545.026,-143.464 553.441,-137.025 542.848,-136.811 545.026,-143.464"/>
</g>
<!-- Node3 -->
<g id="node3" class="node"><title>Node3</title>
<g id="a_node3"><a xlink:href="_i_r_utils_8hh.html" target="_top" xlink:title="Declarations of LLVM IR utility functions. ">
<polygon fill="none" stroke="black" points="137,-59 137,-79 201,-79 201,-59 137,-59"/>
<text text-anchor="middle" x="169" y="-66.2" font-family="Avenir-Book" font-size="11.00">IRUtils.hh</text>
</a>
</g>
</g>
<!-- Node2&#45;&gt;Node3 -->
<g id="edge2" class="edge"><title>Node2&#45;&gt;Node3</title>
<path fill="none" stroke="midnightblue" d="M233.285,-116.753C221.512,-108.19 203.784,-95.2978 189.926,-85.2186"/>
<polygon fill="midnightblue" stroke="midnightblue" points="191.624,-82.1264 181.478,-79.0752 187.507,-87.7875 191.624,-82.1264"/>
</g>
<!-- Node5 -->
<g id="node5" class="node"><title>Node5</title>
<polygon fill="none" stroke="#bfbfbf" points="201,-1 201,-21 309,-21 309,-1 201,-1"/>
<text text-anchor="middle" x="255" y="-8.2" font-family="Avenir-Book" font-size="11.00">llvm/IR/IRBuilder.h</text>
</g>
<!-- Node2&#45;&gt;Node5 -->
<g id="edge6" class="edge"><title>Node2&#45;&gt;Node5</title>
<path fill="none" stroke="midnightblue" d="M246.737,-116.671C248.207,-98.0407 251.534,-55.8976 253.489,-31.1428"/>
<polygon fill="midnightblue" stroke="midnightblue" points="256.98,-31.3839 254.278,-21.1394 250.002,-30.8329 256.98,-31.3839"/>
</g>
<!-- Node7 -->
<g id="node7" class="node"><title>Node7</title>
<polygon fill="none" stroke="#bfbfbf" points="274,-59 274,-79 330,-79 330,-59 274,-59"/>
<text text-anchor="middle" x="302" y="-66.2" font-family="Avenir-Book" font-size="11.00">memory</text>
</g>
<!-- Node2&#45;&gt;Node7 -->
<g id="edge7" class="edge"><title>Node2&#45;&gt;Node7</title>
<path fill="none" stroke="midnightblue" d="M255.247,-116.753C263.484,-108.516 275.726,-96.2738 285.618,-86.3824"/>
<polygon fill="midnightblue" stroke="midnightblue" points="288.329,-88.6212 292.925,-79.0752 283.379,-83.6714 288.329,-88.6212"/>
</g>
<!-- Node4 -->
<g id="node4" class="node"><title>Node4</title>
<polygon fill="none" stroke="#bfbfbf" points="-0.5,-1 -0.5,-21 118.5,-21 118.5,-1 -0.5,-1"/>
<text text-anchor="middle" x="59" y="-8.2" font-family="Avenir-Book" font-size="11.00">llvm/ADT/StringRef.h</text>
</g>
<!-- Node3&#45;&gt;Node4 -->
<g id="edge3" class="edge"><title>Node3&#45;&gt;Node4</title>
<path fill="none" stroke="midnightblue" d="M150.836,-58.7527C133.136,-49.7418 106.016,-35.9353 85.83,-25.6589"/>
<polygon fill="midnightblue" stroke="midnightblue" points="87.3258,-22.493 76.8263,-21.0752 84.15,-28.7312 87.3258,-22.493"/>
</g>
<!-- Node3&#45;&gt;Node5 -->
<g id="edge4" class="edge"><title>Node3&#45;&gt;Node5</title>
<path fill="none" stroke="midnightblue" d="M183.201,-58.7527C196.601,-50.0272 216.907,-36.8051 232.508,-26.6458"/>
<polygon fill="midnightblue" stroke="midnightblue" points="234.593,-29.465 241.063,-21.0752 230.773,-23.599 234.593,-29.465"/>
</g>
<!-- Node6 -->
<g id="node6" class="node"><title>Node6</title>
<polygon fill="none" stroke="#bfbfbf" points="137,-1 137,-21 183,-21 183,-1 137,-1"/>
<text text-anchor="middle" x="160" y="-8.2" font-family="Avenir-Book" font-size="11.00">vector</text>
</g>
<!-- Node3&#45;&gt;Node6 -->
<g id="edge5" class="edge"><title>Node3&#45;&gt;Node6</title>
<path fill="none" stroke="midnightblue" d="M167.514,-58.7527C166.308,-51.2504 164.568,-40.4238 163.066,-31.0781"/>
<polygon fill="midnightblue" stroke="midnightblue" points="166.501,-30.3931 161.459,-21.0752 159.59,-31.5039 166.501,-30.3931"/>
</g>
</g>
</svg>
