<?xml version="1.0" encoding="UTF-8" standalone="no"?>
<!DOCTYPE svg PUBLIC "-//W3C//DTD SVG 1.1//EN"
 "http://www.w3.org/Graphics/SVG/1.1/DTD/svg11.dtd">
<!-- Generated by graphviz version 2.36.0 (20140111.2315)
 -->
<!-- Title: src/Logger.hh Pages: 1 -->
<svg width="681pt" height="378pt"
 viewBox="0.00 0.00 681.00 378.00" xmlns="http://www.w3.org/2000/svg" xmlns:xlink="http://www.w3.org/1999/xlink">
<g id="graph0" class="graph" transform="scale(1 1) rotate(0) translate(4 374)">
<title>src/Logger.hh</title>
<!-- Node1 -->
<g id="node1" class="node"><title>Node1</title>
<polygon fill="#bfbfbf" stroke="black" points="475,-349 475,-369 559,-369 559,-349 475,-349"/>
<text text-anchor="middle" x="517" y="-356.2" font-family="Avenir-Book" font-size="11.00">src/Logger.hh</text>
</g>
<!-- Node2 -->
<g id="node2" class="node"><title>Node2</title>
<g id="a_node2"><a xlink:href="_instr_strategy_8hh.html" target="_top" xlink:title="Declaration of loom::InstrStrategy. ">
<polygon fill="none" stroke="black" points="192,-291 192,-311 304,-311 304,-291 192,-291"/>
<text text-anchor="middle" x="248" y="-298.2" font-family="Avenir-Book" font-size="11.00">src/InstrStrategy.hh</text>
</a>
</g>
</g>
<!-- Node1&#45;&gt;Node2 -->
<g id="edge1" class="edge"><title>Node1&#45;&gt;Node2</title>
<path fill="none" stroke="midnightblue" d="M464.918,-347.158C414.47,-336.655 338.847,-320.912 291.518,-311.06"/>
<polygon fill="midnightblue" stroke="midnightblue" points="464.465,-350.638 474.969,-349.25 465.892,-343.785 464.465,-350.638"/>
</g>
<!-- Node7 -->
<g id="node7" class="node"><title>Node7</title>
<g id="a_node7"><a xlink:href="_instrumenter_8cc.html" target="_top" xlink:title="Definition of loom::Instrumenter. ">
<polygon fill="none" stroke="black" points="382,-1 382,-21 492,-21 492,-1 382,-1"/>
<text text-anchor="middle" x="437" y="-8.2" font-family="Avenir-Book" font-size="11.00">src/Instrumenter.cc</text>
</a>
</g>
</g>
<!-- Node1&#45;&gt;Node7 -->
<g id="edge16" class="edge"><title>Node1&#45;&gt;Node7</title>
<path fill="none" stroke="midnightblue" d="M528.592,-340.206C541.628,-318.441 561,-280.036 561,-244 561,-244 561,-244 561,-126 561,-72.0466 496.593,-36.6489 460.615,-21.0847"/>
<polygon fill="midnightblue" stroke="midnightblue" points="525.61,-338.372 523.304,-348.713 531.556,-342.068 525.61,-338.372"/>
</g>
<!-- Node13 -->
<g id="node13" class="node"><title>Node13</title>
<g id="a_node13"><a xlink:href="_k_trace_logger_8hh.html" target="_top" xlink:title="Declaration of loom::KTraceLogger. ">
<polygon fill="none" stroke="black" points="413.5,-291 413.5,-311 532.5,-311 532.5,-291 413.5,-291"/>
<text text-anchor="middle" x="473" y="-298.2" font-family="Avenir-Book" font-size="11.00">src/KTraceLogger.hh</text>
</a>
</g>
</g>
<!-- Node1&#45;&gt;Node13 -->
<g id="edge17" class="edge"><title>Node1&#45;&gt;Node13</title>
<path fill="none" stroke="midnightblue" d="M503.5,-340.818C495.788,-331.003 486.43,-319.093 480.131,-311.075"/>
<polygon fill="midnightblue" stroke="midnightblue" points="500.804,-343.052 509.734,-348.753 506.308,-338.727 500.804,-343.052"/>
</g>
<!-- Node15 -->
<g id="node15" class="node"><title>Node15</title>
<g id="a_node15"><a xlink:href="_logger_8cc.html" target="_top" xlink:title="Definition of loom::Logger. ">
<polygon fill="none" stroke="black" points="589.5,-291 589.5,-311 672.5,-311 672.5,-291 589.5,-291"/>
<text text-anchor="middle" x="631" y="-298.2" font-family="Avenir-Book" font-size="11.00">src/Logger.cc</text>
</a>
</g>
</g>
<!-- Node1&#45;&gt;Node15 -->
<g id="edge20" class="edge"><title>Node1&#45;&gt;Node15</title>
<path fill="none" stroke="midnightblue" d="M544.657,-344.414C565.692,-334.081 594.058,-320.147 612.438,-311.118"/>
<polygon fill="midnightblue" stroke="midnightblue" points="543.002,-341.327 535.57,-348.878 546.089,-347.61 543.002,-341.327"/>
</g>
<!-- Node3 -->
<g id="node3" class="node"><title>Node3</title>
<g id="a_node3"><a xlink:href="_instrumentation_8hh.html" target="_top" xlink:title="Declaration of loom::Instrumentation. ">
<polygon fill="none" stroke="black" points="127.5,-117 127.5,-137 252.5,-137 252.5,-117 127.5,-117"/>
<text text-anchor="middle" x="190" y="-124.2" font-family="Avenir-Book" font-size="11.00">src/Instrumentation.hh</text>
</a>
</g>
</g>
<!-- Node2&#45;&gt;Node3 -->
<g id="edge2" class="edge"><title>Node2&#45;&gt;Node3</title>
<path fill="none" stroke="midnightblue" d="M241.678,-281.251C229.309,-244.572 202.32,-164.534 193.134,-137.293"/>
<polygon fill="midnightblue" stroke="midnightblue" points="238.37,-282.395 244.882,-290.753 245.003,-280.158 238.37,-282.395"/>
</g>
<!-- Node4 -->
<g id="node4" class="node"><title>Node4</title>
<g id="a_node4"><a xlink:href="_instr_strategy_8cc.html" target="_top" xlink:title="Definition of loom::InstrStrategy. ">
<polygon fill="none" stroke="black" points="-0.5,-59 -0.5,-79 110.5,-79 110.5,-59 -0.5,-59"/>
<text text-anchor="middle" x="55" y="-66.2" font-family="Avenir-Book" font-size="11.00">src/InstrStrategy.cc</text>
</a>
</g>
</g>
<!-- Node2&#45;&gt;Node4 -->
<g id="edge15" class="edge"><title>Node2&#45;&gt;Node4</title>
<path fill="none" stroke="midnightblue" d="M233.942,-283.246C195.916,-237.931 91.9329,-114.013 62.7233,-79.2039"/>
<polygon fill="midnightblue" stroke="midnightblue" points="231.325,-285.573 240.434,-290.984 236.687,-281.074 231.325,-285.573"/>
</g>
<!-- Node9 -->
<g id="node9" class="node"><title>Node9</title>
<g id="a_node9"><a xlink:href="_policy_8hh.html" target="_top" xlink:title="Definition of loom::Policy. ">
<polygon fill="none" stroke="black" points="257.5,-233 257.5,-253 336.5,-253 336.5,-233 257.5,-233"/>
<text text-anchor="middle" x="297" y="-240.2" font-family="Avenir-Book" font-size="11.00">src/Policy.hh</text>
</a>
</g>
</g>
<!-- Node2&#45;&gt;Node9 -->
<g id="edge8" class="edge"><title>Node2&#45;&gt;Node9</title>
<path fill="none" stroke="midnightblue" d="M262.775,-283.114C271.411,-273.244 281.973,-261.174 289.059,-253.075"/>
<polygon fill="midnightblue" stroke="midnightblue" points="260.042,-280.922 256.091,-290.753 265.31,-285.532 260.042,-280.922"/>
</g>
<!-- Node3&#45;&gt;Node4 -->
<g id="edge3" class="edge"><title>Node3&#45;&gt;Node4</title>
<path fill="none" stroke="midnightblue" d="M158.587,-112.969C133.553,-102.585 99.1399,-88.3099 76.9811,-79.1181"/>
<polygon fill="midnightblue" stroke="midnightblue" points="157.432,-116.279 168.009,-116.878 160.114,-109.813 157.432,-116.279"/>
</g>
<!-- Node5 -->
<g id="node5" class="node"><title>Node5</title>
<g id="a_node5"><a xlink:href="_instrumentation_8cc.html" target="_top" xlink:title="Definition of loom::Instrumentation. ">
<polygon fill="none" stroke="black" points="129,-59 129,-79 253,-79 253,-59 129,-59"/>
<text text-anchor="middle" x="191" y="-66.2" font-family="Avenir-Book" font-size="11.00">src/Instrumentation.cc</text>
</a>
</g>
</g>
<!-- Node3&#45;&gt;Node5 -->
<g id="edge4" class="edge"><title>Node3&#45;&gt;Node5</title>
<path fill="none" stroke="midnightblue" d="M190.345,-106.707C190.512,-97.3384 190.705,-86.5262 190.838,-79.0752"/>
<polygon fill="midnightblue" stroke="midnightblue" points="186.844,-106.692 190.165,-116.753 193.843,-106.817 186.844,-106.692"/>
</g>
<!-- Node6 -->
<g id="node6" class="node"><title>Node6</title>
<g id="a_node6"><a xlink:href="_instrumenter_8hh.html" target="_top" xlink:title="Declaration of loom::Instrumenter. ">
<polygon fill="none" stroke="black" points="364.5,-59 364.5,-79 475.5,-79 475.5,-59 364.5,-59"/>
<text text-anchor="middle" x="420" y="-66.2" font-family="Avenir-Book" font-size="11.00">src/Instrumenter.hh</text>
</a>
</g>
</g>
<!-- Node3&#45;&gt;Node6 -->
<g id="edge5" class="edge"><title>Node3&#45;&gt;Node6</title>
<path fill="none" stroke="midnightblue" d="M237.175,-114.514C280.291,-104.016 343.2,-88.6992 382.844,-79.0466"/>
<polygon fill="midnightblue" stroke="midnightblue" points="236.097,-111.174 227.209,-116.94 237.753,-117.975 236.097,-111.174"/>
</g>
<!-- Node6&#45;&gt;Node7 -->
<g id="edge6" class="edge"><title>Node6&#45;&gt;Node7</title>
<path fill="none" stroke="midnightblue" d="M425.764,-49.0115C428.629,-39.5738 431.959,-28.6072 434.245,-21.0752"/>
<polygon fill="midnightblue" stroke="midnightblue" points="422.363,-48.1672 422.807,-58.7527 429.061,-50.2006 422.363,-48.1672"/>
</g>
<!-- Node8 -->
<g id="node8" class="node"><title>Node8</title>
<g id="a_node8"><a xlink:href="_opt_pass_8cc.html" target="_top" xlink:title="Definition of Loom&#39;s LLVM opt pass. ">
<polygon fill="none" stroke="black" points="249,-1 249,-21 339,-21 339,-1 249,-1"/>
<text text-anchor="middle" x="294" y="-8.2" font-family="Avenir-Book" font-size="11.00">src/OptPass.cc</text>
</a>
</g>
</g>
<!-- Node6&#45;&gt;Node8 -->
<g id="edge7" class="edge"><title>Node6&#45;&gt;Node8</title>
<path fill="none" stroke="midnightblue" d="M390.059,-54.6927C366.749,-44.3328 335.014,-30.2285 314.516,-21.1181"/>
<polygon fill="midnightblue" stroke="midnightblue" points="388.916,-58.0149 399.475,-58.878 391.759,-51.6182 388.916,-58.0149"/>
</g>
<!-- Node9&#45;&gt;Node6 -->
<g id="edge13" class="edge"><title>Node9&#45;&gt;Node6</title>
<path fill="none" stroke="midnightblue" d="M321.823,-227.658C349.321,-210.283 392.48,-178.273 413,-138 422.698,-118.966 422.219,-93.0804 421.08,-79.3884"/>
<polygon fill="midnightblue" stroke="midnightblue" points="319.845,-224.765 313.153,-232.979 323.507,-230.731 319.845,-224.765"/>
</g>
<!-- Node10 -->
<g id="node10" class="node"><title>Node10</title>
<g id="a_node10"><a xlink:href="_policy_file_8hh.html" target="_top" xlink:title="Declaration of loom::PolicyFile. ">
<polygon fill="none" stroke="black" points="237.5,-175 237.5,-195 334.5,-195 334.5,-175 237.5,-175"/>
<text text-anchor="middle" x="286" y="-182.2" font-family="Avenir-Book" font-size="11.00">src/PolicyFile.hh</text>
</a>
</g>
</g>
<!-- Node9&#45;&gt;Node10 -->
<g id="edge9" class="edge"><title>Node9&#45;&gt;Node10</title>
<path fill="none" stroke="midnightblue" d="M293.21,-222.707C291.37,-213.338 289.246,-202.526 287.783,-195.075"/>
<polygon fill="midnightblue" stroke="midnightblue" points="289.822,-223.615 295.184,-232.753 296.69,-222.266 289.822,-223.615"/>
</g>
<!-- Node12 -->
<g id="node12" class="node"><title>Node12</title>
<g id="a_node12"><a xlink:href="_policy_8cc.html" target="_top" xlink:title="Definition of loom::Policy. ">
<polygon fill="none" stroke="black" points="455,-175 455,-195 533,-195 533,-175 455,-175"/>
<text text-anchor="middle" x="494" y="-182.2" font-family="Avenir-Book" font-size="11.00">src/Policy.cc</text>
</a>
</g>
</g>
<!-- Node9&#45;&gt;Node12 -->
<g id="edge14" class="edge"><title>Node9&#45;&gt;Node12</title>
<path fill="none" stroke="midnightblue" d="M339.044,-230.048C375.942,-219.56 428.796,-204.535 462.25,-195.025"/>
<polygon fill="midnightblue" stroke="midnightblue" points="337.752,-226.777 329.09,-232.878 339.666,-233.51 337.752,-226.777"/>
</g>
<!-- Node10&#45;&gt;Node3 -->
<g id="edge10" class="edge"><title>Node10&#45;&gt;Node3</title>
<path fill="none" stroke="midnightblue" d="M261.037,-169.438C243.487,-159.201 220.552,-145.822 205.557,-137.075"/>
<polygon fill="midnightblue" stroke="midnightblue" points="259.746,-172.737 270.148,-174.753 263.273,-166.691 259.746,-172.737"/>
</g>
<!-- Node10&#45;&gt;Node8 -->
<g id="edge11" class="edge"><title>Node10&#45;&gt;Node8</title>
<path fill="none" stroke="midnightblue" d="M286.916,-164.297C288.642,-127.202 292.312,-48.3002 293.568,-21.2932"/>
<polygon fill="midnightblue" stroke="midnightblue" points="283.399,-164.601 286.43,-174.753 290.391,-164.926 283.399,-164.601"/>
</g>
<!-- Node11 -->
<g id="node11" class="node"><title>Node11</title>
<g id="a_node11"><a xlink:href="_policy_file_8cc.html" target="_top" xlink:title="Definition of loom::PolicyFile. ">
<polygon fill="none" stroke="black" points="309.5,-117 309.5,-137 404.5,-137 404.5,-117 309.5,-117"/>
<text text-anchor="middle" x="357" y="-124.2" font-family="Avenir-Book" font-size="11.00">src/PolicyFile.cc</text>
</a>
</g>
</g>
<!-- Node10&#45;&gt;Node11 -->
<g id="edge12" class="edge"><title>Node10&#45;&gt;Node11</title>
<path fill="none" stroke="midnightblue" d="M305.921,-168.288C318.69,-158.216 334.815,-145.498 345.494,-137.075"/>
<polygon fill="midnightblue" stroke="midnightblue" points="303.408,-165.812 297.724,-174.753 307.743,-171.308 303.408,-165.812"/>
</g>
<!-- Node13&#45;&gt;Node12 -->
<g id="edge19" class="edge"><title>Node13&#45;&gt;Node12</title>
<path fill="none" stroke="midnightblue" d="M442.684,-286.3C419.267,-273.671 392.887,-253.65 406,-232 417.342,-213.273 439.088,-201.806 458.124,-195.004"/>
<polygon fill="midnightblue" stroke="midnightblue" points="441.256,-289.5 451.754,-290.925 444.436,-283.264 441.256,-289.5"/>
</g>
<!-- Node14 -->
<g id="node14" class="node"><title>Node14</title>
<g id="a_node14"><a xlink:href="_k_trace_logger_8cc.html" target="_top" xlink:title="Definition of loom::KTraceLogger. ">
<polygon fill="none" stroke="black" points="415,-233 415,-253 533,-253 533,-233 415,-233"/>
<text text-anchor="middle" x="474" y="-240.2" font-family="Avenir-Book" font-size="11.00">src/KTraceLogger.cc</text>
</a>
</g>
</g>
<!-- Node13&#45;&gt;Node14 -->
<g id="edge18" class="edge"><title>Node13&#45;&gt;Node14</title>
<path fill="none" stroke="midnightblue" d="M473.345,-280.707C473.512,-271.338 473.705,-260.526 473.838,-253.075"/>
<polygon fill="midnightblue" stroke="midnightblue" points="469.844,-280.692 473.165,-290.753 476.843,-280.817 469.844,-280.692"/>
</g>
</g>
</svg>
