<?xml version="1.0" encoding="UTF-8" standalone="no"?>
<!DOCTYPE svg PUBLIC "-//W3C//DTD SVG 1.1//EN"
 "http://www.w3.org/Graphics/SVG/1.1/DTD/svg11.dtd">
<!-- Generated by graphviz version 2.36.0 (20140111.2315)
 -->
<!-- Title: src/NVSerializer.hh Pages: 1 -->
<svg width="229pt" height="88pt"
 viewBox="0.00 0.00 229.00 88.00" xmlns="http://www.w3.org/2000/svg" xmlns:xlink="http://www.w3.org/1999/xlink">
<g id="graph0" class="graph" transform="scale(1 1) rotate(0) translate(4 84)">
<title>src/NVSerializer.hh</title>
<!-- Node1 -->
<g id="node1" class="node"><title>Node1</title>
<polygon fill="#bfbfbf" stroke="black" points="58.5,-59 58.5,-79 169.5,-79 169.5,-59 58.5,-59"/>
<text text-anchor="middle" x="114" y="-66.2" font-family="Avenir-Book" font-size="11.00">src/NVSerializer.hh</text>
</g>
<!-- Node2 -->
<g id="node2" class="node"><title>Node2</title>
<g id="a_node2"><a xlink:href="_n_v_serializer_8cc.html" target="_top" xlink:title="Definition of loom::NVSerializer. ">
<polygon fill="none" stroke="black" points="-0.5,-1 -0.5,-21 108.5,-21 108.5,-1 -0.5,-1"/>
<text text-anchor="middle" x="54" y="-8.2" font-family="Avenir-Book" font-size="11.00">src/NVSerializer.cc</text>
</a>
</g>
</g>
<!-- Node1&#45;&gt;Node2 -->
<g id="edge1" class="edge"><title>Node1&#45;&gt;Node2</title>
<path fill="none" stroke="midnightblue" d="M96.54,-51.704C85.852,-41.7286 72.5744,-29.3361 63.7234,-21.0752"/>
<polygon fill="midnightblue" stroke="midnightblue" points="94.3935,-54.4882 104.092,-58.7527 99.1698,-49.3708 94.3935,-54.4882"/>
</g>
<!-- Node3 -->
<g id="node3" class="node"><title>Node3</title>
<g id="a_node3"><a xlink:href="_policy_file_8cc.html" target="_top" xlink:title="Definition of loom::PolicyFile. ">
<polygon fill="none" stroke="black" points="126.5,-1 126.5,-21 221.5,-21 221.5,-1 126.5,-1"/>
<text text-anchor="middle" x="174" y="-8.2" font-family="Avenir-Book" font-size="11.00">src/PolicyFile.cc</text>
</a>
</g>
</g>
<!-- Node1&#45;&gt;Node3 -->
<g id="edge2" class="edge"><title>Node1&#45;&gt;Node3</title>
<path fill="none" stroke="midnightblue" d="M131.46,-51.704C142.148,-41.7286 155.426,-29.3361 164.277,-21.0752"/>
<polygon fill="midnightblue" stroke="midnightblue" points="128.83,-49.3708 123.908,-58.7527 133.606,-54.4882 128.83,-49.3708"/>
</g>
</g>
</svg>
