<?xml version="1.0" encoding="UTF-8" standalone="no"?>
<!DOCTYPE svg PUBLIC "-//W3C//DTD SVG 1.1//EN"
 "http://www.w3.org/Graphics/SVG/1.1/DTD/svg11.dtd">
<!-- Generated by graphviz version 2.36.0 (20140111.2315)
 -->
<!-- Title: src/NVSerializer.cc Pages: 1 -->
<svg width="646pt" height="204pt"
 viewBox="0.00 0.00 646.00 204.00" xmlns="http://www.w3.org/2000/svg" xmlns:xlink="http://www.w3.org/1999/xlink">
<g id="graph0" class="graph" transform="scale(1 1) rotate(0) translate(4 200)">
<title>src/NVSerializer.cc</title>
<!-- Node1 -->
<g id="node1" class="node"><title>Node1</title>
<polygon fill="#bfbfbf" stroke="black" points="288.5,-175 288.5,-195 397.5,-195 397.5,-175 288.5,-175"/>
<text text-anchor="middle" x="343" y="-182.2" font-family="Avenir-Book" font-size="11.00">src/NVSerializer.cc</text>
</g>
<!-- Node2 -->
<g id="node2" class="node"><title>Node2</title>
<g id="a_node2"><a xlink:href="_n_v_serializer_8hh.html" target="_top" xlink:title="Declaration of loom::NVSerializer. ">
<polygon fill="none" stroke="black" points="118.5,-117 118.5,-137 211.5,-137 211.5,-117 118.5,-117"/>
<text text-anchor="middle" x="165" y="-124.2" font-family="Avenir-Book" font-size="11.00">NVSerializer.hh</text>
</a>
</g>
</g>
<!-- Node1&#45;&gt;Node2 -->
<g id="edge1" class="edge"><title>Node1&#45;&gt;Node2</title>
<path fill="none" stroke="midnightblue" d="M314.005,-174.878C283.919,-165.413 236.708,-150.56 203.507,-140.115"/>
<polygon fill="midnightblue" stroke="midnightblue" points="204.277,-136.688 193.688,-137.025 202.176,-143.365 204.277,-136.688"/>
</g>
<!-- Node7 -->
<g id="node7" class="node"><title>Node7</title>
<polygon fill="none" stroke="#bfbfbf" points="230,-117 230,-137 328,-137 328,-117 230,-117"/>
<text text-anchor="middle" x="279" y="-124.2" font-family="Avenir-Book" font-size="11.00">llvm/IR/Module.h</text>
</g>
<!-- Node1&#45;&gt;Node7 -->
<g id="edge6" class="edge"><title>Node1&#45;&gt;Node7</title>
<path fill="none" stroke="midnightblue" d="M332.432,-174.753C322.832,-166.353 308.471,-153.787 297.054,-143.798"/>
<polygon fill="midnightblue" stroke="midnightblue" points="299.202,-141.026 289.372,-137.075 294.593,-146.294 299.202,-141.026"/>
</g>
<!-- Node8 -->
<g id="node8" class="node"><title>Node8</title>
<polygon fill="none" stroke="#bfbfbf" points="346.5,-117 346.5,-137 467.5,-137 467.5,-117 346.5,-117"/>
<text text-anchor="middle" x="407" y="-124.2" font-family="Avenir-Book" font-size="11.00">llvm/IR/TypeBuilder.h</text>
</g>
<!-- Node1&#45;&gt;Node8 -->
<g id="edge7" class="edge"><title>Node1&#45;&gt;Node8</title>
<path fill="none" stroke="midnightblue" d="M353.568,-174.753C363.168,-166.353 377.529,-153.787 388.946,-143.798"/>
<polygon fill="midnightblue" stroke="midnightblue" points="391.407,-146.294 396.628,-137.075 386.798,-141.026 391.407,-146.294"/>
</g>
<!-- Node9 -->
<g id="node9" class="node"><title>Node9</title>
<polygon fill="none" stroke="#bfbfbf" points="485.5,-117 485.5,-137 638.5,-137 638.5,-117 485.5,-117"/>
<text text-anchor="middle" x="562" y="-124.2" font-family="Avenir-Book" font-size="11.00">llvm/Support/raw_ostream.h</text>
</g>
<!-- Node1&#45;&gt;Node9 -->
<g id="edge8" class="edge"><title>Node1&#45;&gt;Node9</title>
<path fill="none" stroke="midnightblue" d="M378.674,-174.878C416.408,-165.229 476.036,-149.982 516.981,-139.512"/>
<polygon fill="midnightblue" stroke="midnightblue" points="517.883,-142.894 526.705,-137.025 516.149,-136.112 517.883,-142.894"/>
</g>
<!-- Node3 -->
<g id="node3" class="node"><title>Node3</title>
<g id="a_node3"><a xlink:href="_serializer_8hh.html" target="_top" xlink:title="Declaration of loom::Serializer. ">
<polygon fill="none" stroke="black" points="84,-59 84,-79 162,-79 162,-59 84,-59"/>
<text text-anchor="middle" x="123" y="-66.2" font-family="Avenir-Book" font-size="11.00">Serializer.hh</text>
</a>
</g>
</g>
<!-- Node2&#45;&gt;Node3 -->
<g id="edge2" class="edge"><title>Node2&#45;&gt;Node3</title>
<path fill="none" stroke="midnightblue" d="M158.065,-116.753C152.071,-108.761 143.248,-96.9975 135.952,-87.2698"/>
<polygon fill="midnightblue" stroke="midnightblue" points="138.606,-84.9752 129.806,-79.0752 133.006,-89.1752 138.606,-84.9752"/>
</g>
<!-- Node6 -->
<g id="node6" class="node"><title>Node6</title>
<polygon fill="none" stroke="#bfbfbf" points="180,-59 180,-79 236,-79 236,-59 180,-59"/>
<text text-anchor="middle" x="208" y="-66.2" font-family="Avenir-Book" font-size="11.00">memory</text>
</g>
<!-- Node2&#45;&gt;Node6 -->
<g id="edge5" class="edge"><title>Node2&#45;&gt;Node6</title>
<path fill="none" stroke="midnightblue" d="M172.101,-116.753C178.237,-108.761 187.27,-96.9975 194.739,-87.2698"/>
<polygon fill="midnightblue" stroke="midnightblue" points="197.717,-89.1383 201.032,-79.0752 192.165,-84.8751 197.717,-89.1383"/>
</g>
<!-- Node4 -->
<g id="node4" class="node"><title>Node4</title>
<polygon fill="none" stroke="#bfbfbf" points="-0.5,-1 -0.5,-21 116.5,-21 116.5,-1 -0.5,-1"/>
<text text-anchor="middle" x="58" y="-8.2" font-family="Avenir-Book" font-size="11.00">llvm/ADT/ArrayRef.h</text>
</g>
<!-- Node3&#45;&gt;Node4 -->
<g id="edge3" class="edge"><title>Node3&#45;&gt;Node4</title>
<path fill="none" stroke="midnightblue" d="M112.267,-58.7527C102.517,-50.3534 87.9317,-37.7874 76.3365,-27.7976"/>
<polygon fill="midnightblue" stroke="midnightblue" points="78.3943,-24.9507 68.5337,-21.0752 73.8253,-30.254 78.3943,-24.9507"/>
</g>
<!-- Node5 -->
<g id="node5" class="node"><title>Node5</title>
<polygon fill="none" stroke="#bfbfbf" points="135,-1 135,-21 243,-21 243,-1 135,-1"/>
<text text-anchor="middle" x="189" y="-8.2" font-family="Avenir-Book" font-size="11.00">llvm/IR/IRBuilder.h</text>
</g>
<!-- Node3&#45;&gt;Node5 -->
<g id="edge4" class="edge"><title>Node3&#45;&gt;Node5</title>
<path fill="none" stroke="midnightblue" d="M133.899,-58.7527C143.798,-50.3534 158.608,-37.7874 170.381,-27.7976"/>
<polygon fill="midnightblue" stroke="midnightblue" points="172.944,-30.2138 178.304,-21.0752 168.415,-24.8762 172.944,-30.2138"/>
</g>
</g>
</svg>
