<?xml version="1.0" encoding="UTF-8" standalone="no"?>
<!DOCTYPE svg PUBLIC "-//W3C//DTD SVG 1.1//EN"
 "http://www.w3.org/Graphics/SVG/1.1/DTD/svg11.dtd">
<!-- Generated by graphviz version 2.36.0 (20140111.2315)
 -->
<!-- Title: src/OptPass.cc Pages: 1 -->
<svg width="1282pt" height="494pt"
 viewBox="0.00 0.00 1282.00 494.00" xmlns="http://www.w3.org/2000/svg" xmlns:xlink="http://www.w3.org/1999/xlink">
<g id="graph0" class="graph" transform="scale(1 1) rotate(0) translate(4 490)">
<title>src/OptPass.cc</title>
<!-- Node1 -->
<g id="node1" class="node"><title>Node1</title>
<polygon fill="#bfbfbf" stroke="black" points="728,-465 728,-485 818,-485 818,-465 728,-465"/>
<text text-anchor="middle" x="773" y="-472.2" font-family="Avenir-Book" font-size="11.00">src/OptPass.cc</text>
</g>
<!-- Node2 -->
<g id="node2" class="node"><title>Node2</title>
<g id="a_node2"><a xlink:href="_debug_info_8hh.html" target="_top" xlink:title="Declaration of DebugInfo class. ">
<polygon fill="none" stroke="black" points="271.5,-407 271.5,-427 354.5,-427 354.5,-407 271.5,-407"/>
<text text-anchor="middle" x="313" y="-414.2" font-family="Avenir-Book" font-size="11.00">DebugInfo.hh</text>
</a>
</g>
</g>
<!-- Node1&#45;&gt;Node2 -->
<g id="edge1" class="edge"><title>Node1&#45;&gt;Node2</title>
<path fill="none" stroke="midnightblue" d="M727.635,-468.477C641.644,-458.009 455.435,-435.34 364.738,-424.299"/>
<polygon fill="midnightblue" stroke="midnightblue" points="365.039,-420.809 354.689,-423.075 364.193,-427.758 365.039,-420.809"/>
</g>
<!-- Node6 -->
<g id="node6" class="node"><title>Node6</title>
<polygon fill="none" stroke="#bfbfbf" points="387.5,-349 387.5,-369 540.5,-369 540.5,-349 387.5,-349"/>
<text text-anchor="middle" x="464" y="-356.2" font-family="Avenir-Book" font-size="11.00">llvm/Support/raw_ostream.h</text>
</g>
<!-- Node1&#45;&gt;Node6 -->
<g id="edge41" class="edge"><title>Node1&#45;&gt;Node6</title>
<path fill="none" stroke="midnightblue" d="M727.812,-470.207C682.447,-465.101 611.387,-453.51 555,-428 526.278,-415.006 497.946,-391.728 480.714,-376.074"/>
<polygon fill="midnightblue" stroke="midnightblue" points="482.9,-373.328 473.194,-369.081 478.133,-378.454 482.9,-373.328"/>
</g>
<!-- Node7 -->
<g id="node7" class="node"><title>Node7</title>
<g id="a_node7"><a xlink:href="_policy_file_8hh.html" target="_top" xlink:title="Declaration of loom::PolicyFile. ">
<polygon fill="none" stroke="black" points="661.5,-291 661.5,-311 740.5,-311 740.5,-291 661.5,-291"/>
<text text-anchor="middle" x="701" y="-298.2" font-family="Avenir-Book" font-size="11.00">PolicyFile.hh</text>
</a>
</g>
</g>
<!-- Node1&#45;&gt;Node7 -->
<g id="edge6" class="edge"><title>Node1&#45;&gt;Node7</title>
<path fill="none" stroke="midnightblue" d="M756.053,-464.888C743.081,-456.953 725.943,-444.189 717,-428 698.238,-394.037 697.709,-347.235 699.212,-321.289"/>
<polygon fill="midnightblue" stroke="midnightblue" points="702.707,-321.482 699.96,-311.249 695.727,-320.962 702.707,-321.482"/>
</g>
<!-- Node13 -->
<g id="node13" class="node"><title>Node13</title>
<g id="a_node13"><a xlink:href="_i_r_utils_8hh.html" target="_top" xlink:title="Declarations of LLVM IR utility functions. ">
<polygon fill="none" stroke="black" points="851,-59 851,-79 915,-79 915,-59 851,-59"/>
<text text-anchor="middle" x="883" y="-66.2" font-family="Avenir-Book" font-size="11.00">IRUtils.hh</text>
</a>
</g>
</g>
<!-- Node1&#45;&gt;Node13 -->
<g id="edge37" class="edge"><title>Node1&#45;&gt;Node13</title>
<path fill="none" stroke="midnightblue" d="M727.979,-468.853C667.903,-459.197 569,-432.319 569,-360 569,-360 569,-360 569,-242 569,-119.532 755.004,-83.6925 840.694,-73.6799"/>
<polygon fill="midnightblue" stroke="midnightblue" points="841.316,-77.1327 850.872,-72.5574 840.549,-70.1748 841.316,-77.1327"/>
</g>
<!-- Node20 -->
<g id="node20" class="node"><title>Node20</title>
<g id="a_node20"><a xlink:href="_instrumenter_8hh.html" target="_top" xlink:title="Declaration of loom::Instrumenter. ">
<polygon fill="none" stroke="black" points="726,-407 726,-427 820,-427 820,-407 726,-407"/>
<text text-anchor="middle" x="773" y="-414.2" font-family="Avenir-Book" font-size="11.00">Instrumenter.hh</text>
</a>
</g>
</g>
<!-- Node1&#45;&gt;Node20 -->
<g id="edge26" class="edge"><title>Node1&#45;&gt;Node20</title>
<path fill="none" stroke="midnightblue" d="M773,-464.753C773,-457.25 773,-446.424 773,-437.078"/>
<polygon fill="midnightblue" stroke="midnightblue" points="776.5,-437.075 773,-427.075 769.5,-437.075 776.5,-437.075"/>
</g>
<!-- Node24 -->
<g id="node24" class="node"><title>Node24</title>
<polygon fill="none" stroke="#bfbfbf" points="838.5,-407 838.5,-427 911.5,-427 911.5,-407 838.5,-407"/>
<text text-anchor="middle" x="875" y="-414.2" font-family="Avenir-Book" font-size="11.00">llvm/Pass.h</text>
</g>
<!-- Node1&#45;&gt;Node24 -->
<g id="edge38" class="edge"><title>Node1&#45;&gt;Node24</title>
<path fill="none" stroke="midnightblue" d="M789.843,-464.753C806.108,-455.823 830.949,-442.185 849.612,-431.939"/>
<polygon fill="midnightblue" stroke="midnightblue" points="851.389,-434.956 858.47,-427.075 848.02,-428.82 851.389,-434.956"/>
</g>
<!-- Node25 -->
<g id="node25" class="node"><title>Node25</title>
<polygon fill="none" stroke="#bfbfbf" points="930,-407 930,-427 1028,-427 1028,-407 930,-407"/>
<text text-anchor="middle" x="979" y="-414.2" font-family="Avenir-Book" font-size="11.00">llvm/IR/Module.h</text>
</g>
<!-- Node1&#45;&gt;Node25 -->
<g id="edge39" class="edge"><title>Node1&#45;&gt;Node25</title>
<path fill="none" stroke="midnightblue" d="M806.556,-464.878C841.825,-455.29 897.428,-440.175 935.918,-429.712"/>
<polygon fill="midnightblue" stroke="midnightblue" points="937.068,-433.026 945.8,-427.025 935.232,-426.271 937.068,-433.026"/>
</g>
<!-- Node26 -->
<g id="node26" class="node"><title>Node26</title>
<polygon fill="none" stroke="#bfbfbf" points="1046.5,-407 1046.5,-427 1161.5,-427 1161.5,-407 1046.5,-407"/>
<text text-anchor="middle" x="1104" y="-414.2" font-family="Avenir-Book" font-size="11.00">llvm/IR/InstIterator.h</text>
</g>
<!-- Node1&#45;&gt;Node26 -->
<g id="edge40" class="edge"><title>Node1&#45;&gt;Node26</title>
<path fill="none" stroke="midnightblue" d="M818.33,-466.331C875.892,-456.592 975.534,-439.734 1040.61,-428.725"/>
<polygon fill="midnightblue" stroke="midnightblue" points="1041.47,-432.13 1050.74,-427.01 1040.3,-425.228 1041.47,-432.13"/>
</g>
<!-- Node27 -->
<g id="node27" class="node"><title>Node27</title>
<polygon fill="none" stroke="#bfbfbf" points="1180,-407 1180,-427 1274,-427 1274,-407 1180,-407"/>
<text text-anchor="middle" x="1227" y="-414.2" font-family="Avenir-Book" font-size="11.00">unordered_map</text>
</g>
<!-- Node1&#45;&gt;Node27 -->
<g id="edge42" class="edge"><title>Node1&#45;&gt;Node27</title>
<path fill="none" stroke="midnightblue" d="M818.062,-469.643C890.007,-462.498 1035.48,-447.277 1169.7,-427.964"/>
<polygon fill="midnightblue" stroke="midnightblue" points="1170.36,-431.405 1179.76,-426.507 1169.36,-424.478 1170.36,-431.405"/>
</g>
<!-- Node3 -->
<g id="node3" class="node"><title>Node3</title>
<polygon fill="none" stroke="#bfbfbf" points="-0.5,-349 -0.5,-369 112.5,-369 112.5,-349 -0.5,-349"/>
<text text-anchor="middle" x="56" y="-356.2" font-family="Avenir-Book" font-size="11.00">llvm/IR/Instruction.h</text>
</g>
<!-- Node2&#45;&gt;Node3 -->
<g id="edge2" class="edge"><title>Node2&#45;&gt;Node3</title>
<path fill="none" stroke="midnightblue" d="M271.423,-406.94C226.727,-397.201 155.617,-381.706 107.434,-371.207"/>
<polygon fill="midnightblue" stroke="midnightblue" points="108.033,-367.756 97.5174,-369.047 106.543,-374.595 108.033,-367.756"/>
</g>
<!-- Node4 -->
<g id="node4" class="node"><title>Node4</title>
<polygon fill="none" stroke="#bfbfbf" points="131,-349 131,-369 239,-369 239,-349 131,-349"/>
<text text-anchor="middle" x="185" y="-356.2" font-family="Avenir-Book" font-size="11.00">llvm/IR/Metadata.h</text>
</g>
<!-- Node2&#45;&gt;Node4 -->
<g id="edge3" class="edge"><title>Node2&#45;&gt;Node4</title>
<path fill="none" stroke="midnightblue" d="M292.15,-406.878C271.23,-397.725 238.796,-383.536 215.09,-373.164"/>
<polygon fill="midnightblue" stroke="midnightblue" points="216.406,-369.92 205.841,-369.118 213.6,-376.333 216.406,-369.92"/>
</g>
<!-- Node5 -->
<g id="node5" class="node"><title>Node5</title>
<polygon fill="none" stroke="#bfbfbf" points="257,-349 257,-369 369,-369 369,-349 257,-349"/>
<text text-anchor="middle" x="313" y="-356.2" font-family="Avenir-Book" font-size="11.00">llvm/IR/ValueMap.h</text>
</g>
<!-- Node2&#45;&gt;Node5 -->
<g id="edge4" class="edge"><title>Node2&#45;&gt;Node5</title>
<path fill="none" stroke="midnightblue" d="M313,-406.753C313,-399.25 313,-388.424 313,-379.078"/>
<polygon fill="midnightblue" stroke="midnightblue" points="316.5,-379.075 313,-369.075 309.5,-379.075 316.5,-379.075"/>
</g>
<!-- Node2&#45;&gt;Node6 -->
<g id="edge5" class="edge"><title>Node2&#45;&gt;Node6</title>
<path fill="none" stroke="midnightblue" d="M337.597,-406.878C362.715,-397.563 401.902,-383.03 429.985,-372.615"/>
<polygon fill="midnightblue" stroke="midnightblue" points="431.255,-375.877 439.414,-369.118 428.821,-369.314 431.255,-375.877"/>
</g>
<!-- Node8 -->
<g id="node8" class="node"><title>Node8</title>
<g id="a_node8"><a xlink:href="_policy_8hh.html" target="_top" xlink:title="Definition of loom::Policy. ">
<polygon fill="none" stroke="black" points="742.5,-233 742.5,-253 803.5,-253 803.5,-233 742.5,-233"/>
<text text-anchor="middle" x="773" y="-240.2" font-family="Avenir-Book" font-size="11.00">Policy.hh</text>
</a>
</g>
</g>
<!-- Node7&#45;&gt;Node8 -->
<g id="edge7" class="edge"><title>Node7&#45;&gt;Node8</title>
<path fill="none" stroke="midnightblue" d="M712.889,-290.753C723.898,-282.19 740.474,-269.298 753.433,-259.219"/>
<polygon fill="midnightblue" stroke="midnightblue" points="755.587,-261.977 761.332,-253.075 751.29,-256.452 755.587,-261.977"/>
</g>
<!-- Node19 -->
<g id="node19" class="node"><title>Node19</title>
<polygon fill="none" stroke="#bfbfbf" points="597.5,-233 597.5,-253 724.5,-253 724.5,-233 597.5,-233"/>
<text text-anchor="middle" x="661" y="-240.2" font-family="Avenir-Book" font-size="11.00">llvm/Support/ErrorOr.h</text>
</g>
<!-- Node7&#45;&gt;Node19 -->
<g id="edge25" class="edge"><title>Node7&#45;&gt;Node19</title>
<path fill="none" stroke="midnightblue" d="M694.395,-290.753C688.687,-282.761 680.284,-270.998 673.336,-261.27"/>
<polygon fill="midnightblue" stroke="midnightblue" points="676.143,-259.178 667.482,-253.075 670.447,-263.247 676.143,-259.178"/>
</g>
<!-- Node9 -->
<g id="node9" class="node"><title>Node9</title>
<g id="a_node9"><a xlink:href="_instr_strategy_8hh.html" target="_top" xlink:title="Declaration of loom::InstrStrategy. ">
<polygon fill="none" stroke="black" points="898,-175 898,-195 992,-195 992,-175 898,-175"/>
<text text-anchor="middle" x="945" y="-182.2" font-family="Avenir-Book" font-size="11.00">InstrStrategy.hh</text>
</a>
</g>
</g>
<!-- Node8&#45;&gt;Node9 -->
<g id="edge8" class="edge"><title>Node8&#45;&gt;Node9</title>
<path fill="none" stroke="midnightblue" d="M801.018,-232.878C829.964,-223.453 875.316,-208.688 907.375,-198.25"/>
<polygon fill="midnightblue" stroke="midnightblue" points="908.854,-201.449 917.279,-195.025 906.687,-194.793 908.854,-201.449"/>
</g>
<!-- Node15 -->
<g id="node15" class="node"><title>Node15</title>
<polygon fill="none" stroke="#bfbfbf" points="695,-1 695,-21 741,-21 741,-1 695,-1"/>
<text text-anchor="middle" x="718" y="-8.2" font-family="Avenir-Book" font-size="11.00">vector</text>
</g>
<!-- Node8&#45;&gt;Node15 -->
<g id="edge24" class="edge"><title>Node8&#45;&gt;Node15</title>
<path fill="none" stroke="midnightblue" d="M742.463,-234.293C711.018,-225.667 665.205,-210.931 655,-196 617.764,-141.52 674.1,-62.9836 702.839,-28.8739"/>
<polygon fill="midnightblue" stroke="midnightblue" points="705.581,-31.0534 709.477,-21.2008 700.287,-26.4736 705.581,-31.0534"/>
</g>
<!-- Node17 -->
<g id="node17" class="node"><title>Node17</title>
<g id="a_node17"><a xlink:href="_serializer_8hh.html" target="_top" xlink:title="Declaration of loom::Serializer. ">
<polygon fill="none" stroke="black" points="726,-175 726,-195 804,-195 804,-175 726,-175"/>
<text text-anchor="middle" x="765" y="-182.2" font-family="Avenir-Book" font-size="11.00">Serializer.hh</text>
</a>
</g>
</g>
<!-- Node8&#45;&gt;Node17 -->
<g id="edge20" class="edge"><title>Node8&#45;&gt;Node17</title>
<path fill="none" stroke="midnightblue" d="M771.679,-232.753C770.607,-225.25 769.061,-214.424 767.725,-205.078"/>
<polygon fill="midnightblue" stroke="midnightblue" points="771.176,-204.48 766.296,-195.075 764.246,-205.47 771.176,-204.48"/>
</g>
<!-- Node18 -->
<g id="node18" class="node"><title>Node18</title>
<polygon fill="none" stroke="#bfbfbf" points="664.5,-175 664.5,-195 707.5,-195 707.5,-175 664.5,-175"/>
<text text-anchor="middle" x="686" y="-182.2" font-family="Avenir-Book" font-size="11.00">string</text>
</g>
<!-- Node8&#45;&gt;Node18 -->
<g id="edge23" class="edge"><title>Node8&#45;&gt;Node18</title>
<path fill="none" stroke="midnightblue" d="M758.634,-232.753C745.078,-224.027 724.536,-210.805 708.753,-200.646"/>
<polygon fill="midnightblue" stroke="midnightblue" points="710.402,-197.545 700.099,-195.075 706.613,-203.431 710.402,-197.545"/>
</g>
<!-- Node10 -->
<g id="node10" class="node"><title>Node10</title>
<polygon fill="none" stroke="#bfbfbf" points="971,-59 971,-79 1027,-79 1027,-59 971,-59"/>
<text text-anchor="middle" x="999" y="-66.2" font-family="Avenir-Book" font-size="11.00">memory</text>
</g>
<!-- Node9&#45;&gt;Node10 -->
<g id="edge9" class="edge"><title>Node9&#45;&gt;Node10</title>
<path fill="none" stroke="midnightblue" d="M961.535,-174.916C974.093,-166.996 990.447,-154.24 998,-138 1005.07,-122.795 1004.6,-103.53 1002.79,-89.391"/>
<polygon fill="midnightblue" stroke="midnightblue" points="1006.21,-88.6383 1001.16,-79.326 999.301,-89.7568 1006.21,-88.6383"/>
</g>
<!-- Node11 -->
<g id="node11" class="node"><title>Node11</title>
<polygon fill="none" stroke="#bfbfbf" points="749.5,-117 749.5,-137 866.5,-137 866.5,-117 749.5,-117"/>
<text text-anchor="middle" x="808" y="-124.2" font-family="Avenir-Book" font-size="11.00">llvm/ADT/ArrayRef.h</text>
</g>
<!-- Node9&#45;&gt;Node11 -->
<g id="edge10" class="edge"><title>Node9&#45;&gt;Node11</title>
<path fill="none" stroke="midnightblue" d="M922.684,-174.878C900.193,-165.685 865.27,-151.409 839.868,-141.026"/>
<polygon fill="midnightblue" stroke="midnightblue" points="840.888,-137.662 830.307,-137.118 838.239,-144.142 840.888,-137.662"/>
</g>
<!-- Node12 -->
<g id="node12" class="node"><title>Node12</title>
<polygon fill="none" stroke="#bfbfbf" points="995.5,-1 995.5,-21 1114.5,-21 1114.5,-1 995.5,-1"/>
<text text-anchor="middle" x="1055" y="-8.2" font-family="Avenir-Book" font-size="11.00">llvm/ADT/StringRef.h</text>
</g>
<!-- Node9&#45;&gt;Node12 -->
<g id="edge11" class="edge"><title>Node9&#45;&gt;Node12</title>
<path fill="none" stroke="midnightblue" d="M965.016,-174.926C980.302,-167.091 1000.9,-154.441 1014,-138 1039.46,-106.04 1049.33,-57.7714 1052.98,-31.2117"/>
<polygon fill="midnightblue" stroke="midnightblue" points="1056.46,-31.6194 1054.2,-21.269 1049.51,-30.7711 1056.46,-31.6194"/>
</g>
<!-- Node9&#45;&gt;Node13 -->
<g id="edge12" class="edge"><title>Node9&#45;&gt;Node13</title>
<path fill="none" stroke="midnightblue" d="M938.117,-174.775C931.499,-165.687 921.433,-151.277 914,-138 904.909,-121.761 896.273,-102.372 890.437,-88.4605"/>
<polygon fill="midnightblue" stroke="midnightblue" points="893.6,-86.9492 886.558,-79.0331 887.126,-89.6126 893.6,-86.9492"/>
</g>
<!-- Node16 -->
<g id="node16" class="node"><title>Node16</title>
<g id="a_node16"><a xlink:href="_logger_8hh.html" target="_top" xlink:title="Declaration of loom::Logger. ">
<polygon fill="none" stroke="black" points="923,-117 923,-137 989,-137 989,-117 923,-117"/>
<text text-anchor="middle" x="956" y="-124.2" font-family="Avenir-Book" font-size="11.00">Logger.hh</text>
</a>
</g>
</g>
<!-- Node9&#45;&gt;Node16 -->
<g id="edge16" class="edge"><title>Node9&#45;&gt;Node16</title>
<path fill="none" stroke="midnightblue" d="M946.816,-174.753C948.29,-167.25 950.417,-156.424 952.253,-147.078"/>
<polygon fill="midnightblue" stroke="midnightblue" points="955.724,-147.562 954.217,-137.075 948.855,-146.213 955.724,-147.562"/>
</g>
<!-- Node13&#45;&gt;Node12 -->
<g id="edge13" class="edge"><title>Node13&#45;&gt;Node12</title>
<path fill="none" stroke="midnightblue" d="M911.018,-58.878C939.964,-49.4534 985.316,-34.6878 1017.38,-24.2499"/>
<polygon fill="midnightblue" stroke="midnightblue" points="1018.85,-27.4493 1027.28,-21.0253 1016.69,-20.7932 1018.85,-27.4493"/>
</g>
<!-- Node14 -->
<g id="node14" class="node"><title>Node14</title>
<polygon fill="none" stroke="#bfbfbf" points="849,-1 849,-21 957,-21 957,-1 849,-1"/>
<text text-anchor="middle" x="903" y="-8.2" font-family="Avenir-Book" font-size="11.00">llvm/IR/IRBuilder.h</text>
</g>
<!-- Node13&#45;&gt;Node14 -->
<g id="edge14" class="edge"><title>Node13&#45;&gt;Node14</title>
<path fill="none" stroke="midnightblue" d="M886.303,-58.7527C889.011,-51.1689 892.933,-40.1881 896.295,-30.7739"/>
<polygon fill="midnightblue" stroke="midnightblue" points="899.692,-31.6698 899.759,-21.0752 893.099,-29.3154 899.692,-31.6698"/>
</g>
<!-- Node13&#45;&gt;Node15 -->
<g id="edge15" class="edge"><title>Node13&#45;&gt;Node15</title>
<path fill="none" stroke="midnightblue" d="M856.123,-58.878C827.408,-49.1322 781.864,-33.6751 750.995,-23.1982"/>
<polygon fill="midnightblue" stroke="midnightblue" points="751.728,-19.7512 741.134,-19.8515 749.479,-26.3798 751.728,-19.7512"/>
</g>
<!-- Node16&#45;&gt;Node10 -->
<g id="edge19" class="edge"><title>Node16&#45;&gt;Node10</title>
<path fill="none" stroke="midnightblue" d="M963.101,-116.753C969.237,-108.761 978.27,-96.9975 985.739,-87.2698"/>
<polygon fill="midnightblue" stroke="midnightblue" points="988.717,-89.1383 992.032,-79.0752 983.165,-84.8751 988.717,-89.1383"/>
</g>
<!-- Node16&#45;&gt;Node13 -->
<g id="edge17" class="edge"><title>Node16&#45;&gt;Node13</title>
<path fill="none" stroke="midnightblue" d="M943.946,-116.753C932.784,-108.19 915.977,-95.2978 902.839,-85.2186"/>
<polygon fill="midnightblue" stroke="midnightblue" points="904.895,-82.3848 894.83,-79.0752 900.634,-87.9388 904.895,-82.3848"/>
</g>
<!-- Node16&#45;&gt;Node14 -->
<g id="edge18" class="edge"><title>Node16&#45;&gt;Node14</title>
<path fill="none" stroke="midnightblue" d="M951.663,-116.671C942.923,-97.8729 923.055,-55.1364 911.591,-30.478"/>
<polygon fill="midnightblue" stroke="midnightblue" points="914.639,-28.7318 907.249,-21.1394 908.291,-31.6829 914.639,-28.7318"/>
</g>
<!-- Node17&#45;&gt;Node11 -->
<g id="edge21" class="edge"><title>Node17&#45;&gt;Node11</title>
<path fill="none" stroke="midnightblue" d="M772.101,-174.753C778.237,-166.761 787.27,-154.998 794.739,-145.27"/>
<polygon fill="midnightblue" stroke="midnightblue" points="797.717,-147.138 801.032,-137.075 792.165,-142.875 797.717,-147.138"/>
</g>
<!-- Node17&#45;&gt;Node14 -->
<g id="edge22" class="edge"><title>Node17&#45;&gt;Node14</title>
<path fill="none" stroke="midnightblue" d="M747.051,-174.874C725.247,-162.502 693.005,-139.27 707,-116 737.862,-64.687 803.509,-37.3445 850.319,-23.7815"/>
<polygon fill="midnightblue" stroke="midnightblue" points="851.304,-27.1406 860.003,-21.0928 849.431,-20.3958 851.304,-27.1406"/>
</g>
<!-- Node20&#45;&gt;Node8 -->
<g id="edge35" class="edge"><title>Node20&#45;&gt;Node8</title>
<path fill="none" stroke="midnightblue" d="M773,-406.753C773,-379.804 773,-300.908 773,-263.766"/>
<polygon fill="midnightblue" stroke="midnightblue" points="776.5,-263.293 773,-253.293 769.5,-263.293 776.5,-263.293"/>
</g>
<!-- Node21 -->
<g id="node21" class="node"><title>Node21</title>
<g id="a_node21"><a xlink:href="_instrumentation_8hh.html" target="_top" xlink:title="Declaration of loom::Instrumentation. ">
<polygon fill="none" stroke="black" points="816,-349 816,-369 924,-369 924,-349 816,-349"/>
<text text-anchor="middle" x="870" y="-356.2" font-family="Avenir-Book" font-size="11.00">Instrumentation.hh</text>
</a>
</g>
</g>
<!-- Node20&#45;&gt;Node21 -->
<g id="edge27" class="edge"><title>Node20&#45;&gt;Node21</title>
<path fill="none" stroke="midnightblue" d="M789.018,-406.753C804.414,-397.864 827.893,-384.309 845.613,-374.079"/>
<polygon fill="midnightblue" stroke="midnightblue" points="847.37,-377.106 854.28,-369.075 843.87,-371.044 847.37,-377.106"/>
</g>
<!-- Node23 -->
<g id="node23" class="node"><title>Node23</title>
<polygon fill="none" stroke="#bfbfbf" points="942,-349 942,-369 1006,-369 1006,-349 942,-349"/>
<text text-anchor="middle" x="974" y="-356.2" font-family="Avenir-Book" font-size="11.00">functional</text>
</g>
<!-- Node20&#45;&gt;Node23 -->
<g id="edge36" class="edge"><title>Node20&#45;&gt;Node23</title>
<path fill="none" stroke="midnightblue" d="M805.741,-406.878C840.257,-397.262 894.731,-382.085 932.298,-371.619"/>
<polygon fill="midnightblue" stroke="midnightblue" points="933.244,-374.988 941.937,-368.933 931.365,-368.245 933.244,-374.988"/>
</g>
<!-- Node21&#45;&gt;Node7 -->
<g id="edge30" class="edge"><title>Node21&#45;&gt;Node7</title>
<path fill="none" stroke="midnightblue" d="M842.471,-348.878C814.029,-339.453 769.468,-324.688 737.968,-314.25"/>
<polygon fill="midnightblue" stroke="midnightblue" points="738.83,-310.848 728.237,-311.025 736.629,-317.493 738.83,-310.848"/>
</g>
<!-- Node21&#45;&gt;Node9 -->
<g id="edge28" class="edge"><title>Node21&#45;&gt;Node9</title>
<path fill="none" stroke="midnightblue" d="M874.032,-348.753C885.885,-321.571 920.783,-241.538 936.797,-204.811"/>
<polygon fill="midnightblue" stroke="midnightblue" points="940.159,-205.859 940.948,-195.293 933.742,-203.061 940.159,-205.859"/>
</g>
<!-- Node21&#45;&gt;Node11 -->
<g id="edge31" class="edge"><title>Node21&#45;&gt;Node11</title>
<path fill="none" stroke="midnightblue" d="M870.548,-348.721C871.831,-320.914 873.1,-236.338 846,-174 841.23,-163.028 833.029,-152.593 825.464,-144.443"/>
<polygon fill="midnightblue" stroke="midnightblue" points="827.769,-141.796 818.262,-137.121 822.779,-146.705 827.769,-141.796"/>
</g>
<!-- Node21&#45;&gt;Node12 -->
<g id="edge32" class="edge"><title>Node21&#45;&gt;Node12</title>
<path fill="none" stroke="midnightblue" d="M924.201,-349.34C959.332,-342.36 1005.38,-330.584 1043,-312 1087.31,-290.106 1131,-293.427 1131,-244 1131,-244 1131,-244 1131,-126 1131,-85.3249 1097.09,-48.1244 1074.57,-27.9052"/>
<polygon fill="midnightblue" stroke="midnightblue" points="1076.73,-25.1429 1066.88,-21.2493 1072.15,-30.4378 1076.73,-25.1429"/>
</g>
<!-- Node21&#45;&gt;Node13 -->
<g id="edge29" class="edge"><title>Node21&#45;&gt;Node13</title>
<path fill="none" stroke="midnightblue" d="M869.63,-348.756C867.995,-319.58 859.243,-228.18 813,-174 789.515,-146.484 759.103,-168.72 740,-138 734.837,-129.697 734.241,-123.902 740,-116 762.8,-84.7157 807.236,-74.2452 840.553,-70.9694"/>
<polygon fill="midnightblue" stroke="midnightblue" points="841.248,-74.4252 850.938,-70.1414 840.691,-67.4474 841.248,-74.4252"/>
</g>
<!-- Node21&#45;&gt;Node14 -->
<g id="edge34" class="edge"><title>Node21&#45;&gt;Node14</title>
<path fill="none" stroke="midnightblue" d="M901.95,-348.888C963.612,-330.348 1093,-286.394 1093,-244 1093,-244 1093,-244 1093,-126 1093,-65.8506 1022.12,-36.6492 966.942,-23.0299"/>
<polygon fill="midnightblue" stroke="midnightblue" points="967.727,-19.6192 957.192,-20.7419 966.128,-26.434 967.727,-19.6192"/>
</g>
<!-- Node22 -->
<g id="node22" class="node"><title>Node22</title>
<polygon fill="none" stroke="#bfbfbf" points="1159.5,-291 1159.5,-311 1264.5,-311 1264.5,-291 1159.5,-291"/>
<text text-anchor="middle" x="1212" y="-298.2" font-family="Avenir-Book" font-size="11.00">llvm/IR/Function.h</text>
</g>
<!-- Node21&#45;&gt;Node22 -->
<g id="edge33" class="edge"><title>Node21&#45;&gt;Node22</title>
<path fill="none" stroke="midnightblue" d="M924.191,-349.127C985.425,-339.1 1084.94,-322.806 1149.43,-312.246"/>
<polygon fill="midnightblue" stroke="midnightblue" points="1150.16,-315.672 1159.47,-310.602 1149.03,-308.764 1150.16,-315.672"/>
</g>
</g>
</svg>
