<?xml version="1.0" encoding="UTF-8" standalone="no"?>
<!DOCTYPE svg PUBLIC "-//W3C//DTD SVG 1.1//EN"
 "http://www.w3.org/Graphics/SVG/1.1/DTD/svg11.dtd">
<!-- Generated by graphviz version 2.36.0 (20140111.2315)
 -->
<!-- Title: src/Policy.hh Pages: 1 -->
<svg width="435pt" height="262pt"
 viewBox="0.00 0.00 435.32 262.00" xmlns="http://www.w3.org/2000/svg" xmlns:xlink="http://www.w3.org/1999/xlink">
<g id="graph0" class="graph" transform="scale(1 1) rotate(0) translate(4 258)">
<title>src/Policy.hh</title>
<!-- Node1 -->
<g id="node1" class="node"><title>Node1</title>
<polygon fill="#bfbfbf" stroke="black" points="262.821,-233 262.821,-253 341.821,-253 341.821,-233 262.821,-233"/>
<text text-anchor="middle" x="302.321" y="-240.2" font-family="Avenir-Book" font-size="11.00">src/Policy.hh</text>
</g>
<!-- Node2 -->
<g id="node2" class="node"><title>Node2</title>
<g id="a_node2"><a xlink:href="_instr_strategy_8hh.html" target="_top" xlink:title="Declaration of loom::InstrStrategy. ">
<polygon fill="none" stroke="black" points="202.321,-175 202.321,-195 296.321,-195 296.321,-175 202.321,-175"/>
<text text-anchor="middle" x="249.321" y="-182.2" font-family="Avenir-Book" font-size="11.00">InstrStrategy.hh</text>
</a>
</g>
</g>
<!-- Node1&#45;&gt;Node2 -->
<g id="edge1" class="edge"><title>Node1&#45;&gt;Node2</title>
<path fill="none" stroke="midnightblue" d="M293.569,-232.753C285.774,-224.516 274.187,-212.274 264.826,-202.382"/>
<polygon fill="midnightblue" stroke="midnightblue" points="267.326,-199.932 257.91,-195.075 262.242,-204.744 267.326,-199.932"/>
</g>
<!-- Node8 -->
<g id="node8" class="node"><title>Node8</title>
<polygon fill="none" stroke="#bfbfbf" points="336.321,-1 336.321,-21 382.321,-21 382.321,-1 336.321,-1"/>
<text text-anchor="middle" x="359.321" y="-8.2" font-family="Avenir-Book" font-size="11.00">vector</text>
</g>
<!-- Node1&#45;&gt;Node8 -->
<g id="edge17" class="edge"><title>Node1&#45;&gt;Node8</title>
<path fill="none" stroke="midnightblue" d="M304.556,-232.984C312.978,-198.998 342.919,-78.1856 354.603,-31.0397"/>
<polygon fill="midnightblue" stroke="midnightblue" points="358.032,-31.7522 357.04,-21.2039 351.237,-30.0683 358.032,-31.7522"/>
</g>
<!-- Node10 -->
<g id="node10" class="node"><title>Node10</title>
<g id="a_node10"><a xlink:href="_serializer_8hh.html" target="_top" xlink:title="Declaration of loom::Serializer. ">
<polygon fill="none" stroke="black" points="32.3212,-175 32.3212,-195 110.321,-195 110.321,-175 32.3212,-175"/>
<text text-anchor="middle" x="71.3212" y="-182.2" font-family="Avenir-Book" font-size="11.00">Serializer.hh</text>
</a>
</g>
</g>
<!-- Node1&#45;&gt;Node10 -->
<g id="edge13" class="edge"><title>Node1&#45;&gt;Node10</title>
<path fill="none" stroke="midnightblue" d="M264.95,-232.94C225.028,-223.262 161.662,-207.901 118.369,-197.406"/>
<polygon fill="midnightblue" stroke="midnightblue" points="119.181,-194.001 108.638,-195.047 117.532,-200.804 119.181,-194.001"/>
</g>
<!-- Node11 -->
<g id="node11" class="node"><title>Node11</title>
<polygon fill="none" stroke="#bfbfbf" points="384.821,-175 384.821,-195 427.821,-195 427.821,-175 384.821,-175"/>
<text text-anchor="middle" x="406.321" y="-182.2" font-family="Avenir-Book" font-size="11.00">string</text>
</g>
<!-- Node1&#45;&gt;Node11 -->
<g id="edge16" class="edge"><title>Node1&#45;&gt;Node11</title>
<path fill="none" stroke="midnightblue" d="M319.495,-232.753C336.078,-223.823 361.407,-210.185 380.435,-199.939"/>
<polygon fill="midnightblue" stroke="midnightblue" points="382.322,-202.898 389.467,-195.075 379.003,-196.735 382.322,-202.898"/>
</g>
<!-- Node3 -->
<g id="node3" class="node"><title>Node3</title>
<polygon fill="none" stroke="#bfbfbf" points="114.321,-59 114.321,-79 170.321,-79 170.321,-59 114.321,-59"/>
<text text-anchor="middle" x="142.321" y="-66.2" font-family="Avenir-Book" font-size="11.00">memory</text>
</g>
<!-- Node2&#45;&gt;Node3 -->
<g id="edge2" class="edge"><title>Node2&#45;&gt;Node3</title>
<path fill="none" stroke="midnightblue" d="M229.264,-174.851C213.566,-166.894 192.005,-154.12 177.321,-138 164.227,-123.625 154.66,-103.442 148.87,-88.8015"/>
<polygon fill="midnightblue" stroke="midnightblue" points="152.095,-87.4324 145.325,-79.2827 145.535,-89.8754 152.095,-87.4324"/>
</g>
<!-- Node4 -->
<g id="node4" class="node"><title>Node4</title>
<polygon fill="none" stroke="#bfbfbf" points="12.8212,-117 12.8212,-137 129.821,-137 129.821,-117 12.8212,-117"/>
<text text-anchor="middle" x="71.3212" y="-124.2" font-family="Avenir-Book" font-size="11.00">llvm/ADT/ArrayRef.h</text>
</g>
<!-- Node2&#45;&gt;Node4 -->
<g id="edge3" class="edge"><title>Node2&#45;&gt;Node4</title>
<path fill="none" stroke="midnightblue" d="M220.326,-174.878C190.24,-165.413 143.029,-150.56 109.828,-140.115"/>
<polygon fill="midnightblue" stroke="midnightblue" points="110.598,-136.688 100.009,-137.025 108.497,-143.365 110.598,-136.688"/>
</g>
<!-- Node5 -->
<g id="node5" class="node"><title>Node5</title>
<polygon fill="none" stroke="#bfbfbf" points="198.821,-1 198.821,-21 317.821,-21 317.821,-1 198.821,-1"/>
<text text-anchor="middle" x="258.321" y="-8.2" font-family="Avenir-Book" font-size="11.00">llvm/ADT/StringRef.h</text>
</g>
<!-- Node2&#45;&gt;Node5 -->
<g id="edge4" class="edge"><title>Node2&#45;&gt;Node5</title>
<path fill="none" stroke="midnightblue" d="M255.78,-174.834C267.587,-157.391 292.103,-117.782 299.321,-80 301.156,-70.3959 302.802,-67.1372 299.321,-58 294.934,-46.4847 286.194,-36.0191 277.907,-27.9899"/>
<polygon fill="midnightblue" stroke="midnightblue" points="280.025,-25.1866 270.257,-21.0835 275.334,-30.3825 280.025,-25.1866"/>
</g>
<!-- Node6 -->
<g id="node6" class="node"><title>Node6</title>
<g id="a_node6"><a xlink:href="_i_r_utils_8hh.html" target="_top" xlink:title="Declarations of LLVM IR utility functions. ">
<polygon fill="none" stroke="black" points="226.321,-59 226.321,-79 290.321,-79 290.321,-59 226.321,-59"/>
<text text-anchor="middle" x="258.321" y="-66.2" font-family="Avenir-Book" font-size="11.00">IRUtils.hh</text>
</a>
</g>
</g>
<!-- Node2&#45;&gt;Node6 -->
<g id="edge5" class="edge"><title>Node2&#45;&gt;Node6</title>
<path fill="none" stroke="midnightblue" d="M252.409,-174.971C255.373,-165.792 259.641,-151.098 261.321,-138 263.412,-121.701 262.346,-103.044 260.936,-89.4004"/>
<polygon fill="midnightblue" stroke="midnightblue" points="264.389,-88.7974 259.732,-79.2809 257.438,-89.6243 264.389,-88.7974"/>
</g>
<!-- Node9 -->
<g id="node9" class="node"><title>Node9</title>
<g id="a_node9"><a xlink:href="_logger_8hh.html" target="_top" xlink:title="Declaration of loom::Logger. ">
<polygon fill="none" stroke="black" points="186.321,-117 186.321,-137 252.321,-137 252.321,-117 186.321,-117"/>
<text text-anchor="middle" x="219.321" y="-124.2" font-family="Avenir-Book" font-size="11.00">Logger.hh</text>
</a>
</g>
</g>
<!-- Node2&#45;&gt;Node9 -->
<g id="edge9" class="edge"><title>Node2&#45;&gt;Node9</title>
<path fill="none" stroke="midnightblue" d="M244.367,-174.753C240.217,-167.006 234.168,-155.714 229.054,-146.169"/>
<polygon fill="midnightblue" stroke="midnightblue" points="231.99,-144.237 224.183,-137.075 225.82,-147.543 231.99,-144.237"/>
</g>
<!-- Node6&#45;&gt;Node5 -->
<g id="edge6" class="edge"><title>Node6&#45;&gt;Node5</title>
<path fill="none" stroke="midnightblue" d="M258.321,-58.7527C258.321,-51.2504 258.321,-40.4238 258.321,-31.0781"/>
<polygon fill="midnightblue" stroke="midnightblue" points="261.821,-31.0752 258.321,-21.0752 254.821,-31.0752 261.821,-31.0752"/>
</g>
<!-- Node7 -->
<g id="node7" class="node"><title>Node7</title>
<polygon fill="none" stroke="#bfbfbf" points="72.3212,-1 72.3212,-21 180.321,-21 180.321,-1 72.3212,-1"/>
<text text-anchor="middle" x="126.321" y="-8.2" font-family="Avenir-Book" font-size="11.00">llvm/IR/IRBuilder.h</text>
</g>
<!-- Node6&#45;&gt;Node7 -->
<g id="edge7" class="edge"><title>Node6&#45;&gt;Node7</title>
<path fill="none" stroke="midnightblue" d="M236.819,-58.878C215.15,-49.6848 181.501,-35.4095 157.026,-25.0263"/>
<polygon fill="midnightblue" stroke="midnightblue" points="158.387,-21.8016 147.814,-21.1181 155.653,-28.2457 158.387,-21.8016"/>
</g>
<!-- Node6&#45;&gt;Node8 -->
<g id="edge8" class="edge"><title>Node6&#45;&gt;Node8</title>
<path fill="none" stroke="midnightblue" d="M274.999,-58.7527C291.104,-49.8233 315.702,-36.1848 334.182,-25.9388"/>
<polygon fill="midnightblue" stroke="midnightblue" points="335.905,-28.9853 342.953,-21.0752 332.511,-22.8633 335.905,-28.9853"/>
</g>
<!-- Node9&#45;&gt;Node3 -->
<g id="edge12" class="edge"><title>Node9&#45;&gt;Node3</title>
<path fill="none" stroke="midnightblue" d="M206.606,-116.753C194.833,-108.19 177.106,-95.2978 163.247,-85.2186"/>
<polygon fill="midnightblue" stroke="midnightblue" points="164.946,-82.1264 154.8,-79.0752 160.828,-87.7875 164.946,-82.1264"/>
</g>
<!-- Node9&#45;&gt;Node6 -->
<g id="edge10" class="edge"><title>Node9&#45;&gt;Node6</title>
<path fill="none" stroke="midnightblue" d="M225.761,-116.753C231.27,-108.843 239.352,-97.2372 246.086,-87.5683"/>
<polygon fill="midnightblue" stroke="midnightblue" points="249.158,-89.2815 252.001,-79.0752 243.414,-85.281 249.158,-89.2815"/>
</g>
<!-- Node9&#45;&gt;Node7 -->
<g id="edge11" class="edge"><title>Node9&#45;&gt;Node7</title>
<path fill="none" stroke="midnightblue" d="M215.007,-116.59C208.458,-102.872 195.087,-76.9535 179.321,-58 169.947,-46.7307 157.678,-35.8938 147.305,-27.5718"/>
<polygon fill="midnightblue" stroke="midnightblue" points="149.184,-24.5993 139.143,-21.2187 144.885,-30.1231 149.184,-24.5993"/>
</g>
<!-- Node10&#45;&gt;Node4 -->
<g id="edge14" class="edge"><title>Node10&#45;&gt;Node4</title>
<path fill="none" stroke="midnightblue" d="M71.3212,-174.753C71.3212,-167.25 71.3212,-156.424 71.3212,-147.078"/>
<polygon fill="midnightblue" stroke="midnightblue" points="74.8213,-147.075 71.3212,-137.075 67.8213,-147.075 74.8213,-147.075"/>
</g>
<!-- Node10&#45;&gt;Node7 -->
<g id="edge15" class="edge"><title>Node10&#45;&gt;Node7</title>
<path fill="none" stroke="midnightblue" d="M47.5142,-174.923C31.8596,-167.557 12.6104,-155.499 3.32119,-138 -1.26339,-129.364 -0.794412,-124.869 3.32119,-116 22.7578,-74.1126 68.2964,-42.9916 98.1767,-26.1757"/>
<polygon fill="midnightblue" stroke="midnightblue" points="100.165,-29.0782 107.275,-21.2231 96.8185,-22.9301 100.165,-29.0782"/>
</g>
</g>
</svg>
