<?xml version="1.0" encoding="UTF-8" standalone="no"?>
<!DOCTYPE svg PUBLIC "-//W3C//DTD SVG 1.1//EN"
 "http://www.w3.org/Graphics/SVG/1.1/DTD/svg11.dtd">
<!-- Generated by graphviz version 2.36.0 (20140111.2315)
 -->
<!-- Title: src/PolicyFile.cc Pages: 1 -->
<!--zoomable 378 -->
<svg id="main" version="1.1" xmlns="http://www.w3.org/2000/svg" xmlns:xlink="http://www.w3.org/1999/xlink" xml:space="preserve" onload="init(evt)">
<style type="text/css"><![CDATA[
.edge:hover path { stroke: red; }
.edge:hover polygon { stroke: red; fill: red; }
]]></style>
<script type="text/javascript"><![CDATA[
var edges = document.getElementsByTagName('g');
if (edges && edges.length) {
  for (var i=0;i<edges.length;i++) {
    if (edges[i].id.substr(0,4)=='edge') {
      edges[i].setAttribute('class','edge');
    }
  }
}
]]></script>
        <defs>
                <circle id="rim" cx="0" cy="0" r="7"/>
                <circle id="rim2" cx="0" cy="0" r="3.5"/>
                <g id="zoomPlus">
                        <use xlink:href="#rim" fill="#404040">
                                <set attributeName="fill" to="#808080" begin="zoomplus.mouseover" end="zoomplus.mouseout"/>
                        </use>
                        <path d="M-4,0h8M0,-4v8" fill="none" stroke="white" stroke-width="1.5" pointer-events="none"/>
                </g>
                <g id="zoomMin">
                        <use xlink:href="#rim" fill="#404040">
                                <set attributeName="fill" to="#808080" begin="zoomminus.mouseover" end="zoomminus.mouseout"/>
                        </use>
                        <path d="M-4,0h8" fill="none" stroke="white" stroke-width="1.5" pointer-events="none"/>
                </g>
                <g id="dirArrow">
                        <path fill="none" stroke="white" stroke-width="1.5" d="M0,-3.0v7 M-2.5,-0.5L0,-3.0L2.5,-0.5"/>
                </g>
               <g id="resetDef">
                       <use xlink:href="#rim2" fill="#404040">
                               <set attributeName="fill" to="#808080" begin="reset.mouseover" end="reset.mouseout"/>
                       </use>
               </g>
        </defs>

<script type="text/javascript">
var viewWidth = 1127;
var viewHeight = 378;
var sectionId = 'dynsection-0';
</script>
<script xlink:href="svgpan.js"/>
<svg id="graph" class="graph">
<g id="viewport">
<title>src/PolicyFile.cc</title>
<!-- Node1 -->
<g id="node1" class="node"><title>Node1</title>
<polygon fill="#bfbfbf" stroke="black" points="441.744,-349 441.744,-369 536.744,-369 536.744,-349 441.744,-349"/>
<text text-anchor="middle" x="489.244" y="-356.2" font-family="Avenir-Book" font-size="11.00">src/PolicyFile.cc</text>
</g>
<!-- Node2 -->
<g id="node2" class="node"><title>Node2</title>
<g id="a_node2"><a xlink:href="_n_v_serializer_8hh.html" target="_top" xlink:title="Declaration of loom::NVSerializer. ">
<polygon fill="none" stroke="black" points="29.7444,-233 29.7444,-253 122.744,-253 122.744,-233 29.7444,-233"/>
<text text-anchor="middle" x="76.2444" y="-240.2" font-family="Avenir-Book" font-size="11.00">NVSerializer.hh</text>
</a>
</g>
</g>
<!-- Node1&#45;&gt;Node2 -->
<g id="edge1" class="edge"><title>Node1&#45;&gt;Node2</title>
<path fill="none" stroke="midnightblue" d="M441.372,-352.909C388.966,-346.545 302.857,-333.755 231.244,-312 184.308,-297.741 132.677,-273.164 102.431,-257.788"/>
<polygon fill="midnightblue" stroke="midnightblue" points="103.89,-254.602 93.3956,-253.144 100.69,-260.828 103.89,-254.602"/>
</g>
<!-- Node7 -->
<g id="node7" class="node"><title>Node7</title>
<g id="a_node7"><a xlink:href="_policy_file_8hh.html" target="_top" xlink:title="Declaration of loom::PolicyFile. ">
<polygon fill="none" stroke="black" points="240.744,-291 240.744,-311 319.744,-311 319.744,-291 240.744,-291"/>
<text text-anchor="middle" x="280.244" y="-298.2" font-family="Avenir-Book" font-size="11.00">PolicyFile.hh</text>
</a>
</g>
</g>
<!-- Node1&#45;&gt;Node7 -->
<g id="edge6" class="edge"><title>Node1&#45;&gt;Node7</title>
<path fill="none" stroke="midnightblue" d="M455.2,-348.878C419.417,-339.29 363.004,-324.175 323.954,-313.712"/>
<polygon fill="midnightblue" stroke="midnightblue" points="324.493,-310.233 313.928,-311.025 322.682,-316.994 324.493,-310.233"/>
</g>
<!-- Node16 -->
<g id="node16" class="node"><title>Node16</title>
<g id="a_node16"><a xlink:href="_strings_8hh.html" target="_top" xlink:title="Declaration of string manipulation functions. ">
<polygon fill="none" stroke="black" points="418.244,-233 418.244,-253 484.244,-253 484.244,-233 418.244,-233"/>
<text text-anchor="middle" x="451.244" y="-240.2" font-family="Avenir-Book" font-size="11.00">Strings.hh</text>
</a>
</g>
</g>
<!-- Node1&#45;&gt;Node16 -->
<g id="edge24" class="edge"><title>Node1&#45;&gt;Node16</title>
<path fill="none" stroke="midnightblue" d="M441.532,-353.065C414.943,-347.597 383.92,-336.109 367.244,-312 350.92,-288.398 384.085,-268.726 413.432,-256.712"/>
<polygon fill="midnightblue" stroke="midnightblue" points="414.706,-259.972 422.758,-253.086 412.169,-253.448 414.706,-259.972"/>
</g>
<!-- Node17 -->
<g id="node17" class="node"><title>Node17</title>
<polygon fill="none" stroke="#bfbfbf" points="376.744,-291 376.744,-311 481.744,-311 481.744,-291 376.744,-291"/>
<text text-anchor="middle" x="429.244" y="-298.2" font-family="Avenir-Book" font-size="11.00">llvm/IR/Function.h</text>
</g>
<!-- Node1&#45;&gt;Node17 -->
<g id="edge27" class="edge"><title>Node1&#45;&gt;Node17</title>
<path fill="none" stroke="midnightblue" d="M479.337,-348.753C470.425,-340.435 457.135,-328.031 446.483,-318.089"/>
<polygon fill="midnightblue" stroke="midnightblue" points="448.666,-315.34 438.968,-311.075 443.89,-320.457 448.666,-315.34"/>
</g>
<!-- Node18 -->
<g id="node18" class="node"><title>Node18</title>
<polygon fill="none" stroke="#bfbfbf" points="500.244,-291 500.244,-311 598.244,-311 598.244,-291 500.244,-291"/>
<text text-anchor="middle" x="549.244" y="-298.2" font-family="Avenir-Book" font-size="11.00">llvm/IR/Module.h</text>
</g>
<!-- Node1&#45;&gt;Node18 -->
<g id="edge28" class="edge"><title>Node1&#45;&gt;Node18</title>
<path fill="none" stroke="midnightblue" d="M499.152,-348.753C508.064,-340.435 521.354,-328.031 532.006,-318.089"/>
<polygon fill="midnightblue" stroke="midnightblue" points="534.598,-320.457 539.521,-311.075 529.822,-315.34 534.598,-320.457"/>
</g>
<!-- Node19 -->
<g id="node19" class="node"><title>Node19</title>
<polygon fill="none" stroke="#bfbfbf" points="616.744,-291 616.744,-311 777.744,-311 777.744,-291 616.744,-291"/>
<text text-anchor="middle" x="697.244" y="-298.2" font-family="Avenir-Book" font-size="11.00">llvm/Support/CommandLine.h</text>
</g>
<!-- Node1&#45;&gt;Node19 -->
<g id="edge29" class="edge"><title>Node1&#45;&gt;Node19</title>
<path fill="none" stroke="midnightblue" d="M523.126,-348.878C558.738,-339.29 614.881,-324.175 653.744,-313.712"/>
<polygon fill="midnightblue" stroke="midnightblue" points="654.976,-317.005 663.722,-311.025 653.156,-310.245 654.976,-317.005"/>
</g>
<!-- Node20 -->
<g id="node20" class="node"><title>Node20</title>
<polygon fill="none" stroke="#bfbfbf" points="795.744,-291 795.744,-311 954.744,-311 954.744,-291 795.744,-291"/>
<text text-anchor="middle" x="875.244" y="-298.2" font-family="Avenir-Book" font-size="11.00">llvm/Support/MemoryBuffer.h</text>
</g>
<!-- Node1&#45;&gt;Node20 -->
<g id="edge30" class="edge"><title>Node1&#45;&gt;Node20</title>
<path fill="none" stroke="midnightblue" d="M536.963,-351.077C603.562,-341.415 724.944,-323.805 802.756,-312.516"/>
<polygon fill="midnightblue" stroke="midnightblue" points="803.571,-315.935 812.965,-311.035 802.566,-309.007 803.571,-315.935"/>
</g>
<!-- Node21 -->
<g id="node21" class="node"><title>Node21</title>
<polygon fill="none" stroke="#bfbfbf" points="972.744,-291 972.744,-311 1119.74,-311 1119.74,-291 972.744,-291"/>
<text text-anchor="middle" x="1046.24" y="-298.2" font-family="Avenir-Book" font-size="11.00">llvm/Support/YAMLTraits.h</text>
</g>
<!-- Node1&#45;&gt;Node21 -->
<g id="edge31" class="edge"><title>Node1&#45;&gt;Node21</title>
<path fill="none" stroke="midnightblue" d="M537.051,-353.73C620.843,-346.164 799.946,-329.635 962.313,-312.08"/>
<polygon fill="midnightblue" stroke="midnightblue" points="962.924,-315.534 972.488,-310.976 962.169,-308.575 962.924,-315.534"/>
</g>
<!-- Node3 -->
<g id="node3" class="node"><title>Node3</title>
<g id="a_node3"><a xlink:href="_serializer_8hh.html" target="_top" xlink:title="Declaration of loom::Serializer. ">
<polygon fill="none" stroke="black" points="37.2444,-175 37.2444,-195 115.244,-195 115.244,-175 37.2444,-175"/>
<text text-anchor="middle" x="76.2444" y="-182.2" font-family="Avenir-Book" font-size="11.00">Serializer.hh</text>
</a>
</g>
</g>
<!-- Node2&#45;&gt;Node3 -->
<g id="edge2" class="edge"><title>Node2&#45;&gt;Node3</title>
<path fill="none" stroke="midnightblue" d="M76.2444,-232.753C76.2444,-225.25 76.2444,-214.424 76.2444,-205.078"/>
<polygon fill="midnightblue" stroke="midnightblue" points="79.7445,-205.075 76.2444,-195.075 72.7445,-205.075 79.7445,-205.075"/>
</g>
<!-- Node6 -->
<g id="node6" class="node"><title>Node6</title>
<polygon fill="none" stroke="#bfbfbf" points="119.244,-59 119.244,-79 175.244,-79 175.244,-59 119.244,-59"/>
<text text-anchor="middle" x="147.244" y="-66.2" font-family="Avenir-Book" font-size="11.00">memory</text>
</g>
<!-- Node2&#45;&gt;Node6 -->
<g id="edge5" class="edge"><title>Node2&#45;&gt;Node6</title>
<path fill="none" stroke="midnightblue" d="M64.519,-232.979C38.178,-211.621 -21.159,-156.702 8.24436,-116 31.0106,-84.4853 76.1891,-74.208 108.873,-71.0405"/>
<polygon fill="midnightblue" stroke="midnightblue" points="109.307,-74.5173 119.001,-70.2441 108.758,-67.5389 109.307,-74.5173"/>
</g>
<!-- Node4 -->
<g id="node4" class="node"><title>Node4</title>
<polygon fill="none" stroke="#bfbfbf" points="17.7444,-117 17.7444,-137 134.744,-137 134.744,-117 17.7444,-117"/>
<text text-anchor="middle" x="76.2444" y="-124.2" font-family="Avenir-Book" font-size="11.00">llvm/ADT/ArrayRef.h</text>
</g>
<!-- Node3&#45;&gt;Node4 -->
<g id="edge3" class="edge"><title>Node3&#45;&gt;Node4</title>
<path fill="none" stroke="midnightblue" d="M76.2444,-174.753C76.2444,-167.25 76.2444,-156.424 76.2444,-147.078"/>
<polygon fill="midnightblue" stroke="midnightblue" points="79.7445,-147.075 76.2444,-137.075 72.7445,-147.075 79.7445,-147.075"/>
</g>
<!-- Node5 -->
<g id="node5" class="node"><title>Node5</title>
<polygon fill="none" stroke="#bfbfbf" points="107.244,-1 107.244,-21 215.244,-21 215.244,-1 107.244,-1"/>
<text text-anchor="middle" x="161.244" y="-8.2" font-family="Avenir-Book" font-size="11.00">llvm/IR/IRBuilder.h</text>
</g>
<!-- Node3&#45;&gt;Node5 -->
<g id="edge4" class="edge"><title>Node3&#45;&gt;Node5</title>
<path fill="none" stroke="midnightblue" d="M54.3147,-174.833C29.7143,-163.096 -5.11357,-141.232 8.24436,-116 32.7993,-69.6185 88.3401,-40.0762 125.308,-24.7726"/>
<polygon fill="midnightblue" stroke="midnightblue" points="126.748,-27.9665 134.738,-21.0092 124.153,-21.4651 126.748,-27.9665"/>
</g>
<!-- Node8 -->
<g id="node8" class="node"><title>Node8</title>
<g id="a_node8"><a xlink:href="_policy_8hh.html" target="_top" xlink:title="Definition of loom::Policy. ">
<polygon fill="none" stroke="black" points="193.744,-233 193.744,-253 254.744,-253 254.744,-233 193.744,-233"/>
<text text-anchor="middle" x="224.244" y="-240.2" font-family="Avenir-Book" font-size="11.00">Policy.hh</text>
</a>
</g>
</g>
<!-- Node7&#45;&gt;Node8 -->
<g id="edge7" class="edge"><title>Node7&#45;&gt;Node8</title>
<path fill="none" stroke="midnightblue" d="M270.997,-290.753C262.761,-282.516 250.518,-270.274 240.627,-260.382"/>
<polygon fill="midnightblue" stroke="midnightblue" points="242.866,-257.671 233.32,-253.075 237.916,-262.621 242.866,-257.671"/>
</g>
<!-- Node15 -->
<g id="node15" class="node"><title>Node15</title>
<polygon fill="none" stroke="#bfbfbf" points="272.744,-233 272.744,-253 399.744,-253 399.744,-233 272.744,-233"/>
<text text-anchor="middle" x="336.244" y="-240.2" font-family="Avenir-Book" font-size="11.00">llvm/Support/ErrorOr.h</text>
</g>
<!-- Node7&#45;&gt;Node15 -->
<g id="edge23" class="edge"><title>Node7&#45;&gt;Node15</title>
<path fill="none" stroke="midnightblue" d="M289.492,-290.753C297.728,-282.516 309.971,-270.274 319.862,-260.382"/>
<polygon fill="midnightblue" stroke="midnightblue" points="322.573,-262.621 327.169,-253.075 317.623,-257.671 322.573,-262.621"/>
</g>
<!-- Node8&#45;&gt;Node3 -->
<g id="edge20" class="edge"><title>Node8&#45;&gt;Node3</title>
<path fill="none" stroke="midnightblue" d="M200.136,-232.878C175.625,-223.603 137.443,-209.156 109.945,-198.752"/>
<polygon fill="midnightblue" stroke="midnightblue" points="110.934,-195.384 100.342,-195.118 108.456,-201.931 110.934,-195.384"/>
</g>
<!-- Node9 -->
<g id="node9" class="node"><title>Node9</title>
<g id="a_node9"><a xlink:href="_instr_strategy_8hh.html" target="_top" xlink:title="Declaration of loom::InstrStrategy. ">
<polygon fill="none" stroke="black" points="177.244,-175 177.244,-195 271.244,-195 271.244,-175 177.244,-175"/>
<text text-anchor="middle" x="224.244" y="-182.2" font-family="Avenir-Book" font-size="11.00">InstrStrategy.hh</text>
</a>
</g>
</g>
<!-- Node8&#45;&gt;Node9 -->
<g id="edge8" class="edge"><title>Node8&#45;&gt;Node9</title>
<path fill="none" stroke="midnightblue" d="M224.244,-232.753C224.244,-225.25 224.244,-214.424 224.244,-205.078"/>
<polygon fill="midnightblue" stroke="midnightblue" points="227.744,-205.075 224.244,-195.075 220.744,-205.075 227.744,-205.075"/>
</g>
<!-- Node12 -->
<g id="node12" class="node"><title>Node12</title>
<polygon fill="none" stroke="#bfbfbf" points="371.244,-1 371.244,-21 417.244,-21 417.244,-1 371.244,-1"/>
<text text-anchor="middle" x="394.244" y="-8.2" font-family="Avenir-Book" font-size="11.00">vector</text>
</g>
<!-- Node8&#45;&gt;Node12 -->
<g id="edge22" class="edge"><title>Node8&#45;&gt;Node12</title>
<path fill="none" stroke="midnightblue" d="M237.753,-232.856C249.811,-224.265 267.484,-210.581 280.244,-196 327.791,-141.669 368.18,-65.2527 385.375,-30.5017"/>
<polygon fill="midnightblue" stroke="midnightblue" points="388.71,-31.6473 389.949,-21.1251 382.419,-28.5783 388.71,-31.6473"/>
</g>
<!-- Node14 -->
<g id="node14" class="node"><title>Node14</title>
<polygon fill="none" stroke="#bfbfbf" points="389.744,-175 389.744,-195 432.744,-195 432.744,-175 389.744,-175"/>
<text text-anchor="middle" x="411.244" y="-182.2" font-family="Avenir-Book" font-size="11.00">string</text>
</g>
<!-- Node8&#45;&gt;Node14 -->
<g id="edge21" class="edge"><title>Node8&#45;&gt;Node14</title>
<path fill="none" stroke="midnightblue" d="M254.705,-232.878C289.181,-222.554 345.059,-205.82 379.897,-195.388"/>
<polygon fill="midnightblue" stroke="midnightblue" points="380.982,-198.716 389.557,-192.494 378.974,-192.01 380.982,-198.716"/>
</g>
<!-- Node9&#45;&gt;Node4 -->
<g id="edge10" class="edge"><title>Node9&#45;&gt;Node4</title>
<path fill="none" stroke="midnightblue" d="M200.136,-174.878C175.625,-165.603 137.443,-151.156 109.945,-140.752"/>
<polygon fill="midnightblue" stroke="midnightblue" points="110.934,-137.384 100.342,-137.118 108.456,-143.931 110.934,-137.384"/>
</g>
<!-- Node9&#45;&gt;Node6 -->
<g id="edge9" class="edge"><title>Node9&#45;&gt;Node6</title>
<path fill="none" stroke="midnightblue" d="M214.434,-174.767C205.366,-165.902 191.876,-151.85 182.244,-138 171.264,-122.211 161.505,-102.52 155.1,-88.3973"/>
<polygon fill="midnightblue" stroke="midnightblue" points="158.296,-86.9712 151.059,-79.2331 151.891,-89.7952 158.296,-86.9712"/>
</g>
<!-- Node10 -->
<g id="node10" class="node"><title>Node10</title>
<polygon fill="none" stroke="#bfbfbf" points="233.744,-1 233.744,-21 352.744,-21 352.744,-1 233.744,-1"/>
<text text-anchor="middle" x="293.244" y="-8.2" font-family="Avenir-Book" font-size="11.00">llvm/ADT/StringRef.h</text>
</g>
<!-- Node9&#45;&gt;Node10 -->
<g id="edge11" class="edge"><title>Node9&#45;&gt;Node10</title>
<path fill="none" stroke="midnightblue" d="M240.326,-174.98C253.509,-166.849 271.798,-153.766 283.244,-138 304.841,-108.253 308.549,-94.5073 304.244,-58 303.175,-48.9278 300.957,-39.0535 298.792,-30.7874"/>
<polygon fill="midnightblue" stroke="midnightblue" points="302.134,-29.7421 296.076,-21.0502 295.391,-31.6229 302.134,-29.7421"/>
</g>
<!-- Node11 -->
<g id="node11" class="node"><title>Node11</title>
<g id="a_node11"><a xlink:href="_i_r_utils_8hh.html" target="_top" xlink:title="Declarations of LLVM IR utility functions. ">
<polygon fill="none" stroke="black" points="231.244,-59 231.244,-79 295.244,-79 295.244,-59 231.244,-59"/>
<text text-anchor="middle" x="263.244" y="-66.2" font-family="Avenir-Book" font-size="11.00">IRUtils.hh</text>
</a>
</g>
</g>
<!-- Node9&#45;&gt;Node11 -->
<g id="edge12" class="edge"><title>Node9&#45;&gt;Node11</title>
<path fill="none" stroke="midnightblue" d="M236.464,-174.981C246.608,-166.669 260.3,-153.325 266.244,-138 272.313,-122.352 270.725,-103.136 268.107,-89.1277"/>
<polygon fill="midnightblue" stroke="midnightblue" points="271.485,-88.1898 265.914,-79.1776 264.649,-89.6965 271.485,-88.1898"/>
</g>
<!-- Node13 -->
<g id="node13" class="node"><title>Node13</title>
<g id="a_node13"><a xlink:href="_logger_8hh.html" target="_top" xlink:title="Declaration of loom::Logger. ">
<polygon fill="none" stroke="black" points="191.244,-117 191.244,-137 257.244,-137 257.244,-117 191.244,-117"/>
<text text-anchor="middle" x="224.244" y="-124.2" font-family="Avenir-Book" font-size="11.00">Logger.hh</text>
</a>
</g>
</g>
<!-- Node9&#45;&gt;Node13 -->
<g id="edge16" class="edge"><title>Node9&#45;&gt;Node13</title>
<path fill="none" stroke="midnightblue" d="M224.244,-174.753C224.244,-167.25 224.244,-156.424 224.244,-147.078"/>
<polygon fill="midnightblue" stroke="midnightblue" points="227.744,-147.075 224.244,-137.075 220.744,-147.075 227.744,-147.075"/>
</g>
<!-- Node11&#45;&gt;Node5 -->
<g id="edge14" class="edge"><title>Node11&#45;&gt;Node5</title>
<path fill="none" stroke="midnightblue" d="M246.401,-58.7527C230.137,-49.8233 205.295,-36.1848 186.633,-25.9388"/>
<polygon fill="midnightblue" stroke="midnightblue" points="188.224,-22.8198 177.774,-21.0752 184.856,-28.9559 188.224,-22.8198"/>
</g>
<!-- Node11&#45;&gt;Node10 -->
<g id="edge13" class="edge"><title>Node11&#45;&gt;Node10</title>
<path fill="none" stroke="midnightblue" d="M268.198,-58.7527C272.348,-51.0058 278.397,-39.7142 283.511,-30.1688"/>
<polygon fill="midnightblue" stroke="midnightblue" points="286.746,-31.5428 288.383,-21.0752 280.575,-28.2372 286.746,-31.5428"/>
</g>
<!-- Node11&#45;&gt;Node12 -->
<g id="edge15" class="edge"><title>Node11&#45;&gt;Node12</title>
<path fill="none" stroke="midnightblue" d="M284.583,-58.878C305.994,-49.7255 339.188,-35.5357 363.449,-25.1643"/>
<polygon fill="midnightblue" stroke="midnightblue" points="365.095,-28.2672 372.915,-21.1181 362.344,-21.8306 365.095,-28.2672"/>
</g>
<!-- Node13&#45;&gt;Node5 -->
<g id="edge18" class="edge"><title>Node13&#45;&gt;Node5</title>
<path fill="none" stroke="midnightblue" d="M219.089,-116.671C208.654,-97.789 184.872,-54.7543 171.274,-30.1488"/>
<polygon fill="midnightblue" stroke="midnightblue" points="174.195,-28.1989 166.295,-21.1394 168.069,-31.5847 174.195,-28.1989"/>
</g>
<!-- Node13&#45;&gt;Node6 -->
<g id="edge19" class="edge"><title>Node13&#45;&gt;Node6</title>
<path fill="none" stroke="midnightblue" d="M211.529,-116.753C199.756,-108.19 182.029,-95.2978 168.17,-85.2186"/>
<polygon fill="midnightblue" stroke="midnightblue" points="169.869,-82.1264 159.723,-79.0752 165.752,-87.7875 169.869,-82.1264"/>
</g>
<!-- Node13&#45;&gt;Node11 -->
<g id="edge17" class="edge"><title>Node13&#45;&gt;Node11</title>
<path fill="none" stroke="midnightblue" d="M230.684,-116.753C236.193,-108.843 244.276,-97.2372 251.009,-87.5683"/>
<polygon fill="midnightblue" stroke="midnightblue" points="254.081,-89.2815 256.924,-79.0752 248.337,-85.281 254.081,-89.2815"/>
</g>
<!-- Node16&#45;&gt;Node12 -->
<g id="edge26" class="edge"><title>Node16&#45;&gt;Node12</title>
<path fill="none" stroke="midnightblue" d="M450.282,-232.689C448.83,-219.523 445.759,-194.755 441.244,-174 429.769,-121.245 410.446,-60.4565 400.53,-30.5654"/>
<polygon fill="midnightblue" stroke="midnightblue" points="403.829,-29.3938 397.335,-21.0229 397.191,-31.6167 403.829,-29.3938"/>
</g>
<!-- Node16&#45;&gt;Node14 -->
<g id="edge25" class="edge"><title>Node16&#45;&gt;Node14</title>
<path fill="none" stroke="midnightblue" d="M444.639,-232.753C438.931,-224.761 430.528,-212.998 423.58,-203.27"/>
<polygon fill="midnightblue" stroke="midnightblue" points="426.387,-201.178 417.727,-195.075 420.691,-205.247 426.387,-201.178"/>
</g>
</g>
</svg>
        <g id="navigator" transform="translate(0 0)" fill="#404254">
                <rect fill="#f2f5e9" fill-opacity="0.5" stroke="#606060" stroke-width=".5" x="0" y="0" width="60" height="60"/>
                <use id="zoomplus" xlink:href="#zoomPlus" x="17" y="9" onmousedown="handleZoom(evt,'in')"/>
                <use id="zoomminus" xlink:href="#zoomMin" x="42" y="9" onmousedown="handleZoom(evt,'out')"/>
                <use id="reset" xlink:href="#resetDef" x="30" y="36" onmousedown="handleReset()"/>
                <g id="arrowUp" xlink:href="#dirArrow" transform="translate(30 24)" onmousedown="handlePan(0,-1)">
                  <use xlink:href="#rim" fill="#404040">
                        <set attributeName="fill" to="#808080" begin="arrowUp.mouseover" end="arrowUp.mouseout"/>
                  </use>
                  <path fill="none" stroke="white" stroke-width="1.5" d="M0,-3.0v7 M-2.5,-0.5L0,-3.0L2.5,-0.5"/>
                </g>
                <g id="arrowRight" xlink:href="#dirArrow" transform="rotate(90) translate(36 -43)" onmousedown="handlePan(1,0)">
                  <use xlink:href="#rim" fill="#404040">
                        <set attributeName="fill" to="#808080" begin="arrowRight.mouseover" end="arrowRight.mouseout"/>
                  </use>
                  <path fill="none" stroke="white" stroke-width="1.5" d="M0,-3.0v7 M-2.5,-0.5L0,-3.0L2.5,-0.5"/>
                </g>
                <g id="arrowDown" xlink:href="#dirArrow" transform="rotate(180) translate(-30 -48)" onmousedown="handlePan(0,1)">
                  <use xlink:href="#rim" fill="#404040">
                        <set attributeName="fill" to="#808080" begin="arrowDown.mouseover" end="arrowDown.mouseout"/>
                  </use>
                  <path fill="none" stroke="white" stroke-width="1.5" d="M0,-3.0v7 M-2.5,-0.5L0,-3.0L2.5,-0.5"/>
                </g>
                <g id="arrowLeft" xlink:href="#dirArrow" transform="rotate(270) translate(-36 17)" onmousedown="handlePan(-1,0)">
                  <use xlink:href="#rim" fill="#404040">
                        <set attributeName="fill" to="#808080" begin="arrowLeft.mouseover" end="arrowLeft.mouseout"/>
                  </use>
                  <path fill="none" stroke="white" stroke-width="1.5" d="M0,-3.0v7 M-2.5,-0.5L0,-3.0L2.5,-0.5"/>
                </g>
        </g>
        <svg viewBox="0 0 15 15" width="100%" height="30px" preserveAspectRatio="xMaxYMin meet">
         <g id="arrow_out" transform="scale(0.3 0.3)">
          <a xlink:href="_policy_file_8cc__incl_org.svg" target="_base">
           <rect id="button" ry="5" rx="5" y="6" x="6" height="38" width="38"
                fill="#f2f5e9" fill-opacity="0.5" stroke="#606060" stroke-width="1.0"/>
           <path id="arrow"
             d="M 11.500037,31.436501 C 11.940474,20.09759 22.043105,11.32322 32.158766,21.979434 L 37.068811,17.246167 C 37.068811,17.246167 37.088388,32 37.088388,32 L 22.160133,31.978069 C 22.160133,31.978069 26.997745,27.140456 26.997745,27.140456 C 18.528582,18.264221 13.291696,25.230495 11.500037,31.436501 z"
             style="fill:#404040;"/>
          </a>
         </g>
        </svg>
</svg>
