<?xml version="1.0" encoding="UTF-8" standalone="no"?>
<!DOCTYPE svg PUBLIC "-//W3C//DTD SVG 1.1//EN"
 "http://www.w3.org/Graphics/SVG/1.1/DTD/svg11.dtd">
<!-- Generated by graphviz version 2.36.0 (20140111.2315)
 -->
<!-- Title: src/Policy.cc Pages: 1 -->
<svg width="378pt" height="320pt"
 viewBox="0.00 0.00 378.00 320.00" xmlns="http://www.w3.org/2000/svg" xmlns:xlink="http://www.w3.org/1999/xlink">
<g id="graph0" class="graph" transform="scale(1 1) rotate(0) translate(4 316)">
<title>src/Policy.cc</title>
<!-- Node1 -->
<g id="node1" class="node"><title>Node1</title>
<polygon fill="#bfbfbf" stroke="black" points="171,-291 171,-311 249,-311 249,-291 171,-291"/>
<text text-anchor="middle" x="210" y="-298.2" font-family="Avenir-Book" font-size="11.00">src/Policy.cc</text>
</g>
<!-- Node2 -->
<g id="node2" class="node"><title>Node2</title>
<g id="a_node2"><a xlink:href="_k_trace_logger_8hh.html" target="_top" xlink:title="Declaration of loom::KTraceLogger. ">
<polygon fill="none" stroke="black" points="227,-233 227,-253 329,-253 329,-233 227,-233"/>
<text text-anchor="middle" x="278" y="-240.2" font-family="Avenir-Book" font-size="11.00">KTraceLogger.hh</text>
</a>
</g>
</g>
<!-- Node1&#45;&gt;Node2 -->
<g id="edge1" class="edge"><title>Node1&#45;&gt;Node2</title>
<path fill="none" stroke="midnightblue" d="M221.229,-290.753C231.527,-282.272 246.984,-269.543 259.17,-259.507"/>
<polygon fill="midnightblue" stroke="midnightblue" points="261.486,-262.134 266.98,-253.075 257.036,-256.731 261.486,-262.134"/>
</g>
<!-- Node9 -->
<g id="node9" class="node"><title>Node9</title>
<g id="a_node9"><a xlink:href="_policy_8hh.html" target="_top" xlink:title="Definition of loom::Policy. ">
<polygon fill="none" stroke="black" points="111.5,-233 111.5,-253 172.5,-253 172.5,-233 111.5,-233"/>
<text text-anchor="middle" x="142" y="-240.2" font-family="Avenir-Book" font-size="11.00">Policy.hh</text>
</a>
</g>
</g>
<!-- Node1&#45;&gt;Node9 -->
<g id="edge9" class="edge"><title>Node1&#45;&gt;Node9</title>
<path fill="none" stroke="midnightblue" d="M198.771,-290.753C188.473,-282.272 173.016,-269.543 160.83,-259.507"/>
<polygon fill="midnightblue" stroke="midnightblue" points="162.964,-256.731 153.02,-253.075 158.514,-262.134 162.964,-256.731"/>
</g>
<!-- Node3 -->
<g id="node3" class="node"><title>Node3</title>
<g id="a_node3"><a xlink:href="_logger_8hh.html" target="_top" xlink:title="Declaration of loom::Logger. ">
<polygon fill="none" stroke="black" points="283,-117 283,-137 349,-137 349,-117 283,-117"/>
<text text-anchor="middle" x="316" y="-124.2" font-family="Avenir-Book" font-size="11.00">Logger.hh</text>
</a>
</g>
</g>
<!-- Node2&#45;&gt;Node3 -->
<g id="edge2" class="edge"><title>Node2&#45;&gt;Node3</title>
<path fill="none" stroke="midnightblue" d="M281.246,-232.856C284.521,-223.588 289.695,-208.826 294,-196 299.545,-179.478 305.628,-160.617 309.989,-146.956"/>
<polygon fill="midnightblue" stroke="midnightblue" points="313.378,-147.85 313.075,-137.26 306.707,-145.728 313.378,-147.85"/>
</g>
<!-- Node4 -->
<g id="node4" class="node"><title>Node4</title>
<g id="a_node4"><a xlink:href="_i_r_utils_8hh.html" target="_top" xlink:title="Declarations of LLVM IR utility functions. ">
<polygon fill="none" stroke="black" points="145,-59 145,-79 209,-79 209,-59 145,-59"/>
<text text-anchor="middle" x="177" y="-66.2" font-family="Avenir-Book" font-size="11.00">IRUtils.hh</text>
</a>
</g>
</g>
<!-- Node3&#45;&gt;Node4 -->
<g id="edge3" class="edge"><title>Node3&#45;&gt;Node4</title>
<path fill="none" stroke="midnightblue" d="M293.358,-116.878C270.438,-107.644 234.792,-93.283 208.992,-82.8887"/>
<polygon fill="midnightblue" stroke="midnightblue" points="210.216,-79.6086 199.632,-79.1181 207.6,-86.1015 210.216,-79.6086"/>
</g>
<!-- Node6 -->
<g id="node6" class="node"><title>Node6</title>
<polygon fill="none" stroke="#bfbfbf" points="262,-1 262,-21 370,-21 370,-1 262,-1"/>
<text text-anchor="middle" x="316" y="-8.2" font-family="Avenir-Book" font-size="11.00">llvm/IR/IRBuilder.h</text>
</g>
<!-- Node3&#45;&gt;Node6 -->
<g id="edge7" class="edge"><title>Node3&#45;&gt;Node6</title>
<path fill="none" stroke="midnightblue" d="M316,-116.671C316,-98.0407 316,-55.8976 316,-31.1428"/>
<polygon fill="midnightblue" stroke="midnightblue" points="319.5,-31.1394 316,-21.1394 312.5,-31.1394 319.5,-31.1394"/>
</g>
<!-- Node8 -->
<g id="node8" class="node"><title>Node8</title>
<polygon fill="none" stroke="#bfbfbf" points="71,-59 71,-79 127,-79 127,-59 71,-59"/>
<text text-anchor="middle" x="99" y="-66.2" font-family="Avenir-Book" font-size="11.00">memory</text>
</g>
<!-- Node3&#45;&gt;Node8 -->
<g id="edge8" class="edge"><title>Node3&#45;&gt;Node8</title>
<path fill="none" stroke="midnightblue" d="M282.789,-117.658C248.619,-109.044 193.595,-95.0828 137.089,-80.2635"/>
<polygon fill="midnightblue" stroke="midnightblue" points="137.832,-76.84 127.271,-77.6838 136.053,-83.6102 137.832,-76.84"/>
</g>
<!-- Node5 -->
<g id="node5" class="node"><title>Node5</title>
<polygon fill="none" stroke="#bfbfbf" points="82.5,-1 82.5,-21 201.5,-21 201.5,-1 82.5,-1"/>
<text text-anchor="middle" x="142" y="-8.2" font-family="Avenir-Book" font-size="11.00">llvm/ADT/StringRef.h</text>
</g>
<!-- Node4&#45;&gt;Node5 -->
<g id="edge4" class="edge"><title>Node4&#45;&gt;Node5</title>
<path fill="none" stroke="midnightblue" d="M171.22,-58.7527C166.277,-50.8427 159.023,-39.2372 152.98,-29.5683"/>
<polygon fill="midnightblue" stroke="midnightblue" points="155.94,-27.7002 147.672,-21.0752 150.004,-31.4102 155.94,-27.7002"/>
</g>
<!-- Node4&#45;&gt;Node6 -->
<g id="edge5" class="edge"><title>Node4&#45;&gt;Node6</title>
<path fill="none" stroke="midnightblue" d="M199.642,-58.878C222.562,-49.6441 258.208,-35.283 284.008,-24.8887"/>
<polygon fill="midnightblue" stroke="midnightblue" points="285.4,-28.1015 293.368,-21.1181 282.784,-21.6086 285.4,-28.1015"/>
</g>
<!-- Node7 -->
<g id="node7" class="node"><title>Node7</title>
<polygon fill="none" stroke="#bfbfbf" points="0,-1 0,-21 46,-21 46,-1 0,-1"/>
<text text-anchor="middle" x="23" y="-8.2" font-family="Avenir-Book" font-size="11.00">vector</text>
</g>
<!-- Node4&#45;&gt;Node7 -->
<g id="edge6" class="edge"><title>Node4&#45;&gt;Node7</title>
<path fill="none" stroke="midnightblue" d="M151.914,-58.878C125.688,-49.341 84.4201,-34.3346 55.6647,-23.8781"/>
<polygon fill="midnightblue" stroke="midnightblue" points="56.6546,-20.5139 46.0606,-20.3857 54.2624,-27.0924 56.6546,-20.5139"/>
</g>
<!-- Node9&#45;&gt;Node7 -->
<g id="edge20" class="edge"><title>Node9&#45;&gt;Node7</title>
<path fill="none" stroke="midnightblue" d="M111.482,-239.446C83.5069,-235.303 43.5562,-224.447 24,-196 -10.9329,-145.186 6.24643,-66.3874 16.8112,-30.6975"/>
<polygon fill="midnightblue" stroke="midnightblue" points="20.1733,-31.6727 19.8126,-21.084 13.4914,-29.5866 20.1733,-31.6727"/>
</g>
<!-- Node10 -->
<g id="node10" class="node"><title>Node10</title>
<g id="a_node10"><a xlink:href="_instr_strategy_8hh.html" target="_top" xlink:title="Declaration of loom::InstrStrategy. ">
<polygon fill="none" stroke="black" points="95,-175 95,-195 189,-195 189,-175 95,-175"/>
<text text-anchor="middle" x="142" y="-182.2" font-family="Avenir-Book" font-size="11.00">InstrStrategy.hh</text>
</a>
</g>
</g>
<!-- Node9&#45;&gt;Node10 -->
<g id="edge10" class="edge"><title>Node9&#45;&gt;Node10</title>
<path fill="none" stroke="midnightblue" d="M142,-232.753C142,-225.25 142,-214.424 142,-205.078"/>
<polygon fill="midnightblue" stroke="midnightblue" points="145.5,-205.075 142,-195.075 138.5,-205.075 145.5,-205.075"/>
</g>
<!-- Node12 -->
<g id="node12" class="node"><title>Node12</title>
<g id="a_node12"><a xlink:href="_serializer_8hh.html" target="_top" xlink:title="Declaration of loom::Serializer. ">
<polygon fill="none" stroke="black" points="207,-175 207,-195 285,-195 285,-175 207,-175"/>
<text text-anchor="middle" x="246" y="-182.2" font-family="Avenir-Book" font-size="11.00">Serializer.hh</text>
</a>
</g>
</g>
<!-- Node9&#45;&gt;Node12 -->
<g id="edge16" class="edge"><title>Node9&#45;&gt;Node12</title>
<path fill="none" stroke="midnightblue" d="M159.173,-232.753C175.757,-223.823 201.085,-210.185 220.114,-199.939"/>
<polygon fill="midnightblue" stroke="midnightblue" points="222.001,-202.898 229.146,-195.075 218.682,-196.735 222.001,-202.898"/>
</g>
<!-- Node13 -->
<g id="node13" class="node"><title>Node13</title>
<polygon fill="none" stroke="#bfbfbf" points="33.5,-175 33.5,-195 76.5,-195 76.5,-175 33.5,-175"/>
<text text-anchor="middle" x="55" y="-182.2" font-family="Avenir-Book" font-size="11.00">string</text>
</g>
<!-- Node9&#45;&gt;Node13 -->
<g id="edge19" class="edge"><title>Node9&#45;&gt;Node13</title>
<path fill="none" stroke="midnightblue" d="M127.634,-232.753C114.078,-224.027 93.5364,-210.805 77.7532,-200.646"/>
<polygon fill="midnightblue" stroke="midnightblue" points="79.402,-197.545 69.099,-195.075 75.6132,-203.431 79.402,-197.545"/>
</g>
<!-- Node10&#45;&gt;Node3 -->
<g id="edge15" class="edge"><title>Node10&#45;&gt;Node3</title>
<path fill="none" stroke="midnightblue" d="M170.343,-174.878C199.754,-165.413 245.903,-150.56 278.358,-140.115"/>
<polygon fill="midnightblue" stroke="midnightblue" points="279.51,-143.421 287.957,-137.025 277.366,-136.757 279.51,-143.421"/>
</g>
<!-- Node10&#45;&gt;Node4 -->
<g id="edge14" class="edge"><title>Node10&#45;&gt;Node4</title>
<path fill="none" stroke="midnightblue" d="M139.213,-174.863C135.624,-161.484 130.669,-135.984 138,-116 142.111,-104.794 150.294,-94.4468 158.108,-86.4152"/>
<polygon fill="midnightblue" stroke="midnightblue" points="160.831,-88.6534 165.634,-79.2096 155.99,-83.5972 160.831,-88.6534"/>
</g>
<!-- Node10&#45;&gt;Node5 -->
<g id="edge13" class="edge"><title>Node10&#45;&gt;Node5</title>
<path fill="none" stroke="midnightblue" d="M131.569,-174.997C113.254,-158.416 75.9367,-120.976 62,-80 58.8515,-70.743 57.1036,-66.4635 62,-58 70.77,-42.8409 86.6368,-32.2405 101.941,-25.0696"/>
<polygon fill="midnightblue" stroke="midnightblue" points="103.521,-28.2001 111.328,-21.0379 100.759,-21.7682 103.521,-28.2001"/>
</g>
<!-- Node10&#45;&gt;Node8 -->
<g id="edge11" class="edge"><title>Node10&#45;&gt;Node8</title>
<path fill="none" stroke="midnightblue" d="M138.481,-174.671C131.422,-155.957 115.414,-113.517 106.095,-88.8093"/>
<polygon fill="midnightblue" stroke="midnightblue" points="109.251,-87.2607 102.447,-79.1394 102.702,-89.7312 109.251,-87.2607"/>
</g>
<!-- Node11 -->
<g id="node11" class="node"><title>Node11</title>
<polygon fill="none" stroke="#bfbfbf" points="147.5,-117 147.5,-137 264.5,-137 264.5,-117 147.5,-117"/>
<text text-anchor="middle" x="206" y="-124.2" font-family="Avenir-Book" font-size="11.00">llvm/ADT/ArrayRef.h</text>
</g>
<!-- Node10&#45;&gt;Node11 -->
<g id="edge12" class="edge"><title>Node10&#45;&gt;Node11</title>
<path fill="none" stroke="midnightblue" d="M152.568,-174.753C162.168,-166.353 176.529,-153.787 187.946,-143.798"/>
<polygon fill="midnightblue" stroke="midnightblue" points="190.407,-146.294 195.628,-137.075 185.798,-141.026 190.407,-146.294"/>
</g>
<!-- Node12&#45;&gt;Node6 -->
<g id="edge18" class="edge"><title>Node12&#45;&gt;Node6</title>
<path fill="none" stroke="midnightblue" d="M285.156,-179.048C310.564,-173.58 341.848,-162.095 358,-138 381.2,-103.391 350.724,-54.8644 330.787,-29.3099"/>
<polygon fill="midnightblue" stroke="midnightblue" points="333.298,-26.8499 324.28,-21.2894 327.862,-31.2602 333.298,-26.8499"/>
</g>
<!-- Node12&#45;&gt;Node11 -->
<g id="edge17" class="edge"><title>Node12&#45;&gt;Node11</title>
<path fill="none" stroke="midnightblue" d="M239.395,-174.753C233.687,-166.761 225.284,-154.998 218.336,-145.27"/>
<polygon fill="midnightblue" stroke="midnightblue" points="221.143,-143.178 212.482,-137.075 215.447,-147.247 221.143,-143.178"/>
</g>
</g>
</svg>
