<?xml version="1.0" encoding="UTF-8" standalone="no"?>
<!DOCTYPE svg PUBLIC "-//W3C//DTD SVG 1.1//EN"
 "http://www.w3.org/Graphics/SVG/1.1/DTD/svg11.dtd">
<!-- Generated by graphviz version 2.36.0 (20140111.2315)
 -->
<!-- Title: src/PolicyFile.hh Pages: 1 -->
<svg width="542pt" height="204pt"
 viewBox="0.00 0.00 542.00 204.00" xmlns="http://www.w3.org/2000/svg" xmlns:xlink="http://www.w3.org/1999/xlink">
<g id="graph0" class="graph" transform="scale(1 1) rotate(0) translate(4 200)">
<title>src/PolicyFile.hh</title>
<!-- Node1 -->
<g id="node1" class="node"><title>Node1</title>
<polygon fill="#bfbfbf" stroke="black" points="362.5,-175 362.5,-195 459.5,-195 459.5,-175 362.5,-175"/>
<text text-anchor="middle" x="411" y="-182.2" font-family="Avenir-Book" font-size="11.00">src/PolicyFile.hh</text>
</g>
<!-- Node2 -->
<g id="node2" class="node"><title>Node2</title>
<g id="a_node2"><a xlink:href="_instrumentation_8hh.html" target="_top" xlink:title="Declaration of loom::Instrumentation. ">
<polygon fill="none" stroke="black" points="193.5,-117 193.5,-137 318.5,-137 318.5,-117 193.5,-117"/>
<text text-anchor="middle" x="256" y="-124.2" font-family="Avenir-Book" font-size="11.00">src/Instrumentation.hh</text>
</a>
</g>
</g>
<!-- Node1&#45;&gt;Node2 -->
<g id="edge1" class="edge"><title>Node1&#45;&gt;Node2</title>
<path fill="none" stroke="midnightblue" d="M376.041,-171.37C347.118,-160.92 306.74,-146.332 280.981,-137.025"/>
<polygon fill="midnightblue" stroke="midnightblue" points="375.157,-174.772 385.752,-174.878 377.536,-168.188 375.157,-174.772"/>
</g>
<!-- Node7 -->
<g id="node7" class="node"><title>Node7</title>
<g id="a_node7"><a xlink:href="_opt_pass_8cc.html" target="_top" xlink:title="Definition of Loom&#39;s LLVM opt pass. ">
<polygon fill="none" stroke="black" points="366,-1 366,-21 456,-21 456,-1 366,-1"/>
<text text-anchor="middle" x="411" y="-8.2" font-family="Avenir-Book" font-size="11.00">src/OptPass.cc</text>
</a>
</g>
</g>
<!-- Node1&#45;&gt;Node7 -->
<g id="edge7" class="edge"><title>Node1&#45;&gt;Node7</title>
<path fill="none" stroke="midnightblue" d="M411,-164.297C411,-127.202 411,-48.3002 411,-21.2932"/>
<polygon fill="midnightblue" stroke="midnightblue" points="407.5,-164.752 411,-174.753 414.5,-164.753 407.5,-164.752"/>
</g>
<!-- Node8 -->
<g id="node8" class="node"><title>Node8</title>
<g id="a_node8"><a xlink:href="_policy_file_8cc.html" target="_top" xlink:title="Definition of loom::PolicyFile. ">
<polygon fill="none" stroke="black" points="439.5,-117 439.5,-137 534.5,-137 534.5,-117 439.5,-117"/>
<text text-anchor="middle" x="487" y="-124.2" font-family="Avenir-Book" font-size="11.00">src/PolicyFile.cc</text>
</a>
</g>
</g>
<!-- Node1&#45;&gt;Node8 -->
<g id="edge8" class="edge"><title>Node1&#45;&gt;Node8</title>
<path fill="none" stroke="midnightblue" d="M431.93,-168.578C445.66,-158.461 463.143,-145.579 474.684,-137.075"/>
<polygon fill="midnightblue" stroke="midnightblue" points="429.524,-166.003 423.55,-174.753 433.677,-171.638 429.524,-166.003"/>
</g>
<!-- Node3 -->
<g id="node3" class="node"><title>Node3</title>
<g id="a_node3"><a xlink:href="_instr_strategy_8cc.html" target="_top" xlink:title="Definition of loom::InstrStrategy. ">
<polygon fill="none" stroke="black" points="-0.5,-59 -0.5,-79 110.5,-79 110.5,-59 -0.5,-59"/>
<text text-anchor="middle" x="55" y="-66.2" font-family="Avenir-Book" font-size="11.00">src/InstrStrategy.cc</text>
</a>
</g>
</g>
<!-- Node2&#45;&gt;Node3 -->
<g id="edge2" class="edge"><title>Node2&#45;&gt;Node3</title>
<path fill="none" stroke="midnightblue" d="M213.584,-114.183C175.916,-103.688 121.674,-88.5757 87.3944,-79.0253"/>
<polygon fill="midnightblue" stroke="midnightblue" points="212.686,-117.566 223.259,-116.878 214.565,-110.822 212.686,-117.566"/>
</g>
<!-- Node4 -->
<g id="node4" class="node"><title>Node4</title>
<g id="a_node4"><a xlink:href="_instrumentation_8cc.html" target="_top" xlink:title="Definition of loom::Instrumentation. ">
<polygon fill="none" stroke="black" points="129,-59 129,-79 253,-79 253,-59 129,-59"/>
<text text-anchor="middle" x="191" y="-66.2" font-family="Avenir-Book" font-size="11.00">src/Instrumentation.cc</text>
</a>
</g>
</g>
<!-- Node2&#45;&gt;Node4 -->
<g id="edge3" class="edge"><title>Node2&#45;&gt;Node4</title>
<path fill="none" stroke="midnightblue" d="M237.425,-109.997C225.789,-99.9719 211.216,-87.4171 201.534,-79.0752"/>
<polygon fill="midnightblue" stroke="midnightblue" points="235.406,-112.877 245.267,-116.753 239.975,-107.574 235.406,-112.877"/>
</g>
<!-- Node5 -->
<g id="node5" class="node"><title>Node5</title>
<g id="a_node5"><a xlink:href="_instrumenter_8hh.html" target="_top" xlink:title="Declaration of loom::Instrumenter. ">
<polygon fill="none" stroke="black" points="271.5,-59 271.5,-79 382.5,-79 382.5,-59 271.5,-59"/>
<text text-anchor="middle" x="327" y="-66.2" font-family="Avenir-Book" font-size="11.00">src/Instrumenter.hh</text>
</a>
</g>
</g>
<!-- Node2&#45;&gt;Node5 -->
<g id="edge4" class="edge"><title>Node2&#45;&gt;Node5</title>
<path fill="none" stroke="midnightblue" d="M275.921,-110.288C288.69,-100.216 304.815,-87.4981 315.494,-79.0752"/>
<polygon fill="midnightblue" stroke="midnightblue" points="273.408,-107.812 267.724,-116.753 277.743,-113.308 273.408,-107.812"/>
</g>
<!-- Node6 -->
<g id="node6" class="node"><title>Node6</title>
<g id="a_node6"><a xlink:href="_instrumenter_8cc.html" target="_top" xlink:title="Definition of loom::Instrumenter. ">
<polygon fill="none" stroke="black" points="238,-1 238,-21 348,-21 348,-1 238,-1"/>
<text text-anchor="middle" x="293" y="-8.2" font-family="Avenir-Book" font-size="11.00">src/Instrumenter.cc</text>
</a>
</g>
</g>
<!-- Node5&#45;&gt;Node6 -->
<g id="edge5" class="edge"><title>Node5&#45;&gt;Node6</title>
<path fill="none" stroke="midnightblue" d="M316.023,-49.9199C310.173,-40.2849 303.23,-28.8502 298.51,-21.0752"/>
<polygon fill="midnightblue" stroke="midnightblue" points="313.204,-52.0213 321.386,-58.7527 319.188,-48.3884 313.204,-52.0213"/>
</g>
<!-- Node5&#45;&gt;Node7 -->
<g id="edge6" class="edge"><title>Node5&#45;&gt;Node7</title>
<path fill="none" stroke="midnightblue" d="M349.271,-53.1528C364.57,-42.9534 384.388,-29.7411 397.387,-21.0752"/>
<polygon fill="midnightblue" stroke="midnightblue" points="347.25,-50.2935 340.871,-58.7527 351.133,-56.1179 347.25,-50.2935"/>
</g>
</g>
</svg>
