<?xml version="1.0" encoding="UTF-8" standalone="no"?>
<!DOCTYPE svg PUBLIC "-//W3C//DTD SVG 1.1//EN"
 "http://www.w3.org/Graphics/SVG/1.1/DTD/svg11.dtd">
<!-- Generated by graphviz version 2.36.0 (20140111.2315)
 -->
<!-- Title: src/Policy.hh Pages: 1 -->
<svg width="431pt" height="262pt"
 viewBox="0.00 0.00 430.97 262.00" xmlns="http://www.w3.org/2000/svg" xmlns:xlink="http://www.w3.org/1999/xlink">
<g id="graph0" class="graph" transform="scale(1 1) rotate(0) translate(4 258)">
<title>src/Policy.hh</title>
<!-- Node1 -->
<g id="node1" class="node"><title>Node1</title>
<polygon fill="#bfbfbf" stroke="black" points="277.465,-233 277.465,-253 356.465,-253 356.465,-233 277.465,-233"/>
<text text-anchor="middle" x="316.965" y="-240.2" font-family="Avenir-Book" font-size="11.00">src/Policy.hh</text>
</g>
<!-- Node2 -->
<g id="node2" class="node"><title>Node2</title>
<g id="a_node2"><a xlink:href="_policy_file_8hh.html" target="_top" xlink:title="Declaration of loom::PolicyFile. ">
<polygon fill="none" stroke="black" points="91.4655,-175 91.4655,-195 188.465,-195 188.465,-175 91.4655,-175"/>
<text text-anchor="middle" x="139.965" y="-182.2" font-family="Avenir-Book" font-size="11.00">src/PolicyFile.hh</text>
</a>
</g>
</g>
<!-- Node1&#45;&gt;Node2 -->
<g id="edge1" class="edge"><title>Node1&#45;&gt;Node2</title>
<path fill="none" stroke="midnightblue" d="M278.336,-229.778C245.227,-219.303 198.293,-204.454 168.492,-195.025"/>
<polygon fill="midnightblue" stroke="midnightblue" points="277.543,-233.198 288.133,-232.878 279.655,-226.524 277.543,-233.198"/>
</g>
<!-- Node6 -->
<g id="node6" class="node"><title>Node6</title>
<g id="a_node6"><a xlink:href="_instrumenter_8hh.html" target="_top" xlink:title="Declaration of loom::Instrumenter. ">
<polygon fill="none" stroke="black" points="284.465,-59 284.465,-79 395.465,-79 395.465,-59 284.465,-59"/>
<text text-anchor="middle" x="339.965" y="-66.2" font-family="Avenir-Book" font-size="11.00">src/Instrumenter.hh</text>
</a>
</g>
</g>
<!-- Node1&#45;&gt;Node6 -->
<g id="edge10" class="edge"><title>Node1&#45;&gt;Node6</title>
<path fill="none" stroke="midnightblue" d="M319.536,-222.776C324.469,-185.886 335.096,-106.417 338.723,-79.2932"/>
<polygon fill="midnightblue" stroke="midnightblue" points="316.058,-222.377 318.202,-232.753 322.997,-223.305 316.058,-222.377"/>
</g>
<!-- Node10 -->
<g id="node10" class="node"><title>Node10</title>
<g id="a_node10"><a xlink:href="_policy_8cc.html" target="_top" xlink:title="Definition of loom::Policy. ">
<polygon fill="none" stroke="black" points="344.965,-175 344.965,-195 422.965,-195 422.965,-175 344.965,-175"/>
<text text-anchor="middle" x="383.965" y="-182.2" font-family="Avenir-Book" font-size="11.00">src/Policy.cc</text>
</a>
</g>
</g>
<!-- Node1&#45;&gt;Node10 -->
<g id="edge11" class="edge"><title>Node1&#45;&gt;Node10</title>
<path fill="none" stroke="midnightblue" d="M335.764,-226.288C347.814,-216.216 363.03,-203.498 373.108,-195.075"/>
<polygon fill="midnightblue" stroke="midnightblue" points="333.457,-223.654 328.029,-232.753 337.947,-229.025 333.457,-223.654"/>
</g>
<!-- Node3 -->
<g id="node3" class="node"><title>Node3</title>
<g id="a_node3"><a xlink:href="_instrumentation_8hh.html" target="_top" xlink:title="Declaration of loom::Instrumentation. ">
<polygon fill="none" stroke="black" points="141.465,-117 141.465,-137 266.465,-137 266.465,-117 141.465,-117"/>
<text text-anchor="middle" x="203.965" y="-124.2" font-family="Avenir-Book" font-size="11.00">src/Instrumentation.hh</text>
</a>
</g>
</g>
<!-- Node2&#45;&gt;Node3 -->
<g id="edge2" class="edge"><title>Node2&#45;&gt;Node3</title>
<path fill="none" stroke="midnightblue" d="M158.255,-167.997C169.712,-157.972 184.06,-145.417 193.594,-137.075"/>
<polygon fill="midnightblue" stroke="midnightblue" points="155.755,-165.534 150.534,-174.753 160.364,-170.802 155.755,-165.534"/>
</g>
<!-- Node8 -->
<g id="node8" class="node"><title>Node8</title>
<g id="a_node8"><a xlink:href="_opt_pass_8cc.html" target="_top" xlink:title="Definition of Loom&#39;s LLVM opt pass. ">
<polygon fill="none" stroke="black" points="57.9655,-1 57.9655,-21 147.965,-21 147.965,-1 57.9655,-1"/>
<text text-anchor="middle" x="102.965" y="-8.2" font-family="Avenir-Book" font-size="11.00">src/OptPass.cc</text>
</a>
</g>
</g>
<!-- Node2&#45;&gt;Node8 -->
<g id="edge8" class="edge"><title>Node2&#45;&gt;Node8</title>
<path fill="none" stroke="midnightblue" d="M81.52,-173.574C59.2025,-166.857 35.2382,-155.881 18.9655,-138 0.967478,-118.223 6.55349,-106.499 2.96549,-80 1.65353,-70.3106 -2.30951,-66.2328 2.96549,-58 15.1823,-38.9329 37.5158,-27.6615 57.9824,-21.0541"/>
<polygon fill="midnightblue" stroke="midnightblue" points="80.7176,-176.984 91.2894,-176.285 82.5892,-170.238 80.7176,-176.984"/>
</g>
<!-- Node9 -->
<g id="node9" class="node"><title>Node9</title>
<g id="a_node9"><a xlink:href="_policy_file_8cc.html" target="_top" xlink:title="Definition of loom::PolicyFile. ">
<polygon fill="none" stroke="black" points="28.4655,-117 28.4655,-137 123.465,-137 123.465,-117 28.4655,-117"/>
<text text-anchor="middle" x="75.9655" y="-124.2" font-family="Avenir-Book" font-size="11.00">src/PolicyFile.cc</text>
</a>
</g>
</g>
<!-- Node2&#45;&gt;Node9 -->
<g id="edge9" class="edge"><title>Node2&#45;&gt;Node9</title>
<path fill="none" stroke="midnightblue" d="M121.676,-167.997C110.219,-157.972 95.8708,-145.417 86.3371,-137.075"/>
<polygon fill="midnightblue" stroke="midnightblue" points="119.567,-170.802 129.397,-174.753 124.176,-165.534 119.567,-170.802"/>
</g>
<!-- Node4 -->
<g id="node4" class="node"><title>Node4</title>
<g id="a_node4"><a xlink:href="_instr_strategy_8cc.html" target="_top" xlink:title="Definition of loom::InstrStrategy. ">
<polygon fill="none" stroke="black" points="12.4655,-59 12.4655,-79 123.465,-79 123.465,-59 12.4655,-59"/>
<text text-anchor="middle" x="67.9655" y="-66.2" font-family="Avenir-Book" font-size="11.00">src/InstrStrategy.cc</text>
</a>
</g>
</g>
<!-- Node3&#45;&gt;Node4 -->
<g id="edge3" class="edge"><title>Node3&#45;&gt;Node4</title>
<path fill="none" stroke="midnightblue" d="M172.32,-112.969C147.101,-102.585 112.432,-88.3099 90.1094,-79.1181"/>
<polygon fill="midnightblue" stroke="midnightblue" points="171.233,-116.307 181.812,-116.878 173.898,-109.834 171.233,-116.307"/>
</g>
<!-- Node5 -->
<g id="node5" class="node"><title>Node5</title>
<g id="a_node5"><a xlink:href="_instrumentation_8cc.html" target="_top" xlink:title="Definition of loom::Instrumentation. ">
<polygon fill="none" stroke="black" points="141.965,-59 141.965,-79 265.965,-79 265.965,-59 141.965,-59"/>
<text text-anchor="middle" x="203.965" y="-66.2" font-family="Avenir-Book" font-size="11.00">src/Instrumentation.cc</text>
</a>
</g>
</g>
<!-- Node3&#45;&gt;Node5 -->
<g id="edge4" class="edge"><title>Node3&#45;&gt;Node5</title>
<path fill="none" stroke="midnightblue" d="M203.965,-106.707C203.965,-97.3384 203.965,-86.5262 203.965,-79.0752"/>
<polygon fill="midnightblue" stroke="midnightblue" points="200.466,-106.753 203.965,-116.753 207.466,-106.753 200.466,-106.753"/>
</g>
<!-- Node3&#45;&gt;Node6 -->
<g id="edge5" class="edge"><title>Node3&#45;&gt;Node6</title>
<path fill="none" stroke="midnightblue" d="M235.611,-112.969C260.83,-102.585 295.499,-88.3099 317.822,-79.1181"/>
<polygon fill="midnightblue" stroke="midnightblue" points="234.033,-109.834 226.119,-116.878 236.698,-116.307 234.033,-109.834"/>
</g>
<!-- Node7 -->
<g id="node7" class="node"><title>Node7</title>
<g id="a_node7"><a xlink:href="_instrumenter_8cc.html" target="_top" xlink:title="Definition of loom::Instrumenter. ">
<polygon fill="none" stroke="black" points="284.965,-1 284.965,-21 394.965,-21 394.965,-1 284.965,-1"/>
<text text-anchor="middle" x="339.965" y="-8.2" font-family="Avenir-Book" font-size="11.00">src/Instrumenter.cc</text>
</a>
</g>
</g>
<!-- Node6&#45;&gt;Node7 -->
<g id="edge6" class="edge"><title>Node6&#45;&gt;Node7</title>
<path fill="none" stroke="midnightblue" d="M339.965,-48.7065C339.965,-39.3384 339.965,-28.5262 339.965,-21.0752"/>
<polygon fill="midnightblue" stroke="midnightblue" points="336.466,-48.7527 339.965,-58.7527 343.466,-48.7528 336.466,-48.7527"/>
</g>
<!-- Node6&#45;&gt;Node8 -->
<g id="edge7" class="edge"><title>Node6&#45;&gt;Node8</title>
<path fill="none" stroke="midnightblue" d="M291.636,-56.5803C247.2,-46.0808 182.19,-30.7196 141.252,-21.0466"/>
<polygon fill="midnightblue" stroke="midnightblue" points="291.087,-60.047 301.624,-58.9404 292.697,-53.2346 291.087,-60.047"/>
</g>
</g>
</svg>
