<?xml version="1.0" encoding="UTF-8" standalone="no"?>
<!DOCTYPE svg PUBLIC "-//W3C//DTD SVG 1.1//EN"
 "http://www.w3.org/Graphics/SVG/1.1/DTD/svg11.dtd">
<!-- Generated by graphviz version 2.36.0 (20140111.2315)
 -->
<!-- Title: src/Serializer.hh Pages: 1 -->
<!--zoomable 320 -->
<svg id="main" version="1.1" xmlns="http://www.w3.org/2000/svg" xmlns:xlink="http://www.w3.org/1999/xlink" xml:space="preserve" onload="init(evt)">
<style type="text/css"><![CDATA[
.edge:hover path { stroke: red; }
.edge:hover polygon { stroke: red; fill: red; }
]]></style>
<script type="text/javascript"><![CDATA[
var edges = document.getElementsByTagName('g');
if (edges && edges.length) {
  for (var i=0;i<edges.length;i++) {
    if (edges[i].id.substr(0,4)=='edge') {
      edges[i].setAttribute('class','edge');
    }
  }
}
]]></script>
        <defs>
                <circle id="rim" cx="0" cy="0" r="7"/>
                <circle id="rim2" cx="0" cy="0" r="3.5"/>
                <g id="zoomPlus">
                        <use xlink:href="#rim" fill="#404040">
                                <set attributeName="fill" to="#808080" begin="zoomplus.mouseover" end="zoomplus.mouseout"/>
                        </use>
                        <path d="M-4,0h8M0,-4v8" fill="none" stroke="white" stroke-width="1.5" pointer-events="none"/>
                </g>
                <g id="zoomMin">
                        <use xlink:href="#rim" fill="#404040">
                                <set attributeName="fill" to="#808080" begin="zoomminus.mouseover" end="zoomminus.mouseout"/>
                        </use>
                        <path d="M-4,0h8" fill="none" stroke="white" stroke-width="1.5" pointer-events="none"/>
                </g>
                <g id="dirArrow">
                        <path fill="none" stroke="white" stroke-width="1.5" d="M0,-3.0v7 M-2.5,-0.5L0,-3.0L2.5,-0.5"/>
                </g>
               <g id="resetDef">
                       <use xlink:href="#rim2" fill="#404040">
                               <set attributeName="fill" to="#808080" begin="reset.mouseover" end="reset.mouseout"/>
                       </use>
               </g>
        </defs>

<script type="text/javascript">
var viewWidth = 598;
var viewHeight = 320;
var sectionId = 'dynsection-1';
</script>
<script xlink:href="svgpan.js"/>
<svg id="graph" class="graph">
<g id="viewport">
<title>src/Serializer.hh</title>
<!-- Node1 -->
<g id="node1" class="node"><title>Node1</title>
<polygon fill="#bfbfbf" stroke="black" points="307.5,-291 307.5,-311 402.5,-311 402.5,-291 307.5,-291"/>
<text text-anchor="middle" x="355" y="-298.2" font-family="Avenir-Book" font-size="11.00">src/Serializer.hh</text>
</g>
<!-- Node2 -->
<g id="node2" class="node"><title>Node2</title>
<g id="a_node2"><a xlink:href="_policy_8hh.html" target="_top" xlink:title="Definition of loom::Policy. ">
<polygon fill="none" stroke="black" points="132.5,-233 132.5,-253 211.5,-253 211.5,-233 132.5,-233"/>
<text text-anchor="middle" x="172" y="-240.2" font-family="Avenir-Book" font-size="11.00">src/Policy.hh</text>
</a>
</g>
</g>
<!-- Node1&#45;&gt;Node2 -->
<g id="edge1" class="edge"><title>Node1&#45;&gt;Node2</title>
<path fill="none" stroke="midnightblue" d="M315.503,-287.914C281.249,-277.431 232.437,-262.494 201.493,-253.025"/>
<polygon fill="midnightblue" stroke="midnightblue" points="314.604,-291.299 325.191,-290.878 316.652,-284.605 314.604,-291.299"/>
</g>
<!-- Node12 -->
<g id="node12" class="node"><title>Node12</title>
<g id="a_node12"><a xlink:href="_k_trace_logger_8cc.html" target="_top" xlink:title="Definition of loom::KTraceLogger. ">
<polygon fill="none" stroke="black" points="230,-233 230,-253 348,-253 348,-233 230,-233"/>
<text text-anchor="middle" x="289" y="-240.2" font-family="Avenir-Book" font-size="11.00">src/KTraceLogger.cc</text>
</a>
</g>
</g>
<!-- Node1&#45;&gt;Node12 -->
<g id="edge13" class="edge"><title>Node1&#45;&gt;Node12</title>
<path fill="none" stroke="midnightblue" d="M336.139,-283.997C324.324,-273.972 309.527,-261.417 299.696,-253.075"/>
<polygon fill="midnightblue" stroke="midnightblue" points="334.212,-286.952 344.101,-290.753 338.741,-281.614 334.212,-286.952"/>
</g>
<!-- Node13 -->
<g id="node13" class="node"><title>Node13</title>
<g id="a_node13"><a xlink:href="_n_v_serializer_8hh.html" target="_top" xlink:title="Declaration of loom::NVSerializer. ">
<polygon fill="none" stroke="black" points="366.5,-233 366.5,-253 477.5,-253 477.5,-233 366.5,-233"/>
<text text-anchor="middle" x="422" y="-240.2" font-family="Avenir-Book" font-size="11.00">src/NVSerializer.hh</text>
</a>
</g>
</g>
<!-- Node1&#45;&gt;Node13 -->
<g id="edge14" class="edge"><title>Node1&#45;&gt;Node13</title>
<path fill="none" stroke="midnightblue" d="M373.798,-284.288C385.849,-274.216 401.065,-261.498 411.142,-253.075"/>
<polygon fill="midnightblue" stroke="midnightblue" points="371.492,-281.654 366.064,-290.753 375.981,-287.025 371.492,-281.654"/>
</g>
<!-- Node15 -->
<g id="node15" class="node"><title>Node15</title>
<g id="a_node15"><a xlink:href="_serializer_8cc.html" target="_top" xlink:title="Definition of loom::Serializer. ">
<polygon fill="none" stroke="black" points="496,-233 496,-253 590,-253 590,-233 496,-233"/>
<text text-anchor="middle" x="543" y="-240.2" font-family="Avenir-Book" font-size="11.00">src/Serializer.cc</text>
</a>
</g>
</g>
<!-- Node1&#45;&gt;Node15 -->
<g id="edge17" class="edge"><title>Node1&#45;&gt;Node15</title>
<path fill="none" stroke="midnightblue" d="M395.576,-287.914C430.766,-277.431 480.912,-262.494 512.701,-253.025"/>
<polygon fill="midnightblue" stroke="midnightblue" points="394.209,-284.669 385.624,-290.878 396.207,-291.378 394.209,-284.669"/>
</g>
<!-- Node3 -->
<g id="node3" class="node"><title>Node3</title>
<g id="a_node3"><a xlink:href="_policy_file_8hh.html" target="_top" xlink:title="Declaration of loom::PolicyFile. ">
<polygon fill="none" stroke="black" points="228.5,-175 228.5,-195 325.5,-195 325.5,-175 228.5,-175"/>
<text text-anchor="middle" x="277" y="-182.2" font-family="Avenir-Book" font-size="11.00">src/PolicyFile.hh</text>
</a>
</g>
</g>
<!-- Node2&#45;&gt;Node3 -->
<g id="edge2" class="edge"><title>Node2&#45;&gt;Node3</title>
<path fill="none" stroke="midnightblue" d="M198.244,-228.003C217.566,-217.698 243.28,-203.984 259.984,-195.075"/>
<polygon fill="midnightblue" stroke="midnightblue" points="196.515,-224.959 189.339,-232.753 199.809,-231.135 196.515,-224.959"/>
</g>
<!-- Node7 -->
<g id="node7" class="node"><title>Node7</title>
<g id="a_node7"><a xlink:href="_instrumenter_8hh.html" target="_top" xlink:title="Declaration of loom::Instrumenter. ">
<polygon fill="none" stroke="black" points="-0.5,-59 -0.5,-79 110.5,-79 110.5,-59 -0.5,-59"/>
<text text-anchor="middle" x="55" y="-66.2" font-family="Avenir-Book" font-size="11.00">src/Instrumenter.hh</text>
</a>
</g>
</g>
<!-- Node2&#45;&gt;Node7 -->
<g id="edge11" class="edge"><title>Node2&#45;&gt;Node7</title>
<path fill="none" stroke="midnightblue" d="M169.146,-222.582C166.471,-208.429 161.561,-189.159 153,-174 129.943,-133.172 87.5154,-95.943 66.8864,-79.2524"/>
<polygon fill="midnightblue" stroke="midnightblue" points="165.731,-223.377 170.839,-232.659 172.634,-222.217 165.731,-223.377"/>
</g>
<!-- Node11 -->
<g id="node11" class="node"><title>Node11</title>
<g id="a_node11"><a xlink:href="_policy_8cc.html" target="_top" xlink:title="Definition of loom::Policy. ">
<polygon fill="none" stroke="black" points="66,-175 66,-195 144,-195 144,-175 66,-175"/>
<text text-anchor="middle" x="105" y="-182.2" font-family="Avenir-Book" font-size="11.00">src/Policy.cc</text>
</a>
</g>
</g>
<!-- Node2&#45;&gt;Node11 -->
<g id="edge12" class="edge"><title>Node2&#45;&gt;Node11</title>
<path fill="none" stroke="midnightblue" d="M153.202,-226.288C141.151,-216.216 125.935,-203.498 115.858,-195.075"/>
<polygon fill="midnightblue" stroke="midnightblue" points="151.019,-229.025 160.936,-232.753 155.508,-223.654 151.019,-229.025"/>
</g>
<!-- Node4 -->
<g id="node4" class="node"><title>Node4</title>
<g id="a_node4"><a xlink:href="_instrumentation_8hh.html" target="_top" xlink:title="Declaration of loom::Instrumentation. ">
<polygon fill="none" stroke="black" points="205.5,-117 205.5,-137 330.5,-137 330.5,-117 205.5,-117"/>
<text text-anchor="middle" x="268" y="-124.2" font-family="Avenir-Book" font-size="11.00">src/Instrumentation.hh</text>
</a>
</g>
</g>
<!-- Node3&#45;&gt;Node4 -->
<g id="edge3" class="edge"><title>Node3&#45;&gt;Node4</title>
<path fill="none" stroke="midnightblue" d="M273.899,-164.707C272.394,-155.338 270.656,-144.526 269.459,-137.075"/>
<polygon fill="midnightblue" stroke="midnightblue" points="270.471,-165.435 275.514,-174.753 277.383,-164.324 270.471,-165.435"/>
</g>
<!-- Node9 -->
<g id="node9" class="node"><title>Node9</title>
<g id="a_node9"><a xlink:href="_opt_pass_8cc.html" target="_top" xlink:title="Definition of Loom&#39;s LLVM opt pass. ">
<polygon fill="none" stroke="black" points="246,-1 246,-21 336,-21 336,-1 246,-1"/>
<text text-anchor="middle" x="291" y="-8.2" font-family="Avenir-Book" font-size="11.00">src/OptPass.cc</text>
</a>
</g>
</g>
<!-- Node3&#45;&gt;Node9 -->
<g id="edge9" class="edge"><title>Node3&#45;&gt;Node9</title>
<path fill="none" stroke="midnightblue" d="M303.824,-169.665C332.249,-152.673 375.173,-121.363 391,-80 394.494,-70.8679 396.275,-66.2328 391,-58 378.783,-38.9329 356.45,-27.6615 335.983,-21.0541"/>
<polygon fill="midnightblue" stroke="midnightblue" points="301.712,-166.843 294.8,-174.873 305.211,-172.906 301.712,-166.843"/>
</g>
<!-- Node10 -->
<g id="node10" class="node"><title>Node10</title>
<g id="a_node10"><a xlink:href="_policy_file_8cc.html" target="_top" xlink:title="Definition of loom::PolicyFile. ">
<polygon fill="none" stroke="black" points="438.5,-117 438.5,-137 533.5,-137 533.5,-117 438.5,-117"/>
<text text-anchor="middle" x="486" y="-124.2" font-family="Avenir-Book" font-size="11.00">src/PolicyFile.cc</text>
</a>
</g>
</g>
<!-- Node3&#45;&gt;Node10 -->
<g id="edge10" class="edge"><title>Node3&#45;&gt;Node10</title>
<path fill="none" stroke="midnightblue" d="M320.855,-172.249C360.031,-161.752 416.597,-146.596 452.316,-137.025"/>
<polygon fill="midnightblue" stroke="midnightblue" points="319.798,-168.909 311.045,-174.878 321.61,-175.671 319.798,-168.909"/>
</g>
<!-- Node5 -->
<g id="node5" class="node"><title>Node5</title>
<g id="a_node5"><a xlink:href="_instr_strategy_8cc.html" target="_top" xlink:title="Definition of loom::InstrStrategy. ">
<polygon fill="none" stroke="black" points="128.5,-59 128.5,-79 239.5,-79 239.5,-59 128.5,-59"/>
<text text-anchor="middle" x="184" y="-66.2" font-family="Avenir-Book" font-size="11.00">src/InstrStrategy.cc</text>
</a>
</g>
</g>
<!-- Node4&#45;&gt;Node5 -->
<g id="edge4" class="edge"><title>Node4&#45;&gt;Node5</title>
<path fill="none" stroke="midnightblue" d="M245.729,-111.153C230.43,-100.953 210.612,-87.7411 197.613,-79.0752"/>
<polygon fill="midnightblue" stroke="midnightblue" points="243.867,-114.118 254.129,-116.753 247.75,-108.294 243.867,-114.118"/>
</g>
<!-- Node6 -->
<g id="node6" class="node"><title>Node6</title>
<g id="a_node6"><a xlink:href="_instrumentation_8cc.html" target="_top" xlink:title="Definition of loom::Instrumentation. ">
<polygon fill="none" stroke="black" points="258,-59 258,-79 382,-79 382,-59 258,-59"/>
<text text-anchor="middle" x="320" y="-66.2" font-family="Avenir-Book" font-size="11.00">src/Instrumentation.cc</text>
</a>
</g>
</g>
<!-- Node4&#45;&gt;Node6 -->
<g id="edge5" class="edge"><title>Node4&#45;&gt;Node6</title>
<path fill="none" stroke="midnightblue" d="M283.405,-109.41C292.62,-99.486 303.977,-87.2551 311.573,-79.0752"/>
<polygon fill="midnightblue" stroke="midnightblue" points="280.826,-107.043 276.587,-116.753 285.956,-111.806 280.826,-107.043"/>
</g>
<!-- Node4&#45;&gt;Node7 -->
<g id="edge6" class="edge"><title>Node4&#45;&gt;Node7</title>
<path fill="none" stroke="midnightblue" d="M223.56,-114.316C183.625,-103.817 125.809,-88.6164 89.3284,-79.0253"/>
<polygon fill="midnightblue" stroke="midnightblue" points="222.743,-117.72 233.304,-116.878 224.522,-110.95 222.743,-117.72"/>
</g>
<!-- Node8 -->
<g id="node8" class="node"><title>Node8</title>
<g id="a_node8"><a xlink:href="_instrumenter_8cc.html" target="_top" xlink:title="Definition of loom::Instrumenter. ">
<polygon fill="none" stroke="black" points="0,-1 0,-21 110,-21 110,-1 0,-1"/>
<text text-anchor="middle" x="55" y="-8.2" font-family="Avenir-Book" font-size="11.00">src/Instrumenter.cc</text>
</a>
</g>
</g>
<!-- Node7&#45;&gt;Node8 -->
<g id="edge7" class="edge"><title>Node7&#45;&gt;Node8</title>
<path fill="none" stroke="midnightblue" d="M55,-48.7065C55,-39.3384 55,-28.5262 55,-21.0752"/>
<polygon fill="midnightblue" stroke="midnightblue" points="51.5001,-48.7527 55,-58.7527 58.5001,-48.7528 51.5001,-48.7527"/>
</g>
<!-- Node7&#45;&gt;Node9 -->
<g id="edge8" class="edge"><title>Node7&#45;&gt;Node9</title>
<path fill="none" stroke="midnightblue" d="M103.126,-56.5803C147.374,-46.0808 212.11,-30.7196 252.875,-21.0466"/>
<polygon fill="midnightblue" stroke="midnightblue" points="102.102,-53.2261 93.1798,-58.9404 103.718,-60.037 102.102,-53.2261"/>
</g>
<!-- Node13&#45;&gt;Node10 -->
<g id="edge16" class="edge"><title>Node13&#45;&gt;Node10</title>
<path fill="none" stroke="midnightblue" d="M440.9,-226.13C449.625,-217.925 459.473,-207.278 466,-196 477.095,-176.829 482.475,-150.999 484.692,-137.352"/>
<polygon fill="midnightblue" stroke="midnightblue" points="438.432,-223.642 433.329,-232.927 443.109,-228.85 438.432,-223.642"/>
</g>
<!-- Node14 -->
<g id="node14" class="node"><title>Node14</title>
<g id="a_node14"><a xlink:href="_n_v_serializer_8cc.html" target="_top" xlink:title="Definition of loom::NVSerializer. ">
<polygon fill="none" stroke="black" points="348.5,-175 348.5,-195 457.5,-195 457.5,-175 348.5,-175"/>
<text text-anchor="middle" x="403" y="-182.2" font-family="Avenir-Book" font-size="11.00">src/NVSerializer.cc</text>
</a>
</g>
</g>
<!-- Node13&#45;&gt;Node14 -->
<g id="edge15" class="edge"><title>Node13&#45;&gt;Node14</title>
<path fill="none" stroke="midnightblue" d="M415.557,-223.012C412.355,-213.574 408.635,-202.607 406.079,-195.075"/>
<polygon fill="midnightblue" stroke="midnightblue" points="412.335,-224.408 418.863,-232.753 418.964,-222.158 412.335,-224.408"/>
</g>
</g>
</svg>
        <g id="navigator" transform="translate(0 0)" fill="#404254">
                <rect fill="#f2f5e9" fill-opacity="0.5" stroke="#606060" stroke-width=".5" x="0" y="0" width="60" height="60"/>
                <use id="zoomplus" xlink:href="#zoomPlus" x="17" y="9" onmousedown="handleZoom(evt,'in')"/>
                <use id="zoomminus" xlink:href="#zoomMin" x="42" y="9" onmousedown="handleZoom(evt,'out')"/>
                <use id="reset" xlink:href="#resetDef" x="30" y="36" onmousedown="handleReset()"/>
                <g id="arrowUp" xlink:href="#dirArrow" transform="translate(30 24)" onmousedown="handlePan(0,-1)">
                  <use xlink:href="#rim" fill="#404040">
                        <set attributeName="fill" to="#808080" begin="arrowUp.mouseover" end="arrowUp.mouseout"/>
                  </use>
                  <path fill="none" stroke="white" stroke-width="1.5" d="M0,-3.0v7 M-2.5,-0.5L0,-3.0L2.5,-0.5"/>
                </g>
                <g id="arrowRight" xlink:href="#dirArrow" transform="rotate(90) translate(36 -43)" onmousedown="handlePan(1,0)">
                  <use xlink:href="#rim" fill="#404040">
                        <set attributeName="fill" to="#808080" begin="arrowRight.mouseover" end="arrowRight.mouseout"/>
                  </use>
                  <path fill="none" stroke="white" stroke-width="1.5" d="M0,-3.0v7 M-2.5,-0.5L0,-3.0L2.5,-0.5"/>
                </g>
                <g id="arrowDown" xlink:href="#dirArrow" transform="rotate(180) translate(-30 -48)" onmousedown="handlePan(0,1)">
                  <use xlink:href="#rim" fill="#404040">
                        <set attributeName="fill" to="#808080" begin="arrowDown.mouseover" end="arrowDown.mouseout"/>
                  </use>
                  <path fill="none" stroke="white" stroke-width="1.5" d="M0,-3.0v7 M-2.5,-0.5L0,-3.0L2.5,-0.5"/>
                </g>
                <g id="arrowLeft" xlink:href="#dirArrow" transform="rotate(270) translate(-36 17)" onmousedown="handlePan(-1,0)">
                  <use xlink:href="#rim" fill="#404040">
                        <set attributeName="fill" to="#808080" begin="arrowLeft.mouseover" end="arrowLeft.mouseout"/>
                  </use>
                  <path fill="none" stroke="white" stroke-width="1.5" d="M0,-3.0v7 M-2.5,-0.5L0,-3.0L2.5,-0.5"/>
                </g>
        </g>
        <svg viewBox="0 0 15 15" width="100%" height="30px" preserveAspectRatio="xMaxYMin meet">
         <g id="arrow_out" transform="scale(0.3 0.3)">
          <a xlink:href="_serializer_8hh__dep__incl_org.svg" target="_base">
           <rect id="button" ry="5" rx="5" y="6" x="6" height="38" width="38"
                fill="#f2f5e9" fill-opacity="0.5" stroke="#606060" stroke-width="1.0"/>
           <path id="arrow"
             d="M 11.500037,31.436501 C 11.940474,20.09759 22.043105,11.32322 32.158766,21.979434 L 37.068811,17.246167 C 37.068811,17.246167 37.088388,32 37.088388,32 L 22.160133,31.978069 C 22.160133,31.978069 26.997745,27.140456 26.997745,27.140456 C 18.528582,18.264221 13.291696,25.230495 11.500037,31.436501 z"
             style="fill:#404040;"/>
          </a>
         </g>
        </svg>
</svg>
