<?xml version="1.0" encoding="UTF-8" standalone="no"?>
<!DOCTYPE svg PUBLIC "-//W3C//DTD SVG 1.1//EN"
 "http://www.w3.org/Graphics/SVG/1.1/DTD/svg11.dtd">
<!-- Generated by graphviz version 2.36.0 (20140111.2315)
 -->
<!-- Title: src/Serializer.hh Pages: 1 -->
<svg width="251pt" height="88pt"
 viewBox="0.00 0.00 251.00 88.00" xmlns="http://www.w3.org/2000/svg" xmlns:xlink="http://www.w3.org/1999/xlink">
<g id="graph0" class="graph" transform="scale(1 1) rotate(0) translate(4 84)">
<title>src/Serializer.hh</title>
<!-- Node1 -->
<g id="node1" class="node"><title>Node1</title>
<polygon fill="#bfbfbf" stroke="black" points="75.5,-59 75.5,-79 170.5,-79 170.5,-59 75.5,-59"/>
<text text-anchor="middle" x="123" y="-66.2" font-family="Avenir-Book" font-size="11.00">src/Serializer.hh</text>
</g>
<!-- Node2 -->
<g id="node2" class="node"><title>Node2</title>
<polygon fill="none" stroke="#bfbfbf" points="-0.5,-1 -0.5,-21 116.5,-21 116.5,-1 -0.5,-1"/>
<text text-anchor="middle" x="58" y="-8.2" font-family="Avenir-Book" font-size="11.00">llvm/ADT/ArrayRef.h</text>
</g>
<!-- Node1&#45;&gt;Node2 -->
<g id="edge1" class="edge"><title>Node1&#45;&gt;Node2</title>
<path fill="none" stroke="midnightblue" d="M112.267,-58.7527C102.517,-50.3534 87.9317,-37.7874 76.3365,-27.7976"/>
<polygon fill="midnightblue" stroke="midnightblue" points="78.3943,-24.9507 68.5337,-21.0752 73.8253,-30.254 78.3943,-24.9507"/>
</g>
<!-- Node3 -->
<g id="node3" class="node"><title>Node3</title>
<polygon fill="none" stroke="#bfbfbf" points="135,-1 135,-21 243,-21 243,-1 135,-1"/>
<text text-anchor="middle" x="189" y="-8.2" font-family="Avenir-Book" font-size="11.00">llvm/IR/IRBuilder.h</text>
</g>
<!-- Node1&#45;&gt;Node3 -->
<g id="edge2" class="edge"><title>Node1&#45;&gt;Node3</title>
<path fill="none" stroke="midnightblue" d="M133.899,-58.7527C143.798,-50.3534 158.608,-37.7874 170.381,-27.7976"/>
<polygon fill="midnightblue" stroke="midnightblue" points="172.944,-30.2138 178.304,-21.0752 168.415,-24.8762 172.944,-30.2138"/>
</g>
</g>
</svg>
