<?xml version="1.0" encoding="UTF-8" standalone="no"?>
<!DOCTYPE svg PUBLIC "-//W3C//DTD SVG 1.1//EN"
 "http://www.w3.org/Graphics/SVG/1.1/DTD/svg11.dtd">
<!-- Generated by graphviz version 2.36.0 (20140111.2315)
 -->
<!-- Title: src/Strings.hh Pages: 1 -->
<svg width="115pt" height="88pt"
 viewBox="0.00 0.00 115.00 88.00" xmlns="http://www.w3.org/2000/svg" xmlns:xlink="http://www.w3.org/1999/xlink">
<g id="graph0" class="graph" transform="scale(1 1) rotate(0) translate(4 84)">
<title>src/Strings.hh</title>
<!-- Node1 -->
<g id="node1" class="node"><title>Node1</title>
<polygon fill="#bfbfbf" stroke="black" points="10,-59 10,-79 94,-79 94,-59 10,-59"/>
<text text-anchor="middle" x="52" y="-66.2" font-family="Avenir-Book" font-size="11.00">src/Strings.hh</text>
</g>
<!-- Node2 -->
<g id="node2" class="node"><title>Node2</title>
<polygon fill="none" stroke="#bfbfbf" points="-0.5,-1 -0.5,-21 42.5,-21 42.5,-1 -0.5,-1"/>
<text text-anchor="middle" x="21" y="-8.2" font-family="Avenir-Book" font-size="11.00">string</text>
</g>
<!-- Node1&#45;&gt;Node2 -->
<g id="edge1" class="edge"><title>Node1&#45;&gt;Node2</title>
<path fill="none" stroke="midnightblue" d="M46.881,-58.7527C42.5473,-50.9242 36.21,-39.4761 30.8912,-29.8679"/>
<polygon fill="midnightblue" stroke="midnightblue" points="33.9291,-28.129 26.0238,-21.0752 27.8048,-31.5193 33.9291,-28.129"/>
</g>
<!-- Node3 -->
<g id="node3" class="node"><title>Node3</title>
<polygon fill="none" stroke="#bfbfbf" points="61,-1 61,-21 107,-21 107,-1 61,-1"/>
<text text-anchor="middle" x="84" y="-8.2" font-family="Avenir-Book" font-size="11.00">vector</text>
</g>
<!-- Node1&#45;&gt;Node3 -->
<g id="edge2" class="edge"><title>Node1&#45;&gt;Node3</title>
<path fill="none" stroke="midnightblue" d="M57.2841,-58.7527C61.7576,-50.9242 68.2994,-39.4761 73.7898,-29.8679"/>
<polygon fill="midnightblue" stroke="midnightblue" points="76.8916,-31.4941 78.8142,-21.0752 70.8139,-28.0211 76.8916,-31.4941"/>
</g>
</g>
</svg>
