<?xml version="1.0" encoding="UTF-8" standalone="no"?>
<!DOCTYPE svg PUBLIC "-//W3C//DTD SVG 1.1//EN"
 "http://www.w3.org/Graphics/SVG/1.1/DTD/svg11.dtd">
<!-- Generated by graphviz version 2.36.0 (20140111.2315)
 -->
<!-- Title: src/Strings.hh Pages: 1 -->
<svg width="203pt" height="88pt"
 viewBox="0.00 0.00 203.00 88.00" xmlns="http://www.w3.org/2000/svg" xmlns:xlink="http://www.w3.org/1999/xlink">
<g id="graph0" class="graph" transform="scale(1 1) rotate(0) translate(4 84)">
<title>src/Strings.hh</title>
<!-- Node1 -->
<g id="node1" class="node"><title>Node1</title>
<polygon fill="#bfbfbf" stroke="black" points="58,-59 58,-79 142,-79 142,-59 58,-59"/>
<text text-anchor="middle" x="100" y="-66.2" font-family="Avenir-Book" font-size="11.00">src/Strings.hh</text>
</g>
<!-- Node2 -->
<g id="node2" class="node"><title>Node2</title>
<g id="a_node2"><a xlink:href="_policy_file_8cc.html" target="_top" xlink:title="Definition of loom::PolicyFile. ">
<polygon fill="none" stroke="black" points="-0.5,-1 -0.5,-21 94.5,-21 94.5,-1 -0.5,-1"/>
<text text-anchor="middle" x="47" y="-8.2" font-family="Avenir-Book" font-size="11.00">src/PolicyFile.cc</text>
</a>
</g>
</g>
<!-- Node1&#45;&gt;Node2 -->
<g id="edge1" class="edge"><title>Node1&#45;&gt;Node2</title>
<path fill="none" stroke="midnightblue" d="M84.2987,-51.4099C74.9064,-41.486 63.3308,-29.2551 55.589,-21.0752"/>
<polygon fill="midnightblue" stroke="midnightblue" points="81.8322,-53.8956 91.2481,-58.7527 86.9163,-49.0839 81.8322,-53.8956"/>
</g>
<!-- Node3 -->
<g id="node3" class="node"><title>Node3</title>
<g id="a_node3"><a xlink:href="_strings_8cc.html" target="_top" xlink:title="Definition of string manipulation functions. ">
<polygon fill="none" stroke="black" points="112.5,-1 112.5,-21 195.5,-21 195.5,-1 112.5,-1"/>
<text text-anchor="middle" x="154" y="-8.2" font-family="Avenir-Book" font-size="11.00">src/Strings.cc</text>
</a>
</g>
</g>
<!-- Node1&#45;&gt;Node3 -->
<g id="edge2" class="edge"><title>Node1&#45;&gt;Node3</title>
<path fill="none" stroke="midnightblue" d="M115.998,-51.4099C125.567,-41.486 137.361,-29.2551 145.249,-21.0752"/>
<polygon fill="midnightblue" stroke="midnightblue" points="113.339,-49.1248 108.917,-58.7527 118.378,-53.9838 113.339,-49.1248"/>
</g>
</g>
</svg>
