<?xml version="1.0" encoding="UTF-8" standalone="no"?>
<!DOCTYPE svg PUBLIC "-//W3C//DTD SVG 1.1//EN"
 "http://www.w3.org/Graphics/SVG/1.1/DTD/svg11.dtd">
<!-- Generated by graphviz version 2.36.0 (20140111.2315)
 -->
<!-- Title: src/Strings.cc Pages: 1 -->
<svg width="247pt" height="146pt"
 viewBox="0.00 0.00 247.00 146.00" xmlns="http://www.w3.org/2000/svg" xmlns:xlink="http://www.w3.org/1999/xlink">
<g id="graph0" class="graph" transform="scale(1 1) rotate(0) translate(4 142)">
<title>src/Strings.cc</title>
<!-- Node1 -->
<g id="node1" class="node"><title>Node1</title>
<polygon fill="#bfbfbf" stroke="black" points="92.5,-117 92.5,-137 175.5,-137 175.5,-117 92.5,-117"/>
<text text-anchor="middle" x="134" y="-124.2" font-family="Avenir-Book" font-size="11.00">src/Strings.cc</text>
</g>
<!-- Node2 -->
<g id="node2" class="node"><title>Node2</title>
<g id="a_node2"><a xlink:href="_strings_8hh.html" target="_top" xlink:title="Declaration of string manipulation functions. ">
<polygon fill="none" stroke="black" points="19,-59 19,-79 85,-79 85,-59 19,-59"/>
<text text-anchor="middle" x="52" y="-66.2" font-family="Avenir-Book" font-size="11.00">Strings.hh</text>
</a>
</g>
</g>
<!-- Node1&#45;&gt;Node2 -->
<g id="edge1" class="edge"><title>Node1&#45;&gt;Node2</title>
<path fill="none" stroke="midnightblue" d="M120.459,-116.753C107.802,-108.109 88.683,-95.0518 73.8638,-84.9314"/>
<polygon fill="midnightblue" stroke="midnightblue" points="75.5206,-81.8245 65.2887,-79.0752 71.5728,-87.6052 75.5206,-81.8245"/>
</g>
<!-- Node5 -->
<g id="node5" class="node"><title>Node5</title>
<polygon fill="none" stroke="#bfbfbf" points="103,-59 103,-79 165,-79 165,-59 103,-59"/>
<text text-anchor="middle" x="134" y="-66.2" font-family="Avenir-Book" font-size="11.00">algorithm</text>
</g>
<!-- Node1&#45;&gt;Node5 -->
<g id="edge4" class="edge"><title>Node1&#45;&gt;Node5</title>
<path fill="none" stroke="midnightblue" d="M134,-116.753C134,-109.25 134,-98.4238 134,-89.0781"/>
<polygon fill="midnightblue" stroke="midnightblue" points="137.5,-89.0752 134,-79.0752 130.5,-89.0752 137.5,-89.0752"/>
</g>
<!-- Node6 -->
<g id="node6" class="node"><title>Node6</title>
<polygon fill="none" stroke="#bfbfbf" points="183,-59 183,-79 239,-79 239,-59 183,-59"/>
<text text-anchor="middle" x="211" y="-66.2" font-family="Avenir-Book" font-size="11.00">sstream</text>
</g>
<!-- Node1&#45;&gt;Node6 -->
<g id="edge5" class="edge"><title>Node1&#45;&gt;Node6</title>
<path fill="none" stroke="midnightblue" d="M146.715,-116.753C158.488,-108.19 176.216,-95.2978 190.074,-85.2186"/>
<polygon fill="midnightblue" stroke="midnightblue" points="192.493,-87.7875 198.522,-79.0752 188.376,-82.1264 192.493,-87.7875"/>
</g>
<!-- Node3 -->
<g id="node3" class="node"><title>Node3</title>
<polygon fill="none" stroke="#bfbfbf" points="-0.5,-1 -0.5,-21 42.5,-21 42.5,-1 -0.5,-1"/>
<text text-anchor="middle" x="21" y="-8.2" font-family="Avenir-Book" font-size="11.00">string</text>
</g>
<!-- Node2&#45;&gt;Node3 -->
<g id="edge2" class="edge"><title>Node2&#45;&gt;Node3</title>
<path fill="none" stroke="midnightblue" d="M46.881,-58.7527C42.5473,-50.9242 36.21,-39.4761 30.8912,-29.8679"/>
<polygon fill="midnightblue" stroke="midnightblue" points="33.9291,-28.129 26.0238,-21.0752 27.8048,-31.5193 33.9291,-28.129"/>
</g>
<!-- Node4 -->
<g id="node4" class="node"><title>Node4</title>
<polygon fill="none" stroke="#bfbfbf" points="61,-1 61,-21 107,-21 107,-1 61,-1"/>
<text text-anchor="middle" x="84" y="-8.2" font-family="Avenir-Book" font-size="11.00">vector</text>
</g>
<!-- Node2&#45;&gt;Node4 -->
<g id="edge3" class="edge"><title>Node2&#45;&gt;Node4</title>
<path fill="none" stroke="midnightblue" d="M57.2841,-58.7527C61.7576,-50.9242 68.2994,-39.4761 73.7898,-29.8679"/>
<polygon fill="midnightblue" stroke="midnightblue" points="76.8916,-31.4941 78.8142,-21.0752 70.8139,-28.0211 76.8916,-31.4941"/>
</g>
</g>
</svg>
