<?xml version="1.0" encoding="UTF-8" standalone="no"?>
<!DOCTYPE svg PUBLIC "-//W3C//DTD SVG 1.1//EN"
 "http://www.w3.org/Graphics/SVG/1.1/DTD/svg11.dtd">
<!-- Generated by graphviz version 2.36.0 (20140111.2315)
 -->
<!-- Title: loom::NullSerializer Pages: 1 -->
<svg width="118pt" height="288pt"
 viewBox="0.00 0.00 118.00 288.00" xmlns="http://www.w3.org/2000/svg" xmlns:xlink="http://www.w3.org/1999/xlink">
<g id="graph0" class="graph" transform="scale(1 1) rotate(0) translate(4 284)">
<title>loom::NullSerializer</title>
<!-- Node1 -->
<g id="node1" class="node"><title>Node1</title>
<polygon fill="#bfbfbf" stroke="black" points="-0.5,-1 -0.5,-97 110.5,-97 110.5,-1 -0.5,-1"/>
<text text-anchor="middle" x="55" y="-84.2" font-family="Avenir-Book" font-size="11.00">loom::NullSerializer</text>
<polyline fill="none" stroke="black" points="-0.5,-77 110.5,-77 "/>
<text text-anchor="middle" x="55" y="-64.2" font-family="Avenir-Book" font-size="11.00"> </text>
<polyline fill="none" stroke="black" points="-0.5,-57 110.5,-57 "/>
<text text-anchor="start" x="7.5" y="-44.2" font-family="Avenir-Book" font-size="11.00">+ NullSerializer()</text>
<text text-anchor="start" x="7.5" y="-32.2" font-family="Avenir-Book" font-size="11.00">+ SchemeName()</text>
<text text-anchor="start" x="7.5" y="-20.2" font-family="Avenir-Book" font-size="11.00">+ Serialize()</text>
<text text-anchor="start" x="7.5" y="-8.2" font-family="Avenir-Book" font-size="11.00">+ Cleanup()</text>
</g>
<!-- Node2 -->
<g id="node2" class="node"><title>Node2</title>
<g id="a_node2"><a xlink:href="classloom_1_1_serializer.html" target="_top" xlink:title="A tool that can transform a set of values into a serialized representation. ">
<polygon fill="none" stroke="black" points="3.5,-135 3.5,-279 106.5,-279 106.5,-135 3.5,-135"/>
<text text-anchor="middle" x="55" y="-266.2" font-family="Avenir-Book" font-size="11.00">loom::Serializer</text>
<polyline fill="none" stroke="black" points="3.5,-259 106.5,-259 "/>
<text text-anchor="start" x="11.5" y="-246.2" font-family="Avenir-Book" font-size="11.00"># Ctx</text>
<text text-anchor="start" x="11.5" y="-234.2" font-family="Avenir-Book" font-size="11.00"># Byte</text>
<text text-anchor="start" x="11.5" y="-222.2" font-family="Avenir-Book" font-size="11.00"># BytePtr</text>
<text text-anchor="start" x="11.5" y="-210.2" font-family="Avenir-Book" font-size="11.00"># SizeT</text>
<polyline fill="none" stroke="black" points="3.5,-203 106.5,-203 "/>
<text text-anchor="start" x="11.5" y="-190.2" font-family="Avenir-Book" font-size="11.00">+ SchemeName()</text>
<text text-anchor="start" x="11.5" y="-178.2" font-family="Avenir-Book" font-size="11.00">+ Serialize()</text>
<text text-anchor="start" x="11.5" y="-166.2" font-family="Avenir-Book" font-size="11.00">+ Cleanup()</text>
<text text-anchor="start" x="11.5" y="-154.2" font-family="Avenir-Book" font-size="11.00">+ None()</text>
<text text-anchor="start" x="11.5" y="-142.2" font-family="Avenir-Book" font-size="11.00"># Serializer()</text>
</a>
</g>
</g>
<!-- Node2&#45;&gt;Node1 -->
<g id="edge1" class="edge"><title>Node2&#45;&gt;Node1</title>
<path fill="none" stroke="midnightblue" d="M55,-124.704C55,-115.355 55,-106.07 55,-97.3858"/>
<polygon fill="none" stroke="midnightblue" points="51.5001,-124.848 55,-134.848 58.5001,-124.848 51.5001,-124.848"/>
</g>
</g>
</svg>
