<?xml version="1.0" encoding="UTF-8" standalone="no"?>
<!DOCTYPE svg PUBLIC "-//W3C//DTD SVG 1.1//EN"
 "http://www.w3.org/Graphics/SVG/1.1/DTD/svg11.dtd">
<!-- Generated by graphviz version 2.38.0 (20140413.2041)
 -->
<!-- Title: Logger Pages: 1 -->
<svg width="356pt" height="395pt"
 viewBox="0.00 0.00 355.50 395.00" xmlns="http://www.w3.org/2000/svg" xmlns:xlink="http://www.w3.org/1999/xlink">
<g id="graph0" class="graph" transform="scale(1 1) rotate(0) translate(4 391)">
<title>Logger</title>
<!-- Node0 -->
<g id="node1" class="node"><title>Node0</title>
<polygon fill="#bfbfbf" stroke="black" points="85,-302.5 85,-386.5 162,-386.5 162,-302.5 85,-302.5"/>
<text text-anchor="middle" x="123.5" y="-373.7" font-family="Avenir-Book" font-size="11.00">Logger</text>
<polyline fill="none" stroke="black" points="85,-366.5 162,-366.5 "/>
<text text-anchor="start" x="93" y="-353.7" font-family="Avenir-Book" font-size="11.00"># Mod</text>
<polyline fill="none" stroke="black" points="85,-346.5 162,-346.5 "/>
<text text-anchor="start" x="93" y="-333.7" font-family="Avenir-Book" font-size="11.00">+ Log()</text>
<text text-anchor="start" x="93" y="-321.7" font-family="Avenir-Book" font-size="11.00">+ Log()</text>
<text text-anchor="start" x="93" y="-309.7" font-family="Avenir-Book" font-size="11.00"># Logger()</text>
</g>
<!-- Node1 -->
<g id="node2" class="node"><title>Node1</title>
<g id="a_node2"><a xlink:href="classloom_1_1KTraceLogger.html" target="_top" xlink:title="A logging technique that serializes values with libnv and writes them to the BSD ktrace framework...">
<polygon fill="none" stroke="black" points="0,-157.5 0,-229.5 113,-229.5 113,-157.5 0,-157.5"/>
<text text-anchor="middle" x="56.5" y="-216.7" font-family="Avenir-Book" font-size="11.00">KTraceLogger</text>
<polyline fill="none" stroke="black" points="0,-209.5 113,-209.5 "/>
<text text-anchor="middle" x="56.5" y="-196.7" font-family="Avenir-Book" font-size="11.00"> </text>
<polyline fill="none" stroke="black" points="0,-189.5 113,-189.5 "/>
<text text-anchor="start" x="8" y="-176.7" font-family="Avenir-Book" font-size="11.00">+ KTraceLogger()</text>
<text text-anchor="start" x="8" y="-164.7" font-family="Avenir-Book" font-size="11.00">+ Log()</text>
</a>
</g>
</g>
<!-- Node0&#45;&gt;Node1 -->
<g id="edge1" class="edge"><title>Node0&#45;&gt;Node1</title>
<path fill="none" stroke="midnightblue" d="M100.828,-293.08C91.4969,-272.329 80.9101,-248.785 72.4232,-229.911"/>
<polygon fill="none" stroke="midnightblue" points="97.7213,-294.706 105.015,-302.391 104.106,-291.835 97.7213,-294.706"/>
</g>
<!-- Node2 -->
<g id="node3" class="node"><title>Node2</title>
<g id="a_node3"><a xlink:href="classloom_1_1SimpleLogger.html" target="_top" xlink:title="A logging technique that requires a single call to a printf&#45;like function. ">
<polygon fill="none" stroke="black" points="131.5,-121.5 131.5,-265.5 249.5,-265.5 249.5,-121.5 131.5,-121.5"/>
<text text-anchor="middle" x="190.5" y="-252.7" font-family="Avenir-Book" font-size="11.00">SimpleLogger</text>
<polyline fill="none" stroke="black" points="131.5,-245.5 249.5,-245.5 "/>
<text text-anchor="start" x="139.5" y="-232.7" font-family="Avenir-Book" font-size="11.00"># FormatStrings</text>
<polyline fill="none" stroke="black" points="131.5,-225.5 249.5,-225.5 "/>
<text text-anchor="start" x="139.5" y="-212.7" font-family="Avenir-Book" font-size="11.00">+ Log()</text>
<text text-anchor="start" x="139.5" y="-200.7" font-family="Avenir-Book" font-size="11.00">+ Call()</text>
<text text-anchor="start" x="139.5" y="-188.7" font-family="Avenir-Book" font-size="11.00">+ Create()</text>
<text text-anchor="start" x="139.5" y="-176.7" font-family="Avenir-Book" font-size="11.00"># SimpleLogger()</text>
<text text-anchor="start" x="139.5" y="-164.7" font-family="Avenir-Book" font-size="11.00"># GetFunction()</text>
<text text-anchor="start" x="139.5" y="-152.7" font-family="Avenir-Book" font-size="11.00"># FunctionName()</text>
<text text-anchor="start" x="139.5" y="-140.7" font-family="Avenir-Book" font-size="11.00"># GetType()</text>
<text text-anchor="start" x="139.5" y="-128.7" font-family="Avenir-Book" font-size="11.00">and 3 more...</text>
</a>
</g>
</g>
<!-- Node0&#45;&gt;Node2 -->
<g id="edge2" class="edge"><title>Node0&#45;&gt;Node2</title>
<path fill="none" stroke="midnightblue" d="M146.172,-293.08C150.123,-284.293 154.299,-275.006 158.446,-265.785"/>
<polygon fill="none" stroke="midnightblue" points="142.894,-291.835 141.985,-302.391 149.279,-294.706 142.894,-291.835"/>
</g>
<!-- Node3 -->
<g id="node4" class="node"><title>Node3</title>
<g id="a_node4"><a xlink:href="classanonymous__namespace_02Logger_8cc_03_1_1LibxoLogger.html" target="_top" xlink:title="A logger that calls libxo&#39;s xo_emit(). ">
<polygon fill="none" stroke="black" points="33.5,-0.5 33.5,-84.5 181.5,-84.5 181.5,-0.5 33.5,-0.5"/>
<text text-anchor="middle" x="107.5" y="-71.7" font-family="Avenir-Book" font-size="11.00">LibxoLogger</text>
<polyline fill="none" stroke="black" points="33.5,-64.5 181.5,-64.5 "/>
<text text-anchor="middle" x="107.5" y="-51.7" font-family="Avenir-Book" font-size="11.00"> </text>
<polyline fill="none" stroke="black" points="33.5,-44.5 181.5,-44.5 "/>
<text text-anchor="start" x="41.5" y="-31.7" font-family="Avenir-Book" font-size="11.00">+ LibxoLogger()</text>
<text text-anchor="start" x="41.5" y="-19.7" font-family="Avenir-Book" font-size="11.00">+ FunctionName()</text>
<text text-anchor="start" x="41.5" y="-7.7" font-family="Avenir-Book" font-size="11.00">+ CreateFormatString()</text>
</a>
</g>
</g>
<!-- Node2&#45;&gt;Node3 -->
<g id="edge3" class="edge"><title>Node2&#45;&gt;Node3</title>
<path fill="none" stroke="midnightblue" d="M146.011,-112.634C140.647,-103.006 135.351,-93.4976 130.482,-84.7575"/>
<polygon fill="none" stroke="midnightblue" points="143.021,-114.458 150.945,-121.491 149.136,-111.052 143.021,-114.458"/>
</g>
<!-- Node4 -->
<g id="node5" class="node"><title>Node4</title>
<g id="a_node5"><a xlink:href="classanonymous__namespace_02Logger_8cc_03_1_1PrintfLogger.html" target="_top" xlink:title="A logger that calls printf(). ">
<polygon fill="none" stroke="black" points="199.5,-0.5 199.5,-84.5 347.5,-84.5 347.5,-0.5 199.5,-0.5"/>
<text text-anchor="middle" x="273.5" y="-71.7" font-family="Avenir-Book" font-size="11.00">PrintfLogger</text>
<polyline fill="none" stroke="black" points="199.5,-64.5 347.5,-64.5 "/>
<text text-anchor="middle" x="273.5" y="-51.7" font-family="Avenir-Book" font-size="11.00"> </text>
<polyline fill="none" stroke="black" points="199.5,-44.5 347.5,-44.5 "/>
<text text-anchor="start" x="207.5" y="-31.7" font-family="Avenir-Book" font-size="11.00">+ PrintfLogger()</text>
<text text-anchor="start" x="207.5" y="-19.7" font-family="Avenir-Book" font-size="11.00">+ FunctionName()</text>
<text text-anchor="start" x="207.5" y="-7.7" font-family="Avenir-Book" font-size="11.00">+ CreateFormatString()</text>
</a>
</g>
</g>
<!-- Node2&#45;&gt;Node4 -->
<g id="edge4" class="edge"><title>Node2&#45;&gt;Node4</title>
<path fill="none" stroke="midnightblue" d="M234.989,-112.634C240.353,-103.006 245.649,-93.4976 250.518,-84.7575"/>
<polygon fill="none" stroke="midnightblue" points="231.864,-111.052 230.055,-121.491 237.979,-114.458 231.864,-111.052"/>
</g>
</g>
</svg>
