<?xml version="1.0" encoding="UTF-8" standalone="no"?>
<!DOCTYPE svg PUBLIC "-//W3C//DTD SVG 1.1//EN"
 "http://www.w3.org/Graphics/SVG/1.1/DTD/svg11.dtd">
<!-- Generated by graphviz version 2.36.0 (20140111.2315)
 -->
<!-- Title: loom::SimpleLogger Pages: 1 -->
<svg width="122pt" height="276pt"
 viewBox="0.00 0.00 122.00 276.00" xmlns="http://www.w3.org/2000/svg" xmlns:xlink="http://www.w3.org/1999/xlink">
<g id="graph0" class="graph" transform="scale(1 1) rotate(0) translate(4 272)">
<title>loom::SimpleLogger</title>
<!-- Node1 -->
<g id="node1" class="node"><title>Node1</title>
<polygon fill="#bfbfbf" stroke="black" points="0,-1 0,-145 114,-145 114,-1 0,-1"/>
<text text-anchor="middle" x="57" y="-132.2" font-family="Avenir-Book" font-size="11.00">loom::SimpleLogger</text>
<polyline fill="none" stroke="black" points="0,-125 114,-125 "/>
<text text-anchor="start" x="8" y="-112.2" font-family="Avenir-Book" font-size="11.00"># FormatStrings</text>
<polyline fill="none" stroke="black" points="0,-105 114,-105 "/>
<text text-anchor="start" x="8" y="-92.2" font-family="Avenir-Book" font-size="11.00">+ Log()</text>
<text text-anchor="start" x="8" y="-80.2" font-family="Avenir-Book" font-size="11.00">+ Call()</text>
<text text-anchor="start" x="8" y="-68.2" font-family="Avenir-Book" font-size="11.00">+ Create()</text>
<text text-anchor="start" x="8" y="-56.2" font-family="Avenir-Book" font-size="11.00"># SimpleLogger()</text>
<text text-anchor="start" x="8" y="-44.2" font-family="Avenir-Book" font-size="11.00"># GetFunction()</text>
<text text-anchor="start" x="8" y="-32.2" font-family="Avenir-Book" font-size="11.00"># FunctionName()</text>
<text text-anchor="start" x="8" y="-20.2" font-family="Avenir-Book" font-size="11.00"># GetType()</text>
<text text-anchor="start" x="8" y="-8.2" font-family="Avenir-Book" font-size="11.00">and 3 more...</text>
</g>
<!-- Node2 -->
<g id="node2" class="node"><title>Node2</title>
<g id="a_node2"><a xlink:href="classloom_1_1_logger.html" target="_top" xlink:title="Something that can be used to log events, e.g., printf or libxo. ">
<polygon fill="none" stroke="black" points="16.5,-183 16.5,-267 97.5,-267 97.5,-183 16.5,-183"/>
<text text-anchor="middle" x="57" y="-254.2" font-family="Avenir-Book" font-size="11.00">loom::Logger</text>
<polyline fill="none" stroke="black" points="16.5,-247 97.5,-247 "/>
<text text-anchor="start" x="24.5" y="-234.2" font-family="Avenir-Book" font-size="11.00"># Mod</text>
<polyline fill="none" stroke="black" points="16.5,-227 97.5,-227 "/>
<text text-anchor="start" x="24.5" y="-214.2" font-family="Avenir-Book" font-size="11.00">+ Log()</text>
<text text-anchor="start" x="24.5" y="-202.2" font-family="Avenir-Book" font-size="11.00">+ Log()</text>
<text text-anchor="start" x="24.5" y="-190.2" font-family="Avenir-Book" font-size="11.00"># Logger()</text>
</a>
</g>
</g>
<!-- Node2&#45;&gt;Node1 -->
<g id="edge1" class="edge"><title>Node2&#45;&gt;Node1</title>
<path fill="none" stroke="midnightblue" d="M57,-172.522C57,-163.707 57,-154.409 57,-145.189"/>
<polygon fill="none" stroke="midnightblue" points="53.5001,-172.615 57,-182.615 60.5001,-172.615 53.5001,-172.615"/>
</g>
</g>
</svg>
