<?xml version="1.0" encoding="UTF-8" standalone="no"?>
<!DOCTYPE svg PUBLIC "-//W3C//DTD SVG 1.1//EN"
 "http://www.w3.org/Graphics/SVG/1.1/DTD/svg11.dtd">
<!-- Generated by graphviz version 2.38.0 (20140413.2041)
 -->
<!-- Title: loom::Logger Pages: 1 -->
<svg width="276pt" height="274pt"
 viewBox="0.00 0.00 276.00 274.00" xmlns="http://www.w3.org/2000/svg" xmlns:xlink="http://www.w3.org/1999/xlink">
<g id="graph0" class="graph" transform="scale(1 1) rotate(0) translate(4 270)">
<title>loom::Logger</title>
<!-- Node0 -->
<g id="node1" class="node"><title>Node0</title>
<polygon fill="#bfbfbf" stroke="black" points="89,-181.5 89,-265.5 178,-265.5 178,-181.5 89,-181.5"/>
<text text-anchor="middle" x="133.5" y="-252.7" font-family="Avenir-Book" font-size="11.00">loom::Logger</text>
<polyline fill="none" stroke="black" points="89,-245.5 178,-245.5 "/>
<text text-anchor="start" x="97" y="-232.7" font-family="Avenir-Book" font-size="11.00"># Mod</text>
<polyline fill="none" stroke="black" points="89,-225.5 178,-225.5 "/>
<text text-anchor="start" x="97" y="-212.7" font-family="Avenir-Book" font-size="11.00">+ Log()</text>
<text text-anchor="start" x="97" y="-200.7" font-family="Avenir-Book" font-size="11.00">+ Log()</text>
<text text-anchor="start" x="97" y="-188.7" font-family="Avenir-Book" font-size="11.00"># Logger()</text>
</g>
<!-- Node1 -->
<g id="node2" class="node"><title>Node1</title>
<g id="a_node2"><a xlink:href="classloom_1_1KTraceLogger.html" target="_top" xlink:title="A logging technique that serializes values with libnv and writes them to the BSD ktrace framework...">
<polygon fill="none" stroke="black" points="0,-36.5 0,-108.5 125,-108.5 125,-36.5 0,-36.5"/>
<text text-anchor="middle" x="62.5" y="-95.7" font-family="Avenir-Book" font-size="11.00">loom::KTraceLogger</text>
<polyline fill="none" stroke="black" points="0,-88.5 125,-88.5 "/>
<text text-anchor="middle" x="62.5" y="-75.7" font-family="Avenir-Book" font-size="11.00"> </text>
<polyline fill="none" stroke="black" points="0,-68.5 125,-68.5 "/>
<text text-anchor="start" x="8" y="-55.7" font-family="Avenir-Book" font-size="11.00">+ KTraceLogger()</text>
<text text-anchor="start" x="8" y="-43.7" font-family="Avenir-Book" font-size="11.00">+ Log()</text>
</a>
</g>
</g>
<!-- Node0&#45;&gt;Node1 -->
<g id="edge1" class="edge"><title>Node0&#45;&gt;Node1</title>
<path fill="none" stroke="midnightblue" d="M109.608,-172.36C99.6874,-151.541 88.408,-127.87 79.3738,-108.911"/>
<polygon fill="none" stroke="midnightblue" points="106.45,-173.869 113.911,-181.391 112.769,-170.858 106.45,-173.869"/>
</g>
<!-- Node2 -->
<g id="node3" class="node"><title>Node2</title>
<g id="a_node3"><a xlink:href="classloom_1_1SimpleLogger.html" target="_top" xlink:title="A logging technique that requires a single call to a printf&#45;like function. ">
<polygon fill="none" stroke="black" points="143,-0.5 143,-144.5 268,-144.5 268,-0.5 143,-0.5"/>
<text text-anchor="middle" x="205.5" y="-131.7" font-family="Avenir-Book" font-size="11.00">loom::SimpleLogger</text>
<polyline fill="none" stroke="black" points="143,-124.5 268,-124.5 "/>
<text text-anchor="start" x="151" y="-111.7" font-family="Avenir-Book" font-size="11.00"># FormatStrings</text>
<polyline fill="none" stroke="black" points="143,-104.5 268,-104.5 "/>
<text text-anchor="start" x="151" y="-91.7" font-family="Avenir-Book" font-size="11.00">+ Log()</text>
<text text-anchor="start" x="151" y="-79.7" font-family="Avenir-Book" font-size="11.00">+ Call()</text>
<text text-anchor="start" x="151" y="-67.7" font-family="Avenir-Book" font-size="11.00">+ Create()</text>
<text text-anchor="start" x="151" y="-55.7" font-family="Avenir-Book" font-size="11.00"># SimpleLogger()</text>
<text text-anchor="start" x="151" y="-43.7" font-family="Avenir-Book" font-size="11.00"># GetFunction()</text>
<text text-anchor="start" x="151" y="-31.7" font-family="Avenir-Book" font-size="11.00"># FunctionName()</text>
<text text-anchor="start" x="151" y="-19.7" font-family="Avenir-Book" font-size="11.00"># GetType()</text>
<text text-anchor="start" x="151" y="-7.7" font-family="Avenir-Book" font-size="11.00">and 3 more...</text>
</a>
</g>
</g>
<!-- Node0&#45;&gt;Node2 -->
<g id="edge2" class="edge"><title>Node0&#45;&gt;Node2</title>
<path fill="none" stroke="midnightblue" d="M157.729,-172.36C162.014,-163.491 166.55,-154.104 171.054,-144.785"/>
<polygon fill="none" stroke="midnightblue" points="154.564,-170.864 153.365,-181.391 160.867,-173.91 154.564,-170.864"/>
</g>
</g>
</svg>
