<?xml version="1.0" encoding="UTF-8" standalone="no"?>
<!DOCTYPE svg PUBLIC "-//W3C//DTD SVG 1.1//EN"
 "http://www.w3.org/Graphics/SVG/1.1/DTD/svg11.dtd">
<!-- Generated by graphviz version 2.38.0 (20140413.2041)
 -->
<!-- Title: PrintfLogger Pages: 1 -->
<svg width="156pt" height="395pt"
 viewBox="0.00 0.00 156.00 395.00" xmlns="http://www.w3.org/2000/svg" xmlns:xlink="http://www.w3.org/1999/xlink">
<g id="graph0" class="graph" transform="scale(1 1) rotate(0) translate(4 391)">
<title>PrintfLogger</title>
<!-- Node0 -->
<g id="node1" class="node"><title>Node0</title>
<polygon fill="#bfbfbf" stroke="black" points="0,-0.5 0,-84.5 148,-84.5 148,-0.5 0,-0.5"/>
<text text-anchor="middle" x="74" y="-71.7" font-family="Avenir-Book" font-size="11.00">PrintfLogger</text>
<polyline fill="none" stroke="black" points="0,-64.5 148,-64.5 "/>
<text text-anchor="middle" x="74" y="-51.7" font-family="Avenir-Book" font-size="11.00"> </text>
<polyline fill="none" stroke="black" points="0,-44.5 148,-44.5 "/>
<text text-anchor="start" x="8" y="-31.7" font-family="Avenir-Book" font-size="11.00">+ PrintfLogger()</text>
<text text-anchor="start" x="8" y="-19.7" font-family="Avenir-Book" font-size="11.00">+ FunctionName()</text>
<text text-anchor="start" x="8" y="-7.7" font-family="Avenir-Book" font-size="11.00">+ CreateFormatString()</text>
</g>
<!-- Node1 -->
<g id="node2" class="node"><title>Node1</title>
<g id="a_node2"><a xlink:href="classloom_1_1SimpleLogger.html" target="_top" xlink:title="A logging technique that requires a single call to a printf&#45;like function. ">
<polygon fill="none" stroke="black" points="15,-121.5 15,-265.5 133,-265.5 133,-121.5 15,-121.5"/>
<text text-anchor="middle" x="74" y="-252.7" font-family="Avenir-Book" font-size="11.00">SimpleLogger</text>
<polyline fill="none" stroke="black" points="15,-245.5 133,-245.5 "/>
<text text-anchor="start" x="23" y="-232.7" font-family="Avenir-Book" font-size="11.00"># FormatStrings</text>
<polyline fill="none" stroke="black" points="15,-225.5 133,-225.5 "/>
<text text-anchor="start" x="23" y="-212.7" font-family="Avenir-Book" font-size="11.00">+ Log()</text>
<text text-anchor="start" x="23" y="-200.7" font-family="Avenir-Book" font-size="11.00">+ Call()</text>
<text text-anchor="start" x="23" y="-188.7" font-family="Avenir-Book" font-size="11.00">+ Create()</text>
<text text-anchor="start" x="23" y="-176.7" font-family="Avenir-Book" font-size="11.00"># SimpleLogger()</text>
<text text-anchor="start" x="23" y="-164.7" font-family="Avenir-Book" font-size="11.00"># GetFunction()</text>
<text text-anchor="start" x="23" y="-152.7" font-family="Avenir-Book" font-size="11.00"># FunctionName()</text>
<text text-anchor="start" x="23" y="-140.7" font-family="Avenir-Book" font-size="11.00"># GetType()</text>
<text text-anchor="start" x="23" y="-128.7" font-family="Avenir-Book" font-size="11.00">and 3 more...</text>
</a>
</g>
</g>
<!-- Node1&#45;&gt;Node0 -->
<g id="edge1" class="edge"><title>Node1&#45;&gt;Node0</title>
<path fill="none" stroke="midnightblue" d="M74,-111.455C74,-102.231 74,-93.1409 74,-84.7575"/>
<polygon fill="none" stroke="midnightblue" points="70.5001,-111.491 74,-121.491 77.5001,-111.491 70.5001,-111.491"/>
</g>
<!-- Node2 -->
<g id="node3" class="node"><title>Node2</title>
<g id="a_node3"><a xlink:href="classloom_1_1Logger.html" target="_top" xlink:title="Something that can be used to log events, e.g., printf or libxo. ">
<polygon fill="none" stroke="black" points="35.5,-302.5 35.5,-386.5 112.5,-386.5 112.5,-302.5 35.5,-302.5"/>
<text text-anchor="middle" x="74" y="-373.7" font-family="Avenir-Book" font-size="11.00">Logger</text>
<polyline fill="none" stroke="black" points="35.5,-366.5 112.5,-366.5 "/>
<text text-anchor="start" x="43.5" y="-353.7" font-family="Avenir-Book" font-size="11.00"># Mod</text>
<polyline fill="none" stroke="black" points="35.5,-346.5 112.5,-346.5 "/>
<text text-anchor="start" x="43.5" y="-333.7" font-family="Avenir-Book" font-size="11.00">+ Log()</text>
<text text-anchor="start" x="43.5" y="-321.7" font-family="Avenir-Book" font-size="11.00">+ Log()</text>
<text text-anchor="start" x="43.5" y="-309.7" font-family="Avenir-Book" font-size="11.00"># Logger()</text>
</a>
</g>
</g>
<!-- Node2&#45;&gt;Node1 -->
<g id="edge2" class="edge"><title>Node2&#45;&gt;Node1</title>
<path fill="none" stroke="midnightblue" d="M74,-292.237C74,-283.701 74,-274.712 74,-265.785"/>
<polygon fill="none" stroke="midnightblue" points="70.5001,-292.391 74,-302.391 77.5001,-292.391 70.5001,-292.391"/>
</g>
</g>
</svg>
