<?xml version="1.0" encoding="UTF-8" standalone="no"?>
<!DOCTYPE svg PUBLIC "-//W3C//DTD SVG 1.1//EN"
 "http://www.w3.org/Graphics/SVG/1.1/DTD/svg11.dtd">
<!-- Generated by graphviz version 2.38.0 (20140413.2041)
 -->
<!-- Title: Serializer Pages: 1 -->
<svg width="260pt" height="286pt"
 viewBox="0.00 0.00 260.00 286.00" xmlns="http://www.w3.org/2000/svg" xmlns:xlink="http://www.w3.org/1999/xlink">
<g id="graph0" class="graph" transform="scale(1 1) rotate(0) translate(4 282)">
<title>Serializer</title>
<!-- Node0 -->
<g id="node1" class="node"><title>Node0</title>
<polygon fill="#bfbfbf" stroke="black" points="67,-133.5 67,-277.5 184,-277.5 184,-133.5 67,-133.5"/>
<text text-anchor="middle" x="125.5" y="-264.7" font-family="Avenir-Book" font-size="11.00">Serializer</text>
<polyline fill="none" stroke="black" points="67,-257.5 184,-257.5 "/>
<text text-anchor="start" x="75" y="-244.7" font-family="Avenir-Book" font-size="11.00"># Ctx</text>
<text text-anchor="start" x="75" y="-232.7" font-family="Avenir-Book" font-size="11.00"># Byte</text>
<text text-anchor="start" x="75" y="-220.7" font-family="Avenir-Book" font-size="11.00"># BytePtr</text>
<text text-anchor="start" x="75" y="-208.7" font-family="Avenir-Book" font-size="11.00"># SizeT</text>
<polyline fill="none" stroke="black" points="67,-201.5 184,-201.5 "/>
<text text-anchor="start" x="75" y="-188.7" font-family="Avenir-Book" font-size="11.00">+ SchemeName()</text>
<text text-anchor="start" x="75" y="-176.7" font-family="Avenir-Book" font-size="11.00">+ Serialize()</text>
<text text-anchor="start" x="75" y="-164.7" font-family="Avenir-Book" font-size="11.00">+ Cleanup()</text>
<text text-anchor="start" x="75" y="-152.7" font-family="Avenir-Book" font-size="11.00">+ None()</text>
<text text-anchor="start" x="75" y="-140.7" font-family="Avenir-Book" font-size="11.00"># Serializer()</text>
</g>
<!-- Node1 -->
<g id="node2" class="node"><title>Node1</title>
<g id="a_node2"><a xlink:href="classloom_1_1NullSerializer.html" target="_top" xlink:title="A Serializer that doesn&#39;t serialize anything. ">
<polygon fill="none" stroke="black" points="0,-0.5 0,-96.5 117,-96.5 117,-0.5 0,-0.5"/>
<text text-anchor="middle" x="58.5" y="-83.7" font-family="Avenir-Book" font-size="11.00">NullSerializer</text>
<polyline fill="none" stroke="black" points="0,-76.5 117,-76.5 "/>
<text text-anchor="middle" x="58.5" y="-63.7" font-family="Avenir-Book" font-size="11.00"> </text>
<polyline fill="none" stroke="black" points="0,-56.5 117,-56.5 "/>
<text text-anchor="start" x="8" y="-43.7" font-family="Avenir-Book" font-size="11.00">+ NullSerializer()</text>
<text text-anchor="start" x="8" y="-31.7" font-family="Avenir-Book" font-size="11.00">+ SchemeName()</text>
<text text-anchor="start" x="8" y="-19.7" font-family="Avenir-Book" font-size="11.00">+ Serialize()</text>
<text text-anchor="start" x="8" y="-7.7" font-family="Avenir-Book" font-size="11.00">+ Cleanup()</text>
</a>
</g>
</g>
<!-- Node0&#45;&gt;Node1 -->
<g id="edge1" class="edge"><title>Node0&#45;&gt;Node1</title>
<path fill="none" stroke="midnightblue" d="M90.7114,-124.019C86.6771,-114.686 82.6677,-105.41 78.9178,-96.7353"/>
<polygon fill="none" stroke="midnightblue" points="87.5648,-125.561 94.7453,-133.351 93.9902,-122.783 87.5648,-125.561"/>
</g>
<!-- Node2 -->
<g id="node3" class="node"><title>Node2</title>
<g id="a_node3"><a xlink:href="classloom_1_1NVSerializer.html" target="_top" xlink:title="A Serializer that uses libnv to aggregate values. ">
<polygon fill="none" stroke="black" points="135,-0.5 135,-96.5 252,-96.5 252,-0.5 135,-0.5"/>
<text text-anchor="middle" x="193.5" y="-83.7" font-family="Avenir-Book" font-size="11.00">NVSerializer</text>
<polyline fill="none" stroke="black" points="135,-76.5 252,-76.5 "/>
<text text-anchor="middle" x="193.5" y="-63.7" font-family="Avenir-Book" font-size="11.00"> </text>
<polyline fill="none" stroke="black" points="135,-56.5 252,-56.5 "/>
<text text-anchor="start" x="143" y="-43.7" font-family="Avenir-Book" font-size="11.00">+ NVSerializer()</text>
<text text-anchor="start" x="143" y="-31.7" font-family="Avenir-Book" font-size="11.00">+ SchemeName()</text>
<text text-anchor="start" x="143" y="-19.7" font-family="Avenir-Book" font-size="11.00">+ Serialize()</text>
<text text-anchor="start" x="143" y="-7.7" font-family="Avenir-Book" font-size="11.00">+ Cleanup()</text>
</a>
</g>
</g>
<!-- Node0&#45;&gt;Node2 -->
<g id="edge2" class="edge"><title>Node0&#45;&gt;Node2</title>
<path fill="none" stroke="midnightblue" d="M160.808,-124.019C164.902,-114.686 168.972,-105.41 172.777,-96.7353"/>
<polygon fill="none" stroke="midnightblue" points="157.526,-122.787 156.714,-133.351 163.936,-125.6 157.526,-122.787"/>
</g>
</g>
</svg>
