<?xml version="1.0" encoding="UTF-8" standalone="no"?>
<!DOCTYPE svg PUBLIC "-//W3C//DTD SVG 1.1//EN"
 "http://www.w3.org/Graphics/SVG/1.1/DTD/svg11.dtd">
<!-- Generated by graphviz version 2.38.0 (20140413.2041)
 -->
<!-- Title: SimpleLogger Pages: 1 -->
<svg width="322pt" height="395pt"
 viewBox="0.00 0.00 322.00 395.00" xmlns="http://www.w3.org/2000/svg" xmlns:xlink="http://www.w3.org/1999/xlink">
<g id="graph0" class="graph" transform="scale(1 1) rotate(0) translate(4 391)">
<title>SimpleLogger</title>
<!-- Node0 -->
<g id="node1" class="node"><title>Node0</title>
<polygon fill="#bfbfbf" stroke="black" points="98,-121.5 98,-265.5 216,-265.5 216,-121.5 98,-121.5"/>
<text text-anchor="middle" x="157" y="-252.7" font-family="Avenir-Book" font-size="11.00">SimpleLogger</text>
<polyline fill="none" stroke="black" points="98,-245.5 216,-245.5 "/>
<text text-anchor="start" x="106" y="-232.7" font-family="Avenir-Book" font-size="11.00"># FormatStrings</text>
<polyline fill="none" stroke="black" points="98,-225.5 216,-225.5 "/>
<text text-anchor="start" x="106" y="-212.7" font-family="Avenir-Book" font-size="11.00">+ Log()</text>
<text text-anchor="start" x="106" y="-200.7" font-family="Avenir-Book" font-size="11.00">+ Call()</text>
<text text-anchor="start" x="106" y="-188.7" font-family="Avenir-Book" font-size="11.00">+ Create()</text>
<text text-anchor="start" x="106" y="-176.7" font-family="Avenir-Book" font-size="11.00"># SimpleLogger()</text>
<text text-anchor="start" x="106" y="-164.7" font-family="Avenir-Book" font-size="11.00"># GetFunction()</text>
<text text-anchor="start" x="106" y="-152.7" font-family="Avenir-Book" font-size="11.00"># FunctionName()</text>
<text text-anchor="start" x="106" y="-140.7" font-family="Avenir-Book" font-size="11.00"># GetType()</text>
<text text-anchor="start" x="106" y="-128.7" font-family="Avenir-Book" font-size="11.00">and 3 more...</text>
</g>
<!-- Node2 -->
<g id="node3" class="node"><title>Node2</title>
<g id="a_node3"><a xlink:href="classanonymous__namespace_02Logger_8cc_03_1_1LibxoLogger.html" target="_top" xlink:title="A logger that calls libxo&#39;s xo_emit(). ">
<polygon fill="none" stroke="black" points="0,-0.5 0,-84.5 148,-84.5 148,-0.5 0,-0.5"/>
<text text-anchor="middle" x="74" y="-71.7" font-family="Avenir-Book" font-size="11.00">LibxoLogger</text>
<polyline fill="none" stroke="black" points="0,-64.5 148,-64.5 "/>
<text text-anchor="middle" x="74" y="-51.7" font-family="Avenir-Book" font-size="11.00"> </text>
<polyline fill="none" stroke="black" points="0,-44.5 148,-44.5 "/>
<text text-anchor="start" x="8" y="-31.7" font-family="Avenir-Book" font-size="11.00">+ LibxoLogger()</text>
<text text-anchor="start" x="8" y="-19.7" font-family="Avenir-Book" font-size="11.00">+ FunctionName()</text>
<text text-anchor="start" x="8" y="-7.7" font-family="Avenir-Book" font-size="11.00">+ CreateFormatString()</text>
</a>
</g>
</g>
<!-- Node0&#45;&gt;Node2 -->
<g id="edge2" class="edge"><title>Node0&#45;&gt;Node2</title>
<path fill="none" stroke="midnightblue" d="M112.511,-112.634C107.147,-103.006 101.851,-93.4976 96.9824,-84.7575"/>
<polygon fill="none" stroke="midnightblue" points="109.521,-114.458 117.445,-121.491 115.636,-111.052 109.521,-114.458"/>
</g>
<!-- Node3 -->
<g id="node4" class="node"><title>Node3</title>
<g id="a_node4"><a xlink:href="classanonymous__namespace_02Logger_8cc_03_1_1PrintfLogger.html" target="_top" xlink:title="A logger that calls printf(). ">
<polygon fill="none" stroke="black" points="166,-0.5 166,-84.5 314,-84.5 314,-0.5 166,-0.5"/>
<text text-anchor="middle" x="240" y="-71.7" font-family="Avenir-Book" font-size="11.00">PrintfLogger</text>
<polyline fill="none" stroke="black" points="166,-64.5 314,-64.5 "/>
<text text-anchor="middle" x="240" y="-51.7" font-family="Avenir-Book" font-size="11.00"> </text>
<polyline fill="none" stroke="black" points="166,-44.5 314,-44.5 "/>
<text text-anchor="start" x="174" y="-31.7" font-family="Avenir-Book" font-size="11.00">+ PrintfLogger()</text>
<text text-anchor="start" x="174" y="-19.7" font-family="Avenir-Book" font-size="11.00">+ FunctionName()</text>
<text text-anchor="start" x="174" y="-7.7" font-family="Avenir-Book" font-size="11.00">+ CreateFormatString()</text>
</a>
</g>
</g>
<!-- Node0&#45;&gt;Node3 -->
<g id="edge3" class="edge"><title>Node0&#45;&gt;Node3</title>
<path fill="none" stroke="midnightblue" d="M201.489,-112.634C206.853,-103.006 212.149,-93.4976 217.018,-84.7575"/>
<polygon fill="none" stroke="midnightblue" points="198.364,-111.052 196.555,-121.491 204.479,-114.458 198.364,-111.052"/>
</g>
<!-- Node1 -->
<g id="node2" class="node"><title>Node1</title>
<g id="a_node2"><a xlink:href="classloom_1_1Logger.html" target="_top" xlink:title="Something that can be used to log events, e.g., printf or libxo. ">
<polygon fill="none" stroke="black" points="118.5,-302.5 118.5,-386.5 195.5,-386.5 195.5,-302.5 118.5,-302.5"/>
<text text-anchor="middle" x="157" y="-373.7" font-family="Avenir-Book" font-size="11.00">Logger</text>
<polyline fill="none" stroke="black" points="118.5,-366.5 195.5,-366.5 "/>
<text text-anchor="start" x="126.5" y="-353.7" font-family="Avenir-Book" font-size="11.00"># Mod</text>
<polyline fill="none" stroke="black" points="118.5,-346.5 195.5,-346.5 "/>
<text text-anchor="start" x="126.5" y="-333.7" font-family="Avenir-Book" font-size="11.00">+ Log()</text>
<text text-anchor="start" x="126.5" y="-321.7" font-family="Avenir-Book" font-size="11.00">+ Log()</text>
<text text-anchor="start" x="126.5" y="-309.7" font-family="Avenir-Book" font-size="11.00"># Logger()</text>
</a>
</g>
</g>
<!-- Node1&#45;&gt;Node0 -->
<g id="edge1" class="edge"><title>Node1&#45;&gt;Node0</title>
<path fill="none" stroke="midnightblue" d="M157,-292.237C157,-283.701 157,-274.712 157,-265.785"/>
<polygon fill="none" stroke="midnightblue" points="153.5,-292.391 157,-302.391 160.5,-292.391 153.5,-292.391"/>
</g>
</g>
</svg>
