<?xml version="1.0" encoding="UTF-8" standalone="no"?>
<!DOCTYPE svg PUBLIC "-//W3C//DTD SVG 1.1//EN"
 "http://www.w3.org/Graphics/SVG/1.1/DTD/svg11.dtd">
<!-- Generated by graphviz version 2.38.0 (20140413.2041)
 -->
<!-- Title: Instrument Pages: 1 -->
<svg width="372pt" height="41pt"
 viewBox="0.00 0.00 372.00 41.00" xmlns="http://www.w3.org/2000/svg" xmlns:xlink="http://www.w3.org/1999/xlink">
<g id="graph0" class="graph" transform="scale(1 1) rotate(0) translate(4 37)">
<title>Instrument</title>
<!-- Node8 -->
<g id="node1" class="node"><title>Node8</title>
<polygon fill="#bfbfbf" stroke="black" points="0,-6.5 0,-26.5 77,-26.5 77,-6.5 0,-6.5"/>
<text text-anchor="middle" x="38.5" y="-13.7" font-family="Avenir-Book" font-size="11.00">Instrument</text>
</g>
<!-- Node9 -->
<g id="node2" class="node"><title>Node9</title>
<g id="a_node2"><a xlink:href="classloom_1_1Instrumenter.html#a86d906802f2995abe566c717634c7d9d" target="_top" xlink:title="Instrument an instruction generically: instruction name and values. ">
<polygon fill="none" stroke="black" points="113,-6.5 113,-26.5 190,-26.5 190,-6.5 113,-6.5"/>
<text text-anchor="middle" x="151.5" y="-13.7" font-family="Avenir-Book" font-size="11.00">Instrument</text>
</a>
</g>
</g>
<!-- Node8&#45;&gt;Node9 -->
<g id="edge1" class="edge"><title>Node8&#45;&gt;Node9</title>
<path fill="none" stroke="midnightblue" d="M77.0795,-16.5C85.3069,-16.5 94.1229,-16.5 102.69,-16.5"/>
<polygon fill="midnightblue" stroke="midnightblue" points="102.959,-20.0001 112.959,-16.5 102.959,-13.0001 102.959,-20.0001"/>
</g>
<!-- Node10 -->
<g id="node3" class="node"><title>Node10</title>
<g id="a_node3"><a xlink:href="classloom_1_1Instrumentation.html#ad578a42fafca2fe4e9cc4f5a630b7a23" target="_top" xlink:title="Retrieve the values passed into the instrumentation. ">
<polygon fill="none" stroke="black" points="226,-0.5 226,-32.5 364,-32.5 364,-0.5 226,-0.5"/>
<text text-anchor="start" x="234" y="-19.7" font-family="Avenir-Book" font-size="11.00">loom::Instrumentation</text>
<text text-anchor="middle" x="295" y="-7.7" font-family="Avenir-Book" font-size="11.00">::Values</text>
</a>
</g>
</g>
<!-- Node9&#45;&gt;Node10 -->
<g id="edge2" class="edge"><title>Node9&#45;&gt;Node10</title>
<path fill="none" stroke="midnightblue" d="M190.048,-16.5C198.079,-16.5 206.848,-16.5 215.777,-16.5"/>
<polygon fill="midnightblue" stroke="midnightblue" points="215.896,-20.0001 225.896,-16.5 215.896,-13.0001 215.896,-20.0001"/>
</g>
</g>
</svg>
