<?xml version="1.0" encoding="UTF-8" standalone="no"?>
<!DOCTYPE svg PUBLIC "-//W3C//DTD SVG 1.1//EN"
 "http://www.w3.org/Graphics/SVG/1.1/DTD/svg11.dtd">
<!-- Generated by graphviz version 2.38.0 (20140413.2041)
 -->
<!-- Title: Values Pages: 1 -->
<svg width="376pt" height="41pt"
 viewBox="0.00 0.00 376.00 41.00" xmlns="http://www.w3.org/2000/svg" xmlns:xlink="http://www.w3.org/1999/xlink">
<g id="graph0" class="graph" transform="scale(1 1) rotate(0) translate(4 37)">
<title>Values</title>
<!-- Node11 -->
<g id="node1" class="node"><title>Node11</title>
<polygon fill="#bfbfbf" stroke="black" points="0,-6.5 0,-26.5 52,-26.5 52,-6.5 0,-6.5"/>
<text text-anchor="middle" x="26" y="-13.7" font-family="Avenir-Book" font-size="11.00">Values</text>
</g>
<!-- Node12 -->
<g id="node2" class="node"><title>Node12</title>
<g id="a_node2"><a xlink:href="classloom_1_1Instrumenter.html#a86d906802f2995abe566c717634c7d9d" target="_top" xlink:title="Instrument an instruction generically: instruction name and values. ">
<polygon fill="none" stroke="black" points="88,-0.5 88,-32.5 210,-32.5 210,-0.5 88,-0.5"/>
<text text-anchor="start" x="96" y="-19.7" font-family="Avenir-Book" font-size="11.00">loom::Instrumenter</text>
<text text-anchor="middle" x="149" y="-7.7" font-family="Avenir-Book" font-size="11.00">::Instrument</text>
</a>
</g>
</g>
<!-- Node11&#45;&gt;Node12 -->
<g id="edge1" class="edge"><title>Node11&#45;&gt;Node12</title>
<path fill="none" stroke="midnightblue" d="M62.1702,-16.5C70.2193,-16.5 78.9985,-16.5 87.77,-16.5"/>
<polygon fill="midnightblue" stroke="midnightblue" points="62.0713,-13.0001 52.0713,-16.5 62.0712,-20.0001 62.0713,-13.0001"/>
</g>
<!-- Node13 -->
<g id="node3" class="node"><title>Node13</title>
<g id="a_node3"><a xlink:href="classloom_1_1Instrumenter.html#acc22e5decacbbfe930d755659cf0c23a" target="_top" xlink:title="Instrument a function call (caller&#45;side), either calling or returning. ">
<polygon fill="none" stroke="black" points="246,-0.5 246,-32.5 368,-32.5 368,-0.5 246,-0.5"/>
<text text-anchor="start" x="254" y="-19.7" font-family="Avenir-Book" font-size="11.00">loom::Instrumenter</text>
<text text-anchor="middle" x="307" y="-7.7" font-family="Avenir-Book" font-size="11.00">::Instrument</text>
</a>
</g>
</g>
<!-- Node12&#45;&gt;Node13 -->
<g id="edge2" class="edge"><title>Node12&#45;&gt;Node13</title>
<path fill="none" stroke="midnightblue" d="M220.538,-16.5C228.99,-16.5 237.56,-16.5 245.847,-16.5"/>
<polygon fill="midnightblue" stroke="midnightblue" points="220.314,-13.0001 210.314,-16.5 220.314,-20.0001 220.314,-13.0001"/>
</g>
</g>
</svg>
