<?xml version="1.0" encoding="UTF-8" standalone="no"?>
<!DOCTYPE svg PUBLIC "-//W3C//DTD SVG 1.1//EN"
 "http://www.w3.org/Graphics/SVG/1.1/DTD/svg11.dtd">
<!-- Generated by graphviz version 2.38.0 (20140413.2041)
 -->
<!-- Title: loom::SimpleLogger Pages: 1 -->
<svg width="133pt" height="274pt"
 viewBox="0.00 0.00 133.00 274.00" xmlns="http://www.w3.org/2000/svg" xmlns:xlink="http://www.w3.org/1999/xlink">
<g id="graph0" class="graph" transform="scale(1 1) rotate(0) translate(4 270)">
<title>loom::SimpleLogger</title>
<!-- Node0 -->
<g id="node1" class="node"><title>Node0</title>
<polygon fill="#bfbfbf" stroke="black" points="-7.10543e-15,-0.5 -7.10543e-15,-144.5 125,-144.5 125,-0.5 -7.10543e-15,-0.5"/>
<text text-anchor="middle" x="62.5" y="-131.7" font-family="Avenir-Book" font-size="11.00">loom::SimpleLogger</text>
<polyline fill="none" stroke="black" points="-7.10543e-15,-124.5 125,-124.5 "/>
<text text-anchor="start" x="8" y="-111.7" font-family="Avenir-Book" font-size="11.00"># FormatStrings</text>
<polyline fill="none" stroke="black" points="-7.10543e-15,-104.5 125,-104.5 "/>
<text text-anchor="start" x="8" y="-91.7" font-family="Avenir-Book" font-size="11.00">+ Log()</text>
<text text-anchor="start" x="8" y="-79.7" font-family="Avenir-Book" font-size="11.00">+ Call()</text>
<text text-anchor="start" x="8" y="-67.7" font-family="Avenir-Book" font-size="11.00">+ Create()</text>
<text text-anchor="start" x="8" y="-55.7" font-family="Avenir-Book" font-size="11.00"># SimpleLogger()</text>
<text text-anchor="start" x="8" y="-43.7" font-family="Avenir-Book" font-size="11.00"># GetFunction()</text>
<text text-anchor="start" x="8" y="-31.7" font-family="Avenir-Book" font-size="11.00"># FunctionName()</text>
<text text-anchor="start" x="8" y="-19.7" font-family="Avenir-Book" font-size="11.00"># GetType()</text>
<text text-anchor="start" x="8" y="-7.7" font-family="Avenir-Book" font-size="11.00">and 3 more...</text>
</g>
<!-- Node1 -->
<g id="node2" class="node"><title>Node1</title>
<g id="a_node2"><a xlink:href="classloom_1_1Logger.html" target="_top" xlink:title="Something that can be used to log events, e.g., printf or libxo. ">
<polygon fill="none" stroke="black" points="18,-181.5 18,-265.5 107,-265.5 107,-181.5 18,-181.5"/>
<text text-anchor="middle" x="62.5" y="-252.7" font-family="Avenir-Book" font-size="11.00">loom::Logger</text>
<polyline fill="none" stroke="black" points="18,-245.5 107,-245.5 "/>
<text text-anchor="start" x="26" y="-232.7" font-family="Avenir-Book" font-size="11.00"># Mod</text>
<polyline fill="none" stroke="black" points="18,-225.5 107,-225.5 "/>
<text text-anchor="start" x="26" y="-212.7" font-family="Avenir-Book" font-size="11.00">+ Log()</text>
<text text-anchor="start" x="26" y="-200.7" font-family="Avenir-Book" font-size="11.00">+ Log()</text>
<text text-anchor="start" x="26" y="-188.7" font-family="Avenir-Book" font-size="11.00"># Logger()</text>
</a>
</g>
</g>
<!-- Node1&#45;&gt;Node0 -->
<g id="edge1" class="edge"><title>Node1&#45;&gt;Node0</title>
<path fill="none" stroke="midnightblue" d="M62.5,-171.237C62.5,-162.701 62.5,-153.712 62.5,-144.785"/>
<polygon fill="none" stroke="midnightblue" points="59.0001,-171.391 62.5,-181.391 66.0001,-171.391 59.0001,-171.391"/>
</g>
</g>
</svg>
