<?xml version="1.0" encoding="UTF-8" standalone="no"?>
<!DOCTYPE svg PUBLIC "-//W3C//DTD SVG 1.1//EN"
 "http://www.w3.org/Graphics/SVG/1.1/DTD/svg11.dtd">
<!-- Generated by graphviz version 2.36.0 (20140111.2315)
 -->
<!-- Title: SchemeName Pages: 1 -->
<svg width="190pt" height="67pt"
 viewBox="0.00 0.00 190.00 67.00" xmlns="http://www.w3.org/2000/svg" xmlns:xlink="http://www.w3.org/1999/xlink">
<g id="graph0" class="graph" transform="scale(1 1) rotate(0) translate(4 63)">
<title>SchemeName</title>
<!-- Node1 -->
<g id="node1" class="node"><title>Node1</title>
<polygon fill="#bfbfbf" stroke="black" points="0,-19 0,-39 86,-39 86,-19 0,-19"/>
<text text-anchor="middle" x="43" y="-26.2" font-family="Avenir-Book" font-size="11.00">SchemeName</text>
</g>
<!-- Node2 -->
<g id="node2" class="node"><title>Node2</title>
<g id="a_node2"><a xlink:href="classloom_1_1_n_v_serializer.html#a4c5e9942c3b219aaa11d670a8d10ad6d" target="_top" xlink:title="Clean up a serialized data buffer using Serializer&#45;specific cleanup code (e.g., free() or nvlist_dest...">
<polygon fill="none" stroke="black" points="123.5,-39 123.5,-59 180.5,-59 180.5,-39 123.5,-39"/>
<text text-anchor="middle" x="152" y="-46.2" font-family="Avenir-Book" font-size="11.00">Cleanup</text>
</a>
</g>
</g>
<!-- Node1&#45;&gt;Node2 -->
<g id="edge1" class="edge"><title>Node1&#45;&gt;Node2</title>
<path fill="none" stroke="midnightblue" d="M86.2892,-36.9045C95.2741,-38.584 104.701,-40.3459 113.493,-41.9893"/>
<polygon fill="midnightblue" stroke="midnightblue" points="112.985,-45.4549 123.458,-43.8519 114.271,-38.5741 112.985,-45.4549"/>
</g>
<!-- Node3 -->
<g id="node3" class="node"><title>Node3</title>
<g id="a_node3"><a xlink:href="classloom_1_1_n_v_serializer.html#adfd891d0503c709cab6135a7b1076b82" target="_top" xlink:title="Generate the code to serialize a set of values, returning details of the resulting buffer (pointer an...">
<polygon fill="none" stroke="black" points="122.5,-0 122.5,-20 181.5,-20 181.5,-0 122.5,-0"/>
<text text-anchor="middle" x="152" y="-7.2" font-family="Avenir-Book" font-size="11.00">Serialize</text>
</a>
</g>
</g>
<!-- Node1&#45;&gt;Node3 -->
<g id="edge2" class="edge"><title>Node1&#45;&gt;Node3</title>
<path fill="none" stroke="midnightblue" d="M86.2892,-21.4907C94.8443,-19.9716 103.8,-18.3814 112.227,-16.885"/>
<polygon fill="midnightblue" stroke="midnightblue" points="112.947,-20.312 122.181,-15.1174 111.723,-13.4198 112.947,-20.312"/>
</g>
</g>
</svg>
