<?xml version="1.0" encoding="UTF-8" standalone="no"?>
<!DOCTYPE svg PUBLIC "-//W3C//DTD SVG 1.1//EN"
 "http://www.w3.org/Graphics/SVG/1.1/DTD/svg11.dtd">
<!-- Generated by graphviz version 2.38.0 (20140413.2041)
 -->
<!-- Title: SchemeName Pages: 1 -->
<svg width="292pt" height="68pt"
 viewBox="0.00 0.00 292.00 68.00" xmlns="http://www.w3.org/2000/svg" xmlns:xlink="http://www.w3.org/1999/xlink">
<g id="graph0" class="graph" transform="scale(1 1) rotate(0) translate(4 64)">
<title>SchemeName</title>
<!-- Node2 -->
<g id="node1" class="node"><title>Node2</title>
<polygon fill="#bfbfbf" stroke="black" points="0,-19.5 0,-39.5 95,-39.5 95,-19.5 0,-19.5"/>
<text text-anchor="middle" x="47.5" y="-26.7" font-family="Avenir-Book" font-size="11.00">SchemeName</text>
</g>
<!-- Node3 -->
<g id="node2" class="node"><title>Node3</title>
<g id="a_node2"><a xlink:href="classloom_1_1Serializer.html#ab1ddbfffc659bc650654766a09f28cd3" target="_top" xlink:title="Clean up a serialized data buffer using Serializer&#45;specific cleanup code (e.g., free() or nvlist_dest...">
<polygon fill="none" stroke="black" points="131.5,-39.5 131.5,-59.5 283.5,-59.5 283.5,-39.5 131.5,-39.5"/>
<text text-anchor="middle" x="207.5" y="-46.7" font-family="Avenir-Book" font-size="11.00">loom::Serializer::Cleanup</text>
</a>
</g>
</g>
<!-- Node2&#45;&gt;Node3 -->
<g id="edge1" class="edge"><title>Node2&#45;&gt;Node3</title>
<path fill="none" stroke="midnightblue" d="M95.0506,-35.3925C103.318,-36.439 112.159,-37.5581 121.11,-38.6911"/>
<polygon fill="midnightblue" stroke="midnightblue" points="120.878,-42.1896 131.238,-39.9732 121.757,-35.245 120.878,-42.1896"/>
</g>
<!-- Node4 -->
<g id="node3" class="node"><title>Node4</title>
<g id="a_node3"><a xlink:href="classloom_1_1Serializer.html#aa3cbeeff05f3ef1cc20866cffec0c269" target="_top" xlink:title="Generate the code to serialize a set of values, returning details of the resulting buffer (pointer an...">
<polygon fill="none" stroke="black" points="131,-0.5 131,-20.5 284,-20.5 284,-0.5 131,-0.5"/>
<text text-anchor="middle" x="207.5" y="-7.7" font-family="Avenir-Book" font-size="11.00">loom::Serializer::Serialize</text>
</a>
</g>
</g>
<!-- Node2&#45;&gt;Node4 -->
<g id="edge2" class="edge"><title>Node2&#45;&gt;Node4</title>
<path fill="none" stroke="midnightblue" d="M95.0506,-23.9021C103.252,-22.9159 112.017,-21.8618 120.895,-20.7943"/>
<polygon fill="midnightblue" stroke="midnightblue" points="121.431,-24.2551 130.942,-19.5861 120.595,-17.3052 121.431,-24.2551"/>
</g>
</g>
</svg>
