<?xml version="1.0" encoding="UTF-8" standalone="no"?>
<!DOCTYPE svg PUBLIC "-//W3C//DTD SVG 1.1//EN"
 "http://www.w3.org/Graphics/SVG/1.1/DTD/svg11.dtd">
<!-- Generated by graphviz version 2.36.0 (20140111.2315)
 -->
<!-- Title: loom::SimpleLogger Pages: 1 -->
<svg width="138pt" height="288pt"
 viewBox="0.00 0.00 138.00 288.00" xmlns="http://www.w3.org/2000/svg" xmlns:xlink="http://www.w3.org/1999/xlink">
<g id="graph0" class="graph" transform="scale(1 1) rotate(0) translate(4 284)">
<title>loom::SimpleLogger</title>
<!-- Node1 -->
<g id="node1" class="node"><title>Node1</title>
<polygon fill="#bfbfbf" stroke="black" points="0,-1 0,-157 130,-157 130,-1 0,-1"/>
<text text-anchor="middle" x="65" y="-144.2" font-family="Avenir-Book" font-size="11.00">loom::SimpleLogger</text>
<polyline fill="none" stroke="black" points="0,-137 130,-137 "/>
<text text-anchor="start" x="8" y="-124.2" font-family="Avenir-Book" font-size="11.00"># FormatStrings</text>
<polyline fill="none" stroke="black" points="0,-117 130,-117 "/>
<text text-anchor="start" x="8" y="-104.2" font-family="Avenir-Book" font-size="11.00">+ Log()</text>
<text text-anchor="start" x="8" y="-92.2" font-family="Avenir-Book" font-size="11.00">+ Call()</text>
<text text-anchor="start" x="8" y="-80.2" font-family="Avenir-Book" font-size="11.00">+ Create()</text>
<text text-anchor="start" x="8" y="-68.2" font-family="Avenir-Book" font-size="11.00"># SimpleLogger()</text>
<text text-anchor="start" x="8" y="-56.2" font-family="Avenir-Book" font-size="11.00"># GetFunction()</text>
<text text-anchor="start" x="8" y="-44.2" font-family="Avenir-Book" font-size="11.00"># FunctionName()</text>
<text text-anchor="start" x="8" y="-32.2" font-family="Avenir-Book" font-size="11.00"># GetType()</text>
<text text-anchor="start" x="8" y="-20.2" font-family="Avenir-Book" font-size="11.00"># CreateFormatString()</text>
<text text-anchor="start" x="8" y="-8.2" font-family="Avenir-Book" font-size="11.00"># Adapt()</text>
</g>
<!-- Node2 -->
<g id="node2" class="node"><title>Node2</title>
<g id="a_node2"><a xlink:href="classloom_1_1_logger.html" target="_top" xlink:title="Something that can be used to log events, e.g., printf or libxo. ">
<polygon fill="none" stroke="black" points="24.5,-195 24.5,-279 105.5,-279 105.5,-195 24.5,-195"/>
<text text-anchor="middle" x="65" y="-266.2" font-family="Avenir-Book" font-size="11.00">loom::Logger</text>
<polyline fill="none" stroke="black" points="24.5,-259 105.5,-259 "/>
<text text-anchor="start" x="32.5" y="-246.2" font-family="Avenir-Book" font-size="11.00"># Mod</text>
<polyline fill="none" stroke="black" points="24.5,-239 105.5,-239 "/>
<text text-anchor="start" x="32.5" y="-226.2" font-family="Avenir-Book" font-size="11.00">+ Log()</text>
<text text-anchor="start" x="32.5" y="-214.2" font-family="Avenir-Book" font-size="11.00">+ Log()</text>
<text text-anchor="start" x="32.5" y="-202.2" font-family="Avenir-Book" font-size="11.00"># Logger()</text>
</a>
</g>
</g>
<!-- Node2&#45;&gt;Node1 -->
<g id="edge1" class="edge"><title>Node2&#45;&gt;Node1</title>
<path fill="none" stroke="midnightblue" d="M65,-184.558C65,-175.774 65,-166.48 65,-157.2"/>
<polygon fill="none" stroke="midnightblue" points="61.5001,-184.604 65,-194.604 68.5001,-184.604 61.5001,-184.604"/>
</g>
</g>
</svg>
