<?xml version="1.0" encoding="UTF-8" standalone="no"?>
<!DOCTYPE svg PUBLIC "-//W3C//DTD SVG 1.1//EN"
 "http://www.w3.org/Graphics/SVG/1.1/DTD/svg11.dtd">
<!-- Generated by graphviz version 2.36.0 (20140111.2315)
 -->
<!-- Title: Instrument Pages: 1 -->
<svg width="338pt" height="40pt"
 viewBox="0.00 0.00 338.00 40.00" xmlns="http://www.w3.org/2000/svg" xmlns:xlink="http://www.w3.org/1999/xlink">
<g id="graph0" class="graph" transform="scale(1 1) rotate(0) translate(4 36)">
<title>Instrument</title>
<!-- Node1 -->
<g id="node1" class="node"><title>Node1</title>
<polygon fill="#bfbfbf" stroke="black" points="0,-6 0,-26 68,-26 68,-6 0,-6"/>
<text text-anchor="middle" x="34" y="-13.2" font-family="Avenir-Book" font-size="11.00">Instrument</text>
</g>
<!-- Node2 -->
<g id="node2" class="node"><title>Node2</title>
<g id="a_node2"><a xlink:href="classloom_1_1_instrumenter.html#a86d906802f2995abe566c717634c7d9d" target="_top" xlink:title="Instrument an instruction generically: instruction name and values. ">
<polygon fill="none" stroke="black" points="104,-6 104,-26 172,-26 172,-6 104,-6"/>
<text text-anchor="middle" x="138" y="-13.2" font-family="Avenir-Book" font-size="11.00">Instrument</text>
</a>
</g>
</g>
<!-- Node1&#45;&gt;Node2 -->
<g id="edge1" class="edge"><title>Node1&#45;&gt;Node2</title>
<path fill="none" stroke="midnightblue" d="M68.1165,-16C76.2222,-16 85.018,-16 93.5279,-16"/>
<polygon fill="midnightblue" stroke="midnightblue" points="93.7007,-19.5001 103.701,-16 93.7006,-12.5001 93.7007,-19.5001"/>
</g>
<!-- Node3 -->
<g id="node3" class="node"><title>Node3</title>
<g id="a_node3"><a xlink:href="classloom_1_1_instrumentation.html#ad578a42fafca2fe4e9cc4f5a630b7a23" target="_top" xlink:title="Retrieve the values passed into the instrumentation. ">
<polygon fill="none" stroke="black" points="208,-0 208,-32 330,-32 330,-0 208,-0"/>
<text text-anchor="start" x="216" y="-19.2" font-family="Avenir-Book" font-size="11.00">loom::Instrumentation</text>
<text text-anchor="middle" x="269" y="-7.2" font-family="Avenir-Book" font-size="11.00">::Values</text>
</a>
</g>
</g>
<!-- Node2&#45;&gt;Node3 -->
<g id="edge2" class="edge"><title>Node2&#45;&gt;Node3</title>
<path fill="none" stroke="midnightblue" d="M172.221,-16C180.14,-16 188.889,-16 197.784,-16"/>
<polygon fill="midnightblue" stroke="midnightblue" points="197.852,-19.5001 207.852,-16 197.852,-12.5001 197.852,-19.5001"/>
</g>
</g>
</svg>
