<?xml version="1.0" encoding="UTF-8" standalone="no"?>
<!DOCTYPE svg PUBLIC "-//W3C//DTD SVG 1.1//EN"
 "http://www.w3.org/Graphics/SVG/1.1/DTD/svg11.dtd">
<!-- Generated by graphviz version 2.36.0 (20140111.2315)
 -->
<!-- Title: loom::Logger Pages: 1 -->
<svg width="256pt" height="276pt"
 viewBox="0.00 0.00 256.00 276.00" xmlns="http://www.w3.org/2000/svg" xmlns:xlink="http://www.w3.org/1999/xlink">
<g id="graph0" class="graph" transform="scale(1 1) rotate(0) translate(4 272)">
<title>loom::Logger</title>
<!-- Node1 -->
<g id="node1" class="node"><title>Node1</title>
<polygon fill="#bfbfbf" stroke="black" points="83.5,-183 83.5,-267 164.5,-267 164.5,-183 83.5,-183"/>
<text text-anchor="middle" x="124" y="-254.2" font-family="Avenir-Book" font-size="11.00">loom::Logger</text>
<polyline fill="none" stroke="black" points="83.5,-247 164.5,-247 "/>
<text text-anchor="start" x="91.5" y="-234.2" font-family="Avenir-Book" font-size="11.00"># Mod</text>
<polyline fill="none" stroke="black" points="83.5,-227 164.5,-227 "/>
<text text-anchor="start" x="91.5" y="-214.2" font-family="Avenir-Book" font-size="11.00">+ Log()</text>
<text text-anchor="start" x="91.5" y="-202.2" font-family="Avenir-Book" font-size="11.00">+ Log()</text>
<text text-anchor="start" x="91.5" y="-190.2" font-family="Avenir-Book" font-size="11.00"># Logger()</text>
</g>
<!-- Node2 -->
<g id="node2" class="node"><title>Node2</title>
<g id="a_node2"><a xlink:href="classloom_1_1_k_trace_logger.html" target="_top" xlink:title="A logging technique that serializes values with libnv and writes them to the BSD ktrace framework...">
<polygon fill="none" stroke="black" points="0,-37 0,-109 116,-109 116,-37 0,-37"/>
<text text-anchor="middle" x="58" y="-96.2" font-family="Avenir-Book" font-size="11.00">loom::KTraceLogger</text>
<polyline fill="none" stroke="black" points="0,-89 116,-89 "/>
<text text-anchor="middle" x="58" y="-76.2" font-family="Avenir-Book" font-size="11.00"> </text>
<polyline fill="none" stroke="black" points="0,-69 116,-69 "/>
<text text-anchor="start" x="8" y="-56.2" font-family="Avenir-Book" font-size="11.00">+ KTraceLogger()</text>
<text text-anchor="start" x="8" y="-44.2" font-family="Avenir-Book" font-size="11.00">+ Log()</text>
</a>
</g>
</g>
<!-- Node1&#45;&gt;Node2 -->
<g id="edge1" class="edge"><title>Node1&#45;&gt;Node2</title>
<path fill="none" stroke="midnightblue" d="M101.759,-173.453C92.4648,-152.329 81.8916,-128.299 73.4669,-109.152"/>
<polygon fill="none" stroke="midnightblue" points="98.5594,-174.871 105.79,-182.615 104.967,-172.052 98.5594,-174.871"/>
</g>
<!-- Node3 -->
<g id="node3" class="node"><title>Node3</title>
<g id="a_node3"><a xlink:href="classloom_1_1_simple_logger.html" target="_top" xlink:title="A logging technique that requires a single call to a printf&#45;like function. ">
<polygon fill="none" stroke="black" points="134,-1 134,-145 248,-145 248,-1 134,-1"/>
<text text-anchor="middle" x="191" y="-132.2" font-family="Avenir-Book" font-size="11.00">loom::SimpleLogger</text>
<polyline fill="none" stroke="black" points="134,-125 248,-125 "/>
<text text-anchor="start" x="142" y="-112.2" font-family="Avenir-Book" font-size="11.00"># FormatStrings</text>
<polyline fill="none" stroke="black" points="134,-105 248,-105 "/>
<text text-anchor="start" x="142" y="-92.2" font-family="Avenir-Book" font-size="11.00">+ Log()</text>
<text text-anchor="start" x="142" y="-80.2" font-family="Avenir-Book" font-size="11.00">+ Call()</text>
<text text-anchor="start" x="142" y="-68.2" font-family="Avenir-Book" font-size="11.00">+ Create()</text>
<text text-anchor="start" x="142" y="-56.2" font-family="Avenir-Book" font-size="11.00"># SimpleLogger()</text>
<text text-anchor="start" x="142" y="-44.2" font-family="Avenir-Book" font-size="11.00"># GetFunction()</text>
<text text-anchor="start" x="142" y="-32.2" font-family="Avenir-Book" font-size="11.00"># FunctionName()</text>
<text text-anchor="start" x="142" y="-20.2" font-family="Avenir-Book" font-size="11.00"># GetType()</text>
<text text-anchor="start" x="142" y="-8.2" font-family="Avenir-Book" font-size="11.00">and 3 more...</text>
</a>
</g>
</g>
<!-- Node1&#45;&gt;Node3 -->
<g id="edge2" class="edge"><title>Node1&#45;&gt;Node3</title>
<path fill="none" stroke="midnightblue" d="M146.609,-173.383C150.66,-164.313 154.95,-154.71 159.202,-145.189"/>
<polygon fill="none" stroke="midnightblue" points="143.368,-172.057 142.485,-182.615 149.759,-174.912 143.368,-172.057"/>
</g>
</g>
</svg>
