<?xml version="1.0" encoding="UTF-8" standalone="no"?>
<!DOCTYPE svg PUBLIC "-//W3C//DTD SVG 1.1//EN"
 "http://www.w3.org/Graphics/SVG/1.1/DTD/svg11.dtd">
<!-- Generated by graphviz version 2.36.0 (20140111.2315)
 -->
<!-- Title: LibxoLogger Pages: 1 -->
<svg width="138pt" height="398pt"
 viewBox="0.00 0.00 138.00 398.00" xmlns="http://www.w3.org/2000/svg" xmlns:xlink="http://www.w3.org/1999/xlink">
<g id="graph0" class="graph" transform="scale(1 1) rotate(0) translate(4 394)">
<title>LibxoLogger</title>
<!-- Node1 -->
<g id="node1" class="node"><title>Node1</title>
<polygon fill="#bfbfbf" stroke="black" points="0,-1 0,-85 130,-85 130,-1 0,-1"/>
<text text-anchor="middle" x="65" y="-72.2" font-family="Avenir-Book" font-size="11.00">LibxoLogger</text>
<polyline fill="none" stroke="black" points="0,-65 130,-65 "/>
<text text-anchor="middle" x="65" y="-52.2" font-family="Avenir-Book" font-size="11.00"> </text>
<polyline fill="none" stroke="black" points="0,-45 130,-45 "/>
<text text-anchor="start" x="8" y="-32.2" font-family="Avenir-Book" font-size="11.00">+ LibxoLogger()</text>
<text text-anchor="start" x="8" y="-20.2" font-family="Avenir-Book" font-size="11.00">+ FunctionName()</text>
<text text-anchor="start" x="8" y="-8.2" font-family="Avenir-Book" font-size="11.00">+ CreateFormatString()</text>
</g>
<!-- Node2 -->
<g id="node2" class="node"><title>Node2</title>
<g id="a_node2"><a xlink:href="classloom_1_1_simple_logger.html" target="_top" xlink:title="A logging technique that requires a single call to a printf&#45;like function. ">
<polygon fill="none" stroke="black" points="12.5,-123 12.5,-267 117.5,-267 117.5,-123 12.5,-123"/>
<text text-anchor="middle" x="65" y="-254.2" font-family="Avenir-Book" font-size="11.00">SimpleLogger</text>
<polyline fill="none" stroke="black" points="12.5,-247 117.5,-247 "/>
<text text-anchor="start" x="20.5" y="-234.2" font-family="Avenir-Book" font-size="11.00"># FormatStrings</text>
<polyline fill="none" stroke="black" points="12.5,-227 117.5,-227 "/>
<text text-anchor="start" x="20.5" y="-214.2" font-family="Avenir-Book" font-size="11.00">+ Log()</text>
<text text-anchor="start" x="20.5" y="-202.2" font-family="Avenir-Book" font-size="11.00">+ Call()</text>
<text text-anchor="start" x="20.5" y="-190.2" font-family="Avenir-Book" font-size="11.00">+ Create()</text>
<text text-anchor="start" x="20.5" y="-178.2" font-family="Avenir-Book" font-size="11.00"># SimpleLogger()</text>
<text text-anchor="start" x="20.5" y="-166.2" font-family="Avenir-Book" font-size="11.00"># GetFunction()</text>
<text text-anchor="start" x="20.5" y="-154.2" font-family="Avenir-Book" font-size="11.00"># FunctionName()</text>
<text text-anchor="start" x="20.5" y="-142.2" font-family="Avenir-Book" font-size="11.00"># GetType()</text>
<text text-anchor="start" x="20.5" y="-130.2" font-family="Avenir-Book" font-size="11.00">and 3 more...</text>
</a>
</g>
</g>
<!-- Node2&#45;&gt;Node1 -->
<g id="edge1" class="edge"><title>Node2&#45;&gt;Node1</title>
<path fill="none" stroke="midnightblue" d="M65,-112.691C65,-103.255 65,-93.9541 65,-85.3899"/>
<polygon fill="none" stroke="midnightblue" points="61.5001,-112.953 65,-122.953 68.5001,-112.953 61.5001,-112.953"/>
</g>
<!-- Node3 -->
<g id="node3" class="node"><title>Node3</title>
<g id="a_node3"><a xlink:href="classloom_1_1_logger.html" target="_top" xlink:title="Something that can be used to log events, e.g., printf or libxo. ">
<polygon fill="none" stroke="black" points="31.5,-305 31.5,-389 98.5,-389 98.5,-305 31.5,-305"/>
<text text-anchor="middle" x="65" y="-376.2" font-family="Avenir-Book" font-size="11.00">Logger</text>
<polyline fill="none" stroke="black" points="31.5,-369 98.5,-369 "/>
<text text-anchor="start" x="39.5" y="-356.2" font-family="Avenir-Book" font-size="11.00"># Mod</text>
<polyline fill="none" stroke="black" points="31.5,-349 98.5,-349 "/>
<text text-anchor="start" x="39.5" y="-336.2" font-family="Avenir-Book" font-size="11.00">+ Log()</text>
<text text-anchor="start" x="39.5" y="-324.2" font-family="Avenir-Book" font-size="11.00">+ Log()</text>
<text text-anchor="start" x="39.5" y="-312.2" font-family="Avenir-Book" font-size="11.00"># Logger()</text>
</a>
</g>
</g>
<!-- Node3&#45;&gt;Node2 -->
<g id="edge2" class="edge"><title>Node3&#45;&gt;Node2</title>
<path fill="none" stroke="midnightblue" d="M65,-294.522C65,-285.707 65,-276.409 65,-267.189"/>
<polygon fill="none" stroke="midnightblue" points="61.5001,-294.615 65,-304.615 68.5001,-294.615 61.5001,-294.615"/>
</g>
</g>
</svg>
