<?xml version="1.0" encoding="UTF-8" standalone="no"?>
<!DOCTYPE svg PUBLIC "-//W3C//DTD SVG 1.1//EN"
 "http://www.w3.org/Graphics/SVG/1.1/DTD/svg11.dtd">
<!-- Generated by graphviz version 2.38.0 (20140413.2041)
 -->
<!-- Title: loom::Serializer Pages: 1 -->
<svg width="264pt" height="286pt"
 viewBox="0.00 0.00 263.50 286.00" xmlns="http://www.w3.org/2000/svg" xmlns:xlink="http://www.w3.org/1999/xlink">
<g id="graph0" class="graph" transform="scale(1 1) rotate(0) translate(4 282)">
<title>loom::Serializer</title>
<!-- Node0 -->
<g id="node1" class="node"><title>Node0</title>
<polygon fill="#bfbfbf" stroke="black" points="69.5,-133.5 69.5,-277.5 186.5,-277.5 186.5,-133.5 69.5,-133.5"/>
<text text-anchor="middle" x="128" y="-264.7" font-family="Avenir-Book" font-size="11.00">loom::Serializer</text>
<polyline fill="none" stroke="black" points="69.5,-257.5 186.5,-257.5 "/>
<text text-anchor="start" x="77.5" y="-244.7" font-family="Avenir-Book" font-size="11.00"># Ctx</text>
<text text-anchor="start" x="77.5" y="-232.7" font-family="Avenir-Book" font-size="11.00"># Byte</text>
<text text-anchor="start" x="77.5" y="-220.7" font-family="Avenir-Book" font-size="11.00"># BytePtr</text>
<text text-anchor="start" x="77.5" y="-208.7" font-family="Avenir-Book" font-size="11.00"># SizeT</text>
<polyline fill="none" stroke="black" points="69.5,-201.5 186.5,-201.5 "/>
<text text-anchor="start" x="77.5" y="-188.7" font-family="Avenir-Book" font-size="11.00">+ SchemeName()</text>
<text text-anchor="start" x="77.5" y="-176.7" font-family="Avenir-Book" font-size="11.00">+ Serialize()</text>
<text text-anchor="start" x="77.5" y="-164.7" font-family="Avenir-Book" font-size="11.00">+ Cleanup()</text>
<text text-anchor="start" x="77.5" y="-152.7" font-family="Avenir-Book" font-size="11.00">+ None()</text>
<text text-anchor="start" x="77.5" y="-140.7" font-family="Avenir-Book" font-size="11.00"># Serializer()</text>
</g>
<!-- Node1 -->
<g id="node2" class="node"><title>Node1</title>
<g id="a_node2"><a xlink:href="classloom_1_1NullSerializer.html" target="_top" xlink:title="A Serializer that doesn&#39;t serialize anything. ">
<polygon fill="none" stroke="black" points="0,-0.5 0,-96.5 120,-96.5 120,-0.5 0,-0.5"/>
<text text-anchor="middle" x="60" y="-83.7" font-family="Avenir-Book" font-size="11.00">loom::NullSerializer</text>
<polyline fill="none" stroke="black" points="0,-76.5 120,-76.5 "/>
<text text-anchor="middle" x="60" y="-63.7" font-family="Avenir-Book" font-size="11.00"> </text>
<polyline fill="none" stroke="black" points="0,-56.5 120,-56.5 "/>
<text text-anchor="start" x="8" y="-43.7" font-family="Avenir-Book" font-size="11.00">+ NullSerializer()</text>
<text text-anchor="start" x="8" y="-31.7" font-family="Avenir-Book" font-size="11.00">+ SchemeName()</text>
<text text-anchor="start" x="8" y="-19.7" font-family="Avenir-Book" font-size="11.00">+ Serialize()</text>
<text text-anchor="start" x="8" y="-7.7" font-family="Avenir-Book" font-size="11.00">+ Cleanup()</text>
</a>
</g>
</g>
<!-- Node0&#45;&gt;Node1 -->
<g id="edge1" class="edge"><title>Node0&#45;&gt;Node1</title>
<path fill="none" stroke="midnightblue" d="M92.6921,-124.019C88.5976,-114.686 84.5284,-105.41 80.7226,-96.7353"/>
<polygon fill="none" stroke="midnightblue" points="89.5636,-125.6 96.7863,-133.351 95.9739,-122.787 89.5636,-125.6"/>
</g>
<!-- Node2 -->
<g id="node3" class="node"><title>Node2</title>
<g id="a_node3"><a xlink:href="classloom_1_1NVSerializer.html" target="_top" xlink:title="A Serializer that uses libnv to aggregate values. ">
<polygon fill="none" stroke="black" points="138.5,-0.5 138.5,-96.5 255.5,-96.5 255.5,-0.5 138.5,-0.5"/>
<text text-anchor="middle" x="197" y="-83.7" font-family="Avenir-Book" font-size="11.00">loom::NVSerializer</text>
<polyline fill="none" stroke="black" points="138.5,-76.5 255.5,-76.5 "/>
<text text-anchor="middle" x="197" y="-63.7" font-family="Avenir-Book" font-size="11.00"> </text>
<polyline fill="none" stroke="black" points="138.5,-56.5 255.5,-56.5 "/>
<text text-anchor="start" x="146.5" y="-43.7" font-family="Avenir-Book" font-size="11.00">+ NVSerializer()</text>
<text text-anchor="start" x="146.5" y="-31.7" font-family="Avenir-Book" font-size="11.00">+ SchemeName()</text>
<text text-anchor="start" x="146.5" y="-19.7" font-family="Avenir-Book" font-size="11.00">+ Serialize()</text>
<text text-anchor="start" x="146.5" y="-7.7" font-family="Avenir-Book" font-size="11.00">+ Cleanup()</text>
</a>
</g>
</g>
<!-- Node0&#45;&gt;Node2 -->
<g id="edge2" class="edge"><title>Node0&#45;&gt;Node2</title>
<path fill="none" stroke="midnightblue" d="M163.827,-124.019C167.982,-114.686 172.111,-105.41 175.973,-96.7353"/>
<polygon fill="none" stroke="midnightblue" points="160.542,-122.792 159.673,-133.351 166.937,-125.639 160.542,-122.792"/>
</g>
</g>
</svg>
