<?xml version="1.0" encoding="UTF-8" standalone="no"?>
<!DOCTYPE svg PUBLIC "-//W3C//DTD SVG 1.1//EN"
 "http://www.w3.org/Graphics/SVG/1.1/DTD/svg11.dtd">
<!-- Generated by graphviz version 2.36.0 (20140111.2315)
 -->
<!-- Title: SchemeName Pages: 1 -->
<svg width="272pt" height="67pt"
 viewBox="0.00 0.00 272.00 67.00" xmlns="http://www.w3.org/2000/svg" xmlns:xlink="http://www.w3.org/1999/xlink">
<g id="graph0" class="graph" transform="scale(1 1) rotate(0) translate(4 63)">
<title>SchemeName</title>
<!-- Node1 -->
<g id="node1" class="node"><title>Node1</title>
<polygon fill="#bfbfbf" stroke="black" points="0,-19 0,-39 86,-39 86,-19 0,-19"/>
<text text-anchor="middle" x="43" y="-26.2" font-family="Avenir-Book" font-size="11.00">SchemeName</text>
</g>
<!-- Node2 -->
<g id="node2" class="node"><title>Node2</title>
<g id="a_node2"><a xlink:href="classloom_1_1_serializer.html#ab1ddbfffc659bc650654766a09f28cd3" target="_top" xlink:title="Clean up a serialized data buffer using Serializer&#45;specific cleanup code (e.g., free() or nvlist_dest...">
<polygon fill="none" stroke="black" points="123.5,-39 123.5,-59 262.5,-59 262.5,-39 123.5,-39"/>
<text text-anchor="middle" x="193" y="-46.2" font-family="Avenir-Book" font-size="11.00">loom::Serializer::Cleanup</text>
</a>
</g>
</g>
<!-- Node1&#45;&gt;Node2 -->
<g id="edge1" class="edge"><title>Node1&#45;&gt;Node2</title>
<path fill="none" stroke="midnightblue" d="M86.015,-34.6777C94.5503,-35.8311 103.789,-37.0795 113.131,-38.342"/>
<polygon fill="midnightblue" stroke="midnightblue" points="112.902,-41.8428 123.28,-39.7136 113.839,-34.9058 112.902,-41.8428"/>
</g>
<!-- Node3 -->
<g id="node3" class="node"><title>Node3</title>
<g id="a_node3"><a xlink:href="classloom_1_1_serializer.html#a80de6ce066ec0448248a2d223122f36d" target="_top" xlink:title="Generate the code to serialize a set of values, returning details of the resulting buffer (pointer an...">
<polygon fill="none" stroke="black" points="122.5,-0 122.5,-20 263.5,-20 263.5,-0 122.5,-0"/>
<text text-anchor="middle" x="193" y="-7.2" font-family="Avenir-Book" font-size="11.00">loom::Serializer::Serialize</text>
</a>
</g>
</g>
<!-- Node1&#45;&gt;Node3 -->
<g id="edge2" class="edge"><title>Node1&#45;&gt;Node3</title>
<path fill="none" stroke="midnightblue" d="M86.015,-23.6062C94.362,-22.5346 103.381,-21.3767 112.513,-20.2045"/>
<polygon fill="midnightblue" stroke="midnightblue" points="112.966,-23.6751 122.439,-18.9302 112.074,-16.7321 112.966,-23.6751"/>
</g>
</g>
</svg>
