<?xml version="1.0" encoding="UTF-8" standalone="no"?>
<!DOCTYPE svg PUBLIC "-//W3C//DTD SVG 1.1//EN"
 "http://www.w3.org/Graphics/SVG/1.1/DTD/svg11.dtd">
<!-- Generated by graphviz version 2.38.0 (20140413.2041)
 -->
<!-- Title: loom::NullSerializer Pages: 1 -->
<svg width="128pt" height="286pt"
 viewBox="0.00 0.00 128.00 286.00" xmlns="http://www.w3.org/2000/svg" xmlns:xlink="http://www.w3.org/1999/xlink">
<g id="graph0" class="graph" transform="scale(1 1) rotate(0) translate(4 282)">
<title>loom::NullSerializer</title>
<!-- Node0 -->
<g id="node1" class="node"><title>Node0</title>
<polygon fill="#bfbfbf" stroke="black" points="-7.10543e-15,-0.5 -7.10543e-15,-96.5 120,-96.5 120,-0.5 -7.10543e-15,-0.5"/>
<text text-anchor="middle" x="60" y="-83.7" font-family="Avenir-Book" font-size="11.00">loom::NullSerializer</text>
<polyline fill="none" stroke="black" points="-7.10543e-15,-76.5 120,-76.5 "/>
<text text-anchor="middle" x="60" y="-63.7" font-family="Avenir-Book" font-size="11.00"> </text>
<polyline fill="none" stroke="black" points="-7.10543e-15,-56.5 120,-56.5 "/>
<text text-anchor="start" x="8" y="-43.7" font-family="Avenir-Book" font-size="11.00">+ NullSerializer()</text>
<text text-anchor="start" x="8" y="-31.7" font-family="Avenir-Book" font-size="11.00">+ SchemeName()</text>
<text text-anchor="start" x="8" y="-19.7" font-family="Avenir-Book" font-size="11.00">+ Serialize()</text>
<text text-anchor="start" x="8" y="-7.7" font-family="Avenir-Book" font-size="11.00">+ Cleanup()</text>
</g>
<!-- Node1 -->
<g id="node2" class="node"><title>Node1</title>
<g id="a_node2"><a xlink:href="classloom_1_1Serializer.html" target="_top" xlink:title="A tool that can transform a set of values into a serialized representation. ">
<polygon fill="none" stroke="black" points="1.5,-133.5 1.5,-277.5 118.5,-277.5 118.5,-133.5 1.5,-133.5"/>
<text text-anchor="middle" x="60" y="-264.7" font-family="Avenir-Book" font-size="11.00">loom::Serializer</text>
<polyline fill="none" stroke="black" points="1.5,-257.5 118.5,-257.5 "/>
<text text-anchor="start" x="9.5" y="-244.7" font-family="Avenir-Book" font-size="11.00"># Ctx</text>
<text text-anchor="start" x="9.5" y="-232.7" font-family="Avenir-Book" font-size="11.00"># Byte</text>
<text text-anchor="start" x="9.5" y="-220.7" font-family="Avenir-Book" font-size="11.00"># BytePtr</text>
<text text-anchor="start" x="9.5" y="-208.7" font-family="Avenir-Book" font-size="11.00"># SizeT</text>
<polyline fill="none" stroke="black" points="1.5,-201.5 118.5,-201.5 "/>
<text text-anchor="start" x="9.5" y="-188.7" font-family="Avenir-Book" font-size="11.00">+ SchemeName()</text>
<text text-anchor="start" x="9.5" y="-176.7" font-family="Avenir-Book" font-size="11.00">+ Serialize()</text>
<text text-anchor="start" x="9.5" y="-164.7" font-family="Avenir-Book" font-size="11.00">+ Cleanup()</text>
<text text-anchor="start" x="9.5" y="-152.7" font-family="Avenir-Book" font-size="11.00">+ None()</text>
<text text-anchor="start" x="9.5" y="-140.7" font-family="Avenir-Book" font-size="11.00"># Serializer()</text>
</a>
</g>
</g>
<!-- Node1&#45;&gt;Node0 -->
<g id="edge1" class="edge"><title>Node1&#45;&gt;Node0</title>
<path fill="none" stroke="midnightblue" d="M60,-123.144C60,-114.107 60,-105.139 60,-96.7353"/>
<polygon fill="none" stroke="midnightblue" points="56.5001,-123.351 60,-133.351 63.5001,-123.351 56.5001,-123.351"/>
</g>
</g>
</svg>
