<?xml version="1.0" encoding="UTF-8" standalone="no"?>
<!DOCTYPE svg PUBLIC "-//W3C//DTD SVG 1.1//EN"
 "http://www.w3.org/Graphics/SVG/1.1/DTD/svg11.dtd">
<!-- Generated by graphviz version 2.36.0 (20140111.2315)
 -->
<!-- Title: Values Pages: 1 -->
<svg width="346pt" height="40pt"
 viewBox="0.00 0.00 346.00 40.00" xmlns="http://www.w3.org/2000/svg" xmlns:xlink="http://www.w3.org/1999/xlink">
<g id="graph0" class="graph" transform="scale(1 1) rotate(0) translate(4 36)">
<title>Values</title>
<!-- Node1 -->
<g id="node1" class="node"><title>Node1</title>
<polygon fill="#bfbfbf" stroke="black" points="0,-6 0,-26 50,-26 50,-6 0,-6"/>
<text text-anchor="middle" x="25" y="-13.2" font-family="Avenir-Book" font-size="11.00">Values</text>
</g>
<!-- Node2 -->
<g id="node2" class="node"><title>Node2</title>
<g id="a_node2"><a xlink:href="classloom_1_1_instrumenter.html#a86d906802f2995abe566c717634c7d9d" target="_top" xlink:title="Instrument an instruction generically: instruction name and values. ">
<polygon fill="none" stroke="black" points="86,-0 86,-32 194,-32 194,-0 86,-0"/>
<text text-anchor="start" x="94" y="-19.2" font-family="Avenir-Book" font-size="11.00">loom::Instrumenter</text>
<text text-anchor="middle" x="140" y="-7.2" font-family="Avenir-Book" font-size="11.00">::Instrument</text>
</a>
</g>
</g>
<!-- Node1&#45;&gt;Node2 -->
<g id="edge1" class="edge"><title>Node1&#45;&gt;Node2</title>
<path fill="none" stroke="midnightblue" d="M60.2663,-16C68.2523,-16 76.9433,-16 85.5403,-16"/>
<polygon fill="midnightblue" stroke="midnightblue" points="60.2414,-12.5001 50.2413,-16 60.2413,-19.5001 60.2414,-12.5001"/>
</g>
<!-- Node3 -->
<g id="node3" class="node"><title>Node3</title>
<g id="a_node3"><a xlink:href="classloom_1_1_instrumenter.html#acc22e5decacbbfe930d755659cf0c23a" target="_top" xlink:title="Instrument a function call (caller&#45;side), either calling or returning. ">
<polygon fill="none" stroke="black" points="230,-0 230,-32 338,-32 338,-0 230,-0"/>
<text text-anchor="start" x="238" y="-19.2" font-family="Avenir-Book" font-size="11.00">loom::Instrumenter</text>
<text text-anchor="middle" x="284" y="-7.2" font-family="Avenir-Book" font-size="11.00">::Instrument</text>
</a>
</g>
</g>
<!-- Node2&#45;&gt;Node3 -->
<g id="edge2" class="edge"><title>Node2&#45;&gt;Node3</title>
<path fill="none" stroke="midnightblue" d="M204.517,-16C212.996,-16 221.618,-16 229.894,-16"/>
<polygon fill="midnightblue" stroke="midnightblue" points="204.28,-12.5001 194.28,-16 204.28,-19.5001 204.28,-12.5001"/>
</g>
</g>
</svg>
