<?xml version="1.0" encoding="UTF-8" standalone="no"?>
<!DOCTYPE svg PUBLIC "-//W3C//DTD SVG 1.1//EN"
 "http://www.w3.org/Graphics/SVG/1.1/DTD/svg11.dtd">
<!-- Generated by graphviz version 2.38.0 (20140413.2041)
 -->
<!-- Title: SchemeName Pages: 1 -->
<svg width="201pt" height="68pt"
 viewBox="0.00 0.00 201.00 68.00" xmlns="http://www.w3.org/2000/svg" xmlns:xlink="http://www.w3.org/1999/xlink">
<g id="graph0" class="graph" transform="scale(1 1) rotate(0) translate(4 64)">
<title>SchemeName</title>
<!-- Node3 -->
<g id="node1" class="node"><title>Node3</title>
<polygon fill="#bfbfbf" stroke="black" points="0,-19.5 0,-39.5 95,-39.5 95,-19.5 0,-19.5"/>
<text text-anchor="middle" x="47.5" y="-26.7" font-family="Avenir-Book" font-size="11.00">SchemeName</text>
</g>
<!-- Node4 -->
<g id="node2" class="node"><title>Node4</title>
<g id="a_node2"><a xlink:href="classloom_1_1NVSerializer.html#a4c5e9942c3b219aaa11d670a8d10ad6d" target="_top" xlink:title="Clean up a serialized data buffer using Serializer&#45;specific cleanup code (e.g., free() or nvlist_dest...">
<polygon fill="none" stroke="black" points="132,-39.5 132,-59.5 192,-59.5 192,-39.5 132,-39.5"/>
<text text-anchor="middle" x="162" y="-46.7" font-family="Avenir-Book" font-size="11.00">Cleanup</text>
</a>
</g>
</g>
<!-- Node3&#45;&gt;Node4 -->
<g id="edge1" class="edge"><title>Node3&#45;&gt;Node4</title>
<path fill="none" stroke="midnightblue" d="M95.2328,-37.808C104.074,-39.3798 113.238,-41.0091 121.818,-42.5343"/>
<polygon fill="midnightblue" stroke="midnightblue" points="121.473,-46.0278 131.931,-44.3322 122.698,-39.1359 121.473,-46.0278"/>
</g>
<!-- Node5 -->
<g id="node3" class="node"><title>Node5</title>
<g id="a_node3"><a xlink:href="classloom_1_1NVSerializer.html#a6ed4b4993ed0931e1597cd93f395f564" target="_top" xlink:title="Generate the code to serialize a set of values, returning details of the resulting buffer (pointer an...">
<polygon fill="none" stroke="black" points="131,-0.5 131,-20.5 193,-20.5 193,-0.5 131,-0.5"/>
<text text-anchor="middle" x="162" y="-7.7" font-family="Avenir-Book" font-size="11.00">Serialize</text>
</a>
</g>
</g>
<!-- Node3&#45;&gt;Node5 -->
<g id="edge2" class="edge"><title>Node3&#45;&gt;Node5</title>
<path fill="none" stroke="midnightblue" d="M95.2328,-21.6074C103.817,-20.1576 112.705,-18.6565 121.067,-17.2443"/>
<polygon fill="midnightblue" stroke="midnightblue" points="121.672,-20.6918 130.949,-15.5753 120.506,-13.7895 121.672,-20.6918"/>
</g>
</g>
</svg>
