<?xml version="1.0" encoding="UTF-8" standalone="no"?>
<!DOCTYPE svg PUBLIC "-//W3C//DTD SVG 1.1//EN"
 "http://www.w3.org/Graphics/SVG/1.1/DTD/svg11.dtd">
<!-- Generated by graphviz version 2.36.0 (20140111.2315)
 -->
<!-- Title: loom::Serializer Pages: 1 -->
<svg width="245pt" height="288pt"
 viewBox="0.00 0.00 245.00 288.00" xmlns="http://www.w3.org/2000/svg" xmlns:xlink="http://www.w3.org/1999/xlink">
<g id="graph0" class="graph" transform="scale(1 1) rotate(0) translate(4 284)">
<title>loom::Serializer</title>
<!-- Node1 -->
<g id="node1" class="node"><title>Node1</title>
<polygon fill="#bfbfbf" stroke="black" points="67.5,-135 67.5,-279 170.5,-279 170.5,-135 67.5,-135"/>
<text text-anchor="middle" x="119" y="-266.2" font-family="Avenir-Book" font-size="11.00">loom::Serializer</text>
<polyline fill="none" stroke="black" points="67.5,-259 170.5,-259 "/>
<text text-anchor="start" x="75.5" y="-246.2" font-family="Avenir-Book" font-size="11.00"># Ctx</text>
<text text-anchor="start" x="75.5" y="-234.2" font-family="Avenir-Book" font-size="11.00"># Byte</text>
<text text-anchor="start" x="75.5" y="-222.2" font-family="Avenir-Book" font-size="11.00"># BytePtr</text>
<text text-anchor="start" x="75.5" y="-210.2" font-family="Avenir-Book" font-size="11.00"># SizeT</text>
<polyline fill="none" stroke="black" points="67.5,-203 170.5,-203 "/>
<text text-anchor="start" x="75.5" y="-190.2" font-family="Avenir-Book" font-size="11.00">+ SchemeName()</text>
<text text-anchor="start" x="75.5" y="-178.2" font-family="Avenir-Book" font-size="11.00">+ Serialize()</text>
<text text-anchor="start" x="75.5" y="-166.2" font-family="Avenir-Book" font-size="11.00">+ Cleanup()</text>
<text text-anchor="start" x="75.5" y="-154.2" font-family="Avenir-Book" font-size="11.00">+ None()</text>
<text text-anchor="start" x="75.5" y="-142.2" font-family="Avenir-Book" font-size="11.00"># Serializer()</text>
</g>
<!-- Node2 -->
<g id="node2" class="node"><title>Node2</title>
<g id="a_node2"><a xlink:href="classloom_1_1_null_serializer.html" target="_top" xlink:title="A Serializer that doesn&#39;t serialize anything. ">
<polygon fill="none" stroke="black" points="-0.5,-1 -0.5,-97 110.5,-97 110.5,-1 -0.5,-1"/>
<text text-anchor="middle" x="55" y="-84.2" font-family="Avenir-Book" font-size="11.00">loom::NullSerializer</text>
<polyline fill="none" stroke="black" points="-0.5,-77 110.5,-77 "/>
<text text-anchor="middle" x="55" y="-64.2" font-family="Avenir-Book" font-size="11.00"> </text>
<polyline fill="none" stroke="black" points="-0.5,-57 110.5,-57 "/>
<text text-anchor="start" x="7.5" y="-44.2" font-family="Avenir-Book" font-size="11.00">+ NullSerializer()</text>
<text text-anchor="start" x="7.5" y="-32.2" font-family="Avenir-Book" font-size="11.00">+ SchemeName()</text>
<text text-anchor="start" x="7.5" y="-20.2" font-family="Avenir-Book" font-size="11.00">+ Serialize()</text>
<text text-anchor="start" x="7.5" y="-8.2" font-family="Avenir-Book" font-size="11.00">+ Cleanup()</text>
</a>
</g>
</g>
<!-- Node1&#45;&gt;Node2 -->
<g id="edge1" class="edge"><title>Node1&#45;&gt;Node2</title>
<path fill="none" stroke="midnightblue" d="M85.8926,-125.301C81.9746,-115.751 78.0787,-106.254 74.4403,-97.3858"/>
<polygon fill="none" stroke="midnightblue" points="82.7756,-126.924 89.8093,-134.848 89.2518,-124.267 82.7756,-126.924"/>
</g>
<!-- Node3 -->
<g id="node3" class="node"><title>Node3</title>
<g id="a_node3"><a xlink:href="classloom_1_1_n_v_serializer.html" target="_top" xlink:title="A Serializer that uses libnv to aggregate values. ">
<polygon fill="none" stroke="black" points="129,-1 129,-97 237,-97 237,-1 129,-1"/>
<text text-anchor="middle" x="183" y="-84.2" font-family="Avenir-Book" font-size="11.00">loom::NVSerializer</text>
<polyline fill="none" stroke="black" points="129,-77 237,-77 "/>
<text text-anchor="middle" x="183" y="-64.2" font-family="Avenir-Book" font-size="11.00"> </text>
<polyline fill="none" stroke="black" points="129,-57 237,-57 "/>
<text text-anchor="start" x="137" y="-44.2" font-family="Avenir-Book" font-size="11.00">+ NVSerializer()</text>
<text text-anchor="start" x="137" y="-32.2" font-family="Avenir-Book" font-size="11.00">+ SchemeName()</text>
<text text-anchor="start" x="137" y="-20.2" font-family="Avenir-Book" font-size="11.00">+ Serialize()</text>
<text text-anchor="start" x="137" y="-8.2" font-family="Avenir-Book" font-size="11.00">+ Cleanup()</text>
</a>
</g>
</g>
<!-- Node1&#45;&gt;Node3 -->
<g id="edge2" class="edge"><title>Node1&#45;&gt;Node3</title>
<path fill="none" stroke="midnightblue" d="M152.107,-125.301C156.025,-115.751 159.921,-106.254 163.56,-97.3858"/>
<polygon fill="none" stroke="midnightblue" points="148.748,-124.267 148.191,-134.848 155.224,-126.924 148.748,-124.267"/>
</g>
</g>
</svg>
