<?xml version="1.0" encoding="UTF-8" standalone="no"?>
<!DOCTYPE svg PUBLIC "-//W3C//DTD SVG 1.1//EN"
 "http://www.w3.org/Graphics/SVG/1.1/DTD/svg11.dtd">
<!-- Generated by graphviz version 2.38.0 (20140413.2041)
 -->
<!-- Title: loom::KTraceLogger Pages: 1 -->
<svg width="133pt" height="202pt"
 viewBox="0.00 0.00 133.00 202.00" xmlns="http://www.w3.org/2000/svg" xmlns:xlink="http://www.w3.org/1999/xlink">
<g id="graph0" class="graph" transform="scale(1 1) rotate(0) translate(4 198)">
<title>loom::KTraceLogger</title>
<!-- Node0 -->
<g id="node1" class="node"><title>Node0</title>
<polygon fill="#bfbfbf" stroke="black" points="-7.10543e-15,-0.5 -7.10543e-15,-72.5 125,-72.5 125,-0.5 -7.10543e-15,-0.5"/>
<text text-anchor="middle" x="62.5" y="-59.7" font-family="Avenir-Book" font-size="11.00">loom::KTraceLogger</text>
<polyline fill="none" stroke="black" points="-7.10543e-15,-52.5 125,-52.5 "/>
<text text-anchor="middle" x="62.5" y="-39.7" font-family="Avenir-Book" font-size="11.00"> </text>
<polyline fill="none" stroke="black" points="-7.10543e-15,-32.5 125,-32.5 "/>
<text text-anchor="start" x="8" y="-19.7" font-family="Avenir-Book" font-size="11.00">+ KTraceLogger()</text>
<text text-anchor="start" x="8" y="-7.7" font-family="Avenir-Book" font-size="11.00">+ Log()</text>
</g>
<!-- Node1 -->
<g id="node2" class="node"><title>Node1</title>
<g id="a_node2"><a xlink:href="classloom_1_1Logger.html" target="_top" xlink:title="Something that can be used to log events, e.g., printf or libxo. ">
<polygon fill="none" stroke="black" points="18,-109.5 18,-193.5 107,-193.5 107,-109.5 18,-109.5"/>
<text text-anchor="middle" x="62.5" y="-180.7" font-family="Avenir-Book" font-size="11.00">loom::Logger</text>
<polyline fill="none" stroke="black" points="18,-173.5 107,-173.5 "/>
<text text-anchor="start" x="26" y="-160.7" font-family="Avenir-Book" font-size="11.00"># Mod</text>
<polyline fill="none" stroke="black" points="18,-153.5 107,-153.5 "/>
<text text-anchor="start" x="26" y="-140.7" font-family="Avenir-Book" font-size="11.00">+ Log()</text>
<text text-anchor="start" x="26" y="-128.7" font-family="Avenir-Book" font-size="11.00">+ Log()</text>
<text text-anchor="start" x="26" y="-116.7" font-family="Avenir-Book" font-size="11.00"># Logger()</text>
</a>
</g>
</g>
<!-- Node1&#45;&gt;Node0 -->
<g id="edge1" class="edge"><title>Node1&#45;&gt;Node0</title>
<path fill="none" stroke="midnightblue" d="M62.5,-99.3738C62.5,-90.3949 62.5,-81.2334 62.5,-72.8072"/>
<polygon fill="none" stroke="midnightblue" points="59.0001,-99.3847 62.5,-109.385 66.0001,-99.3848 59.0001,-99.3847"/>
</g>
</g>
</svg>
