<?xml version="1.0" encoding="UTF-8" standalone="no"?>
<!DOCTYPE svg PUBLIC "-//W3C//DTD SVG 1.1//EN"
 "http://www.w3.org/Graphics/SVG/1.1/DTD/svg11.dtd">
<!-- Generated by graphviz version 2.36.0 (20140111.2315)
 -->
<!-- Title: loom::Logger Pages: 1 -->
<svg width="272pt" height="288pt"
 viewBox="0.00 0.00 272.00 288.00" xmlns="http://www.w3.org/2000/svg" xmlns:xlink="http://www.w3.org/1999/xlink">
<g id="graph0" class="graph" transform="scale(1 1) rotate(0) translate(4 284)">
<title>loom::Logger</title>
<!-- Node1 -->
<g id="node1" class="node"><title>Node1</title>
<polygon fill="#bfbfbf" stroke="black" points="87.5,-195 87.5,-279 168.5,-279 168.5,-195 87.5,-195"/>
<text text-anchor="middle" x="128" y="-266.2" font-family="Avenir-Book" font-size="11.00">loom::Logger</text>
<polyline fill="none" stroke="black" points="87.5,-259 168.5,-259 "/>
<text text-anchor="start" x="95.5" y="-246.2" font-family="Avenir-Book" font-size="11.00"># Mod</text>
<polyline fill="none" stroke="black" points="87.5,-239 168.5,-239 "/>
<text text-anchor="start" x="95.5" y="-226.2" font-family="Avenir-Book" font-size="11.00">+ Log()</text>
<text text-anchor="start" x="95.5" y="-214.2" font-family="Avenir-Book" font-size="11.00">+ Log()</text>
<text text-anchor="start" x="95.5" y="-202.2" font-family="Avenir-Book" font-size="11.00"># Logger()</text>
</g>
<!-- Node2 -->
<g id="node2" class="node"><title>Node2</title>
<g id="a_node2"><a xlink:href="classloom_1_1_k_trace_logger.html" target="_top" xlink:title="A logging technique that serializes values with libnv and writes them to the BSD ktrace framework...">
<polygon fill="none" stroke="black" points="0,-43 0,-115 116,-115 116,-43 0,-43"/>
<text text-anchor="middle" x="58" y="-102.2" font-family="Avenir-Book" font-size="11.00">loom::KTraceLogger</text>
<polyline fill="none" stroke="black" points="0,-95 116,-95 "/>
<text text-anchor="middle" x="58" y="-82.2" font-family="Avenir-Book" font-size="11.00"> </text>
<polyline fill="none" stroke="black" points="0,-75 116,-75 "/>
<text text-anchor="start" x="8" y="-62.2" font-family="Avenir-Book" font-size="11.00">+ KTraceLogger()</text>
<text text-anchor="start" x="8" y="-50.2" font-family="Avenir-Book" font-size="11.00">+ Log()</text>
</a>
</g>
</g>
<!-- Node1&#45;&gt;Node2 -->
<g id="edge1" class="edge"><title>Node1&#45;&gt;Node2</title>
<path fill="none" stroke="midnightblue" d="M105.279,-185.365C94.9987,-162.454 83.0999,-135.937 73.811,-115.236"/>
<polygon fill="none" stroke="midnightblue" points="102.138,-186.914 109.425,-194.604 108.524,-184.048 102.138,-186.914"/>
</g>
<!-- Node3 -->
<g id="node3" class="node"><title>Node3</title>
<g id="a_node3"><a xlink:href="classloom_1_1_simple_logger.html" target="_top" xlink:title="A logging technique that requires a single call to a printf&#45;like function. ">
<polygon fill="none" stroke="black" points="134,-1 134,-157 264,-157 264,-1 134,-1"/>
<text text-anchor="middle" x="199" y="-144.2" font-family="Avenir-Book" font-size="11.00">loom::SimpleLogger</text>
<polyline fill="none" stroke="black" points="134,-137 264,-137 "/>
<text text-anchor="start" x="142" y="-124.2" font-family="Avenir-Book" font-size="11.00"># FormatStrings</text>
<polyline fill="none" stroke="black" points="134,-117 264,-117 "/>
<text text-anchor="start" x="142" y="-104.2" font-family="Avenir-Book" font-size="11.00">+ Log()</text>
<text text-anchor="start" x="142" y="-92.2" font-family="Avenir-Book" font-size="11.00">+ Call()</text>
<text text-anchor="start" x="142" y="-80.2" font-family="Avenir-Book" font-size="11.00">+ Create()</text>
<text text-anchor="start" x="142" y="-68.2" font-family="Avenir-Book" font-size="11.00"># SimpleLogger()</text>
<text text-anchor="start" x="142" y="-56.2" font-family="Avenir-Book" font-size="11.00"># GetFunction()</text>
<text text-anchor="start" x="142" y="-44.2" font-family="Avenir-Book" font-size="11.00"># FunctionName()</text>
<text text-anchor="start" x="142" y="-32.2" font-family="Avenir-Book" font-size="11.00"># GetType()</text>
<text text-anchor="start" x="142" y="-20.2" font-family="Avenir-Book" font-size="11.00"># CreateFormatString()</text>
<text text-anchor="start" x="142" y="-8.2" font-family="Avenir-Book" font-size="11.00"># Adapt()</text>
</a>
</g>
</g>
<!-- Node1&#45;&gt;Node3 -->
<g id="edge2" class="edge"><title>Node1&#45;&gt;Node3</title>
<path fill="none" stroke="midnightblue" d="M151.022,-185.416C155.135,-176.38 159.503,-166.782 163.864,-157.2"/>
<polygon fill="none" stroke="midnightblue" points="147.797,-184.053 146.84,-194.604 154.168,-186.953 147.797,-184.053"/>
</g>
</g>
</svg>
