<?xml version="1.0" encoding="UTF-8" standalone="no"?>
<!DOCTYPE svg PUBLIC "-//W3C//DTD SVG 1.1//EN"
 "http://www.w3.org/Graphics/SVG/1.1/DTD/svg11.dtd">
<!-- Generated by graphviz version 2.36.0 (20140111.2315)
 -->
<!-- Title: loom::KTraceLogger Pages: 1 -->
<svg width="124pt" height="204pt"
 viewBox="0.00 0.00 124.00 204.00" xmlns="http://www.w3.org/2000/svg" xmlns:xlink="http://www.w3.org/1999/xlink">
<g id="graph0" class="graph" transform="scale(1 1) rotate(0) translate(4 200)">
<title>loom::KTraceLogger</title>
<!-- Node1 -->
<g id="node1" class="node"><title>Node1</title>
<polygon fill="#bfbfbf" stroke="black" points="0,-1 0,-73 116,-73 116,-1 0,-1"/>
<text text-anchor="middle" x="58" y="-60.2" font-family="Avenir-Book" font-size="11.00">loom::KTraceLogger</text>
<polyline fill="none" stroke="black" points="0,-53 116,-53 "/>
<text text-anchor="middle" x="58" y="-40.2" font-family="Avenir-Book" font-size="11.00"> </text>
<polyline fill="none" stroke="black" points="0,-33 116,-33 "/>
<text text-anchor="start" x="8" y="-20.2" font-family="Avenir-Book" font-size="11.00">+ KTraceLogger()</text>
<text text-anchor="start" x="8" y="-8.2" font-family="Avenir-Book" font-size="11.00">+ Log()</text>
</g>
<!-- Node2 -->
<g id="node2" class="node"><title>Node2</title>
<g id="a_node2"><a xlink:href="classloom_1_1_logger.html" target="_top" xlink:title="Something that can be used to log events, e.g., printf or libxo. ">
<polygon fill="none" stroke="black" points="17.5,-111 17.5,-195 98.5,-195 98.5,-111 17.5,-111"/>
<text text-anchor="middle" x="58" y="-182.2" font-family="Avenir-Book" font-size="11.00">loom::Logger</text>
<polyline fill="none" stroke="black" points="17.5,-175 98.5,-175 "/>
<text text-anchor="start" x="25.5" y="-162.2" font-family="Avenir-Book" font-size="11.00"># Mod</text>
<polyline fill="none" stroke="black" points="17.5,-155 98.5,-155 "/>
<text text-anchor="start" x="25.5" y="-142.2" font-family="Avenir-Book" font-size="11.00">+ Log()</text>
<text text-anchor="start" x="25.5" y="-130.2" font-family="Avenir-Book" font-size="11.00">+ Log()</text>
<text text-anchor="start" x="25.5" y="-118.2" font-family="Avenir-Book" font-size="11.00"># Logger()</text>
</a>
</g>
</g>
<!-- Node2&#45;&gt;Node1 -->
<g id="edge1" class="edge"><title>Node2&#45;&gt;Node1</title>
<path fill="none" stroke="midnightblue" d="M58,-100.803C58,-91.4297 58,-81.8443 58,-73.0756"/>
<polygon fill="none" stroke="midnightblue" points="54.5001,-100.843 58,-110.843 61.5001,-100.843 54.5001,-100.843"/>
</g>
</g>
</svg>
