<?xml version="1.0" encoding="UTF-8" standalone="no"?>
<!DOCTYPE svg PUBLIC "-//W3C//DTD SVG 1.1//EN"
 "http://www.w3.org/Graphics/SVG/1.1/DTD/svg11.dtd">
<!-- Generated by graphviz version 2.38.0 (20140413.2041)
 -->
<!-- Title: src/DebugInfo.cc Pages: 1 -->
<svg width="933pt" height="143pt"
 viewBox="0.00 0.00 933.00 143.00" xmlns="http://www.w3.org/2000/svg" xmlns:xlink="http://www.w3.org/1999/xlink">
<g id="graph0" class="graph" transform="scale(1 1) rotate(0) translate(4 139)">
<title>src/DebugInfo.cc</title>
<!-- Node0 -->
<g id="node1" class="node"><title>Node0</title>
<polygon fill="#bfbfbf" stroke="black" points="517,-114.5 517,-134.5 624,-134.5 624,-114.5 517,-114.5"/>
<text text-anchor="middle" x="570.5" y="-121.7" font-family="Avenir-Book" font-size="11.00">src/DebugInfo.cc</text>
</g>
<!-- Node1 -->
<g id="node2" class="node"><title>Node1</title>
<g id="a_node2"><a xlink:href="DebugInfo_8hh.html" target="_top" xlink:title="Declaration of DebugInfo class. ">
<polygon fill="none" stroke="black" points="293,-57.5 293,-77.5 382,-77.5 382,-57.5 293,-57.5"/>
<text text-anchor="middle" x="337.5" y="-64.7" font-family="Avenir-Book" font-size="11.00">DebugInfo.hh</text>
</a>
</g>
</g>
<!-- Node0&#45;&gt;Node1 -->
<g id="edge1" class="edge"><title>Node0&#45;&gt;Node1</title>
<path fill="none" stroke="midnightblue" d="M532.286,-114.479C492.161,-105.008 428.977,-90.0933 385.513,-79.8335"/>
<polygon fill="midnightblue" stroke="midnightblue" points="386.272,-76.4165 375.735,-77.5255 384.664,-83.2293 386.272,-76.4165"/>
</g>
<!-- Node5 -->
<g id="node6" class="node"><title>Node5</title>
<polygon fill="none" stroke="#bfbfbf" points="415,-0.5 415,-20.5 588,-20.5 588,-0.5 415,-0.5"/>
<text text-anchor="middle" x="501.5" y="-7.7" font-family="Avenir-Book" font-size="11.00">llvm/Support/raw_ostream.h</text>
</g>
<!-- Node0&#45;&gt;Node5 -->
<g id="edge9" class="edge"><title>Node0&#45;&gt;Node5</title>
<path fill="none" stroke="midnightblue" d="M528.455,-114.342C508.8,-107.727 487.195,-96.5685 475.5,-78 465.652,-62.3647 476.088,-42.391 486.525,-28.4323"/>
<polygon fill="midnightblue" stroke="midnightblue" points="489.281,-30.5895 492.842,-20.6109 483.836,-26.1912 489.281,-30.5895"/>
</g>
<!-- Node6 -->
<g id="node7" class="node"><title>Node6</title>
<polygon fill="none" stroke="#bfbfbf" points="484,-57.5 484,-77.5 657,-77.5 657,-57.5 484,-57.5"/>
<text text-anchor="middle" x="570.5" y="-64.7" font-family="Avenir-Book" font-size="11.00">llvm/IR/DebugInfoMetadata.h</text>
</g>
<!-- Node0&#45;&gt;Node6 -->
<g id="edge6" class="edge"><title>Node0&#45;&gt;Node6</title>
<path fill="none" stroke="midnightblue" d="M570.5,-114.418C570.5,-107.216 570.5,-96.8962 570.5,-87.8632"/>
<polygon fill="midnightblue" stroke="midnightblue" points="574,-87.7794 570.5,-77.7795 567,-87.7795 574,-87.7794"/>
</g>
<!-- Node7 -->
<g id="node8" class="node"><title>Node7</title>
<polygon fill="none" stroke="#bfbfbf" points="675,-57.5 675,-77.5 802,-77.5 802,-57.5 675,-57.5"/>
<text text-anchor="middle" x="738.5" y="-64.7" font-family="Avenir-Book" font-size="11.00">llvm/IR/IntrinsicInst.h</text>
</g>
<!-- Node0&#45;&gt;Node7 -->
<g id="edge7" class="edge"><title>Node0&#45;&gt;Node7</title>
<path fill="none" stroke="midnightblue" d="M598.242,-114.418C626.414,-105.195 670.21,-90.8567 701.362,-80.6582"/>
<polygon fill="midnightblue" stroke="midnightblue" points="702.582,-83.9419 710.996,-77.5042 700.404,-77.2893 702.582,-83.9419"/>
</g>
<!-- Node8 -->
<g id="node9" class="node"><title>Node8</title>
<polygon fill="none" stroke="#bfbfbf" points="820,-57.5 820,-77.5 925,-77.5 925,-57.5 820,-57.5"/>
<text text-anchor="middle" x="872.5" y="-64.7" font-family="Avenir-Book" font-size="11.00">llvm/IR/Module.h</text>
</g>
<!-- Node0&#45;&gt;Node8 -->
<g id="edge8" class="edge"><title>Node0&#45;&gt;Node8</title>
<path fill="none" stroke="midnightblue" d="M620.031,-114.479C672.914,-104.848 756.7,-89.5894 813.093,-79.3191"/>
<polygon fill="midnightblue" stroke="midnightblue" points="813.731,-82.7606 822.942,-77.5255 812.477,-75.8739 813.731,-82.7606"/>
</g>
<!-- Node2 -->
<g id="node3" class="node"><title>Node2</title>
<polygon fill="none" stroke="#bfbfbf" points="0,-0.5 0,-20.5 123,-20.5 123,-0.5 0,-0.5"/>
<text text-anchor="middle" x="61.5" y="-7.7" font-family="Avenir-Book" font-size="11.00">llvm/IR/Instruction.h</text>
</g>
<!-- Node1&#45;&gt;Node2 -->
<g id="edge2" class="edge"><title>Node1&#45;&gt;Node2</title>
<path fill="none" stroke="midnightblue" d="M292.849,-57.6022C244.934,-48.0538 168.753,-32.8729 117.012,-22.5621"/>
<polygon fill="midnightblue" stroke="midnightblue" points="117.496,-19.0899 107.005,-20.568 116.128,-25.955 117.496,-19.0899"/>
</g>
<!-- Node3 -->
<g id="node4" class="node"><title>Node3</title>
<polygon fill="none" stroke="#bfbfbf" points="141,-0.5 141,-20.5 260,-20.5 260,-0.5 141,-0.5"/>
<text text-anchor="middle" x="200.5" y="-7.7" font-family="Avenir-Book" font-size="11.00">llvm/IR/Metadata.h</text>
</g>
<!-- Node1&#45;&gt;Node3 -->
<g id="edge3" class="edge"><title>Node1&#45;&gt;Node3</title>
<path fill="none" stroke="midnightblue" d="M314.877,-57.4179C292.468,-48.4215 257.936,-34.5581 232.675,-24.4172"/>
<polygon fill="midnightblue" stroke="midnightblue" points="233.74,-21.0732 223.156,-20.5956 231.132,-27.5693 233.74,-21.0732"/>
</g>
<!-- Node4 -->
<g id="node5" class="node"><title>Node4</title>
<polygon fill="none" stroke="#bfbfbf" points="278,-0.5 278,-20.5 397,-20.5 397,-0.5 278,-0.5"/>
<text text-anchor="middle" x="337.5" y="-7.7" font-family="Avenir-Book" font-size="11.00">llvm/IR/ValueMap.h</text>
</g>
<!-- Node1&#45;&gt;Node4 -->
<g id="edge4" class="edge"><title>Node1&#45;&gt;Node4</title>
<path fill="none" stroke="midnightblue" d="M337.5,-57.4179C337.5,-50.2164 337.5,-39.8962 337.5,-30.8632"/>
<polygon fill="midnightblue" stroke="midnightblue" points="341,-30.7794 337.5,-20.7795 334,-30.7795 341,-30.7794"/>
</g>
<!-- Node1&#45;&gt;Node5 -->
<g id="edge5" class="edge"><title>Node1&#45;&gt;Node5</title>
<path fill="none" stroke="midnightblue" d="M364.581,-57.4179C391.963,-48.2348 434.467,-33.9807 464.851,-23.7909"/>
<polygon fill="midnightblue" stroke="midnightblue" points="466.283,-27.0023 474.651,-20.5042 464.057,-20.3655 466.283,-27.0023"/>
</g>
</g>
</svg>
