<?xml version="1.0" encoding="UTF-8" standalone="no"?>
<!DOCTYPE svg PUBLIC "-//W3C//DTD SVG 1.1//EN"
 "http://www.w3.org/Graphics/SVG/1.1/DTD/svg11.dtd">
<!-- Generated by graphviz version 2.38.0 (20140413.2041)
 -->
<!-- Title: src/DebugInfo.hh Pages: 1 -->
<svg width="596pt" height="86pt"
 viewBox="0.00 0.00 596.00 86.00" xmlns="http://www.w3.org/2000/svg" xmlns:xlink="http://www.w3.org/1999/xlink">
<g id="graph0" class="graph" transform="scale(1 1) rotate(0) translate(4 82)">
<title>src/DebugInfo.hh</title>
<!-- Node0 -->
<g id="node1" class="node"><title>Node0</title>
<polygon fill="#bfbfbf" stroke="black" points="214,-57.5 214,-77.5 323,-77.5 323,-57.5 214,-57.5"/>
<text text-anchor="middle" x="268.5" y="-64.7" font-family="Avenir-Book" font-size="11.00">src/DebugInfo.hh</text>
</g>
<!-- Node1 -->
<g id="node2" class="node"><title>Node1</title>
<polygon fill="none" stroke="#bfbfbf" points="0,-0.5 0,-20.5 123,-20.5 123,-0.5 0,-0.5"/>
<text text-anchor="middle" x="61.5" y="-7.7" font-family="Avenir-Book" font-size="11.00">llvm/IR/Instruction.h</text>
</g>
<!-- Node0&#45;&gt;Node1 -->
<g id="edge1" class="edge"><title>Node0&#45;&gt;Node1</title>
<path fill="none" stroke="midnightblue" d="M234.318,-57.4179C199.005,-48.0352 143.768,-33.3586 105.279,-23.1322"/>
<polygon fill="midnightblue" stroke="midnightblue" points="105.952,-19.6896 95.3886,-20.5042 104.154,-26.4548 105.952,-19.6896"/>
</g>
<!-- Node2 -->
<g id="node3" class="node"><title>Node2</title>
<polygon fill="none" stroke="#bfbfbf" points="141,-0.5 141,-20.5 260,-20.5 260,-0.5 141,-0.5"/>
<text text-anchor="middle" x="200.5" y="-7.7" font-family="Avenir-Book" font-size="11.00">llvm/IR/Metadata.h</text>
</g>
<!-- Node0&#45;&gt;Node2 -->
<g id="edge2" class="edge"><title>Node0&#45;&gt;Node2</title>
<path fill="none" stroke="midnightblue" d="M257.271,-57.4179C247.096,-49.1876 231.884,-36.8839 219.767,-27.0836"/>
<polygon fill="midnightblue" stroke="midnightblue" points="221.949,-24.3469 211.973,-20.7795 217.547,-29.7895 221.949,-24.3469"/>
</g>
<!-- Node3 -->
<g id="node4" class="node"><title>Node3</title>
<polygon fill="none" stroke="#bfbfbf" points="278,-0.5 278,-20.5 397,-20.5 397,-0.5 278,-0.5"/>
<text text-anchor="middle" x="337.5" y="-7.7" font-family="Avenir-Book" font-size="11.00">llvm/IR/ValueMap.h</text>
</g>
<!-- Node0&#45;&gt;Node3 -->
<g id="edge3" class="edge"><title>Node0&#45;&gt;Node3</title>
<path fill="none" stroke="midnightblue" d="M279.894,-57.4179C290.219,-49.1876 305.655,-36.8839 317.95,-27.0836"/>
<polygon fill="midnightblue" stroke="midnightblue" points="320.22,-29.7495 325.859,-20.7795 315.857,-24.2757 320.22,-29.7495"/>
</g>
<!-- Node4 -->
<g id="node5" class="node"><title>Node4</title>
<polygon fill="none" stroke="#bfbfbf" points="415,-0.5 415,-20.5 588,-20.5 588,-0.5 415,-0.5"/>
<text text-anchor="middle" x="501.5" y="-7.7" font-family="Avenir-Book" font-size="11.00">llvm/Support/raw_ostream.h</text>
</g>
<!-- Node0&#45;&gt;Node4 -->
<g id="edge4" class="edge"><title>Node0&#45;&gt;Node4</title>
<path fill="none" stroke="midnightblue" d="M306.714,-57.4795C346.839,-48.008 410.023,-33.0933 453.487,-22.8335"/>
<polygon fill="midnightblue" stroke="midnightblue" points="454.336,-26.2293 463.265,-20.5255 452.728,-19.4165 454.336,-26.2293"/>
</g>
</g>
</svg>
