<?xml version="1.0" encoding="UTF-8" standalone="no"?>
<!DOCTYPE svg PUBLIC "-//W3C//DTD SVG 1.1//EN"
 "http://www.w3.org/Graphics/SVG/1.1/DTD/svg11.dtd">
<!-- Generated by graphviz version 2.38.0 (20140413.2041)
 -->
<!-- Title: src/DebugInfo.hh Pages: 1 -->
<svg width="232pt" height="86pt"
 viewBox="0.00 0.00 231.50 86.00" xmlns="http://www.w3.org/2000/svg" xmlns:xlink="http://www.w3.org/1999/xlink">
<g id="graph0" class="graph" transform="scale(1 1) rotate(0) translate(4 82)">
<title>src/DebugInfo.hh</title>
<!-- Node5 -->
<g id="node1" class="node"><title>Node5</title>
<polygon fill="#bfbfbf" stroke="black" points="59,-57.5 59,-77.5 168,-77.5 168,-57.5 59,-57.5"/>
<text text-anchor="middle" x="113.5" y="-64.7" font-family="Avenir-Book" font-size="11.00">src/DebugInfo.hh</text>
</g>
<!-- Node6 -->
<g id="node2" class="node"><title>Node6</title>
<g id="a_node2"><a xlink:href="DebugInfo_8cc.html" target="_top" xlink:title="Definition of DebugInfo class. ">
<polygon fill="none" stroke="black" points="0,-0.5 0,-20.5 107,-20.5 107,-0.5 0,-0.5"/>
<text text-anchor="middle" x="53.5" y="-7.7" font-family="Avenir-Book" font-size="11.00">src/DebugInfo.cc</text>
</a>
</g>
</g>
<!-- Node5&#45;&gt;Node6 -->
<g id="edge1" class="edge"><title>Node5&#45;&gt;Node6</title>
<path fill="none" stroke="midnightblue" d="M96.1373,-50.5841C85.5921,-40.9177 72.4978,-28.9147 63.623,-20.7795"/>
<polygon fill="midnightblue" stroke="midnightblue" points="93.8556,-53.2406 103.592,-57.4179 98.5857,-48.0805 93.8556,-53.2406"/>
</g>
<!-- Node7 -->
<g id="node3" class="node"><title>Node7</title>
<g id="a_node3"><a xlink:href="OptPass_8cc.html" target="_top" xlink:title="Definition of Loom&#39;s LLVM opt pass. ">
<polygon fill="none" stroke="black" points="125.5,-0.5 125.5,-20.5 223.5,-20.5 223.5,-0.5 125.5,-0.5"/>
<text text-anchor="middle" x="174.5" y="-7.7" font-family="Avenir-Book" font-size="11.00">src/OptPass.cc</text>
</a>
</g>
</g>
<!-- Node5&#45;&gt;Node7 -->
<g id="edge2" class="edge"><title>Node5&#45;&gt;Node7</title>
<path fill="none" stroke="midnightblue" d="M131.152,-50.5841C141.873,-40.9177 155.186,-28.9147 164.208,-20.7795"/>
<polygon fill="midnightblue" stroke="midnightblue" points="128.656,-48.122 123.573,-57.4179 133.344,-53.3209 128.656,-48.122"/>
</g>
</g>
</svg>
