<?xml version="1.0" encoding="UTF-8" standalone="no"?>
<!DOCTYPE svg PUBLIC "-//W3C//DTD SVG 1.1//EN"
 "http://www.w3.org/Graphics/SVG/1.1/DTD/svg11.dtd">
<!-- Generated by graphviz version 2.38.0 (20140413.2041)
 -->
<!-- Title: Graph Legend Pages: 1 -->
<svg width="584pt" height="164pt"
 viewBox="0.00 0.00 584.00 164.00" xmlns="http://www.w3.org/2000/svg" xmlns:xlink="http://www.w3.org/1999/xlink">
<g id="graph0" class="graph" transform="scale(1 1) rotate(0) translate(4 160)">
<title>Graph Legend</title>
<!-- Node9 -->
<g id="node1" class="node"><title>Node9</title>
<polygon fill="#bfbfbf" stroke="black" points="334,-20 270,-20 270,-0 334,-0 334,-20"/>
<text text-anchor="middle" x="302" y="-7.2" font-family="Avenir-Book" font-size="11.00">Inherited</text>
</g>
<!-- Node10 -->
<g id="node2" class="node"><title>Node10</title>
<g id="a_node2"><a xlink:href="$classPublicBase.html" xlink:title="PublicBase">
<polygon fill="none" stroke="black" points="74,-88 0,-88 0,-68 74,-68 74,-88"/>
<text text-anchor="middle" x="37" y="-75.2" font-family="Avenir-Book" font-size="11.00">PublicBase</text>
</a>
</g>
</g>
<!-- Node10&#45;&gt;Node9 -->
<g id="edge1" class="edge"><title>Node10&#45;&gt;Node9</title>
<path fill="none" stroke="midnightblue" d="M83.1935,-65.4952C136.646,-52.1824 223.271,-30.6079 269.877,-19.0004"/>
<polygon fill="midnightblue" stroke="midnightblue" points="82.1492,-62.1483 73.2915,-67.9614 83.8409,-68.9408 82.1492,-62.1483"/>
</g>
<!-- Node11 -->
<g id="node3" class="node"><title>Node11</title>
<g id="a_node3"><a xlink:href="$classTruncated.html" xlink:title="Truncated">
<polygon fill="none" stroke="red" points="72.5,-156 1.5,-156 1.5,-136 72.5,-136 72.5,-156"/>
<text text-anchor="middle" x="37" y="-143.2" font-family="Avenir-Book" font-size="11.00">Truncated</text>
</a>
</g>
</g>
<!-- Node11&#45;&gt;Node10 -->
<g id="edge2" class="edge"><title>Node11&#45;&gt;Node10</title>
<path fill="none" stroke="midnightblue" d="M37,-125.576C37,-113.193 37,-97.7217 37,-88.0991"/>
<polygon fill="midnightblue" stroke="midnightblue" points="33.5001,-125.823 37,-135.823 40.5001,-125.823 33.5001,-125.823"/>
</g>
<!-- Node13 -->
<g id="node4" class="node"><title>Node13</title>
<g id="a_node4"><a xlink:href="$classProtectedBase.html" xlink:title="ProtectedBase">
<polygon fill="none" stroke="black" points="189.5,-88 92.5,-88 92.5,-68 189.5,-68 189.5,-88"/>
<text text-anchor="middle" x="141" y="-75.2" font-family="Avenir-Book" font-size="11.00">ProtectedBase</text>
</a>
</g>
</g>
<!-- Node13&#45;&gt;Node9 -->
<g id="edge3" class="edge"><title>Node13&#45;&gt;Node9</title>
<path fill="none" stroke="darkgreen" d="M172.306,-64.1665C203.969,-51.1865 252.101,-31.4554 279.96,-20.0351"/>
<polygon fill="darkgreen" stroke="darkgreen" points="170.974,-60.9298 163.049,-67.9614 173.629,-67.4067 170.974,-60.9298"/>
</g>
<!-- Node14 -->
<g id="node5" class="node"><title>Node14</title>
<g id="a_node5"><a xlink:href="$classPrivateBase.html" xlink:title="PrivateBase">
<polygon fill="none" stroke="black" points="288.5,-88 207.5,-88 207.5,-68 288.5,-68 288.5,-88"/>
<text text-anchor="middle" x="248" y="-75.2" font-family="Avenir-Book" font-size="11.00">PrivateBase</text>
</a>
</g>
</g>
<!-- Node14&#45;&gt;Node9 -->
<g id="edge4" class="edge"><title>Node14&#45;&gt;Node9</title>
<path fill="none" stroke="#8b1a1a" d="M262.062,-59.8134C272.456,-47.1095 286.2,-30.3109 294.555,-20.0991"/>
<polygon fill="#8b1a1a" stroke="#8b1a1a" points="259.132,-57.867 255.508,-67.823 264.55,-62.2997 259.132,-57.867"/>
</g>
<!-- Node15 -->
<g id="node6" class="node"><title>Node15</title>
<polygon fill="none" stroke="#bfbfbf" points="407.5,-88 306.5,-88 306.5,-68 407.5,-68 407.5,-88"/>
<text text-anchor="middle" x="357" y="-75.2" font-family="Avenir-Book" font-size="11.00">Undocumented</text>
</g>
<!-- Node15&#45;&gt;Node9 -->
<g id="edge5" class="edge"><title>Node15&#45;&gt;Node9</title>
<path fill="none" stroke="midnightblue" d="M342.678,-59.8134C332.091,-47.1095 318.092,-30.3109 309.583,-20.0991"/>
<polygon fill="midnightblue" stroke="midnightblue" points="340.262,-62.3814 349.352,-67.823 345.639,-57.9001 340.262,-62.3814"/>
</g>
<!-- Node16 -->
<g id="node7" class="node"><title>Node16</title>
<g id="a_node7"><a xlink:href="$classTempl.html" xlink:title="Templ&lt; int &gt;">
<polygon fill="none" stroke="black" points="514.5,-88 425.5,-88 425.5,-68 514.5,-68 514.5,-88"/>
<text text-anchor="middle" x="470" y="-75.2" font-family="Avenir-Book" font-size="11.00">Templ&lt; int &gt;</text>
</a>
</g>
</g>
<!-- Node16&#45;&gt;Node9 -->
<g id="edge6" class="edge"><title>Node16&#45;&gt;Node9</title>
<path fill="none" stroke="midnightblue" d="M437.333,-64.1665C404.293,-51.1865 354.068,-31.4554 324.999,-20.0351"/>
<polygon fill="midnightblue" stroke="midnightblue" points="436.405,-67.5624 446.993,-67.9614 438.965,-61.0472 436.405,-67.5624"/>
</g>
<!-- Node17 -->
<g id="node8" class="node"><title>Node17</title>
<g id="a_node8"><a xlink:href="$classTempl.html" xlink:title="Templ&lt; T &gt;">
<polygon fill="none" stroke="black" points="511,-156 429,-156 429,-136 511,-136 511,-156"/>
<text text-anchor="middle" x="470" y="-143.2" font-family="Avenir-Book" font-size="11.00">Templ&lt; T &gt;</text>
</a>
</g>
</g>
<!-- Node17&#45;&gt;Node16 -->
<g id="edge7" class="edge"><title>Node17&#45;&gt;Node16</title>
<path fill="none" stroke="orange" stroke-dasharray="5,2" d="M470,-125.576C470,-113.193 470,-97.7217 470,-88.0991"/>
<polygon fill="orange" stroke="orange" points="466.5,-125.823 470,-135.823 473.5,-125.823 466.5,-125.823"/>
<text text-anchor="middle" x="490.5" y="-109.2" font-family="Avenir-Book" font-size="11.00">&lt; int &gt;</text>
</g>
<!-- Node18 -->
<g id="node9" class="node"><title>Node18</title>
<g id="a_node9"><a xlink:href="$classUsed.html" xlink:title="Used">
<polygon fill="none" stroke="black" points="576,-88 532,-88 532,-68 576,-68 576,-88"/>
<text text-anchor="middle" x="554" y="-75.2" font-family="Avenir-Book" font-size="11.00">Used</text>
</a>
</g>
</g>
<!-- Node18&#45;&gt;Node9 -->
<g id="edge8" class="edge"><title>Node18&#45;&gt;Node9</title>
<path fill="none" stroke="#9a32cd" stroke-dasharray="5,2" d="M521.919,-67.76C449.425,-47.9787 375.554,-29.3036 334.289,-19.0038"/>
<polygon fill="#9a32cd" stroke="#9a32cd" points="521.102,-71.1653 531.672,-70.4305 522.951,-64.4138 521.102,-71.1653"/>
<text text-anchor="middle" x="487.5" y="-41.2" font-family="Avenir-Book" font-size="11.00">m_usedClass</text>
</g>
</g>
</svg>
