<?xml version="1.0" encoding="UTF-8" standalone="no"?>
<!DOCTYPE svg PUBLIC "-//W3C//DTD SVG 1.1//EN"
 "http://www.w3.org/Graphics/SVG/1.1/DTD/svg11.dtd">
<!-- Generated by graphviz version 2.36.0 (20140111.2315)
 -->
<!-- Title: Graph Legend Pages: 1 -->
<svg width="548pt" height="164pt"
 viewBox="0.00 0.00 548.00 164.00" xmlns="http://www.w3.org/2000/svg" xmlns:xlink="http://www.w3.org/1999/xlink">
<g id="graph0" class="graph" transform="scale(1 1) rotate(0) translate(4 160)">
<title>Graph Legend</title>
<!-- Node9 -->
<g id="node1" class="node"><title>Node9</title>
<polygon fill="#bfbfbf" stroke="black" points="316.25,-20 257.75,-20 257.75,-0 316.25,-0 316.25,-20"/>
<text text-anchor="middle" x="287" y="-7.2" font-family="Avenir-Book" font-size="11.00">Inherited</text>
</g>
<!-- Node10 -->
<g id="node2" class="node"><title>Node10</title>
<g id="a_node2"><a xlink:href="$classPublicBase.html" xlink:title="PublicBase">
<polygon fill="none" stroke="black" points="72,-88 0,-88 0,-68 72,-68 72,-88"/>
<text text-anchor="middle" x="36" y="-75.2" font-family="Avenir-Book" font-size="11.00">PublicBase</text>
</a>
</g>
</g>
<!-- Node10&#45;&gt;Node9 -->
<g id="edge1" class="edge"><title>Node10&#45;&gt;Node9</title>
<path fill="none" stroke="midnightblue" d="M80.1521,-65.3903C131.254,-51.9531 213.975,-30.2019 257.718,-18.6997"/>
<polygon fill="midnightblue" stroke="midnightblue" points="79.1553,-62.0333 70.3742,-67.9614 80.9355,-68.8032 79.1553,-62.0333"/>
</g>
<!-- Node11 -->
<g id="node3" class="node"><title>Node11</title>
<g id="a_node3"><a xlink:href="$classTruncated.html" xlink:title="Truncated">
<polygon fill="none" stroke="red" points="69,-156 3,-156 3,-136 69,-136 69,-156"/>
<text text-anchor="middle" x="36" y="-143.2" font-family="Avenir-Book" font-size="11.00">Truncated</text>
</a>
</g>
</g>
<!-- Node11&#45;&gt;Node10 -->
<g id="edge2" class="edge"><title>Node11&#45;&gt;Node10</title>
<path fill="none" stroke="midnightblue" d="M36,-125.576C36,-113.193 36,-97.7217 36,-88.0991"/>
<polygon fill="midnightblue" stroke="midnightblue" points="32.5001,-125.823 36,-135.823 39.5001,-125.823 32.5001,-125.823"/>
</g>
<!-- Node13 -->
<g id="node4" class="node"><title>Node13</title>
<g id="a_node4"><a xlink:href="$classProtectedBase.html" xlink:title="ProtectedBase">
<polygon fill="none" stroke="black" points="179.25,-88 90.75,-88 90.75,-68 179.25,-68 179.25,-88"/>
<text text-anchor="middle" x="135" y="-75.2" font-family="Avenir-Book" font-size="11.00">ProtectedBase</text>
</a>
</g>
</g>
<!-- Node13&#45;&gt;Node9 -->
<g id="edge3" class="edge"><title>Node13&#45;&gt;Node9</title>
<path fill="none" stroke="darkgreen" d="M165.304,-63.8417C195.11,-50.8998 239.829,-31.4821 265.947,-20.1413"/>
<polygon fill="darkgreen" stroke="darkgreen" points="163.595,-60.768 155.816,-67.9614 166.383,-67.1889 163.595,-60.768"/>
</g>
<!-- Node14 -->
<g id="node5" class="node"><title>Node14</title>
<g id="a_node5"><a xlink:href="$classPrivateBase.html" xlink:title="PrivateBase">
<polygon fill="none" stroke="black" points="274,-88 198,-88 198,-68 274,-68 274,-88"/>
<text text-anchor="middle" x="236" y="-75.2" font-family="Avenir-Book" font-size="11.00">PrivateBase</text>
</a>
</g>
</g>
<!-- Node14&#45;&gt;Node9 -->
<g id="edge4" class="edge"><title>Node14&#45;&gt;Node9</title>
<path fill="none" stroke="#8b1a1a" d="M249.281,-59.8134C259.097,-47.1095 272.078,-30.3109 279.969,-20.0991"/>
<polygon fill="#8b1a1a" stroke="#8b1a1a" points="246.436,-57.77 243.091,-67.823 251.975,-62.0502 246.436,-57.77"/>
</g>
<!-- Node15 -->
<g id="node6" class="node"><title>Node15</title>
<polygon fill="none" stroke="#bfbfbf" points="383.25,-88 292.75,-88 292.75,-68 383.25,-68 383.25,-88"/>
<text text-anchor="middle" x="338" y="-75.2" font-family="Avenir-Book" font-size="11.00">Undocumented</text>
</g>
<!-- Node15&#45;&gt;Node9 -->
<g id="edge5" class="edge"><title>Node15&#45;&gt;Node9</title>
<path fill="none" stroke="midnightblue" d="M324.719,-59.8134C314.903,-47.1095 301.922,-30.3109 294.031,-20.0991"/>
<polygon fill="midnightblue" stroke="midnightblue" points="322.025,-62.0502 330.909,-67.823 327.564,-57.77 322.025,-62.0502"/>
</g>
<!-- Node16 -->
<g id="node7" class="node"><title>Node16</title>
<g id="a_node7"><a xlink:href="$classTempl.html" xlink:title="Templ&lt; int &gt;">
<polygon fill="none" stroke="black" points="480,-88 402,-88 402,-68 480,-68 480,-88"/>
<text text-anchor="middle" x="441" y="-75.2" font-family="Avenir-Book" font-size="11.00">Templ&lt; int &gt;</text>
</a>
</g>
</g>
<!-- Node16&#45;&gt;Node9 -->
<g id="edge6" class="edge"><title>Node16&#45;&gt;Node9</title>
<path fill="none" stroke="midnightblue" d="M410.69,-64.0101C380.494,-51.0688 334.907,-31.5314 308.33,-20.1413"/>
<polygon fill="midnightblue" stroke="midnightblue" points="409.34,-67.2391 419.91,-67.9614 412.097,-60.8051 409.34,-67.2391"/>
</g>
<!-- Node17 -->
<g id="node8" class="node"><title>Node17</title>
<g id="a_node8"><a xlink:href="$classTempl.html" xlink:title="Templ&lt; T &gt;">
<polygon fill="none" stroke="black" points="477.25,-156 404.75,-156 404.75,-136 477.25,-136 477.25,-156"/>
<text text-anchor="middle" x="441" y="-143.2" font-family="Avenir-Book" font-size="11.00">Templ&lt; T &gt;</text>
</a>
</g>
</g>
<!-- Node17&#45;&gt;Node16 -->
<g id="edge7" class="edge"><title>Node17&#45;&gt;Node16</title>
<path fill="none" stroke="orange" stroke-dasharray="5,2" d="M441,-125.576C441,-113.193 441,-97.7217 441,-88.0991"/>
<polygon fill="orange" stroke="orange" points="437.5,-125.823 441,-135.823 444.5,-125.823 437.5,-125.823"/>
<text text-anchor="middle" x="456.5" y="-109.2" font-family="Avenir-Book" font-size="11.00">&lt; int &gt;</text>
</g>
<!-- Node18 -->
<g id="node9" class="node"><title>Node18</title>
<g id="a_node9"><a xlink:href="$classUsed.html" xlink:title="Used">
<polygon fill="none" stroke="black" points="540,-88 498,-88 498,-68 540,-68 540,-88"/>
<text text-anchor="middle" x="519" y="-75.2" font-family="Avenir-Book" font-size="11.00">Used</text>
</a>
</g>
</g>
<!-- Node18&#45;&gt;Node9 -->
<g id="edge8" class="edge"><title>Node18&#45;&gt;Node9</title>
<path fill="none" stroke="#9a32cd" stroke-dasharray="5,2" d="M487.863,-67.7012C421.102,-48.3152 354.014,-29.574 316.482,-19.1558"/>
<polygon fill="#9a32cd" stroke="#9a32cd" points="487.128,-71.1323 497.708,-70.5652 489.083,-64.4109 487.128,-71.1323"/>
<text text-anchor="middle" x="456.5" y="-41.2" font-family="Avenir-Book" font-size="11.00">m_usedClass</text>
</g>
</g>
</svg>
