<?xml version="1.0" encoding="UTF-8" standalone="no"?>
<!DOCTYPE svg PUBLIC "-//W3C//DTD SVG 1.1//EN"
 "http://www.w3.org/Graphics/SVG/1.1/DTD/svg11.dtd">
<!-- Generated by graphviz version 2.36.0 (20140111.2315)
 -->
<!-- Title: Graphical Class Hierarchy Pages: 1 -->
<svg width="248pt" height="67pt"
 viewBox="0.00 0.00 248.00 67.00" xmlns="http://www.w3.org/2000/svg" xmlns:xlink="http://www.w3.org/1999/xlink">
<g id="graph0" class="graph" transform="scale(1 1) rotate(0) translate(4 63)">
<title>Graphical Class Hierarchy</title>
<!-- Node1 -->
<g id="node1" class="node"><title>Node1</title>
<g id="a_node1"><a xlink:href="classloom_1_1_serializer.html" target="_top" xlink:title="A tool that can transform a set of values into a serialized representation. ">
<polygon fill="none" stroke="black" points="0,-19 0,-39 92,-39 92,-19 0,-19"/>
<text text-anchor="middle" x="46" y="-26.2" font-family="Avenir-Book" font-size="11.00">loom::Serializer</text>
</a>
</g>
</g>
<!-- Node2 -->
<g id="node2" class="node"><title>Node2</title>
<g id="a_node2"><a xlink:href="classloom_1_1_null_serializer.html" target="_top" xlink:title="A Serializer that doesn&#39;t serialize anything. ">
<polygon fill="none" stroke="black" points="128.5,-39 128.5,-59 239.5,-59 239.5,-39 128.5,-39"/>
<text text-anchor="middle" x="184" y="-46.2" font-family="Avenir-Book" font-size="11.00">loom::NullSerializer</text>
</a>
</g>
</g>
<!-- Node1&#45;&gt;Node2 -->
<g id="edge1" class="edge"><title>Node1&#45;&gt;Node2</title>
<path fill="none" stroke="midnightblue" d="M102.267,-37.1274C110.91,-38.3985 119.838,-39.7114 128.464,-40.98"/>
<polygon fill="midnightblue" stroke="midnightblue" points="102.689,-33.652 92.286,-35.6597 101.67,-40.5775 102.689,-33.652"/>
</g>
<!-- Node3 -->
<g id="node3" class="node"><title>Node3</title>
<g id="a_node3"><a xlink:href="classloom_1_1_n_v_serializer.html" target="_top" xlink:title="A Serializer that uses libnv to aggregate values. ">
<polygon fill="none" stroke="black" points="130,-0 130,-20 238,-20 238,-0 130,-0"/>
<text text-anchor="middle" x="184" y="-7.2" font-family="Avenir-Book" font-size="11.00">loom::NVSerializer</text>
</a>
</g>
</g>
<!-- Node1&#45;&gt;Node3 -->
<g id="edge2" class="edge"><title>Node1&#45;&gt;Node3</title>
<path fill="none" stroke="midnightblue" d="M102.379,-21.2632C111.468,-19.9934 120.869,-18.68 129.902,-17.4182"/>
<polygon fill="midnightblue" stroke="midnightblue" points="101.706,-17.8232 92.286,-22.6733 102.674,-24.7559 101.706,-17.8232"/>
</g>
</g>
</svg>
