<?xml version="1.0" encoding="UTF-8" standalone="no"?>
<!DOCTYPE svg PUBLIC "-//W3C//DTD SVG 1.1//EN"
 "http://www.w3.org/Graphics/SVG/1.1/DTD/svg11.dtd">
<!-- Generated by graphviz version 2.38.0 (20140413.2041)
 -->
<!-- Title: Graphical Class Hierarchy Pages: 1 -->
<svg width="258pt" height="68pt"
 viewBox="0.00 0.00 258.00 68.00" xmlns="http://www.w3.org/2000/svg" xmlns:xlink="http://www.w3.org/1999/xlink">
<g id="graph0" class="graph" transform="scale(1 1) rotate(0) translate(4 64)">
<title>Graphical Class Hierarchy</title>
<!-- Node0 -->
<g id="node1" class="node"><title>Node0</title>
<g id="a_node1"><a xlink:href="classloom_1_1Logger.html" target="_top" xlink:title="Something that can be used to log events, e.g., printf or libxo. ">
<polygon fill="none" stroke="black" points="0,-19.5 0,-39.5 89,-39.5 89,-19.5 0,-19.5"/>
<text text-anchor="middle" x="44.5" y="-26.7" font-family="Avenir-Book" font-size="11.00">loom::Logger</text>
</a>
</g>
</g>
<!-- Node1 -->
<g id="node2" class="node"><title>Node1</title>
<g id="a_node2"><a xlink:href="classloom_1_1KTraceLogger.html" target="_top" xlink:title="A logging technique that serializes values with libnv and writes them to the BSD ktrace framework...">
<polygon fill="none" stroke="black" points="125,-39.5 125,-59.5 250,-59.5 250,-39.5 125,-39.5"/>
<text text-anchor="middle" x="187.5" y="-46.7" font-family="Avenir-Book" font-size="11.00">loom::KTraceLogger</text>
</a>
</g>
</g>
<!-- Node0&#45;&gt;Node1 -->
<g id="edge1" class="edge"><title>Node0&#45;&gt;Node1</title>
<path fill="none" stroke="midnightblue" d="M99.3167,-37.1336C107.658,-38.3167 116.329,-39.5467 124.827,-40.752"/>
<polygon fill="midnightblue" stroke="midnightblue" points="99.7328,-33.6576 89.3404,-35.7185 98.7497,-40.5883 99.7328,-33.6576"/>
</g>
<!-- Node2 -->
<g id="node3" class="node"><title>Node2</title>
<g id="a_node3"><a xlink:href="classloom_1_1SimpleLogger.html" target="_top" xlink:title="A logging technique that requires a single call to a printf&#45;like function. ">
<polygon fill="none" stroke="black" points="125,-0.5 125,-20.5 250,-20.5 250,-0.5 125,-0.5"/>
<text text-anchor="middle" x="187.5" y="-7.7" font-family="Avenir-Book" font-size="11.00">loom::SimpleLogger</text>
</a>
</g>
</g>
<!-- Node0&#45;&gt;Node2 -->
<g id="edge2" class="edge"><title>Node0&#45;&gt;Node2</title>
<path fill="none" stroke="midnightblue" d="M99.3167,-22.2481C107.658,-21.1241 116.329,-19.9556 124.827,-18.8106"/>
<polygon fill="midnightblue" stroke="midnightblue" points="98.7834,-18.7882 89.3404,-23.5924 99.7182,-25.7255 98.7834,-18.7882"/>
</g>
</g>
</svg>
