<?xml version="1.0" encoding="UTF-8" standalone="no"?>
<!DOCTYPE svg PUBLIC "-//W3C//DTD SVG 1.1//EN"
 "http://www.w3.org/Graphics/SVG/1.1/DTD/svg11.dtd">
<!-- Generated by graphviz version 2.36.0 (20140111.2315)
 -->
<!-- Title: Graphical Class Hierarchy Pages: 1 -->
<svg width="242pt" height="67pt"
 viewBox="0.00 0.00 242.00 67.00" xmlns="http://www.w3.org/2000/svg" xmlns:xlink="http://www.w3.org/1999/xlink">
<g id="graph0" class="graph" transform="scale(1 1) rotate(0) translate(4 63)">
<title>Graphical Class Hierarchy</title>
<!-- Node1 -->
<g id="node1" class="node"><title>Node1</title>
<g id="a_node1"><a xlink:href="classloom_1_1_logger.html" target="_top" xlink:title="Something that can be used to log events, e.g., printf or libxo. ">
<polygon fill="none" stroke="black" points="0.5,-19 0.5,-39 81.5,-39 81.5,-19 0.5,-19"/>
<text text-anchor="middle" x="41" y="-26.2" font-family="Avenir-Book" font-size="11.00">loom::Logger</text>
</a>
</g>
</g>
<!-- Node2 -->
<g id="node2" class="node"><title>Node2</title>
<g id="a_node2"><a xlink:href="classloom_1_1_k_trace_logger.html" target="_top" xlink:title="A logging technique that serializes values with libnv and writes them to the BSD ktrace framework...">
<polygon fill="none" stroke="black" points="118,-39 118,-59 234,-59 234,-39 118,-39"/>
<text text-anchor="middle" x="176" y="-46.2" font-family="Avenir-Book" font-size="11.00">loom::KTraceLogger</text>
</a>
</g>
</g>
<!-- Node1&#45;&gt;Node2 -->
<g id="edge1" class="edge"><title>Node1&#45;&gt;Node2</title>
<path fill="none" stroke="midnightblue" d="M91.6465,-36.4656C100.121,-37.7399 108.986,-39.073 117.64,-40.3744"/>
<polygon fill="midnightblue" stroke="midnightblue" points="91.9536,-32.9725 81.5443,-34.9465 90.9126,-39.8947 91.9536,-32.9725"/>
</g>
<!-- Node3 -->
<g id="node3" class="node"><title>Node3</title>
<g id="a_node3"><a xlink:href="classloom_1_1_simple_logger.html" target="_top" xlink:title="A logging technique that requires a single call to a printf&#45;like function. ">
<polygon fill="none" stroke="black" points="119,-0 119,-20 233,-20 233,-0 119,-0"/>
<text text-anchor="middle" x="176" y="-7.2" font-family="Avenir-Book" font-size="11.00">loom::SimpleLogger</text>
</a>
</g>
</g>
<!-- Node1&#45;&gt;Node3 -->
<g id="edge2" class="edge"><title>Node1&#45;&gt;Node3</title>
<path fill="none" stroke="midnightblue" d="M91.639,-21.9087C100.437,-20.6518 109.658,-19.3346 118.626,-18.0534"/>
<polygon fill="midnightblue" stroke="midnightblue" points="90.9488,-18.4717 81.5443,-23.3508 91.9388,-25.4013 90.9488,-18.4717"/>
</g>
</g>
</svg>
