<?xml version="1.0" encoding="UTF-8" standalone="no"?>
<!DOCTYPE svg PUBLIC "-//W3C//DTD SVG 1.1//EN"
 "http://www.w3.org/Graphics/SVG/1.1/DTD/svg11.dtd">
<!-- Generated by graphviz version 2.38.0 (20140413.2041)
 -->
<!-- Title: Graphical Class Hierarchy Pages: 1 -->
<svg width="308pt" height="87pt"
 viewBox="0.00 0.00 308.00 87.00" xmlns="http://www.w3.org/2000/svg" xmlns:xlink="http://www.w3.org/1999/xlink">
<g id="graph0" class="graph" transform="scale(1 1) rotate(0) translate(4 83)">
<title>Graphical Class Hierarchy</title>
<!-- Node0 -->
<g id="node1" class="node"><title>Node0</title>
<g id="a_node1"><a xlink:href="classloom_1_1Logger.html" target="_top" xlink:title="Something that can be used to log events, e.g., printf or libxo. ">
<polygon fill="none" stroke="black" points="0,-38.5 0,-58.5 54,-58.5 54,-38.5 0,-38.5"/>
<text text-anchor="middle" x="27" y="-45.7" font-family="Avenir-Book" font-size="11.00">Logger</text>
</a>
</g>
</g>
<!-- Node1 -->
<g id="node2" class="node"><title>Node1</title>
<g id="a_node2"><a xlink:href="classloom_1_1KTraceLogger.html" target="_top" xlink:title="A logging technique that serializes values with libnv and writes them to the BSD ktrace framework...">
<polygon fill="none" stroke="black" points="90.5,-58.5 90.5,-78.5 180.5,-78.5 180.5,-58.5 90.5,-58.5"/>
<text text-anchor="middle" x="135.5" y="-65.7" font-family="Avenir-Book" font-size="11.00">KTraceLogger</text>
</a>
</g>
</g>
<!-- Node0&#45;&gt;Node1 -->
<g id="edge1" class="edge"><title>Node0&#45;&gt;Node1</title>
<path fill="none" stroke="midnightblue" d="M64.0179,-55.2639C72.509,-56.8585 81.6553,-58.5761 90.4557,-60.2288"/>
<polygon fill="midnightblue" stroke="midnightblue" points="64.527,-51.7984 54.0528,-53.3926 63.235,-58.6782 64.527,-51.7984"/>
</g>
<!-- Node2 -->
<g id="node3" class="node"><title>Node2</title>
<g id="a_node3"><a xlink:href="classloom_1_1SimpleLogger.html" target="_top" xlink:title="A logging technique that requires a single call to a printf&#45;like function. ">
<polygon fill="none" stroke="black" points="90,-19.5 90,-39.5 181,-39.5 181,-19.5 90,-19.5"/>
<text text-anchor="middle" x="135.5" y="-26.7" font-family="Avenir-Book" font-size="11.00">SimpleLogger</text>
</a>
</g>
</g>
<!-- Node0&#45;&gt;Node2 -->
<g id="edge2" class="edge"><title>Node0&#45;&gt;Node2</title>
<path fill="none" stroke="midnightblue" d="M64.0588,-42.067C72.2699,-40.6021 81.0919,-39.0282 89.6202,-37.5067"/>
<polygon fill="midnightblue" stroke="midnightblue" points="63.2827,-38.6501 54.0528,-43.8521 64.5121,-45.5413 63.2827,-38.6501"/>
</g>
<!-- Node3 -->
<g id="node4" class="node"><title>Node3</title>
<g id="a_node4"><a xlink:href="classanonymous__namespace_02Logger_8cc_03_1_1LibxoLogger.html" target="_top" xlink:title="A logger that calls libxo&#39;s xo_emit(). ">
<polygon fill="none" stroke="black" points="217,-39.5 217,-59.5 300,-59.5 300,-39.5 217,-39.5"/>
<text text-anchor="middle" x="258.5" y="-46.7" font-family="Avenir-Book" font-size="11.00">LibxoLogger</text>
</a>
</g>
</g>
<!-- Node2&#45;&gt;Node3 -->
<g id="edge3" class="edge"><title>Node2&#45;&gt;Node3</title>
<path fill="none" stroke="midnightblue" d="M191.254,-38.5503C199.907,-39.9805 208.718,-41.4369 216.971,-42.801"/>
<polygon fill="midnightblue" stroke="midnightblue" points="191.649,-35.0681 181.212,-36.8904 190.507,-41.9744 191.649,-35.0681"/>
</g>
<!-- Node4 -->
<g id="node5" class="node"><title>Node4</title>
<g id="a_node5"><a xlink:href="classanonymous__namespace_02Logger_8cc_03_1_1PrintfLogger.html" target="_top" xlink:title="A logger that calls printf(). ">
<polygon fill="none" stroke="black" points="217,-0.5 217,-20.5 300,-20.5 300,-0.5 217,-0.5"/>
<text text-anchor="middle" x="258.5" y="-7.7" font-family="Avenir-Book" font-size="11.00">PrintfLogger</text>
</a>
</g>
</g>
<!-- Node2&#45;&gt;Node4 -->
<g id="edge4" class="edge"><title>Node2&#45;&gt;Node4</title>
<path fill="none" stroke="midnightblue" d="M191.254,-20.9022C199.907,-19.5435 208.718,-18.16 216.971,-16.8641"/>
<polygon fill="midnightblue" stroke="midnightblue" points="190.548,-17.4701 181.212,-22.4791 191.634,-24.3854 190.548,-17.4701"/>
</g>
</g>
</svg>
