<?xml version="1.0" encoding="UTF-8" standalone="no"?>
<!DOCTYPE svg PUBLIC "-//W3C//DTD SVG 1.1//EN"
 "http://www.w3.org/Graphics/SVG/1.1/DTD/svg11.dtd">
<!-- Generated by graphviz version 2.38.0 (20140413.2041)
 -->
<!-- Title: Graphical Class Hierarchy Pages: 1 -->
<svg width="196pt" height="68pt"
 viewBox="0.00 0.00 196.00 68.00" xmlns="http://www.w3.org/2000/svg" xmlns:xlink="http://www.w3.org/1999/xlink">
<g id="graph0" class="graph" transform="scale(1 1) rotate(0) translate(4 64)">
<title>Graphical Class Hierarchy</title>
<!-- Node0 -->
<g id="node1" class="node"><title>Node0</title>
<g id="a_node1"><a xlink:href="classloom_1_1Serializer.html" target="_top" xlink:title="A tool that can transform a set of values into a serialized representation. ">
<polygon fill="none" stroke="black" points="0,-19.5 0,-39.5 66,-39.5 66,-19.5 0,-19.5"/>
<text text-anchor="middle" x="33" y="-26.7" font-family="Avenir-Book" font-size="11.00">Serializer</text>
</a>
</g>
</g>
<!-- Node1 -->
<g id="node2" class="node"><title>Node1</title>
<g id="a_node2"><a xlink:href="classloom_1_1NullSerializer.html" target="_top" xlink:title="A Serializer that doesn&#39;t serialize anything. ">
<polygon fill="none" stroke="black" points="102,-39.5 102,-59.5 188,-59.5 188,-39.5 102,-39.5"/>
<text text-anchor="middle" x="145" y="-46.7" font-family="Avenir-Book" font-size="11.00">NullSerializer</text>
</a>
</g>
</g>
<!-- Node0&#45;&gt;Node1 -->
<g id="edge1" class="edge"><title>Node0&#45;&gt;Node1</title>
<path fill="none" stroke="midnightblue" d="M76.1172,-37.1577C84.5401,-38.6891 93.3901,-40.2982 101.815,-41.83"/>
<polygon fill="midnightblue" stroke="midnightblue" points="76.5771,-33.684 66.1123,-35.3386 75.3248,-40.5711 76.5771,-33.684"/>
</g>
<!-- Node2 -->
<g id="node3" class="node"><title>Node2</title>
<g id="a_node3"><a xlink:href="classloom_1_1NVSerializer.html" target="_top" xlink:title="A Serializer that uses libnv to aggregate values. ">
<polygon fill="none" stroke="black" points="104,-0.5 104,-20.5 186,-20.5 186,-0.5 104,-0.5"/>
<text text-anchor="middle" x="145" y="-7.7" font-family="Avenir-Book" font-size="11.00">NVSerializer</text>
</a>
</g>
</g>
<!-- Node0&#45;&gt;Node2 -->
<g id="edge2" class="edge"><title>Node0&#45;&gt;Node2</title>
<path fill="none" stroke="midnightblue" d="M76.114,-22.2258C85.211,-20.6545 94.8063,-18.9971 103.827,-17.439"/>
<polygon fill="midnightblue" stroke="midnightblue" points="75.3706,-18.8023 66.1123,-23.9533 76.5621,-25.7001 75.3706,-18.8023"/>
</g>
</g>
</svg>
