<?xml version="1.0" encoding="UTF-8" standalone="no"?>
<!DOCTYPE svg PUBLIC "-//W3C//DTD SVG 1.1//EN"
 "http://www.w3.org/Graphics/SVG/1.1/DTD/svg11.dtd">
<!-- Generated by graphviz version 2.38.0 (20140413.2041)
 -->
<!-- Title: src/Instrumentation.cc Pages: 1 -->
<svg width="670pt" height="428pt"
 viewBox="0.00 0.00 669.50 428.00" xmlns="http://www.w3.org/2000/svg" xmlns:xlink="http://www.w3.org/1999/xlink">
<g id="graph0" class="graph" transform="scale(1 1) rotate(0) translate(4 424)">
<title>src/Instrumentation.cc</title>
<!-- Node0 -->
<g id="node1" class="node"><title>Node0</title>
<polygon fill="#bfbfbf" stroke="black" points="334,-399.5 334,-419.5 474,-419.5 474,-399.5 334,-399.5"/>
<text text-anchor="middle" x="404" y="-406.7" font-family="Avenir-Book" font-size="11.00">src/Instrumentation.cc</text>
</g>
<!-- Node1 -->
<g id="node2" class="node"><title>Node1</title>
<g id="a_node2"><a xlink:href="Instrumentation_8hh.html" target="_top" xlink:title="Declaration of loom::Instrumentation. ">
<polygon fill="none" stroke="black" points="272.5,-342.5 272.5,-362.5 393.5,-362.5 393.5,-342.5 272.5,-342.5"/>
<text text-anchor="middle" x="333" y="-349.7" font-family="Avenir-Book" font-size="11.00">Instrumentation.hh</text>
</a>
</g>
</g>
<!-- Node0&#45;&gt;Node1 -->
<g id="edge1" class="edge"><title>Node0&#45;&gt;Node1</title>
<path fill="none" stroke="midnightblue" d="M392.276,-399.418C381.651,-391.188 365.768,-378.884 353.117,-369.084"/>
<polygon fill="midnightblue" stroke="midnightblue" points="355.028,-366.137 344.979,-362.779 350.741,-371.67 355.028,-366.137"/>
</g>
<!-- Node7 -->
<g id="node8" class="node"><title>Node7</title>
<polygon fill="none" stroke="#bfbfbf" points="116,-0.5 116,-20.5 228,-20.5 228,-0.5 116,-0.5"/>
<text text-anchor="middle" x="172" y="-7.7" font-family="Avenir-Book" font-size="11.00">llvm/IR/IRBuilder.h</text>
</g>
<!-- Node0&#45;&gt;Node7 -->
<g id="edge29" class="edge"><title>Node0&#45;&gt;Node7</title>
<path fill="none" stroke="midnightblue" d="M333.629,-403.473C217.88,-393.249 0,-364.917 0,-296.5 0,-296.5 0,-296.5 0,-123.5 0,-66.8756 66.2721,-37.3939 116.542,-23.1761"/>
<polygon fill="midnightblue" stroke="midnightblue" points="117.613,-26.5125 126.359,-20.5325 115.793,-19.7534 117.613,-26.5125"/>
</g>
<!-- Node16 -->
<g id="node17" class="node"><title>Node16</title>
<polygon fill="none" stroke="#bfbfbf" points="411.5,-342.5 411.5,-362.5 538.5,-362.5 538.5,-342.5 411.5,-342.5"/>
<text text-anchor="middle" x="475" y="-349.7" font-family="Avenir-Book" font-size="11.00">llvm/IR/TypeBuilder.h</text>
</g>
<!-- Node0&#45;&gt;Node16 -->
<g id="edge28" class="edge"><title>Node0&#45;&gt;Node16</title>
<path fill="none" stroke="midnightblue" d="M415.724,-399.418C426.349,-391.188 442.232,-378.884 454.883,-369.084"/>
<polygon fill="midnightblue" stroke="midnightblue" points="457.259,-371.67 463.021,-362.779 452.972,-366.137 457.259,-371.67"/>
</g>
<!-- Node17 -->
<g id="node18" class="node"><title>Node17</title>
<polygon fill="none" stroke="#bfbfbf" points="556.5,-342.5 556.5,-362.5 661.5,-362.5 661.5,-342.5 556.5,-342.5"/>
<text text-anchor="middle" x="609" y="-349.7" font-family="Avenir-Book" font-size="11.00">llvm/IR/Module.h</text>
</g>
<!-- Node0&#45;&gt;Node17 -->
<g id="edge30" class="edge"><title>Node0&#45;&gt;Node17</title>
<path fill="none" stroke="midnightblue" d="M437.852,-399.418C472.823,-390.035 527.527,-375.359 565.644,-365.132"/>
<polygon fill="midnightblue" stroke="midnightblue" points="566.687,-368.476 575.439,-362.504 564.873,-361.715 566.687,-368.476"/>
</g>
<!-- Node2 -->
<g id="node3" class="node"><title>Node2</title>
<g id="a_node3"><a xlink:href="InstrStrategy_8hh.html" target="_top" xlink:title="Declaration of loom::InstrStrategy. ">
<polygon fill="none" stroke="black" points="342,-171.5 342,-191.5 446,-191.5 446,-171.5 342,-171.5"/>
<text text-anchor="middle" x="394" y="-178.7" font-family="Avenir-Book" font-size="11.00">InstrStrategy.hh</text>
</a>
</g>
</g>
<!-- Node1&#45;&gt;Node2 -->
<g id="edge2" class="edge"><title>Node1&#45;&gt;Node2</title>
<path fill="none" stroke="midnightblue" d="M336.28,-342.414C345.878,-315.821 374.06,-237.744 387.16,-201.45"/>
<polygon fill="midnightblue" stroke="midnightblue" points="390.601,-202.225 390.704,-191.631 384.017,-199.849 390.601,-202.225"/>
</g>
<!-- Node4 -->
<g id="node5" class="node"><title>Node4</title>
<polygon fill="none" stroke="#bfbfbf" points="200.5,-114.5 200.5,-134.5 325.5,-134.5 325.5,-114.5 200.5,-114.5"/>
<text text-anchor="middle" x="263" y="-121.7" font-family="Avenir-Book" font-size="11.00">llvm/ADT/ArrayRef.h</text>
</g>
<!-- Node1&#45;&gt;Node4 -->
<g id="edge24" class="edge"><title>Node1&#45;&gt;Node4</title>
<path fill="none" stroke="midnightblue" d="M331.793,-342.184C328.059,-314.995 315.388,-233.704 290,-171 286.135,-161.454 280.476,-151.541 275.336,-143.415"/>
<polygon fill="midnightblue" stroke="midnightblue" points="278.102,-141.251 269.679,-134.824 272.256,-145.101 278.102,-141.251"/>
</g>
<!-- Node5 -->
<g id="node6" class="node"><title>Node5</title>
<polygon fill="none" stroke="#bfbfbf" points="494,-0.5 494,-20.5 622,-20.5 622,-0.5 494,-0.5"/>
<text text-anchor="middle" x="558" y="-7.7" font-family="Avenir-Book" font-size="11.00">llvm/ADT/StringRef.h</text>
</g>
<!-- Node1&#45;&gt;Node5 -->
<g id="edge25" class="edge"><title>Node1&#45;&gt;Node5</title>
<path fill="none" stroke="midnightblue" d="M383,-342.46C430.795,-333.296 499.019,-318.697 523,-306 561.787,-285.464 596,-283.388 596,-239.5 596,-239.5 596,-239.5 596,-123.5 596,-88.9345 579.568,-51.3983 568.315,-29.7447"/>
<polygon fill="midnightblue" stroke="midnightblue" points="571.276,-27.8619 563.444,-20.7268 565.117,-31.1887 571.276,-27.8619"/>
</g>
<!-- Node6 -->
<g id="node7" class="node"><title>Node6</title>
<g id="a_node7"><a xlink:href="IRUtils_8hh.html" target="_top" xlink:title="Declarations of LLVM IR utility functions. ">
<polygon fill="none" stroke="black" points="445.5,-57.5 445.5,-77.5 512.5,-77.5 512.5,-57.5 445.5,-57.5"/>
<text text-anchor="middle" x="479" y="-64.7" font-family="Avenir-Book" font-size="11.00">IRUtils.hh</text>
</a>
</g>
</g>
<!-- Node1&#45;&gt;Node6 -->
<g id="edge14" class="edge"><title>Node1&#45;&gt;Node6</title>
<path fill="none" stroke="midnightblue" d="M388.972,-342.422C431.417,-334.456 485.08,-321.702 501,-306 522.885,-284.415 520,-270.238 520,-239.5 520,-239.5 520,-239.5 520,-180.5 520,-145.485 502.11,-107.86 489.965,-86.3505"/>
<polygon fill="midnightblue" stroke="midnightblue" points="492.952,-84.5248 484.874,-77.6692 486.914,-88.0659 492.952,-84.5248"/>
</g>
<!-- Node1&#45;&gt;Node7 -->
<g id="edge27" class="edge"><title>Node1&#45;&gt;Node7</title>
<path fill="none" stroke="midnightblue" d="M329.908,-342.12C318.871,-309.055 280.764,-198.444 256,-171 233.876,-146.482 209.886,-162.09 191,-135 169.061,-103.532 168.365,-56.6108 170.033,-30.5995"/>
<polygon fill="midnightblue" stroke="midnightblue" points="173.528,-30.7986 170.867,-20.5434 166.552,-30.2197 173.528,-30.7986"/>
</g>
<!-- Node10 -->
<g id="node11" class="node"><title>Node10</title>
<g id="a_node11"><a xlink:href="PolicyFile_8hh.html" target="_top" xlink:title="Declaration of loom::PolicyFile. ">
<polygon fill="none" stroke="black" points="138,-285.5 138,-305.5 218,-305.5 218,-285.5 138,-285.5"/>
<text text-anchor="middle" x="178" y="-292.7" font-family="Avenir-Book" font-size="11.00">PolicyFile.hh</text>
</a>
</g>
</g>
<!-- Node1&#45;&gt;Node10 -->
<g id="edge15" class="edge"><title>Node1&#45;&gt;Node10</title>
<path fill="none" stroke="midnightblue" d="M307.405,-342.418C281.638,-333.275 241.704,-319.105 213.013,-308.924"/>
<polygon fill="midnightblue" stroke="midnightblue" points="213.97,-305.55 203.376,-305.504 211.629,-312.147 213.97,-305.55"/>
</g>
<!-- Node15 -->
<g id="node16" class="node"><title>Node15</title>
<polygon fill="none" stroke="#bfbfbf" points="380,-285.5 380,-305.5 492,-305.5 492,-285.5 380,-285.5"/>
<text text-anchor="middle" x="436" y="-292.7" font-family="Avenir-Book" font-size="11.00">llvm/IR/Function.h</text>
</g>
<!-- Node1&#45;&gt;Node15 -->
<g id="edge26" class="edge"><title>Node1&#45;&gt;Node15</title>
<path fill="none" stroke="midnightblue" d="M350.008,-342.418C366.334,-333.7 391.219,-320.412 410.025,-310.37"/>
<polygon fill="midnightblue" stroke="midnightblue" points="411.794,-313.393 418.966,-305.596 408.497,-307.219 411.794,-313.393"/>
</g>
<!-- Node3 -->
<g id="node4" class="node"><title>Node3</title>
<polygon fill="none" stroke="#bfbfbf" points="323.5,-57.5 323.5,-77.5 386.5,-77.5 386.5,-57.5 323.5,-57.5"/>
<text text-anchor="middle" x="355" y="-64.7" font-family="Avenir-Book" font-size="11.00">memory</text>
</g>
<!-- Node2&#45;&gt;Node3 -->
<g id="edge3" class="edge"><title>Node2&#45;&gt;Node3</title>
<path fill="none" stroke="midnightblue" d="M389.187,-171.282C384.592,-162.224 377.693,-147.92 373,-135 367.322,-119.366 362.501,-101.095 359.282,-87.6642"/>
<polygon fill="midnightblue" stroke="midnightblue" points="362.637,-86.6377 356.971,-77.6854 355.817,-88.2173 362.637,-86.6377"/>
</g>
<!-- Node2&#45;&gt;Node4 -->
<g id="edge4" class="edge"><title>Node2&#45;&gt;Node4</title>
<path fill="none" stroke="midnightblue" d="M372.368,-171.418C351.035,-162.461 318.212,-148.681 294.087,-138.552"/>
<polygon fill="midnightblue" stroke="midnightblue" points="295.239,-135.24 284.664,-134.596 292.53,-141.694 295.239,-135.24"/>
</g>
<!-- Node2&#45;&gt;Node5 -->
<g id="edge5" class="edge"><title>Node2&#45;&gt;Node5</title>
<path fill="none" stroke="midnightblue" d="M418.408,-171.451C436.981,-163.736 462.425,-151.304 481,-135 515.048,-105.115 539.174,-56.5112 550.574,-30.0685"/>
<polygon fill="midnightblue" stroke="midnightblue" points="553.942,-31.085 554.555,-20.5079 547.48,-28.3945 553.942,-31.085"/>
</g>
<!-- Node2&#45;&gt;Node6 -->
<g id="edge6" class="edge"><title>Node2&#45;&gt;Node6</title>
<path fill="none" stroke="midnightblue" d="M415.194,-171.424C430.426,-163.837 450.269,-151.583 462,-135 471.883,-121.029 476.028,-101.806 477.762,-87.6197"/>
<polygon fill="midnightblue" stroke="midnightblue" points="481.26,-87.7997 478.7,-77.519 474.29,-87.1527 481.26,-87.7997"/>
</g>
<!-- Node9 -->
<g id="node10" class="node"><title>Node9</title>
<g id="a_node10"><a xlink:href="Logger_8hh.html" target="_top" xlink:title="Declaration of loom::Logger. ">
<polygon fill="none" stroke="black" points="382.5,-114.5 382.5,-134.5 453.5,-134.5 453.5,-114.5 382.5,-114.5"/>
<text text-anchor="middle" x="418" y="-121.7" font-family="Avenir-Book" font-size="11.00">Logger.hh</text>
</a>
</g>
</g>
<!-- Node2&#45;&gt;Node9 -->
<g id="edge10" class="edge"><title>Node2&#45;&gt;Node9</title>
<path fill="none" stroke="midnightblue" d="M397.963,-171.418C401.209,-163.979 405.907,-153.212 409.939,-143.974"/>
<polygon fill="midnightblue" stroke="midnightblue" points="413.159,-145.345 413.951,-134.779 406.743,-142.545 413.159,-145.345"/>
</g>
<!-- Node6&#45;&gt;Node5 -->
<g id="edge7" class="edge"><title>Node6&#45;&gt;Node5</title>
<path fill="none" stroke="midnightblue" d="M492.045,-57.4179C504.167,-48.9788 522.44,-36.257 536.681,-26.3426"/>
<polygon fill="midnightblue" stroke="midnightblue" points="538.728,-29.1818 544.935,-20.5956 534.729,-23.4369 538.728,-29.1818"/>
</g>
<!-- Node6&#45;&gt;Node7 -->
<g id="edge8" class="edge"><title>Node6&#45;&gt;Node7</title>
<path fill="none" stroke="midnightblue" d="M445.275,-59.8836C440.16,-58.9027 434.942,-57.9148 430,-57 363.544,-44.6988 287.312,-31.3483 235.043,-22.311"/>
<polygon fill="midnightblue" stroke="midnightblue" points="235.368,-18.8155 224.918,-20.5627 234.177,-25.7134 235.368,-18.8155"/>
</g>
<!-- Node8 -->
<g id="node9" class="node"><title>Node8</title>
<polygon fill="none" stroke="#bfbfbf" points="335.5,-0.5 335.5,-20.5 386.5,-20.5 386.5,-0.5 335.5,-0.5"/>
<text text-anchor="middle" x="361" y="-7.7" font-family="Avenir-Book" font-size="11.00">vector</text>
</g>
<!-- Node6&#45;&gt;Node8 -->
<g id="edge9" class="edge"><title>Node6&#45;&gt;Node8</title>
<path fill="none" stroke="midnightblue" d="M459.515,-57.4179C440.47,-48.5409 411.258,-34.9253 389.584,-24.823"/>
<polygon fill="midnightblue" stroke="midnightblue" points="391.057,-21.648 380.514,-20.5956 388.099,-27.9927 391.057,-21.648"/>
</g>
<!-- Node9&#45;&gt;Node3 -->
<g id="edge13" class="edge"><title>Node9&#45;&gt;Node3</title>
<path fill="none" stroke="midnightblue" d="M407.597,-114.418C398.26,-106.267 384.347,-94.1201 373.175,-84.3669"/>
<polygon fill="midnightblue" stroke="midnightblue" points="375.464,-81.7194 365.629,-77.7795 370.861,-86.9927 375.464,-81.7194"/>
</g>
<!-- Node9&#45;&gt;Node6 -->
<g id="edge11" class="edge"><title>Node9&#45;&gt;Node6</title>
<path fill="none" stroke="midnightblue" d="M428.073,-114.418C437.026,-106.346 450.324,-94.3556 461.086,-84.6517"/>
<polygon fill="midnightblue" stroke="midnightblue" points="463.625,-87.0753 468.708,-77.7795 458.938,-81.8764 463.625,-87.0753"/>
</g>
<!-- Node9&#45;&gt;Node7 -->
<g id="edge12" class="edge"><title>Node9&#45;&gt;Node7</title>
<path fill="none" stroke="midnightblue" d="M417.577,-114.194C416.391,-99.6867 411.906,-71.8137 395,-57 372.012,-36.8562 295.363,-24.442 238.309,-17.7718"/>
<polygon fill="midnightblue" stroke="midnightblue" points="238.59,-14.2814 228.26,-16.632 237.801,-21.2368 238.59,-14.2814"/>
</g>
<!-- Node11 -->
<g id="node12" class="node"><title>Node11</title>
<g id="a_node12"><a xlink:href="Policy_8hh.html" target="_top" xlink:title="Definition of loom::Policy. ">
<polygon fill="none" stroke="black" points="28,-228.5 28,-248.5 90,-248.5 90,-228.5 28,-228.5"/>
<text text-anchor="middle" x="59" y="-235.7" font-family="Avenir-Book" font-size="11.00">Policy.hh</text>
</a>
</g>
</g>
<!-- Node10&#45;&gt;Node11 -->
<g id="edge16" class="edge"><title>Node10&#45;&gt;Node11</title>
<path fill="none" stroke="midnightblue" d="M158.35,-285.418C139.143,-276.541 109.684,-262.925 87.826,-252.823"/>
<polygon fill="midnightblue" stroke="midnightblue" points="89.2254,-249.614 78.6796,-248.596 86.2886,-255.968 89.2254,-249.614"/>
</g>
<!-- Node14 -->
<g id="node15" class="node"><title>Node14</title>
<polygon fill="none" stroke="#bfbfbf" points="108,-228.5 108,-248.5 248,-248.5 248,-228.5 108,-228.5"/>
<text text-anchor="middle" x="178" y="-235.7" font-family="Avenir-Book" font-size="11.00">llvm/Support/ErrorOr.h</text>
</g>
<!-- Node10&#45;&gt;Node14 -->
<g id="edge23" class="edge"><title>Node10&#45;&gt;Node14</title>
<path fill="none" stroke="midnightblue" d="M178,-285.418C178,-278.216 178,-267.896 178,-258.863"/>
<polygon fill="midnightblue" stroke="midnightblue" points="181.5,-258.779 178,-248.779 174.5,-258.779 181.5,-258.779"/>
</g>
<!-- Node11&#45;&gt;Node2 -->
<g id="edge17" class="edge"><title>Node11&#45;&gt;Node2</title>
<path fill="none" stroke="midnightblue" d="M90.3912,-229.794C93.2951,-229.157 96.198,-228.548 99,-228 178.927,-212.371 271.897,-198.783 331.774,-190.621"/>
<polygon fill="midnightblue" stroke="midnightblue" points="332.385,-194.07 341.824,-189.26 331.445,-187.134 332.385,-194.07"/>
</g>
<!-- Node11&#45;&gt;Node8 -->
<g id="edge22" class="edge"><title>Node11&#45;&gt;Node8</title>
<path fill="none" stroke="midnightblue" d="M61.3654,-228.344C65.3189,-214.531 74.4104,-188.159 90,-171 157.878,-96.2899 269.075,-46.2954 325.606,-24.2875"/>
<polygon fill="midnightblue" stroke="midnightblue" points="327.087,-27.4685 335.176,-20.6267 324.586,-20.9305 327.087,-27.4685"/>
</g>
<!-- Node12 -->
<g id="node13" class="node"><title>Node12</title>
<g id="a_node13"><a xlink:href="Serializer_8hh.html" target="_top" xlink:title="Declaration of loom::Serializer. ">
<polygon fill="none" stroke="black" points="164.5,-171.5 164.5,-191.5 247.5,-191.5 247.5,-171.5 164.5,-171.5"/>
<text text-anchor="middle" x="206" y="-178.7" font-family="Avenir-Book" font-size="11.00">Serializer.hh</text>
</a>
</g>
</g>
<!-- Node11&#45;&gt;Node12 -->
<g id="edge18" class="edge"><title>Node11&#45;&gt;Node12</title>
<path fill="none" stroke="midnightblue" d="M83.2741,-228.418C107.532,-219.342 145.029,-205.312 172.193,-195.149"/>
<polygon fill="midnightblue" stroke="midnightblue" points="173.55,-198.378 181.69,-191.596 171.097,-191.822 173.55,-198.378"/>
</g>
<!-- Node13 -->
<g id="node14" class="node"><title>Node13</title>
<polygon fill="none" stroke="#bfbfbf" points="99.5,-171.5 99.5,-191.5 146.5,-191.5 146.5,-171.5 99.5,-171.5"/>
<text text-anchor="middle" x="123" y="-178.7" font-family="Avenir-Book" font-size="11.00">string</text>
</g>
<!-- Node11&#45;&gt;Node13 -->
<g id="edge21" class="edge"><title>Node11&#45;&gt;Node13</title>
<path fill="none" stroke="midnightblue" d="M69.5683,-228.418C79.0533,-220.267 93.1875,-208.12 104.537,-198.367"/>
<polygon fill="midnightblue" stroke="midnightblue" points="106.899,-200.952 112.202,-191.779 102.337,-195.643 106.899,-200.952"/>
</g>
<!-- Node12&#45;&gt;Node4 -->
<g id="edge19" class="edge"><title>Node12&#45;&gt;Node4</title>
<path fill="none" stroke="midnightblue" d="M215.412,-171.418C223.696,-163.425 235.961,-151.59 245.965,-141.938"/>
<polygon fill="midnightblue" stroke="midnightblue" points="248.617,-144.242 253.383,-134.779 243.757,-139.205 248.617,-144.242"/>
</g>
<!-- Node12&#45;&gt;Node7 -->
<g id="edge20" class="edge"><title>Node12&#45;&gt;Node7</title>
<path fill="none" stroke="midnightblue" d="M191.163,-171.374C179.707,-163.38 164.713,-150.612 158,-135 143.01,-100.135 155.224,-54.8853 164.339,-29.9753"/>
<polygon fill="midnightblue" stroke="midnightblue" points="167.609,-31.2233 167.967,-20.6345 161.084,-28.6888 167.609,-31.2233"/>
</g>
</g>
</svg>
