<?xml version="1.0" encoding="UTF-8" standalone="no"?>
<!DOCTYPE svg PUBLIC "-//W3C//DTD SVG 1.1//EN"
 "http://www.w3.org/Graphics/SVG/1.1/DTD/svg11.dtd">
<!-- Generated by graphviz version 2.38.0 (20140413.2041)
 -->
<!-- Title: src/Instrumentation.hh Pages: 1 -->
<svg width="727pt" height="371pt"
 viewBox="0.00 0.00 727.00 371.00" xmlns="http://www.w3.org/2000/svg" xmlns:xlink="http://www.w3.org/1999/xlink">
<g id="graph0" class="graph" transform="scale(1 1) rotate(0) translate(4 367)">
<title>src/Instrumentation.hh</title>
<!-- Node0 -->
<g id="node1" class="node"><title>Node0</title>
<polygon fill="#bfbfbf" stroke="black" points="232.5,-342.5 232.5,-362.5 373.5,-362.5 373.5,-342.5 232.5,-342.5"/>
<text text-anchor="middle" x="303" y="-349.7" font-family="Avenir-Book" font-size="11.00">src/Instrumentation.hh</text>
</g>
<!-- Node1 -->
<g id="node2" class="node"><title>Node1</title>
<g id="a_node2"><a xlink:href="InstrStrategy_8hh.html" target="_top" xlink:title="Declaration of loom::InstrStrategy. ">
<polygon fill="none" stroke="black" points="133,-171.5 133,-191.5 237,-191.5 237,-171.5 133,-171.5"/>
<text text-anchor="middle" x="185" y="-178.7" font-family="Avenir-Book" font-size="11.00">InstrStrategy.hh</text>
</a>
</g>
</g>
<!-- Node0&#45;&gt;Node1 -->
<g id="edge1" class="edge"><title>Node0&#45;&gt;Node1</title>
<path fill="none" stroke="midnightblue" d="M290.286,-342.475C278.975,-333.992 262.492,-320.464 251,-306 224.27,-272.357 202.989,-226.299 192.374,-201.006"/>
<polygon fill="midnightblue" stroke="midnightblue" points="195.524,-199.461 188.493,-191.535 189.046,-202.115 195.524,-199.461"/>
</g>
<!-- Node3 -->
<g id="node4" class="node"><title>Node3</title>
<polygon fill="none" stroke="#bfbfbf" points="296.5,-114.5 296.5,-134.5 421.5,-134.5 421.5,-114.5 296.5,-114.5"/>
<text text-anchor="middle" x="359" y="-121.7" font-family="Avenir-Book" font-size="11.00">llvm/ADT/ArrayRef.h</text>
</g>
<!-- Node0&#45;&gt;Node3 -->
<g id="edge23" class="edge"><title>Node0&#45;&gt;Node3</title>
<path fill="none" stroke="midnightblue" d="M303.395,-342.175C304.8,-314.961 310.794,-233.608 334,-171 337.557,-161.403 342.878,-151.366 347.698,-143.169"/>
<polygon fill="midnightblue" stroke="midnightblue" points="350.752,-144.884 352.99,-134.528 344.783,-141.228 350.752,-144.884"/>
</g>
<!-- Node4 -->
<g id="node5" class="node"><title>Node4</title>
<polygon fill="none" stroke="#bfbfbf" points="0,-0.5 0,-20.5 128,-20.5 128,-0.5 0,-0.5"/>
<text text-anchor="middle" x="64" y="-7.7" font-family="Avenir-Book" font-size="11.00">llvm/ADT/StringRef.h</text>
</g>
<!-- Node0&#45;&gt;Node4 -->
<g id="edge24" class="edge"><title>Node0&#45;&gt;Node4</title>
<path fill="none" stroke="midnightblue" d="M255.382,-342.443C176.184,-326.006 26,-288.39 26,-239.5 26,-239.5 26,-239.5 26,-123.5 26,-88.9345 42.4315,-51.3983 53.6845,-29.7447"/>
<polygon fill="midnightblue" stroke="midnightblue" points="56.8825,-31.1887 58.5555,-20.7268 50.7235,-27.8619 56.8825,-31.1887"/>
</g>
<!-- Node5 -->
<g id="node6" class="node"><title>Node5</title>
<g id="a_node6"><a xlink:href="IRUtils_8hh.html" target="_top" xlink:title="Declarations of LLVM IR utility functions. ">
<polygon fill="none" stroke="black" points="231.5,-57.5 231.5,-77.5 298.5,-77.5 298.5,-57.5 231.5,-57.5"/>
<text text-anchor="middle" x="265" y="-64.7" font-family="Avenir-Book" font-size="11.00">IRUtils.hh</text>
</a>
</g>
</g>
<!-- Node0&#45;&gt;Node5 -->
<g id="edge13" class="edge"><title>Node0&#45;&gt;Node5</title>
<path fill="none" stroke="midnightblue" d="M301.779,-342.405C296.442,-302.658 275.1,-143.722 267.613,-87.9574"/>
<polygon fill="midnightblue" stroke="midnightblue" points="271.036,-87.149 266.236,-77.7038 264.098,-88.0806 271.036,-87.149"/>
</g>
<!-- Node6 -->
<g id="node7" class="node"><title>Node6</title>
<polygon fill="none" stroke="#bfbfbf" points="248,-0.5 248,-20.5 360,-20.5 360,-0.5 248,-0.5"/>
<text text-anchor="middle" x="304" y="-7.7" font-family="Avenir-Book" font-size="11.00">llvm/IR/IRBuilder.h</text>
</g>
<!-- Node0&#45;&gt;Node6 -->
<g id="edge26" class="edge"><title>Node0&#45;&gt;Node6</title>
<path fill="none" stroke="midnightblue" d="M350.132,-342.477C428.961,-326.026 579,-288.303 579,-239.5 579,-239.5 579,-239.5 579,-123.5 579,-76.8444 441.517,-40.1726 360.969,-22.6912"/>
<polygon fill="midnightblue" stroke="midnightblue" points="361.472,-19.2198 350.962,-20.5542 360.01,-26.0654 361.472,-19.2198"/>
</g>
<!-- Node9 -->
<g id="node10" class="node"><title>Node9</title>
<g id="a_node10"><a xlink:href="PolicyFile_8hh.html" target="_top" xlink:title="Declaration of loom::PolicyFile. ">
<polygon fill="none" stroke="black" points="361,-285.5 361,-305.5 441,-305.5 441,-285.5 361,-285.5"/>
<text text-anchor="middle" x="401" y="-292.7" font-family="Avenir-Book" font-size="11.00">PolicyFile.hh</text>
</a>
</g>
</g>
<!-- Node0&#45;&gt;Node9 -->
<g id="edge14" class="edge"><title>Node0&#45;&gt;Node9</title>
<path fill="none" stroke="midnightblue" d="M319.183,-342.418C334.645,-333.74 358.177,-320.533 376.041,-310.508"/>
<polygon fill="midnightblue" stroke="midnightblue" points="377.786,-313.542 384.793,-305.596 374.36,-307.438 377.786,-313.542"/>
</g>
<!-- Node14 -->
<g id="node15" class="node"><title>Node14</title>
<polygon fill="none" stroke="#bfbfbf" points="607,-285.5 607,-305.5 719,-305.5 719,-285.5 607,-285.5"/>
<text text-anchor="middle" x="663" y="-292.7" font-family="Avenir-Book" font-size="11.00">llvm/IR/Function.h</text>
</g>
<!-- Node0&#45;&gt;Node14 -->
<g id="edge25" class="edge"><title>Node0&#45;&gt;Node14</title>
<path fill="none" stroke="midnightblue" d="M362.044,-342.479C426.553,-332.624 529.641,-316.874 596.835,-306.609"/>
<polygon fill="midnightblue" stroke="midnightblue" points="597.532,-310.043 606.889,-305.073 596.475,-303.123 597.532,-310.043"/>
</g>
<!-- Node2 -->
<g id="node3" class="node"><title>Node2</title>
<polygon fill="none" stroke="#bfbfbf" points="103.5,-57.5 103.5,-77.5 166.5,-77.5 166.5,-57.5 103.5,-57.5"/>
<text text-anchor="middle" x="135" y="-64.7" font-family="Avenir-Book" font-size="11.00">memory</text>
</g>
<!-- Node1&#45;&gt;Node2 -->
<g id="edge2" class="edge"><title>Node1&#45;&gt;Node2</title>
<path fill="none" stroke="midnightblue" d="M162.878,-171.387C148.072,-163.979 129.752,-151.961 121,-135 113.164,-119.814 118.676,-100.524 124.941,-86.6354"/>
<polygon fill="midnightblue" stroke="midnightblue" points="128.111,-88.1222 129.456,-77.613 121.851,-84.9897 128.111,-88.1222"/>
</g>
<!-- Node1&#45;&gt;Node3 -->
<g id="edge3" class="edge"><title>Node1&#45;&gt;Node3</title>
<path fill="none" stroke="midnightblue" d="M213.733,-171.418C243.037,-162.155 288.665,-147.732 320.954,-137.526"/>
<polygon fill="midnightblue" stroke="midnightblue" points="322.034,-140.855 330.514,-134.504 319.924,-134.181 322.034,-140.855"/>
</g>
<!-- Node1&#45;&gt;Node4 -->
<g id="edge4" class="edge"><title>Node1&#45;&gt;Node4</title>
<path fill="none" stroke="midnightblue" d="M164.178,-171.468C148.535,-163.762 127.558,-151.335 114,-135 87.8753,-103.526 73.9851,-56.6069 67.8925,-30.5977"/>
<polygon fill="midnightblue" stroke="midnightblue" points="71.248,-29.5596 65.6855,-20.5425 64.4108,-31.0603 71.248,-29.5596"/>
</g>
<!-- Node1&#45;&gt;Node5 -->
<g id="edge5" class="edge"><title>Node1&#45;&gt;Node5</title>
<path fill="none" stroke="midnightblue" d="M191.547,-171.335C204.849,-152.712 235.232,-110.175 252.465,-86.0488"/>
<polygon fill="midnightblue" stroke="midnightblue" points="255.398,-87.9638 258.363,-77.7921 249.702,-83.8951 255.398,-87.9638"/>
</g>
<!-- Node8 -->
<g id="node9" class="node"><title>Node8</title>
<g id="a_node9"><a xlink:href="Logger_8hh.html" target="_top" xlink:title="Declaration of loom::Logger. ">
<polygon fill="none" stroke="black" points="130.5,-114.5 130.5,-134.5 201.5,-134.5 201.5,-114.5 130.5,-114.5"/>
<text text-anchor="middle" x="166" y="-121.7" font-family="Avenir-Book" font-size="11.00">Logger.hh</text>
</a>
</g>
</g>
<!-- Node1&#45;&gt;Node8 -->
<g id="edge9" class="edge"><title>Node1&#45;&gt;Node8</title>
<path fill="none" stroke="midnightblue" d="M181.863,-171.418C179.32,-164.058 175.652,-153.441 172.484,-144.27"/>
<polygon fill="midnightblue" stroke="midnightblue" points="175.779,-143.089 169.206,-134.779 169.163,-145.374 175.779,-143.089"/>
</g>
<!-- Node5&#45;&gt;Node4 -->
<g id="edge6" class="edge"><title>Node5&#45;&gt;Node4</title>
<path fill="none" stroke="midnightblue" d="M231.809,-57.4179C197.665,-48.0751 144.339,-33.4834 106.988,-23.263"/>
<polygon fill="midnightblue" stroke="midnightblue" points="107.475,-19.7677 96.9063,-20.5042 105.628,-26.5195 107.475,-19.7677"/>
</g>
<!-- Node5&#45;&gt;Node6 -->
<g id="edge7" class="edge"><title>Node5&#45;&gt;Node6</title>
<path fill="none" stroke="midnightblue" d="M271.44,-57.4179C276.883,-49.7415 284.839,-38.5217 291.524,-29.0945"/>
<polygon fill="midnightblue" stroke="midnightblue" points="294.491,-30.9613 297.42,-20.7795 288.781,-26.9123 294.491,-30.9613"/>
</g>
<!-- Node7 -->
<g id="node8" class="node"><title>Node7</title>
<polygon fill="none" stroke="#bfbfbf" points="455.5,-0.5 455.5,-20.5 506.5,-20.5 506.5,-0.5 455.5,-0.5"/>
<text text-anchor="middle" x="481" y="-7.7" font-family="Avenir-Book" font-size="11.00">vector</text>
</g>
<!-- Node5&#45;&gt;Node7 -->
<g id="edge8" class="edge"><title>Node5&#45;&gt;Node7</title>
<path fill="none" stroke="midnightblue" d="M298.75,-57.9062C338.675,-47.7402 404.838,-30.8932 445.508,-20.5374"/>
<polygon fill="midnightblue" stroke="midnightblue" points="446.44,-23.9118 455.267,-18.0524 444.712,-17.1283 446.44,-23.9118"/>
</g>
<!-- Node8&#45;&gt;Node2 -->
<g id="edge12" class="edge"><title>Node8&#45;&gt;Node2</title>
<path fill="none" stroke="midnightblue" d="M160.881,-114.418C156.644,-106.9 150.49,-95.9829 145.247,-86.6799"/>
<polygon fill="midnightblue" stroke="midnightblue" points="148.189,-84.7724 140.23,-77.7795 142.091,-88.2096 148.189,-84.7724"/>
</g>
<!-- Node8&#45;&gt;Node5 -->
<g id="edge10" class="edge"><title>Node8&#45;&gt;Node5</title>
<path fill="none" stroke="midnightblue" d="M182.348,-114.418C197.968,-105.74 221.74,-92.5334 239.786,-82.5077"/>
<polygon fill="midnightblue" stroke="midnightblue" points="241.586,-85.5117 248.628,-77.5956 238.187,-79.3925 241.586,-85.5117"/>
</g>
<!-- Node8&#45;&gt;Node6 -->
<g id="edge11" class="edge"><title>Node8&#45;&gt;Node6</title>
<path fill="none" stroke="midnightblue" d="M172.016,-114.419C181.435,-100.705 200.792,-74.459 222,-57 237.656,-44.1116 257.489,-32.9938 273.728,-24.9747"/>
<polygon fill="midnightblue" stroke="midnightblue" points="275.309,-28.0982 282.815,-20.6212 272.284,-21.7853 275.309,-28.0982"/>
</g>
<!-- Node10 -->
<g id="node11" class="node"><title>Node10</title>
<g id="a_node11"><a xlink:href="Policy_8hh.html" target="_top" xlink:title="Definition of loom::Policy. ">
<polygon fill="none" stroke="black" points="489,-228.5 489,-248.5 551,-248.5 551,-228.5 489,-228.5"/>
<text text-anchor="middle" x="520" y="-235.7" font-family="Avenir-Book" font-size="11.00">Policy.hh</text>
</a>
</g>
</g>
<!-- Node9&#45;&gt;Node10 -->
<g id="edge15" class="edge"><title>Node9&#45;&gt;Node10</title>
<path fill="none" stroke="midnightblue" d="M420.65,-285.418C439.857,-276.541 469.316,-262.925 491.174,-252.823"/>
<polygon fill="midnightblue" stroke="midnightblue" points="492.711,-255.968 500.32,-248.596 489.775,-249.614 492.711,-255.968"/>
</g>
<!-- Node13 -->
<g id="node14" class="node"><title>Node13</title>
<polygon fill="none" stroke="#bfbfbf" points="331,-228.5 331,-248.5 471,-248.5 471,-228.5 331,-228.5"/>
<text text-anchor="middle" x="401" y="-235.7" font-family="Avenir-Book" font-size="11.00">llvm/Support/ErrorOr.h</text>
</g>
<!-- Node9&#45;&gt;Node13 -->
<g id="edge22" class="edge"><title>Node9&#45;&gt;Node13</title>
<path fill="none" stroke="midnightblue" d="M401,-285.418C401,-278.216 401,-267.896 401,-258.863"/>
<polygon fill="midnightblue" stroke="midnightblue" points="404.5,-258.779 401,-248.779 397.5,-258.779 404.5,-258.779"/>
</g>
<!-- Node10&#45;&gt;Node1 -->
<g id="edge16" class="edge"><title>Node10&#45;&gt;Node1</title>
<path fill="none" stroke="midnightblue" d="M488.609,-229.794C485.705,-229.157 482.802,-228.548 480,-228 400.073,-212.371 307.103,-198.783 247.226,-190.621"/>
<polygon fill="midnightblue" stroke="midnightblue" points="247.555,-187.134 237.176,-189.26 246.615,-194.07 247.555,-187.134"/>
</g>
<!-- Node10&#45;&gt;Node7 -->
<g id="edge21" class="edge"><title>Node10&#45;&gt;Node7</title>
<path fill="none" stroke="midnightblue" d="M518.423,-228.361C512.604,-194.641 492.264,-76.7727 484.266,-30.4242"/>
<polygon fill="midnightblue" stroke="midnightblue" points="487.704,-29.7646 482.554,-20.5055 480.806,-30.9551 487.704,-29.7646"/>
</g>
<!-- Node11 -->
<g id="node12" class="node"><title>Node11</title>
<g id="a_node12"><a xlink:href="Serializer_8hh.html" target="_top" xlink:title="Declaration of loom::Serializer. ">
<polygon fill="none" stroke="black" points="408.5,-171.5 408.5,-191.5 491.5,-191.5 491.5,-171.5 408.5,-171.5"/>
<text text-anchor="middle" x="450" y="-178.7" font-family="Avenir-Book" font-size="11.00">Serializer.hh</text>
</a>
</g>
</g>
<!-- Node10&#45;&gt;Node11 -->
<g id="edge17" class="edge"><title>Node10&#45;&gt;Node11</title>
<path fill="none" stroke="midnightblue" d="M508.441,-228.418C497.966,-220.188 482.307,-207.884 469.834,-198.084"/>
<polygon fill="midnightblue" stroke="midnightblue" points="471.836,-195.206 461.81,-191.779 467.511,-200.71 471.836,-195.206"/>
</g>
<!-- Node12 -->
<g id="node13" class="node"><title>Node12</title>
<polygon fill="none" stroke="#bfbfbf" points="343.5,-171.5 343.5,-191.5 390.5,-191.5 390.5,-171.5 343.5,-171.5"/>
<text text-anchor="middle" x="367" y="-178.7" font-family="Avenir-Book" font-size="11.00">string</text>
</g>
<!-- Node10&#45;&gt;Node12 -->
<g id="edge20" class="edge"><title>Node10&#45;&gt;Node12</title>
<path fill="none" stroke="midnightblue" d="M494.735,-228.418C468.921,-219.138 428.702,-204.68 400.301,-194.471"/>
<polygon fill="midnightblue" stroke="midnightblue" points="401.385,-191.141 390.791,-191.052 399.017,-197.729 401.385,-191.141"/>
</g>
<!-- Node11&#45;&gt;Node3 -->
<g id="edge18" class="edge"><title>Node11&#45;&gt;Node3</title>
<path fill="none" stroke="midnightblue" d="M434.973,-171.418C420.747,-162.82 399.165,-149.775 382.634,-139.784"/>
<polygon fill="midnightblue" stroke="midnightblue" points="384.418,-136.773 374.049,-134.596 380.797,-142.764 384.418,-136.773"/>
</g>
<!-- Node11&#45;&gt;Node6 -->
<g id="edge19" class="edge"><title>Node11&#45;&gt;Node6</title>
<path fill="none" stroke="midnightblue" d="M448.951,-171.165C447.056,-157.583 442.074,-132.032 430,-114 403.782,-74.8438 358.103,-43.1314 329.542,-25.8295"/>
<polygon fill="midnightblue" stroke="midnightblue" points="330.954,-22.5989 320.565,-20.5243 327.393,-28.6253 330.954,-22.5989"/>
</g>
</g>
</svg>
