<?xml version="1.0" encoding="UTF-8" standalone="no"?>
<!DOCTYPE svg PUBLIC "-//W3C//DTD SVG 1.1//EN"
 "http://www.w3.org/Graphics/SVG/1.1/DTD/svg11.dtd">
<!-- Generated by graphviz version 2.38.0 (20140413.2041)
 -->
<!-- Title: src/InstrStrategy.hh Pages: 1 -->
<svg width="409pt" height="200pt"
 viewBox="0.00 0.00 408.50 200.00" xmlns="http://www.w3.org/2000/svg" xmlns:xlink="http://www.w3.org/1999/xlink">
<g id="graph0" class="graph" transform="scale(1 1) rotate(0) translate(4 196)">
<title>src/InstrStrategy.hh</title>
<!-- Node0 -->
<g id="node1" class="node"><title>Node0</title>
<polygon fill="#bfbfbf" stroke="black" points="121,-171.5 121,-191.5 245,-191.5 245,-171.5 121,-171.5"/>
<text text-anchor="middle" x="183" y="-178.7" font-family="Avenir-Book" font-size="11.00">src/InstrStrategy.hh</text>
</g>
<!-- Node1 -->
<g id="node2" class="node"><title>Node1</title>
<polygon fill="none" stroke="#bfbfbf" points="92.5,-57.5 92.5,-77.5 155.5,-77.5 155.5,-57.5 92.5,-57.5"/>
<text text-anchor="middle" x="124" y="-64.7" font-family="Avenir-Book" font-size="11.00">memory</text>
</g>
<!-- Node0&#45;&gt;Node1 -->
<g id="edge1" class="edge"><title>Node0&#45;&gt;Node1</title>
<path fill="none" stroke="midnightblue" d="M170.716,-171.436C160.366,-163.123 146.002,-149.871 138,-135 130.138,-120.39 126.689,-101.765 125.177,-87.944"/>
<polygon fill="midnightblue" stroke="midnightblue" points="128.637,-87.3283 124.308,-77.6583 121.662,-87.9174 128.637,-87.3283"/>
</g>
<!-- Node2 -->
<g id="node3" class="node"><title>Node2</title>
<polygon fill="none" stroke="#bfbfbf" points="275.5,-114.5 275.5,-134.5 400.5,-134.5 400.5,-114.5 275.5,-114.5"/>
<text text-anchor="middle" x="338" y="-121.7" font-family="Avenir-Book" font-size="11.00">llvm/ADT/ArrayRef.h</text>
</g>
<!-- Node0&#45;&gt;Node2 -->
<g id="edge2" class="edge"><title>Node0&#45;&gt;Node2</title>
<path fill="none" stroke="midnightblue" d="M208.595,-171.418C234.362,-162.275 274.296,-148.105 302.987,-137.924"/>
<polygon fill="midnightblue" stroke="midnightblue" points="304.371,-141.147 312.624,-134.504 302.03,-134.55 304.371,-141.147"/>
</g>
<!-- Node3 -->
<g id="node4" class="node"><title>Node3</title>
<polygon fill="none" stroke="#bfbfbf" points="0,-0.5 0,-20.5 128,-20.5 128,-0.5 0,-0.5"/>
<text text-anchor="middle" x="64" y="-7.7" font-family="Avenir-Book" font-size="11.00">llvm/ADT/StringRef.h</text>
</g>
<!-- Node0&#45;&gt;Node3 -->
<g id="edge3" class="edge"><title>Node0&#45;&gt;Node3</title>
<path fill="none" stroke="midnightblue" d="M170.043,-171.476C148.128,-155.441 104.078,-119.716 83,-78 75.3855,-62.9294 70.4033,-44.3496 67.4592,-30.6634"/>
<polygon fill="midnightblue" stroke="midnightblue" points="70.8237,-29.6348 65.4524,-20.5025 63.9563,-30.9912 70.8237,-29.6348"/>
</g>
<!-- Node4 -->
<g id="node5" class="node"><title>Node4</title>
<g id="a_node5"><a xlink:href="IRUtils_8hh.html" target="_top" xlink:title="Declarations of LLVM IR utility functions. ">
<polygon fill="none" stroke="black" points="212.5,-57.5 212.5,-77.5 279.5,-77.5 279.5,-57.5 212.5,-57.5"/>
<text text-anchor="middle" x="246" y="-64.7" font-family="Avenir-Book" font-size="11.00">IRUtils.hh</text>
</a>
</g>
</g>
<!-- Node0&#45;&gt;Node4 -->
<g id="edge4" class="edge"><title>Node0&#45;&gt;Node4</title>
<path fill="none" stroke="midnightblue" d="M194.751,-171.236C204.704,-162.794 218.65,-149.466 227,-135 235.525,-120.23 240.439,-101.379 243.125,-87.5225"/>
<polygon fill="midnightblue" stroke="midnightblue" points="246.576,-88.1031 244.827,-77.6536 239.678,-86.913 246.576,-88.1031"/>
</g>
<!-- Node7 -->
<g id="node8" class="node"><title>Node7</title>
<g id="a_node8"><a xlink:href="Logger_8hh.html" target="_top" xlink:title="Declaration of loom::Logger. ">
<polygon fill="none" stroke="black" points="147.5,-114.5 147.5,-134.5 218.5,-134.5 218.5,-114.5 147.5,-114.5"/>
<text text-anchor="middle" x="183" y="-121.7" font-family="Avenir-Book" font-size="11.00">Logger.hh</text>
</a>
</g>
</g>
<!-- Node0&#45;&gt;Node7 -->
<g id="edge8" class="edge"><title>Node0&#45;&gt;Node7</title>
<path fill="none" stroke="midnightblue" d="M183,-171.418C183,-164.216 183,-153.896 183,-144.863"/>
<polygon fill="midnightblue" stroke="midnightblue" points="186.5,-144.779 183,-134.779 179.5,-144.779 186.5,-144.779"/>
</g>
<!-- Node4&#45;&gt;Node3 -->
<g id="edge5" class="edge"><title>Node4&#45;&gt;Node3</title>
<path fill="none" stroke="midnightblue" d="M215.946,-57.4179C185.295,-48.155 137.569,-33.7325 103.795,-23.526"/>
<polygon fill="midnightblue" stroke="midnightblue" points="104.381,-20.0467 93.7958,-20.5042 102.356,-26.7474 104.381,-20.0467"/>
</g>
<!-- Node5 -->
<g id="node6" class="node"><title>Node5</title>
<polygon fill="none" stroke="#bfbfbf" points="146,-0.5 146,-20.5 258,-20.5 258,-0.5 146,-0.5"/>
<text text-anchor="middle" x="202" y="-7.7" font-family="Avenir-Book" font-size="11.00">llvm/IR/IRBuilder.h</text>
</g>
<!-- Node4&#45;&gt;Node5 -->
<g id="edge6" class="edge"><title>Node4&#45;&gt;Node5</title>
<path fill="none" stroke="midnightblue" d="M238.734,-57.4179C232.53,-49.6624 223.432,-38.29 215.843,-28.8035"/>
<polygon fill="midnightblue" stroke="midnightblue" points="218.404,-26.4017 209.424,-20.7795 212.938,-30.7746 218.404,-26.4017"/>
</g>
<!-- Node6 -->
<g id="node7" class="node"><title>Node6</title>
<polygon fill="none" stroke="#bfbfbf" points="276.5,-0.5 276.5,-20.5 327.5,-20.5 327.5,-0.5 276.5,-0.5"/>
<text text-anchor="middle" x="302" y="-7.7" font-family="Avenir-Book" font-size="11.00">vector</text>
</g>
<!-- Node4&#45;&gt;Node6 -->
<g id="edge7" class="edge"><title>Node4&#45;&gt;Node6</title>
<path fill="none" stroke="midnightblue" d="M255.247,-57.4179C263.385,-49.425 275.435,-37.5903 285.263,-27.9377"/>
<polygon fill="midnightblue" stroke="midnightblue" points="287.87,-30.2836 292.552,-20.7795 282.965,-25.2895 287.87,-30.2836"/>
</g>
<!-- Node7&#45;&gt;Node1 -->
<g id="edge11" class="edge"><title>Node7&#45;&gt;Node1</title>
<path fill="none" stroke="midnightblue" d="M173.257,-114.418C164.598,-106.346 151.736,-94.3556 141.326,-84.6517"/>
<polygon fill="midnightblue" stroke="midnightblue" points="143.656,-82.0381 133.954,-77.7795 138.882,-87.1584 143.656,-82.0381"/>
</g>
<!-- Node7&#45;&gt;Node4 -->
<g id="edge9" class="edge"><title>Node7&#45;&gt;Node4</title>
<path fill="none" stroke="midnightblue" d="M193.403,-114.418C202.74,-106.267 216.653,-94.1201 227.825,-84.3669"/>
<polygon fill="midnightblue" stroke="midnightblue" points="230.139,-86.9927 235.371,-77.7795 225.536,-81.7194 230.139,-86.9927"/>
</g>
<!-- Node7&#45;&gt;Node5 -->
<g id="edge10" class="edge"><title>Node7&#45;&gt;Node5</title>
<path fill="none" stroke="midnightblue" d="M184.555,-114.335C187.645,-96.1219 194.614,-55.0369 198.748,-30.6694"/>
<polygon fill="midnightblue" stroke="midnightblue" points="202.202,-31.2366 200.424,-20.7921 195.3,-30.0658 202.202,-31.2366"/>
</g>
</g>
</svg>
