<?xml version="1.0" encoding="UTF-8" standalone="no"?>
<!DOCTYPE svg PUBLIC "-//W3C//DTD SVG 1.1//EN"
 "http://www.w3.org/Graphics/SVG/1.1/DTD/svg11.dtd">
<!-- Generated by graphviz version 2.38.0 (20140413.2041)
 -->
<!-- Title: src/Instrumenter.hh Pages: 1 -->
<svg width="636pt" height="428pt"
 viewBox="0.00 0.00 636.00 428.00" xmlns="http://www.w3.org/2000/svg" xmlns:xlink="http://www.w3.org/1999/xlink">
<g id="graph0" class="graph" transform="scale(1 1) rotate(0) translate(4 424)">
<title>src/Instrumenter.hh</title>
<!-- Node0 -->
<g id="node1" class="node"><title>Node0</title>
<polygon fill="#bfbfbf" stroke="black" points="242.5,-399.5 242.5,-419.5 367.5,-419.5 367.5,-399.5 242.5,-399.5"/>
<text text-anchor="middle" x="305" y="-406.7" font-family="Avenir-Book" font-size="11.00">src/Instrumenter.hh</text>
</g>
<!-- Node1 -->
<g id="node2" class="node"><title>Node1</title>
<g id="a_node2"><a xlink:href="Instrumentation_8hh.html" target="_top" xlink:title="Declaration of loom::Instrumentation. ">
<polygon fill="none" stroke="black" points="244.5,-342.5 244.5,-362.5 365.5,-362.5 365.5,-342.5 244.5,-342.5"/>
<text text-anchor="middle" x="305" y="-349.7" font-family="Avenir-Book" font-size="11.00">Instrumentation.hh</text>
</a>
</g>
</g>
<!-- Node0&#45;&gt;Node1 -->
<g id="edge1" class="edge"><title>Node0&#45;&gt;Node1</title>
<path fill="none" stroke="midnightblue" d="M305,-399.418C305,-392.216 305,-381.896 305,-372.863"/>
<polygon fill="midnightblue" stroke="midnightblue" points="308.5,-372.779 305,-362.779 301.5,-372.779 308.5,-372.779"/>
</g>
<!-- Node11 -->
<g id="node12" class="node"><title>Node11</title>
<g id="a_node12"><a xlink:href="Policy_8hh.html" target="_top" xlink:title="Definition of loom::Policy. ">
<polygon fill="none" stroke="black" points="0,-228.5 0,-248.5 62,-248.5 62,-228.5 0,-228.5"/>
<text text-anchor="middle" x="31" y="-235.7" font-family="Avenir-Book" font-size="11.00">Policy.hh</text>
</a>
</g>
</g>
<!-- Node0&#45;&gt;Node11 -->
<g id="edge28" class="edge"><title>Node0&#45;&gt;Node11</title>
<path fill="none" stroke="midnightblue" d="M281.744,-399.464C242.539,-383.669 161.637,-348.623 101,-306 80.1362,-291.334 59.3477,-270.613 45.9139,-256.214"/>
<polygon fill="midnightblue" stroke="midnightblue" points="48.2424,-253.574 38.9091,-248.56 43.0784,-258.3 48.2424,-253.574"/>
</g>
<!-- Node16 -->
<g id="node17" class="node"><title>Node16</title>
<polygon fill="none" stroke="#bfbfbf" points="383.5,-342.5 383.5,-362.5 452.5,-362.5 452.5,-342.5 383.5,-342.5"/>
<text text-anchor="middle" x="418" y="-349.7" font-family="Avenir-Book" font-size="11.00">functional</text>
</g>
<!-- Node0&#45;&gt;Node16 -->
<g id="edge29" class="edge"><title>Node0&#45;&gt;Node16</title>
<path fill="none" stroke="midnightblue" d="M323.66,-399.418C341.734,-390.621 369.371,-377.169 390.067,-367.096"/>
<polygon fill="midnightblue" stroke="midnightblue" points="391.853,-370.119 399.313,-362.596 388.789,-363.825 391.853,-370.119"/>
</g>
<!-- Node2 -->
<g id="node3" class="node"><title>Node2</title>
<g id="a_node3"><a xlink:href="InstrStrategy_8hh.html" target="_top" xlink:title="Declaration of loom::InstrStrategy. ">
<polygon fill="none" stroke="black" points="314,-171.5 314,-191.5 418,-191.5 418,-171.5 314,-171.5"/>
<text text-anchor="middle" x="366" y="-178.7" font-family="Avenir-Book" font-size="11.00">InstrStrategy.hh</text>
</a>
</g>
</g>
<!-- Node1&#45;&gt;Node2 -->
<g id="edge2" class="edge"><title>Node1&#45;&gt;Node2</title>
<path fill="none" stroke="midnightblue" d="M308.28,-342.414C317.878,-315.821 346.06,-237.744 359.16,-201.45"/>
<polygon fill="midnightblue" stroke="midnightblue" points="362.601,-202.225 362.704,-191.631 356.017,-199.849 362.601,-202.225"/>
</g>
<!-- Node4 -->
<g id="node5" class="node"><title>Node4</title>
<polygon fill="none" stroke="#bfbfbf" points="206.5,-114.5 206.5,-134.5 331.5,-134.5 331.5,-114.5 206.5,-114.5"/>
<text text-anchor="middle" x="269" y="-121.7" font-family="Avenir-Book" font-size="11.00">llvm/ADT/ArrayRef.h</text>
</g>
<!-- Node1&#45;&gt;Node4 -->
<g id="edge24" class="edge"><title>Node1&#45;&gt;Node4</title>
<path fill="none" stroke="midnightblue" d="M303.544,-342.361C298.173,-308.641 279.397,-190.773 272.014,-144.424"/>
<polygon fill="midnightblue" stroke="midnightblue" points="275.464,-143.83 270.435,-134.505 268.551,-144.932 275.464,-143.83"/>
</g>
<!-- Node5 -->
<g id="node6" class="node"><title>Node5</title>
<polygon fill="none" stroke="#bfbfbf" points="500,-0.5 500,-20.5 628,-20.5 628,-0.5 500,-0.5"/>
<text text-anchor="middle" x="564" y="-7.7" font-family="Avenir-Book" font-size="11.00">llvm/ADT/StringRef.h</text>
</g>
<!-- Node1&#45;&gt;Node5 -->
<g id="edge25" class="edge"><title>Node1&#45;&gt;Node5</title>
<path fill="none" stroke="midnightblue" d="M359.474,-342.453C445.216,-326.651 602,-290.749 602,-239.5 602,-239.5 602,-239.5 602,-123.5 602,-88.9345 585.568,-51.3983 574.315,-29.7447"/>
<polygon fill="midnightblue" stroke="midnightblue" points="577.276,-27.8619 569.444,-20.7268 571.117,-31.1887 577.276,-27.8619"/>
</g>
<!-- Node6 -->
<g id="node7" class="node"><title>Node6</title>
<g id="a_node7"><a xlink:href="IRUtils_8hh.html" target="_top" xlink:title="Declarations of LLVM IR utility functions. ">
<polygon fill="none" stroke="black" points="453.5,-57.5 453.5,-77.5 520.5,-77.5 520.5,-57.5 453.5,-57.5"/>
<text text-anchor="middle" x="487" y="-64.7" font-family="Avenir-Book" font-size="11.00">IRUtils.hh</text>
</a>
</g>
</g>
<!-- Node1&#45;&gt;Node6 -->
<g id="edge14" class="edge"><title>Node1&#45;&gt;Node6</title>
<path fill="none" stroke="midnightblue" d="M350.835,-342.449C393.354,-333.456 452.985,-319.148 473,-306 504.589,-285.25 526,-277.294 526,-239.5 526,-239.5 526,-239.5 526,-180.5 526,-145.84 509.136,-108.333 497.587,-86.7113"/>
<polygon fill="midnightblue" stroke="midnightblue" points="500.502,-84.7516 492.588,-77.708 494.382,-88.1498 500.502,-84.7516"/>
</g>
<!-- Node7 -->
<g id="node8" class="node"><title>Node7</title>
<polygon fill="none" stroke="#bfbfbf" points="293,-0.5 293,-20.5 405,-20.5 405,-0.5 293,-0.5"/>
<text text-anchor="middle" x="349" y="-7.7" font-family="Avenir-Book" font-size="11.00">llvm/IR/IRBuilder.h</text>
</g>
<!-- Node1&#45;&gt;Node7 -->
<g id="edge27" class="edge"><title>Node1&#45;&gt;Node7</title>
<path fill="none" stroke="midnightblue" d="M301.398,-342.277C292.314,-320.036 266.496,-262.727 229,-228 203.333,-204.228 177.223,-221.863 159,-192 154.138,-184.033 156.761,-180.061 159,-171 172.991,-114.379 178.818,-93.8822 224,-57 243.724,-40.8989 269.643,-30.2272 292.763,-23.2947"/>
<polygon fill="midnightblue" stroke="midnightblue" points="293.805,-26.6376 302.474,-20.5476 291.899,-19.9019 293.805,-26.6376"/>
</g>
<!-- Node10 -->
<g id="node11" class="node"><title>Node10</title>
<g id="a_node11"><a xlink:href="PolicyFile_8hh.html" target="_top" xlink:title="Declaration of loom::PolicyFile. ">
<polygon fill="none" stroke="black" points="110,-285.5 110,-305.5 190,-305.5 190,-285.5 110,-285.5"/>
<text text-anchor="middle" x="150" y="-292.7" font-family="Avenir-Book" font-size="11.00">PolicyFile.hh</text>
</a>
</g>
</g>
<!-- Node1&#45;&gt;Node10 -->
<g id="edge15" class="edge"><title>Node1&#45;&gt;Node10</title>
<path fill="none" stroke="midnightblue" d="M279.405,-342.418C253.638,-333.275 213.704,-319.105 185.013,-308.924"/>
<polygon fill="midnightblue" stroke="midnightblue" points="185.97,-305.55 175.376,-305.504 183.629,-312.147 185.97,-305.55"/>
</g>
<!-- Node15 -->
<g id="node16" class="node"><title>Node15</title>
<polygon fill="none" stroke="#bfbfbf" points="352,-285.5 352,-305.5 464,-305.5 464,-285.5 352,-285.5"/>
<text text-anchor="middle" x="408" y="-292.7" font-family="Avenir-Book" font-size="11.00">llvm/IR/Function.h</text>
</g>
<!-- Node1&#45;&gt;Node15 -->
<g id="edge26" class="edge"><title>Node1&#45;&gt;Node15</title>
<path fill="none" stroke="midnightblue" d="M322.008,-342.418C338.334,-333.7 363.219,-320.412 382.025,-310.37"/>
<polygon fill="midnightblue" stroke="midnightblue" points="383.794,-313.393 390.966,-305.596 380.497,-307.219 383.794,-313.393"/>
</g>
<!-- Node3 -->
<g id="node4" class="node"><title>Node3</title>
<polygon fill="none" stroke="#bfbfbf" points="329.5,-57.5 329.5,-77.5 392.5,-77.5 392.5,-57.5 329.5,-57.5"/>
<text text-anchor="middle" x="361" y="-64.7" font-family="Avenir-Book" font-size="11.00">memory</text>
</g>
<!-- Node2&#45;&gt;Node3 -->
<g id="edge3" class="edge"><title>Node2&#45;&gt;Node3</title>
<path fill="none" stroke="midnightblue" d="M365.591,-171.335C364.781,-153.204 362.96,-112.407 361.871,-87.9997"/>
<polygon fill="midnightblue" stroke="midnightblue" points="365.357,-87.626 361.415,-77.7921 358.364,-87.9383 365.357,-87.626"/>
</g>
<!-- Node2&#45;&gt;Node4 -->
<g id="edge4" class="edge"><title>Node2&#45;&gt;Node4</title>
<path fill="none" stroke="midnightblue" d="M349.982,-171.418C334.818,-162.82 311.813,-149.775 294.193,-139.784"/>
<polygon fill="midnightblue" stroke="midnightblue" points="295.467,-136.483 285.041,-134.596 292.014,-142.573 295.467,-136.483"/>
</g>
<!-- Node2&#45;&gt;Node5 -->
<g id="edge5" class="edge"><title>Node2&#45;&gt;Node5</title>
<path fill="none" stroke="midnightblue" d="M407.734,-171.483C432.828,-164.552 464.373,-153.04 488,-135 524.213,-107.35 547.207,-57.0731 557.574,-29.9793"/>
<polygon fill="midnightblue" stroke="midnightblue" points="560.885,-31.1162 561.037,-20.5224 554.312,-28.7095 560.885,-31.1162"/>
</g>
<!-- Node2&#45;&gt;Node6 -->
<g id="edge6" class="edge"><title>Node2&#45;&gt;Node6</title>
<path fill="none" stroke="midnightblue" d="M405.807,-171.492C427.027,-164.763 451.987,-153.452 468,-135 479.302,-121.977 483.903,-102.638 485.764,-88.1676"/>
<polygon fill="midnightblue" stroke="midnightblue" points="489.286,-88.1058 486.745,-77.82 482.317,-87.4449 489.286,-88.1058"/>
</g>
<!-- Node9 -->
<g id="node10" class="node"><title>Node9</title>
<g id="a_node10"><a xlink:href="Logger_8hh.html" target="_top" xlink:title="Declaration of loom::Logger. ">
<polygon fill="none" stroke="black" points="388.5,-114.5 388.5,-134.5 459.5,-134.5 459.5,-114.5 388.5,-114.5"/>
<text text-anchor="middle" x="424" y="-121.7" font-family="Avenir-Book" font-size="11.00">Logger.hh</text>
</a>
</g>
</g>
<!-- Node2&#45;&gt;Node9 -->
<g id="edge10" class="edge"><title>Node2&#45;&gt;Node9</title>
<path fill="none" stroke="midnightblue" d="M375.578,-171.418C384.006,-163.425 396.487,-151.59 406.666,-141.938"/>
<polygon fill="midnightblue" stroke="midnightblue" points="409.366,-144.2 414.214,-134.779 404.55,-139.121 409.366,-144.2"/>
</g>
<!-- Node6&#45;&gt;Node5 -->
<g id="edge7" class="edge"><title>Node6&#45;&gt;Node5</title>
<path fill="none" stroke="midnightblue" d="M499.715,-57.4179C511.418,-49.0584 529.005,-36.4966 542.827,-26.6239"/>
<polygon fill="midnightblue" stroke="midnightblue" points="545.163,-29.2561 551.266,-20.5956 541.094,-23.56 545.163,-29.2561"/>
</g>
<!-- Node6&#45;&gt;Node7 -->
<g id="edge8" class="edge"><title>Node6&#45;&gt;Node7</title>
<path fill="none" stroke="midnightblue" d="M464.212,-57.4179C441.639,-48.4215 406.855,-34.5581 381.41,-24.4172"/>
<polygon fill="midnightblue" stroke="midnightblue" points="382.407,-21.0467 371.822,-20.5956 379.815,-27.5493 382.407,-21.0467"/>
</g>
<!-- Node8 -->
<g id="node9" class="node"><title>Node8</title>
<polygon fill="none" stroke="#bfbfbf" points="78.5,-0.5 78.5,-20.5 129.5,-20.5 129.5,-0.5 78.5,-0.5"/>
<text text-anchor="middle" x="104" y="-7.7" font-family="Avenir-Book" font-size="11.00">vector</text>
</g>
<!-- Node6&#45;&gt;Node8 -->
<g id="edge9" class="edge"><title>Node6&#45;&gt;Node8</title>
<path fill="none" stroke="midnightblue" d="M453.347,-61.6673C381.493,-51.3489 213.627,-27.2428 139.856,-16.649"/>
<polygon fill="midnightblue" stroke="midnightblue" points="140.073,-13.1444 129.677,-15.1873 139.078,-20.0733 140.073,-13.1444"/>
</g>
<!-- Node9&#45;&gt;Node3 -->
<g id="edge13" class="edge"><title>Node9&#45;&gt;Node3</title>
<path fill="none" stroke="midnightblue" d="M413.597,-114.418C404.26,-106.267 390.347,-94.1201 379.175,-84.3669"/>
<polygon fill="midnightblue" stroke="midnightblue" points="381.464,-81.7194 371.629,-77.7795 376.861,-86.9927 381.464,-81.7194"/>
</g>
<!-- Node9&#45;&gt;Node6 -->
<g id="edge11" class="edge"><title>Node9&#45;&gt;Node6</title>
<path fill="none" stroke="midnightblue" d="M434.403,-114.418C443.74,-106.267 457.653,-94.1201 468.825,-84.3669"/>
<polygon fill="midnightblue" stroke="midnightblue" points="471.139,-86.9927 476.371,-77.7795 466.536,-81.7194 471.139,-86.9927"/>
</g>
<!-- Node9&#45;&gt;Node7 -->
<g id="edge12" class="edge"><title>Node9&#45;&gt;Node7</title>
<path fill="none" stroke="midnightblue" d="M422.369,-114.22C419.662,-100.707 413.279,-75.2413 401,-57 393.15,-45.3384 381.59,-34.8189 371.362,-26.8395"/>
<polygon fill="midnightblue" stroke="midnightblue" points="373.308,-23.9243 363.195,-20.765 369.13,-29.5412 373.308,-23.9243"/>
</g>
<!-- Node10&#45;&gt;Node11 -->
<g id="edge16" class="edge"><title>Node10&#45;&gt;Node11</title>
<path fill="none" stroke="midnightblue" d="M130.35,-285.418C111.143,-276.541 81.6837,-262.925 59.826,-252.823"/>
<polygon fill="midnightblue" stroke="midnightblue" points="61.2254,-249.614 50.6796,-248.596 58.2886,-255.968 61.2254,-249.614"/>
</g>
<!-- Node14 -->
<g id="node15" class="node"><title>Node14</title>
<polygon fill="none" stroke="#bfbfbf" points="80,-228.5 80,-248.5 220,-248.5 220,-228.5 80,-228.5"/>
<text text-anchor="middle" x="150" y="-235.7" font-family="Avenir-Book" font-size="11.00">llvm/Support/ErrorOr.h</text>
</g>
<!-- Node10&#45;&gt;Node14 -->
<g id="edge23" class="edge"><title>Node10&#45;&gt;Node14</title>
<path fill="none" stroke="midnightblue" d="M150,-285.418C150,-278.216 150,-267.896 150,-258.863"/>
<polygon fill="midnightblue" stroke="midnightblue" points="153.5,-258.779 150,-248.779 146.5,-258.779 153.5,-258.779"/>
</g>
<!-- Node11&#45;&gt;Node2 -->
<g id="edge17" class="edge"><title>Node11&#45;&gt;Node2</title>
<path fill="none" stroke="midnightblue" d="M62.3912,-229.794C65.2951,-229.157 68.198,-228.548 71,-228 150.927,-212.371 243.897,-198.783 303.774,-190.621"/>
<polygon fill="midnightblue" stroke="midnightblue" points="304.385,-194.07 313.824,-189.26 303.445,-187.134 304.385,-194.07"/>
</g>
<!-- Node11&#45;&gt;Node8 -->
<g id="edge22" class="edge"><title>Node11&#45;&gt;Node8</title>
<path fill="none" stroke="midnightblue" d="M33.4442,-228.424C36.9359,-215.583 43.6355,-191.403 50,-171 65.9723,-119.796 86.7864,-60.0626 97.2985,-30.3247"/>
<polygon fill="midnightblue" stroke="midnightblue" points="100.634,-31.3919 100.677,-20.7972 94.0361,-29.0523 100.634,-31.3919"/>
</g>
<!-- Node12 -->
<g id="node13" class="node"><title>Node12</title>
<g id="a_node13"><a xlink:href="Serializer_8hh.html" target="_top" xlink:title="Declaration of loom::Serializer. ">
<polygon fill="none" stroke="black" points="168.5,-171.5 168.5,-191.5 251.5,-191.5 251.5,-171.5 168.5,-171.5"/>
<text text-anchor="middle" x="210" y="-178.7" font-family="Avenir-Book" font-size="11.00">Serializer.hh</text>
</a>
</g>
</g>
<!-- Node11&#45;&gt;Node12 -->
<g id="edge18" class="edge"><title>Node11&#45;&gt;Node12</title>
<path fill="none" stroke="midnightblue" d="M60.5582,-228.418C90.7047,-219.155 137.643,-204.732 170.861,-194.526"/>
<polygon fill="midnightblue" stroke="midnightblue" points="172.164,-197.787 180.695,-191.504 170.108,-191.096 172.164,-197.787"/>
</g>
<!-- Node13 -->
<g id="node14" class="node"><title>Node13</title>
<polygon fill="none" stroke="#bfbfbf" points="59.5,-171.5 59.5,-191.5 106.5,-191.5 106.5,-171.5 59.5,-171.5"/>
<text text-anchor="middle" x="83" y="-178.7" font-family="Avenir-Book" font-size="11.00">string</text>
</g>
<!-- Node11&#45;&gt;Node13 -->
<g id="edge21" class="edge"><title>Node11&#45;&gt;Node13</title>
<path fill="none" stroke="midnightblue" d="M39.5867,-228.418C47.0688,-220.504 58.1116,-208.824 67.1872,-199.225"/>
<polygon fill="midnightblue" stroke="midnightblue" points="69.8998,-201.451 74.2267,-191.779 64.8133,-196.641 69.8998,-201.451"/>
</g>
<!-- Node12&#45;&gt;Node4 -->
<g id="edge19" class="edge"><title>Node12&#45;&gt;Node4</title>
<path fill="none" stroke="midnightblue" d="M219.743,-171.418C228.402,-163.346 241.264,-151.356 251.674,-141.652"/>
<polygon fill="midnightblue" stroke="midnightblue" points="254.118,-144.158 259.046,-134.779 249.344,-139.038 254.118,-144.158"/>
</g>
<!-- Node12&#45;&gt;Node7 -->
<g id="edge20" class="edge"><title>Node12&#45;&gt;Node7</title>
<path fill="none" stroke="midnightblue" d="M204.614,-171.34C197.524,-157.977 187.058,-132.696 197,-114 221.281,-68.34 275.971,-39.3497 312.687,-24.2622"/>
<polygon fill="midnightblue" stroke="midnightblue" points="314.057,-27.4845 322.066,-20.5485 311.479,-20.9762 314.057,-27.4845"/>
</g>
</g>
</svg>
