<?xml version="1.0" encoding="UTF-8" standalone="no"?>
<!DOCTYPE svg PUBLIC "-//W3C//DTD SVG 1.1//EN"
 "http://www.w3.org/Graphics/SVG/1.1/DTD/svg11.dtd">
<!-- Generated by graphviz version 2.38.0 (20140413.2041)
 -->
<!-- Title: src/Instrumenter.cc Pages: 1 -->
<svg width="752pt" height="485pt"
 viewBox="0.00 0.00 752.50 485.00" xmlns="http://www.w3.org/2000/svg" xmlns:xlink="http://www.w3.org/1999/xlink">
<g id="graph0" class="graph" transform="scale(1 1) rotate(0) translate(4 481)">
<title>src/Instrumenter.cc</title>
<!-- Node0 -->
<g id="node1" class="node"><title>Node0</title>
<polygon fill="#bfbfbf" stroke="black" points="509,-456.5 509,-476.5 632,-476.5 632,-456.5 509,-456.5"/>
<text text-anchor="middle" x="570.5" y="-463.7" font-family="Avenir-Book" font-size="11.00">src/Instrumenter.cc</text>
</g>
<!-- Node1 -->
<g id="node2" class="node"><title>Node1</title>
<g id="a_node2"><a xlink:href="Instrumenter_8hh.html" target="_top" xlink:title="Declaration of loom::Instrumenter. ">
<polygon fill="none" stroke="black" points="155.5,-399.5 155.5,-419.5 259.5,-419.5 259.5,-399.5 155.5,-399.5"/>
<text text-anchor="middle" x="207.5" y="-406.7" font-family="Avenir-Book" font-size="11.00">Instrumenter.hh</text>
</a>
</g>
</g>
<!-- Node0&#45;&gt;Node1 -->
<g id="edge1" class="edge"><title>Node0&#45;&gt;Node1</title>
<path fill="none" stroke="midnightblue" d="M510.964,-456.479C444.482,-446.406 337.366,-430.177 269.787,-419.937"/>
<polygon fill="midnightblue" stroke="midnightblue" points="270.114,-416.447 259.703,-418.409 269.065,-423.368 270.114,-416.447"/>
</g>
<!-- Node10 -->
<g id="node11" class="node"><title>Node10</title>
<g id="a_node11"><a xlink:href="Logger_8hh.html" target="_top" xlink:title="Declaration of loom::Logger. ">
<polygon fill="none" stroke="black" points="376,-114.5 376,-134.5 447,-134.5 447,-114.5 376,-114.5"/>
<text text-anchor="middle" x="411.5" y="-121.7" font-family="Avenir-Book" font-size="11.00">Logger.hh</text>
</a>
</g>
</g>
<!-- Node0&#45;&gt;Node10 -->
<g id="edge31" class="edge"><title>Node0&#45;&gt;Node10</title>
<path fill="none" stroke="midnightblue" d="M566.247,-456.406C544.915,-410.79 449.434,-206.617 420.1,-143.891"/>
<polygon fill="midnightblue" stroke="midnightblue" points="423.247,-142.357 415.841,-134.782 416.906,-145.323 423.247,-142.357"/>
</g>
<!-- Node18 -->
<g id="node19" class="node"><title>Node18</title>
<polygon fill="none" stroke="#bfbfbf" points="559,-399.5 559,-419.5 664,-419.5 664,-399.5 559,-399.5"/>
<text text-anchor="middle" x="611.5" y="-406.7" font-family="Avenir-Book" font-size="11.00">llvm/IR/Module.h</text>
</g>
<!-- Node0&#45;&gt;Node18 -->
<g id="edge32" class="edge"><title>Node0&#45;&gt;Node18</title>
<path fill="none" stroke="midnightblue" d="M577.27,-456.418C583.052,-448.662 591.529,-437.29 598.601,-427.803"/>
<polygon fill="midnightblue" stroke="midnightblue" points="601.412,-429.889 604.583,-419.779 595.8,-425.705 601.412,-429.889"/>
</g>
<!-- Node19 -->
<g id="node20" class="node"><title>Node19</title>
<polygon fill="none" stroke="#bfbfbf" points="682.5,-399.5 682.5,-419.5 744.5,-419.5 744.5,-399.5 682.5,-399.5"/>
<text text-anchor="middle" x="713.5" y="-406.7" font-family="Avenir-Book" font-size="11.00">sstream</text>
</g>
<!-- Node0&#45;&gt;Node19 -->
<g id="edge33" class="edge"><title>Node0&#45;&gt;Node19</title>
<path fill="none" stroke="midnightblue" d="M594.114,-456.418C617.608,-447.382 653.868,-433.435 680.265,-423.283"/>
<polygon fill="midnightblue" stroke="midnightblue" points="681.774,-426.452 689.851,-419.596 679.261,-419.919 681.774,-426.452"/>
</g>
<!-- Node2 -->
<g id="node3" class="node"><title>Node2</title>
<g id="a_node3"><a xlink:href="Instrumentation_8hh.html" target="_top" xlink:title="Declaration of loom::Instrumentation. ">
<polygon fill="none" stroke="black" points="314,-342.5 314,-362.5 435,-362.5 435,-342.5 314,-342.5"/>
<text text-anchor="middle" x="374.5" y="-349.7" font-family="Avenir-Book" font-size="11.00">Instrumentation.hh</text>
</a>
</g>
</g>
<!-- Node1&#45;&gt;Node2 -->
<g id="edge2" class="edge"><title>Node1&#45;&gt;Node2</title>
<path fill="none" stroke="midnightblue" d="M235.077,-399.418C263.081,-390.195 306.617,-375.857 337.583,-365.658"/>
<polygon fill="midnightblue" stroke="midnightblue" points="338.757,-368.957 347.16,-362.504 336.567,-362.308 338.757,-368.957"/>
</g>
<!-- Node12 -->
<g id="node13" class="node"><title>Node12</title>
<g id="a_node13"><a xlink:href="Policy_8hh.html" target="_top" xlink:title="Definition of loom::Policy. ">
<polygon fill="none" stroke="black" points="0.5,-228.5 0.5,-248.5 62.5,-248.5 62.5,-228.5 0.5,-228.5"/>
<text text-anchor="middle" x="31.5" y="-235.7" font-family="Avenir-Book" font-size="11.00">Policy.hh</text>
</a>
</g>
</g>
<!-- Node1&#45;&gt;Node12 -->
<g id="edge29" class="edge"><title>Node1&#45;&gt;Node12</title>
<path fill="none" stroke="midnightblue" d="M198.037,-399.414C169.627,-372.133 84.7904,-290.671 48.3914,-255.72"/>
<polygon fill="midnightblue" stroke="midnightblue" points="50.6466,-253.033 41.0093,-248.631 45.7982,-258.082 50.6466,-253.033"/>
</g>
<!-- Node17 -->
<g id="node18" class="node"><title>Node17</title>
<polygon fill="none" stroke="#bfbfbf" points="0,-342.5 0,-362.5 69,-362.5 69,-342.5 0,-342.5"/>
<text text-anchor="middle" x="34.5" y="-349.7" font-family="Avenir-Book" font-size="11.00">functional</text>
</g>
<!-- Node1&#45;&gt;Node17 -->
<g id="edge30" class="edge"><title>Node1&#45;&gt;Node17</title>
<path fill="none" stroke="midnightblue" d="M178.933,-399.418C149.922,-390.195 104.822,-375.857 72.7431,-365.658"/>
<polygon fill="midnightblue" stroke="midnightblue" points="73.4128,-362.199 62.8223,-362.504 71.2919,-368.87 73.4128,-362.199"/>
</g>
<!-- Node3 -->
<g id="node4" class="node"><title>Node3</title>
<g id="a_node4"><a xlink:href="InstrStrategy_8hh.html" target="_top" xlink:title="Declaration of loom::InstrStrategy. ">
<polygon fill="none" stroke="black" points="276.5,-171.5 276.5,-191.5 380.5,-191.5 380.5,-171.5 276.5,-171.5"/>
<text text-anchor="middle" x="328.5" y="-178.7" font-family="Avenir-Book" font-size="11.00">InstrStrategy.hh</text>
</a>
</g>
</g>
<!-- Node2&#45;&gt;Node3 -->
<g id="edge3" class="edge"><title>Node2&#45;&gt;Node3</title>
<path fill="none" stroke="midnightblue" d="M381.673,-342.101C390.552,-329.284 403.777,-305.564 397.5,-285 387.135,-251.043 361.332,-218.15 344.384,-199.139"/>
<polygon fill="midnightblue" stroke="midnightblue" points="346.859,-196.659 337.521,-191.653 341.699,-201.389 346.859,-196.659"/>
</g>
<!-- Node5 -->
<g id="node6" class="node"><title>Node5</title>
<polygon fill="none" stroke="#bfbfbf" points="118,-114.5 118,-134.5 243,-134.5 243,-114.5 118,-114.5"/>
<text text-anchor="middle" x="180.5" y="-121.7" font-family="Avenir-Book" font-size="11.00">llvm/ADT/ArrayRef.h</text>
</g>
<!-- Node2&#45;&gt;Node5 -->
<g id="edge25" class="edge"><title>Node2&#45;&gt;Node5</title>
<path fill="none" stroke="midnightblue" d="M333.988,-342.484C311.846,-335.721 285.372,-324.379 267.5,-306 222.563,-259.788 245.85,-227.321 214.5,-171 208.947,-161.024 201.462,-150.765 194.929,-142.519"/>
<polygon fill="midnightblue" stroke="midnightblue" points="197.622,-140.283 188.586,-134.751 192.2,-144.711 197.622,-140.283"/>
</g>
<!-- Node6 -->
<g id="node7" class="node"><title>Node6</title>
<polygon fill="none" stroke="#bfbfbf" points="271.5,-0.5 271.5,-20.5 399.5,-20.5 399.5,-0.5 271.5,-0.5"/>
<text text-anchor="middle" x="335.5" y="-7.7" font-family="Avenir-Book" font-size="11.00">llvm/ADT/StringRef.h</text>
</g>
<!-- Node2&#45;&gt;Node6 -->
<g id="edge26" class="edge"><title>Node2&#45;&gt;Node6</title>
<path fill="none" stroke="midnightblue" d="M389.615,-342.47C427.771,-318.381 523.765,-249.088 506.5,-171 494.438,-116.443 494.314,-95.1606 453.5,-57 436.324,-40.9402 412.867,-30.3544 391.39,-23.4732"/>
<polygon fill="midnightblue" stroke="midnightblue" points="392.276,-20.0848 381.692,-20.5659 390.266,-26.79 392.276,-20.0848"/>
</g>
<!-- Node7 -->
<g id="node8" class="node"><title>Node7</title>
<g id="a_node8"><a xlink:href="IRUtils_8hh.html" target="_top" xlink:title="Declarations of LLVM IR utility functions. ">
<polygon fill="none" stroke="black" points="378,-57.5 378,-77.5 445,-77.5 445,-57.5 378,-57.5"/>
<text text-anchor="middle" x="411.5" y="-64.7" font-family="Avenir-Book" font-size="11.00">IRUtils.hh</text>
</a>
</g>
</g>
<!-- Node2&#45;&gt;Node7 -->
<g id="edge15" class="edge"><title>Node2&#45;&gt;Node7</title>
<path fill="none" stroke="midnightblue" d="M384.365,-342.313C393.016,-333.72 405.307,-320.123 412.5,-306 448.067,-236.17 445.871,-212.772 455.5,-135 456.647,-125.737 458.999,-122.653 455.5,-114 450.768,-102.301 441.427,-91.9414 432.564,-84.0742"/>
<polygon fill="midnightblue" stroke="midnightblue" points="434.644,-81.2528 424.705,-77.583 430.187,-86.6499 434.644,-81.2528"/>
</g>
<!-- Node8 -->
<g id="node9" class="node"><title>Node8</title>
<polygon fill="none" stroke="#bfbfbf" points="417.5,-0.5 417.5,-20.5 529.5,-20.5 529.5,-0.5 417.5,-0.5"/>
<text text-anchor="middle" x="473.5" y="-7.7" font-family="Avenir-Book" font-size="11.00">llvm/IR/IRBuilder.h</text>
</g>
<!-- Node2&#45;&gt;Node8 -->
<g id="edge28" class="edge"><title>Node2&#45;&gt;Node8</title>
<path fill="none" stroke="midnightblue" d="M389.888,-342.391C402.533,-334.234 420.152,-321.231 431.5,-306 447.821,-284.094 446.987,-275.265 454.5,-249 475.589,-175.272 473.149,-154.561 477.5,-78 478.404,-62.1025 477.178,-44.0714 475.853,-30.7992"/>
<polygon fill="midnightblue" stroke="midnightblue" points="479.295,-30.0867 474.713,-20.5341 472.338,-30.8593 479.295,-30.0867"/>
</g>
<!-- Node11 -->
<g id="node12" class="node"><title>Node11</title>
<g id="a_node12"><a xlink:href="PolicyFile_8hh.html" target="_top" xlink:title="Declaration of loom::PolicyFile. ">
<polygon fill="none" stroke="black" points="125.5,-285.5 125.5,-305.5 205.5,-305.5 205.5,-285.5 125.5,-285.5"/>
<text text-anchor="middle" x="165.5" y="-292.7" font-family="Avenir-Book" font-size="11.00">PolicyFile.hh</text>
</a>
</g>
</g>
<!-- Node2&#45;&gt;Node11 -->
<g id="edge16" class="edge"><title>Node2&#45;&gt;Node11</title>
<path fill="none" stroke="midnightblue" d="M339.988,-342.418C304.334,-333.035 248.563,-318.359 209.702,-308.132"/>
<polygon fill="midnightblue" stroke="midnightblue" points="210.277,-304.664 199.716,-305.504 208.496,-311.434 210.277,-304.664"/>
</g>
<!-- Node16 -->
<g id="node17" class="node"><title>Node16</title>
<polygon fill="none" stroke="#bfbfbf" points="276.5,-285.5 276.5,-305.5 388.5,-305.5 388.5,-285.5 276.5,-285.5"/>
<text text-anchor="middle" x="332.5" y="-292.7" font-family="Avenir-Book" font-size="11.00">llvm/IR/Function.h</text>
</g>
<!-- Node2&#45;&gt;Node16 -->
<g id="edge27" class="edge"><title>Node2&#45;&gt;Node16</title>
<path fill="none" stroke="midnightblue" d="M367.565,-342.418C361.642,-334.662 352.958,-323.29 345.714,-313.803"/>
<polygon fill="midnightblue" stroke="midnightblue" points="348.437,-311.603 339.586,-305.779 342.874,-315.851 348.437,-311.603"/>
</g>
<!-- Node4 -->
<g id="node5" class="node"><title>Node4</title>
<polygon fill="none" stroke="#bfbfbf" points="297,-57.5 297,-77.5 360,-77.5 360,-57.5 297,-57.5"/>
<text text-anchor="middle" x="328.5" y="-64.7" font-family="Avenir-Book" font-size="11.00">memory</text>
</g>
<!-- Node3&#45;&gt;Node4 -->
<g id="edge4" class="edge"><title>Node3&#45;&gt;Node4</title>
<path fill="none" stroke="midnightblue" d="M328.5,-171.335C328.5,-153.204 328.5,-112.407 328.5,-87.9997"/>
<polygon fill="midnightblue" stroke="midnightblue" points="332,-87.792 328.5,-77.7921 325,-87.7921 332,-87.792"/>
</g>
<!-- Node3&#45;&gt;Node5 -->
<g id="edge5" class="edge"><title>Node3&#45;&gt;Node5</title>
<path fill="none" stroke="midnightblue" d="M304.061,-171.418C279.638,-162.342 241.886,-148.312 214.537,-138.149"/>
<polygon fill="midnightblue" stroke="midnightblue" points="215.568,-134.798 204.975,-134.596 213.13,-141.36 215.568,-134.798"/>
</g>
<!-- Node3&#45;&gt;Node6 -->
<g id="edge6" class="edge"><title>Node3&#45;&gt;Node6</title>
<path fill="none" stroke="midnightblue" d="M320.911,-171.315C304.716,-150.539 269.653,-98.5091 287.5,-57 292.692,-44.9252 302.838,-34.5515 312.469,-26.772"/>
<polygon fill="midnightblue" stroke="midnightblue" points="314.764,-29.426 320.663,-20.6256 310.563,-23.8262 314.764,-29.426"/>
</g>
<!-- Node3&#45;&gt;Node7 -->
<g id="edge7" class="edge"><title>Node3&#45;&gt;Node7</title>
<path fill="none" stroke="midnightblue" d="M332.731,-171.437C339.118,-158.194 352.024,-133.061 366.5,-114 374.525,-103.432 384.857,-92.8214 393.597,-84.5078"/>
<polygon fill="midnightblue" stroke="midnightblue" points="396.109,-86.9512 401.063,-77.5859 391.35,-81.8178 396.109,-86.9512"/>
</g>
<!-- Node3&#45;&gt;Node10 -->
<g id="edge11" class="edge"><title>Node3&#45;&gt;Node10</title>
<path fill="none" stroke="midnightblue" d="M342.206,-171.418C354.941,-162.979 374.139,-150.257 389.101,-140.343"/>
<polygon fill="midnightblue" stroke="midnightblue" points="391.371,-143.037 397.774,-134.596 387.505,-137.202 391.371,-143.037"/>
</g>
<!-- Node7&#45;&gt;Node6 -->
<g id="edge8" class="edge"><title>Node7&#45;&gt;Node6</title>
<path fill="none" stroke="midnightblue" d="M398.95,-57.4179C387.399,-49.0584 370.041,-36.4966 356.398,-26.6239"/>
<polygon fill="midnightblue" stroke="midnightblue" points="358.222,-23.6229 348.068,-20.5956 354.118,-29.2938 358.222,-23.6229"/>
</g>
<!-- Node7&#45;&gt;Node8 -->
<g id="edge9" class="edge"><title>Node7&#45;&gt;Node8</title>
<path fill="none" stroke="midnightblue" d="M421.738,-57.4179C430.837,-49.3458 444.354,-37.3556 455.293,-27.6517"/>
<polygon fill="midnightblue" stroke="midnightblue" points="457.881,-30.0339 463.04,-20.7795 453.236,-24.7974 457.881,-30.0339"/>
</g>
<!-- Node9 -->
<g id="node10" class="node"><title>Node9</title>
<polygon fill="none" stroke="#bfbfbf" points="103,-0.5 103,-20.5 154,-20.5 154,-0.5 103,-0.5"/>
<text text-anchor="middle" x="128.5" y="-7.7" font-family="Avenir-Book" font-size="11.00">vector</text>
</g>
<!-- Node7&#45;&gt;Node9 -->
<g id="edge10" class="edge"><title>Node7&#45;&gt;Node9</title>
<path fill="none" stroke="midnightblue" d="M377.719,-58.9363C374.605,-58.2693 371.496,-57.6147 368.5,-57 296.083,-42.1395 211.01,-26.4204 164.092,-17.9021"/>
<polygon fill="midnightblue" stroke="midnightblue" points="164.587,-14.4349 154.124,-16.0964 163.34,-21.3228 164.587,-14.4349"/>
</g>
<!-- Node10&#45;&gt;Node4 -->
<g id="edge14" class="edge"><title>Node10&#45;&gt;Node4</title>
<path fill="none" stroke="midnightblue" d="M397.794,-114.418C385.059,-105.979 365.861,-93.257 350.899,-83.3426"/>
<polygon fill="midnightblue" stroke="midnightblue" points="352.495,-80.2019 342.226,-77.5956 348.629,-86.037 352.495,-80.2019"/>
</g>
<!-- Node10&#45;&gt;Node7 -->
<g id="edge12" class="edge"><title>Node10&#45;&gt;Node7</title>
<path fill="none" stroke="midnightblue" d="M411.5,-114.418C411.5,-107.216 411.5,-96.8962 411.5,-87.8632"/>
<polygon fill="midnightblue" stroke="midnightblue" points="415,-87.7794 411.5,-77.7795 408,-87.7795 415,-87.7794"/>
</g>
<!-- Node10&#45;&gt;Node8 -->
<g id="edge13" class="edge"><title>Node10&#45;&gt;Node8</title>
<path fill="none" stroke="midnightblue" d="M422.28,-114.433C431.76,-105.922 445.291,-92.3771 453.5,-78 461.99,-63.1298 467.216,-44.2902 470.186,-30.463"/>
<polygon fill="midnightblue" stroke="midnightblue" points="473.626,-31.1049 472.103,-20.6201 466.756,-29.7662 473.626,-31.1049"/>
</g>
<!-- Node11&#45;&gt;Node12 -->
<g id="edge17" class="edge"><title>Node11&#45;&gt;Node12</title>
<path fill="none" stroke="midnightblue" d="M143.373,-285.418C121.454,-276.421 87.6778,-262.558 62.9709,-252.417"/>
<polygon fill="midnightblue" stroke="midnightblue" points="64.2403,-249.155 53.6602,-248.596 61.5823,-255.631 64.2403,-249.155"/>
</g>
<!-- Node15 -->
<g id="node16" class="node"><title>Node15</title>
<polygon fill="none" stroke="#bfbfbf" points="80.5,-228.5 80.5,-248.5 220.5,-248.5 220.5,-228.5 80.5,-228.5"/>
<text text-anchor="middle" x="150.5" y="-235.7" font-family="Avenir-Book" font-size="11.00">llvm/Support/ErrorOr.h</text>
</g>
<!-- Node11&#45;&gt;Node15 -->
<g id="edge24" class="edge"><title>Node11&#45;&gt;Node15</title>
<path fill="none" stroke="midnightblue" d="M163.023,-285.418C161.037,-278.137 158.182,-267.669 155.7,-258.566"/>
<polygon fill="midnightblue" stroke="midnightblue" points="159.039,-257.506 153.031,-248.779 152.285,-259.348 159.039,-257.506"/>
</g>
<!-- Node12&#45;&gt;Node3 -->
<g id="edge18" class="edge"><title>Node12&#45;&gt;Node3</title>
<path fill="none" stroke="midnightblue" d="M62.9045,-229.86C65.8057,-229.209 68.7043,-228.579 71.5,-228 137.64,-214.303 213.891,-201.13 266.054,-192.515"/>
<polygon fill="midnightblue" stroke="midnightblue" points="266.856,-195.931 276.155,-190.854 265.72,-189.023 266.856,-195.931"/>
</g>
<!-- Node12&#45;&gt;Node9 -->
<g id="edge23" class="edge"><title>Node12&#45;&gt;Node9</title>
<path fill="none" stroke="midnightblue" d="M33.2052,-228.275C35.757,-215.258 41.0757,-190.869 48.5,-171 68.4811,-117.525 101.148,-58.3916 117.884,-29.4532"/>
<polygon fill="midnightblue" stroke="midnightblue" points="121.072,-30.9356 123.093,-20.5354 115.027,-27.4051 121.072,-30.9356"/>
</g>
<!-- Node13 -->
<g id="node14" class="node"><title>Node13</title>
<g id="a_node14"><a xlink:href="Serializer_8hh.html" target="_top" xlink:title="Declaration of loom::Serializer. ">
<polygon fill="none" stroke="black" points="123,-171.5 123,-191.5 206,-191.5 206,-171.5 123,-171.5"/>
<text text-anchor="middle" x="164.5" y="-178.7" font-family="Avenir-Book" font-size="11.00">Serializer.hh</text>
</a>
</g>
</g>
<!-- Node12&#45;&gt;Node13 -->
<g id="edge19" class="edge"><title>Node12&#45;&gt;Node13</title>
<path fill="none" stroke="midnightblue" d="M53.4622,-228.418C75.2172,-219.421 108.741,-205.558 133.264,-195.417"/>
<polygon fill="midnightblue" stroke="midnightblue" points="134.602,-198.652 142.505,-191.596 131.927,-192.183 134.602,-198.652"/>
</g>
<!-- Node14 -->
<g id="node15" class="node"><title>Node14</title>
<polygon fill="none" stroke="#bfbfbf" points="58,-171.5 58,-191.5 105,-191.5 105,-171.5 58,-171.5"/>
<text text-anchor="middle" x="81.5" y="-178.7" font-family="Avenir-Book" font-size="11.00">string</text>
</g>
<!-- Node12&#45;&gt;Node14 -->
<g id="edge22" class="edge"><title>Node12&#45;&gt;Node14</title>
<path fill="none" stroke="midnightblue" d="M39.7565,-228.418C46.9508,-220.504 57.5688,-208.824 66.2954,-199.225"/>
<polygon fill="midnightblue" stroke="midnightblue" points="68.9272,-201.533 73.0641,-191.779 63.7476,-196.825 68.9272,-201.533"/>
</g>
<!-- Node13&#45;&gt;Node5 -->
<g id="edge20" class="edge"><title>Node13&#45;&gt;Node5</title>
<path fill="none" stroke="midnightblue" d="M167.142,-171.418C169.26,-164.137 172.305,-153.669 174.954,-144.566"/>
<polygon fill="midnightblue" stroke="midnightblue" points="178.368,-145.359 177.801,-134.779 171.646,-143.404 178.368,-145.359"/>
</g>
<!-- Node13&#45;&gt;Node8 -->
<g id="edge21" class="edge"><title>Node13&#45;&gt;Node8</title>
<path fill="none" stroke="midnightblue" d="M146.919,-171.359C125.17,-158.835 92.8227,-135.445 108.5,-114 127.164,-88.4689 323.54,-43.4986 420.264,-22.6689"/>
<polygon fill="midnightblue" stroke="midnightblue" points="421.103,-26.0688 430.147,-20.5501 419.635,-19.2244 421.103,-26.0688"/>
</g>
</g>
</svg>
