<?xml version="1.0" encoding="UTF-8" standalone="no"?>
<!DOCTYPE svg PUBLIC "-//W3C//DTD SVG 1.1//EN"
 "http://www.w3.org/Graphics/SVG/1.1/DTD/svg11.dtd">
<!-- Generated by graphviz version 2.38.0 (20140413.2041)
 -->
<!-- Title: src/InstrStrategy.hh Pages: 1 -->
<svg width="597pt" height="314pt"
 viewBox="0.00 0.00 597.00 314.00" xmlns="http://www.w3.org/2000/svg" xmlns:xlink="http://www.w3.org/1999/xlink">
<g id="graph0" class="graph" transform="scale(1 1) rotate(0) translate(4 310)">
<title>src/InstrStrategy.hh</title>
<!-- Node8 -->
<g id="node1" class="node"><title>Node8</title>
<polygon fill="#bfbfbf" stroke="black" points="174,-285.5 174,-305.5 298,-305.5 298,-285.5 174,-285.5"/>
<text text-anchor="middle" x="236" y="-292.7" font-family="Avenir-Book" font-size="11.00">src/InstrStrategy.hh</text>
</g>
<!-- Node9 -->
<g id="node2" class="node"><title>Node9</title>
<g id="a_node2"><a xlink:href="Instrumentation_8hh.html" target="_top" xlink:title="Declaration of loom::Instrumentation. ">
<polygon fill="none" stroke="black" points="165.5,-114.5 165.5,-134.5 306.5,-134.5 306.5,-114.5 165.5,-114.5"/>
<text text-anchor="middle" x="236" y="-121.7" font-family="Avenir-Book" font-size="11.00">src/Instrumentation.hh</text>
</a>
</g>
</g>
<!-- Node8&#45;&gt;Node9 -->
<g id="edge1" class="edge"><title>Node8&#45;&gt;Node9</title>
<path fill="none" stroke="midnightblue" d="M236,-275.14C236,-238.692 236,-161.167 236,-134.631"/>
<polygon fill="midnightblue" stroke="midnightblue" points="232.5,-275.414 236,-285.414 239.5,-275.414 232.5,-275.414"/>
</g>
<!-- Node10 -->
<g id="node3" class="node"><title>Node10</title>
<g id="a_node3"><a xlink:href="InstrStrategy_8cc.html" target="_top" xlink:title="Definition of loom::InstrStrategy. ">
<polygon fill="none" stroke="black" points="0,-57.5 0,-77.5 122,-77.5 122,-57.5 0,-57.5"/>
<text text-anchor="middle" x="61" y="-64.7" font-family="Avenir-Book" font-size="11.00">src/InstrStrategy.cc</text>
</a>
</g>
</g>
<!-- Node8&#45;&gt;Node10 -->
<g id="edge14" class="edge"><title>Node8&#45;&gt;Node10</title>
<path fill="none" stroke="midnightblue" d="M222.766,-277.41C187.882,-232.359 94.2946,-111.498 67.9733,-77.5055"/>
<polygon fill="midnightblue" stroke="midnightblue" points="220.033,-279.597 228.923,-285.361 225.568,-275.311 220.033,-279.597"/>
</g>
<!-- Node15 -->
<g id="node8" class="node"><title>Node15</title>
<g id="a_node8"><a xlink:href="Policy_8hh.html" target="_top" xlink:title="Definition of loom::Policy. ">
<polygon fill="none" stroke="black" points="359,-228.5 359,-248.5 441,-248.5 441,-228.5 359,-228.5"/>
<text text-anchor="middle" x="400" y="-235.7" font-family="Avenir-Book" font-size="11.00">src/Policy.hh</text>
</a>
</g>
</g>
<!-- Node8&#45;&gt;Node15 -->
<g id="edge7" class="edge"><title>Node8&#45;&gt;Node15</title>
<path fill="none" stroke="midnightblue" d="M272.908,-282.122C303.36,-271.91 345.855,-257.658 373.151,-248.504"/>
<polygon fill="midnightblue" stroke="midnightblue" points="271.449,-278.92 263.081,-285.418 273.675,-285.557 271.449,-278.92"/>
</g>
<!-- Node9&#45;&gt;Node10 -->
<g id="edge2" class="edge"><title>Node9&#45;&gt;Node10</title>
<path fill="none" stroke="midnightblue" d="M197.462,-111.388C164.911,-101.158 119.03,-86.7381 89.6498,-77.5042"/>
<polygon fill="midnightblue" stroke="midnightblue" points="196.513,-114.759 207.102,-114.418 198.612,-108.081 196.513,-114.759"/>
</g>
<!-- Node11 -->
<g id="node4" class="node"><title>Node11</title>
<g id="a_node4"><a xlink:href="Instrumentation_8cc.html" target="_top" xlink:title="Definition of loom::Instrumentation. ">
<polygon fill="none" stroke="black" points="140,-57.5 140,-77.5 280,-77.5 280,-57.5 140,-57.5"/>
<text text-anchor="middle" x="210" y="-64.7" font-family="Avenir-Book" font-size="11.00">src/Instrumentation.cc</text>
</a>
</g>
</g>
<!-- Node9&#45;&gt;Node11 -->
<g id="edge3" class="edge"><title>Node9&#45;&gt;Node11</title>
<path fill="none" stroke="midnightblue" d="M227.382,-105.27C223.028,-96.0587 217.931,-85.2766 214.387,-77.7795"/>
<polygon fill="midnightblue" stroke="midnightblue" points="224.269,-106.873 231.707,-114.418 230.597,-103.881 224.269,-106.873"/>
</g>
<!-- Node12 -->
<g id="node5" class="node"><title>Node12</title>
<g id="a_node5"><a xlink:href="Instrumenter_8hh.html" target="_top" xlink:title="Declaration of loom::Instrumenter. ">
<polygon fill="none" stroke="black" points="298.5,-57.5 298.5,-77.5 423.5,-77.5 423.5,-57.5 298.5,-57.5"/>
<text text-anchor="middle" x="361" y="-64.7" font-family="Avenir-Book" font-size="11.00">src/Instrumenter.hh</text>
</a>
</g>
</g>
<!-- Node9&#45;&gt;Node12 -->
<g id="edge4" class="edge"><title>Node9&#45;&gt;Node12</title>
<path fill="none" stroke="midnightblue" d="M265.936,-110.328C288.918,-100.216 320.052,-86.5172 340.328,-77.5956"/>
<polygon fill="midnightblue" stroke="midnightblue" points="264.385,-107.187 256.641,-114.418 267.204,-113.594 264.385,-107.187"/>
</g>
<!-- Node13 -->
<g id="node6" class="node"><title>Node13</title>
<g id="a_node6"><a xlink:href="Instrumenter_8cc.html" target="_top" xlink:title="Definition of loom::Instrumenter. ">
<polygon fill="none" stroke="black" points="261.5,-0.5 261.5,-20.5 384.5,-20.5 384.5,-0.5 261.5,-0.5"/>
<text text-anchor="middle" x="323" y="-7.7" font-family="Avenir-Book" font-size="11.00">src/Instrumenter.cc</text>
</a>
</g>
</g>
<!-- Node12&#45;&gt;Node13 -->
<g id="edge5" class="edge"><title>Node12&#45;&gt;Node13</title>
<path fill="none" stroke="midnightblue" d="M349.01,-49.1465C342.518,-39.7503 334.756,-28.5159 329.411,-20.7795"/>
<polygon fill="midnightblue" stroke="midnightblue" points="346.161,-51.1801 354.725,-57.4179 351.92,-47.201 346.161,-51.1801"/>
</g>
<!-- Node14 -->
<g id="node7" class="node"><title>Node14</title>
<g id="a_node7"><a xlink:href="OptPass_8cc.html" target="_top" xlink:title="Definition of Loom&#39;s LLVM opt pass. ">
<polygon fill="none" stroke="black" points="403,-0.5 403,-20.5 501,-20.5 501,-0.5 403,-0.5"/>
<text text-anchor="middle" x="452" y="-7.7" font-family="Avenir-Book" font-size="11.00">src/OptPass.cc</text>
</a>
</g>
</g>
<!-- Node12&#45;&gt;Node14 -->
<g id="edge6" class="edge"><title>Node12&#45;&gt;Node14</title>
<path fill="none" stroke="midnightblue" d="M384.608,-52.2313C401.134,-42.2435 422.717,-29.1986 436.951,-20.5956"/>
<polygon fill="midnightblue" stroke="midnightblue" points="382.775,-49.2498 376.027,-57.4179 386.396,-55.2406 382.775,-49.2498"/>
</g>
<!-- Node15&#45;&gt;Node12 -->
<g id="edge12" class="edge"><title>Node15&#45;&gt;Node12</title>
<path fill="none" stroke="midnightblue" d="M390.607,-219.116C386.801,-210.988 382.68,-201.204 380,-192 367.868,-150.344 363.096,-98.3971 361.588,-77.6636"/>
<polygon fill="midnightblue" stroke="midnightblue" points="387.589,-220.912 395.127,-228.356 393.877,-217.835 387.589,-220.912"/>
</g>
<!-- Node16 -->
<g id="node9" class="node"><title>Node16</title>
<g id="a_node9"><a xlink:href="PolicyFile_8hh.html" target="_top" xlink:title="Declaration of loom::PolicyFile. ">
<polygon fill="none" stroke="black" points="389.5,-171.5 389.5,-191.5 490.5,-191.5 490.5,-171.5 389.5,-171.5"/>
<text text-anchor="middle" x="440" y="-178.7" font-family="Avenir-Book" font-size="11.00">src/PolicyFile.hh</text>
</a>
</g>
</g>
<!-- Node15&#45;&gt;Node16 -->
<g id="edge8" class="edge"><title>Node15&#45;&gt;Node16</title>
<path fill="none" stroke="midnightblue" d="M412.621,-220.147C419.454,-210.75 427.625,-199.516 433.251,-191.779"/>
<polygon fill="midnightblue" stroke="midnightblue" points="409.656,-218.272 406.605,-228.418 415.318,-222.389 409.656,-218.272"/>
</g>
<!-- Node18 -->
<g id="node11" class="node"><title>Node18</title>
<g id="a_node11"><a xlink:href="Policy_8cc.html" target="_top" xlink:title="Definition of loom::Policy. ">
<polygon fill="none" stroke="black" points="509,-171.5 509,-191.5 589,-191.5 589,-171.5 509,-171.5"/>
<text text-anchor="middle" x="549" y="-178.7" font-family="Avenir-Book" font-size="11.00">src/Policy.cc</text>
</a>
</g>
</g>
<!-- Node15&#45;&gt;Node18 -->
<g id="edge13" class="edge"><title>Node15&#45;&gt;Node18</title>
<path fill="none" stroke="midnightblue" d="M434.226,-224.866C461.749,-214.707 499.758,-200.677 524.359,-191.596"/>
<polygon fill="midnightblue" stroke="midnightblue" points="432.774,-221.671 424.604,-228.418 435.198,-228.238 432.774,-221.671"/>
</g>
<!-- Node16&#45;&gt;Node9 -->
<g id="edge9" class="edge"><title>Node16&#45;&gt;Node9</title>
<path fill="none" stroke="midnightblue" d="M396.539,-168.783C358.517,-158.532 304.089,-143.857 269.397,-134.504"/>
<polygon fill="midnightblue" stroke="midnightblue" points="395.747,-172.194 406.314,-171.418 397.569,-165.435 395.747,-172.194"/>
</g>
<!-- Node16&#45;&gt;Node14 -->
<g id="edge10" class="edge"><title>Node16&#45;&gt;Node14</title>
<path fill="none" stroke="midnightblue" d="M441.375,-161.14C443.963,-124.692 449.467,-47.1671 451.352,-20.6311"/>
<polygon fill="midnightblue" stroke="midnightblue" points="437.862,-161.191 440.645,-171.414 444.845,-161.687 437.862,-161.191"/>
</g>
<!-- Node17 -->
<g id="node10" class="node"><title>Node17</title>
<g id="a_node10"><a xlink:href="PolicyFile_8cc.html" target="_top" xlink:title="Definition of loom::PolicyFile. ">
<polygon fill="none" stroke="black" points="480.5,-114.5 480.5,-134.5 579.5,-134.5 579.5,-114.5 480.5,-114.5"/>
<text text-anchor="middle" x="530" y="-121.7" font-family="Avenir-Book" font-size="11.00">src/PolicyFile.cc</text>
</a>
</g>
</g>
<!-- Node16&#45;&gt;Node17 -->
<g id="edge11" class="edge"><title>Node16&#45;&gt;Node17</title>
<path fill="none" stroke="midnightblue" d="M463.804,-165.953C480.087,-156.002 501.169,-143.119 515.116,-134.596"/>
<polygon fill="midnightblue" stroke="midnightblue" points="461.569,-163.217 454.862,-171.418 465.22,-169.19 461.569,-163.217"/>
</g>
</g>
</svg>
