<?xml version="1.0" encoding="UTF-8" standalone="no"?>
<!DOCTYPE svg PUBLIC "-//W3C//DTD SVG 1.1//EN"
 "http://www.w3.org/Graphics/SVG/1.1/DTD/svg11.dtd">
<!-- Generated by graphviz version 2.38.0 (20140413.2041)
 -->
<!-- Title: src/Instrumentation.hh Pages: 1 -->
<svg width="482pt" height="143pt"
 viewBox="0.00 0.00 482.00 143.00" xmlns="http://www.w3.org/2000/svg" xmlns:xlink="http://www.w3.org/1999/xlink">
<g id="graph0" class="graph" transform="scale(1 1) rotate(0) translate(4 139)">
<title>src/Instrumentation.hh</title>
<!-- Node15 -->
<g id="node1" class="node"><title>Node15</title>
<polygon fill="#bfbfbf" stroke="black" points="139.5,-114.5 139.5,-134.5 280.5,-134.5 280.5,-114.5 139.5,-114.5"/>
<text text-anchor="middle" x="210" y="-121.7" font-family="Avenir-Book" font-size="11.00">src/Instrumentation.hh</text>
</g>
<!-- Node16 -->
<g id="node2" class="node"><title>Node16</title>
<g id="a_node2"><a xlink:href="InstrStrategy_8cc.html" target="_top" xlink:title="Definition of loom::InstrStrategy. ">
<polygon fill="none" stroke="black" points="0,-57.5 0,-77.5 122,-77.5 122,-57.5 0,-57.5"/>
<text text-anchor="middle" x="61" y="-64.7" font-family="Avenir-Book" font-size="11.00">src/InstrStrategy.cc</text>
</a>
</g>
</g>
<!-- Node15&#45;&gt;Node16 -->
<g id="edge1" class="edge"><title>Node15&#45;&gt;Node16</title>
<path fill="none" stroke="midnightblue" d="M175.774,-110.866C148.251,-100.707 110.242,-86.6765 85.6409,-77.5956"/>
<polygon fill="midnightblue" stroke="midnightblue" points="174.802,-114.238 185.396,-114.418 177.226,-107.671 174.802,-114.238"/>
</g>
<!-- Node17 -->
<g id="node3" class="node"><title>Node17</title>
<g id="a_node3"><a xlink:href="Instrumentation_8cc.html" target="_top" xlink:title="Definition of loom::Instrumentation. ">
<polygon fill="none" stroke="black" points="140,-57.5 140,-77.5 280,-77.5 280,-57.5 140,-57.5"/>
<text text-anchor="middle" x="210" y="-64.7" font-family="Avenir-Book" font-size="11.00">src/Instrumentation.cc</text>
</a>
</g>
</g>
<!-- Node15&#45;&gt;Node17 -->
<g id="edge2" class="edge"><title>Node15&#45;&gt;Node17</title>
<path fill="none" stroke="midnightblue" d="M210,-104.383C210,-95.3738 210,-85.0373 210,-77.7795"/>
<polygon fill="midnightblue" stroke="midnightblue" points="206.5,-104.418 210,-114.418 213.5,-104.418 206.5,-104.418"/>
</g>
<!-- Node18 -->
<g id="node4" class="node"><title>Node18</title>
<g id="a_node4"><a xlink:href="Instrumenter_8hh.html" target="_top" xlink:title="Declaration of loom::Instrumenter. ">
<polygon fill="none" stroke="black" points="298.5,-57.5 298.5,-77.5 423.5,-77.5 423.5,-57.5 298.5,-57.5"/>
<text text-anchor="middle" x="361" y="-64.7" font-family="Avenir-Book" font-size="11.00">src/Instrumenter.hh</text>
</a>
</g>
</g>
<!-- Node15&#45;&gt;Node18 -->
<g id="edge3" class="edge"><title>Node15&#45;&gt;Node18</title>
<path fill="none" stroke="midnightblue" d="M244.348,-110.989C272.361,-100.786 311.256,-86.6186 336.279,-77.5042"/>
<polygon fill="midnightblue" stroke="midnightblue" points="243.133,-107.707 234.935,-114.418 245.529,-114.284 243.133,-107.707"/>
</g>
<!-- Node19 -->
<g id="node5" class="node"><title>Node19</title>
<g id="a_node5"><a xlink:href="Instrumenter_8cc.html" target="_top" xlink:title="Definition of loom::Instrumenter. ">
<polygon fill="none" stroke="black" points="234.5,-0.5 234.5,-20.5 357.5,-20.5 357.5,-0.5 234.5,-0.5"/>
<text text-anchor="middle" x="296" y="-7.7" font-family="Avenir-Book" font-size="11.00">src/Instrumenter.cc</text>
</a>
</g>
</g>
<!-- Node18&#45;&gt;Node19 -->
<g id="edge4" class="edge"><title>Node18&#45;&gt;Node19</title>
<path fill="none" stroke="midnightblue" d="M342.526,-50.8678C331.045,-41.1535 316.675,-28.9944 306.967,-20.7795"/>
<polygon fill="midnightblue" stroke="midnightblue" points="340.372,-53.6303 350.267,-57.4179 344.893,-48.2866 340.372,-53.6303"/>
</g>
<!-- Node20 -->
<g id="node6" class="node"><title>Node20</title>
<g id="a_node6"><a xlink:href="OptPass_8cc.html" target="_top" xlink:title="Definition of Loom&#39;s LLVM opt pass. ">
<polygon fill="none" stroke="black" points="376,-0.5 376,-20.5 474,-20.5 474,-0.5 376,-0.5"/>
<text text-anchor="middle" x="425" y="-7.7" font-family="Avenir-Book" font-size="11.00">src/OptPass.cc</text>
</a>
</g>
</g>
<!-- Node18&#45;&gt;Node20 -->
<g id="edge5" class="edge"><title>Node18&#45;&gt;Node20</title>
<path fill="none" stroke="midnightblue" d="M379.19,-50.8678C390.494,-41.1535 404.643,-28.9944 414.202,-20.7795"/>
<polygon fill="midnightblue" stroke="midnightblue" points="376.871,-48.2457 371.568,-57.4179 381.434,-53.5546 376.871,-48.2457"/>
</g>
</g>
</svg>
