<?xml version="1.0" encoding="UTF-8" standalone="no"?>
<!DOCTYPE svg PUBLIC "-//W3C//DTD SVG 1.1//EN"
 "http://www.w3.org/Graphics/SVG/1.1/DTD/svg11.dtd">
<!-- Generated by graphviz version 2.38.0 (20140413.2041)
 -->
<!-- Title: src/Instrumenter.hh Pages: 1 -->
<svg width="248pt" height="86pt"
 viewBox="0.00 0.00 247.50 86.00" xmlns="http://www.w3.org/2000/svg" xmlns:xlink="http://www.w3.org/1999/xlink">
<g id="graph0" class="graph" transform="scale(1 1) rotate(0) translate(4 82)">
<title>src/Instrumenter.hh</title>
<!-- Node17 -->
<g id="node1" class="node"><title>Node17</title>
<polygon fill="#bfbfbf" stroke="black" points="63,-57.5 63,-77.5 188,-77.5 188,-57.5 63,-57.5"/>
<text text-anchor="middle" x="125.5" y="-64.7" font-family="Avenir-Book" font-size="11.00">src/Instrumenter.hh</text>
</g>
<!-- Node18 -->
<g id="node2" class="node"><title>Node18</title>
<g id="a_node2"><a xlink:href="Instrumenter_8cc.html" target="_top" xlink:title="Definition of loom::Instrumenter. ">
<polygon fill="none" stroke="black" points="0,-0.5 0,-20.5 123,-20.5 123,-0.5 0,-0.5"/>
<text text-anchor="middle" x="61.5" y="-7.7" font-family="Avenir-Book" font-size="11.00">src/Instrumenter.cc</text>
</a>
</g>
</g>
<!-- Node17&#45;&gt;Node18 -->
<g id="edge1" class="edge"><title>Node17&#45;&gt;Node18</title>
<path fill="none" stroke="midnightblue" d="M107.31,-50.8678C96.0059,-41.1535 81.8572,-28.9944 72.2979,-20.7795"/>
<polygon fill="midnightblue" stroke="midnightblue" points="105.066,-53.5546 114.932,-57.4179 109.629,-48.2457 105.066,-53.5546"/>
</g>
<!-- Node19 -->
<g id="node3" class="node"><title>Node19</title>
<g id="a_node3"><a xlink:href="OptPass_8cc.html" target="_top" xlink:title="Definition of loom::OptPass. ">
<polygon fill="none" stroke="black" points="141.5,-0.5 141.5,-20.5 239.5,-20.5 239.5,-0.5 141.5,-0.5"/>
<text text-anchor="middle" x="190.5" y="-7.7" font-family="Avenir-Book" font-size="11.00">src/OptPass.cc</text>
</a>
</g>
</g>
<!-- Node17&#45;&gt;Node19 -->
<g id="edge2" class="edge"><title>Node17&#45;&gt;Node19</title>
<path fill="none" stroke="midnightblue" d="M143.974,-50.8678C155.455,-41.1535 169.825,-28.9944 179.533,-20.7795"/>
<polygon fill="midnightblue" stroke="midnightblue" points="141.607,-48.2866 136.233,-57.4179 146.128,-53.6303 141.607,-48.2866"/>
</g>
</g>
</svg>
