<?xml version="1.0" encoding="UTF-8" standalone="no"?>
<!DOCTYPE svg PUBLIC "-//W3C//DTD SVG 1.1//EN"
 "http://www.w3.org/Graphics/SVG/1.1/DTD/svg11.dtd">
<!-- Generated by graphviz version 2.38.0 (20140413.2041)
 -->
<!-- Title: src/InstrStrategy.cc Pages: 1 -->
<!--zoomable 428 -->
<svg id="main" version="1.1" xmlns="http://www.w3.org/2000/svg" xmlns:xlink="http://www.w3.org/1999/xlink" xml:space="preserve" onload="init(evt)">
<style type="text/css"><![CDATA[
.edge:hover path { stroke: red; }
.edge:hover polygon { stroke: red; fill: red; }
]]></style>
<script type="text/javascript"><![CDATA[
var edges = document.getElementsByTagName('g');
if (edges && edges.length) {
  for (var i=0;i<edges.length;i++) {
    if (edges[i].id.substr(0,4)=='edge') {
      edges[i].setAttribute('class','edge');
    }
  }
}
]]></script>
        <defs>
                <circle id="rim" cx="0" cy="0" r="7"/>
                <circle id="rim2" cx="0" cy="0" r="3.5"/>
                <g id="zoomPlus">
                        <use xlink:href="#rim" fill="#404040">
                                <set attributeName="fill" to="#808080" begin="zoomplus.mouseover" end="zoomplus.mouseout"/>
                        </use>
                        <path d="M-4,0h8M0,-4v8" fill="none" stroke="white" stroke-width="1.5" pointer-events="none"/>
                </g>
                <g id="zoomMin">
                        <use xlink:href="#rim" fill="#404040">
                                <set attributeName="fill" to="#808080" begin="zoomminus.mouseover" end="zoomminus.mouseout"/>
                        </use>
                        <path d="M-4,0h8" fill="none" stroke="white" stroke-width="1.5" pointer-events="none"/>
                </g>
                <g id="dirArrow">
                        <path fill="none" stroke="white" stroke-width="1.5" d="M0,-3.0v7 M-2.5,-0.5L0,-3.0L2.5,-0.5"/>
                </g>
               <g id="resetDef">
                       <use xlink:href="#rim2" fill="#404040">
                               <set attributeName="fill" to="#808080" begin="reset.mouseover" end="reset.mouseout"/>
                       </use>
               </g>
        </defs>

<script type="text/javascript">
var viewWidth = 587;
var viewHeight = 428;
var sectionId = 'dynsection-0';
</script>
<script xlink:href="svgpan.js"/>
<svg id="graph" class="graph">
<g id="viewport">
<title>src/InstrStrategy.cc</title>
<!-- Node0 -->
<g id="node1" class="node"><title>Node0</title>
<polygon fill="#bfbfbf" stroke="black" points="291,-399.5 291,-419.5 413,-419.5 413,-399.5 291,-399.5"/>
<text text-anchor="middle" x="352" y="-406.7" font-family="Avenir-Book" font-size="11.00">src/InstrStrategy.cc</text>
</g>
<!-- Node1 -->
<g id="node2" class="node"><title>Node1</title>
<polygon fill="none" stroke="#bfbfbf" points="168.5,-342.5 168.5,-362.5 273.5,-362.5 273.5,-342.5 168.5,-342.5"/>
<text text-anchor="middle" x="221" y="-349.7" font-family="Avenir-Book" font-size="11.00">llvm/IR/Module.h</text>
</g>
<!-- Node0&#45;&gt;Node1 -->
<g id="edge1" class="edge"><title>Node0&#45;&gt;Node1</title>
<path fill="none" stroke="midnightblue" d="M330.368,-399.418C309.035,-390.461 276.212,-376.681 252.087,-366.552"/>
<polygon fill="midnightblue" stroke="midnightblue" points="253.239,-363.24 242.664,-362.596 250.53,-369.694 253.239,-363.24"/>
</g>
<!-- Node2 -->
<g id="node3" class="node"><title>Node2</title>
<g id="a_node3"><a xlink:href="Instrumentation_8hh_source.html" target="_top" xlink:title="Instrumentation.hh">
<polygon fill="none" stroke="black" points="291.5,-342.5 291.5,-362.5 412.5,-362.5 412.5,-342.5 291.5,-342.5"/>
<text text-anchor="middle" x="352" y="-349.7" font-family="Avenir-Book" font-size="11.00">Instrumentation.hh</text>
</a>
</g>
</g>
<!-- Node0&#45;&gt;Node2 -->
<g id="edge2" class="edge"><title>Node0&#45;&gt;Node2</title>
<path fill="none" stroke="midnightblue" d="M352,-399.418C352,-392.216 352,-381.896 352,-372.863"/>
<polygon fill="midnightblue" stroke="midnightblue" points="355.5,-372.779 352,-362.779 348.5,-372.779 355.5,-372.779"/>
</g>
<!-- Node3 -->
<g id="node4" class="node"><title>Node3</title>
<g id="a_node4"><a xlink:href="InstrStrategy_8hh_source.html" target="_top" xlink:title="InstrStrategy.hh">
<polygon fill="none" stroke="black" points="367,-171.5 367,-191.5 471,-191.5 471,-171.5 367,-171.5"/>
<text text-anchor="middle" x="419" y="-178.7" font-family="Avenir-Book" font-size="11.00">InstrStrategy.hh</text>
</a>
</g>
</g>
<!-- Node0&#45;&gt;Node3 -->
<g id="edge29" class="edge"><title>Node0&#45;&gt;Node3</title>
<path fill="none" stroke="midnightblue" d="M375.811,-399.383C391.607,-392.034 411.327,-380.088 422,-363 453.956,-311.838 446.727,-287.36 436,-228 434.334,-218.781 430.913,-208.995 427.573,-200.87"/>
<polygon fill="midnightblue" stroke="midnightblue" points="430.745,-199.388 423.525,-191.634 424.334,-202.198 430.745,-199.388"/>
</g>
<!-- Node2&#45;&gt;Node3 -->
<g id="edge3" class="edge"><title>Node2&#45;&gt;Node3</title>
<path fill="none" stroke="midnightblue" d="M369.377,-342.462C382.407,-334.677 399.414,-322.149 408,-306 425.701,-272.706 424.328,-227.151 421.697,-201.703"/>
<polygon fill="midnightblue" stroke="midnightblue" points="425.143,-201.047 420.463,-191.542 418.194,-201.891 425.143,-201.047"/>
</g>
<!-- Node5 -->
<g id="node6" class="node"><title>Node5</title>
<polygon fill="none" stroke="#bfbfbf" points="157.5,-114.5 157.5,-134.5 282.5,-134.5 282.5,-114.5 157.5,-114.5"/>
<text text-anchor="middle" x="220" y="-121.7" font-family="Avenir-Book" font-size="11.00">llvm/ADT/ArrayRef.h</text>
</g>
<!-- Node2&#45;&gt;Node5 -->
<g id="edge25" class="edge"><title>Node2&#45;&gt;Node5</title>
<path fill="none" stroke="midnightblue" d="M300.639,-342.492C279.709,-336.022 257.528,-324.941 245,-306 230.718,-284.407 252.853,-274.554 257,-249 262.63,-214.309 256.21,-203.956 244,-171 240.477,-161.49 235.356,-151.463 230.749,-143.25"/>
<polygon fill="midnightblue" stroke="midnightblue" points="233.759,-141.463 225.703,-134.581 227.709,-144.984 233.759,-141.463"/>
</g>
<!-- Node6 -->
<g id="node7" class="node"><title>Node6</title>
<polygon fill="none" stroke="#bfbfbf" points="451,-0.5 451,-20.5 579,-20.5 579,-0.5 451,-0.5"/>
<text text-anchor="middle" x="515" y="-7.7" font-family="Avenir-Book" font-size="11.00">llvm/ADT/StringRef.h</text>
</g>
<!-- Node2&#45;&gt;Node6 -->
<g id="edge26" class="edge"><title>Node2&#45;&gt;Node6</title>
<path fill="none" stroke="midnightblue" d="M380.798,-342.43C436.377,-322.924 553,-271.403 553,-182.5 553,-182.5 553,-182.5 553,-123.5 553,-88.9345 536.568,-51.3983 525.315,-29.7447"/>
<polygon fill="midnightblue" stroke="midnightblue" points="528.276,-27.8619 520.444,-20.7268 522.117,-31.1887 528.276,-27.8619"/>
</g>
<!-- Node7 -->
<g id="node8" class="node"><title>Node7</title>
<g id="a_node8"><a xlink:href="IRUtils_8hh_source.html" target="_top" xlink:title="IRUtils.hh">
<polygon fill="none" stroke="black" points="280.5,-57.5 280.5,-77.5 347.5,-77.5 347.5,-57.5 280.5,-57.5"/>
<text text-anchor="middle" x="314" y="-64.7" font-family="Avenir-Book" font-size="11.00">IRUtils.hh</text>
</a>
</g>
</g>
<!-- Node2&#45;&gt;Node7 -->
<g id="edge15" class="edge"><title>Node2&#45;&gt;Node7</title>
<path fill="none" stroke="midnightblue" d="M358.321,-342.244C363.958,-333.389 371.798,-319.431 375,-306 377.164,-296.921 376.278,-294.245 375,-285 364.637,-210.009 334.988,-124.44 321.205,-87.3187"/>
<polygon fill="midnightblue" stroke="midnightblue" points="324.42,-85.9244 317.621,-77.7988 317.869,-88.3908 324.42,-85.9244"/>
</g>
<!-- Node8 -->
<g id="node9" class="node"><title>Node8</title>
<polygon fill="none" stroke="#bfbfbf" points="181,-0.5 181,-20.5 293,-20.5 293,-0.5 181,-0.5"/>
<text text-anchor="middle" x="237" y="-7.7" font-family="Avenir-Book" font-size="11.00">llvm/IR/IRBuilder.h</text>
</g>
<!-- Node2&#45;&gt;Node8 -->
<g id="edge28" class="edge"><title>Node2&#45;&gt;Node8</title>
<path fill="none" stroke="midnightblue" d="M291.462,-342.725C230.694,-333.461 141.558,-318.495 109,-306 56.0193,-285.667 0,-296.249 0,-239.5 0,-239.5 0,-239.5 0,-123.5 0,-81.6424 122.372,-42.1099 191.251,-23.1737"/>
<polygon fill="midnightblue" stroke="midnightblue" points="192.268,-26.5245 201.005,-20.5314 190.438,-19.7681 192.268,-26.5245"/>
</g>
<!-- Node11 -->
<g id="node12" class="node"><title>Node11</title>
<g id="a_node12"><a xlink:href="PolicyFile_8hh.html" target="_top" xlink:title="Declaration of loom::PolicyFile. ">
<polygon fill="none" stroke="black" points="118,-285.5 118,-305.5 198,-305.5 198,-285.5 118,-285.5"/>
<text text-anchor="middle" x="158" y="-292.7" font-family="Avenir-Book" font-size="11.00">PolicyFile.hh</text>
</a>
</g>
</g>
<!-- Node2&#45;&gt;Node11 -->
<g id="edge16" class="edge"><title>Node2&#45;&gt;Node11</title>
<path fill="none" stroke="midnightblue" d="M319.965,-342.418C287.01,-333.075 235.541,-318.483 199.491,-308.263"/>
<polygon fill="midnightblue" stroke="midnightblue" points="200.336,-304.865 189.76,-305.504 198.426,-311.599 200.336,-304.865"/>
</g>
<!-- Node16 -->
<g id="node17" class="node"><title>Node16</title>
<polygon fill="none" stroke="#bfbfbf" points="254,-285.5 254,-305.5 366,-305.5 366,-285.5 254,-285.5"/>
<text text-anchor="middle" x="310" y="-292.7" font-family="Avenir-Book" font-size="11.00">llvm/IR/Function.h</text>
</g>
<!-- Node2&#45;&gt;Node16 -->
<g id="edge27" class="edge"><title>Node2&#45;&gt;Node16</title>
<path fill="none" stroke="midnightblue" d="M345.065,-342.418C339.142,-334.662 330.458,-323.29 323.214,-313.803"/>
<polygon fill="midnightblue" stroke="midnightblue" points="325.937,-311.603 317.086,-305.779 320.374,-315.851 325.937,-311.603"/>
</g>
<!-- Node4 -->
<g id="node5" class="node"><title>Node4</title>
<polygon fill="none" stroke="#bfbfbf" points="420.5,-57.5 420.5,-77.5 483.5,-77.5 483.5,-57.5 420.5,-57.5"/>
<text text-anchor="middle" x="452" y="-64.7" font-family="Avenir-Book" font-size="11.00">memory</text>
</g>
<!-- Node3&#45;&gt;Node4 -->
<g id="edge4" class="edge"><title>Node3&#45;&gt;Node4</title>
<path fill="none" stroke="midnightblue" d="M430.363,-171.417C439.793,-163.091 452.513,-149.832 458,-135 463.649,-119.73 461.293,-101.198 458.016,-87.5805"/>
<polygon fill="midnightblue" stroke="midnightblue" points="461.368,-86.5714 455.325,-77.8689 454.622,-88.4403 461.368,-86.5714"/>
</g>
<!-- Node3&#45;&gt;Node5 -->
<g id="edge5" class="edge"><title>Node3&#45;&gt;Node5</title>
<path fill="none" stroke="midnightblue" d="M386.139,-171.418C352.335,-162.075 299.54,-147.483 262.561,-137.263"/>
<polygon fill="midnightblue" stroke="midnightblue" points="263.15,-133.795 252.579,-134.504 261.285,-140.542 263.15,-133.795"/>
</g>
<!-- Node3&#45;&gt;Node6 -->
<g id="edge6" class="edge"><title>Node3&#45;&gt;Node6</title>
<path fill="none" stroke="midnightblue" d="M433.736,-171.342C445.811,-163.155 462.556,-150.135 473,-135 495.633,-102.202 506.996,-56.1439 511.888,-30.5498"/>
<polygon fill="midnightblue" stroke="midnightblue" points="515.345,-31.0995 513.65,-20.6411 508.453,-29.8736 515.345,-31.0995"/>
</g>
<!-- Node3&#45;&gt;Node7 -->
<g id="edge7" class="edge"><title>Node3&#45;&gt;Node7</title>
<path fill="none" stroke="midnightblue" d="M407.857,-171.161C397.44,-162.247 381.637,-148.249 369,-135 353.901,-119.17 338.133,-99.7636 327.372,-86.0108"/>
<polygon fill="midnightblue" stroke="midnightblue" points="329.969,-83.6487 321.08,-77.884 324.434,-87.9339 329.969,-83.6487"/>
</g>
<!-- Node10 -->
<g id="node11" class="node"><title>Node10</title>
<g id="a_node11"><a xlink:href="Logger_8hh.html" target="_top" xlink:title="Declaration of loom::Logger. ">
<polygon fill="none" stroke="black" points="377.5,-114.5 377.5,-134.5 448.5,-134.5 448.5,-114.5 377.5,-114.5"/>
<text text-anchor="middle" x="413" y="-121.7" font-family="Avenir-Book" font-size="11.00">Logger.hh</text>
</a>
</g>
</g>
<!-- Node3&#45;&gt;Node10 -->
<g id="edge11" class="edge"><title>Node3&#45;&gt;Node10</title>
<path fill="none" stroke="midnightblue" d="M418.009,-171.418C417.224,-164.216 416.098,-153.896 415.112,-144.863"/>
<polygon fill="midnightblue" stroke="midnightblue" points="418.576,-144.341 414.012,-134.779 411.618,-145.1 418.576,-144.341"/>
</g>
<!-- Node7&#45;&gt;Node6 -->
<g id="edge8" class="edge"><title>Node7&#45;&gt;Node6</title>
<path fill="none" stroke="midnightblue" d="M347.191,-57.4179C381.335,-48.0751 434.661,-33.4834 472.012,-23.263"/>
<polygon fill="midnightblue" stroke="midnightblue" points="473.372,-26.5195 482.094,-20.5042 471.525,-19.7677 473.372,-26.5195"/>
</g>
<!-- Node7&#45;&gt;Node8 -->
<g id="edge9" class="edge"><title>Node7&#45;&gt;Node8</title>
<path fill="none" stroke="midnightblue" d="M301.285,-57.4179C289.582,-49.0584 271.995,-36.4966 258.173,-26.6239"/>
<polygon fill="midnightblue" stroke="midnightblue" points="259.906,-23.56 249.734,-20.5956 255.837,-29.2561 259.906,-23.56"/>
</g>
<!-- Node9 -->
<g id="node10" class="node"><title>Node9</title>
<polygon fill="none" stroke="#bfbfbf" points="72.5,-0.5 72.5,-20.5 123.5,-20.5 123.5,-0.5 72.5,-0.5"/>
<text text-anchor="middle" x="98" y="-7.7" font-family="Avenir-Book" font-size="11.00">vector</text>
</g>
<!-- Node7&#45;&gt;Node9 -->
<g id="edge10" class="edge"><title>Node7&#45;&gt;Node9</title>
<path fill="none" stroke="midnightblue" d="M280.25,-57.9062C240.325,-47.7402 174.162,-30.8932 133.492,-20.5374"/>
<polygon fill="midnightblue" stroke="midnightblue" points="134.288,-17.1283 123.733,-18.0524 132.56,-23.9118 134.288,-17.1283"/>
</g>
<!-- Node10&#45;&gt;Node4 -->
<g id="edge14" class="edge"><title>Node10&#45;&gt;Node4</title>
<path fill="none" stroke="midnightblue" d="M419.44,-114.418C424.883,-106.742 432.839,-95.5217 439.524,-86.0945"/>
<polygon fill="midnightblue" stroke="midnightblue" points="442.491,-87.9613 445.42,-77.7795 436.781,-83.9123 442.491,-87.9613"/>
</g>
<!-- Node10&#45;&gt;Node7 -->
<g id="edge12" class="edge"><title>Node10&#45;&gt;Node7</title>
<path fill="none" stroke="midnightblue" d="M396.652,-114.418C381.032,-105.74 357.26,-92.5334 339.214,-82.5077"/>
<polygon fill="midnightblue" stroke="midnightblue" points="340.813,-79.3925 330.372,-77.5956 337.414,-85.5117 340.813,-79.3925"/>
</g>
<!-- Node10&#45;&gt;Node8 -->
<g id="edge13" class="edge"><title>Node10&#45;&gt;Node8</title>
<path fill="none" stroke="midnightblue" d="M407.579,-114.489C398.674,-100.388 379.657,-73.0609 357,-57 335.37,-41.6666 307.919,-30.7568 284.733,-23.4714"/>
<polygon fill="midnightblue" stroke="midnightblue" points="285.671,-20.0987 275.087,-20.5686 283.654,-26.8018 285.671,-20.0987"/>
</g>
<!-- Node12 -->
<g id="node13" class="node"><title>Node12</title>
<g id="a_node13"><a xlink:href="Policy_8hh.html" target="_top" xlink:title="Definition of loom::Policy. ">
<polygon fill="none" stroke="black" points="28,-228.5 28,-248.5 90,-248.5 90,-228.5 28,-228.5"/>
<text text-anchor="middle" x="59" y="-235.7" font-family="Avenir-Book" font-size="11.00">Policy.hh</text>
</a>
</g>
</g>
<!-- Node11&#45;&gt;Node12 -->
<g id="edge17" class="edge"><title>Node11&#45;&gt;Node12</title>
<path fill="none" stroke="midnightblue" d="M141.652,-285.418C126.032,-276.74 102.26,-263.533 84.2138,-253.508"/>
<polygon fill="midnightblue" stroke="midnightblue" points="85.8135,-250.393 75.3721,-248.596 82.4139,-256.512 85.8135,-250.393"/>
</g>
<!-- Node15 -->
<g id="node16" class="node"><title>Node15</title>
<polygon fill="none" stroke="#bfbfbf" points="108,-228.5 108,-248.5 248,-248.5 248,-228.5 108,-228.5"/>
<text text-anchor="middle" x="178" y="-235.7" font-family="Avenir-Book" font-size="11.00">llvm/Support/ErrorOr.h</text>
</g>
<!-- Node11&#45;&gt;Node15 -->
<g id="edge24" class="edge"><title>Node11&#45;&gt;Node15</title>
<path fill="none" stroke="midnightblue" d="M161.303,-285.418C163.979,-278.058 167.84,-267.441 171.175,-258.27"/>
<polygon fill="midnightblue" stroke="midnightblue" points="174.497,-259.374 174.626,-248.779 167.919,-256.981 174.497,-259.374"/>
</g>
<!-- Node12&#45;&gt;Node3 -->
<g id="edge18" class="edge"><title>Node12&#45;&gt;Node3</title>
<path fill="none" stroke="midnightblue" d="M90.3844,-229.758C93.2897,-229.129 96.1948,-228.531 99,-228 188.099,-211.122 292.227,-197.421 356.903,-189.613"/>
<polygon fill="midnightblue" stroke="midnightblue" points="357.424,-193.075 366.937,-188.41 356.591,-186.125 357.424,-193.075"/>
</g>
<!-- Node12&#45;&gt;Node9 -->
<g id="edge23" class="edge"><title>Node12&#45;&gt;Node9</title>
<path fill="none" stroke="midnightblue" d="M60.5771,-228.361C66.3961,-194.641 86.7361,-76.7727 94.7343,-30.4242"/>
<polygon fill="midnightblue" stroke="midnightblue" points="98.1944,-30.9551 96.446,-20.5055 91.2963,-29.7646 98.1944,-30.9551"/>
</g>
<!-- Node13 -->
<g id="node14" class="node"><title>Node13</title>
<g id="a_node14"><a xlink:href="Serializer_8hh.html" target="_top" xlink:title="Declaration of Serializer. ">
<polygon fill="none" stroke="black" points="87.5,-171.5 87.5,-191.5 170.5,-191.5 170.5,-171.5 87.5,-171.5"/>
<text text-anchor="middle" x="129" y="-178.7" font-family="Avenir-Book" font-size="11.00">Serializer.hh</text>
</a>
</g>
</g>
<!-- Node12&#45;&gt;Node13 -->
<g id="edge19" class="edge"><title>Node12&#45;&gt;Node13</title>
<path fill="none" stroke="midnightblue" d="M70.5591,-228.418C81.034,-220.188 96.6932,-207.884 109.166,-198.084"/>
<polygon fill="midnightblue" stroke="midnightblue" points="111.489,-200.71 117.19,-191.779 107.164,-195.206 111.489,-200.71"/>
</g>
<!-- Node14 -->
<g id="node15" class="node"><title>Node14</title>
<polygon fill="none" stroke="#bfbfbf" points="188.5,-171.5 188.5,-191.5 235.5,-191.5 235.5,-171.5 188.5,-171.5"/>
<text text-anchor="middle" x="212" y="-178.7" font-family="Avenir-Book" font-size="11.00">string</text>
</g>
<!-- Node12&#45;&gt;Node14 -->
<g id="edge22" class="edge"><title>Node12&#45;&gt;Node14</title>
<path fill="none" stroke="midnightblue" d="M84.2648,-228.418C110.079,-219.138 150.298,-204.68 178.699,-194.471"/>
<polygon fill="midnightblue" stroke="midnightblue" points="179.983,-197.729 188.209,-191.052 177.615,-191.141 179.983,-197.729"/>
</g>
<!-- Node13&#45;&gt;Node5 -->
<g id="edge20" class="edge"><title>Node13&#45;&gt;Node5</title>
<path fill="none" stroke="midnightblue" d="M144.027,-171.418C158.253,-162.82 179.835,-149.775 196.366,-139.784"/>
<polygon fill="midnightblue" stroke="midnightblue" points="198.203,-142.764 204.951,-134.596 194.582,-136.773 198.203,-142.764"/>
</g>
<!-- Node13&#45;&gt;Node8 -->
<g id="edge21" class="edge"><title>Node13&#45;&gt;Node8</title>
<path fill="none" stroke="midnightblue" d="M130.306,-171.421C132.492,-158.159 137.702,-133.002 148,-114 166.752,-79.3996 198.911,-46.3247 219.006,-27.5081"/>
<polygon fill="midnightblue" stroke="midnightblue" points="221.558,-29.9165 226.558,-20.5758 216.824,-24.7596 221.558,-29.9165"/>
</g>
</g>
</svg>
        <g id="navigator" transform="translate(0 0)" fill="#404254">
                <rect fill="#f2f5e9" fill-opacity="0.5" stroke="#606060" stroke-width=".5" x="0" y="0" width="60" height="60"/>
                <use id="zoomplus" xlink:href="#zoomPlus" x="17" y="9" onmousedown="handleZoom(evt,'in')"/>
                <use id="zoomminus" xlink:href="#zoomMin" x="42" y="9" onmousedown="handleZoom(evt,'out')"/>
                <use id="reset" xlink:href="#resetDef" x="30" y="36" onmousedown="handleReset()"/>
                <g id="arrowUp" xlink:href="#dirArrow" transform="translate(30 24)" onmousedown="handlePan(0,-1)">
                  <use xlink:href="#rim" fill="#404040">
                        <set attributeName="fill" to="#808080" begin="arrowUp.mouseover" end="arrowUp.mouseout"/>
                  </use>
                  <path fill="none" stroke="white" stroke-width="1.5" d="M0,-3.0v7 M-2.5,-0.5L0,-3.0L2.5,-0.5"/>
                </g>
                <g id="arrowRight" xlink:href="#dirArrow" transform="rotate(90) translate(36 -43)" onmousedown="handlePan(1,0)">
                  <use xlink:href="#rim" fill="#404040">
                        <set attributeName="fill" to="#808080" begin="arrowRight.mouseover" end="arrowRight.mouseout"/>
                  </use>
                  <path fill="none" stroke="white" stroke-width="1.5" d="M0,-3.0v7 M-2.5,-0.5L0,-3.0L2.5,-0.5"/>
                </g>
                <g id="arrowDown" xlink:href="#dirArrow" transform="rotate(180) translate(-30 -48)" onmousedown="handlePan(0,1)">
                  <use xlink:href="#rim" fill="#404040">
                        <set attributeName="fill" to="#808080" begin="arrowDown.mouseover" end="arrowDown.mouseout"/>
                  </use>
                  <path fill="none" stroke="white" stroke-width="1.5" d="M0,-3.0v7 M-2.5,-0.5L0,-3.0L2.5,-0.5"/>
                </g>
                <g id="arrowLeft" xlink:href="#dirArrow" transform="rotate(270) translate(-36 17)" onmousedown="handlePan(-1,0)">
                  <use xlink:href="#rim" fill="#404040">
                        <set attributeName="fill" to="#808080" begin="arrowLeft.mouseover" end="arrowLeft.mouseout"/>
                  </use>
                  <path fill="none" stroke="white" stroke-width="1.5" d="M0,-3.0v7 M-2.5,-0.5L0,-3.0L2.5,-0.5"/>
                </g>
        </g>
        <svg viewBox="0 0 15 15" width="100%" height="30px" preserveAspectRatio="xMaxYMin meet">
         <g id="arrow_out" transform="scale(0.3 0.3)">
          <a xlink:href="InstrStrategy_8cc__incl_org.svg" target="_base">
           <rect id="button" ry="5" rx="5" y="6" x="6" height="38" width="38"
                fill="#f2f5e9" fill-opacity="0.5" stroke="#606060" stroke-width="1.0"/>
           <path id="arrow"
             d="M 11.500037,31.436501 C 11.940474,20.09759 22.043105,11.32322 32.158766,21.979434 L 37.068811,17.246167 C 37.068811,17.246167 37.088388,32 37.088388,32 L 22.160133,31.978069 C 22.160133,31.978069 26.997745,27.140456 26.997745,27.140456 C 18.528582,18.264221 13.291696,25.230495 11.500037,31.436501 z"
             style="fill:#404040;"/>
          </a>
         </g>
        </svg>
</svg>
