<?xml version="1.0" encoding="UTF-8" standalone="no"?>
<!DOCTYPE svg PUBLIC "-//W3C//DTD SVG 1.1//EN"
 "http://www.w3.org/Graphics/SVG/1.1/DTD/svg11.dtd">
<!-- Generated by graphviz version 2.38.0 (20140413.2041)
 -->
<!-- Title: src/IRUtils.hh Pages: 1 -->
<svg width="336pt" height="86pt"
 viewBox="0.00 0.00 335.50 86.00" xmlns="http://www.w3.org/2000/svg" xmlns:xlink="http://www.w3.org/1999/xlink">
<g id="graph0" class="graph" transform="scale(1 1) rotate(0) translate(4 82)">
<title>src/IRUtils.hh</title>
<!-- Node0 -->
<g id="node1" class="node"><title>Node0</title>
<polygon fill="#bfbfbf" stroke="black" points="158.5,-57.5 158.5,-77.5 245.5,-77.5 245.5,-57.5 158.5,-57.5"/>
<text text-anchor="middle" x="202" y="-64.7" font-family="Avenir-Book" font-size="11.00">src/IRUtils.hh</text>
</g>
<!-- Node1 -->
<g id="node2" class="node"><title>Node1</title>
<polygon fill="none" stroke="#bfbfbf" points="0,-0.5 0,-20.5 128,-20.5 128,-0.5 0,-0.5"/>
<text text-anchor="middle" x="64" y="-7.7" font-family="Avenir-Book" font-size="11.00">llvm/ADT/StringRef.h</text>
</g>
<!-- Node0&#45;&gt;Node1 -->
<g id="edge1" class="edge"><title>Node0&#45;&gt;Node1</title>
<path fill="none" stroke="midnightblue" d="M179.212,-57.4179C156.639,-48.4215 121.855,-34.5581 96.4103,-24.4172"/>
<polygon fill="midnightblue" stroke="midnightblue" points="97.407,-21.0467 86.8217,-20.5956 94.8153,-27.5493 97.407,-21.0467"/>
</g>
<!-- Node2 -->
<g id="node3" class="node"><title>Node2</title>
<polygon fill="none" stroke="#bfbfbf" points="146,-0.5 146,-20.5 258,-20.5 258,-0.5 146,-0.5"/>
<text text-anchor="middle" x="202" y="-7.7" font-family="Avenir-Book" font-size="11.00">llvm/IR/IRBuilder.h</text>
</g>
<!-- Node0&#45;&gt;Node2 -->
<g id="edge2" class="edge"><title>Node0&#45;&gt;Node2</title>
<path fill="none" stroke="midnightblue" d="M202,-57.4179C202,-50.2164 202,-39.8962 202,-30.8632"/>
<polygon fill="midnightblue" stroke="midnightblue" points="205.5,-30.7794 202,-20.7795 198.5,-30.7795 205.5,-30.7794"/>
</g>
<!-- Node3 -->
<g id="node4" class="node"><title>Node3</title>
<polygon fill="none" stroke="#bfbfbf" points="276.5,-0.5 276.5,-20.5 327.5,-20.5 327.5,-0.5 276.5,-0.5"/>
<text text-anchor="middle" x="302" y="-7.7" font-family="Avenir-Book" font-size="11.00">vector</text>
</g>
<!-- Node0&#45;&gt;Node3 -->
<g id="edge3" class="edge"><title>Node0&#45;&gt;Node3</title>
<path fill="none" stroke="midnightblue" d="M218.513,-57.4179C234.291,-48.7399 258.303,-35.5334 276.531,-25.5077"/>
<polygon fill="midnightblue" stroke="midnightblue" points="278.387,-28.4816 285.463,-20.5956 275.014,-22.3481 278.387,-28.4816"/>
</g>
</g>
</svg>
