<?xml version="1.0" encoding="UTF-8" standalone="no"?>
<!DOCTYPE svg PUBLIC "-//W3C//DTD SVG 1.1//EN"
 "http://www.w3.org/Graphics/SVG/1.1/DTD/svg11.dtd">
<!-- Generated by graphviz version 2.38.0 (20140413.2041)
 -->
<!-- Title: src/IRUtils.hh Pages: 1 -->
<!--zoomable 428 -->
<svg id="main" version="1.1" xmlns="http://www.w3.org/2000/svg" xmlns:xlink="http://www.w3.org/1999/xlink" xml:space="preserve" onload="init(evt)">
<style type="text/css"><![CDATA[
.edge:hover path { stroke: red; }
.edge:hover polygon { stroke: red; fill: red; }
]]></style>
<script type="text/javascript"><![CDATA[
var edges = document.getElementsByTagName('g');
if (edges && edges.length) {
  for (var i=0;i<edges.length;i++) {
    if (edges[i].id.substr(0,4)=='edge') {
      edges[i].setAttribute('class','edge');
    }
  }
}
]]></script>
        <defs>
                <circle id="rim" cx="0" cy="0" r="7"/>
                <circle id="rim2" cx="0" cy="0" r="3.5"/>
                <g id="zoomPlus">
                        <use xlink:href="#rim" fill="#404040">
                                <set attributeName="fill" to="#808080" begin="zoomplus.mouseover" end="zoomplus.mouseout"/>
                        </use>
                        <path d="M-4,0h8M0,-4v8" fill="none" stroke="white" stroke-width="1.5" pointer-events="none"/>
                </g>
                <g id="zoomMin">
                        <use xlink:href="#rim" fill="#404040">
                                <set attributeName="fill" to="#808080" begin="zoomminus.mouseover" end="zoomminus.mouseout"/>
                        </use>
                        <path d="M-4,0h8" fill="none" stroke="white" stroke-width="1.5" pointer-events="none"/>
                </g>
                <g id="dirArrow">
                        <path fill="none" stroke="white" stroke-width="1.5" d="M0,-3.0v7 M-2.5,-0.5L0,-3.0L2.5,-0.5"/>
                </g>
               <g id="resetDef">
                       <use xlink:href="#rim2" fill="#404040">
                               <set attributeName="fill" to="#808080" begin="reset.mouseover" end="reset.mouseout"/>
                       </use>
               </g>
        </defs>

<script type="text/javascript">
var viewWidth = 754;
var viewHeight = 428;
var sectionId = 'dynsection-1';
</script>
<script xlink:href="svgpan.js"/>
<svg id="graph" class="graph">
<g id="viewport">
<title>src/IRUtils.hh</title>
<!-- Node4 -->
<g id="node1" class="node"><title>Node4</title>
<polygon fill="#bfbfbf" stroke="black" points="256.54,-399.5 256.54,-419.5 343.54,-419.5 343.54,-399.5 256.54,-399.5"/>
<text text-anchor="middle" x="300.04" y="-406.7" font-family="Avenir-Book" font-size="11.00">src/IRUtils.hh</text>
</g>
<!-- Node5 -->
<g id="node2" class="node"><title>Node5</title>
<g id="a_node2"><a xlink:href="InstrStrategy_8hh.html" target="_top" xlink:title="Declaration of loom::InstrStrategy. ">
<polygon fill="none" stroke="black" points="238.04,-285.5 238.04,-305.5 362.04,-305.5 362.04,-285.5 238.04,-285.5"/>
<text text-anchor="middle" x="300.04" y="-292.7" font-family="Avenir-Book" font-size="11.00">src/InstrStrategy.hh</text>
</a>
</g>
</g>
<!-- Node4&#45;&gt;Node5 -->
<g id="edge1" class="edge"><title>Node4&#45;&gt;Node5</title>
<path fill="none" stroke="midnightblue" d="M300.04,-389.17C300.04,-364.839 300.04,-324.028 300.04,-305.792"/>
<polygon fill="midnightblue" stroke="midnightblue" points="296.54,-389.335 300.04,-399.335 303.54,-389.335 296.54,-389.335"/>
</g>
<!-- Node6 -->
<g id="node3" class="node"><title>Node6</title>
<g id="a_node3"><a xlink:href="Instrumentation_8hh.html" target="_top" xlink:title="Declaration of loom::Instrumentation. ">
<polygon fill="none" stroke="black" points="129.54,-114.5 129.54,-134.5 270.54,-134.5 270.54,-114.5 129.54,-114.5"/>
<text text-anchor="middle" x="200.04" y="-121.7" font-family="Avenir-Book" font-size="11.00">src/Instrumentation.hh</text>
</a>
</g>
</g>
<!-- Node4&#45;&gt;Node6 -->
<g id="edge23" class="edge"><title>Node4&#45;&gt;Node6</title>
<path fill="none" stroke="midnightblue" d="M275.349,-393.927C247.201,-375.237 205.04,-339.984 205.04,-296.5 205.04,-296.5 205.04,-296.5 205.04,-237.5 205.04,-199.351 202.109,-153.965 200.735,-134.786"/>
<polygon fill="midnightblue" stroke="midnightblue" points="273.612,-396.971 283.924,-399.403 277.38,-391.071 273.612,-396.971"/>
</g>
<!-- Node11 -->
<g id="node8" class="node"><title>Node11</title>
<g id="a_node8"><a xlink:href="OptPass_8cc.html" target="_top" xlink:title="Definition of Loom&#39;s LLVM opt pass. ">
<polygon fill="none" stroke="black" points="288.04,-0.5 288.04,-20.5 386.04,-20.5 386.04,-0.5 288.04,-0.5"/>
<text text-anchor="middle" x="337.04" y="-7.7" font-family="Avenir-Book" font-size="11.00">src/OptPass.cc</text>
</a>
</g>
</g>
<!-- Node4&#45;&gt;Node11 -->
<g id="edge25" class="edge"><title>Node4&#45;&gt;Node11</title>
<path fill="none" stroke="midnightblue" d="M246.38,-399.735C160.329,-384.144 1.0398,-348.288 1.0398,-296.5 1.0398,-296.5 1.0398,-296.5 1.0398,-123.5 1.0398,-92.7618 -3.11941,-77.2111 20.0398,-57 59.0498,-22.9558 209.089,-14.3648 287.953,-12.2107"/>
<polygon fill="midnightblue" stroke="midnightblue" points="245.784,-403.184 256.242,-401.492 247.011,-396.292 245.784,-403.184"/>
</g>
<!-- Node16 -->
<g id="node13" class="node"><title>Node16</title>
<g id="a_node13"><a xlink:href="Logger_8hh.html" target="_top" xlink:title="Declaration of loom::Logger. ">
<polygon fill="none" stroke="black" points="363.54,-342.5 363.54,-362.5 454.54,-362.5 454.54,-342.5 363.54,-342.5"/>
<text text-anchor="middle" x="409.04" y="-349.7" font-family="Avenir-Book" font-size="11.00">src/Logger.hh</text>
</a>
</g>
</g>
<!-- Node4&#45;&gt;Node16 -->
<g id="edge16" class="edge"><title>Node4&#45;&gt;Node16</title>
<path fill="none" stroke="midnightblue" d="M327.225,-394.783C347.151,-384.728 373.649,-371.358 391.014,-362.596"/>
<polygon fill="midnightblue" stroke="midnightblue" points="325.39,-391.788 318.039,-399.418 328.544,-398.038 325.39,-391.788"/>
</g>
<!-- Node20 -->
<g id="node17" class="node"><title>Node20</title>
<g id="a_node17"><a xlink:href="IRUtils_8cc.html" target="_top" xlink:title="Definition of LLVM IR utility functions. ">
<polygon fill="none" stroke="black" points="473.04,-342.5 473.04,-362.5 559.04,-362.5 559.04,-342.5 473.04,-342.5"/>
<text text-anchor="middle" x="516.04" y="-349.7" font-family="Avenir-Book" font-size="11.00">src/IRUtils.cc</text>
</a>
</g>
</g>
<!-- Node4&#45;&gt;Node20 -->
<g id="edge24" class="edge"><title>Node4&#45;&gt;Node20</title>
<path fill="none" stroke="midnightblue" d="M345.544,-396.913C385.825,-386.657 443.789,-371.897 480.678,-362.504"/>
<polygon fill="midnightblue" stroke="midnightblue" points="344.535,-393.558 335.708,-399.418 346.262,-400.342 344.535,-393.558"/>
</g>
<!-- Node5&#45;&gt;Node6 -->
<g id="edge2" class="edge"><title>Node5&#45;&gt;Node6</title>
<path fill="none" stroke="midnightblue" d="M289.412,-276.539C268.214,-240.715 221.348,-161.512 205.443,-134.631"/>
<polygon fill="midnightblue" stroke="midnightblue" points="286.559,-278.59 294.663,-285.414 292.583,-275.025 286.559,-278.59"/>
</g>
<!-- Node7 -->
<g id="node4" class="node"><title>Node7</title>
<g id="a_node4"><a xlink:href="InstrStrategy_8cc.html" target="_top" xlink:title="Definition of loom::InstrStrategy. ">
<polygon fill="none" stroke="black" points="187.04,-57.5 187.04,-77.5 309.04,-77.5 309.04,-57.5 187.04,-57.5"/>
<text text-anchor="middle" x="248.04" y="-64.7" font-family="Avenir-Book" font-size="11.00">src/InstrStrategy.cc</text>
</a>
</g>
</g>
<!-- Node5&#45;&gt;Node7 -->
<g id="edge15" class="edge"><title>Node5&#45;&gt;Node7</title>
<path fill="none" stroke="midnightblue" d="M300.77,-274.742C301.372,-240.755 299.748,-169.528 279.04,-114 273.83,-100.029 263.458,-86.189 256.15,-77.5087"/>
<polygon fill="midnightblue" stroke="midnightblue" points="297.261,-275.033 300.492,-285.123 304.259,-275.221 297.261,-275.033"/>
</g>
<!-- Node12 -->
<g id="node9" class="node"><title>Node12</title>
<g id="a_node9"><a xlink:href="Policy_8hh.html" target="_top" xlink:title="Definition of loom::Policy. ">
<polygon fill="none" stroke="black" points="336.04,-228.5 336.04,-248.5 418.04,-248.5 418.04,-228.5 336.04,-228.5"/>
<text text-anchor="middle" x="377.04" y="-235.7" font-family="Avenir-Book" font-size="11.00">src/Policy.hh</text>
</a>
</g>
</g>
<!-- Node5&#45;&gt;Node12 -->
<g id="edge8" class="edge"><title>Node5&#45;&gt;Node12</title>
<path fill="none" stroke="midnightblue" d="M321.191,-279.392C335.009,-269.522 352.596,-256.96 364.306,-248.596"/>
<polygon fill="midnightblue" stroke="midnightblue" points="318.858,-276.757 312.755,-285.418 322.926,-282.454 318.858,-276.757"/>
</g>
<!-- Node6&#45;&gt;Node7 -->
<g id="edge3" class="edge"><title>Node6&#45;&gt;Node7</title>
<path fill="none" stroke="midnightblue" d="M214.68,-106.725C222.979,-97.215 233.05,-85.6754 239.941,-77.7795"/>
<polygon fill="midnightblue" stroke="midnightblue" points="211.904,-104.582 207.966,-114.418 217.178,-109.185 211.904,-104.582"/>
</g>
<!-- Node8 -->
<g id="node5" class="node"><title>Node8</title>
<g id="a_node5"><a xlink:href="Instrumentation_8cc.html" target="_top" xlink:title="Definition of loom::Instrumentation. ">
<polygon fill="none" stroke="black" points="29.0398,-57.5 29.0398,-77.5 169.04,-77.5 169.04,-57.5 29.0398,-57.5"/>
<text text-anchor="middle" x="99.0398" y="-64.7" font-family="Avenir-Book" font-size="11.00">src/Instrumentation.cc</text>
</a>
</g>
</g>
<!-- Node6&#45;&gt;Node8 -->
<g id="edge4" class="edge"><title>Node6&#45;&gt;Node8</title>
<path fill="none" stroke="midnightblue" d="M174.345,-109.508C155.94,-99.4854 131.687,-86.2783 115.743,-77.5956"/>
<polygon fill="midnightblue" stroke="midnightblue" points="172.906,-112.709 183.362,-114.418 176.253,-106.562 172.906,-112.709"/>
</g>
<!-- Node9 -->
<g id="node6" class="node"><title>Node9</title>
<g id="a_node6"><a xlink:href="Instrumenter_8hh.html" target="_top" xlink:title="Declaration of loom::Instrumenter. ">
<polygon fill="none" stroke="black" points="391.54,-57.5 391.54,-77.5 516.54,-77.5 516.54,-57.5 391.54,-57.5"/>
<text text-anchor="middle" x="454.04" y="-64.7" font-family="Avenir-Book" font-size="11.00">src/Instrumenter.hh</text>
</a>
</g>
</g>
<!-- Node6&#45;&gt;Node9 -->
<g id="edge5" class="edge"><title>Node6&#45;&gt;Node9</title>
<path fill="none" stroke="midnightblue" d="M251.758,-112.301C299.149,-102.039 368.425,-87.0387 412.359,-77.5255"/>
<polygon fill="midnightblue" stroke="midnightblue" points="250.731,-108.942 241.698,-114.479 252.213,-115.784 250.731,-108.942"/>
</g>
<!-- Node10 -->
<g id="node7" class="node"><title>Node10</title>
<g id="a_node7"><a xlink:href="Instrumenter_8cc.html" target="_top" xlink:title="Definition of loom::Instrumenter. ">
<polygon fill="none" stroke="black" points="417.54,-0.5 417.54,-20.5 540.54,-20.5 540.54,-0.5 417.54,-0.5"/>
<text text-anchor="middle" x="479.04" y="-7.7" font-family="Avenir-Book" font-size="11.00">src/Instrumenter.cc</text>
</a>
</g>
</g>
<!-- Node9&#45;&gt;Node10 -->
<g id="edge6" class="edge"><title>Node9&#45;&gt;Node10</title>
<path fill="none" stroke="midnightblue" d="M462.326,-48.2696C466.513,-39.0587 471.414,-28.2766 474.822,-20.7795"/>
<polygon fill="midnightblue" stroke="midnightblue" points="459.12,-46.8659 458.168,-57.4179 465.492,-49.7625 459.12,-46.8659"/>
</g>
<!-- Node9&#45;&gt;Node11 -->
<g id="edge7" class="edge"><title>Node9&#45;&gt;Node11</title>
<path fill="none" stroke="midnightblue" d="M425.441,-53.0563C403.989,-42.9716 375.198,-29.4376 356.389,-20.5956"/>
<polygon fill="midnightblue" stroke="midnightblue" points="424.181,-56.331 434.72,-57.4179 427.159,-49.9961 424.181,-56.331"/>
</g>
<!-- Node12&#45;&gt;Node9 -->
<g id="edge13" class="edge"><title>Node12&#45;&gt;Node9</title>
<path fill="none" stroke="midnightblue" d="M400.305,-222.793C412.14,-214.62 426.261,-203.742 437.04,-192 457.302,-169.927 464.712,-163.782 473.04,-135 478.98,-114.469 467.474,-90.3392 459.911,-77.5407"/>
<polygon fill="midnightblue" stroke="midnightblue" points="398.16,-220.017 391.794,-228.486 402.052,-225.836 398.16,-220.017"/>
</g>
<!-- Node13 -->
<g id="node10" class="node"><title>Node13</title>
<g id="a_node10"><a xlink:href="PolicyFile_8hh.html" target="_top" xlink:title="Declaration of loom::PolicyFile. ">
<polygon fill="none" stroke="black" points="327.54,-171.5 327.54,-191.5 428.54,-191.5 428.54,-171.5 327.54,-171.5"/>
<text text-anchor="middle" x="378.04" y="-178.7" font-family="Avenir-Book" font-size="11.00">src/PolicyFile.hh</text>
</a>
</g>
</g>
<!-- Node12&#45;&gt;Node13 -->
<g id="edge9" class="edge"><title>Node12&#45;&gt;Node13</title>
<path fill="none" stroke="midnightblue" d="M377.387,-218.383C377.551,-209.374 377.739,-199.037 377.871,-191.779"/>
<polygon fill="midnightblue" stroke="midnightblue" points="373.887,-218.356 377.205,-228.418 380.886,-218.483 373.887,-218.356"/>
</g>
<!-- Node15 -->
<g id="node12" class="node"><title>Node15</title>
<g id="a_node12"><a xlink:href="Policy_8cc.html" target="_top" xlink:title="Definition of loom::Policy. ">
<polygon fill="none" stroke="black" points="520.04,-171.5 520.04,-191.5 600.04,-191.5 600.04,-171.5 520.04,-171.5"/>
<text text-anchor="middle" x="560.04" y="-178.7" font-family="Avenir-Book" font-size="11.00">src/Policy.cc</text>
</a>
</g>
</g>
<!-- Node12&#45;&gt;Node15 -->
<g id="edge14" class="edge"><title>Node12&#45;&gt;Node15</title>
<path fill="none" stroke="midnightblue" d="M416.901,-225.52C450.964,-215.282 499.224,-200.778 530.08,-191.504"/>
<polygon fill="midnightblue" stroke="midnightblue" points="415.828,-222.188 407.259,-228.418 417.843,-228.891 415.828,-222.188"/>
</g>
<!-- Node13&#45;&gt;Node6 -->
<g id="edge10" class="edge"><title>Node13&#45;&gt;Node6</title>
<path fill="none" stroke="midnightblue" d="M338.841,-168.388C305.732,-158.158 259.065,-143.738 229.181,-134.504"/>
<polygon fill="midnightblue" stroke="midnightblue" points="338.059,-171.81 348.647,-171.418 340.126,-165.122 338.059,-171.81"/>
</g>
<!-- Node13&#45;&gt;Node11 -->
<g id="edge11" class="edge"><title>Node13&#45;&gt;Node11</title>
<path fill="none" stroke="midnightblue" d="M367.795,-162.485C363.561,-154.324 358.967,-144.411 356.04,-135 343.156,-93.5708 338.806,-41.4963 337.52,-20.6962"/>
<polygon fill="midnightblue" stroke="midnightblue" points="364.799,-164.303 372.646,-171.421 370.951,-160.963 364.799,-164.303"/>
</g>
<!-- Node14 -->
<g id="node11" class="node"><title>Node14</title>
<g id="a_node11"><a xlink:href="PolicyFile_8cc.html" target="_top" xlink:title="Definition of loom::PolicyFile. ">
<polygon fill="none" stroke="black" points="365.54,-114.5 365.54,-134.5 464.54,-134.5 464.54,-114.5 365.54,-114.5"/>
<text text-anchor="middle" x="415.04" y="-121.7" font-family="Avenir-Book" font-size="11.00">src/PolicyFile.cc</text>
</a>
</g>
</g>
<!-- Node13&#45;&gt;Node14 -->
<g id="edge12" class="edge"><title>Node13&#45;&gt;Node14</title>
<path fill="none" stroke="midnightblue" d="M389.91,-162.855C396.191,-153.519 403.646,-142.436 408.797,-134.779"/>
<polygon fill="midnightblue" stroke="midnightblue" points="386.827,-161.167 384.15,-171.418 392.635,-165.074 386.827,-161.167"/>
</g>
<!-- Node16&#45;&gt;Node5 -->
<g id="edge17" class="edge"><title>Node16&#45;&gt;Node5</title>
<path fill="none" stroke="midnightblue" d="M381.855,-337.783C361.928,-327.728 335.431,-314.358 318.066,-305.596"/>
<polygon fill="midnightblue" stroke="midnightblue" points="380.536,-341.038 391.041,-342.418 383.69,-334.788 380.536,-341.038"/>
</g>
<!-- Node16&#45;&gt;Node10 -->
<g id="edge18" class="edge"><title>Node16&#45;&gt;Node10</title>
<path fill="none" stroke="midnightblue" d="M450.62,-339.429C514.137,-319.734 628.04,-278.921 628.04,-239.5 628.04,-239.5 628.04,-239.5 628.04,-123.5 628.04,-66.2208 556.811,-34.6072 512.85,-20.5504"/>
<polygon fill="midnightblue" stroke="midnightblue" points="449.424,-336.134 440.884,-342.405 451.471,-342.829 449.424,-336.134"/>
</g>
<!-- Node17 -->
<g id="node14" class="node"><title>Node17</title>
<g id="a_node14"><a xlink:href="KTraceLogger_8hh.html" target="_top" xlink:title="Declaration of loom::KTraceLogger. ">
<polygon fill="none" stroke="black" points="382.54,-285.5 382.54,-305.5 509.54,-305.5 509.54,-285.5 382.54,-285.5"/>
<text text-anchor="middle" x="446.04" y="-292.7" font-family="Avenir-Book" font-size="11.00">src/KTraceLogger.hh</text>
</a>
</g>
</g>
<!-- Node16&#45;&gt;Node17 -->
<g id="edge19" class="edge"><title>Node16&#45;&gt;Node17</title>
<path fill="none" stroke="midnightblue" d="M420.91,-333.855C427.191,-324.519 434.646,-313.436 439.797,-305.779"/>
<polygon fill="midnightblue" stroke="midnightblue" points="417.827,-332.167 415.15,-342.418 423.635,-336.074 417.827,-332.167"/>
</g>
<!-- Node19 -->
<g id="node16" class="node"><title>Node19</title>
<g id="a_node16"><a xlink:href="Logger_8cc.html" target="_top" xlink:title="Definition of loom::Logger. ">
<polygon fill="none" stroke="black" points="656.54,-285.5 656.54,-305.5 745.54,-305.5 745.54,-285.5 656.54,-285.5"/>
<text text-anchor="middle" x="701.04" y="-292.7" font-family="Avenir-Book" font-size="11.00">src/Logger.cc</text>
</a>
</g>
</g>
<!-- Node16&#45;&gt;Node19 -->
<g id="edge22" class="edge"><title>Node16&#45;&gt;Node19</title>
<path fill="none" stroke="midnightblue" d="M464.701,-341.016C520.321,-330.54 604.759,-314.635 656.214,-304.943"/>
<polygon fill="midnightblue" stroke="midnightblue" points="463.844,-337.616 454.665,-342.906 465.14,-344.495 463.844,-337.616"/>
</g>
<!-- Node17&#45;&gt;Node15 -->
<g id="edge21" class="edge"><title>Node17&#45;&gt;Node15</title>
<path fill="none" stroke="midnightblue" d="M447.378,-274.92C449.293,-260.495 453.915,-241.175 465.04,-228 480.377,-209.836 504.635,-198.386 524.799,-191.516"/>
<polygon fill="midnightblue" stroke="midnightblue" points="443.86,-274.93 446.351,-285.228 450.825,-275.625 443.86,-274.93"/>
</g>
<!-- Node18 -->
<g id="node15" class="node"><title>Node18</title>
<g id="a_node15"><a xlink:href="KTraceLogger_8cc.html" target="_top" xlink:title="Definition of loom::KTraceLogger. ">
<polygon fill="none" stroke="black" points="474.54,-228.5 474.54,-248.5 599.54,-248.5 599.54,-228.5 474.54,-228.5"/>
<text text-anchor="middle" x="537.04" y="-235.7" font-family="Avenir-Book" font-size="11.00">src/KTraceLogger.cc</text>
</a>
</g>
</g>
<!-- Node17&#45;&gt;Node18 -->
<g id="edge20" class="edge"><title>Node17&#45;&gt;Node18</title>
<path fill="none" stroke="midnightblue" d="M469.648,-280.231C486.173,-270.243 507.757,-257.199 521.991,-248.596"/>
<polygon fill="midnightblue" stroke="midnightblue" points="467.814,-277.25 461.067,-285.418 471.435,-283.241 467.814,-277.25"/>
</g>
</g>
</svg>
        <g id="navigator" transform="translate(0 0)" fill="#404254">
                <rect fill="#f2f5e9" fill-opacity="0.5" stroke="#606060" stroke-width=".5" x="0" y="0" width="60" height="60"/>
                <use id="zoomplus" xlink:href="#zoomPlus" x="17" y="9" onmousedown="handleZoom(evt,'in')"/>
                <use id="zoomminus" xlink:href="#zoomMin" x="42" y="9" onmousedown="handleZoom(evt,'out')"/>
                <use id="reset" xlink:href="#resetDef" x="30" y="36" onmousedown="handleReset()"/>
                <g id="arrowUp" xlink:href="#dirArrow" transform="translate(30 24)" onmousedown="handlePan(0,-1)">
                  <use xlink:href="#rim" fill="#404040">
                        <set attributeName="fill" to="#808080" begin="arrowUp.mouseover" end="arrowUp.mouseout"/>
                  </use>
                  <path fill="none" stroke="white" stroke-width="1.5" d="M0,-3.0v7 M-2.5,-0.5L0,-3.0L2.5,-0.5"/>
                </g>
                <g id="arrowRight" xlink:href="#dirArrow" transform="rotate(90) translate(36 -43)" onmousedown="handlePan(1,0)">
                  <use xlink:href="#rim" fill="#404040">
                        <set attributeName="fill" to="#808080" begin="arrowRight.mouseover" end="arrowRight.mouseout"/>
                  </use>
                  <path fill="none" stroke="white" stroke-width="1.5" d="M0,-3.0v7 M-2.5,-0.5L0,-3.0L2.5,-0.5"/>
                </g>
                <g id="arrowDown" xlink:href="#dirArrow" transform="rotate(180) translate(-30 -48)" onmousedown="handlePan(0,1)">
                  <use xlink:href="#rim" fill="#404040">
                        <set attributeName="fill" to="#808080" begin="arrowDown.mouseover" end="arrowDown.mouseout"/>
                  </use>
                  <path fill="none" stroke="white" stroke-width="1.5" d="M0,-3.0v7 M-2.5,-0.5L0,-3.0L2.5,-0.5"/>
                </g>
                <g id="arrowLeft" xlink:href="#dirArrow" transform="rotate(270) translate(-36 17)" onmousedown="handlePan(-1,0)">
                  <use xlink:href="#rim" fill="#404040">
                        <set attributeName="fill" to="#808080" begin="arrowLeft.mouseover" end="arrowLeft.mouseout"/>
                  </use>
                  <path fill="none" stroke="white" stroke-width="1.5" d="M0,-3.0v7 M-2.5,-0.5L0,-3.0L2.5,-0.5"/>
                </g>
        </g>
        <svg viewBox="0 0 15 15" width="100%" height="30px" preserveAspectRatio="xMaxYMin meet">
         <g id="arrow_out" transform="scale(0.3 0.3)">
          <a xlink:href="IRUtils_8hh__dep__incl_org.svg" target="_base">
           <rect id="button" ry="5" rx="5" y="6" x="6" height="38" width="38"
                fill="#f2f5e9" fill-opacity="0.5" stroke="#606060" stroke-width="1.0"/>
           <path id="arrow"
             d="M 11.500037,31.436501 C 11.940474,20.09759 22.043105,11.32322 32.158766,21.979434 L 37.068811,17.246167 C 37.068811,17.246167 37.088388,32 37.088388,32 L 22.160133,31.978069 C 22.160133,31.978069 26.997745,27.140456 26.997745,27.140456 C 18.528582,18.264221 13.291696,25.230495 11.500037,31.436501 z"
             style="fill:#404040;"/>
          </a>
         </g>
        </svg>
</svg>
