<?xml version="1.0" encoding="UTF-8" standalone="no"?>
<!DOCTYPE svg PUBLIC "-//W3C//DTD SVG 1.1//EN"
 "http://www.w3.org/Graphics/SVG/1.1/DTD/svg11.dtd">
<!-- Generated by graphviz version 2.38.0 (20140413.2041)
 -->
<!-- Title: src/KTraceLogger.cc Pages: 1 -->
<svg width="671pt" height="257pt"
 viewBox="0.00 0.00 671.50 257.00" xmlns="http://www.w3.org/2000/svg" xmlns:xlink="http://www.w3.org/1999/xlink">
<g id="graph0" class="graph" transform="scale(1 1) rotate(0) translate(4 253)">
<title>src/KTraceLogger.cc</title>
<!-- Node0 -->
<g id="node1" class="node"><title>Node0</title>
<polygon fill="#bfbfbf" stroke="black" points="347.5,-228.5 347.5,-248.5 472.5,-248.5 472.5,-228.5 347.5,-228.5"/>
<text text-anchor="middle" x="410" y="-235.7" font-family="Avenir-Book" font-size="11.00">src/KTraceLogger.cc</text>
</g>
<!-- Node1 -->
<g id="node2" class="node"><title>Node1</title>
<g id="a_node2"><a xlink:href="KTraceLogger_8hh.html" target="_top" xlink:title="Declaration of loom::KTraceLogger. ">
<polygon fill="none" stroke="black" points="184.5,-171.5 184.5,-191.5 291.5,-191.5 291.5,-171.5 184.5,-171.5"/>
<text text-anchor="middle" x="238" y="-178.7" font-family="Avenir-Book" font-size="11.00">KTraceLogger.hh</text>
</a>
</g>
</g>
<!-- Node0&#45;&gt;Node1 -->
<g id="edge1" class="edge"><title>Node0&#45;&gt;Node1</title>
<path fill="none" stroke="midnightblue" d="M381.598,-228.418C352.755,-219.195 307.915,-204.857 276.022,-194.658"/>
<polygon fill="midnightblue" stroke="midnightblue" points="276.75,-191.216 266.159,-191.504 274.617,-197.884 276.75,-191.216"/>
</g>
<!-- Node8 -->
<g id="node9" class="node"><title>Node8</title>
<g id="a_node9"><a xlink:href="Serializer_8hh.html" target="_top" xlink:title="Declaration of loom::Serializer. ">
<polygon fill="none" stroke="black" points="312.5,-171.5 312.5,-191.5 395.5,-191.5 395.5,-171.5 312.5,-171.5"/>
<text text-anchor="middle" x="354" y="-178.7" font-family="Avenir-Book" font-size="11.00">Serializer.hh</text>
</a>
</g>
</g>
<!-- Node0&#45;&gt;Node8 -->
<g id="edge9" class="edge"><title>Node0&#45;&gt;Node8</title>
<path fill="none" stroke="midnightblue" d="M400.753,-228.418C392.615,-220.425 380.565,-208.59 370.737,-198.938"/>
<polygon fill="midnightblue" stroke="midnightblue" points="373.035,-196.289 363.448,-191.779 368.13,-201.284 373.035,-196.289"/>
</g>
<!-- Node10 -->
<g id="node11" class="node"><title>Node10</title>
<polygon fill="none" stroke="#bfbfbf" points="413.5,-171.5 413.5,-191.5 518.5,-191.5 518.5,-171.5 413.5,-171.5"/>
<text text-anchor="middle" x="466" y="-178.7" font-family="Avenir-Book" font-size="11.00">llvm/IR/Module.h</text>
</g>
<!-- Node0&#45;&gt;Node10 -->
<g id="edge12" class="edge"><title>Node0&#45;&gt;Node10</title>
<path fill="none" stroke="midnightblue" d="M419.247,-228.418C427.385,-220.425 439.435,-208.59 449.263,-198.938"/>
<polygon fill="midnightblue" stroke="midnightblue" points="451.87,-201.284 456.552,-191.779 446.965,-196.289 451.87,-201.284"/>
</g>
<!-- Node11 -->
<g id="node12" class="node"><title>Node11</title>
<polygon fill="none" stroke="#bfbfbf" points="536.5,-171.5 536.5,-191.5 663.5,-191.5 663.5,-171.5 536.5,-171.5"/>
<text text-anchor="middle" x="600" y="-178.7" font-family="Avenir-Book" font-size="11.00">llvm/IR/TypeBuilder.h</text>
</g>
<!-- Node0&#45;&gt;Node11 -->
<g id="edge13" class="edge"><title>Node0&#45;&gt;Node11</title>
<path fill="none" stroke="midnightblue" d="M441.375,-228.418C473.512,-219.115 523.627,-204.608 558.911,-194.394"/>
<polygon fill="midnightblue" stroke="midnightblue" points="560.262,-197.647 568.895,-191.504 558.316,-190.923 560.262,-197.647"/>
</g>
<!-- Node2 -->
<g id="node3" class="node"><title>Node2</title>
<g id="a_node3"><a xlink:href="Logger_8hh.html" target="_top" xlink:title="Declaration of loom::Logger. ">
<polygon fill="none" stroke="black" points="200.5,-114.5 200.5,-134.5 271.5,-134.5 271.5,-114.5 200.5,-114.5"/>
<text text-anchor="middle" x="236" y="-121.7" font-family="Avenir-Book" font-size="11.00">Logger.hh</text>
</a>
</g>
</g>
<!-- Node1&#45;&gt;Node2 -->
<g id="edge2" class="edge"><title>Node1&#45;&gt;Node2</title>
<path fill="none" stroke="midnightblue" d="M237.67,-171.418C237.408,-164.216 237.033,-153.896 236.704,-144.863"/>
<polygon fill="midnightblue" stroke="midnightblue" points="240.199,-144.646 236.337,-134.779 233.203,-144.9 240.199,-144.646"/>
</g>
<!-- Node3 -->
<g id="node4" class="node"><title>Node3</title>
<g id="a_node4"><a xlink:href="IRUtils_8hh.html" target="_top" xlink:title="Declarations of LLVM IR utility functions. ">
<polygon fill="none" stroke="black" points="138.5,-57.5 138.5,-77.5 205.5,-77.5 205.5,-57.5 138.5,-57.5"/>
<text text-anchor="middle" x="172" y="-64.7" font-family="Avenir-Book" font-size="11.00">IRUtils.hh</text>
</a>
</g>
</g>
<!-- Node2&#45;&gt;Node3 -->
<g id="edge3" class="edge"><title>Node2&#45;&gt;Node3</title>
<path fill="none" stroke="midnightblue" d="M225.432,-114.418C215.947,-106.267 201.813,-94.1201 190.463,-84.3669"/>
<polygon fill="midnightblue" stroke="midnightblue" points="192.663,-81.6427 182.798,-77.7795 188.101,-86.9516 192.663,-81.6427"/>
</g>
<!-- Node5 -->
<g id="node6" class="node"><title>Node5</title>
<polygon fill="none" stroke="#bfbfbf" points="216,-0.5 216,-20.5 328,-20.5 328,-0.5 216,-0.5"/>
<text text-anchor="middle" x="272" y="-7.7" font-family="Avenir-Book" font-size="11.00">llvm/IR/IRBuilder.h</text>
</g>
<!-- Node2&#45;&gt;Node5 -->
<g id="edge7" class="edge"><title>Node2&#45;&gt;Node5</title>
<path fill="none" stroke="midnightblue" d="M237.898,-114.344C240.679,-101.408 246.269,-77.1148 253,-57 256.018,-47.9815 259.995,-38.2218 263.53,-30.0624"/>
<polygon fill="midnightblue" stroke="midnightblue" points="266.801,-31.319 267.666,-20.7595 260.405,-28.4752 266.801,-31.319"/>
</g>
<!-- Node7 -->
<g id="node8" class="node"><title>Node7</title>
<polygon fill="none" stroke="#bfbfbf" points="262.5,-57.5 262.5,-77.5 325.5,-77.5 325.5,-57.5 262.5,-57.5"/>
<text text-anchor="middle" x="294" y="-64.7" font-family="Avenir-Book" font-size="11.00">memory</text>
</g>
<!-- Node2&#45;&gt;Node7 -->
<g id="edge8" class="edge"><title>Node2&#45;&gt;Node7</title>
<path fill="none" stroke="midnightblue" d="M245.578,-114.418C254.006,-106.425 266.487,-94.5903 276.666,-84.9377"/>
<polygon fill="midnightblue" stroke="midnightblue" points="279.366,-87.2001 284.214,-77.7795 274.55,-82.1207 279.366,-87.2001"/>
</g>
<!-- Node4 -->
<g id="node5" class="node"><title>Node4</title>
<polygon fill="none" stroke="#bfbfbf" points="0,-0.5 0,-20.5 128,-20.5 128,-0.5 0,-0.5"/>
<text text-anchor="middle" x="64" y="-7.7" font-family="Avenir-Book" font-size="11.00">llvm/ADT/StringRef.h</text>
</g>
<!-- Node3&#45;&gt;Node4 -->
<g id="edge4" class="edge"><title>Node3&#45;&gt;Node4</title>
<path fill="none" stroke="midnightblue" d="M154.166,-57.4179C136.969,-48.6603 110.716,-35.2907 90.9657,-25.2326"/>
<polygon fill="midnightblue" stroke="midnightblue" points="92.3599,-22.0148 81.8605,-20.5956 89.1832,-28.2526 92.3599,-22.0148"/>
</g>
<!-- Node3&#45;&gt;Node5 -->
<g id="edge5" class="edge"><title>Node3&#45;&gt;Node5</title>
<path fill="none" stroke="midnightblue" d="M188.513,-57.4179C204.291,-48.7399 228.303,-35.5334 246.531,-25.5077"/>
<polygon fill="midnightblue" stroke="midnightblue" points="248.387,-28.4816 255.463,-20.5956 245.014,-22.3481 248.387,-28.4816"/>
</g>
<!-- Node6 -->
<g id="node7" class="node"><title>Node6</title>
<polygon fill="none" stroke="#bfbfbf" points="146.5,-0.5 146.5,-20.5 197.5,-20.5 197.5,-0.5 146.5,-0.5"/>
<text text-anchor="middle" x="172" y="-7.7" font-family="Avenir-Book" font-size="11.00">vector</text>
</g>
<!-- Node3&#45;&gt;Node6 -->
<g id="edge6" class="edge"><title>Node3&#45;&gt;Node6</title>
<path fill="none" stroke="midnightblue" d="M172,-57.4179C172,-50.2164 172,-39.8962 172,-30.8632"/>
<polygon fill="midnightblue" stroke="midnightblue" points="175.5,-30.7794 172,-20.7795 168.5,-30.7795 175.5,-30.7794"/>
</g>
<!-- Node8&#45;&gt;Node5 -->
<g id="edge11" class="edge"><title>Node8&#45;&gt;Node5</title>
<path fill="none" stroke="midnightblue" d="M354.763,-171.329C356.113,-149.682 356.9,-94.4246 334,-57 325.925,-43.8036 312.458,-33.2315 300.134,-25.6116"/>
<polygon fill="midnightblue" stroke="midnightblue" points="301.864,-22.5691 291.456,-20.5897 298.358,-28.6278 301.864,-22.5691"/>
</g>
<!-- Node9 -->
<g id="node10" class="node"><title>Node9</title>
<polygon fill="none" stroke="#bfbfbf" points="382.5,-114.5 382.5,-134.5 507.5,-134.5 507.5,-114.5 382.5,-114.5"/>
<text text-anchor="middle" x="445" y="-121.7" font-family="Avenir-Book" font-size="11.00">llvm/ADT/ArrayRef.h</text>
</g>
<!-- Node8&#45;&gt;Node9 -->
<g id="edge10" class="edge"><title>Node8&#45;&gt;Node9</title>
<path fill="none" stroke="midnightblue" d="M369.027,-171.418C383.253,-162.82 404.835,-149.775 421.366,-139.784"/>
<polygon fill="midnightblue" stroke="midnightblue" points="423.203,-142.764 429.951,-134.596 419.582,-136.773 423.203,-142.764"/>
</g>
</g>
</svg>
