<?xml version="1.0" encoding="UTF-8" standalone="no"?>
<!DOCTYPE svg PUBLIC "-//W3C//DTD SVG 1.1//EN"
 "http://www.w3.org/Graphics/SVG/1.1/DTD/svg11.dtd">
<!-- Generated by graphviz version 2.38.0 (20140413.2041)
 -->
<!-- Title: src/KTraceLogger.hh Pages: 1 -->
<svg width="362pt" height="200pt"
 viewBox="0.00 0.00 361.50 200.00" xmlns="http://www.w3.org/2000/svg" xmlns:xlink="http://www.w3.org/1999/xlink">
<g id="graph0" class="graph" transform="scale(1 1) rotate(0) translate(4 196)">
<title>src/KTraceLogger.hh</title>
<!-- Node0 -->
<g id="node1" class="node"><title>Node0</title>
<polygon fill="#bfbfbf" stroke="black" points="198.5,-171.5 198.5,-191.5 325.5,-191.5 325.5,-171.5 198.5,-171.5"/>
<text text-anchor="middle" x="262" y="-178.7" font-family="Avenir-Book" font-size="11.00">src/KTraceLogger.hh</text>
</g>
<!-- Node1 -->
<g id="node2" class="node"><title>Node1</title>
<g id="a_node2"><a xlink:href="Logger_8hh.html" target="_top" xlink:title="Declaration of loom::Logger. ">
<polygon fill="none" stroke="black" points="226.5,-114.5 226.5,-134.5 297.5,-134.5 297.5,-114.5 226.5,-114.5"/>
<text text-anchor="middle" x="262" y="-121.7" font-family="Avenir-Book" font-size="11.00">Logger.hh</text>
</a>
</g>
</g>
<!-- Node0&#45;&gt;Node1 -->
<g id="edge1" class="edge"><title>Node0&#45;&gt;Node1</title>
<path fill="none" stroke="midnightblue" d="M262,-171.418C262,-164.216 262,-153.896 262,-144.863"/>
<polygon fill="midnightblue" stroke="midnightblue" points="265.5,-144.779 262,-134.779 258.5,-144.779 265.5,-144.779"/>
</g>
<!-- Node2 -->
<g id="node3" class="node"><title>Node2</title>
<g id="a_node3"><a xlink:href="IRUtils_8hh_source.html" target="_top" xlink:title="IRUtils.hh">
<polygon fill="none" stroke="black" points="147.5,-57.5 147.5,-77.5 214.5,-77.5 214.5,-57.5 147.5,-57.5"/>
<text text-anchor="middle" x="181" y="-64.7" font-family="Avenir-Book" font-size="11.00">IRUtils.hh</text>
</a>
</g>
</g>
<!-- Node1&#45;&gt;Node2 -->
<g id="edge2" class="edge"><title>Node1&#45;&gt;Node2</title>
<path fill="none" stroke="midnightblue" d="M248.624,-114.418C236.196,-105.979 217.46,-93.257 202.859,-83.3426"/>
<polygon fill="midnightblue" stroke="midnightblue" points="204.635,-80.3176 194.395,-77.5956 200.702,-86.1088 204.635,-80.3176"/>
</g>
<!-- Node4 -->
<g id="node5" class="node"><title>Node4</title>
<polygon fill="none" stroke="#bfbfbf" points="216,-0.5 216,-20.5 328,-20.5 328,-0.5 216,-0.5"/>
<text text-anchor="middle" x="272" y="-7.7" font-family="Avenir-Book" font-size="11.00">llvm/IR/IRBuilder.h</text>
</g>
<!-- Node1&#45;&gt;Node4 -->
<g id="edge6" class="edge"><title>Node1&#45;&gt;Node4</title>
<path fill="none" stroke="midnightblue" d="M262.818,-114.335C264.437,-96.2039 268.08,-55.4065 270.259,-30.9997"/>
<polygon fill="midnightblue" stroke="midnightblue" points="273.767,-31.0637 271.17,-20.7921 266.795,-30.4412 273.767,-31.0637"/>
</g>
<!-- Node6 -->
<g id="node7" class="node"><title>Node6</title>
<polygon fill="none" stroke="#bfbfbf" points="290.5,-57.5 290.5,-77.5 353.5,-77.5 353.5,-57.5 290.5,-57.5"/>
<text text-anchor="middle" x="322" y="-64.7" font-family="Avenir-Book" font-size="11.00">memory</text>
</g>
<!-- Node1&#45;&gt;Node6 -->
<g id="edge7" class="edge"><title>Node1&#45;&gt;Node6</title>
<path fill="none" stroke="midnightblue" d="M271.908,-114.418C280.714,-106.346 293.794,-94.3556 304.38,-84.6517"/>
<polygon fill="midnightblue" stroke="midnightblue" points="306.87,-87.1168 311.877,-77.7795 302.14,-81.9567 306.87,-87.1168"/>
</g>
<!-- Node3 -->
<g id="node4" class="node"><title>Node3</title>
<polygon fill="none" stroke="#bfbfbf" points="0,-0.5 0,-20.5 128,-20.5 128,-0.5 0,-0.5"/>
<text text-anchor="middle" x="64" y="-7.7" font-family="Avenir-Book" font-size="11.00">llvm/ADT/StringRef.h</text>
</g>
<!-- Node2&#45;&gt;Node3 -->
<g id="edge3" class="edge"><title>Node2&#45;&gt;Node3</title>
<path fill="none" stroke="midnightblue" d="M161.68,-57.4179C142.881,-48.5807 114.091,-35.0473 92.6311,-24.9591"/>
<polygon fill="midnightblue" stroke="midnightblue" points="93.8878,-21.6824 83.3489,-20.5956 90.9098,-28.0174 93.8878,-21.6824"/>
</g>
<!-- Node2&#45;&gt;Node4 -->
<g id="edge4" class="edge"><title>Node2&#45;&gt;Node4</title>
<path fill="none" stroke="midnightblue" d="M196.027,-57.4179C210.253,-48.8195 231.835,-35.7754 248.366,-25.7844"/>
<polygon fill="midnightblue" stroke="midnightblue" points="250.203,-28.7637 256.951,-20.5956 246.582,-22.7729 250.203,-28.7637"/>
</g>
<!-- Node5 -->
<g id="node6" class="node"><title>Node5</title>
<polygon fill="none" stroke="#bfbfbf" points="146.5,-0.5 146.5,-20.5 197.5,-20.5 197.5,-0.5 146.5,-0.5"/>
<text text-anchor="middle" x="172" y="-7.7" font-family="Avenir-Book" font-size="11.00">vector</text>
</g>
<!-- Node2&#45;&gt;Node5 -->
<g id="edge5" class="edge"><title>Node2&#45;&gt;Node5</title>
<path fill="none" stroke="midnightblue" d="M179.514,-57.4179C178.335,-50.2164 176.647,-39.8962 175.169,-30.8632"/>
<polygon fill="midnightblue" stroke="midnightblue" points="178.587,-30.083 173.518,-20.7795 171.679,-31.2134 178.587,-30.083"/>
</g>
</g>
</svg>
