<?xml version="1.0" encoding="UTF-8" standalone="no"?>
<!DOCTYPE svg PUBLIC "-//W3C//DTD SVG 1.1//EN"
 "http://www.w3.org/Graphics/SVG/1.1/DTD/svg11.dtd">
<!-- Generated by graphviz version 2.38.0 (20140413.2041)
 -->
<!-- Title: src/KTraceLogger.hh Pages: 1 -->
<svg width="232pt" height="86pt"
 viewBox="0.00 0.00 231.50 86.00" xmlns="http://www.w3.org/2000/svg" xmlns:xlink="http://www.w3.org/1999/xlink">
<g id="graph0" class="graph" transform="scale(1 1) rotate(0) translate(4 82)">
<title>src/KTraceLogger.hh</title>
<!-- Node7 -->
<g id="node1" class="node"><title>Node7</title>
<polygon fill="#bfbfbf" stroke="black" points="59,-57.5 59,-77.5 186,-77.5 186,-57.5 59,-57.5"/>
<text text-anchor="middle" x="122.5" y="-64.7" font-family="Avenir-Book" font-size="11.00">src/KTraceLogger.hh</text>
</g>
<!-- Node8 -->
<g id="node2" class="node"><title>Node8</title>
<g id="a_node2"><a xlink:href="KTraceLogger_8cc.html" target="_top" xlink:title="Definition of loom::KTraceLogger. ">
<polygon fill="none" stroke="black" points="0,-0.5 0,-20.5 125,-20.5 125,-0.5 0,-0.5"/>
<text text-anchor="middle" x="62.5" y="-7.7" font-family="Avenir-Book" font-size="11.00">src/KTraceLogger.cc</text>
</a>
</g>
</g>
<!-- Node7&#45;&gt;Node8 -->
<g id="edge1" class="edge"><title>Node7&#45;&gt;Node8</title>
<path fill="none" stroke="midnightblue" d="M105.137,-50.5841C94.5921,-40.9177 81.4978,-28.9147 72.623,-20.7795"/>
<polygon fill="midnightblue" stroke="midnightblue" points="102.856,-53.2406 112.592,-57.4179 107.586,-48.0805 102.856,-53.2406"/>
</g>
<!-- Node9 -->
<g id="node3" class="node"><title>Node9</title>
<g id="a_node3"><a xlink:href="Policy_8cc.html" target="_top" xlink:title="Definition of loom::Policy. ">
<polygon fill="none" stroke="black" points="143.5,-0.5 143.5,-20.5 223.5,-20.5 223.5,-0.5 143.5,-0.5"/>
<text text-anchor="middle" x="183.5" y="-7.7" font-family="Avenir-Book" font-size="11.00">src/Policy.cc</text>
</a>
</g>
</g>
<!-- Node7&#45;&gt;Node9 -->
<g id="edge2" class="edge"><title>Node7&#45;&gt;Node9</title>
<path fill="none" stroke="midnightblue" d="M140.152,-50.5841C150.873,-40.9177 164.186,-28.9147 173.208,-20.7795"/>
<polygon fill="midnightblue" stroke="midnightblue" points="137.656,-48.122 132.573,-57.4179 142.344,-53.3209 137.656,-48.122"/>
</g>
</g>
</svg>
