<?xml version="1.0" encoding="UTF-8" standalone="no"?>
<!DOCTYPE svg PUBLIC "-//W3C//DTD SVG 1.1//EN"
 "http://www.w3.org/Graphics/SVG/1.1/DTD/svg11.dtd">
<!-- Generated by graphviz version 2.38.0 (20140413.2041)
 -->
<!-- Title: src/Logger.cc Pages: 1 -->
<svg width="654pt" height="200pt"
 viewBox="0.00 0.00 654.00 200.00" xmlns="http://www.w3.org/2000/svg" xmlns:xlink="http://www.w3.org/1999/xlink">
<g id="graph0" class="graph" transform="scale(1 1) rotate(0) translate(4 196)">
<title>src/Logger.cc</title>
<!-- Node0 -->
<g id="node1" class="node"><title>Node0</title>
<polygon fill="#bfbfbf" stroke="black" points="390.5,-171.5 390.5,-191.5 479.5,-191.5 479.5,-171.5 390.5,-171.5"/>
<text text-anchor="middle" x="435" y="-178.7" font-family="Avenir-Book" font-size="11.00">src/Logger.cc</text>
</g>
<!-- Node1 -->
<g id="node2" class="node"><title>Node1</title>
<g id="a_node2"><a xlink:href="Logger_8hh.html" target="_top" xlink:title="Declaration of loom::Logger. ">
<polygon fill="none" stroke="black" points="226.5,-114.5 226.5,-134.5 297.5,-134.5 297.5,-114.5 226.5,-114.5"/>
<text text-anchor="middle" x="262" y="-121.7" font-family="Avenir-Book" font-size="11.00">Logger.hh</text>
</a>
</g>
</g>
<!-- Node0&#45;&gt;Node1 -->
<g id="edge1" class="edge"><title>Node0&#45;&gt;Node1</title>
<path fill="none" stroke="midnightblue" d="M406.433,-171.418C377.422,-162.195 332.322,-147.857 300.243,-137.658"/>
<polygon fill="midnightblue" stroke="midnightblue" points="300.913,-134.199 290.322,-134.504 298.792,-140.87 300.913,-134.199"/>
</g>
<!-- Node7 -->
<g id="node8" class="node"><title>Node7</title>
<polygon fill="none" stroke="#bfbfbf" points="315.5,-114.5 315.5,-134.5 420.5,-134.5 420.5,-114.5 315.5,-114.5"/>
<text text-anchor="middle" x="368" y="-121.7" font-family="Avenir-Book" font-size="11.00">llvm/IR/Module.h</text>
</g>
<!-- Node0&#45;&gt;Node7 -->
<g id="edge8" class="edge"><title>Node0&#45;&gt;Node7</title>
<path fill="none" stroke="midnightblue" d="M423.936,-171.418C414.007,-163.267 399.21,-151.12 387.329,-141.367"/>
<polygon fill="midnightblue" stroke="midnightblue" points="389.254,-138.419 379.304,-134.779 384.813,-143.83 389.254,-138.419"/>
</g>
<!-- Node8 -->
<g id="node9" class="node"><title>Node8</title>
<polygon fill="none" stroke="#bfbfbf" points="438.5,-114.5 438.5,-134.5 565.5,-134.5 565.5,-114.5 438.5,-114.5"/>
<text text-anchor="middle" x="502" y="-121.7" font-family="Avenir-Book" font-size="11.00">llvm/IR/TypeBuilder.h</text>
</g>
<!-- Node0&#45;&gt;Node8 -->
<g id="edge9" class="edge"><title>Node0&#45;&gt;Node8</title>
<path fill="none" stroke="midnightblue" d="M446.064,-171.418C455.993,-163.267 470.79,-151.12 482.671,-141.367"/>
<polygon fill="midnightblue" stroke="midnightblue" points="485.187,-143.83 490.696,-134.779 480.746,-138.419 485.187,-143.83"/>
</g>
<!-- Node9 -->
<g id="node10" class="node"><title>Node9</title>
<polygon fill="none" stroke="#bfbfbf" points="584,-114.5 584,-134.5 646,-134.5 646,-114.5 584,-114.5"/>
<text text-anchor="middle" x="615" y="-121.7" font-family="Avenir-Book" font-size="11.00">sstream</text>
</g>
<!-- Node0&#45;&gt;Node9 -->
<g id="edge10" class="edge"><title>Node0&#45;&gt;Node9</title>
<path fill="none" stroke="midnightblue" d="M464.723,-171.418C495.038,-162.155 542.239,-147.732 575.642,-137.526"/>
<polygon fill="midnightblue" stroke="midnightblue" points="576.991,-140.774 585.532,-134.504 574.945,-134.079 576.991,-140.774"/>
</g>
<!-- Node2 -->
<g id="node3" class="node"><title>Node2</title>
<g id="a_node3"><a xlink:href="IRUtils_8hh.html" target="_top" xlink:title="Declarations of LLVM IR utility functions. ">
<polygon fill="none" stroke="black" points="147.5,-57.5 147.5,-77.5 214.5,-77.5 214.5,-57.5 147.5,-57.5"/>
<text text-anchor="middle" x="181" y="-64.7" font-family="Avenir-Book" font-size="11.00">IRUtils.hh</text>
</a>
</g>
</g>
<!-- Node1&#45;&gt;Node2 -->
<g id="edge2" class="edge"><title>Node1&#45;&gt;Node2</title>
<path fill="none" stroke="midnightblue" d="M248.624,-114.418C236.196,-105.979 217.46,-93.257 202.859,-83.3426"/>
<polygon fill="midnightblue" stroke="midnightblue" points="204.635,-80.3176 194.395,-77.5956 200.702,-86.1088 204.635,-80.3176"/>
</g>
<!-- Node4 -->
<g id="node5" class="node"><title>Node4</title>
<polygon fill="none" stroke="#bfbfbf" points="216,-0.5 216,-20.5 328,-20.5 328,-0.5 216,-0.5"/>
<text text-anchor="middle" x="272" y="-7.7" font-family="Avenir-Book" font-size="11.00">llvm/IR/IRBuilder.h</text>
</g>
<!-- Node1&#45;&gt;Node4 -->
<g id="edge6" class="edge"><title>Node1&#45;&gt;Node4</title>
<path fill="none" stroke="midnightblue" d="M262.818,-114.335C264.437,-96.2039 268.08,-55.4065 270.259,-30.9997"/>
<polygon fill="midnightblue" stroke="midnightblue" points="273.767,-31.0637 271.17,-20.7921 266.795,-30.4412 273.767,-31.0637"/>
</g>
<!-- Node6 -->
<g id="node7" class="node"><title>Node6</title>
<polygon fill="none" stroke="#bfbfbf" points="290.5,-57.5 290.5,-77.5 353.5,-77.5 353.5,-57.5 290.5,-57.5"/>
<text text-anchor="middle" x="322" y="-64.7" font-family="Avenir-Book" font-size="11.00">memory</text>
</g>
<!-- Node1&#45;&gt;Node6 -->
<g id="edge7" class="edge"><title>Node1&#45;&gt;Node6</title>
<path fill="none" stroke="midnightblue" d="M271.908,-114.418C280.714,-106.346 293.794,-94.3556 304.38,-84.6517"/>
<polygon fill="midnightblue" stroke="midnightblue" points="306.87,-87.1168 311.877,-77.7795 302.14,-81.9567 306.87,-87.1168"/>
</g>
<!-- Node3 -->
<g id="node4" class="node"><title>Node3</title>
<polygon fill="none" stroke="#bfbfbf" points="0,-0.5 0,-20.5 128,-20.5 128,-0.5 0,-0.5"/>
<text text-anchor="middle" x="64" y="-7.7" font-family="Avenir-Book" font-size="11.00">llvm/ADT/StringRef.h</text>
</g>
<!-- Node2&#45;&gt;Node3 -->
<g id="edge3" class="edge"><title>Node2&#45;&gt;Node3</title>
<path fill="none" stroke="midnightblue" d="M161.68,-57.4179C142.881,-48.5807 114.091,-35.0473 92.6311,-24.9591"/>
<polygon fill="midnightblue" stroke="midnightblue" points="93.8878,-21.6824 83.3489,-20.5956 90.9098,-28.0174 93.8878,-21.6824"/>
</g>
<!-- Node2&#45;&gt;Node4 -->
<g id="edge4" class="edge"><title>Node2&#45;&gt;Node4</title>
<path fill="none" stroke="midnightblue" d="M196.027,-57.4179C210.253,-48.8195 231.835,-35.7754 248.366,-25.7844"/>
<polygon fill="midnightblue" stroke="midnightblue" points="250.203,-28.7637 256.951,-20.5956 246.582,-22.7729 250.203,-28.7637"/>
</g>
<!-- Node5 -->
<g id="node6" class="node"><title>Node5</title>
<polygon fill="none" stroke="#bfbfbf" points="146.5,-0.5 146.5,-20.5 197.5,-20.5 197.5,-0.5 146.5,-0.5"/>
<text text-anchor="middle" x="172" y="-7.7" font-family="Avenir-Book" font-size="11.00">vector</text>
</g>
<!-- Node2&#45;&gt;Node5 -->
<g id="edge5" class="edge"><title>Node2&#45;&gt;Node5</title>
<path fill="none" stroke="midnightblue" d="M179.514,-57.4179C178.335,-50.2164 176.647,-39.8962 175.169,-30.8632"/>
<polygon fill="midnightblue" stroke="midnightblue" points="178.587,-30.083 173.518,-20.7795 171.679,-31.2134 178.587,-30.083"/>
</g>
</g>
</svg>
