<?xml version="1.0" encoding="UTF-8" standalone="no"?>
<!DOCTYPE svg PUBLIC "-//W3C//DTD SVG 1.1//EN"
 "http://www.w3.org/Graphics/SVG/1.1/DTD/svg11.dtd">
<!-- Generated by graphviz version 2.38.0 (20140413.2041)
 -->
<!-- Title: src/Logger.hh Pages: 1 -->
<!--zoomable 371 -->
<svg id="main" version="1.1" xmlns="http://www.w3.org/2000/svg" xmlns:xlink="http://www.w3.org/1999/xlink" xml:space="preserve" onload="init(evt)">
<style type="text/css"><![CDATA[
.edge:hover path { stroke: red; }
.edge:hover polygon { stroke: red; fill: red; }
]]></style>
<script type="text/javascript"><![CDATA[
var edges = document.getElementsByTagName('g');
if (edges && edges.length) {
  for (var i=0;i<edges.length;i++) {
    if (edges[i].id.substr(0,4)=='edge') {
      edges[i].setAttribute('class','edge');
    }
  }
}
]]></script>
        <defs>
                <circle id="rim" cx="0" cy="0" r="7"/>
                <circle id="rim2" cx="0" cy="0" r="3.5"/>
                <g id="zoomPlus">
                        <use xlink:href="#rim" fill="#404040">
                                <set attributeName="fill" to="#808080" begin="zoomplus.mouseover" end="zoomplus.mouseout"/>
                        </use>
                        <path d="M-4,0h8M0,-4v8" fill="none" stroke="white" stroke-width="1.5" pointer-events="none"/>
                </g>
                <g id="zoomMin">
                        <use xlink:href="#rim" fill="#404040">
                                <set attributeName="fill" to="#808080" begin="zoomminus.mouseover" end="zoomminus.mouseout"/>
                        </use>
                        <path d="M-4,0h8" fill="none" stroke="white" stroke-width="1.5" pointer-events="none"/>
                </g>
                <g id="dirArrow">
                        <path fill="none" stroke="white" stroke-width="1.5" d="M0,-3.0v7 M-2.5,-0.5L0,-3.0L2.5,-0.5"/>
                </g>
               <g id="resetDef">
                       <use xlink:href="#rim2" fill="#404040">
                               <set attributeName="fill" to="#808080" begin="reset.mouseover" end="reset.mouseout"/>
                       </use>
               </g>
        </defs>

<script type="text/javascript">
var viewWidth = 720;
var viewHeight = 371;
var sectionId = 'dynsection-1';
</script>
<script xlink:href="svgpan.js"/>
<svg id="graph" class="graph">
<g id="viewport">
<title>src/Logger.hh</title>
<!-- Node6 -->
<g id="node1" class="node"><title>Node6</title>
<polygon fill="#bfbfbf" stroke="black" points="502.5,-342.5 502.5,-362.5 593.5,-362.5 593.5,-342.5 502.5,-342.5"/>
<text text-anchor="middle" x="548" y="-349.7" font-family="Avenir-Book" font-size="11.00">src/Logger.hh</text>
</g>
<!-- Node7 -->
<g id="node2" class="node"><title>Node7</title>
<g id="a_node2"><a xlink:href="InstrStrategy_8hh.html" target="_top" xlink:title="Declaration of loom::InstrStrategy. ">
<polygon fill="none" stroke="black" points="210,-285.5 210,-305.5 334,-305.5 334,-285.5 210,-285.5"/>
<text text-anchor="middle" x="272" y="-292.7" font-family="Avenir-Book" font-size="11.00">src/InstrStrategy.hh</text>
</a>
</g>
</g>
<!-- Node6&#45;&gt;Node7 -->
<g id="edge1" class="edge"><title>Node6&#45;&gt;Node7</title>
<path fill="none" stroke="midnightblue" d="M492.771,-340.494C441.254,-330.228 365.331,-315.099 317.291,-305.525"/>
<polygon fill="midnightblue" stroke="midnightblue" points="492.242,-343.958 502.733,-342.479 493.61,-337.093 492.242,-343.958"/>
</g>
<!-- Node12 -->
<g id="node7" class="node"><title>Node12</title>
<g id="a_node7"><a xlink:href="Instrumenter_8cc.html" target="_top" xlink:title="Definition of loom::Instrumenter. ">
<polygon fill="none" stroke="black" points="409.5,-0.5 409.5,-20.5 532.5,-20.5 532.5,-0.5 409.5,-0.5"/>
<text text-anchor="middle" x="471" y="-7.7" font-family="Avenir-Book" font-size="11.00">src/Instrumenter.cc</text>
</a>
</g>
</g>
<!-- Node6&#45;&gt;Node12 -->
<g id="edge16" class="edge"><title>Node6&#45;&gt;Node12</title>
<path fill="none" stroke="midnightblue" d="M560.303,-333.833C573.929,-312.501 594,-275.046 594,-239.5 594,-239.5 594,-239.5 594,-123.5 594,-70.5042 530.803,-35.9375 495.008,-20.6092"/>
<polygon fill="midnightblue" stroke="midnightblue" points="557.207,-332.168 554.591,-342.435 563.038,-336.041 557.207,-332.168"/>
</g>
<!-- Node18 -->
<g id="node13" class="node"><title>Node18</title>
<g id="a_node13"><a xlink:href="KTraceLogger_8hh.html" target="_top" xlink:title="Declaration of loom::KTraceLogger. ">
<polygon fill="none" stroke="black" points="438.5,-285.5 438.5,-305.5 565.5,-305.5 565.5,-285.5 438.5,-285.5"/>
<text text-anchor="middle" x="502" y="-292.7" font-family="Avenir-Book" font-size="11.00">src/KTraceLogger.hh</text>
</a>
</g>
</g>
<!-- Node6&#45;&gt;Node18 -->
<g id="edge17" class="edge"><title>Node6&#45;&gt;Node18</title>
<path fill="none" stroke="midnightblue" d="M533.97,-334.725C526.016,-325.215 516.365,-313.675 509.761,-305.779"/>
<polygon fill="midnightblue" stroke="midnightblue" points="531.304,-336.993 540.404,-342.418 536.673,-332.502 531.304,-336.993"/>
</g>
<!-- Node20 -->
<g id="node15" class="node"><title>Node20</title>
<g id="a_node15"><a xlink:href="Logger_8cc.html" target="_top" xlink:title="Definition of loom::Logger. ">
<polygon fill="none" stroke="black" points="622.5,-285.5 622.5,-305.5 711.5,-305.5 711.5,-285.5 622.5,-285.5"/>
<text text-anchor="middle" x="667" y="-292.7" font-family="Avenir-Book" font-size="11.00">src/Logger.cc</text>
</a>
</g>
</g>
<!-- Node6&#45;&gt;Node20 -->
<g id="edge20" class="edge"><title>Node6&#45;&gt;Node20</title>
<path fill="none" stroke="midnightblue" d="M576.793,-338.192C598.643,-328.094 628.103,-314.477 647.32,-305.596"/>
<polygon fill="midnightblue" stroke="midnightblue" points="575.259,-335.045 567.65,-342.418 578.196,-341.399 575.259,-335.045"/>
</g>
<!-- Node8 -->
<g id="node3" class="node"><title>Node8</title>
<g id="a_node3"><a xlink:href="Instrumentation_8hh.html" target="_top" xlink:title="Declaration of loom::Instrumentation. ">
<polygon fill="none" stroke="black" points="138.5,-114.5 138.5,-134.5 279.5,-134.5 279.5,-114.5 138.5,-114.5"/>
<text text-anchor="middle" x="209" y="-121.7" font-family="Avenir-Book" font-size="11.00">src/Instrumentation.hh</text>
</a>
</g>
</g>
<!-- Node7&#45;&gt;Node8 -->
<g id="edge2" class="edge"><title>Node7&#45;&gt;Node8</title>
<path fill="none" stroke="midnightblue" d="M264.959,-275.611C251.447,-239.364 222.339,-161.282 212.404,-134.631"/>
<polygon fill="midnightblue" stroke="midnightblue" points="261.84,-277.266 268.613,-285.414 268.399,-274.821 261.84,-277.266"/>
</g>
<!-- Node9 -->
<g id="node4" class="node"><title>Node9</title>
<g id="a_node4"><a xlink:href="InstrStrategy_8cc.html" target="_top" xlink:title="Definition of loom::InstrStrategy. ">
<polygon fill="none" stroke="black" points="0,-57.5 0,-77.5 122,-77.5 122,-57.5 0,-57.5"/>
<text text-anchor="middle" x="61" y="-64.7" font-family="Avenir-Book" font-size="11.00">src/InstrStrategy.cc</text>
</a>
</g>
</g>
<!-- Node7&#45;&gt;Node9 -->
<g id="edge15" class="edge"><title>Node7&#45;&gt;Node9</title>
<path fill="none" stroke="midnightblue" d="M256.566,-277.969C214.925,-233.368 101.276,-111.639 69.4078,-77.5055"/>
<polygon fill="midnightblue" stroke="midnightblue" points="254.085,-280.44 263.467,-285.361 259.201,-275.663 254.085,-280.44"/>
</g>
<!-- Node14 -->
<g id="node9" class="node"><title>Node14</title>
<g id="a_node9"><a xlink:href="Policy_8hh.html" target="_top" xlink:title="Definition of loom::Policy. ">
<polygon fill="none" stroke="black" points="282,-228.5 282,-248.5 364,-248.5 364,-228.5 282,-228.5"/>
<text text-anchor="middle" x="323" y="-235.7" font-family="Avenir-Book" font-size="11.00">src/Policy.hh</text>
</a>
</g>
</g>
<!-- Node7&#45;&gt;Node14 -->
<g id="edge8" class="edge"><title>Node7&#45;&gt;Node14</title>
<path fill="none" stroke="midnightblue" d="M287.288,-278.013C296.157,-268.449 307,-256.755 314.395,-248.779"/>
<polygon fill="midnightblue" stroke="midnightblue" points="284.655,-275.705 280.422,-285.418 289.787,-280.465 284.655,-275.705"/>
</g>
<!-- Node8&#45;&gt;Node9 -->
<g id="edge3" class="edge"><title>Node8&#45;&gt;Node9</title>
<path fill="none" stroke="midnightblue" d="M175.004,-110.866C147.665,-100.707 109.911,-86.6765 85.4755,-77.5956"/>
<polygon fill="midnightblue" stroke="midnightblue" points="173.968,-114.215 184.561,-114.418 176.406,-107.654 173.968,-114.215"/>
</g>
<!-- Node10 -->
<g id="node5" class="node"><title>Node10</title>
<g id="a_node5"><a xlink:href="Instrumentation_8cc.html" target="_top" xlink:title="Definition of loom::Instrumentation. ">
<polygon fill="none" stroke="black" points="140,-57.5 140,-77.5 280,-77.5 280,-57.5 140,-57.5"/>
<text text-anchor="middle" x="210" y="-64.7" font-family="Avenir-Book" font-size="11.00">src/Instrumentation.cc</text>
</a>
</g>
</g>
<!-- Node8&#45;&gt;Node10 -->
<g id="edge4" class="edge"><title>Node8&#45;&gt;Node10</title>
<path fill="none" stroke="midnightblue" d="M209.348,-104.383C209.511,-95.3738 209.699,-85.0373 209.831,-77.7795"/>
<polygon fill="midnightblue" stroke="midnightblue" points="205.848,-104.356 209.165,-114.418 212.846,-104.483 205.848,-104.356"/>
</g>
<!-- Node11 -->
<g id="node6" class="node"><title>Node11</title>
<g id="a_node6"><a xlink:href="Instrumenter_8hh.html" target="_top" xlink:title="Declaration of loom::Instrumenter. ">
<polygon fill="none" stroke="black" points="389.5,-57.5 389.5,-77.5 514.5,-77.5 514.5,-57.5 389.5,-57.5"/>
<text text-anchor="middle" x="452" y="-64.7" font-family="Avenir-Book" font-size="11.00">src/Instrumenter.hh</text>
</a>
</g>
</g>
<!-- Node8&#45;&gt;Node11 -->
<g id="edge5" class="edge"><title>Node8&#45;&gt;Node11</title>
<path fill="none" stroke="midnightblue" d="M258.764,-112.237C304.095,-101.976 370.181,-87.0187 412.124,-77.5255"/>
<polygon fill="midnightblue" stroke="midnightblue" points="257.835,-108.858 248.854,-114.479 259.38,-115.685 257.835,-108.858"/>
</g>
<!-- Node11&#45;&gt;Node12 -->
<g id="edge6" class="edge"><title>Node11&#45;&gt;Node12</title>
<path fill="none" stroke="midnightblue" d="M458.502,-47.6796C461.638,-38.6014 465.26,-28.1171 467.794,-20.7795"/>
<polygon fill="midnightblue" stroke="midnightblue" points="455.095,-46.8231 455.137,-57.4179 461.711,-49.1088 455.095,-46.8231"/>
</g>
<!-- Node13 -->
<g id="node8" class="node"><title>Node13</title>
<g id="a_node8"><a xlink:href="OptPass_8cc.html" target="_top" xlink:title="Definition of Loom&#39;s LLVM opt pass. ">
<polygon fill="none" stroke="black" points="270,-0.5 270,-20.5 368,-20.5 368,-0.5 270,-0.5"/>
<text text-anchor="middle" x="319" y="-7.7" font-family="Avenir-Book" font-size="11.00">src/OptPass.cc</text>
</a>
</g>
</g>
<!-- Node11&#45;&gt;Node13 -->
<g id="edge7" class="edge"><title>Node11&#45;&gt;Node13</title>
<path fill="none" stroke="midnightblue" d="M420.475,-53.4633C395.991,-43.3383 362.665,-29.5571 340.995,-20.5956"/>
<polygon fill="midnightblue" stroke="midnightblue" points="419.459,-56.8307 430.038,-57.4179 422.134,-50.362 419.459,-56.8307"/>
</g>
<!-- Node14&#45;&gt;Node11 -->
<g id="edge13" class="edge"><title>Node14&#45;&gt;Node11</title>
<path fill="none" stroke="midnightblue" d="M349.301,-223.332C377.874,-206.404 422.332,-175.248 444,-135 453.922,-116.57 453.846,-91.1806 452.927,-77.7299"/>
<polygon fill="midnightblue" stroke="midnightblue" points="347.553,-220.3 340.632,-228.322 351.045,-226.367 347.553,-220.3"/>
</g>
<!-- Node15 -->
<g id="node10" class="node"><title>Node15</title>
<g id="a_node10"><a xlink:href="PolicyFile_8hh.html" target="_top" xlink:title="Declaration of loom::PolicyFile. ">
<polygon fill="none" stroke="black" points="262.5,-171.5 262.5,-191.5 363.5,-191.5 363.5,-171.5 262.5,-171.5"/>
<text text-anchor="middle" x="313" y="-178.7" font-family="Avenir-Book" font-size="11.00">src/PolicyFile.hh</text>
</a>
</g>
</g>
<!-- Node14&#45;&gt;Node15 -->
<g id="edge9" class="edge"><title>Node14&#45;&gt;Node15</title>
<path fill="none" stroke="midnightblue" d="M319.524,-218.383C317.886,-209.374 316.007,-199.037 314.687,-191.779"/>
<polygon fill="midnightblue" stroke="midnightblue" points="316.116,-219.205 321.349,-228.418 323.003,-217.953 316.116,-219.205"/>
</g>
<!-- Node17 -->
<g id="node12" class="node"><title>Node17</title>
<g id="a_node12"><a xlink:href="Policy_8cc.html" target="_top" xlink:title="Definition of loom::Policy. ">
<polygon fill="none" stroke="black" points="486,-171.5 486,-191.5 566,-191.5 566,-171.5 486,-171.5"/>
<text text-anchor="middle" x="526" y="-178.7" font-family="Avenir-Book" font-size="11.00">src/Policy.cc</text>
</a>
</g>
</g>
<!-- Node14&#45;&gt;Node17 -->
<g id="edge14" class="edge"><title>Node14&#45;&gt;Node17</title>
<path fill="none" stroke="midnightblue" d="M366.248,-225.783C404.083,-215.532 458.244,-200.857 492.766,-191.504"/>
<polygon fill="midnightblue" stroke="midnightblue" points="365.258,-222.425 356.521,-228.418 367.089,-229.181 365.258,-222.425"/>
</g>
<!-- Node15&#45;&gt;Node8 -->
<g id="edge10" class="edge"><title>Node15&#45;&gt;Node8</title>
<path fill="none" stroke="midnightblue" d="M286.803,-166.646C267.82,-156.607 242.692,-143.318 226.199,-134.596"/>
<polygon fill="midnightblue" stroke="midnightblue" points="285.35,-169.837 295.827,-171.418 288.623,-163.649 285.35,-169.837"/>
</g>
<!-- Node15&#45;&gt;Node13 -->
<g id="edge11" class="edge"><title>Node15&#45;&gt;Node13</title>
<path fill="none" stroke="midnightblue" d="M313.687,-161.14C314.981,-124.692 317.734,-47.1671 318.676,-20.6311"/>
<polygon fill="midnightblue" stroke="midnightblue" points="310.18,-161.296 313.323,-171.414 317.175,-161.544 310.18,-161.296"/>
</g>
<!-- Node16 -->
<g id="node11" class="node"><title>Node16</title>
<g id="a_node11"><a xlink:href="PolicyFile_8cc.html" target="_top" xlink:title="Definition of loom::PolicyFile. ">
<polygon fill="none" stroke="black" points="336.5,-114.5 336.5,-134.5 435.5,-134.5 435.5,-114.5 336.5,-114.5"/>
<text text-anchor="middle" x="386" y="-121.7" font-family="Avenir-Book" font-size="11.00">src/PolicyFile.cc</text>
</a>
</g>
</g>
<!-- Node15&#45;&gt;Node16 -->
<g id="edge12" class="edge"><title>Node15&#45;&gt;Node16</title>
<path fill="none" stroke="midnightblue" d="M333.374,-165.15C346.328,-155.39 362.674,-143.074 373.684,-134.779"/>
<polygon fill="midnightblue" stroke="midnightblue" points="330.935,-162.605 325.054,-171.418 335.147,-168.196 330.935,-162.605"/>
</g>
<!-- Node18&#45;&gt;Node17 -->
<g id="edge19" class="edge"><title>Node18&#45;&gt;Node17</title>
<path fill="none" stroke="midnightblue" d="M469.413,-281.158C444.78,-268.998 417.352,-249.669 431,-228 443.085,-208.813 465.751,-197.538 485.913,-191.012"/>
<polygon fill="midnightblue" stroke="midnightblue" points="468.083,-284.399 478.625,-285.457 471.044,-278.056 468.083,-284.399"/>
</g>
<!-- Node19 -->
<g id="node14" class="node"><title>Node19</title>
<g id="a_node14"><a xlink:href="KTraceLogger_8cc.html" target="_top" xlink:title="Definition of loom::KTraceLogger. ">
<polygon fill="none" stroke="black" points="440.5,-228.5 440.5,-248.5 565.5,-248.5 565.5,-228.5 440.5,-228.5"/>
<text text-anchor="middle" x="503" y="-235.7" font-family="Avenir-Book" font-size="11.00">src/KTraceLogger.cc</text>
</a>
</g>
</g>
<!-- Node18&#45;&gt;Node19 -->
<g id="edge18" class="edge"><title>Node18&#45;&gt;Node19</title>
<path fill="none" stroke="midnightblue" d="M502.348,-275.383C502.511,-266.374 502.699,-256.037 502.831,-248.779"/>
<polygon fill="midnightblue" stroke="midnightblue" points="498.848,-275.356 502.165,-285.418 505.846,-275.483 498.848,-275.356"/>
</g>
</g>
</svg>
        <g id="navigator" transform="translate(0 0)" fill="#404254">
                <rect fill="#f2f5e9" fill-opacity="0.5" stroke="#606060" stroke-width=".5" x="0" y="0" width="60" height="60"/>
                <use id="zoomplus" xlink:href="#zoomPlus" x="17" y="9" onmousedown="handleZoom(evt,'in')"/>
                <use id="zoomminus" xlink:href="#zoomMin" x="42" y="9" onmousedown="handleZoom(evt,'out')"/>
                <use id="reset" xlink:href="#resetDef" x="30" y="36" onmousedown="handleReset()"/>
                <g id="arrowUp" xlink:href="#dirArrow" transform="translate(30 24)" onmousedown="handlePan(0,-1)">
                  <use xlink:href="#rim" fill="#404040">
                        <set attributeName="fill" to="#808080" begin="arrowUp.mouseover" end="arrowUp.mouseout"/>
                  </use>
                  <path fill="none" stroke="white" stroke-width="1.5" d="M0,-3.0v7 M-2.5,-0.5L0,-3.0L2.5,-0.5"/>
                </g>
                <g id="arrowRight" xlink:href="#dirArrow" transform="rotate(90) translate(36 -43)" onmousedown="handlePan(1,0)">
                  <use xlink:href="#rim" fill="#404040">
                        <set attributeName="fill" to="#808080" begin="arrowRight.mouseover" end="arrowRight.mouseout"/>
                  </use>
                  <path fill="none" stroke="white" stroke-width="1.5" d="M0,-3.0v7 M-2.5,-0.5L0,-3.0L2.5,-0.5"/>
                </g>
                <g id="arrowDown" xlink:href="#dirArrow" transform="rotate(180) translate(-30 -48)" onmousedown="handlePan(0,1)">
                  <use xlink:href="#rim" fill="#404040">
                        <set attributeName="fill" to="#808080" begin="arrowDown.mouseover" end="arrowDown.mouseout"/>
                  </use>
                  <path fill="none" stroke="white" stroke-width="1.5" d="M0,-3.0v7 M-2.5,-0.5L0,-3.0L2.5,-0.5"/>
                </g>
                <g id="arrowLeft" xlink:href="#dirArrow" transform="rotate(270) translate(-36 17)" onmousedown="handlePan(-1,0)">
                  <use xlink:href="#rim" fill="#404040">
                        <set attributeName="fill" to="#808080" begin="arrowLeft.mouseover" end="arrowLeft.mouseout"/>
                  </use>
                  <path fill="none" stroke="white" stroke-width="1.5" d="M0,-3.0v7 M-2.5,-0.5L0,-3.0L2.5,-0.5"/>
                </g>
        </g>
        <svg viewBox="0 0 15 15" width="100%" height="30px" preserveAspectRatio="xMaxYMin meet">
         <g id="arrow_out" transform="scale(0.3 0.3)">
          <a xlink:href="Logger_8hh__dep__incl_org.svg" target="_base">
           <rect id="button" ry="5" rx="5" y="6" x="6" height="38" width="38"
                fill="#f2f5e9" fill-opacity="0.5" stroke="#606060" stroke-width="1.0"/>
           <path id="arrow"
             d="M 11.500037,31.436501 C 11.940474,20.09759 22.043105,11.32322 32.158766,21.979434 L 37.068811,17.246167 C 37.068811,17.246167 37.088388,32 37.088388,32 L 22.160133,31.978069 C 22.160133,31.978069 26.997745,27.140456 26.997745,27.140456 C 18.528582,18.264221 13.291696,25.230495 11.500037,31.436501 z"
             style="fill:#404040;"/>
          </a>
         </g>
        </svg>
</svg>
