<?xml version="1.0" encoding="UTF-8" standalone="no"?>
<!DOCTYPE svg PUBLIC "-//W3C//DTD SVG 1.1//EN"
 "http://www.w3.org/Graphics/SVG/1.1/DTD/svg11.dtd">
<!-- Generated by graphviz version 2.38.0 (20140413.2041)
 -->
<!-- Title: src/NVSerializer.cc Pages: 1 -->
<svg width="692pt" height="200pt"
 viewBox="0.00 0.00 692.00 200.00" xmlns="http://www.w3.org/2000/svg" xmlns:xlink="http://www.w3.org/1999/xlink">
<g id="graph0" class="graph" transform="scale(1 1) rotate(0) translate(4 196)">
<title>src/NVSerializer.cc</title>
<!-- Node0 -->
<g id="node1" class="node"><title>Node0</title>
<polygon fill="#bfbfbf" stroke="black" points="304,-171.5 304,-191.5 421,-191.5 421,-171.5 304,-171.5"/>
<text text-anchor="middle" x="362.5" y="-178.7" font-family="Avenir-Book" font-size="11.00">src/NVSerializer.cc</text>
</g>
<!-- Node1 -->
<g id="node2" class="node"><title>Node1</title>
<g id="a_node2"><a xlink:href="NVSerializer_8hh.html" target="_top" xlink:title="Declaration of loom::NVSerializer. ">
<polygon fill="none" stroke="black" points="126.5,-114.5 126.5,-134.5 224.5,-134.5 224.5,-114.5 126.5,-114.5"/>
<text text-anchor="middle" x="175.5" y="-121.7" font-family="Avenir-Book" font-size="11.00">NVSerializer.hh</text>
</a>
</g>
</g>
<!-- Node0&#45;&gt;Node1 -->
<g id="edge1" class="edge"><title>Node0&#45;&gt;Node1</title>
<path fill="none" stroke="midnightblue" d="M331.621,-171.418C299.991,-162.115 250.667,-147.608 215.94,-137.394"/>
<polygon fill="midnightblue" stroke="midnightblue" points="216.696,-133.968 206.114,-134.504 214.72,-140.684 216.696,-133.968"/>
</g>
<!-- Node6 -->
<g id="node7" class="node"><title>Node6</title>
<polygon fill="none" stroke="#bfbfbf" points="243,-114.5 243,-134.5 348,-134.5 348,-114.5 243,-114.5"/>
<text text-anchor="middle" x="295.5" y="-121.7" font-family="Avenir-Book" font-size="11.00">llvm/IR/Module.h</text>
</g>
<!-- Node0&#45;&gt;Node6 -->
<g id="edge6" class="edge"><title>Node0&#45;&gt;Node6</title>
<path fill="none" stroke="midnightblue" d="M351.436,-171.418C341.507,-163.267 326.71,-151.12 314.829,-141.367"/>
<polygon fill="midnightblue" stroke="midnightblue" points="316.754,-138.419 306.804,-134.779 312.313,-143.83 316.754,-138.419"/>
</g>
<!-- Node7 -->
<g id="node8" class="node"><title>Node7</title>
<polygon fill="none" stroke="#bfbfbf" points="366,-114.5 366,-134.5 493,-134.5 493,-114.5 366,-114.5"/>
<text text-anchor="middle" x="429.5" y="-121.7" font-family="Avenir-Book" font-size="11.00">llvm/IR/TypeBuilder.h</text>
</g>
<!-- Node0&#45;&gt;Node7 -->
<g id="edge7" class="edge"><title>Node0&#45;&gt;Node7</title>
<path fill="none" stroke="midnightblue" d="M373.564,-171.418C383.493,-163.267 398.29,-151.12 410.171,-141.367"/>
<polygon fill="midnightblue" stroke="midnightblue" points="412.687,-143.83 418.196,-134.779 408.246,-138.419 412.687,-143.83"/>
</g>
<!-- Node8 -->
<g id="node9" class="node"><title>Node8</title>
<polygon fill="none" stroke="#bfbfbf" points="511,-114.5 511,-134.5 684,-134.5 684,-114.5 511,-114.5"/>
<text text-anchor="middle" x="597.5" y="-121.7" font-family="Avenir-Book" font-size="11.00">llvm/Support/raw_ostream.h</text>
</g>
<!-- Node0&#45;&gt;Node8 -->
<g id="edge8" class="edge"><title>Node0&#45;&gt;Node8</title>
<path fill="none" stroke="midnightblue" d="M401.042,-171.479C441.511,-162.008 505.238,-147.093 549.075,-136.834"/>
<polygon fill="midnightblue" stroke="midnightblue" points="549.997,-140.212 558.937,-134.525 548.402,-133.396 549.997,-140.212"/>
</g>
<!-- Node2 -->
<g id="node3" class="node"><title>Node2</title>
<g id="a_node3"><a xlink:href="Serializer_8hh.html" target="_top" xlink:title="Declaration of loom::Serializer. ">
<polygon fill="none" stroke="black" points="89,-57.5 89,-77.5 172,-77.5 172,-57.5 89,-57.5"/>
<text text-anchor="middle" x="130.5" y="-64.7" font-family="Avenir-Book" font-size="11.00">Serializer.hh</text>
</a>
</g>
</g>
<!-- Node1&#45;&gt;Node2 -->
<g id="edge2" class="edge"><title>Node1&#45;&gt;Node2</title>
<path fill="none" stroke="midnightblue" d="M168.069,-114.418C161.724,-106.662 152.419,-95.29 144.657,-85.8035"/>
<polygon fill="midnightblue" stroke="midnightblue" points="147.134,-83.3027 138.092,-77.7795 141.716,-87.7354 147.134,-83.3027"/>
</g>
<!-- Node5 -->
<g id="node6" class="node"><title>Node5</title>
<polygon fill="none" stroke="#bfbfbf" points="190,-57.5 190,-77.5 253,-77.5 253,-57.5 190,-57.5"/>
<text text-anchor="middle" x="221.5" y="-64.7" font-family="Avenir-Book" font-size="11.00">memory</text>
</g>
<!-- Node1&#45;&gt;Node5 -->
<g id="edge5" class="edge"><title>Node1&#45;&gt;Node5</title>
<path fill="none" stroke="midnightblue" d="M183.096,-114.418C189.649,-106.583 199.288,-95.0575 207.27,-85.5137"/>
<polygon fill="midnightblue" stroke="midnightblue" points="210.008,-87.6957 213.739,-77.7795 204.639,-83.2048 210.008,-87.6957"/>
</g>
<!-- Node3 -->
<g id="node4" class="node"><title>Node3</title>
<polygon fill="none" stroke="#bfbfbf" points="0,-0.5 0,-20.5 125,-20.5 125,-0.5 0,-0.5"/>
<text text-anchor="middle" x="62.5" y="-7.7" font-family="Avenir-Book" font-size="11.00">llvm/ADT/ArrayRef.h</text>
</g>
<!-- Node2&#45;&gt;Node3 -->
<g id="edge3" class="edge"><title>Node2&#45;&gt;Node3</title>
<path fill="none" stroke="midnightblue" d="M119.271,-57.4179C109.096,-49.1876 93.8837,-36.8839 81.7669,-27.0836"/>
<polygon fill="midnightblue" stroke="midnightblue" points="83.949,-24.3469 73.9728,-20.7795 79.5469,-29.7895 83.949,-24.3469"/>
</g>
<!-- Node4 -->
<g id="node5" class="node"><title>Node4</title>
<polygon fill="none" stroke="#bfbfbf" points="143.5,-0.5 143.5,-20.5 255.5,-20.5 255.5,-0.5 143.5,-0.5"/>
<text text-anchor="middle" x="199.5" y="-7.7" font-family="Avenir-Book" font-size="11.00">llvm/IR/IRBuilder.h</text>
</g>
<!-- Node2&#45;&gt;Node4 -->
<g id="edge4" class="edge"><title>Node2&#45;&gt;Node4</title>
<path fill="none" stroke="midnightblue" d="M141.894,-57.4179C152.219,-49.1876 167.655,-36.8839 179.95,-27.0836"/>
<polygon fill="midnightblue" stroke="midnightblue" points="182.22,-29.7495 187.859,-20.7795 177.857,-24.2757 182.22,-29.7495"/>
</g>
</g>
</svg>
