<?xml version="1.0" encoding="UTF-8" standalone="no"?>
<!DOCTYPE svg PUBLIC "-//W3C//DTD SVG 1.1//EN"
 "http://www.w3.org/Graphics/SVG/1.1/DTD/svg11.dtd">
<!-- Generated by graphviz version 2.38.0 (20140413.2041)
 -->
<!-- Title: src/NVSerializer.hh Pages: 1 -->
<svg width="242pt" height="86pt"
 viewBox="0.00 0.00 242.00 86.00" xmlns="http://www.w3.org/2000/svg" xmlns:xlink="http://www.w3.org/1999/xlink">
<g id="graph0" class="graph" transform="scale(1 1) rotate(0) translate(4 82)">
<title>src/NVSerializer.hh</title>
<!-- Node5 -->
<g id="node1" class="node"><title>Node5</title>
<polygon fill="#bfbfbf" stroke="black" points="62,-57.5 62,-77.5 181,-77.5 181,-57.5 62,-57.5"/>
<text text-anchor="middle" x="121.5" y="-64.7" font-family="Avenir-Book" font-size="11.00">src/NVSerializer.hh</text>
</g>
<!-- Node6 -->
<g id="node2" class="node"><title>Node6</title>
<g id="a_node2"><a xlink:href="NVSerializer_8cc.html" target="_top" xlink:title="Definition of NVSerializer. ">
<polygon fill="none" stroke="black" points="0,-0.5 0,-20.5 117,-20.5 117,-0.5 0,-0.5"/>
<text text-anchor="middle" x="58.5" y="-7.7" font-family="Avenir-Book" font-size="11.00">src/NVSerializer.cc</text>
</a>
</g>
</g>
<!-- Node5&#45;&gt;Node6 -->
<g id="edge1" class="edge"><title>Node5&#45;&gt;Node6</title>
<path fill="none" stroke="midnightblue" d="M103.269,-50.5841C92.1967,-40.9177 78.4477,-28.9147 69.1292,-20.7795"/>
<polygon fill="midnightblue" stroke="midnightblue" points="101.262,-53.4779 111.097,-57.4179 105.865,-48.2046 101.262,-53.4779"/>
</g>
<!-- Node7 -->
<g id="node3" class="node"><title>Node7</title>
<g id="a_node3"><a xlink:href="PolicyFile_8cc.html" target="_top" xlink:title="Definition of PolicyFile. ">
<polygon fill="none" stroke="black" points="135,-0.5 135,-20.5 234,-20.5 234,-0.5 135,-0.5"/>
<text text-anchor="middle" x="184.5" y="-7.7" font-family="Avenir-Book" font-size="11.00">src/PolicyFile.cc</text>
</a>
</g>
</g>
<!-- Node5&#45;&gt;Node7 -->
<g id="edge2" class="edge"><title>Node5&#45;&gt;Node7</title>
<path fill="none" stroke="midnightblue" d="M139.731,-50.5841C150.803,-40.9177 164.552,-28.9147 173.871,-20.7795"/>
<polygon fill="midnightblue" stroke="midnightblue" points="137.135,-48.2046 131.903,-57.4179 141.738,-53.4779 137.135,-48.2046"/>
</g>
</g>
</svg>
