<?xml version="1.0" encoding="UTF-8" standalone="no"?>
<!DOCTYPE svg PUBLIC "-//W3C//DTD SVG 1.1//EN"
 "http://www.w3.org/Graphics/SVG/1.1/DTD/svg11.dtd">
<!-- Generated by graphviz version 2.38.0 (20140413.2041)
 -->
<!-- Title: src/OptPass.cc Pages: 1 -->
<!--zoomable 485 -->
<svg id="main" version="1.1" xmlns="http://www.w3.org/2000/svg" xmlns:xlink="http://www.w3.org/1999/xlink" xml:space="preserve" onload="init(evt)">
<style type="text/css"><![CDATA[
.edge:hover path { stroke: red; }
.edge:hover polygon { stroke: red; fill: red; }
]]></style>
<script type="text/javascript"><![CDATA[
var edges = document.getElementsByTagName('g');
if (edges && edges.length) {
  for (var i=0;i<edges.length;i++) {
    if (edges[i].id.substr(0,4)=='edge') {
      edges[i].setAttribute('class','edge');
    }
  }
}
]]></script>
        <defs>
                <circle id="rim" cx="0" cy="0" r="7"/>
                <circle id="rim2" cx="0" cy="0" r="3.5"/>
                <g id="zoomPlus">
                        <use xlink:href="#rim" fill="#404040">
                                <set attributeName="fill" to="#808080" begin="zoomplus.mouseover" end="zoomplus.mouseout"/>
                        </use>
                        <path d="M-4,0h8M0,-4v8" fill="none" stroke="white" stroke-width="1.5" pointer-events="none"/>
                </g>
                <g id="zoomMin">
                        <use xlink:href="#rim" fill="#404040">
                                <set attributeName="fill" to="#808080" begin="zoomminus.mouseover" end="zoomminus.mouseout"/>
                        </use>
                        <path d="M-4,0h8" fill="none" stroke="white" stroke-width="1.5" pointer-events="none"/>
                </g>
                <g id="dirArrow">
                        <path fill="none" stroke="white" stroke-width="1.5" d="M0,-3.0v7 M-2.5,-0.5L0,-3.0L2.5,-0.5"/>
                </g>
               <g id="resetDef">
                       <use xlink:href="#rim2" fill="#404040">
                               <set attributeName="fill" to="#808080" begin="reset.mouseover" end="reset.mouseout"/>
                       </use>
               </g>
        </defs>

<script type="text/javascript">
var viewWidth = 1378;
var viewHeight = 485;
var sectionId = 'dynsection-0';
</script>
<script xlink:href="svgpan.js"/>
<svg id="graph" class="graph">
<g id="viewport">
<title>src/OptPass.cc</title>
<!-- Node0 -->
<g id="node1" class="node"><title>Node0</title>
<polygon fill="#bfbfbf" stroke="black" points="784.5,-456.5 784.5,-476.5 882.5,-476.5 882.5,-456.5 784.5,-456.5"/>
<text text-anchor="middle" x="833.5" y="-463.7" font-family="Avenir-Book" font-size="11.00">src/OptPass.cc</text>
</g>
<!-- Node1 -->
<g id="node2" class="node"><title>Node1</title>
<g id="a_node2"><a xlink:href="DebugInfo_8hh_source.html" target="_top" xlink:title="DebugInfo.hh">
<polygon fill="none" stroke="black" points="293,-399.5 293,-419.5 382,-419.5 382,-399.5 293,-399.5"/>
<text text-anchor="middle" x="337.5" y="-406.7" font-family="Avenir-Book" font-size="11.00">DebugInfo.hh</text>
</a>
</g>
</g>
<!-- Node0&#45;&gt;Node1 -->
<g id="edge1" class="edge"><title>Node0&#45;&gt;Node1</title>
<path fill="none" stroke="midnightblue" d="M784.128,-460.025C690.979,-449.696 489.938,-427.403 392.571,-416.607"/>
<polygon fill="midnightblue" stroke="midnightblue" points="392.675,-413.097 382.35,-415.473 391.904,-420.054 392.675,-413.097"/>
</g>
<!-- Node5 -->
<g id="node6" class="node"><title>Node5</title>
<polygon fill="none" stroke="#bfbfbf" points="415,-342.5 415,-362.5 588,-362.5 588,-342.5 415,-342.5"/>
<text text-anchor="middle" x="501.5" y="-349.7" font-family="Avenir-Book" font-size="11.00">llvm/Support/raw_ostream.h</text>
</g>
<!-- Node0&#45;&gt;Node5 -->
<g id="edge41" class="edge"><title>Node0&#45;&gt;Node5</title>
<path fill="none" stroke="midnightblue" d="M784.14,-461.353C736.256,-456.056 662.272,-444.456 602.5,-420 571.327,-407.246 539.56,-384.361 520.185,-369.051"/>
<polygon fill="midnightblue" stroke="midnightblue" points="522.184,-366.167 512.202,-362.614 517.79,-371.616 522.184,-366.167"/>
</g>
<!-- Node6 -->
<g id="node7" class="node"><title>Node6</title>
<g id="a_node7"><a xlink:href="PolicyFile_8hh.html" target="_top" xlink:title="Declaration of loom::PolicyFile. ">
<polygon fill="none" stroke="black" points="719.5,-285.5 719.5,-305.5 799.5,-305.5 799.5,-285.5 719.5,-285.5"/>
<text text-anchor="middle" x="759.5" y="-292.7" font-family="Avenir-Book" font-size="11.00">PolicyFile.hh</text>
</a>
</g>
</g>
<!-- Node0&#45;&gt;Node6 -->
<g id="edge6" class="edge"><title>Node0&#45;&gt;Node6</title>
<path fill="none" stroke="midnightblue" d="M814.092,-456.488C800.035,-448.864 781.91,-436.535 772.5,-420 753.82,-387.177 754.617,-341.448 756.983,-315.844"/>
<polygon fill="midnightblue" stroke="midnightblue" points="760.494,-315.939 758.116,-305.615 753.536,-315.169 760.494,-315.939"/>
</g>
<!-- Node12 -->
<g id="node13" class="node"><title>Node12</title>
<g id="a_node13"><a xlink:href="IRUtils_8hh_source.html" target="_top" xlink:title="IRUtils.hh">
<polygon fill="none" stroke="black" points="901,-57.5 901,-77.5 968,-77.5 968,-57.5 901,-57.5"/>
<text text-anchor="middle" x="934.5" y="-64.7" font-family="Avenir-Book" font-size="11.00">IRUtils.hh</text>
</a>
</g>
</g>
<!-- Node0&#45;&gt;Node12 -->
<g id="edge37" class="edge"><title>Node0&#45;&gt;Node12</title>
<path fill="none" stroke="midnightblue" d="M784.259,-461.524C720.235,-453.355 616.5,-428.54 616.5,-353.5 616.5,-353.5 616.5,-353.5 616.5,-237.5 616.5,-114.79 803.423,-80.9007 890.646,-71.7667"/>
<polygon fill="midnightblue" stroke="midnightblue" points="891.16,-75.2331 900.769,-70.7712 890.475,-68.2667 891.16,-75.2331"/>
</g>
<!-- Node19 -->
<g id="node20" class="node"><title>Node19</title>
<g id="a_node20"><a xlink:href="Instrumenter_8hh.html" target="_top" xlink:title="Declaration of loom::Instrumenter. ">
<polygon fill="none" stroke="black" points="781.5,-399.5 781.5,-419.5 885.5,-419.5 885.5,-399.5 781.5,-399.5"/>
<text text-anchor="middle" x="833.5" y="-406.7" font-family="Avenir-Book" font-size="11.00">Instrumenter.hh</text>
</a>
</g>
</g>
<!-- Node0&#45;&gt;Node19 -->
<g id="edge26" class="edge"><title>Node0&#45;&gt;Node19</title>
<path fill="none" stroke="midnightblue" d="M833.5,-456.418C833.5,-449.216 833.5,-438.896 833.5,-429.863"/>
<polygon fill="midnightblue" stroke="midnightblue" points="837,-429.779 833.5,-419.779 830,-429.779 837,-429.779"/>
</g>
<!-- Node23 -->
<g id="node24" class="node"><title>Node23</title>
<polygon fill="none" stroke="#bfbfbf" points="904,-399.5 904,-419.5 981,-419.5 981,-399.5 904,-399.5"/>
<text text-anchor="middle" x="942.5" y="-406.7" font-family="Avenir-Book" font-size="11.00">llvm/Pass.h</text>
</g>
<!-- Node0&#45;&gt;Node23 -->
<g id="edge38" class="edge"><title>Node0&#45;&gt;Node23</title>
<path fill="none" stroke="midnightblue" d="M851.499,-456.418C868.855,-447.66 895.351,-434.291 915.285,-424.233"/>
<polygon fill="midnightblue" stroke="midnightblue" points="917.123,-427.225 924.474,-419.596 913.97,-420.976 917.123,-427.225"/>
</g>
<!-- Node24 -->
<g id="node25" class="node"><title>Node24</title>
<polygon fill="none" stroke="#bfbfbf" points="999,-399.5 999,-419.5 1104,-419.5 1104,-399.5 999,-399.5"/>
<text text-anchor="middle" x="1051.5" y="-406.7" font-family="Avenir-Book" font-size="11.00">llvm/IR/Module.h</text>
</g>
<!-- Node0&#45;&gt;Node24 -->
<g id="edge39" class="edge"><title>Node0&#45;&gt;Node24</title>
<path fill="none" stroke="midnightblue" d="M869.498,-456.418C906.846,-446.995 965.356,-432.234 1005.91,-422.002"/>
<polygon fill="midnightblue" stroke="midnightblue" points="1006.97,-425.344 1015.81,-419.504 1005.26,-418.557 1006.97,-425.344"/>
</g>
<!-- Node25 -->
<g id="node26" class="node"><title>Node25</title>
<polygon fill="none" stroke="#bfbfbf" points="1122,-399.5 1122,-419.5 1247,-419.5 1247,-399.5 1122,-399.5"/>
<text text-anchor="middle" x="1184.5" y="-406.7" font-family="Avenir-Book" font-size="11.00">llvm/IR/InstIterator.h</text>
</g>
<!-- Node0&#45;&gt;Node25 -->
<g id="edge40" class="edge"><title>Node0&#45;&gt;Node25</title>
<path fill="none" stroke="midnightblue" d="M882.675,-457.795C943.691,-448.234 1048.04,-431.882 1116.65,-421.132"/>
<polygon fill="midnightblue" stroke="midnightblue" points="1117.58,-424.529 1126.92,-419.523 1116.5,-417.613 1117.58,-424.529"/>
</g>
<!-- Node26 -->
<g id="node27" class="node"><title>Node26</title>
<polygon fill="none" stroke="#bfbfbf" points="1265.5,-399.5 1265.5,-419.5 1369.5,-419.5 1369.5,-399.5 1265.5,-399.5"/>
<text text-anchor="middle" x="1317.5" y="-406.7" font-family="Avenir-Book" font-size="11.00">unordered_map</text>
</g>
<!-- Node0&#45;&gt;Node26 -->
<g id="edge42" class="edge"><title>Node0&#45;&gt;Node26</title>
<path fill="none" stroke="midnightblue" d="M882.762,-460.965C959.9,-453.695 1114.13,-438.488 1255.15,-420.126"/>
<polygon fill="midnightblue" stroke="midnightblue" points="1255.82,-423.569 1265.28,-418.799 1254.91,-416.628 1255.82,-423.569"/>
</g>
<!-- Node2 -->
<g id="node3" class="node"><title>Node2</title>
<polygon fill="none" stroke="#bfbfbf" points="0,-342.5 0,-362.5 123,-362.5 123,-342.5 0,-342.5"/>
<text text-anchor="middle" x="61.5" y="-349.7" font-family="Avenir-Book" font-size="11.00">llvm/IR/Instruction.h</text>
</g>
<!-- Node1&#45;&gt;Node2 -->
<g id="edge2" class="edge"><title>Node1&#45;&gt;Node2</title>
<path fill="none" stroke="midnightblue" d="M292.849,-399.602C244.934,-390.054 168.753,-374.873 117.012,-364.562"/>
<polygon fill="midnightblue" stroke="midnightblue" points="117.496,-361.09 107.005,-362.568 116.128,-367.955 117.496,-361.09"/>
</g>
<!-- Node3 -->
<g id="node4" class="node"><title>Node3</title>
<polygon fill="none" stroke="#bfbfbf" points="141,-342.5 141,-362.5 260,-362.5 260,-342.5 141,-342.5"/>
<text text-anchor="middle" x="200.5" y="-349.7" font-family="Avenir-Book" font-size="11.00">llvm/IR/Metadata.h</text>
</g>
<!-- Node1&#45;&gt;Node3 -->
<g id="edge3" class="edge"><title>Node1&#45;&gt;Node3</title>
<path fill="none" stroke="midnightblue" d="M314.877,-399.418C292.468,-390.421 257.936,-376.558 232.675,-366.417"/>
<polygon fill="midnightblue" stroke="midnightblue" points="233.74,-363.073 223.156,-362.596 231.132,-369.569 233.74,-363.073"/>
</g>
<!-- Node4 -->
<g id="node5" class="node"><title>Node4</title>
<polygon fill="none" stroke="#bfbfbf" points="278,-342.5 278,-362.5 397,-362.5 397,-342.5 278,-342.5"/>
<text text-anchor="middle" x="337.5" y="-349.7" font-family="Avenir-Book" font-size="11.00">llvm/IR/ValueMap.h</text>
</g>
<!-- Node1&#45;&gt;Node4 -->
<g id="edge4" class="edge"><title>Node1&#45;&gt;Node4</title>
<path fill="none" stroke="midnightblue" d="M337.5,-399.418C337.5,-392.216 337.5,-381.896 337.5,-372.863"/>
<polygon fill="midnightblue" stroke="midnightblue" points="341,-372.779 337.5,-362.779 334,-372.779 341,-372.779"/>
</g>
<!-- Node1&#45;&gt;Node5 -->
<g id="edge5" class="edge"><title>Node1&#45;&gt;Node5</title>
<path fill="none" stroke="midnightblue" d="M364.581,-399.418C391.963,-390.235 434.467,-375.981 464.851,-365.791"/>
<polygon fill="midnightblue" stroke="midnightblue" points="466.283,-369.002 474.651,-362.504 464.057,-362.366 466.283,-369.002"/>
</g>
<!-- Node7 -->
<g id="node8" class="node"><title>Node7</title>
<g id="a_node8"><a xlink:href="Policy_8hh.html" target="_top" xlink:title="Definition of loom::Policy. ">
<polygon fill="none" stroke="black" points="802.5,-228.5 802.5,-248.5 864.5,-248.5 864.5,-228.5 802.5,-228.5"/>
<text text-anchor="middle" x="833.5" y="-235.7" font-family="Avenir-Book" font-size="11.00">Policy.hh</text>
</a>
</g>
</g>
<!-- Node6&#45;&gt;Node7 -->
<g id="edge7" class="edge"><title>Node6&#45;&gt;Node7</title>
<path fill="none" stroke="midnightblue" d="M771.72,-285.418C782.967,-277.058 799.868,-264.497 813.151,-254.624"/>
<polygon fill="midnightblue" stroke="midnightblue" points="815.324,-257.37 821.262,-248.596 811.148,-251.752 815.324,-257.37"/>
</g>
<!-- Node18 -->
<g id="node19" class="node"><title>Node18</title>
<polygon fill="none" stroke="#bfbfbf" points="644.5,-228.5 644.5,-248.5 784.5,-248.5 784.5,-228.5 644.5,-228.5"/>
<text text-anchor="middle" x="714.5" y="-235.7" font-family="Avenir-Book" font-size="11.00">llvm/Support/ErrorOr.h</text>
</g>
<!-- Node6&#45;&gt;Node18 -->
<g id="edge25" class="edge"><title>Node6&#45;&gt;Node18</title>
<path fill="none" stroke="midnightblue" d="M752.069,-285.418C745.724,-277.662 736.419,-266.29 728.657,-256.803"/>
<polygon fill="midnightblue" stroke="midnightblue" points="731.134,-254.303 722.092,-248.779 725.716,-258.735 731.134,-254.303"/>
</g>
<!-- Node8 -->
<g id="node9" class="node"><title>Node8</title>
<g id="a_node9"><a xlink:href="InstrStrategy_8hh_source.html" target="_top" xlink:title="InstrStrategy.hh">
<polygon fill="none" stroke="black" points="958.5,-171.5 958.5,-191.5 1062.5,-191.5 1062.5,-171.5 958.5,-171.5"/>
<text text-anchor="middle" x="1010.5" y="-178.7" font-family="Avenir-Book" font-size="11.00">InstrStrategy.hh</text>
</a>
</g>
</g>
<!-- Node7&#45;&gt;Node8 -->
<g id="edge8" class="edge"><title>Node7&#45;&gt;Node8</title>
<path fill="none" stroke="midnightblue" d="M862.728,-228.418C892.538,-219.155 938.952,-204.732 971.798,-194.526"/>
<polygon fill="midnightblue" stroke="midnightblue" points="973.012,-197.814 981.523,-191.504 970.935,-191.129 973.012,-197.814"/>
</g>
<!-- Node14 -->
<g id="node15" class="node"><title>Node14</title>
<polygon fill="none" stroke="#bfbfbf" points="741,-0.5 741,-20.5 792,-20.5 792,-0.5 741,-0.5"/>
<text text-anchor="middle" x="766.5" y="-7.7" font-family="Avenir-Book" font-size="11.00">vector</text>
</g>
<!-- Node7&#45;&gt;Node14 -->
<g id="edge24" class="edge"><title>Node7&#45;&gt;Node14</title>
<path fill="none" stroke="midnightblue" d="M802.701,-228.49C766.993,-217.738 712.264,-200.187 706.5,-192 669.506,-139.45 723.431,-62.4866 751.421,-28.5958"/>
<polygon fill="midnightblue" stroke="midnightblue" points="754.415,-30.478 758.22,-20.5902 749.079,-25.9466 754.415,-30.478"/>
</g>
<!-- Node16 -->
<g id="node17" class="node"><title>Node16</title>
<g id="a_node17"><a xlink:href="Serializer_8hh.html" target="_top" xlink:title="Declaration of Serializer. ">
<polygon fill="none" stroke="black" points="781,-171.5 781,-191.5 864,-191.5 864,-171.5 781,-171.5"/>
<text text-anchor="middle" x="822.5" y="-178.7" font-family="Avenir-Book" font-size="11.00">Serializer.hh</text>
</a>
</g>
</g>
<!-- Node7&#45;&gt;Node16 -->
<g id="edge20" class="edge"><title>Node7&#45;&gt;Node16</title>
<path fill="none" stroke="midnightblue" d="M831.684,-228.418C830.243,-221.216 828.179,-210.896 826.373,-201.863"/>
<polygon fill="midnightblue" stroke="midnightblue" points="829.749,-200.899 824.356,-191.779 822.885,-202.272 829.749,-200.899"/>
</g>
<!-- Node17 -->
<g id="node18" class="node"><title>Node17</title>
<polygon fill="none" stroke="#bfbfbf" points="716,-171.5 716,-191.5 763,-191.5 763,-171.5 716,-171.5"/>
<text text-anchor="middle" x="739.5" y="-178.7" font-family="Avenir-Book" font-size="11.00">string</text>
</g>
<!-- Node7&#45;&gt;Node17 -->
<g id="edge23" class="edge"><title>Node7&#45;&gt;Node17</title>
<path fill="none" stroke="midnightblue" d="M817.978,-228.418C803.282,-219.82 780.989,-206.775 763.913,-196.784"/>
<polygon fill="midnightblue" stroke="midnightblue" points="765.444,-193.625 755.045,-191.596 761.909,-199.667 765.444,-193.625"/>
</g>
<!-- Node9 -->
<g id="node10" class="node"><title>Node9</title>
<polygon fill="none" stroke="#bfbfbf" points="1025,-57.5 1025,-77.5 1088,-77.5 1088,-57.5 1025,-57.5"/>
<text text-anchor="middle" x="1056.5" y="-64.7" font-family="Avenir-Book" font-size="11.00">memory</text>
</g>
<!-- Node8&#45;&gt;Node9 -->
<g id="edge9" class="edge"><title>Node8&#45;&gt;Node9</title>
<path fill="none" stroke="midnightblue" d="M1025.64,-171.448C1037.33,-163.496 1052.63,-150.749 1059.5,-135 1066.06,-119.954 1064.42,-101.134 1061.66,-87.3585"/>
<polygon fill="midnightblue" stroke="midnightblue" points="1065.05,-86.4852 1059.33,-77.5612 1058.23,-88.0987 1065.05,-86.4852"/>
</g>
<!-- Node10 -->
<g id="node11" class="node"><title>Node10</title>
<polygon fill="none" stroke="#bfbfbf" points="797,-114.5 797,-134.5 922,-134.5 922,-114.5 797,-114.5"/>
<text text-anchor="middle" x="859.5" y="-121.7" font-family="Avenir-Book" font-size="11.00">llvm/ADT/ArrayRef.h</text>
</g>
<!-- Node8&#45;&gt;Node10 -->
<g id="edge10" class="edge"><title>Node8&#45;&gt;Node10</title>
<path fill="none" stroke="midnightblue" d="M985.565,-171.418C960.573,-162.315 921.899,-148.228 893.976,-138.058"/>
<polygon fill="midnightblue" stroke="midnightblue" points="894.815,-134.638 884.221,-134.504 892.419,-141.215 894.815,-134.638"/>
</g>
<!-- Node11 -->
<g id="node12" class="node"><title>Node11</title>
<polygon fill="none" stroke="#bfbfbf" points="1052.5,-0.5 1052.5,-20.5 1180.5,-20.5 1180.5,-0.5 1052.5,-0.5"/>
<text text-anchor="middle" x="1116.5" y="-7.7" font-family="Avenir-Book" font-size="11.00">llvm/ADT/StringRef.h</text>
</g>
<!-- Node8&#45;&gt;Node11 -->
<g id="edge11" class="edge"><title>Node8&#45;&gt;Node11</title>
<path fill="none" stroke="midnightblue" d="M1029.03,-171.45C1043.44,-163.58 1063.02,-150.944 1075.5,-135 1100.13,-103.544 1110.29,-56.6181 1114.23,-30.6029"/>
<polygon fill="midnightblue" stroke="midnightblue" points="1117.72,-30.9247 1115.59,-20.5451 1110.78,-29.9843 1117.72,-30.9247"/>
</g>
<!-- Node8&#45;&gt;Node12 -->
<g id="edge12" class="edge"><title>Node8&#45;&gt;Node12</title>
<path fill="none" stroke="midnightblue" d="M1001.25,-171.258C992.683,-162.412 979.882,-148.461 970.5,-135 959.853,-119.723 949.952,-100.959 943.24,-87.2632"/>
<polygon fill="midnightblue" stroke="midnightblue" points="946.242,-85.4289 938.768,-77.9191 939.928,-88.4504 946.242,-85.4289"/>
</g>
<!-- Node15 -->
<g id="node16" class="node"><title>Node15</title>
<g id="a_node16"><a xlink:href="Logger_8hh.html" target="_top" xlink:title="Declaration of loom::Logger. ">
<polygon fill="none" stroke="black" points="979,-114.5 979,-134.5 1050,-134.5 1050,-114.5 979,-114.5"/>
<text text-anchor="middle" x="1014.5" y="-121.7" font-family="Avenir-Book" font-size="11.00">Logger.hh</text>
</a>
</g>
</g>
<!-- Node8&#45;&gt;Node15 -->
<g id="edge16" class="edge"><title>Node8&#45;&gt;Node15</title>
<path fill="none" stroke="midnightblue" d="M1011.16,-171.418C1011.68,-164.216 1012.43,-153.896 1013.09,-144.863"/>
<polygon fill="midnightblue" stroke="midnightblue" points="1016.59,-145.007 1013.83,-134.779 1009.61,-144.499 1016.59,-145.007"/>
</g>
<!-- Node12&#45;&gt;Node11 -->
<g id="edge13" class="edge"><title>Node12&#45;&gt;Node11</title>
<path fill="none" stroke="midnightblue" d="M964.554,-57.4179C995.205,-48.155 1042.93,-33.7325 1076.7,-23.526"/>
<polygon fill="midnightblue" stroke="midnightblue" points="1078.14,-26.7474 1086.7,-20.5042 1076.12,-20.0467 1078.14,-26.7474"/>
</g>
<!-- Node13 -->
<g id="node14" class="node"><title>Node13</title>
<polygon fill="none" stroke="#bfbfbf" points="900.5,-0.5 900.5,-20.5 1012.5,-20.5 1012.5,-0.5 900.5,-0.5"/>
<text text-anchor="middle" x="956.5" y="-7.7" font-family="Avenir-Book" font-size="11.00">llvm/IR/IRBuilder.h</text>
</g>
<!-- Node12&#45;&gt;Node13 -->
<g id="edge14" class="edge"><title>Node12&#45;&gt;Node13</title>
<path fill="none" stroke="midnightblue" d="M938.133,-57.4179C941.077,-50.0581 945.324,-39.441 948.992,-30.2695"/>
<polygon fill="midnightblue" stroke="midnightblue" points="952.324,-31.3641 952.788,-20.7795 945.825,-28.7643 952.324,-31.3641"/>
</g>
<!-- Node12&#45;&gt;Node14 -->
<g id="edge15" class="edge"><title>Node12&#45;&gt;Node14</title>
<path fill="none" stroke="midnightblue" d="M906.758,-57.4179C877.998,-48.0022 832.952,-33.2553 801.702,-23.0244"/>
<polygon fill="midnightblue" stroke="midnightblue" points="802.671,-19.659 792.078,-19.8739 800.493,-26.3116 802.671,-19.659"/>
</g>
<!-- Node15&#45;&gt;Node9 -->
<g id="edge19" class="edge"><title>Node15&#45;&gt;Node9</title>
<path fill="none" stroke="midnightblue" d="M1021.44,-114.418C1027.36,-106.662 1036.04,-95.29 1043.29,-85.8035"/>
<polygon fill="midnightblue" stroke="midnightblue" points="1046.13,-87.8514 1049.41,-77.7795 1040.56,-83.6029 1046.13,-87.8514"/>
</g>
<!-- Node15&#45;&gt;Node12 -->
<g id="edge17" class="edge"><title>Node15&#45;&gt;Node12</title>
<path fill="none" stroke="midnightblue" d="M1001.29,-114.418C989.015,-105.979 970.51,-93.257 956.089,-83.3426"/>
<polygon fill="midnightblue" stroke="midnightblue" points="957.953,-80.3768 947.73,-77.5956 953.988,-86.1451 957.953,-80.3768"/>
</g>
<!-- Node15&#45;&gt;Node13 -->
<g id="edge18" class="edge"><title>Node15&#45;&gt;Node13</title>
<path fill="none" stroke="midnightblue" d="M1009.75,-114.335C1000.19,-95.8757 978.469,-53.9223 965.92,-29.6907"/>
<polygon fill="midnightblue" stroke="midnightblue" points="969.019,-28.0625 961.312,-20.7921 962.803,-31.2815 969.019,-28.0625"/>
</g>
<!-- Node16&#45;&gt;Node10 -->
<g id="edge21" class="edge"><title>Node16&#45;&gt;Node10</title>
<path fill="none" stroke="midnightblue" d="M828.61,-171.418C833.774,-163.742 841.322,-152.522 847.664,-143.094"/>
<polygon fill="midnightblue" stroke="midnightblue" points="850.58,-145.03 853.257,-134.779 844.772,-141.123 850.58,-145.03"/>
</g>
<!-- Node16&#45;&gt;Node13 -->
<g id="edge22" class="edge"><title>Node16&#45;&gt;Node13</title>
<path fill="none" stroke="midnightblue" d="M800.102,-171.333C775.03,-159.651 739.726,-138.063 754.5,-114 785.907,-62.8437 851.677,-36.2509 899.665,-23.1165"/>
<polygon fill="midnightblue" stroke="midnightblue" points="900.828,-26.4303 909.617,-20.5141 899.056,-19.6581 900.828,-26.4303"/>
</g>
<!-- Node19&#45;&gt;Node7 -->
<g id="edge35" class="edge"><title>Node19&#45;&gt;Node7</title>
<path fill="none" stroke="midnightblue" d="M833.5,-399.414C833.5,-372.936 833.5,-295.416 833.5,-258.922"/>
<polygon fill="midnightblue" stroke="midnightblue" points="837,-258.631 833.5,-248.631 830,-258.631 837,-258.631"/>
</g>
<!-- Node20 -->
<g id="node21" class="node"><title>Node20</title>
<g id="a_node21"><a xlink:href="Instrumentation_8hh_source.html" target="_top" xlink:title="Instrumentation.hh">
<polygon fill="none" stroke="black" points="870,-342.5 870,-362.5 991,-362.5 991,-342.5 870,-342.5"/>
<text text-anchor="middle" x="930.5" y="-349.7" font-family="Avenir-Book" font-size="11.00">Instrumentation.hh</text>
</a>
</g>
</g>
<!-- Node19&#45;&gt;Node20 -->
<g id="edge27" class="edge"><title>Node19&#45;&gt;Node20</title>
<path fill="none" stroke="midnightblue" d="M849.518,-399.418C864.682,-390.82 887.687,-377.775 905.307,-367.784"/>
<polygon fill="midnightblue" stroke="midnightblue" points="907.486,-370.573 914.459,-362.596 904.033,-364.483 907.486,-370.573"/>
</g>
<!-- Node22 -->
<g id="node23" class="node"><title>Node22</title>
<polygon fill="none" stroke="#bfbfbf" points="1009,-342.5 1009,-362.5 1078,-362.5 1078,-342.5 1009,-342.5"/>
<text text-anchor="middle" x="1043.5" y="-349.7" font-family="Avenir-Book" font-size="11.00">functional</text>
</g>
<!-- Node19&#45;&gt;Node22 -->
<g id="edge36" class="edge"><title>Node19&#45;&gt;Node22</title>
<path fill="none" stroke="midnightblue" d="M868.177,-399.418C904.002,-390.035 960.04,-375.359 999.086,-365.132"/>
<polygon fill="midnightblue" stroke="midnightblue" points="1000.33,-368.424 1009.12,-362.504 998.56,-361.652 1000.33,-368.424"/>
</g>
<!-- Node20&#45;&gt;Node6 -->
<g id="edge30" class="edge"><title>Node20&#45;&gt;Node6</title>
<path fill="none" stroke="midnightblue" d="M902.263,-342.418C873.588,-333.195 829.009,-318.857 797.301,-308.658"/>
<polygon fill="midnightblue" stroke="midnightblue" points="798.086,-305.234 787.495,-305.504 795.943,-311.898 798.086,-305.234"/>
</g>
<!-- Node20&#45;&gt;Node8 -->
<g id="edge28" class="edge"><title>Node20&#45;&gt;Node8</title>
<path fill="none" stroke="midnightblue" d="M934.801,-342.414C947.444,-315.706 984.668,-237.07 1001.75,-200.983"/>
<polygon fill="midnightblue" stroke="midnightblue" points="1005.06,-202.167 1006.18,-191.631 998.735,-199.172 1005.06,-202.167"/>
</g>
<!-- Node20&#45;&gt;Node10 -->
<g id="edge31" class="edge"><title>Node20&#45;&gt;Node10</title>
<path fill="none" stroke="midnightblue" d="M931.319,-342.25C933.359,-314.56 936.524,-230.563 906.5,-171 900.569,-159.234 890.361,-148.788 880.971,-140.882"/>
<polygon fill="midnightblue" stroke="midnightblue" points="883.07,-138.08 873.057,-134.618 878.726,-143.569 883.07,-138.08"/>
</g>
<!-- Node20&#45;&gt;Node11 -->
<g id="edge32" class="edge"><title>Node20&#45;&gt;Node11</title>
<path fill="none" stroke="midnightblue" d="M986.563,-342.431C1021.4,-335.438 1066.44,-323.878 1103.5,-306 1147.97,-284.547 1192.5,-288.878 1192.5,-239.5 1192.5,-239.5 1192.5,-239.5 1192.5,-123.5 1192.5,-83.3176 1158.59,-46.8439 1136.07,-27.0531"/>
<polygon fill="midnightblue" stroke="midnightblue" points="1138.27,-24.328 1128.38,-20.5405 1133.75,-29.6718 1138.27,-24.328"/>
</g>
<!-- Node20&#45;&gt;Node12 -->
<g id="edge29" class="edge"><title>Node20&#45;&gt;Node12</title>
<path fill="none" stroke="midnightblue" d="M930.202,-342.316C928.781,-313.352 920.596,-222.783 873.5,-171 842.896,-137.35 761.543,-150.637 788.5,-114 811.743,-82.4109 856.774,-72.1276 890.71,-69.08"/>
<polygon fill="midnightblue" stroke="midnightblue" points="891.126,-72.5593 900.85,-68.351 890.624,-65.5773 891.126,-72.5593"/>
</g>
<!-- Node20&#45;&gt;Node13 -->
<g id="edge34" class="edge"><title>Node20&#45;&gt;Node13</title>
<path fill="none" stroke="midnightblue" d="M963.552,-342.395C1025.86,-324.248 1154.5,-281.675 1154.5,-239.5 1154.5,-239.5 1154.5,-239.5 1154.5,-123.5 1154.5,-61.5262 1080.1,-33.4465 1022.52,-20.9943"/>
<polygon fill="midnightblue" stroke="midnightblue" points="1023.21,-17.5633 1012.71,-18.9866 1021.8,-24.421 1023.21,-17.5633"/>
</g>
<!-- Node21 -->
<g id="node22" class="node"><title>Node21</title>
<polygon fill="none" stroke="#bfbfbf" points="1220.5,-285.5 1220.5,-305.5 1332.5,-305.5 1332.5,-285.5 1220.5,-285.5"/>
<text text-anchor="middle" x="1276.5" y="-292.7" font-family="Avenir-Book" font-size="11.00">llvm/IR/Function.h</text>
</g>
<!-- Node20&#45;&gt;Node21 -->
<g id="edge33" class="edge"><title>Node20&#45;&gt;Node21</title>
<path fill="none" stroke="midnightblue" d="M987.247,-342.479C1048.39,-332.76 1145.6,-317.308 1210.22,-307.037"/>
<polygon fill="midnightblue" stroke="midnightblue" points="1210.97,-310.461 1220.3,-305.434 1209.87,-303.548 1210.97,-310.461"/>
</g>
</g>
</svg>
        <g id="navigator" transform="translate(0 0)" fill="#404254">
                <rect fill="#f2f5e9" fill-opacity="0.5" stroke="#606060" stroke-width=".5" x="0" y="0" width="60" height="60"/>
                <use id="zoomplus" xlink:href="#zoomPlus" x="17" y="9" onmousedown="handleZoom(evt,'in')"/>
                <use id="zoomminus" xlink:href="#zoomMin" x="42" y="9" onmousedown="handleZoom(evt,'out')"/>
                <use id="reset" xlink:href="#resetDef" x="30" y="36" onmousedown="handleReset()"/>
                <g id="arrowUp" xlink:href="#dirArrow" transform="translate(30 24)" onmousedown="handlePan(0,-1)">
                  <use xlink:href="#rim" fill="#404040">
                        <set attributeName="fill" to="#808080" begin="arrowUp.mouseover" end="arrowUp.mouseout"/>
                  </use>
                  <path fill="none" stroke="white" stroke-width="1.5" d="M0,-3.0v7 M-2.5,-0.5L0,-3.0L2.5,-0.5"/>
                </g>
                <g id="arrowRight" xlink:href="#dirArrow" transform="rotate(90) translate(36 -43)" onmousedown="handlePan(1,0)">
                  <use xlink:href="#rim" fill="#404040">
                        <set attributeName="fill" to="#808080" begin="arrowRight.mouseover" end="arrowRight.mouseout"/>
                  </use>
                  <path fill="none" stroke="white" stroke-width="1.5" d="M0,-3.0v7 M-2.5,-0.5L0,-3.0L2.5,-0.5"/>
                </g>
                <g id="arrowDown" xlink:href="#dirArrow" transform="rotate(180) translate(-30 -48)" onmousedown="handlePan(0,1)">
                  <use xlink:href="#rim" fill="#404040">
                        <set attributeName="fill" to="#808080" begin="arrowDown.mouseover" end="arrowDown.mouseout"/>
                  </use>
                  <path fill="none" stroke="white" stroke-width="1.5" d="M0,-3.0v7 M-2.5,-0.5L0,-3.0L2.5,-0.5"/>
                </g>
                <g id="arrowLeft" xlink:href="#dirArrow" transform="rotate(270) translate(-36 17)" onmousedown="handlePan(-1,0)">
                  <use xlink:href="#rim" fill="#404040">
                        <set attributeName="fill" to="#808080" begin="arrowLeft.mouseover" end="arrowLeft.mouseout"/>
                  </use>
                  <path fill="none" stroke="white" stroke-width="1.5" d="M0,-3.0v7 M-2.5,-0.5L0,-3.0L2.5,-0.5"/>
                </g>
        </g>
        <svg viewBox="0 0 15 15" width="100%" height="30px" preserveAspectRatio="xMaxYMin meet">
         <g id="arrow_out" transform="scale(0.3 0.3)">
          <a xlink:href="OptPass_8cc__incl_org.svg" target="_base">
           <rect id="button" ry="5" rx="5" y="6" x="6" height="38" width="38"
                fill="#f2f5e9" fill-opacity="0.5" stroke="#606060" stroke-width="1.0"/>
           <path id="arrow"
             d="M 11.500037,31.436501 C 11.940474,20.09759 22.043105,11.32322 32.158766,21.979434 L 37.068811,17.246167 C 37.068811,17.246167 37.088388,32 37.088388,32 L 22.160133,31.978069 C 22.160133,31.978069 26.997745,27.140456 26.997745,27.140456 C 18.528582,18.264221 13.291696,25.230495 11.500037,31.436501 z"
             style="fill:#404040;"/>
          </a>
         </g>
        </svg>
</svg>
