<?xml version="1.0" encoding="UTF-8" standalone="no"?>
<!DOCTYPE svg PUBLIC "-//W3C//DTD SVG 1.1//EN"
 "http://www.w3.org/Graphics/SVG/1.1/DTD/svg11.dtd">
<!-- Generated by graphviz version 2.38.0 (20140413.2041)
 -->
<!-- Title: src/Policy.hh Pages: 1 -->
<svg width="463pt" height="257pt"
 viewBox="0.00 0.00 463.03 257.00" xmlns="http://www.w3.org/2000/svg" xmlns:xlink="http://www.w3.org/1999/xlink">
<g id="graph0" class="graph" transform="scale(1 1) rotate(0) translate(4 253)">
<title>src/Policy.hh</title>
<!-- Node11 -->
<g id="node1" class="node"><title>Node11</title>
<polygon fill="#bfbfbf" stroke="black" points="306.027,-228.5 306.027,-248.5 388.027,-248.5 388.027,-228.5 306.027,-228.5"/>
<text text-anchor="middle" x="347.027" y="-235.7" font-family="Avenir-Book" font-size="11.00">src/Policy.hh</text>
</g>
<!-- Node12 -->
<g id="node2" class="node"><title>Node12</title>
<g id="a_node2"><a xlink:href="PolicyFile_8hh.html" target="_top" xlink:title="Declaration of loom::PolicyFile. ">
<polygon fill="none" stroke="black" points="102.527,-171.5 102.527,-191.5 203.527,-191.5 203.527,-171.5 102.527,-171.5"/>
<text text-anchor="middle" x="153.027" y="-178.7" font-family="Avenir-Book" font-size="11.00">src/PolicyFile.hh</text>
</a>
</g>
</g>
<!-- Node11&#45;&gt;Node12 -->
<g id="edge1" class="edge"><title>Node11&#45;&gt;Node12</title>
<path fill="none" stroke="midnightblue" d="M305.234,-225.652C269.099,-215.407 217.638,-200.818 184.787,-191.504"/>
<polygon fill="midnightblue" stroke="midnightblue" points="304.416,-229.058 314.992,-228.418 306.326,-222.323 304.416,-229.058"/>
</g>
<!-- Node16 -->
<g id="node6" class="node"><title>Node16</title>
<g id="a_node6"><a xlink:href="Instrumenter_8hh.html" target="_top" xlink:title="Declaration of loom::Instrumenter. ">
<polygon fill="none" stroke="black" points="310.527,-57.5 310.527,-77.5 435.527,-77.5 435.527,-57.5 310.527,-57.5"/>
<text text-anchor="middle" x="373.027" y="-64.7" font-family="Avenir-Book" font-size="11.00">src/Instrumenter.hh</text>
</a>
</g>
</g>
<!-- Node11&#45;&gt;Node16 -->
<g id="edge10" class="edge"><title>Node11&#45;&gt;Node16</title>
<path fill="none" stroke="midnightblue" d="M350.006,-218.14C355.613,-181.692 367.54,-104.167 371.622,-77.6311"/>
<polygon fill="midnightblue" stroke="midnightblue" points="346.486,-217.998 348.425,-228.414 353.405,-219.062 346.486,-217.998"/>
</g>
<!-- Node20 -->
<g id="node10" class="node"><title>Node20</title>
<g id="a_node10"><a xlink:href="Policy_8cc.html" target="_top" xlink:title="Definition of loom::Policy. ">
<polygon fill="none" stroke="black" points="375.027,-171.5 375.027,-191.5 455.027,-191.5 455.027,-171.5 375.027,-171.5"/>
<text text-anchor="middle" x="415.027" y="-178.7" font-family="Avenir-Book" font-size="11.00">src/Policy.cc</text>
</a>
</g>
</g>
<!-- Node11&#45;&gt;Node20 -->
<g id="edge11" class="edge"><title>Node11&#45;&gt;Node20</title>
<path fill="none" stroke="midnightblue" d="M366.354,-221.868C378.365,-212.153 393.398,-199.994 403.554,-191.779"/>
<polygon fill="midnightblue" stroke="midnightblue" points="363.83,-219.408 358.256,-228.418 368.232,-224.85 363.83,-219.408"/>
</g>
<!-- Node13 -->
<g id="node3" class="node"><title>Node13</title>
<g id="a_node3"><a xlink:href="Instrumentation_8hh.html" target="_top" xlink:title="Declaration of loom::Instrumentation. ">
<polygon fill="none" stroke="black" points="151.527,-114.5 151.527,-134.5 292.527,-134.5 292.527,-114.5 151.527,-114.5"/>
<text text-anchor="middle" x="222.027" y="-121.7" font-family="Avenir-Book" font-size="11.00">src/Instrumentation.hh</text>
</a>
</g>
</g>
<!-- Node12&#45;&gt;Node13 -->
<g id="edge2" class="edge"><title>Node12&#45;&gt;Node13</title>
<path fill="none" stroke="midnightblue" d="M172.284,-165.15C184.529,-155.39 199.979,-143.074 210.386,-134.779"/>
<polygon fill="midnightblue" stroke="midnightblue" points="170.059,-162.448 164.421,-171.418 174.422,-167.922 170.059,-162.448"/>
</g>
<!-- Node18 -->
<g id="node8" class="node"><title>Node18</title>
<g id="a_node8"><a xlink:href="OptPass_8cc.html" target="_top" xlink:title="Definition of Loom&#39;s LLVM opt pass. ">
<polygon fill="none" stroke="black" points="65.0271,-0.5 65.0271,-20.5 163.027,-20.5 163.027,-0.5 65.0271,-0.5"/>
<text text-anchor="middle" x="114.027" y="-7.7" font-family="Avenir-Book" font-size="11.00">src/OptPass.cc</text>
</a>
</g>
</g>
<!-- Node12&#45;&gt;Node18 -->
<g id="edge8" class="edge"><title>Node12&#45;&gt;Node18</title>
<path fill="none" stroke="midnightblue" d="M92.4897,-170.288C68.9404,-163.655 43.2883,-152.778 25.0271,-135 5.57011,-116.058 8.0001,-104.696 3.02711,-78 1.31785,-68.8245 -2.17248,-64.7508 3.02711,-57 16.8923,-36.3316 41.9999,-25.0447 64.8328,-18.8844"/>
<polygon fill="midnightblue" stroke="midnightblue" points="91.8663,-173.743 102.426,-172.879 93.6327,-166.969 91.8663,-173.743"/>
</g>
<!-- Node19 -->
<g id="node9" class="node"><title>Node19</title>
<g id="a_node9"><a xlink:href="PolicyFile_8cc.html" target="_top" xlink:title="Definition of loom::PolicyFile. ">
<polygon fill="none" stroke="black" points="34.5271,-114.5 34.5271,-134.5 133.527,-134.5 133.527,-114.5 34.5271,-114.5"/>
<text text-anchor="middle" x="84.0271" y="-121.7" font-family="Avenir-Book" font-size="11.00">src/PolicyFile.cc</text>
</a>
</g>
</g>
<!-- Node12&#45;&gt;Node19 -->
<g id="edge9" class="edge"><title>Node12&#45;&gt;Node19</title>
<path fill="none" stroke="midnightblue" d="M133.77,-165.15C121.525,-155.39 106.075,-143.074 95.6686,-134.779"/>
<polygon fill="midnightblue" stroke="midnightblue" points="131.632,-167.922 141.633,-171.418 135.995,-162.448 131.632,-167.922"/>
</g>
<!-- Node14 -->
<g id="node4" class="node"><title>Node14</title>
<g id="a_node4"><a xlink:href="InstrStrategy_8cc.html" target="_top" xlink:title="Definition of loom::InstrStrategy. ">
<polygon fill="none" stroke="black" points="12.0271,-57.5 12.0271,-77.5 134.027,-77.5 134.027,-57.5 12.0271,-57.5"/>
<text text-anchor="middle" x="73.0271" y="-64.7" font-family="Avenir-Book" font-size="11.00">src/InstrStrategy.cc</text>
</a>
</g>
</g>
<!-- Node13&#45;&gt;Node14 -->
<g id="edge3" class="edge"><title>Node13&#45;&gt;Node14</title>
<path fill="none" stroke="midnightblue" d="M187.801,-110.866C160.278,-100.707 122.269,-86.6765 97.668,-77.5956"/>
<polygon fill="midnightblue" stroke="midnightblue" points="186.829,-114.238 197.423,-114.418 189.254,-107.671 186.829,-114.238"/>
</g>
<!-- Node15 -->
<g id="node5" class="node"><title>Node15</title>
<g id="a_node5"><a xlink:href="Instrumentation_8cc.html" target="_top" xlink:title="Definition of loom::Instrumentation. ">
<polygon fill="none" stroke="black" points="152.027,-57.5 152.027,-77.5 292.027,-77.5 292.027,-57.5 152.027,-57.5"/>
<text text-anchor="middle" x="222.027" y="-64.7" font-family="Avenir-Book" font-size="11.00">src/Instrumentation.cc</text>
</a>
</g>
</g>
<!-- Node13&#45;&gt;Node15 -->
<g id="edge4" class="edge"><title>Node13&#45;&gt;Node15</title>
<path fill="none" stroke="midnightblue" d="M222.027,-104.383C222.027,-95.3738 222.027,-85.0373 222.027,-77.7795"/>
<polygon fill="midnightblue" stroke="midnightblue" points="218.527,-104.418 222.027,-114.418 225.527,-104.418 218.527,-104.418"/>
</g>
<!-- Node13&#45;&gt;Node16 -->
<g id="edge5" class="edge"><title>Node13&#45;&gt;Node16</title>
<path fill="none" stroke="midnightblue" d="M256.376,-110.989C284.388,-100.786 323.283,-86.6186 348.306,-77.5042"/>
<polygon fill="midnightblue" stroke="midnightblue" points="255.16,-107.707 246.962,-114.418 257.556,-114.284 255.16,-107.707"/>
</g>
<!-- Node17 -->
<g id="node7" class="node"><title>Node17</title>
<g id="a_node7"><a xlink:href="Instrumenter_8cc.html" target="_top" xlink:title="Definition of loom::Instrumenter. ">
<polygon fill="none" stroke="black" points="311.527,-0.5 311.527,-20.5 434.527,-20.5 434.527,-0.5 311.527,-0.5"/>
<text text-anchor="middle" x="373.027" y="-7.7" font-family="Avenir-Book" font-size="11.00">src/Instrumenter.cc</text>
</a>
</g>
</g>
<!-- Node16&#45;&gt;Node17 -->
<g id="edge6" class="edge"><title>Node16&#45;&gt;Node17</title>
<path fill="none" stroke="midnightblue" d="M373.027,-47.383C373.027,-38.3738 373.027,-28.0373 373.027,-20.7795"/>
<polygon fill="midnightblue" stroke="midnightblue" points="369.527,-47.4178 373.027,-57.4179 376.527,-47.4179 369.527,-47.4178"/>
</g>
<!-- Node16&#45;&gt;Node18 -->
<g id="edge7" class="edge"><title>Node16&#45;&gt;Node18</title>
<path fill="none" stroke="midnightblue" d="M320.594,-55.3656C272.263,-45.1023 201.421,-30.0586 156.529,-20.5255"/>
<polygon fill="midnightblue" stroke="midnightblue" points="320.04,-58.8258 330.549,-57.4795 321.494,-51.9785 320.04,-58.8258"/>
</g>
</g>
</svg>
