<?xml version="1.0" encoding="UTF-8" standalone="no"?>
<!DOCTYPE svg PUBLIC "-//W3C//DTD SVG 1.1//EN"
 "http://www.w3.org/Graphics/SVG/1.1/DTD/svg11.dtd">
<!-- Generated by graphviz version 2.38.0 (20140413.2041)
 -->
<!-- Title: src/Policy.cc Pages: 1 -->
<svg width="398pt" height="314pt"
 viewBox="0.00 0.00 397.50 314.00" xmlns="http://www.w3.org/2000/svg" xmlns:xlink="http://www.w3.org/1999/xlink">
<g id="graph0" class="graph" transform="scale(1 1) rotate(0) translate(4 310)">
<title>src/Policy.cc</title>
<!-- Node0 -->
<g id="node1" class="node"><title>Node0</title>
<polygon fill="#bfbfbf" stroke="black" points="182.5,-285.5 182.5,-305.5 262.5,-305.5 262.5,-285.5 182.5,-285.5"/>
<text text-anchor="middle" x="222.5" y="-292.7" font-family="Avenir-Book" font-size="11.00">src/Policy.cc</text>
</g>
<!-- Node1 -->
<g id="node2" class="node"><title>Node1</title>
<g id="a_node2"><a xlink:href="KTraceLogger_8hh.html" target="_top" xlink:title="Declaration of KTraceLogger. ">
<polygon fill="none" stroke="black" points="240,-228.5 240,-248.5 347,-248.5 347,-228.5 240,-228.5"/>
<text text-anchor="middle" x="293.5" y="-235.7" font-family="Avenir-Book" font-size="11.00">KTraceLogger.hh</text>
</a>
</g>
</g>
<!-- Node0&#45;&gt;Node1 -->
<g id="edge1" class="edge"><title>Node0&#45;&gt;Node1</title>
<path fill="none" stroke="midnightblue" d="M234.224,-285.418C244.849,-277.188 260.732,-264.884 273.383,-255.084"/>
<polygon fill="midnightblue" stroke="midnightblue" points="275.759,-257.67 281.521,-248.779 271.472,-252.137 275.759,-257.67"/>
</g>
<!-- Node8 -->
<g id="node9" class="node"><title>Node8</title>
<g id="a_node9"><a xlink:href="Policy_8hh.html" target="_top" xlink:title="Definition of loom::Policy. ">
<polygon fill="none" stroke="black" points="120.5,-228.5 120.5,-248.5 182.5,-248.5 182.5,-228.5 120.5,-228.5"/>
<text text-anchor="middle" x="151.5" y="-235.7" font-family="Avenir-Book" font-size="11.00">Policy.hh</text>
</a>
</g>
</g>
<!-- Node0&#45;&gt;Node8 -->
<g id="edge9" class="edge"><title>Node0&#45;&gt;Node8</title>
<path fill="none" stroke="midnightblue" d="M210.776,-285.418C200.151,-277.188 184.268,-264.884 171.617,-255.084"/>
<polygon fill="midnightblue" stroke="midnightblue" points="173.528,-252.137 163.479,-248.779 169.241,-257.67 173.528,-252.137"/>
</g>
<!-- Node2 -->
<g id="node3" class="node"><title>Node2</title>
<g id="a_node3"><a xlink:href="Logger_8hh.html" target="_top" xlink:title="Declaration of loom::Logger. ">
<polygon fill="none" stroke="black" points="298,-114.5 298,-134.5 369,-134.5 369,-114.5 298,-114.5"/>
<text text-anchor="middle" x="333.5" y="-121.7" font-family="Avenir-Book" font-size="11.00">Logger.hh</text>
</a>
</g>
</g>
<!-- Node1&#45;&gt;Node2 -->
<g id="edge2" class="edge"><title>Node1&#45;&gt;Node2</title>
<path fill="none" stroke="midnightblue" d="M297.976,-228.225C302.272,-219.126 308.785,-204.792 313.5,-192 319.298,-176.269 324.699,-158.006 328.423,-144.603"/>
<polygon fill="midnightblue" stroke="midnightblue" points="331.882,-145.219 331.128,-134.651 325.128,-143.382 331.882,-145.219"/>
</g>
<!-- Node3 -->
<g id="node4" class="node"><title>Node3</title>
<g id="a_node4"><a xlink:href="IRUtils_8hh_source.html" target="_top" xlink:title="IRUtils.hh">
<polygon fill="none" stroke="black" points="160,-57.5 160,-77.5 227,-77.5 227,-57.5 160,-57.5"/>
<text text-anchor="middle" x="193.5" y="-64.7" font-family="Avenir-Book" font-size="11.00">IRUtils.hh</text>
</a>
</g>
</g>
<!-- Node2&#45;&gt;Node3 -->
<g id="edge3" class="edge"><title>Node2&#45;&gt;Node3</title>
<path fill="none" stroke="midnightblue" d="M310.382,-114.418C287.381,-105.382 251.881,-91.4353 226.038,-81.2828"/>
<polygon fill="midnightblue" stroke="midnightblue" points="227.24,-77.9946 216.652,-77.5956 224.68,-84.5098 227.24,-77.9946"/>
</g>
<!-- Node5 -->
<g id="node6" class="node"><title>Node5</title>
<polygon fill="none" stroke="#bfbfbf" points="277.5,-0.5 277.5,-20.5 389.5,-20.5 389.5,-0.5 277.5,-0.5"/>
<text text-anchor="middle" x="333.5" y="-7.7" font-family="Avenir-Book" font-size="11.00">llvm/IR/IRBuilder.h</text>
</g>
<!-- Node2&#45;&gt;Node5 -->
<g id="edge7" class="edge"><title>Node2&#45;&gt;Node5</title>
<path fill="none" stroke="midnightblue" d="M333.5,-114.335C333.5,-96.2039 333.5,-55.4065 333.5,-30.9997"/>
<polygon fill="midnightblue" stroke="midnightblue" points="337,-30.792 333.5,-20.7921 330,-30.7921 337,-30.792"/>
</g>
<!-- Node7 -->
<g id="node8" class="node"><title>Node7</title>
<polygon fill="none" stroke="#bfbfbf" points="79,-57.5 79,-77.5 142,-77.5 142,-57.5 79,-57.5"/>
<text text-anchor="middle" x="110.5" y="-64.7" font-family="Avenir-Book" font-size="11.00">memory</text>
</g>
<!-- Node2&#45;&gt;Node7 -->
<g id="edge8" class="edge"><title>Node2&#45;&gt;Node7</title>
<path fill="none" stroke="midnightblue" d="M297.671,-114.663C257.976,-104.873 194.052,-89.1071 152.156,-78.7738"/>
<polygon fill="midnightblue" stroke="midnightblue" points="152.814,-75.3315 142.267,-76.335 151.138,-82.1278 152.814,-75.3315"/>
</g>
<!-- Node4 -->
<g id="node5" class="node"><title>Node4</title>
<polygon fill="none" stroke="#bfbfbf" points="89.5,-0.5 89.5,-20.5 217.5,-20.5 217.5,-0.5 89.5,-0.5"/>
<text text-anchor="middle" x="153.5" y="-7.7" font-family="Avenir-Book" font-size="11.00">llvm/ADT/StringRef.h</text>
</g>
<!-- Node3&#45;&gt;Node4 -->
<g id="edge4" class="edge"><title>Node3&#45;&gt;Node4</title>
<path fill="none" stroke="midnightblue" d="M186.895,-57.4179C181.312,-49.7415 173.152,-38.5217 166.296,-29.0945"/>
<polygon fill="midnightblue" stroke="midnightblue" points="168.961,-26.8082 160.249,-20.7795 163.3,-30.9255 168.961,-26.8082"/>
</g>
<!-- Node3&#45;&gt;Node5 -->
<g id="edge5" class="edge"><title>Node3&#45;&gt;Node5</title>
<path fill="none" stroke="midnightblue" d="M216.618,-57.4179C239.619,-48.3817 275.119,-34.4353 300.962,-24.2828"/>
<polygon fill="midnightblue" stroke="midnightblue" points="302.32,-27.5098 310.348,-20.5956 299.76,-20.9946 302.32,-27.5098"/>
</g>
<!-- Node6 -->
<g id="node7" class="node"><title>Node6</title>
<polygon fill="none" stroke="#bfbfbf" points="0,-0.5 0,-20.5 51,-20.5 51,-0.5 0,-0.5"/>
<text text-anchor="middle" x="25.5" y="-7.7" font-family="Avenir-Book" font-size="11.00">vector</text>
</g>
<!-- Node3&#45;&gt;Node6 -->
<g id="edge6" class="edge"><title>Node3&#45;&gt;Node6</title>
<path fill="none" stroke="midnightblue" d="M165.758,-57.4179C136.998,-48.0022 91.9524,-33.2553 60.7018,-23.0244"/>
<polygon fill="midnightblue" stroke="midnightblue" points="61.6711,-19.659 51.0784,-19.8739 59.4931,-26.3116 61.6711,-19.659"/>
</g>
<!-- Node8&#45;&gt;Node6 -->
<g id="edge20" class="edge"><title>Node8&#45;&gt;Node6</title>
<path fill="none" stroke="midnightblue" d="M120.417,-236.031C90.2878,-232.755 46.0713,-222.642 24.5,-192 -10.1575,-142.769 7.76834,-65.769 18.8714,-30.4092"/>
<polygon fill="midnightblue" stroke="midnightblue" points="22.2161,-31.4424 22.0323,-20.8492 15.5699,-29.2449 22.2161,-31.4424"/>
</g>
<!-- Node9 -->
<g id="node10" class="node"><title>Node9</title>
<g id="a_node10"><a xlink:href="InstrStrategy_8hh_source.html" target="_top" xlink:title="InstrStrategy.hh">
<polygon fill="none" stroke="black" points="99.5,-171.5 99.5,-191.5 203.5,-191.5 203.5,-171.5 99.5,-171.5"/>
<text text-anchor="middle" x="151.5" y="-178.7" font-family="Avenir-Book" font-size="11.00">InstrStrategy.hh</text>
</a>
</g>
</g>
<!-- Node8&#45;&gt;Node9 -->
<g id="edge10" class="edge"><title>Node8&#45;&gt;Node9</title>
<path fill="none" stroke="midnightblue" d="M151.5,-228.418C151.5,-221.216 151.5,-210.896 151.5,-201.863"/>
<polygon fill="midnightblue" stroke="midnightblue" points="155,-201.779 151.5,-191.779 148,-201.779 155,-201.779"/>
</g>
<!-- Node11 -->
<g id="node12" class="node"><title>Node11</title>
<g id="a_node12"><a xlink:href="Serializer_8hh.html" target="_top" xlink:title="Declaration of Serializer. ">
<polygon fill="none" stroke="black" points="222,-171.5 222,-191.5 305,-191.5 305,-171.5 222,-171.5"/>
<text text-anchor="middle" x="263.5" y="-178.7" font-family="Avenir-Book" font-size="11.00">Serializer.hh</text>
</a>
</g>
</g>
<!-- Node8&#45;&gt;Node11 -->
<g id="edge16" class="edge"><title>Node8&#45;&gt;Node11</title>
<path fill="none" stroke="midnightblue" d="M169.995,-228.418C187.909,-219.621 215.301,-206.169 235.814,-196.096"/>
<polygon fill="midnightblue" stroke="midnightblue" points="237.545,-199.145 244.978,-191.596 234.459,-192.862 237.545,-199.145"/>
</g>
<!-- Node12 -->
<g id="node13" class="node"><title>Node12</title>
<polygon fill="none" stroke="#bfbfbf" points="34,-171.5 34,-191.5 81,-191.5 81,-171.5 34,-171.5"/>
<text text-anchor="middle" x="57.5" y="-178.7" font-family="Avenir-Book" font-size="11.00">string</text>
</g>
<!-- Node8&#45;&gt;Node12 -->
<g id="edge19" class="edge"><title>Node8&#45;&gt;Node12</title>
<path fill="none" stroke="midnightblue" d="M135.978,-228.418C121.282,-219.82 98.9888,-206.775 81.9134,-196.784"/>
<polygon fill="midnightblue" stroke="midnightblue" points="83.4439,-193.625 73.0452,-191.596 79.9088,-199.667 83.4439,-193.625"/>
</g>
<!-- Node9&#45;&gt;Node2 -->
<g id="edge15" class="edge"><title>Node9&#45;&gt;Node2</title>
<path fill="none" stroke="midnightblue" d="M181.554,-171.418C212.205,-162.155 259.931,-147.732 293.705,-137.526"/>
<polygon fill="midnightblue" stroke="midnightblue" points="295.144,-140.747 303.704,-134.504 293.119,-134.047 295.144,-140.747"/>
</g>
<!-- Node9&#45;&gt;Node3 -->
<g id="edge14" class="edge"><title>Node9&#45;&gt;Node3</title>
<path fill="none" stroke="midnightblue" d="M148.048,-171.465C143.573,-158.258 137.258,-133.169 145.5,-114 150.692,-101.925 160.838,-91.5515 170.469,-83.772"/>
<polygon fill="midnightblue" stroke="midnightblue" points="172.764,-86.426 178.663,-77.6256 168.563,-80.8262 172.764,-86.426"/>
</g>
<!-- Node9&#45;&gt;Node4 -->
<g id="edge13" class="edge"><title>Node9&#45;&gt;Node4</title>
<path fill="none" stroke="midnightblue" d="M137.217,-171.403C107.379,-151.221 43.2916,-101.002 69.5,-57 78.4963,-41.8957 94.4441,-31.4988 110.044,-24.5006"/>
<polygon fill="midnightblue" stroke="midnightblue" points="111.718,-27.5974 119.648,-20.5707 109.067,-21.1189 111.718,-27.5974"/>
</g>
<!-- Node9&#45;&gt;Node7 -->
<g id="edge11" class="edge"><title>Node9&#45;&gt;Node7</title>
<path fill="none" stroke="midnightblue" d="M140.247,-171.375C130.888,-163.023 118.209,-149.748 112.5,-135 106.701,-120.021 106.612,-101.693 107.741,-88.0739"/>
<polygon fill="midnightblue" stroke="midnightblue" points="111.244,-88.2458 108.877,-77.9187 104.287,-87.4677 111.244,-88.2458"/>
</g>
<!-- Node10 -->
<g id="node11" class="node"><title>Node10</title>
<polygon fill="none" stroke="#bfbfbf" points="155,-114.5 155,-134.5 280,-134.5 280,-114.5 155,-114.5"/>
<text text-anchor="middle" x="217.5" y="-121.7" font-family="Avenir-Book" font-size="11.00">llvm/ADT/ArrayRef.h</text>
</g>
<!-- Node9&#45;&gt;Node10 -->
<g id="edge12" class="edge"><title>Node9&#45;&gt;Node10</title>
<path fill="none" stroke="midnightblue" d="M162.399,-171.418C172.18,-163.267 186.756,-151.12 198.46,-141.367"/>
<polygon fill="midnightblue" stroke="midnightblue" points="200.923,-143.87 206.365,-134.779 196.442,-138.493 200.923,-143.87"/>
</g>
<!-- Node11&#45;&gt;Node5 -->
<g id="edge18" class="edge"><title>Node11&#45;&gt;Node5</title>
<path fill="none" stroke="midnightblue" d="M305.081,-175.74C330.885,-170.398 362.144,-159.061 378.5,-135 401.681,-100.898 369.718,-53.4083 348.908,-28.4198"/>
<polygon fill="midnightblue" stroke="midnightblue" points="351.312,-25.8489 342.121,-20.5783 346.019,-30.43 351.312,-25.8489"/>
</g>
<!-- Node11&#45;&gt;Node10 -->
<g id="edge17" class="edge"><title>Node11&#45;&gt;Node10</title>
<path fill="none" stroke="midnightblue" d="M255.904,-171.418C249.351,-163.583 239.712,-152.058 231.73,-142.514"/>
<polygon fill="midnightblue" stroke="midnightblue" points="234.361,-140.205 225.261,-134.779 228.992,-144.696 234.361,-140.205"/>
</g>
</g>
</svg>
