<?xml version="1.0" encoding="UTF-8" standalone="no"?>
<!DOCTYPE svg PUBLIC "-//W3C//DTD SVG 1.1//EN"
 "http://www.w3.org/Graphics/SVG/1.1/DTD/svg11.dtd">
<!-- Generated by graphviz version 2.38.0 (20140413.2041)
 -->
<!-- Title: src/PolicyFile.hh Pages: 1 -->
<svg width="588pt" height="200pt"
 viewBox="0.00 0.00 587.50 200.00" xmlns="http://www.w3.org/2000/svg" xmlns:xlink="http://www.w3.org/1999/xlink">
<g id="graph0" class="graph" transform="scale(1 1) rotate(0) translate(4 196)">
<title>src/PolicyFile.hh</title>
<!-- Node13 -->
<g id="node1" class="node"><title>Node13</title>
<polygon fill="#bfbfbf" stroke="black" points="401.5,-171.5 401.5,-191.5 502.5,-191.5 502.5,-171.5 401.5,-171.5"/>
<text text-anchor="middle" x="452" y="-178.7" font-family="Avenir-Book" font-size="11.00">src/PolicyFile.hh</text>
</g>
<!-- Node14 -->
<g id="node2" class="node"><title>Node14</title>
<g id="a_node2"><a xlink:href="Instrumentation_8hh.html" target="_top" xlink:title="Declaration of loom::Instrumentation. ">
<polygon fill="none" stroke="black" points="211.5,-114.5 211.5,-134.5 352.5,-134.5 352.5,-114.5 211.5,-114.5"/>
<text text-anchor="middle" x="282" y="-121.7" font-family="Avenir-Book" font-size="11.00">src/Instrumentation.hh</text>
</a>
</g>
</g>
<!-- Node13&#45;&gt;Node14 -->
<g id="edge1" class="edge"><title>Node13&#45;&gt;Node14</title>
<path fill="none" stroke="midnightblue" d="M414.153,-168.255C382.558,-158.034 338.249,-143.698 309.831,-134.504"/>
<polygon fill="midnightblue" stroke="midnightblue" points="413.336,-171.67 423.928,-171.418 415.491,-165.01 413.336,-171.67"/>
</g>
<!-- Node19 -->
<g id="node7" class="node"><title>Node19</title>
<g id="a_node7"><a xlink:href="OptPass_8cc.html" target="_top" xlink:title="Definition of Loom&#39;s LLVM opt pass. ">
<polygon fill="none" stroke="black" points="403,-0.5 403,-20.5 501,-20.5 501,-0.5 403,-0.5"/>
<text text-anchor="middle" x="452" y="-7.7" font-family="Avenir-Book" font-size="11.00">src/OptPass.cc</text>
</a>
</g>
</g>
<!-- Node13&#45;&gt;Node19 -->
<g id="edge7" class="edge"><title>Node13&#45;&gt;Node19</title>
<path fill="none" stroke="midnightblue" d="M452,-161.14C452,-124.692 452,-47.1671 452,-20.6311"/>
<polygon fill="midnightblue" stroke="midnightblue" points="448.5,-161.414 452,-171.414 455.5,-161.414 448.5,-161.414"/>
</g>
<!-- Node20 -->
<g id="node8" class="node"><title>Node20</title>
<g id="a_node8"><a xlink:href="PolicyFile_8cc.html" target="_top" xlink:title="Definition of loom::PolicyFile. ">
<polygon fill="none" stroke="black" points="480.5,-114.5 480.5,-134.5 579.5,-134.5 579.5,-114.5 480.5,-114.5"/>
<text text-anchor="middle" x="530" y="-121.7" font-family="Avenir-Book" font-size="11.00">src/PolicyFile.cc</text>
</a>
</g>
</g>
<!-- Node13&#45;&gt;Node20 -->
<g id="edge8" class="edge"><title>Node13&#45;&gt;Node20</title>
<path fill="none" stroke="midnightblue" d="M473.426,-165.392C487.423,-155.522 505.239,-142.96 517.101,-134.596"/>
<polygon fill="midnightblue" stroke="midnightblue" points="471.036,-162.795 464.88,-171.418 475.07,-168.516 471.036,-162.795"/>
</g>
<!-- Node15 -->
<g id="node3" class="node"><title>Node15</title>
<g id="a_node3"><a xlink:href="InstrStrategy_8cc.html" target="_top" xlink:title="Definition of loom::InstrStrategy. ">
<polygon fill="none" stroke="black" points="0,-57.5 0,-77.5 122,-77.5 122,-57.5 0,-57.5"/>
<text text-anchor="middle" x="61" y="-64.7" font-family="Avenir-Book" font-size="11.00">src/InstrStrategy.cc</text>
</a>
</g>
</g>
<!-- Node14&#45;&gt;Node15 -->
<g id="edge2" class="edge"><title>Node14&#45;&gt;Node15</title>
<path fill="none" stroke="midnightblue" d="M235.704,-111.978C194.481,-101.719 135.003,-86.9172 97.1806,-77.5042"/>
<polygon fill="midnightblue" stroke="midnightblue" points="234.957,-115.399 245.506,-114.418 236.648,-108.606 234.957,-115.399"/>
</g>
<!-- Node16 -->
<g id="node4" class="node"><title>Node16</title>
<g id="a_node4"><a xlink:href="Instrumentation_8cc.html" target="_top" xlink:title="Definition of loom::Instrumentation. ">
<polygon fill="none" stroke="black" points="140,-57.5 140,-77.5 280,-77.5 280,-57.5 140,-57.5"/>
<text text-anchor="middle" x="210" y="-64.7" font-family="Avenir-Book" font-size="11.00">src/Instrumentation.cc</text>
</a>
</g>
</g>
<!-- Node14&#45;&gt;Node16 -->
<g id="edge3" class="edge"><title>Node14&#45;&gt;Node16</title>
<path fill="none" stroke="midnightblue" d="M261.905,-108.15C249.129,-98.3899 233.006,-86.0742 222.148,-77.7795"/>
<polygon fill="midnightblue" stroke="midnightblue" points="260.039,-111.129 270.111,-114.418 264.289,-105.566 260.039,-111.129"/>
</g>
<!-- Node17 -->
<g id="node5" class="node"><title>Node17</title>
<g id="a_node5"><a xlink:href="Instrumenter_8hh.html" target="_top" xlink:title="Declaration of loom::Instrumenter. ">
<polygon fill="none" stroke="black" points="298.5,-57.5 298.5,-77.5 423.5,-77.5 423.5,-57.5 298.5,-57.5"/>
<text text-anchor="middle" x="361" y="-64.7" font-family="Avenir-Book" font-size="11.00">src/Instrumenter.hh</text>
</a>
</g>
</g>
<!-- Node14&#45;&gt;Node17 -->
<g id="edge4" class="edge"><title>Node14&#45;&gt;Node17</title>
<path fill="none" stroke="midnightblue" d="M303.297,-108.673C317.533,-98.7619 335.807,-86.0393 347.935,-77.5956"/>
<polygon fill="midnightblue" stroke="midnightblue" points="301.252,-105.832 295.045,-114.418 305.252,-111.577 301.252,-105.832"/>
</g>
<!-- Node18 -->
<g id="node6" class="node"><title>Node18</title>
<g id="a_node6"><a xlink:href="Instrumenter_8cc.html" target="_top" xlink:title="Definition of loom::Instrumenter. ">
<polygon fill="none" stroke="black" points="261.5,-0.5 261.5,-20.5 384.5,-20.5 384.5,-0.5 261.5,-0.5"/>
<text text-anchor="middle" x="323" y="-7.7" font-family="Avenir-Book" font-size="11.00">src/Instrumenter.cc</text>
</a>
</g>
</g>
<!-- Node17&#45;&gt;Node18 -->
<g id="edge5" class="edge"><title>Node17&#45;&gt;Node18</title>
<path fill="none" stroke="midnightblue" d="M349.01,-49.1465C342.518,-39.7503 334.756,-28.5159 329.411,-20.7795"/>
<polygon fill="midnightblue" stroke="midnightblue" points="346.161,-51.1801 354.725,-57.4179 351.92,-47.201 346.161,-51.1801"/>
</g>
<!-- Node17&#45;&gt;Node19 -->
<g id="edge6" class="edge"><title>Node17&#45;&gt;Node19</title>
<path fill="none" stroke="midnightblue" d="M384.608,-52.2313C401.134,-42.2435 422.717,-29.1986 436.951,-20.5956"/>
<polygon fill="midnightblue" stroke="midnightblue" points="382.775,-49.2498 376.027,-57.4179 386.396,-55.2406 382.775,-49.2498"/>
</g>
</g>
</svg>
