<?xml version="1.0" encoding="UTF-8" standalone="no"?>
<!DOCTYPE svg PUBLIC "-//W3C//DTD SVG 1.1//EN"
 "http://www.w3.org/Graphics/SVG/1.1/DTD/svg11.dtd">
<!-- Generated by graphviz version 2.38.0 (20140413.2041)
 -->
<!-- Title: src/PolicyFile.cc Pages: 1 -->
<svg width="1201pt" height="371pt"
 viewBox="0.00 0.00 1200.66 371.00" xmlns="http://www.w3.org/2000/svg" xmlns:xlink="http://www.w3.org/1999/xlink">
<g id="graph0" class="graph" transform="scale(1 1) rotate(0) translate(4 367)">
<title>src/PolicyFile.cc</title>
<!-- Node0 -->
<g id="node1" class="node"><title>Node0</title>
<polygon fill="#bfbfbf" stroke="black" points="459.658,-342.5 459.658,-362.5 558.658,-362.5 558.658,-342.5 459.658,-342.5"/>
<text text-anchor="middle" x="509.158" y="-349.7" font-family="Avenir-Book" font-size="11.00">src/PolicyFile.cc</text>
</g>
<!-- Node1 -->
<g id="node2" class="node"><title>Node1</title>
<g id="a_node2"><a xlink:href="NVSerializer_8hh.html" target="_top" xlink:title="Declaration of NVSerializer. ">
<polygon fill="none" stroke="black" points="31.1584,-228.5 31.1584,-248.5 129.158,-248.5 129.158,-228.5 31.1584,-228.5"/>
<text text-anchor="middle" x="80.1584" y="-235.7" font-family="Avenir-Book" font-size="11.00">NVSerializer.hh</text>
</a>
</g>
</g>
<!-- Node0&#45;&gt;Node1 -->
<g id="edge1" class="edge"><title>Node0&#45;&gt;Node1</title>
<path fill="none" stroke="midnightblue" d="M459.314,-346.114C405.704,-339.582 318.304,-326.788 245.158,-306 195.62,-291.921 140.611,-267.969 108.276,-252.979"/>
<polygon fill="midnightblue" stroke="midnightblue" points="109.541,-249.706 99.0001,-248.635 106.572,-256.046 109.541,-249.706"/>
</g>
<!-- Node6 -->
<g id="node7" class="node"><title>Node6</title>
<g id="a_node7"><a xlink:href="PolicyFile_8hh.html" target="_top" xlink:title="Declaration of loom::PolicyFile. ">
<polygon fill="none" stroke="black" points="254.158,-285.5 254.158,-305.5 334.158,-305.5 334.158,-285.5 254.158,-285.5"/>
<text text-anchor="middle" x="294.158" y="-292.7" font-family="Avenir-Book" font-size="11.00">PolicyFile.hh</text>
</a>
</g>
</g>
<!-- Node0&#45;&gt;Node6 -->
<g id="edge6" class="edge"><title>Node0&#45;&gt;Node6</title>
<path fill="none" stroke="midnightblue" d="M473.656,-342.418C436.822,-332.995 379.117,-318.234 339.12,-308.002"/>
<polygon fill="midnightblue" stroke="midnightblue" points="339.912,-304.592 329.357,-305.504 338.177,-311.373 339.912,-304.592"/>
</g>
<!-- Node15 -->
<g id="node16" class="node"><title>Node15</title>
<g id="a_node16"><a xlink:href="Strings_8hh.html" target="_top" xlink:title="Declaration of string manipulation functions. ">
<polygon fill="none" stroke="black" points="442.158,-228.5 442.158,-248.5 514.158,-248.5 514.158,-228.5 442.158,-228.5"/>
<text text-anchor="middle" x="478.158" y="-235.7" font-family="Avenir-Book" font-size="11.00">Strings.hh</text>
</a>
</g>
</g>
<!-- Node0&#45;&gt;Node15 -->
<g id="edge24" class="edge"><title>Node0&#45;&gt;Node15</title>
<path fill="none" stroke="midnightblue" d="M459.507,-347.487C431.57,-342.391 398.839,-331.049 381.158,-306 363.584,-281.101 399.481,-262.63 432.469,-251.555"/>
<polygon fill="midnightblue" stroke="midnightblue" points="433.629,-254.859 442.098,-248.493 431.508,-248.188 433.629,-254.859"/>
</g>
<!-- Node16 -->
<g id="node17" class="node"><title>Node16</title>
<polygon fill="none" stroke="#bfbfbf" points="390.158,-285.5 390.158,-305.5 502.158,-305.5 502.158,-285.5 390.158,-285.5"/>
<text text-anchor="middle" x="446.158" y="-292.7" font-family="Avenir-Book" font-size="11.00">llvm/IR/Function.h</text>
</g>
<!-- Node0&#45;&gt;Node16 -->
<g id="edge27" class="edge"><title>Node0&#45;&gt;Node16</title>
<path fill="none" stroke="midnightblue" d="M498.755,-342.418C489.418,-334.267 475.505,-322.12 464.333,-312.367"/>
<polygon fill="midnightblue" stroke="midnightblue" points="466.623,-309.719 456.788,-305.779 462.019,-314.993 466.623,-309.719"/>
</g>
<!-- Node17 -->
<g id="node18" class="node"><title>Node17</title>
<polygon fill="none" stroke="#bfbfbf" points="520.658,-285.5 520.658,-305.5 625.658,-305.5 625.658,-285.5 520.658,-285.5"/>
<text text-anchor="middle" x="573.158" y="-292.7" font-family="Avenir-Book" font-size="11.00">llvm/IR/Module.h</text>
</g>
<!-- Node0&#45;&gt;Node17 -->
<g id="edge28" class="edge"><title>Node0&#45;&gt;Node17</title>
<path fill="none" stroke="midnightblue" d="M519.727,-342.418C529.212,-334.267 543.346,-322.12 554.695,-312.367"/>
<polygon fill="midnightblue" stroke="midnightblue" points="557.057,-314.952 562.36,-305.779 552.495,-309.643 557.057,-314.952"/>
</g>
<!-- Node18 -->
<g id="node19" class="node"><title>Node18</title>
<polygon fill="none" stroke="#bfbfbf" points="643.658,-285.5 643.658,-305.5 822.658,-305.5 822.658,-285.5 643.658,-285.5"/>
<text text-anchor="middle" x="733.158" y="-292.7" font-family="Avenir-Book" font-size="11.00">llvm/Support/CommandLine.h</text>
</g>
<!-- Node0&#45;&gt;Node18 -->
<g id="edge29" class="edge"><title>Node0&#45;&gt;Node18</title>
<path fill="none" stroke="midnightblue" d="M546.147,-342.418C584.604,-332.975 644.898,-318.171 686.579,-307.937"/>
<polygon fill="midnightblue" stroke="midnightblue" points="687.61,-311.288 696.487,-305.504 685.941,-304.49 687.61,-311.288"/>
</g>
<!-- Node19 -->
<g id="node20" class="node"><title>Node19</title>
<polygon fill="none" stroke="#bfbfbf" points="840.658,-285.5 840.658,-305.5 1017.66,-305.5 1017.66,-285.5 840.658,-285.5"/>
<text text-anchor="middle" x="929.158" y="-292.7" font-family="Avenir-Book" font-size="11.00">llvm/Support/MemoryBuffer.h</text>
</g>
<!-- Node0&#45;&gt;Node19 -->
<g id="edge30" class="edge"><title>Node0&#45;&gt;Node19</title>
<path fill="none" stroke="midnightblue" d="M558.987,-344.975C630.993,-335.545 764.856,-318.016 850.342,-306.821"/>
<polygon fill="midnightblue" stroke="midnightblue" points="850.801,-310.291 860.261,-305.522 849.892,-303.35 850.801,-310.291"/>
</g>
<!-- Node20 -->
<g id="node21" class="node"><title>Node20</title>
<polygon fill="none" stroke="#bfbfbf" points="1035.66,-285.5 1035.66,-305.5 1192.66,-305.5 1192.66,-285.5 1035.66,-285.5"/>
<text text-anchor="middle" x="1114.16" y="-292.7" font-family="Avenir-Book" font-size="11.00">llvm/Support/YAMLTraits.h</text>
</g>
<!-- Node0&#45;&gt;Node20 -->
<g id="edge31" class="edge"><title>Node0&#45;&gt;Node20</title>
<path fill="none" stroke="midnightblue" d="M558.834,-347.488C649.424,-340.096 847.796,-323.554 1025.4,-306.158"/>
<polygon fill="midnightblue" stroke="midnightblue" points="1025.84,-309.632 1035.45,-305.171 1025.15,-302.665 1025.84,-309.632"/>
</g>
<!-- Node2 -->
<g id="node3" class="node"><title>Node2</title>
<g id="a_node3"><a xlink:href="Serializer_8hh.html" target="_top" xlink:title="Declaration of Serializer. ">
<polygon fill="none" stroke="black" points="38.6584,-171.5 38.6584,-191.5 121.658,-191.5 121.658,-171.5 38.6584,-171.5"/>
<text text-anchor="middle" x="80.1584" y="-178.7" font-family="Avenir-Book" font-size="11.00">Serializer.hh</text>
</a>
</g>
</g>
<!-- Node1&#45;&gt;Node2 -->
<g id="edge2" class="edge"><title>Node1&#45;&gt;Node2</title>
<path fill="none" stroke="midnightblue" d="M80.1584,-228.418C80.1584,-221.216 80.1584,-210.896 80.1584,-201.863"/>
<polygon fill="midnightblue" stroke="midnightblue" points="83.6585,-201.779 80.1584,-191.779 76.6585,-201.779 83.6585,-201.779"/>
</g>
<!-- Node5 -->
<g id="node6" class="node"><title>Node5</title>
<polygon fill="none" stroke="#bfbfbf" points="121.658,-57.5 121.658,-77.5 184.658,-77.5 184.658,-57.5 121.658,-57.5"/>
<text text-anchor="middle" x="153.158" y="-64.7" font-family="Avenir-Book" font-size="11.00">memory</text>
</g>
<!-- Node1&#45;&gt;Node5 -->
<g id="edge5" class="edge"><title>Node1&#45;&gt;Node5</title>
<path fill="none" stroke="midnightblue" d="M67.5278,-228.416C39.8576,-207.412 -21.3669,-154.21 8.15839,-114 31.6501,-82.0073 77.6048,-71.9029 111.51,-69.0097"/>
<polygon fill="midnightblue" stroke="midnightblue" points="111.866,-72.4937 121.607,-68.3271 111.393,-65.5097 111.866,-72.4937"/>
</g>
<!-- Node3 -->
<g id="node4" class="node"><title>Node3</title>
<polygon fill="none" stroke="#bfbfbf" points="17.6584,-114.5 17.6584,-134.5 142.658,-134.5 142.658,-114.5 17.6584,-114.5"/>
<text text-anchor="middle" x="80.1584" y="-121.7" font-family="Avenir-Book" font-size="11.00">llvm/ADT/ArrayRef.h</text>
</g>
<!-- Node2&#45;&gt;Node3 -->
<g id="edge3" class="edge"><title>Node2&#45;&gt;Node3</title>
<path fill="none" stroke="midnightblue" d="M80.1584,-171.418C80.1584,-164.216 80.1584,-153.896 80.1584,-144.863"/>
<polygon fill="midnightblue" stroke="midnightblue" points="83.6585,-144.779 80.1584,-134.779 76.6585,-144.779 83.6585,-144.779"/>
</g>
<!-- Node4 -->
<g id="node5" class="node"><title>Node4</title>
<polygon fill="none" stroke="#bfbfbf" points="112.158,-0.5 112.158,-20.5 224.158,-20.5 224.158,-0.5 112.158,-0.5"/>
<text text-anchor="middle" x="168.158" y="-7.7" font-family="Avenir-Book" font-size="11.00">llvm/IR/IRBuilder.h</text>
</g>
<!-- Node2&#45;&gt;Node4 -->
<g id="edge4" class="edge"><title>Node2&#45;&gt;Node4</title>
<path fill="none" stroke="midnightblue" d="M56.0823,-171.421C30.1568,-160.129 -5.64149,-139.229 8.15839,-114 33.5897,-67.5058 90.1084,-39.0011 128.684,-24.217"/>
<polygon fill="midnightblue" stroke="midnightblue" points="130.387,-27.3197 138.561,-20.5792 127.968,-20.7511 130.387,-27.3197"/>
</g>
<!-- Node7 -->
<g id="node8" class="node"><title>Node7</title>
<g id="a_node8"><a xlink:href="Policy_8hh.html" target="_top" xlink:title="Definition of loom::Policy. ">
<polygon fill="none" stroke="black" points="204.158,-228.5 204.158,-248.5 266.158,-248.5 266.158,-228.5 204.158,-228.5"/>
<text text-anchor="middle" x="235.158" y="-235.7" font-family="Avenir-Book" font-size="11.00">Policy.hh</text>
</a>
</g>
</g>
<!-- Node6&#45;&gt;Node7 -->
<g id="edge7" class="edge"><title>Node6&#45;&gt;Node7</title>
<path fill="none" stroke="midnightblue" d="M284.416,-285.418C275.757,-277.346 262.894,-265.356 252.485,-255.652"/>
<polygon fill="midnightblue" stroke="midnightblue" points="254.814,-253.038 245.113,-248.779 250.041,-258.158 254.814,-253.038"/>
</g>
<!-- Node14 -->
<g id="node15" class="node"><title>Node14</title>
<polygon fill="none" stroke="#bfbfbf" points="284.158,-228.5 284.158,-248.5 424.158,-248.5 424.158,-228.5 284.158,-228.5"/>
<text text-anchor="middle" x="354.158" y="-235.7" font-family="Avenir-Book" font-size="11.00">llvm/Support/ErrorOr.h</text>
</g>
<!-- Node6&#45;&gt;Node14 -->
<g id="edge23" class="edge"><title>Node6&#45;&gt;Node14</title>
<path fill="none" stroke="midnightblue" d="M304.066,-285.418C312.872,-277.346 325.952,-265.356 336.538,-255.652"/>
<polygon fill="midnightblue" stroke="midnightblue" points="339.029,-258.117 344.035,-248.779 334.299,-252.957 339.029,-258.117"/>
</g>
<!-- Node7&#45;&gt;Node2 -->
<g id="edge20" class="edge"><title>Node7&#45;&gt;Node2</title>
<path fill="none" stroke="midnightblue" d="M209.563,-228.418C183.796,-219.275 143.862,-205.105 115.172,-194.924"/>
<polygon fill="midnightblue" stroke="midnightblue" points="116.129,-191.55 105.534,-191.504 113.788,-198.147 116.129,-191.55"/>
</g>
<!-- Node8 -->
<g id="node9" class="node"><title>Node8</title>
<g id="a_node9"><a xlink:href="InstrStrategy_8hh_source.html" target="_top" xlink:title="InstrStrategy.hh">
<polygon fill="none" stroke="black" points="183.158,-171.5 183.158,-191.5 287.158,-191.5 287.158,-171.5 183.158,-171.5"/>
<text text-anchor="middle" x="235.158" y="-178.7" font-family="Avenir-Book" font-size="11.00">InstrStrategy.hh</text>
</a>
</g>
</g>
<!-- Node7&#45;&gt;Node8 -->
<g id="edge8" class="edge"><title>Node7&#45;&gt;Node8</title>
<path fill="none" stroke="midnightblue" d="M235.158,-228.418C235.158,-221.216 235.158,-210.896 235.158,-201.863"/>
<polygon fill="midnightblue" stroke="midnightblue" points="238.658,-201.779 235.158,-191.779 231.658,-201.779 238.658,-201.779"/>
</g>
<!-- Node11 -->
<g id="node12" class="node"><title>Node11</title>
<polygon fill="none" stroke="#bfbfbf" points="388.658,-0.5 388.658,-20.5 439.658,-20.5 439.658,-0.5 388.658,-0.5"/>
<text text-anchor="middle" x="414.158" y="-7.7" font-family="Avenir-Book" font-size="11.00">vector</text>
</g>
<!-- Node7&#45;&gt;Node11 -->
<g id="edge22" class="edge"><title>Node7&#45;&gt;Node11</title>
<path fill="none" stroke="midnightblue" d="M250.113,-228.483C263.229,-220.104 282.314,-206.729 296.158,-192 345.423,-139.589 387.204,-64.1823 404.987,-29.8154"/>
<polygon fill="midnightblue" stroke="midnightblue" points="408.293,-31.0369 409.717,-20.5382 402.056,-27.8573 408.293,-31.0369"/>
</g>
<!-- Node13 -->
<g id="node14" class="node"><title>Node13</title>
<polygon fill="none" stroke="#bfbfbf" points="403.658,-171.5 403.658,-191.5 450.658,-191.5 450.658,-171.5 403.658,-171.5"/>
<text text-anchor="middle" x="427.158" y="-178.7" font-family="Avenir-Book" font-size="11.00">string</text>
</g>
<!-- Node7&#45;&gt;Node13 -->
<g id="edge21" class="edge"><title>Node7&#45;&gt;Node13</title>
<path fill="none" stroke="midnightblue" d="M266.434,-228.541C301.348,-218.54 357.64,-202.414 393.495,-192.143"/>
<polygon fill="midnightblue" stroke="midnightblue" points="394.825,-195.403 403.475,-189.284 392.898,-188.674 394.825,-195.403"/>
</g>
<!-- Node8&#45;&gt;Node3 -->
<g id="edge10" class="edge"><title>Node8&#45;&gt;Node3</title>
<path fill="none" stroke="midnightblue" d="M209.563,-171.418C183.796,-162.275 143.862,-148.105 115.172,-137.924"/>
<polygon fill="midnightblue" stroke="midnightblue" points="116.129,-134.55 105.534,-134.504 113.788,-141.147 116.129,-134.55"/>
</g>
<!-- Node8&#45;&gt;Node5 -->
<g id="edge9" class="edge"><title>Node8&#45;&gt;Node5</title>
<path fill="none" stroke="midnightblue" d="M224.686,-171.441C214.996,-162.726 200.562,-148.862 190.158,-135 178.783,-119.843 168.539,-100.794 161.73,-86.9728"/>
<polygon fill="midnightblue" stroke="midnightblue" points="164.706,-85.0823 157.231,-77.5738 158.392,-88.1048 164.706,-85.0823"/>
</g>
<!-- Node9 -->
<g id="node10" class="node"><title>Node9</title>
<polygon fill="none" stroke="#bfbfbf" points="242.158,-0.5 242.158,-20.5 370.158,-20.5 370.158,-0.5 242.158,-0.5"/>
<text text-anchor="middle" x="306.158" y="-7.7" font-family="Avenir-Book" font-size="11.00">llvm/ADT/StringRef.h</text>
</g>
<!-- Node8&#45;&gt;Node9 -->
<g id="edge11" class="edge"><title>Node8&#45;&gt;Node9</title>
<path fill="none" stroke="midnightblue" d="M251.703,-171.455C265.041,-163.424 283.445,-150.564 295.158,-135 316.818,-106.221 321.42,-92.7662 317.158,-57 316.114,-48.2342 313.975,-38.7153 311.859,-30.6607"/>
<polygon fill="midnightblue" stroke="midnightblue" points="315.162,-29.4766 309.092,-20.7929 308.422,-31.3665 315.162,-29.4766"/>
</g>
<!-- Node10 -->
<g id="node11" class="node"><title>Node10</title>
<g id="a_node11"><a xlink:href="IRUtils_8hh_source.html" target="_top" xlink:title="IRUtils.hh">
<polygon fill="none" stroke="black" points="241.658,-57.5 241.658,-77.5 308.658,-77.5 308.658,-57.5 241.658,-57.5"/>
<text text-anchor="middle" x="275.158" y="-64.7" font-family="Avenir-Book" font-size="11.00">IRUtils.hh</text>
</a>
</g>
</g>
<!-- Node8&#45;&gt;Node10 -->
<g id="edge12" class="edge"><title>Node8&#45;&gt;Node10</title>
<path fill="none" stroke="midnightblue" d="M248.364,-171.417C258.934,-163.275 272.978,-150.281 279.158,-135 285.249,-119.94 283.452,-101.388 280.59,-87.709"/>
<polygon fill="midnightblue" stroke="midnightblue" points="283.976,-86.8222 278.196,-77.9431 277.177,-88.4888 283.976,-86.8222"/>
</g>
<!-- Node12 -->
<g id="node13" class="node"><title>Node12</title>
<g id="a_node13"><a xlink:href="Logger_8hh.html" target="_top" xlink:title="Declaration of loom::Logger. ">
<polygon fill="none" stroke="black" points="199.658,-114.5 199.658,-134.5 270.658,-134.5 270.658,-114.5 199.658,-114.5"/>
<text text-anchor="middle" x="235.158" y="-121.7" font-family="Avenir-Book" font-size="11.00">Logger.hh</text>
</a>
</g>
</g>
<!-- Node8&#45;&gt;Node12 -->
<g id="edge16" class="edge"><title>Node8&#45;&gt;Node12</title>
<path fill="none" stroke="midnightblue" d="M235.158,-171.418C235.158,-164.216 235.158,-153.896 235.158,-144.863"/>
<polygon fill="midnightblue" stroke="midnightblue" points="238.658,-144.779 235.158,-134.779 231.658,-144.779 238.658,-144.779"/>
</g>
<!-- Node10&#45;&gt;Node4 -->
<g id="edge14" class="edge"><title>Node10&#45;&gt;Node4</title>
<path fill="none" stroke="midnightblue" d="M257.49,-57.4179C240.452,-48.6603 214.442,-35.2907 194.874,-25.2326"/>
<polygon fill="midnightblue" stroke="midnightblue" points="196.347,-22.0544 185.854,-20.5956 193.147,-28.2801 196.347,-22.0544"/>
</g>
<!-- Node10&#45;&gt;Node9 -->
<g id="edge13" class="edge"><title>Node10&#45;&gt;Node9</title>
<path fill="none" stroke="midnightblue" d="M280.277,-57.4179C284.515,-49.8998 290.668,-38.9829 295.912,-29.6799"/>
<polygon fill="midnightblue" stroke="midnightblue" points="299.067,-31.2096 300.928,-20.7795 292.969,-27.7724 299.067,-31.2096"/>
</g>
<!-- Node10&#45;&gt;Node11 -->
<g id="edge15" class="edge"><title>Node10&#45;&gt;Node11</title>
<path fill="none" stroke="midnightblue" d="M298.111,-57.4179C320.948,-48.3817 356.195,-34.4353 381.853,-24.2828"/>
<polygon fill="midnightblue" stroke="midnightblue" points="383.16,-27.5295 391.171,-20.5956 380.585,-21.0205 383.16,-27.5295"/>
</g>
<!-- Node12&#45;&gt;Node4 -->
<g id="edge18" class="edge"><title>Node12&#45;&gt;Node4</title>
<path fill="none" stroke="midnightblue" d="M229.676,-114.335C218.633,-95.8757 193.536,-53.9223 179.04,-29.6907"/>
<polygon fill="midnightblue" stroke="midnightblue" points="181.854,-27.577 173.717,-20.7921 175.847,-31.1706 181.854,-27.577"/>
</g>
<!-- Node12&#45;&gt;Node5 -->
<g id="edge19" class="edge"><title>Node12&#45;&gt;Node5</title>
<path fill="none" stroke="midnightblue" d="M221.618,-114.418C209.036,-105.979 190.069,-93.257 175.287,-83.3426"/>
<polygon fill="midnightblue" stroke="midnightblue" points="176.974,-80.2593 166.719,-77.5956 173.074,-86.0727 176.974,-80.2593"/>
</g>
<!-- Node12&#45;&gt;Node10 -->
<g id="edge17" class="edge"><title>Node12&#45;&gt;Node10</title>
<path fill="none" stroke="midnightblue" d="M241.764,-114.418C247.346,-106.742 255.506,-95.5217 262.362,-86.0945"/>
<polygon fill="midnightblue" stroke="midnightblue" points="265.359,-87.9255 268.41,-77.7795 259.697,-83.8082 265.359,-87.9255"/>
</g>
<!-- Node15&#45;&gt;Node11 -->
<g id="edge26" class="edge"><title>Node15&#45;&gt;Node11</title>
<path fill="none" stroke="midnightblue" d="M475.76,-228.452C472.353,-215.645 465.89,-191.504 460.158,-171 445.987,-120.3 428.619,-60.7465 419.832,-30.7865"/>
<polygon fill="midnightblue" stroke="midnightblue" points="423.084,-29.4417 416.908,-20.8332 416.368,-31.4143 423.084,-29.4417"/>
</g>
<!-- Node15&#45;&gt;Node13 -->
<g id="edge25" class="edge"><title>Node15&#45;&gt;Node13</title>
<path fill="none" stroke="midnightblue" d="M469.737,-228.418C462.399,-220.504 451.568,-208.824 442.667,-199.225"/>
<polygon fill="midnightblue" stroke="midnightblue" points="445.129,-196.732 435.763,-191.779 439.996,-201.492 445.129,-196.732"/>
</g>
</g>
</svg>
