<?xml version="1.0" encoding="UTF-8" standalone="no"?>
<!DOCTYPE svg PUBLIC "-//W3C//DTD SVG 1.1//EN"
 "http://www.w3.org/Graphics/SVG/1.1/DTD/svg11.dtd">
<!-- Generated by graphviz version 2.38.0 (20140413.2041)
 -->
<!-- Title: src/PolicyFile.hh Pages: 1 -->
<svg width="512pt" height="314pt"
 viewBox="0.00 0.00 511.74 314.00" xmlns="http://www.w3.org/2000/svg" xmlns:xlink="http://www.w3.org/1999/xlink">
<g id="graph0" class="graph" transform="scale(1 1) rotate(0) translate(4 310)">
<title>src/PolicyFile.hh</title>
<!-- Node0 -->
<g id="node1" class="node"><title>Node0</title>
<polygon fill="#bfbfbf" stroke="black" points="323.238,-285.5 323.238,-305.5 424.238,-305.5 424.238,-285.5 323.238,-285.5"/>
<text text-anchor="middle" x="373.738" y="-292.7" font-family="Avenir-Book" font-size="11.00">src/PolicyFile.hh</text>
</g>
<!-- Node1 -->
<g id="node2" class="node"><title>Node1</title>
<g id="a_node2"><a xlink:href="Policy_8hh.html" target="_top" xlink:title="Definition of loom::Policy. ">
<polygon fill="none" stroke="black" points="283.738,-228.5 283.738,-248.5 345.738,-248.5 345.738,-228.5 283.738,-228.5"/>
<text text-anchor="middle" x="314.738" y="-235.7" font-family="Avenir-Book" font-size="11.00">Policy.hh</text>
</a>
</g>
</g>
<!-- Node0&#45;&gt;Node1 -->
<g id="edge1" class="edge"><title>Node0&#45;&gt;Node1</title>
<path fill="none" stroke="midnightblue" d="M363.995,-285.418C355.336,-277.346 342.474,-265.356 332.064,-255.652"/>
<polygon fill="midnightblue" stroke="midnightblue" points="334.394,-253.038 324.692,-248.779 329.621,-258.158 334.394,-253.038"/>
</g>
<!-- Node12 -->
<g id="node13" class="node"><title>Node12</title>
<polygon fill="none" stroke="#bfbfbf" points="363.738,-228.5 363.738,-248.5 503.738,-248.5 503.738,-228.5 363.738,-228.5"/>
<text text-anchor="middle" x="433.738" y="-235.7" font-family="Avenir-Book" font-size="11.00">llvm/Support/ErrorOr.h</text>
</g>
<!-- Node0&#45;&gt;Node12 -->
<g id="edge19" class="edge"><title>Node0&#45;&gt;Node12</title>
<path fill="none" stroke="midnightblue" d="M383.646,-285.418C392.452,-277.346 405.532,-265.356 416.118,-255.652"/>
<polygon fill="midnightblue" stroke="midnightblue" points="418.609,-258.117 423.615,-248.779 413.878,-252.957 418.609,-258.117"/>
</g>
<!-- Node2 -->
<g id="node3" class="node"><title>Node2</title>
<g id="a_node3"><a xlink:href="InstrStrategy_8hh.html" target="_top" xlink:title="Declaration of loom::InstrStrategy. ">
<polygon fill="none" stroke="black" points="207.738,-171.5 207.738,-191.5 311.738,-191.5 311.738,-171.5 207.738,-171.5"/>
<text text-anchor="middle" x="259.738" y="-178.7" font-family="Avenir-Book" font-size="11.00">InstrStrategy.hh</text>
</a>
</g>
</g>
<!-- Node1&#45;&gt;Node2 -->
<g id="edge2" class="edge"><title>Node1&#45;&gt;Node2</title>
<path fill="none" stroke="midnightblue" d="M305.656,-228.418C297.663,-220.425 285.828,-208.59 276.176,-198.938"/>
<polygon fill="midnightblue" stroke="midnightblue" points="278.564,-196.376 269.018,-191.779 273.614,-201.325 278.564,-196.376"/>
</g>
<!-- Node8 -->
<g id="node9" class="node"><title>Node8</title>
<polygon fill="none" stroke="#bfbfbf" points="352.238,-0.5 352.238,-20.5 403.238,-20.5 403.238,-0.5 352.238,-0.5"/>
<text text-anchor="middle" x="377.738" y="-7.7" font-family="Avenir-Book" font-size="11.00">vector</text>
</g>
<!-- Node1&#45;&gt;Node8 -->
<g id="edge18" class="edge"><title>Node1&#45;&gt;Node8</title>
<path fill="none" stroke="midnightblue" d="M317.286,-228.361C326.686,-194.641 359.543,-76.7727 372.463,-30.4242"/>
<polygon fill="midnightblue" stroke="midnightblue" points="375.914,-31.0781 375.228,-20.5055 369.171,-29.1984 375.914,-31.0781"/>
</g>
<!-- Node10 -->
<g id="node11" class="node"><title>Node10</title>
<g id="a_node11"><a xlink:href="Serializer_8hh.html" target="_top" xlink:title="Declaration of loom::Serializer. ">
<polygon fill="none" stroke="black" points="33.2381,-171.5 33.2381,-191.5 116.238,-191.5 116.238,-171.5 33.2381,-171.5"/>
<text text-anchor="middle" x="74.7381" y="-178.7" font-family="Avenir-Book" font-size="11.00">Serializer.hh</text>
</a>
</g>
</g>
<!-- Node1&#45;&gt;Node10 -->
<g id="edge14" class="edge"><title>Node1&#45;&gt;Node10</title>
<path fill="none" stroke="midnightblue" d="M283.362,-230.31C242.793,-221.013 171.691,-204.718 123.914,-193.769"/>
<polygon fill="midnightblue" stroke="midnightblue" points="124.621,-190.341 114.092,-191.519 123.058,-197.164 124.621,-190.341"/>
</g>
<!-- Node11 -->
<g id="node12" class="node"><title>Node11</title>
<polygon fill="none" stroke="#bfbfbf" points="398.238,-171.5 398.238,-191.5 445.238,-191.5 445.238,-171.5 398.238,-171.5"/>
<text text-anchor="middle" x="421.738" y="-178.7" font-family="Avenir-Book" font-size="11.00">string</text>
</g>
<!-- Node1&#45;&gt;Node11 -->
<g id="edge17" class="edge"><title>Node1&#45;&gt;Node11</title>
<path fill="none" stroke="midnightblue" d="M332.407,-228.418C349.444,-219.66 375.454,-206.291 395.022,-196.233"/>
<polygon fill="midnightblue" stroke="midnightblue" points="396.749,-199.28 404.043,-191.596 393.549,-193.054 396.749,-199.28"/>
</g>
<!-- Node3 -->
<g id="node4" class="node"><title>Node3</title>
<polygon fill="none" stroke="#bfbfbf" points="116.238,-57.5 116.238,-77.5 179.238,-77.5 179.238,-57.5 116.238,-57.5"/>
<text text-anchor="middle" x="147.738" y="-64.7" font-family="Avenir-Book" font-size="11.00">memory</text>
</g>
<!-- Node2&#45;&gt;Node3 -->
<g id="edge3" class="edge"><title>Node2&#45;&gt;Node3</title>
<path fill="none" stroke="midnightblue" d="M238.64,-171.388C222.388,-163.562 200.163,-151.015 184.738,-135 171.316,-121.063 161.141,-101.309 154.892,-86.9537"/>
<polygon fill="midnightblue" stroke="midnightblue" points="158.09,-85.5284 151.044,-77.6158 151.618,-88.1952 158.09,-85.5284"/>
</g>
<!-- Node4 -->
<g id="node5" class="node"><title>Node4</title>
<polygon fill="none" stroke="#bfbfbf" points="12.2381,-114.5 12.2381,-134.5 137.238,-134.5 137.238,-114.5 12.2381,-114.5"/>
<text text-anchor="middle" x="74.7381" y="-121.7" font-family="Avenir-Book" font-size="11.00">llvm/ADT/ArrayRef.h</text>
</g>
<!-- Node2&#45;&gt;Node4 -->
<g id="edge4" class="edge"><title>Node2&#45;&gt;Node4</title>
<path fill="none" stroke="midnightblue" d="M229.189,-171.418C197.898,-162.115 149.101,-147.608 114.746,-137.394"/>
<polygon fill="midnightblue" stroke="midnightblue" points="115.608,-133.999 105.025,-134.504 113.613,-140.709 115.608,-133.999"/>
</g>
<!-- Node5 -->
<g id="node6" class="node"><title>Node5</title>
<polygon fill="none" stroke="#bfbfbf" points="205.738,-0.5 205.738,-20.5 333.738,-20.5 333.738,-0.5 205.738,-0.5"/>
<text text-anchor="middle" x="269.738" y="-7.7" font-family="Avenir-Book" font-size="11.00">llvm/ADT/StringRef.h</text>
</g>
<!-- Node2&#45;&gt;Node5 -->
<g id="edge5" class="edge"><title>Node2&#45;&gt;Node5</title>
<path fill="none" stroke="midnightblue" d="M266.688,-171.268C279.103,-154.056 304.474,-115.414 311.738,-78 313.517,-68.8378 315.137,-65.6925 311.738,-57 307.288,-45.619 298.509,-35.3741 290.123,-27.5003"/>
<polygon fill="midnightblue" stroke="midnightblue" points="292.191,-24.6598 282.357,-20.718 287.587,-29.9322 292.191,-24.6598"/>
</g>
<!-- Node6 -->
<g id="node7" class="node"><title>Node6</title>
<g id="a_node7"><a xlink:href="IRUtils_8hh.html" target="_top" xlink:title="Declarations of LLVM IR utility functions. ">
<polygon fill="none" stroke="black" points="236.238,-57.5 236.238,-77.5 303.238,-77.5 303.238,-57.5 236.238,-57.5"/>
<text text-anchor="middle" x="269.738" y="-64.7" font-family="Avenir-Book" font-size="11.00">IRUtils.hh</text>
</a>
</g>
</g>
<!-- Node2&#45;&gt;Node6 -->
<g id="edge6" class="edge"><title>Node2&#45;&gt;Node6</title>
<path fill="none" stroke="midnightblue" d="M263.469,-171.279C266.919,-162.219 271.796,-147.913 273.738,-135 276.13,-119.095 274.743,-100.847 272.977,-87.4942"/>
<polygon fill="midnightblue" stroke="midnightblue" points="276.435,-86.9527 271.478,-77.5886 269.513,-87.9995 276.435,-86.9527"/>
</g>
<!-- Node9 -->
<g id="node10" class="node"><title>Node9</title>
<g id="a_node10"><a xlink:href="Logger_8hh.html" target="_top" xlink:title="Declaration of loom::Logger. ">
<polygon fill="none" stroke="black" points="194.238,-114.5 194.238,-134.5 265.238,-134.5 265.238,-114.5 194.238,-114.5"/>
<text text-anchor="middle" x="229.738" y="-121.7" font-family="Avenir-Book" font-size="11.00">Logger.hh</text>
</a>
</g>
</g>
<!-- Node2&#45;&gt;Node9 -->
<g id="edge10" class="edge"><title>Node2&#45;&gt;Node9</title>
<path fill="none" stroke="midnightblue" d="M254.784,-171.418C250.683,-163.9 244.729,-152.983 239.654,-143.68"/>
<polygon fill="midnightblue" stroke="midnightblue" points="242.661,-141.882 234.8,-134.779 236.516,-145.234 242.661,-141.882"/>
</g>
<!-- Node6&#45;&gt;Node5 -->
<g id="edge7" class="edge"><title>Node6&#45;&gt;Node5</title>
<path fill="none" stroke="midnightblue" d="M269.738,-57.4179C269.738,-50.2164 269.738,-39.8962 269.738,-30.8632"/>
<polygon fill="midnightblue" stroke="midnightblue" points="273.238,-30.7794 269.738,-20.7795 266.238,-30.7795 273.238,-30.7794"/>
</g>
<!-- Node7 -->
<g id="node8" class="node"><title>Node7</title>
<polygon fill="none" stroke="#bfbfbf" points="75.7381,-0.5 75.7381,-20.5 187.738,-20.5 187.738,-0.5 75.7381,-0.5"/>
<text text-anchor="middle" x="131.738" y="-7.7" font-family="Avenir-Book" font-size="11.00">llvm/IR/IRBuilder.h</text>
</g>
<!-- Node6&#45;&gt;Node7 -->
<g id="edge8" class="edge"><title>Node6&#45;&gt;Node7</title>
<path fill="none" stroke="midnightblue" d="M246.95,-57.4179C224.377,-48.4215 189.593,-34.5581 164.148,-24.4172"/>
<polygon fill="midnightblue" stroke="midnightblue" points="165.145,-21.0467 154.56,-20.5956 162.553,-27.5493 165.145,-21.0467"/>
</g>
<!-- Node6&#45;&gt;Node8 -->
<g id="edge9" class="edge"><title>Node6&#45;&gt;Node8</title>
<path fill="none" stroke="midnightblue" d="M287.572,-57.4179C304.769,-48.6603 331.022,-35.2907 350.772,-25.2326"/>
<polygon fill="midnightblue" stroke="midnightblue" points="352.555,-28.2526 359.878,-20.5956 349.378,-22.0148 352.555,-28.2526"/>
</g>
<!-- Node9&#45;&gt;Node3 -->
<g id="edge13" class="edge"><title>Node9&#45;&gt;Node3</title>
<path fill="none" stroke="midnightblue" d="M216.197,-114.418C203.616,-105.979 184.649,-93.257 169.867,-83.3426"/>
<polygon fill="midnightblue" stroke="midnightblue" points="171.553,-80.2593 161.299,-77.5956 167.654,-86.0727 171.553,-80.2593"/>
</g>
<!-- Node9&#45;&gt;Node6 -->
<g id="edge11" class="edge"><title>Node9&#45;&gt;Node6</title>
<path fill="none" stroke="midnightblue" d="M236.343,-114.418C241.926,-106.742 250.086,-95.5217 256.942,-86.0945"/>
<polygon fill="midnightblue" stroke="midnightblue" points="259.938,-87.9255 262.989,-77.7795 254.277,-83.8082 259.938,-87.9255"/>
</g>
<!-- Node9&#45;&gt;Node7 -->
<g id="edge12" class="edge"><title>Node9&#45;&gt;Node7</title>
<path fill="none" stroke="midnightblue" d="M225.145,-114.258C218.19,-100.791 204.054,-75.3827 187.738,-57 177.634,-45.6154 164.504,-34.787 153.498,-26.5518"/>
<polygon fill="midnightblue" stroke="midnightblue" points="155.373,-23.5877 145.225,-20.5422 151.259,-29.2512 155.373,-23.5877"/>
</g>
<!-- Node10&#45;&gt;Node4 -->
<g id="edge15" class="edge"><title>Node10&#45;&gt;Node4</title>
<path fill="none" stroke="midnightblue" d="M74.7381,-171.418C74.7381,-164.216 74.7381,-153.896 74.7381,-144.863"/>
<polygon fill="midnightblue" stroke="midnightblue" points="78.2382,-144.779 74.7381,-134.779 71.2382,-144.779 78.2382,-144.779"/>
</g>
<!-- Node10&#45;&gt;Node7 -->
<g id="edge16" class="edge"><title>Node10&#45;&gt;Node7</title>
<path fill="none" stroke="midnightblue" d="M50.6588,-171.455C25.2029,-160.339 -9.68804,-139.745 2.73811,-114 23.1902,-71.627 70.6155,-41.3899 101.909,-25.1864"/>
<polygon fill="midnightblue" stroke="midnightblue" points="103.678,-28.2149 111.056,-20.6103 100.546,-21.9547 103.678,-28.2149"/>
</g>
</g>
</svg>
