<?xml version="1.0" encoding="UTF-8" standalone="no"?>
<!DOCTYPE svg PUBLIC "-//W3C//DTD SVG 1.1//EN"
 "http://www.w3.org/Graphics/SVG/1.1/DTD/svg11.dtd">
<!-- Generated by graphviz version 2.38.0 (20140413.2041)
 -->
<!-- Title: src/Serializer.hh Pages: 1 -->
<!--zoomable 314 -->
<svg id="main" version="1.1" xmlns="http://www.w3.org/2000/svg" xmlns:xlink="http://www.w3.org/1999/xlink" xml:space="preserve" onload="init(evt)">
<style type="text/css"><![CDATA[
.edge:hover path { stroke: red; }
.edge:hover polygon { stroke: red; fill: red; }
]]></style>
<script type="text/javascript"><![CDATA[
var edges = document.getElementsByTagName('g');
if (edges && edges.length) {
  for (var i=0;i<edges.length;i++) {
    if (edges[i].id.substr(0,4)=='edge') {
      edges[i].setAttribute('class','edge');
    }
  }
}
]]></script>
        <defs>
                <circle id="rim" cx="0" cy="0" r="7"/>
                <circle id="rim2" cx="0" cy="0" r="3.5"/>
                <g id="zoomPlus">
                        <use xlink:href="#rim" fill="#404040">
                                <set attributeName="fill" to="#808080" begin="zoomplus.mouseover" end="zoomplus.mouseout"/>
                        </use>
                        <path d="M-4,0h8M0,-4v8" fill="none" stroke="white" stroke-width="1.5" pointer-events="none"/>
                </g>
                <g id="zoomMin">
                        <use xlink:href="#rim" fill="#404040">
                                <set attributeName="fill" to="#808080" begin="zoomminus.mouseover" end="zoomminus.mouseout"/>
                        </use>
                        <path d="M-4,0h8" fill="none" stroke="white" stroke-width="1.5" pointer-events="none"/>
                </g>
                <g id="dirArrow">
                        <path fill="none" stroke="white" stroke-width="1.5" d="M0,-3.0v7 M-2.5,-0.5L0,-3.0L2.5,-0.5"/>
                </g>
               <g id="resetDef">
                       <use xlink:href="#rim2" fill="#404040">
                               <set attributeName="fill" to="#808080" begin="reset.mouseover" end="reset.mouseout"/>
                       </use>
               </g>
        </defs>

<script type="text/javascript">
var viewWidth = 647;
var viewHeight = 314;
var sectionId = 'dynsection-1';
</script>
<script xlink:href="svgpan.js"/>
<svg id="graph" class="graph">
<g id="viewport">
<title>src/Serializer.hh</title>
<!-- Node3 -->
<g id="node1" class="node"><title>Node3</title>
<polygon fill="#bfbfbf" stroke="black" points="339,-285.5 339,-305.5 442,-305.5 442,-285.5 339,-285.5"/>
<text text-anchor="middle" x="390.5" y="-292.7" font-family="Avenir-Book" font-size="11.00">src/Serializer.hh</text>
</g>
<!-- Node4 -->
<g id="node2" class="node"><title>Node4</title>
<g id="a_node2"><a xlink:href="Policy_8hh.html" target="_top" xlink:title="Definition of loom::Policy. ">
<polygon fill="none" stroke="black" points="157.5,-228.5 157.5,-248.5 239.5,-248.5 239.5,-228.5 157.5,-228.5"/>
<text text-anchor="middle" x="198.5" y="-235.7" font-family="Avenir-Book" font-size="11.00">src/Policy.hh</text>
</a>
</g>
</g>
<!-- Node3&#45;&gt;Node4 -->
<g id="edge1" class="edge"><title>Node3&#45;&gt;Node4</title>
<path fill="none" stroke="midnightblue" d="M349.138,-282.652C313.375,-272.407 262.445,-257.818 229.933,-248.504"/>
<polygon fill="midnightblue" stroke="midnightblue" points="348.218,-286.029 358.795,-285.418 350.146,-279.299 348.218,-286.029"/>
</g>
<!-- Node14 -->
<g id="node12" class="node"><title>Node14</title>
<g id="a_node12"><a xlink:href="KTraceLogger_8cc.html" target="_top" xlink:title="Definition of KTraceLogger. ">
<polygon fill="none" stroke="black" points="258,-228.5 258,-248.5 383,-248.5 383,-228.5 258,-228.5"/>
<text text-anchor="middle" x="320.5" y="-235.7" font-family="Avenir-Book" font-size="11.00">src/KTraceLogger.cc</text>
</a>
</g>
</g>
<!-- Node3&#45;&gt;Node14 -->
<g id="edge13" class="edge"><title>Node3&#45;&gt;Node14</title>
<path fill="none" stroke="midnightblue" d="M370.964,-279.15C358.542,-269.39 342.867,-257.074 332.31,-248.779"/>
<polygon fill="midnightblue" stroke="midnightblue" points="368.915,-281.992 378.941,-285.418 373.24,-276.487 368.915,-281.992"/>
</g>
<!-- Node15 -->
<g id="node13" class="node"><title>Node15</title>
<g id="a_node13"><a xlink:href="NVSerializer_8hh.html" target="_top" xlink:title="Declaration of NVSerializer. ">
<polygon fill="none" stroke="black" points="401,-228.5 401,-248.5 520,-248.5 520,-228.5 401,-228.5"/>
<text text-anchor="middle" x="460.5" y="-235.7" font-family="Avenir-Book" font-size="11.00">src/NVSerializer.hh</text>
</a>
</g>
</g>
<!-- Node3&#45;&gt;Node15 -->
<g id="edge14" class="edge"><title>Node3&#45;&gt;Node15</title>
<path fill="none" stroke="midnightblue" d="M410.036,-279.15C422.458,-269.39 438.133,-257.074 448.69,-248.779"/>
<polygon fill="midnightblue" stroke="midnightblue" points="407.76,-276.487 402.059,-285.418 412.085,-281.992 407.76,-276.487"/>
</g>
<!-- Node17 -->
<g id="node15" class="node"><title>Node17</title>
<g id="a_node15"><a xlink:href="Serializer_8cc.html" target="_top" xlink:title="Definition of Serializer. ">
<polygon fill="none" stroke="black" points="538,-228.5 538,-248.5 639,-248.5 639,-228.5 538,-228.5"/>
<text text-anchor="middle" x="588.5" y="-235.7" font-family="Avenir-Book" font-size="11.00">src/Serializer.cc</text>
</a>
</g>
</g>
<!-- Node3&#45;&gt;Node17 -->
<g id="edge17" class="edge"><title>Node3&#45;&gt;Node17</title>
<path fill="none" stroke="midnightblue" d="M433.154,-282.652C470.035,-272.407 522.556,-257.818 556.085,-248.504"/>
<polygon fill="midnightblue" stroke="midnightblue" points="431.894,-279.369 423.196,-285.418 433.768,-286.114 431.894,-279.369"/>
</g>
<!-- Node5 -->
<g id="node3" class="node"><title>Node5</title>
<g id="a_node3"><a xlink:href="PolicyFile_8hh.html" target="_top" xlink:title="Declaration of loom::PolicyFile. ">
<polygon fill="none" stroke="black" points="260,-171.5 260,-191.5 361,-191.5 361,-171.5 260,-171.5"/>
<text text-anchor="middle" x="310.5" y="-178.7" font-family="Avenir-Book" font-size="11.00">src/PolicyFile.hh</text>
</a>
</g>
</g>
<!-- Node4&#45;&gt;Node5 -->
<g id="edge2" class="edge"><title>Node4&#45;&gt;Node5</title>
<path fill="none" stroke="midnightblue" d="M226.154,-223.92C246.66,-213.85 274.054,-200.398 291.978,-191.596"/>
<polygon fill="midnightblue" stroke="midnightblue" points="224.428,-220.868 216.995,-228.418 227.513,-227.152 224.428,-220.868"/>
</g>
<!-- Node9 -->
<g id="node7" class="node"><title>Node9</title>
<g id="a_node7"><a xlink:href="Instrumenter_8hh.html" target="_top" xlink:title="Declaration of loom::Instrumenter. ">
<polygon fill="none" stroke="black" points="0,-57.5 0,-77.5 125,-77.5 125,-57.5 0,-57.5"/>
<text text-anchor="middle" x="62.5" y="-64.7" font-family="Avenir-Book" font-size="11.00">src/Instrumenter.hh</text>
</a>
</g>
</g>
<!-- Node4&#45;&gt;Node9 -->
<g id="edge11" class="edge"><title>Node4&#45;&gt;Node9</title>
<path fill="none" stroke="midnightblue" d="M195.983,-218.26C193.476,-204.296 188.628,-185.405 179.5,-171 152.469,-128.344 102.499,-93.3135 77.5261,-77.5285"/>
<polygon fill="midnightblue" stroke="midnightblue" points="192.537,-218.879 197.529,-228.224 199.455,-217.806 192.537,-218.879"/>
</g>
<!-- Node13 -->
<g id="node11" class="node"><title>Node13</title>
<g id="a_node11"><a xlink:href="Policy_8cc.html" target="_top" xlink:title="Definition of loom::Policy. ">
<polygon fill="none" stroke="black" points="90.5,-171.5 90.5,-191.5 170.5,-191.5 170.5,-171.5 90.5,-171.5"/>
<text text-anchor="middle" x="130.5" y="-178.7" font-family="Avenir-Book" font-size="11.00">src/Policy.cc</text>
</a>
</g>
</g>
<!-- Node4&#45;&gt;Node13 -->
<g id="edge12" class="edge"><title>Node4&#45;&gt;Node13</title>
<path fill="none" stroke="midnightblue" d="M179.173,-221.868C167.162,-212.153 152.129,-199.994 141.973,-191.779"/>
<polygon fill="midnightblue" stroke="midnightblue" points="177.295,-224.85 187.271,-228.418 181.697,-219.408 177.295,-224.85"/>
</g>
<!-- Node6 -->
<g id="node4" class="node"><title>Node6</title>
<g id="a_node4"><a xlink:href="Instrumentation_8hh_source.html" target="_top" xlink:title="src/Instrumentation.hh">
<polygon fill="none" stroke="black" points="231,-114.5 231,-134.5 372,-134.5 372,-114.5 231,-114.5"/>
<text text-anchor="middle" x="301.5" y="-121.7" font-family="Avenir-Book" font-size="11.00">src/Instrumentation.hh</text>
</a>
</g>
</g>
<!-- Node5&#45;&gt;Node6 -->
<g id="edge3" class="edge"><title>Node5&#45;&gt;Node6</title>
<path fill="none" stroke="midnightblue" d="M307.372,-161.383C305.898,-152.374 304.206,-142.037 303.018,-134.779"/>
<polygon fill="midnightblue" stroke="midnightblue" points="303.945,-162.114 309.014,-171.418 310.853,-160.984 303.945,-162.114"/>
</g>
<!-- Node11 -->
<g id="node9" class="node"><title>Node11</title>
<g id="a_node9"><a xlink:href="OptPass_8cc.html" target="_top" xlink:title="Definition of loom::OptPass. ">
<polygon fill="none" stroke="black" points="272.5,-0.5 272.5,-20.5 370.5,-20.5 370.5,-0.5 272.5,-0.5"/>
<text text-anchor="middle" x="321.5" y="-7.7" font-family="Avenir-Book" font-size="11.00">src/OptPass.cc</text>
</a>
</g>
</g>
<!-- Node5&#45;&gt;Node11 -->
<g id="edge9" class="edge"><title>Node5&#45;&gt;Node11</title>
<path fill="none" stroke="midnightblue" d="M340.074,-166.7C370.629,-150.482 416.1,-120.31 432.5,-78 444.516,-46.9998 405.539,-29.6174 370.514,-20.4683"/>
<polygon fill="midnightblue" stroke="midnightblue" points="338.426,-163.612 331.119,-171.283 341.615,-169.843 338.426,-163.612"/>
</g>
<!-- Node12 -->
<g id="node10" class="node"><title>Node12</title>
<g id="a_node10"><a xlink:href="PolicyFile_8cc.html" target="_top" xlink:title="Definition of PolicyFile. ">
<polygon fill="none" stroke="black" points="480,-114.5 480,-134.5 579,-134.5 579,-114.5 480,-114.5"/>
<text text-anchor="middle" x="529.5" y="-121.7" font-family="Avenir-Book" font-size="11.00">src/PolicyFile.cc</text>
</a>
</g>
</g>
<!-- Node5&#45;&gt;Node12 -->
<g id="edge10" class="edge"><title>Node5&#45;&gt;Node12</title>
<path fill="none" stroke="midnightblue" d="M356.377,-168.978C397.227,-158.719 456.166,-143.917 493.647,-134.504"/>
<polygon fill="midnightblue" stroke="midnightblue" points="355.51,-165.587 346.663,-171.418 357.215,-172.377 355.51,-165.587"/>
</g>
<!-- Node7 -->
<g id="node5" class="node"><title>Node7</title>
<g id="a_node5"><a xlink:href="InstrStrategy_8cc.html" target="_top" xlink:title="Definition of loom::InstrStrategy. ">
<polygon fill="none" stroke="black" points="143.5,-57.5 143.5,-77.5 265.5,-77.5 265.5,-57.5 143.5,-57.5"/>
<text text-anchor="middle" x="204.5" y="-64.7" font-family="Avenir-Book" font-size="11.00">src/InstrStrategy.cc</text>
</a>
</g>
</g>
<!-- Node6&#45;&gt;Node7 -->
<g id="edge4" class="edge"><title>Node6&#45;&gt;Node7</title>
<path fill="none" stroke="midnightblue" d="M276.335,-109.231C258.72,-99.2435 235.714,-86.1986 220.541,-77.5956"/>
<polygon fill="midnightblue" stroke="midnightblue" points="275.057,-112.53 285.482,-114.418 278.51,-106.441 275.057,-112.53"/>
</g>
<!-- Node8 -->
<g id="node6" class="node"><title>Node8</title>
<g id="a_node6"><a xlink:href="Instrumentation_8cc_source.html" target="_top" xlink:title="src/Instrumentation.cc">
<polygon fill="none" stroke="black" points="283.5,-57.5 283.5,-77.5 423.5,-77.5 423.5,-57.5 283.5,-57.5"/>
<text text-anchor="middle" x="353.5" y="-64.7" font-family="Avenir-Book" font-size="11.00">src/Instrumentation.cc</text>
</a>
</g>
</g>
<!-- Node6&#45;&gt;Node8 -->
<g id="edge5" class="edge"><title>Node6&#45;&gt;Node8</title>
<path fill="none" stroke="midnightblue" d="M317.088,-107.013C326.13,-97.4485 337.186,-85.7552 344.727,-77.7795"/>
<polygon fill="midnightblue" stroke="midnightblue" points="314.414,-104.747 310.087,-114.418 319.5,-109.556 314.414,-104.747"/>
</g>
<!-- Node6&#45;&gt;Node9 -->
<g id="edge6" class="edge"><title>Node6&#45;&gt;Node9</title>
<path fill="none" stroke="midnightblue" d="M252.555,-112.237C207.97,-101.976 142.972,-87.0187 101.72,-77.5255"/>
<polygon fill="midnightblue" stroke="midnightblue" points="251.771,-115.648 262.302,-114.479 253.341,-108.826 251.771,-115.648"/>
</g>
<!-- Node10 -->
<g id="node8" class="node"><title>Node10</title>
<g id="a_node8"><a xlink:href="Instrumenter_8cc.html" target="_top" xlink:title="Definition of loom::Instrumenter. ">
<polygon fill="none" stroke="black" points="1,-0.5 1,-20.5 124,-20.5 124,-0.5 1,-0.5"/>
<text text-anchor="middle" x="62.5" y="-7.7" font-family="Avenir-Book" font-size="11.00">src/Instrumenter.cc</text>
</a>
</g>
</g>
<!-- Node9&#45;&gt;Node10 -->
<g id="edge7" class="edge"><title>Node9&#45;&gt;Node10</title>
<path fill="none" stroke="midnightblue" d="M62.5,-47.383C62.5,-38.3738 62.5,-28.0373 62.5,-20.7795"/>
<polygon fill="midnightblue" stroke="midnightblue" points="59.0001,-47.4178 62.5,-57.4179 66.0001,-47.4179 59.0001,-47.4178"/>
</g>
<!-- Node9&#45;&gt;Node11 -->
<g id="edge8" class="edge"><title>Node9&#45;&gt;Node11</title>
<path fill="none" stroke="midnightblue" d="M114.933,-55.3656C163.264,-45.1023 234.106,-30.0586 278.998,-20.5255"/>
<polygon fill="midnightblue" stroke="midnightblue" points="114.033,-51.9785 104.979,-57.4795 115.487,-58.8258 114.033,-51.9785"/>
</g>
<!-- Node15&#45;&gt;Node12 -->
<g id="edge16" class="edge"><title>Node15&#45;&gt;Node12</title>
<path fill="none" stroke="midnightblue" d="M481.658,-222.135C491.36,-214.123 502.282,-203.583 509.5,-192 520.977,-173.583 526.202,-148.188 528.293,-134.733"/>
<polygon fill="midnightblue" stroke="midnightblue" points="479.272,-219.559 473.569,-228.488 483.596,-225.064 479.272,-219.559"/>
</g>
<!-- Node16 -->
<g id="node14" class="node"><title>Node16</title>
<g id="a_node14"><a xlink:href="NVSerializer_8cc.html" target="_top" xlink:title="Definition of NVSerializer. ">
<polygon fill="none" stroke="black" points="384,-171.5 384,-191.5 501,-191.5 501,-171.5 384,-171.5"/>
<text text-anchor="middle" x="442.5" y="-178.7" font-family="Avenir-Book" font-size="11.00">src/NVSerializer.cc</text>
</a>
</g>
</g>
<!-- Node15&#45;&gt;Node16 -->
<g id="edge15" class="edge"><title>Node15&#45;&gt;Node16</title>
<path fill="none" stroke="midnightblue" d="M454.341,-218.68C451.37,-209.601 447.938,-199.117 445.537,-191.779"/>
<polygon fill="midnightblue" stroke="midnightblue" points="451.091,-220.003 457.528,-228.418 457.744,-217.825 451.091,-220.003"/>
</g>
</g>
</svg>
        <g id="navigator" transform="translate(0 0)" fill="#404254">
                <rect fill="#f2f5e9" fill-opacity="0.5" stroke="#606060" stroke-width=".5" x="0" y="0" width="60" height="60"/>
                <use id="zoomplus" xlink:href="#zoomPlus" x="17" y="9" onmousedown="handleZoom(evt,'in')"/>
                <use id="zoomminus" xlink:href="#zoomMin" x="42" y="9" onmousedown="handleZoom(evt,'out')"/>
                <use id="reset" xlink:href="#resetDef" x="30" y="36" onmousedown="handleReset()"/>
                <g id="arrowUp" xlink:href="#dirArrow" transform="translate(30 24)" onmousedown="handlePan(0,-1)">
                  <use xlink:href="#rim" fill="#404040">
                        <set attributeName="fill" to="#808080" begin="arrowUp.mouseover" end="arrowUp.mouseout"/>
                  </use>
                  <path fill="none" stroke="white" stroke-width="1.5" d="M0,-3.0v7 M-2.5,-0.5L0,-3.0L2.5,-0.5"/>
                </g>
                <g id="arrowRight" xlink:href="#dirArrow" transform="rotate(90) translate(36 -43)" onmousedown="handlePan(1,0)">
                  <use xlink:href="#rim" fill="#404040">
                        <set attributeName="fill" to="#808080" begin="arrowRight.mouseover" end="arrowRight.mouseout"/>
                  </use>
                  <path fill="none" stroke="white" stroke-width="1.5" d="M0,-3.0v7 M-2.5,-0.5L0,-3.0L2.5,-0.5"/>
                </g>
                <g id="arrowDown" xlink:href="#dirArrow" transform="rotate(180) translate(-30 -48)" onmousedown="handlePan(0,1)">
                  <use xlink:href="#rim" fill="#404040">
                        <set attributeName="fill" to="#808080" begin="arrowDown.mouseover" end="arrowDown.mouseout"/>
                  </use>
                  <path fill="none" stroke="white" stroke-width="1.5" d="M0,-3.0v7 M-2.5,-0.5L0,-3.0L2.5,-0.5"/>
                </g>
                <g id="arrowLeft" xlink:href="#dirArrow" transform="rotate(270) translate(-36 17)" onmousedown="handlePan(-1,0)">
                  <use xlink:href="#rim" fill="#404040">
                        <set attributeName="fill" to="#808080" begin="arrowLeft.mouseover" end="arrowLeft.mouseout"/>
                  </use>
                  <path fill="none" stroke="white" stroke-width="1.5" d="M0,-3.0v7 M-2.5,-0.5L0,-3.0L2.5,-0.5"/>
                </g>
        </g>
        <svg viewBox="0 0 15 15" width="100%" height="30px" preserveAspectRatio="xMaxYMin meet">
         <g id="arrow_out" transform="scale(0.3 0.3)">
          <a xlink:href="Serializer_8hh__dep__incl_org.svg" target="_base">
           <rect id="button" ry="5" rx="5" y="6" x="6" height="38" width="38"
                fill="#f2f5e9" fill-opacity="0.5" stroke="#606060" stroke-width="1.0"/>
           <path id="arrow"
             d="M 11.500037,31.436501 C 11.940474,20.09759 22.043105,11.32322 32.158766,21.979434 L 37.068811,17.246167 C 37.068811,17.246167 37.088388,32 37.088388,32 L 22.160133,31.978069 C 22.160133,31.978069 26.997745,27.140456 26.997745,27.140456 C 18.528582,18.264221 13.291696,25.230495 11.500037,31.436501 z"
             style="fill:#404040;"/>
          </a>
         </g>
        </svg>
</svg>
