<?xml version="1.0" encoding="UTF-8" standalone="no"?>
<!DOCTYPE svg PUBLIC "-//W3C//DTD SVG 1.1//EN"
 "http://www.w3.org/Graphics/SVG/1.1/DTD/svg11.dtd">
<!-- Generated by graphviz version 2.38.0 (20140413.2041)
 -->
<!-- Title: src/Serializer.cc Pages: 1 -->
<svg width="264pt" height="143pt"
 viewBox="0.00 0.00 263.50 143.00" xmlns="http://www.w3.org/2000/svg" xmlns:xlink="http://www.w3.org/1999/xlink">
<g id="graph0" class="graph" transform="scale(1 1) rotate(0) translate(4 139)">
<title>src/Serializer.cc</title>
<!-- Node0 -->
<g id="node1" class="node"><title>Node0</title>
<polygon fill="#bfbfbf" stroke="black" points="80,-114.5 80,-134.5 181,-134.5 181,-114.5 80,-114.5"/>
<text text-anchor="middle" x="130.5" y="-121.7" font-family="Avenir-Book" font-size="11.00">src/Serializer.cc</text>
</g>
<!-- Node1 -->
<g id="node2" class="node"><title>Node1</title>
<g id="a_node2"><a xlink:href="Serializer_8hh.html" target="_top" xlink:title="Declaration of Serializer. ">
<polygon fill="none" stroke="black" points="89,-57.5 89,-77.5 172,-77.5 172,-57.5 89,-57.5"/>
<text text-anchor="middle" x="130.5" y="-64.7" font-family="Avenir-Book" font-size="11.00">Serializer.hh</text>
</a>
</g>
</g>
<!-- Node0&#45;&gt;Node1 -->
<g id="edge1" class="edge"><title>Node0&#45;&gt;Node1</title>
<path fill="none" stroke="midnightblue" d="M130.5,-114.418C130.5,-107.216 130.5,-96.8962 130.5,-87.8632"/>
<polygon fill="midnightblue" stroke="midnightblue" points="134,-87.7794 130.5,-77.7795 127,-87.7795 134,-87.7794"/>
</g>
<!-- Node2 -->
<g id="node3" class="node"><title>Node2</title>
<polygon fill="none" stroke="#bfbfbf" points="0,-0.5 0,-20.5 125,-20.5 125,-0.5 0,-0.5"/>
<text text-anchor="middle" x="62.5" y="-7.7" font-family="Avenir-Book" font-size="11.00">llvm/ADT/ArrayRef.h</text>
</g>
<!-- Node1&#45;&gt;Node2 -->
<g id="edge2" class="edge"><title>Node1&#45;&gt;Node2</title>
<path fill="none" stroke="midnightblue" d="M119.271,-57.4179C109.096,-49.1876 93.8837,-36.8839 81.7669,-27.0836"/>
<polygon fill="midnightblue" stroke="midnightblue" points="83.949,-24.3469 73.9728,-20.7795 79.5469,-29.7895 83.949,-24.3469"/>
</g>
<!-- Node3 -->
<g id="node4" class="node"><title>Node3</title>
<polygon fill="none" stroke="#bfbfbf" points="143.5,-0.5 143.5,-20.5 255.5,-20.5 255.5,-0.5 143.5,-0.5"/>
<text text-anchor="middle" x="199.5" y="-7.7" font-family="Avenir-Book" font-size="11.00">llvm/IR/IRBuilder.h</text>
</g>
<!-- Node1&#45;&gt;Node3 -->
<g id="edge3" class="edge"><title>Node1&#45;&gt;Node3</title>
<path fill="none" stroke="midnightblue" d="M141.894,-57.4179C152.219,-49.1876 167.655,-36.8839 179.95,-27.0836"/>
<polygon fill="midnightblue" stroke="midnightblue" points="182.22,-29.7495 187.859,-20.7795 177.857,-24.2757 182.22,-29.7495"/>
</g>
</g>
</svg>
