<?xml version="1.0" encoding="UTF-8" standalone="no"?>
<!DOCTYPE svg PUBLIC "-//W3C//DTD SVG 1.1//EN"
 "http://www.w3.org/Graphics/SVG/1.1/DTD/svg11.dtd">
<!-- Generated by graphviz version 2.38.0 (20140413.2041)
 -->
<!-- Title: src/Strings.cc Pages: 1 -->
<svg width="267pt" height="143pt"
 viewBox="0.00 0.00 266.50 143.00" xmlns="http://www.w3.org/2000/svg" xmlns:xlink="http://www.w3.org/1999/xlink">
<g id="graph0" class="graph" transform="scale(1 1) rotate(0) translate(4 139)">
<title>src/Strings.cc</title>
<!-- Node0 -->
<g id="node1" class="node"><title>Node0</title>
<polygon fill="#bfbfbf" stroke="black" points="99,-114.5 99,-134.5 190,-134.5 190,-114.5 99,-114.5"/>
<text text-anchor="middle" x="144.5" y="-121.7" font-family="Avenir-Book" font-size="11.00">src/Strings.cc</text>
</g>
<!-- Node1 -->
<g id="node2" class="node"><title>Node1</title>
<g id="a_node2"><a xlink:href="Strings_8hh.html" target="_top" xlink:title="Declaration of string manipulation functions. ">
<polygon fill="none" stroke="black" points="20.5,-57.5 20.5,-77.5 92.5,-77.5 92.5,-57.5 20.5,-57.5"/>
<text text-anchor="middle" x="56.5" y="-64.7" font-family="Avenir-Book" font-size="11.00">Strings.hh</text>
</a>
</g>
</g>
<!-- Node0&#45;&gt;Node1 -->
<g id="edge1" class="edge"><title>Node0&#45;&gt;Node1</title>
<path fill="none" stroke="midnightblue" d="M129.969,-114.418C116.339,-105.899 95.7265,-93.0166 79.8004,-83.0627"/>
<polygon fill="midnightblue" stroke="midnightblue" points="81.388,-79.9277 71.053,-77.5956 77.678,-85.8637 81.388,-79.9277"/>
</g>
<!-- Node4 -->
<g id="node5" class="node"><title>Node4</title>
<polygon fill="none" stroke="#bfbfbf" points="110.5,-57.5 110.5,-77.5 178.5,-77.5 178.5,-57.5 110.5,-57.5"/>
<text text-anchor="middle" x="144.5" y="-64.7" font-family="Avenir-Book" font-size="11.00">algorithm</text>
</g>
<!-- Node0&#45;&gt;Node4 -->
<g id="edge4" class="edge"><title>Node0&#45;&gt;Node4</title>
<path fill="none" stroke="midnightblue" d="M144.5,-114.418C144.5,-107.216 144.5,-96.8962 144.5,-87.8632"/>
<polygon fill="midnightblue" stroke="midnightblue" points="148,-87.7794 144.5,-77.7795 141,-87.7795 148,-87.7794"/>
</g>
<!-- Node5 -->
<g id="node6" class="node"><title>Node5</title>
<polygon fill="none" stroke="#bfbfbf" points="196.5,-57.5 196.5,-77.5 258.5,-77.5 258.5,-57.5 196.5,-57.5"/>
<text text-anchor="middle" x="227.5" y="-64.7" font-family="Avenir-Book" font-size="11.00">sstream</text>
</g>
<!-- Node0&#45;&gt;Node5 -->
<g id="edge5" class="edge"><title>Node0&#45;&gt;Node5</title>
<path fill="none" stroke="midnightblue" d="M158.206,-114.418C170.941,-105.979 190.139,-93.257 205.101,-83.3426"/>
<polygon fill="midnightblue" stroke="midnightblue" points="207.371,-86.037 213.774,-77.5956 203.505,-80.2019 207.371,-86.037"/>
</g>
<!-- Node2 -->
<g id="node3" class="node"><title>Node2</title>
<polygon fill="none" stroke="#bfbfbf" points="0,-0.5 0,-20.5 47,-20.5 47,-0.5 0,-0.5"/>
<text text-anchor="middle" x="23.5" y="-7.7" font-family="Avenir-Book" font-size="11.00">string</text>
</g>
<!-- Node1&#45;&gt;Node2 -->
<g id="edge2" class="edge"><title>Node1&#45;&gt;Node2</title>
<path fill="none" stroke="midnightblue" d="M51.0507,-57.4179C46.4924,-49.8207 39.8516,-38.7527 34.232,-29.3866"/>
<polygon fill="midnightblue" stroke="midnightblue" points="37.2139,-27.5536 29.0677,-20.7795 31.2114,-31.1552 37.2139,-27.5536"/>
</g>
<!-- Node3 -->
<g id="node4" class="node"><title>Node3</title>
<polygon fill="none" stroke="#bfbfbf" points="65,-0.5 65,-20.5 116,-20.5 116,-0.5 65,-0.5"/>
<text text-anchor="middle" x="90.5" y="-7.7" font-family="Avenir-Book" font-size="11.00">vector</text>
</g>
<!-- Node1&#45;&gt;Node3 -->
<g id="edge3" class="edge"><title>Node1&#45;&gt;Node3</title>
<path fill="none" stroke="midnightblue" d="M62.1144,-57.4179C66.8109,-49.8207 73.6529,-38.7527 79.4428,-29.3866"/>
<polygon fill="midnightblue" stroke="midnightblue" points="82.4824,-31.1258 84.7636,-20.7795 76.5283,-27.445 82.4824,-31.1258"/>
</g>
</g>
</svg>
