<?xml version="1.0" encoding="UTF-8" standalone="no"?>
<!DOCTYPE svg PUBLIC "-//W3C//DTD SVG 1.1//EN"
 "http://www.w3.org/Graphics/SVG/1.1/DTD/svg11.dtd">
<!-- Generated by graphviz version 2.38.0 (20140413.2041)
 -->
<!-- Title: src/Strings.hh Pages: 1 -->
<svg width="124pt" height="86pt"
 viewBox="0.00 0.00 124.00 86.00" xmlns="http://www.w3.org/2000/svg" xmlns:xlink="http://www.w3.org/1999/xlink">
<g id="graph0" class="graph" transform="scale(1 1) rotate(0) translate(4 82)">
<title>src/Strings.hh</title>
<!-- Node0 -->
<g id="node1" class="node"><title>Node0</title>
<polygon fill="#bfbfbf" stroke="black" points="10.5,-57.5 10.5,-77.5 102.5,-77.5 102.5,-57.5 10.5,-57.5"/>
<text text-anchor="middle" x="56.5" y="-64.7" font-family="Avenir-Book" font-size="11.00">src/Strings.hh</text>
</g>
<!-- Node1 -->
<g id="node2" class="node"><title>Node1</title>
<polygon fill="none" stroke="#bfbfbf" points="0,-0.5 0,-20.5 47,-20.5 47,-0.5 0,-0.5"/>
<text text-anchor="middle" x="23.5" y="-7.7" font-family="Avenir-Book" font-size="11.00">string</text>
</g>
<!-- Node0&#45;&gt;Node1 -->
<g id="edge1" class="edge"><title>Node0&#45;&gt;Node1</title>
<path fill="none" stroke="midnightblue" d="M51.0507,-57.4179C46.4924,-49.8207 39.8516,-38.7527 34.232,-29.3866"/>
<polygon fill="midnightblue" stroke="midnightblue" points="37.2139,-27.5536 29.0677,-20.7795 31.2114,-31.1552 37.2139,-27.5536"/>
</g>
<!-- Node2 -->
<g id="node3" class="node"><title>Node2</title>
<polygon fill="none" stroke="#bfbfbf" points="65,-0.5 65,-20.5 116,-20.5 116,-0.5 65,-0.5"/>
<text text-anchor="middle" x="90.5" y="-7.7" font-family="Avenir-Book" font-size="11.00">vector</text>
</g>
<!-- Node0&#45;&gt;Node2 -->
<g id="edge2" class="edge"><title>Node0&#45;&gt;Node2</title>
<path fill="none" stroke="midnightblue" d="M62.1144,-57.4179C66.8109,-49.8207 73.6529,-38.7527 79.4428,-29.3866"/>
<polygon fill="midnightblue" stroke="midnightblue" points="82.4824,-31.1258 84.7636,-20.7795 76.5283,-27.445 82.4824,-31.1258"/>
</g>
</g>
</svg>
