<?xml version="1.0" encoding="UTF-8" standalone="no"?>
<!DOCTYPE svg PUBLIC "-//W3C//DTD SVG 1.1//EN"
 "http://www.w3.org/Graphics/SVG/1.1/DTD/svg11.dtd">
<!-- Generated by graphviz version 2.38.0 (20140413.2041)
 -->
<!-- Title: src/Strings.hh Pages: 1 -->
<svg width="216pt" height="86pt"
 viewBox="0.00 0.00 216.00 86.00" xmlns="http://www.w3.org/2000/svg" xmlns:xlink="http://www.w3.org/1999/xlink">
<g id="graph0" class="graph" transform="scale(1 1) rotate(0) translate(4 82)">
<title>src/Strings.hh</title>
<!-- Node3 -->
<g id="node1" class="node"><title>Node3</title>
<polygon fill="#bfbfbf" stroke="black" points="59.5,-57.5 59.5,-77.5 151.5,-77.5 151.5,-57.5 59.5,-57.5"/>
<text text-anchor="middle" x="105.5" y="-64.7" font-family="Avenir-Book" font-size="11.00">src/Strings.hh</text>
</g>
<!-- Node4 -->
<g id="node2" class="node"><title>Node4</title>
<g id="a_node2"><a xlink:href="PolicyFile_8cc.html" target="_top" xlink:title="Definition of loom::PolicyFile. ">
<polygon fill="none" stroke="black" points="0,-0.5 0,-20.5 99,-20.5 99,-0.5 0,-0.5"/>
<text text-anchor="middle" x="49.5" y="-7.7" font-family="Avenir-Book" font-size="11.00">src/PolicyFile.cc</text>
</a>
</g>
</g>
<!-- Node3&#45;&gt;Node4 -->
<g id="edge1" class="edge"><title>Node3&#45;&gt;Node4</title>
<path fill="none" stroke="midnightblue" d="M89.0046,-50.2992C79.2134,-40.6828 67.1501,-28.8349 58.9482,-20.7795"/>
<polygon fill="midnightblue" stroke="midnightblue" points="86.6657,-52.9078 96.2527,-57.4179 91.5707,-47.9137 86.6657,-52.9078"/>
</g>
<!-- Node5 -->
<g id="node3" class="node"><title>Node5</title>
<g id="a_node3"><a xlink:href="Strings_8cc.html" target="_top" xlink:title="Definition of string manipulation functions. ">
<polygon fill="none" stroke="black" points="117,-0.5 117,-20.5 208,-20.5 208,-0.5 117,-0.5"/>
<text text-anchor="middle" x="162.5" y="-7.7" font-family="Avenir-Book" font-size="11.00">src/Strings.cc</text>
</a>
</g>
</g>
<!-- Node3&#45;&gt;Node5 -->
<g id="edge2" class="edge"><title>Node3&#45;&gt;Node5</title>
<path fill="none" stroke="midnightblue" d="M122.29,-50.2992C132.256,-40.6828 144.535,-28.8349 152.883,-20.7795"/>
<polygon fill="midnightblue" stroke="midnightblue" points="119.678,-47.9555 114.912,-57.4179 124.539,-52.9928 119.678,-47.9555"/>
</g>
</g>
</svg>
